<svg width="100" height="33" viewBox="0 0 100 33" fill="none" xmlns="http://www.w3.org/2000/svg">
<path d="M97.7915 24.983L51.8824 0.477382C51.2982 0.159127 50.6524 0 50.0067 0C49.3609 0 48.7152 0.159127 48.131 0.477382L2.22183 24.983C0.284609 26.0332 -0.54563 28.4519 0.376857 30.4888C1.29934 32.5574 3.60556 33.5122 5.63504 32.6847L48.5 15.4672C48.9919 15.2762 49.4839 15.1489 50.0067 15.1489C50.5294 15.1489 51.0214 15.2444 51.5134 15.4672L94.3783 32.6847C96.4078 33.544 98.7448 32.5892 99.6365 30.5206C100.528 28.4519 99.7287 26.0332 97.7915 24.983Z" fill="#F2A11F"/>
</svg>
