<?xml version="1.0" encoding="UTF-8"?>
<svg id="Layer_2" data-name="Layer 2" xmlns="http://www.w3.org/2000/svg" width="221.65" height="223.29" viewBox="0 0 221.65 223.29">
  <defs>
    <style>
      .cls-1 {
        fill: #fff;
      }
    </style>
  </defs>
  <g id="Layer_15" data-name="Layer 15">
    <g>
      <path class="cls-1" d="M97.99,221.98h0c0-.84-.65-1.52-1.48-1.56l-25.53-1.17c-1.51-.07-2.03-2.03-.76-2.85l21.53-13.8c.69-.45.92-1.36.51-2.07-.41-.72-1.32-.99-2.05-.61l-22.71,11.76c-1.34.69-2.78-.75-2.08-2.08l11.76-22.72c.38-.73.12-1.63-.6-2.05h-.02c-.72-.43-1.63-.21-2.08.49l-13.79,21.55c-.81,1.27-2.78.75-2.85-.76l-1.19-25.56c-.04-.83-.72-1.48-1.54-1.48h-.01c-.83,0-1.51.65-1.55,1.48l-1.18,25.55c-.07,1.51-2.03,2.03-2.85.76l-13.78-21.55c-.45-.7-1.36-.92-2.08-.5h-.02c-.71.43-.98,1.33-.6,2.06l11.77,22.72c.69,1.34-.74,2.78-2.08,2.09l-22.71-11.76c-.73-.38-1.63-.12-2.05.59h0c-.42.73-.2,1.65.5,2.09l21.53,13.79c1.27.81.74,2.78-.76,2.85l-25.54,1.17c-.83.04-1.48.72-1.48,1.55h0c0,.56.29,1.04.73,1.32h84.31c.44-.27.73-.76.73-1.31Z"/>
      <path class="cls-1" d="M184.02,140.12l-17.39-8.97c-.22-.11-.46-.17-.7-.17-.24,0-.48.06-.71.17l-17.39,8.97c-.73.38-1.04,1.27-.7,2.02h0c.34.76,1.22,1.11,1.99.8l16.24-6.3c.18-.07.38-.11.57-.11.19,0,.39.04.57.11l16.24,6.3c.77.31,1.65-.04,1.99-.8h0c.34-.75.03-1.64-.7-2.02Z"/>
      <path class="cls-1" d="M181.05,104.77l21.53-13.8c.69-.45.92-1.36.51-2.07-.41-.72-1.32-.99-2.05-.6l-22.71,11.76c-1.34.69-2.78-.75-2.08-2.08l11.76-22.72c.38-.73.12-1.63-.6-2.05h-.02c-.72-.43-1.63-.21-2.08.49l-13.79,21.55c-.81,1.27-2.78.75-2.85-.76l-1.19-25.56c-.04-.83-.72-1.47-1.54-1.47h-.01c-.83,0-1.51.65-1.54,1.48l-1.18,25.55c-.07,1.51-2.04,2.03-2.85.76l-13.78-21.55c-.45-.7-1.36-.92-2.08-.5h-.02c-.71.43-.98,1.33-.6,2.06l11.77,22.72c.69,1.34-.74,2.78-2.08,2.08l-22.71-11.76c-.73-.38-1.63-.12-2.05.59h0c-.42.73-.2,1.65.5,2.09l21.53,13.79c1.27.81.74,2.78-.76,2.85l-25.54,1.17c-.83.04-1.48.72-1.48,1.54h0c0,.84.65,1.52,1.48,1.56l25.54,1.18c1.51.07,2.03,2.03.76,2.85l-21.54,13.78c-.7.45-.92,1.36-.5,2.08v.02c.43.71,1.33.98,2.06.6l34.38-17.8c.45-.23.98-.23,1.42,0l34.38,17.8c.74.38,1.64.11,2.06-.61h0c.41-.73.18-1.63-.51-2.08l-21.53-13.79c-1.27-.81-.74-2.78.76-2.85l25.53-1.18c.83-.04,1.48-.72,1.48-1.54h0c0-.84-.65-1.52-1.48-1.56l-25.53-1.17c-1.51-.07-2.03-2.03-.76-2.85Z"/>
      <path class="cls-1" d="M218.9,223.29h2.75v-19.01c-1.8,5.58-2.78,11.53-2.78,17.71,0,.44.02.87.03,1.3Z"/>
      <path class="cls-1" d="M218.9,0c.13,5.71,1.08,11.22,2.75,16.41V0h-2.75Z"/>
      <path class="cls-1" d="M221.65,25.71c-12.24-7.92-26.26-13.29-41.33-15.37-.36-3.4-.55-6.84-.55-10.33h-5c0,3.29.16,6.55.47,9.76-2.97-.26-5.97-.4-9-.4s-6.04.14-9.01.4c.31-3.21.47-6.47.47-9.76h-5c0,3.49-.19,6.94-.55,10.33-18.51,2.56-35.45,10.09-49.43,21.19,6.22-9,9.96-19.84,10.22-31.53h-5c-.7,28.55-24.12,51.57-52.84,51.57S2.95,28.55,2.25,0H0v16.4c1.62,5.03,3.91,9.76,6.77,14.08-2.19-1.68-4.44-3.28-6.77-4.78v6.02c21.26,14.79,36.37,37.82,40.64,64.44-14.93-2.28-28.74-7.98-40.64-16.25v6.02c12.24,7.92,26.26,13.29,41.33,15.37.36,3.4.55,6.84.55,10.33s-.19,6.94-.55,10.33c-15.06,2.08-29.09,7.46-41.33,15.37v6.02c11.9-8.27,25.71-13.97,40.64-16.25-4.27,26.61-19.38,49.65-40.64,64.44v6.02c1.35-.87,2.68-1.78,3.98-2.71-1.59,2.99-2.93,6.14-3.98,9.41v19.01h2.25c-.01-.43-.03-.87-.03-1.3,0-29.15,23.72-52.87,52.87-52.87s52.87,23.72,52.87,52.87c0,.44-.02.87-.03,1.3h5c0-.43.03-.87.03-1.3,0-10.1-2.61-19.6-7.18-27.88,13.36,9.82,29.18,16.47,46.36,18.85.36,3.4.55,6.84.55,10.33h5c0-3.29-.16-6.55-.47-9.76,2.97.26,5.97.4,9.01.4s6.04-.14,9-.4c-.31,3.21-.47,6.47-.47,9.76h5c0-3.49.19-6.94.55-10.33,15.06-2.08,29.09-7.46,41.33-15.37v-6.02c-11.9,8.27-25.71,13.97-40.64,16.25,4.27-26.61,19.38-49.65,40.64-64.44v-6.02c-2.8,1.81-5.5,3.75-8.1,5.82,3.6-5.2,6.36-11.02,8.1-17.26v-31.14c-1.21-4.33-2.9-8.45-5.03-12.31,1.64,1.21,3.32,2.37,5.03,3.48v-6.02c-21.26-14.79-36.37-37.82-40.64-64.44,14.93,2.28,28.74,7.98,40.64,16.25v-6.02ZM70.18,96.17c6.66-41.51,39.67-74.32,81.28-80.69-6.66,41.5-39.67,74.32-81.28,80.69ZM114.81,83.23c-4.31,8.09-6.77,17.32-6.77,27.11,0,11.73,3.52,22.66,9.55,31.79-13.72-10.53-30.17-17.67-48.09-20.15-.36-3.4-.55-6.84-.55-10.33s.19-6.94.55-10.33c16.72-2.31,32.17-8.68,45.31-18.08ZM24.36,47.7c8.91,5.61,19.44,8.87,30.73,8.87,11.84,0,22.86-3.58,32.05-9.71-11.51,14.03-19.37,31.17-22.11,49.95-3.16.31-6.37.47-9.62.47s-6.45-.16-9.62-.47c-2.69-18.4-10.29-35.23-21.43-49.11ZM64.42,121.4c-2.97-.26-5.97-.4-9.01-.4s-6.04.14-9,.4c.31-3.21.47-6.47.47-9.76s-.16-6.55-.47-9.76c2.97.26,5.97.4,9,.4s6.04-.14,9.01-.4c-.31,3.21-.47,6.47-.47,9.76s.16,6.55.47,9.76ZM55.09,164.11c-9.82,0-19.07,2.47-27.18,6.8,9.21-12.91,15.5-28.05,17.89-44.43,3.16-.31,6.37-.48,9.62-.48s6.45.16,9.62.48c2.43,16.64,8.87,31.98,18.32,45.02-8.36-4.7-18-7.39-28.25-7.39ZM70.19,127.12c41.6,6.36,74.61,39.18,81.27,80.69-41.6-6.37-74.61-39.18-81.27-80.69ZM175.85,208.45c-3.16.31-6.37.47-9.62.47s-6.45-.16-9.62-.47c-2.69-18.4-10.29-35.23-21.43-49.11,8.91,5.61,19.44,8.87,30.73,8.87,11.84,0,22.86-3.58,32.05-9.71-11.51,14.03-19.37,31.17-22.11,49.95ZM218.79,110.34c0,29.15-23.72,52.87-52.87,52.87s-52.87-23.72-52.87-52.87,23.72-52.87,52.87-52.87,52.87,23.72,52.87,52.87ZM194.17,59.86c-8.36-4.7-18-7.39-28.25-7.39s-19.07,2.47-27.18,6.8c9.21-12.91,15.5-28.05,17.89-44.43,3.16-.31,6.37-.48,9.62-.48s6.45.16,9.62.48c2.43,16.64,8.87,31.98,18.32,45.02Z"/>
      <path class="cls-1" d="M0,93.32v34.05c1.66-5.39,2.56-11.1,2.56-17.03S1.66,98.7,0,93.32Z"/>
      <path class="cls-1" d="M36.3,30.5c.34.76,1.22,1.11,1.99.8l16.24-6.3c.18-.07.38-.11.57-.11.19,0,.39.04.57.11l16.24,6.3c.77.31,1.65-.04,1.99-.8h0c.34-.76.03-1.64-.7-2.02l-17.39-8.97c-.22-.11-.46-.17-.71-.17-.24,0-.48.06-.7.17l-17.39,8.97c-.73.38-1.04,1.27-.7,2.02h0Z"/>
      <path class="cls-1" d="M39.22,1.41c1.51.07,2.03,2.03.76,2.85l-21.54,13.78c-.7.45-.92,1.36-.5,2.08v.02c.43.71,1.33.98,2.06.6L54.39,2.94c.45-.23.98-.23,1.42,0l34.38,17.8c.74.38,1.64.11,2.06-.61h0c.41-.73.18-1.63-.51-2.08l-21.53-13.79c-1.27-.81-.74-2.78.76-2.85L96.51.24c.27-.01.53-.1.74-.24H12.94c.22.14.47.22.74.24l25.54,1.18Z"/>
    </g>
  </g>
</svg>