<svg width="32" height="32" viewBox="0 0 32 32" fill="none" xmlns="http://www.w3.org/2000/svg">
<path d="M16.0041 32C7.18126 32 0 24.8219 0 15.998C0 7.17403 7.18126 0 16.0041 0C24.8269 0 32 7.1781 32 15.998C32 24.8178 24.8269 31.9959 16.0041 31.9959V32ZM16.0041 1.53176C8.02444 1.53176 1.53157 8.02139 1.53157 15.998C1.53157 23.9745 8.02444 30.4682 16.0041 30.4682C23.9837 30.4682 30.4684 23.9786 30.4684 15.998C30.4684 8.01731 23.9796 1.53176 16.0041 1.53176Z" fill="#083045"/>
<path d="M20.998 24.219L16.1955 21.7421C16.1344 21.7095 16.0692 21.6932 16 21.6932C15.9348 21.6932 15.8656 21.7095 15.8045 21.7421L11.002 24.219C10.7984 24.3249 10.7128 24.5693 10.8106 24.7771C10.9043 24.9849 11.1487 25.0826 11.3605 24.9971L15.8411 23.2575C15.89 23.2372 15.943 23.225 15.9959 23.225C16.0489 23.225 16.1018 23.2372 16.1507 23.2575L20.6314 24.9971C20.8432 25.0826 21.0876 24.9849 21.1813 24.7771C21.275 24.5693 21.1894 24.3249 20.9898 24.219H20.998Z" fill="#F8A51C"/>
<path d="M27.4338 15.5702L20.387 15.2484C19.9715 15.228 19.8248 14.6862 20.1752 14.4621L26.1181 10.6531C26.3096 10.5309 26.3707 10.2783 26.2566 10.0828C26.1426 9.88313 25.8941 9.8098 25.6904 9.91572L19.4216 13.1626C19.0509 13.354 18.6558 12.9589 18.8473 12.5882L22.0937 6.31445C22.1996 6.11076 22.1263 5.86225 21.9308 5.74819H21.9226C21.723 5.63004 21.4705 5.69115 21.3483 5.88262L17.5438 11.8304C17.3198 12.1808 16.778 12.0341 16.7576 11.6186L16.4277 4.5627C16.4155 4.33456 16.2281 4.15532 16 4.15532C15.7719 4.15532 15.5845 4.33456 15.5723 4.5627L15.2464 11.6186C15.2261 12.0341 14.6843 12.1808 14.4603 11.8304L10.6558 5.88262C10.5336 5.69115 10.2811 5.63005 10.0815 5.74411H10.0774C9.88187 5.86225 9.80855 6.11076 9.91446 6.31445L13.1609 12.5841C13.3523 12.9548 12.9572 13.35 12.5866 13.1585L6.31772 9.91165C6.11405 9.80573 5.86558 9.87906 5.75153 10.0746C5.63747 10.2742 5.69857 10.5309 5.89002 10.6531L11.833 14.4621C12.1833 14.6862 12.0367 15.228 11.6212 15.2484L4.57027 15.5702C4.34216 15.5824 4.16293 15.7698 4.16293 15.998C4.16293 16.2302 4.34216 16.4176 4.57027 16.4257L11.6212 16.7516C12.0367 16.772 12.1833 17.3138 11.833 17.5379L5.89002 21.3428C5.69857 21.4651 5.63747 21.7176 5.75153 21.9172C5.86558 22.1209 6.11405 22.1943 6.31772 22.0884L15.8086 17.1753C15.9308 17.1101 16.0774 17.1101 16.1996 17.1753L25.6904 22.0884C25.8941 22.1943 26.1426 22.1209 26.2566 21.9213C26.3707 21.7217 26.3055 21.4691 26.1141 21.3469L20.1711 17.5419C19.8208 17.3179 19.9674 16.7761 20.3829 16.7557L27.4297 16.4298C27.6578 16.4176 27.8371 16.2302 27.8371 16.002C27.8371 15.7698 27.6578 15.5824 27.4297 15.5743" fill="#F8A51C"/>
</svg>
