<svg width="645" height="300" viewBox="0 0 645 300" fill="none" xmlns="http://www.w3.org/2000/svg">
<rect width="645" height="300" fill="white"/>
<path d="M261.203 222.458H119.855V224.958H261.203V222.458Z" fill="#F9AA19"/>
<path d="M525.666 222.458H384.402V224.958H525.666V222.458Z" fill="#F9AA19"/>
<path d="M285.048 227.833C284.569 228.508 283.905 229.042 283.057 229.425C282.208 229.808 281.284 230 280.276 230C278.427 230 276.957 229.458 275.865 228.375C274.772 227.292 274.226 225.841 274.226 224.033C274.226 222.333 274.781 220.916 275.89 219.774C276.999 218.633 278.452 218.066 280.242 218.066C281.275 218.066 282.2 218.249 283.015 218.624C283.83 218.999 284.451 219.483 284.863 220.083L283.519 221.35C282.704 220.449 281.645 219.999 280.343 219.999C279.133 219.999 278.167 220.366 277.436 221.1C276.705 221.833 276.343 222.808 276.343 224.033C276.343 225.258 276.722 226.216 277.478 226.958C278.234 227.7 279.217 228.067 280.427 228.067C281.847 228.067 282.989 227.558 283.855 226.533L285.048 227.833Z" fill="#044860"/>
<path d="M297.012 224.9C297.012 225.775 296.878 226.55 296.601 227.225C296.324 227.9 295.954 228.425 295.475 228.817C294.996 229.208 294.483 229.5 293.921 229.692C293.358 229.883 292.761 229.983 292.122 229.983C290.652 229.983 289.425 229.533 288.434 228.625C287.443 227.717 286.947 226.441 286.947 224.8V218.199H288.98V224.55C288.98 225.616 289.274 226.475 289.854 227.125C290.434 227.775 291.19 228.1 292.122 228.1C293.055 228.1 293.778 227.783 294.257 227.15C294.736 226.516 294.979 225.675 294.979 224.616V218.199H297.012V224.9Z" fill="#044860"/>
<path d="M299.852 229.867V218.199H304.473C305.356 218.199 306.112 218.299 306.742 218.499C307.372 218.699 307.851 218.974 308.179 219.324C308.506 219.674 308.75 220.058 308.893 220.466C309.036 220.875 309.111 221.333 309.111 221.833C309.111 222.633 308.876 223.341 308.406 223.95C307.935 224.558 307.305 224.975 306.524 225.2L310.052 229.867H307.582L304.373 225.583H301.886V229.867H299.852ZM301.886 220.099V223.683H304.524C305.297 223.683 305.902 223.516 306.339 223.191C306.776 222.866 306.994 222.408 306.994 221.833C306.994 221.258 306.801 220.85 306.414 220.549C306.028 220.249 305.364 220.099 304.423 220.099H301.886Z" fill="#044860"/>
<path d="M315.598 218.199H317.144L322.303 229.867H320.169L319.026 227.283H313.665L312.539 229.867H310.439L315.598 218.199ZM314.405 225.55H318.27L316.337 221.116L314.405 225.55Z" fill="#044860"/>
<path d="M334.738 229.867H333.04L330.167 221.75L327.377 229.867H325.663L322 218.199H324.117L326.621 226.266L329.36 218.199H331.024L333.813 226.233L336.2 218.199H338.216L334.738 229.867Z" fill="#044860"/>
<path d="M339.997 218.199H348.735V220.099H342.031V223.033H348.299V224.866H342.031V227.967H348.903V229.867H339.997V218.199Z" fill="#044860"/>
<path d="M357.843 225.8C357.574 225.558 357.23 225.366 356.801 225.225C356.373 225.083 355.902 224.958 355.39 224.841C354.877 224.725 354.356 224.583 353.844 224.425C353.331 224.266 352.861 224.066 352.432 223.833C352.004 223.6 351.659 223.275 351.39 222.858C351.122 222.441 350.987 221.941 350.987 221.366C350.987 220.441 351.424 219.666 352.29 219.024C353.155 218.383 354.256 218.066 355.591 218.066C357.532 218.066 359.045 218.624 360.145 219.733L359.036 221.166C358.053 220.358 356.885 219.949 355.541 219.949C354.844 219.949 354.264 220.066 353.793 220.291C353.323 220.516 353.088 220.858 353.088 221.316C353.088 221.683 353.264 221.983 353.625 222.225C353.987 222.466 354.432 222.641 354.97 222.758C355.507 222.875 356.087 223.025 356.717 223.208C357.348 223.391 357.927 223.591 358.465 223.808C359.003 224.025 359.448 224.366 359.809 224.841C360.171 225.316 360.347 225.883 360.347 226.55C360.347 227.558 359.91 228.392 359.036 229.033C358.163 229.675 357.095 230 355.827 230C354.793 230 353.802 229.8 352.852 229.392C351.903 228.983 351.164 228.475 350.651 227.867L351.861 226.45C352.928 227.558 354.306 228.117 356.012 228.117C356.717 228.117 357.264 227.992 357.658 227.742C358.053 227.492 358.247 227.142 358.247 226.7C358.247 226.341 358.112 226.041 357.843 225.8Z" fill="#044860"/>
<path d="M361.456 218.199H371.387V220.099H367.438V229.867H365.405V220.099H361.456V218.199Z" fill="#044860"/>
<path d="M322.202 148.521C300.365 148.521 282.603 130.912 282.603 109.26C282.603 87.6093 300.365 70 322.202 70C344.039 70 361.775 87.6093 361.775 109.26C361.775 130.912 344.022 148.521 322.202 148.521ZM322.202 73.1335C302.104 73.1335 285.762 89.3427 285.762 109.26C285.762 129.178 302.113 145.387 322.202 145.387C342.291 145.387 358.616 129.178 358.616 109.26C358.616 89.3427 342.274 73.1335 322.202 73.1335Z" fill="#044860"/>
<path d="M334.654 129.595L322.681 123.461C322.529 123.386 322.361 123.344 322.193 123.344C322.025 123.344 321.857 123.386 321.706 123.461L309.733 129.595C309.229 129.853 309.019 130.461 309.254 130.978C309.49 131.495 310.094 131.737 310.624 131.52L321.807 127.22C321.933 127.17 322.067 127.145 322.202 127.145C322.336 127.145 322.471 127.17 322.597 127.22L333.78 131.52C334.309 131.737 334.914 131.495 335.149 130.978C335.385 130.461 335.175 129.853 334.67 129.595H334.654Z" fill="#F9AA19"/>
<path d="M350.71 108.194L333.133 107.402C332.091 107.352 331.73 106.01 332.604 105.46L347.433 96.0347C347.912 95.7347 348.063 95.1096 347.786 94.6179C347.5 94.1263 346.879 93.9429 346.374 94.2013L330.73 102.227C329.806 102.702 328.814 101.718 329.293 100.802L337.393 85.2841C337.653 84.7841 337.477 84.1674 336.981 83.8841H336.964C336.468 83.5924 335.838 83.7424 335.536 84.2174L326.042 98.9348C325.479 99.8016 324.126 99.4432 324.084 98.4181L323.269 80.9589C323.244 80.3922 322.773 79.9505 322.202 79.9505H322.193C321.622 79.9505 321.152 80.3922 321.126 80.9589L320.32 98.4098C320.269 99.4432 318.917 99.8015 318.362 98.9265L308.868 84.2091C308.557 83.734 307.927 83.584 307.439 83.8674H307.423C306.935 84.1591 306.75 84.7758 307.011 85.2758L315.119 100.793C315.598 101.71 314.606 102.693 313.682 102.218L298.046 94.1846C297.542 93.9262 296.92 94.1013 296.634 94.5929C296.349 95.093 296.5 95.718 296.979 96.0264L311.808 105.452C312.682 106.01 312.321 107.352 311.279 107.394L293.694 108.185C293.122 108.21 292.677 108.677 292.677 109.244C292.677 109.819 293.122 110.277 293.694 110.31L311.279 111.11C312.321 111.16 312.682 112.502 311.8 113.052L296.97 122.469C296.492 122.778 296.34 123.403 296.626 123.886V123.903C296.92 124.386 297.542 124.57 298.046 124.311L321.723 112.152C322.034 111.994 322.395 111.994 322.706 112.152L346.383 124.311C346.887 124.57 347.517 124.386 347.794 123.894C348.072 123.403 347.92 122.778 347.442 122.478L332.612 113.061C331.738 112.502 332.099 111.16 333.141 111.119L350.718 110.319C351.29 110.294 351.735 109.827 351.735 109.26C351.735 108.685 351.29 108.227 350.718 108.194H350.71Z" fill="#F9AA19"/>
<path d="M350.794 185.998C352.046 184.573 352.684 182.856 352.684 180.906C352.684 175.372 349.063 172.572 341.913 172.572H331.251V200.04H335.267V189.473H341.98L350.063 200.04H354.987L346.215 188.69C348.089 188.239 349.626 187.331 350.794 185.998ZM335.267 176.322H341.787C346.358 176.322 348.584 177.822 348.584 180.906C348.584 182.381 348.013 183.523 346.837 184.398C345.652 185.273 344.039 185.723 342.022 185.723H335.267V176.322Z" fill="#F9AA19"/>
<path d="M361.616 187.923H376.588V184.248H361.616V176.322H377.672V172.572H357.6V200.032H378.025V196.282H361.616V187.923Z" fill="#F9AA19"/>
<path d="M403.525 193.006C401.408 195.357 398.669 196.548 395.384 196.548C392.3 196.548 389.779 195.607 387.897 193.748C386.007 191.89 385.049 189.381 385.049 186.306C385.049 183.231 385.94 180.747 387.704 178.872C389.46 177.006 391.897 176.056 394.955 176.056C398.013 176.056 400.702 177.147 402.87 179.297L403.038 179.464L405.651 176.956L405.525 176.789C404.517 175.455 403.071 174.347 401.215 173.497C399.366 172.647 397.232 172.222 394.871 172.222C390.704 172.222 387.292 173.572 384.73 176.247C382.167 178.914 380.873 182.298 380.873 186.298C380.873 190.556 382.176 194.006 384.755 196.548C387.326 199.09 390.83 200.373 395.148 200.373C397.375 200.373 399.484 199.932 401.408 199.057C403.34 198.182 404.861 196.998 405.92 195.523L406.029 195.365L403.702 192.79L403.525 192.99V193.006Z" fill="#F9AA19"/>
<path d="M420.691 172.222C416.758 172.222 413.389 173.589 410.684 176.281C407.978 178.972 406.609 182.348 406.609 186.298C406.609 190.248 407.978 193.723 410.684 196.373C413.389 199.032 416.75 200.373 420.691 200.373C424.631 200.373 427.95 199.015 430.655 196.332C433.361 193.648 434.73 190.273 434.73 186.289C434.73 182.306 433.361 178.864 430.655 176.214C427.95 173.555 424.597 172.214 420.691 172.214V172.222ZM420.691 196.548C417.968 196.548 415.616 195.565 413.692 193.631C411.768 191.698 410.785 189.231 410.785 186.298C410.785 183.364 411.759 180.872 413.666 178.947C415.582 177.022 417.943 176.047 420.691 176.047C423.438 176.047 425.723 177.022 427.656 178.947C429.58 180.872 430.563 183.348 430.563 186.298C430.563 189.248 429.613 191.723 427.731 193.648C425.858 195.573 423.488 196.548 420.691 196.548Z" fill="#F9AA19"/>
<path d="M448.829 194.29L438.436 172.705L438.377 172.572H434.033L447.258 199.898L447.325 200.032H450.19L462.701 172.905L462.852 172.572H458.626L448.829 194.29Z" fill="#F9AA19"/>
<path d="M468.977 187.923H483.941V184.248H468.977V176.322H485.025V172.572H464.952V200.032H485.378V196.282H468.977V187.923Z" fill="#F9AA19"/>
<path d="M509.265 185.998C510.517 184.573 511.155 182.856 511.155 180.906C511.155 175.372 507.534 172.572 500.384 172.572H489.73V200.04H493.746V189.473H500.46L508.475 199.94L508.542 200.032H513.466L504.694 188.681C506.568 188.231 508.105 187.323 509.273 185.989L509.265 185.998ZM493.729 176.322H500.249C504.82 176.322 507.047 177.822 507.047 180.906C507.047 182.381 506.475 183.523 505.299 184.398C504.114 185.273 502.501 185.723 500.485 185.723H493.729V176.322Z" fill="#F9AA19"/>
<path d="M532.312 172.572L523.926 185.431L515.659 172.572H510.777L521.818 189.648V200.032H525.842V189.648L537 172.572H532.312Z" fill="#F9AA19"/>
<path d="M123.309 189.431H131.022V194.356C129.148 195.815 126.796 196.548 124.031 196.548C120.864 196.548 118.251 195.615 116.268 193.781C114.293 191.948 113.285 189.431 113.285 186.306C113.285 183.181 114.26 180.756 116.167 178.881C118.083 177.006 120.628 176.056 123.746 176.056C127.123 176.056 129.761 177.039 131.601 178.989L131.77 179.172L134.374 176.572L134.231 176.406C131.929 173.639 128.316 172.23 123.502 172.23C119.41 172.23 115.932 173.605 113.167 176.306C110.403 179.014 109 182.381 109 186.306C109 190.523 110.42 193.956 113.209 196.523C115.999 199.082 119.603 200.382 123.939 200.382C126.006 200.382 128.056 200.007 130.039 199.265C132.022 198.523 133.652 197.498 134.903 196.223L134.971 196.157V185.756H123.309V189.431Z" fill="#044860"/>
<path d="M159.261 187.839C159.261 190.548 158.606 192.698 157.32 194.24C156.043 195.765 154.153 196.548 151.716 196.548C149.279 196.548 147.355 195.757 145.793 194.206C144.23 192.656 143.448 190.448 143.448 187.648V172.564H139.331V188.148C139.331 192.006 140.524 195.032 142.885 197.157C145.238 199.273 148.212 200.34 151.716 200.34C154.9 200.34 157.673 199.332 159.942 197.332C162.219 195.323 163.378 192.315 163.378 188.381V172.564H159.261V187.839Z" fill="#044860"/>
<path d="M180.266 172.489H177.082L164.605 200.032H168.848L171.923 193.206H185.316L188.433 200.032H192.752L180.333 172.63L180.266 172.489ZM173.494 189.648L178.603 178.214L183.745 189.648H173.494Z" fill="#044860"/>
<path d="M215.807 185.998C217.092 184.573 217.748 182.856 217.748 180.906C217.748 175.372 214.026 172.572 206.682 172.572H195.734V200.04H199.851V189.473H206.766L215.076 200.04H220.125L211.11 188.698C213.034 188.248 214.614 187.339 215.815 186.006L215.807 185.998ZM199.843 176.322H206.556C211.261 176.322 213.547 177.822 213.547 180.906C213.547 182.381 212.958 183.523 211.749 184.398C210.53 185.273 208.867 185.723 206.8 185.723H199.851V176.331L199.843 176.322Z" fill="#044860"/>
<path d="M244.441 176.572C243.248 175.314 241.593 174.322 239.534 173.622C237.484 172.922 235.047 172.564 232.283 172.564H223.411V200.032H231.88C237.14 200.032 241.173 198.707 243.87 196.09C246.567 193.473 247.936 190.048 247.936 185.914C247.936 184.073 247.65 182.348 247.079 180.806C246.508 179.256 245.617 177.831 244.432 176.581L244.441 176.572ZM232.124 196.282H227.528V176.322H232.199C236.215 176.322 239.173 177.189 240.979 178.897C242.786 180.606 243.702 182.964 243.702 185.914C243.702 189.073 242.744 191.615 240.853 193.473C238.963 195.332 236.022 196.273 232.115 196.273L232.124 196.282Z" fill="#044860"/>
<path d="M256.565 172.572H252.448V200.04H256.565V172.572Z" fill="#044860"/>
<path d="M275.218 172.489H272.033L259.556 200.032H263.799L266.874 193.206H280.267L283.384 200.032H287.703L275.285 172.63L275.218 172.489ZM268.446 189.648L273.554 178.214L278.696 189.648H268.446Z" fill="#044860"/>
<path d="M310.649 172.572V192.806L293.904 172.572H290.677V200.032H294.677V179.872L311.388 199.948L311.456 200.032H314.648V172.572H310.649Z" fill="#044860"/>
</svg>
