<svg width="645" height="240" viewBox="0 0 645 240" fill="none" xmlns="http://www.w3.org/2000/svg">
<rect width="645" height="240" fill="#083045"/>
<path d="M99.3162 155C80.3982 155 65 139.522 65 120.496C65 101.469 80.3982 86 99.3162 86C118.234 86 133.606 101.478 133.606 120.496C133.606 139.513 118.225 154.991 99.3162 154.991V155ZM99.3162 89.3029C82.2061 89.3029 68.284 103.296 68.284 120.496C68.284 137.695 82.2061 151.697 99.3162 151.697C116.426 151.697 130.331 137.704 130.331 120.496C130.331 103.287 116.417 89.3029 99.3162 89.3029Z" fill="white"/>
<path d="M110.024 138.222L99.7267 132.881C99.5956 132.811 99.4559 132.776 99.3074 132.776C99.1677 132.776 99.0192 132.811 98.8882 132.881L88.5907 138.222C88.154 138.451 87.9706 138.978 88.1802 139.426C88.3811 139.874 88.9051 140.084 89.3593 139.9L98.9668 136.149C99.0716 136.105 99.1851 136.079 99.2987 136.079C99.4122 136.079 99.5258 136.105 99.6306 136.149L109.238 139.9C109.692 140.084 110.216 139.874 110.417 139.426C110.618 138.978 110.435 138.451 110.007 138.222H110.024Z" fill="#F7A91A"/>
<path d="M123.824 119.573L108.714 118.879C107.823 118.835 107.509 117.667 108.26 117.184L121.003 108.971C121.413 108.707 121.544 108.163 121.3 107.741C121.055 107.311 120.522 107.152 120.086 107.381L106.644 114.382C105.849 114.795 105.002 113.943 105.413 113.143L112.374 99.6155C112.601 99.1763 112.443 98.6405 112.024 98.3945H112.007C111.579 98.1398 111.037 98.2715 110.775 98.6844L102.618 111.509C102.137 112.265 100.976 111.949 100.932 111.053L100.224 95.8383C100.198 95.3464 99.7965 94.9599 99.3074 94.9599C98.8183 94.9599 98.4165 95.3464 98.3903 95.8383L97.6916 111.053C97.6479 111.949 96.4863 112.265 96.0059 111.509L87.8483 98.6844C87.5863 98.2715 87.0448 98.1398 86.6168 98.3857H86.6081C86.1888 98.6405 86.0316 99.1763 86.2587 99.6155L93.2198 113.134C93.6303 113.934 92.7831 114.786 91.9883 114.373L78.5465 107.372C78.1098 107.144 77.5771 107.302 77.3325 107.723C77.088 108.154 77.219 108.707 77.6295 108.971L90.3725 117.184C91.1236 117.667 90.8092 118.835 89.9183 118.879L74.7996 119.573C74.3105 119.6 73.9262 120.004 73.9262 120.496C73.9262 120.996 74.3105 121.4 74.7996 121.418L89.9183 122.121C90.8092 122.165 91.1236 123.333 90.3725 123.816L77.6295 132.02C77.219 132.284 77.088 132.829 77.3325 133.259C77.5771 133.698 78.1098 133.856 78.5465 133.628L98.8969 123.034C99.1589 122.894 99.4734 122.894 99.7354 123.034L120.086 133.628C120.522 133.856 121.055 133.698 121.3 133.268C121.544 132.837 121.405 132.293 120.994 132.029L108.251 123.825C107.5 123.342 107.814 122.173 108.705 122.129L123.815 121.427C124.304 121.4 124.689 120.996 124.689 120.504C124.689 120.004 124.304 119.6 123.815 119.582" fill="#F7A91A"/>
<path d="M160.21 110.218H168.01V115.418C166.114 116.947 163.739 117.729 160.944 117.729C157.738 117.729 155.101 116.745 153.092 114.812C151.092 112.88 150.079 110.227 150.079 106.924C150.079 103.621 151.057 101.065 152.996 99.0973C154.935 97.1208 157.511 96.1282 160.656 96.1282C164.071 96.1282 166.734 97.1647 168.595 99.2202L168.778 99.4223L171.416 96.6728L171.276 96.4971C168.944 93.572 165.293 92.0962 160.411 92.0962C156.262 92.0962 152.742 93.5456 149.948 96.4005C147.153 99.2554 145.738 102.804 145.738 106.942C145.738 111.378 147.17 115.005 150 117.711C152.821 120.417 156.472 121.787 160.856 121.787C162.953 121.787 165.031 121.392 167.031 120.61C169.04 119.828 170.691 118.748 171.949 117.395L172.019 117.325V106.371H160.201V110.244L160.21 110.218Z" fill="white"/>
<path d="M195.967 108.549C195.967 111.404 195.304 113.679 194.002 115.304C192.71 116.912 190.806 117.729 188.334 117.729C185.862 117.729 183.923 116.903 182.351 115.269C180.779 113.635 179.975 111.307 179.975 108.356V92.4476H175.8V108.874C175.8 112.941 177.006 116.13 179.399 118.361C181.783 120.592 184.788 121.717 188.334 121.717C191.565 121.717 194.369 120.645 196.666 118.546C198.972 116.437 200.142 113.257 200.142 109.111V92.4476H195.967V108.549Z" fill="white"/>
<path d="M213.383 92.3686L200.762 121.4H205.068L208.178 114.206H221.715L224.868 121.4H229.253L216.693 92.5179L216.632 92.3686H213.383ZM220.117 110.446H209.767L214.92 98.4121L220.117 110.446Z" fill="white"/>
<path d="M251.961 106.599C253.263 105.097 253.927 103.287 253.927 101.232C253.927 95.3991 250.162 92.4476 242.73 92.4476H231.646V121.4H235.821V110.262H242.799L251.202 121.4H256.32L247.201 109.445C249.149 108.971 250.747 108.013 251.961 106.608V106.599ZM235.821 96.4005H242.599C247.35 96.4005 249.664 97.9817 249.664 101.232C249.664 102.787 249.07 103.99 247.848 104.912C246.616 105.835 244.939 106.309 242.843 106.309H235.821V96.4005Z" fill="white"/>
<path d="M280.321 96.6728C279.116 95.3464 277.439 94.3011 275.351 93.5544C273.273 92.8166 270.81 92.4388 268.015 92.4388H259.036V121.392H267.613C272.941 121.392 277.02 119.995 279.753 117.237C282.487 114.478 283.867 110.868 283.867 106.511C283.867 104.57 283.579 102.76 283.002 101.126C282.426 99.4926 281.526 97.9905 280.321 96.6728ZM279.561 106.511C279.561 109.84 278.592 112.52 276.679 114.487C274.775 116.446 271.797 117.439 267.849 117.439H263.211V96.4005H267.927C271.989 96.4005 274.976 97.3141 276.801 99.1148C278.627 100.916 279.552 103.402 279.552 106.511H279.561Z" fill="white"/>
<path d="M291.981 92.4476H287.806V121.4H291.981V92.4476Z" fill="white"/>
<path d="M310.235 92.3686H306.995L294.374 121.4H298.68L301.789 114.206H315.318L318.471 121.4H322.856L310.296 92.5179L310.235 92.3686ZM313.738 110.446H303.388L308.541 98.4121L313.738 110.446Z" fill="white"/>
<path d="M345.46 92.4476V113.758L328.542 92.4476H325.258V121.392H329.31V100.16L346.281 121.392H349.521V92.4476H345.46Z" fill="white"/>
<path d="M387.436 106.599C388.737 105.097 389.401 103.287 389.401 101.232C389.401 95.3991 385.636 92.4476 378.204 92.4476H367.129V121.4H371.304V110.262H378.282L386.684 121.4H391.803L382.684 109.445C384.632 108.971 386.23 108.013 387.444 106.608L387.436 106.599ZM385.139 101.232C385.139 102.787 384.545 103.99 383.322 104.912C382.09 105.835 380.405 106.309 378.317 106.309H371.295V96.4093H378.073C382.824 96.4093 385.139 97.9905 385.139 101.241V101.232Z" fill="#F7A91A"/>
<path d="M398.685 108.637H414.24V104.763H398.685V96.4005H415.376V92.4476H394.51V121.392H415.743V117.439H398.685V108.637Z" fill="#F7A91A"/>
<path d="M442.251 113.987C440.05 116.464 437.202 117.72 433.787 117.72C430.582 117.72 427.962 116.727 426.005 114.768C424.04 112.809 423.044 110.165 423.044 106.924C423.044 103.683 423.97 101.065 425.804 99.0885C427.63 97.1208 430.171 96.1194 433.342 96.1194C436.512 96.1194 439.316 97.2701 441.569 99.5453L441.744 99.7209L444.46 97.0769L444.329 96.9012C443.29 95.4957 441.779 94.3274 439.849 93.4314C437.927 92.5355 435.709 92.0875 433.255 92.0875C428.922 92.0875 425.376 93.5193 422.712 96.3302C420.049 99.1412 418.704 102.708 418.704 106.924C418.704 111.413 420.057 115.049 422.739 117.729C425.411 120.408 429.053 121.761 433.543 121.761C435.857 121.761 438.05 121.295 440.05 120.373C442.058 119.45 443.639 118.203 444.74 116.657L444.853 116.49L442.434 113.776L442.251 113.987Z" fill="#F7A91A"/>
<path d="M460.094 92.0787C456.007 92.0787 452.504 93.5193 449.692 96.3566C446.88 99.1939 445.456 102.751 445.456 106.915C445.456 111.079 446.88 114.742 449.692 117.535C452.504 120.337 455.998 121.752 460.094 121.752C464.191 121.752 467.641 120.32 470.453 117.491C473.265 114.663 474.689 111.105 474.689 106.906C474.689 102.708 473.265 99.0797 470.453 96.2863C467.641 93.4841 464.156 92.0699 460.094 92.0699V92.0787ZM470.348 106.924C470.348 110.034 469.361 112.643 467.405 114.672C465.457 116.701 462.994 117.729 460.086 117.729C457.177 117.729 454.81 116.692 452.81 114.654C450.81 112.616 449.788 110.016 449.788 106.924C449.788 103.832 450.801 101.205 452.784 99.1763C454.775 97.1472 457.23 96.1194 460.077 96.1194C462.924 96.1194 465.309 97.1472 467.317 99.1763C469.318 101.205 470.339 103.814 470.339 106.924H470.348Z" fill="#F7A91A"/>
<path d="M489.345 115.339L478.471 92.4476H473.955L487.711 121.251L487.773 121.392H490.76L503.922 92.4476H499.529L489.345 115.339Z" fill="#F7A91A"/>
<path d="M510.28 108.637H525.844V104.763H510.28V96.4005H526.971V92.4476H506.105V121.392H527.338V117.439H510.28V108.637Z" fill="#F7A91A"/>
<path d="M552.16 106.599C553.462 105.097 554.125 103.287 554.125 101.232C554.125 95.3991 550.361 92.4476 542.928 92.4476H531.853V121.4H536.028V110.262H543.007L551.339 121.295L551.409 121.392H556.527L547.409 109.436C549.357 108.962 550.955 108.004 552.169 106.599H552.16ZM549.863 101.232C549.863 102.787 549.269 103.99 548.046 104.912C546.815 105.835 545.129 106.309 543.042 106.309H536.02V96.4093H542.797C547.549 96.4093 549.863 97.9905 549.863 101.241V101.232Z" fill="#F7A91A"/>
<path d="M576.118 92.4476L567.41 106.01L558.815 92.4476H553.741L565.218 110.446V121.392H569.392V110.446L581 92.4476H576.118Z" fill="#F7A91A"/>
<path d="M224.694 140.603H157.345V143.238H224.694V140.603Z" fill="#F7A91A"/>
<path d="M568.397 140.62H502.28V143.256H568.397V140.62Z" fill="#F7A91A"/>
<path d="M246.66 148.201L239.917 139.821V148.201H237.856V135.903H239.498L246.241 144.318V135.903H248.302V148.201H246.66Z" fill="white"/>
<path d="M251.359 135.903H260.442V137.906H253.472V140.998H259.988V142.93H253.472V146.198H260.617V148.201H251.359V135.903Z" fill="white"/>
<path d="M275.273 148.201H273.508L270.521 139.645L267.622 148.201H265.84L262.032 135.903H264.233L266.836 144.406L269.683 135.903H271.412L274.312 144.371L276.792 135.903H278.889L275.273 148.201Z" fill="white"/>
<path d="M285.474 148.201V135.903H290.418C291.405 135.903 292.252 136.017 292.942 136.246C293.632 136.474 294.156 136.79 294.514 137.203C294.872 137.616 295.125 138.038 295.274 138.477C295.422 138.916 295.501 139.408 295.501 139.944C295.501 140.48 295.413 140.963 295.23 141.428C295.047 141.894 294.767 142.316 294.392 142.711C294.016 143.106 293.483 143.414 292.802 143.642C292.121 143.87 291.317 143.985 290.4 143.985H287.588V148.201H285.474ZM287.588 137.888V141.999H290.365C292.322 141.999 293.3 141.305 293.3 139.926C293.3 138.547 292.365 137.888 290.487 137.888H287.588Z" fill="white"/>
<path d="M300.933 135.903H302.54L307.903 148.201H305.685L304.497 145.478H298.925L297.754 148.201H295.571L300.933 135.903ZM299.693 143.651H303.711L301.702 138.978L299.693 143.651Z" fill="white"/>
<path d="M306.838 135.903H317.161V137.906H313.056V148.201H310.943V137.906H306.838V135.903Z" fill="white"/>
<path d="M327.537 142.983H321.127V148.201H319.013V135.903H321.127V140.98H327.537V135.903H329.651V148.201H327.537V142.983Z" fill="white"/>
<path d="M344.743 148.201H342.979L339.992 139.645L337.092 148.201H335.311L331.503 135.903H333.704L336.306 144.406L339.154 135.903H340.883L343.783 144.371L346.263 135.903H348.359L344.743 148.201Z" fill="white"/>
<path d="M353.39 135.903H354.997L360.36 148.201H358.142L356.954 145.478H351.381L350.211 148.201H348.027L353.39 135.903ZM352.15 143.651H356.168L354.159 138.978L352.15 143.651Z" fill="white"/>
<path d="M366.212 142.878V148.201H364.098V142.878L359.19 135.903H361.81L365.181 140.805L368.622 135.903H371.155L366.212 142.878Z" fill="white"/>
<path d="M377.601 148.201V135.903H382.545C383.531 135.903 384.379 136.017 385.069 136.246C385.759 136.474 386.283 136.79 386.641 137.203C386.999 137.616 387.252 138.038 387.401 138.477C387.549 138.916 387.628 139.408 387.628 139.944C387.628 140.48 387.54 140.963 387.357 141.428C387.174 141.894 386.894 142.316 386.519 142.711C386.143 143.106 385.61 143.414 384.929 143.642C384.248 143.87 383.444 143.985 382.527 143.985H379.715V148.201H377.601ZM379.715 137.888V141.999H382.492C384.449 141.999 385.427 141.305 385.427 139.926C385.427 138.547 384.492 137.888 382.614 137.888H379.715Z" fill="white"/>
<path d="M390.056 135.903H392.169V148.201H390.056V135.903Z" fill="white"/>
<path d="M404.03 148.201L397.288 139.821V148.201H395.226V135.903H396.868L403.611 144.318V135.903H405.672V148.201H404.03Z" fill="white"/>
<path d="M408.729 135.903H417.813V137.906H410.843V140.998H417.359V142.93H410.843V146.198H417.987V148.201H408.729V135.903Z" fill="white"/>
<path d="M425.341 135.903H430.53C432.067 135.903 433.158 136.175 433.813 136.72C434.469 137.265 434.792 138.02 434.792 138.995C434.792 140.225 434.303 141.139 433.324 141.736C434.582 142.131 435.211 143.097 435.211 144.617C435.211 145.838 434.783 146.734 433.936 147.323C433.089 147.911 431.918 148.201 430.425 148.201H425.341V135.903ZM427.455 137.906V140.963H430.477C431.15 140.963 431.674 140.831 432.049 140.568C432.425 140.304 432.608 139.935 432.608 139.47C432.608 138.934 432.434 138.538 432.084 138.284C431.735 138.029 431.123 137.906 430.25 137.906H427.455ZM427.455 142.895V146.198H430.285C431.237 146.198 431.936 146.066 432.364 145.794C432.792 145.522 433.01 145.091 433.01 144.494C433.01 143.941 432.809 143.537 432.407 143.282C432.006 143.027 431.342 142.895 430.425 142.895H427.455Z" fill="white"/>
<path d="M437.744 148.201V135.903H442.548C443.465 135.903 444.251 136.009 444.906 136.219C445.561 136.43 446.059 136.72 446.399 137.089C446.74 137.458 446.993 137.862 447.142 138.292C447.29 138.723 447.369 139.206 447.369 139.733C447.369 140.576 447.124 141.323 446.635 141.964C446.146 142.605 445.491 143.045 444.679 143.282L448.347 148.201H445.779L442.443 143.686H439.857V148.201H437.744ZM439.857 137.906V141.683H442.6C443.404 141.683 444.032 141.507 444.487 141.165C444.941 140.822 445.168 140.339 445.168 139.733C445.168 139.127 444.967 138.696 444.565 138.38C444.163 138.064 443.473 137.906 442.495 137.906H439.857Z" fill="white"/>
<path d="M450.993 137.581C452.199 136.369 453.684 135.763 455.439 135.763C457.195 135.763 458.679 136.36 459.885 137.555C461.09 138.749 461.693 140.251 461.693 142.052C461.693 143.853 461.09 145.337 459.876 146.541C458.662 147.744 457.186 148.342 455.439 148.342C453.692 148.342 452.216 147.744 451.002 146.55C449.788 145.355 449.185 143.853 449.185 142.052C449.185 140.251 449.788 138.793 450.993 137.581ZM452.574 145.109C453.369 145.908 454.321 146.304 455.439 146.304C456.557 146.304 457.553 145.908 458.33 145.118C459.107 144.327 459.492 143.308 459.492 142.052C459.492 140.796 459.09 139.795 458.295 138.995C457.5 138.196 456.548 137.801 455.439 137.801C454.33 137.801 453.369 138.196 452.574 138.986C451.779 139.777 451.386 140.796 451.386 142.052C451.386 143.308 451.779 144.31 452.574 145.109Z" fill="white"/>
<path d="M465.265 137.581C466.47 136.369 467.955 135.763 469.711 135.763C471.466 135.763 472.951 136.36 474.156 137.555C475.361 138.749 475.964 140.251 475.964 142.052C475.964 143.853 475.361 145.337 474.147 146.541C472.933 147.744 471.457 148.342 469.711 148.342C467.964 148.342 466.488 147.744 465.274 146.55C464.06 145.355 463.457 143.853 463.457 142.052C463.457 140.251 464.06 138.793 465.265 137.581ZM466.846 145.109C467.641 145.908 468.593 146.304 469.711 146.304C470.828 146.304 471.824 145.908 472.602 145.118C473.379 144.327 473.763 143.308 473.763 142.052C473.763 140.796 473.361 139.795 472.567 138.995C471.772 138.196 470.82 137.801 469.711 137.801C468.601 137.801 467.641 138.196 466.846 138.986C466.051 139.777 465.658 140.796 465.658 142.052C465.658 143.308 466.051 144.31 466.846 145.109Z" fill="white"/>
<path d="M478.375 135.903H480.488V141.297L485.973 135.903H488.733L483.178 141.42L489.135 148.201H486.323L481.589 142.843L480.488 143.914V148.201H478.375V135.903Z" fill="white"/>
</svg>
