<svg width="645" height="240" viewBox="0 0 645 240" fill="none" xmlns="http://www.w3.org/2000/svg">
<rect width="645" height="240" fill="#083045"/>
<path d="M99.3162 155C80.3982 155 65 139.522 65 120.496C65 101.469 80.3982 86 99.3162 86C118.234 86 133.606 101.478 133.606 120.496C133.606 139.513 118.225 154.991 99.3162 154.991V155ZM99.3162 89.3029C82.2061 89.3029 68.284 103.296 68.284 120.496C68.284 137.695 82.2061 151.697 99.3162 151.697C116.426 151.697 130.331 137.704 130.331 120.496C130.331 103.287 116.417 89.3029 99.3162 89.3029Z" fill="white"/>
<path d="M110.024 138.222L99.7267 132.881C99.5956 132.811 99.4559 132.776 99.3074 132.776C99.1677 132.776 99.0192 132.811 98.8882 132.881L88.5907 138.222C88.154 138.451 87.9706 138.978 88.1802 139.426C88.3811 139.874 88.9051 140.084 89.3593 139.9L98.9668 136.149C99.0716 136.105 99.1851 136.079 99.2987 136.079C99.4122 136.079 99.5258 136.105 99.6306 136.149L109.238 139.9C109.692 140.084 110.216 139.874 110.417 139.426C110.618 138.978 110.435 138.451 110.007 138.222H110.024Z" fill="#F9AA19"/>
<path d="M123.824 119.573L108.714 118.879C107.823 118.835 107.509 117.667 108.26 117.184L121.003 108.971C121.413 108.707 121.544 108.163 121.3 107.741C121.055 107.311 120.522 107.152 120.086 107.381L106.644 114.382C105.849 114.795 105.002 113.943 105.413 113.143L112.374 99.6155C112.601 99.1763 112.443 98.6405 112.024 98.3945H112.007C111.579 98.1398 111.037 98.2715 110.775 98.6844L102.618 111.509C102.137 112.265 100.976 111.949 100.932 111.053L100.224 95.8383C100.198 95.3464 99.7965 94.9599 99.3074 94.9599C98.8183 94.9599 98.4165 95.3464 98.3903 95.8383L97.6916 111.053C97.6479 111.949 96.4863 112.265 96.0059 111.509L87.8483 98.6844C87.5863 98.2715 87.0448 98.1398 86.6168 98.3857H86.6081C86.1889 98.6405 86.0316 99.1763 86.2587 99.6155L93.2198 113.134C93.6303 113.934 92.7831 114.786 91.9883 114.373L78.5465 107.372C78.1098 107.144 77.5771 107.302 77.3325 107.723C77.088 108.154 77.219 108.707 77.6295 108.971L90.3725 117.184C91.1236 117.667 90.8092 118.835 89.9183 118.879L74.7996 119.573C74.3105 119.6 73.9262 120.004 73.9262 120.496C73.9262 120.996 74.3105 121.4 74.7996 121.418L89.9183 122.121C90.8092 122.165 91.1236 123.333 90.3725 123.816L77.6295 132.02C77.219 132.284 77.088 132.829 77.3325 133.259C77.5771 133.698 78.1098 133.856 78.5465 133.628L98.8969 123.034C99.1589 122.894 99.4734 122.894 99.7354 123.034L120.086 133.628C120.522 133.856 121.055 133.698 121.3 133.268C121.544 132.837 121.405 132.293 120.994 132.029L108.251 123.825C107.5 123.342 107.814 122.173 108.705 122.129L123.815 121.427C124.304 121.4 124.689 120.996 124.689 120.504C124.689 120.004 124.304 119.6 123.815 119.582" fill="#F9AA19"/>
<path d="M387.436 106.599C388.737 105.097 389.401 103.287 389.401 101.232C389.401 95.3991 385.636 92.4476 378.204 92.4476H367.129V121.4H371.304V110.262H378.282L386.615 121.295L386.684 121.392H391.803L382.684 109.436C384.632 108.962 386.23 108.004 387.444 106.599H387.436ZM371.295 96.4005H378.073C382.824 96.4005 385.139 97.9817 385.139 101.232C385.139 102.787 384.545 103.99 383.322 104.912C382.09 105.835 380.405 106.3 378.317 106.3H371.295V96.4005Z" fill="#F9AA19"/>
<path d="M398.685 108.637H414.24V104.763H398.685V96.4005H415.376V92.4476H394.51V121.4H415.734V117.439H398.685V108.637Z" fill="#F9AA19"/>
<path d="M442.251 113.986C440.05 116.463 437.202 117.72 433.787 117.72C430.582 117.72 427.962 116.727 426.005 114.768C424.049 112.809 423.044 110.165 423.044 106.924C423.044 103.682 423.97 101.065 425.804 99.0882C427.63 97.1206 430.171 96.1192 433.342 96.1192C436.512 96.1192 439.316 97.2699 441.569 99.5362L441.744 99.7119L444.46 97.0679L444.329 96.8922C443.281 95.4867 441.779 94.3184 439.849 93.4224C437.927 92.5264 435.709 92.0784 433.255 92.0784C428.922 92.0784 425.376 93.5015 422.712 96.3212C420.049 99.1322 418.704 102.699 418.704 106.915C418.704 111.404 420.057 115.04 422.739 117.72C425.411 120.399 429.053 121.752 433.543 121.752C435.857 121.752 438.05 121.286 440.05 120.364C442.058 119.441 443.639 118.185 444.74 116.639L444.853 116.472L442.434 113.758L442.251 113.969V113.986Z" fill="#F9AA19"/>
<path d="M460.094 92.0787C456.007 92.0787 452.504 93.5193 449.692 96.3566C446.88 99.1939 445.456 102.751 445.456 106.915C445.456 111.079 446.88 114.742 449.692 117.535C452.504 120.337 455.998 121.752 460.094 121.752C464.191 121.752 467.641 120.32 470.453 117.491C473.265 114.663 474.689 111.105 474.689 106.906C474.689 102.708 473.265 99.0797 470.453 96.2863C467.641 93.4841 464.156 92.0699 460.094 92.0699V92.0787ZM460.094 117.729C457.264 117.729 454.819 116.692 452.819 114.654C450.819 112.616 449.797 110.016 449.797 106.924C449.797 103.832 450.81 101.205 452.793 99.1763C454.784 97.1472 457.238 96.1194 460.086 96.1194C462.933 96.1194 465.317 97.1472 467.326 99.1763C469.326 101.205 470.348 103.814 470.348 106.924C470.348 110.034 469.361 112.643 467.405 114.672C465.457 116.701 462.994 117.729 460.086 117.729H460.094Z" fill="#F9AA19"/>
<path d="M489.336 115.348L478.541 92.5882L478.471 92.4476H473.955L487.773 121.4H490.76L503.756 92.799L503.922 92.4476H499.529L489.336 115.348Z" fill="#F9AA19"/>
<path d="M510.28 108.637H525.836V104.763H510.28V96.4005H526.971V92.4476H506.105V121.4H527.338V117.439H510.28V108.637Z" fill="#F9AA19"/>
<path d="M552.16 106.599C553.462 105.097 554.125 103.287 554.125 101.232C554.125 95.3991 550.361 92.4476 542.928 92.4476H531.853V121.4H536.028V110.262H543.007L551.339 121.295L551.409 121.392H556.527L547.409 109.436C549.357 108.962 550.955 108.004 552.169 106.599H552.16ZM536.02 96.4005H542.797C547.549 96.4005 549.863 97.9817 549.863 101.232C549.863 102.787 549.269 103.99 548.046 104.912C546.815 105.835 545.129 106.3 543.042 106.3H536.02V96.4005Z" fill="#F9AA19"/>
<path d="M576.118 92.4476L567.41 106.01L558.885 92.5618L558.815 92.4476H553.732L565.218 110.446V121.4H569.392V110.446L581 92.4476H576.118Z" fill="#F9AA19"/>
<path d="M160.21 110.218H168.01V115.418C166.114 116.947 163.739 117.729 160.944 117.729C157.738 117.729 155.101 116.745 153.092 114.812C151.092 112.88 150.079 110.227 150.079 106.924C150.079 103.621 151.057 101.065 152.996 99.0973C154.935 97.1208 157.511 96.1282 160.656 96.1282C164.071 96.1282 166.734 97.1647 168.595 99.2115L168.778 99.4135L171.416 96.664L171.276 96.4883C168.944 93.5632 165.293 92.0875 160.411 92.0875C156.262 92.0875 152.742 93.5369 149.948 96.3917C147.153 99.2466 145.738 102.795 145.738 106.933C145.738 111.378 147.17 114.997 150 117.702C152.821 120.408 156.472 121.778 160.856 121.778C162.953 121.778 165.031 121.383 167.031 120.601C169.04 119.819 170.691 118.739 171.949 117.386L172.019 117.316V106.362H160.201V110.236L160.21 110.218Z" fill="white"/>
<path d="M195.967 108.549C195.967 111.404 195.304 113.67 194.002 115.304C192.71 116.912 190.806 117.729 188.334 117.729C185.862 117.729 183.923 116.903 182.351 115.269C180.779 113.635 179.975 111.307 179.975 108.356V92.4476H175.8V108.874C175.8 112.941 177.006 116.13 179.399 118.361C181.774 120.592 184.788 121.717 188.334 121.717C191.565 121.717 194.36 120.645 196.666 118.546C198.972 116.429 200.142 113.257 200.142 109.111V92.4476H195.967V108.549Z" fill="white"/>
<path d="M213.383 92.3686L200.911 121.049L200.762 121.4H205.068L208.178 114.206H221.715L224.868 121.4H229.253L216.632 92.3686H213.383ZM220.117 110.446H209.767L214.92 98.4121L220.117 110.446Z" fill="white"/>
<path d="M247.193 109.436C249.14 108.962 250.739 108.004 251.953 106.599C253.254 105.097 253.918 103.287 253.918 101.232C253.918 95.3991 250.154 92.4476 242.721 92.4476H231.637V121.4H235.812V110.262H242.791L251.193 121.4H256.311L247.193 109.445V109.436ZM235.821 96.4005H242.599C247.35 96.4005 249.664 97.9817 249.664 101.232C249.664 102.787 249.07 103.99 247.848 104.912C246.616 105.835 244.939 106.3 242.843 106.3H235.821V96.4005Z" fill="white"/>
<path d="M279.745 117.237C282.47 114.478 283.858 110.868 283.858 106.511C283.858 104.57 283.57 102.751 282.994 101.126C282.417 99.4926 281.518 97.9905 280.312 96.6728C279.107 95.3464 277.43 94.3011 275.343 93.5544C273.264 92.8165 270.792 92.4388 268.006 92.4388H259.027V121.392H267.604C272.932 121.392 277.011 119.995 279.745 117.237ZM267.849 117.439H263.211V96.4005H267.927C271.989 96.4005 274.976 97.3141 276.801 99.1148C278.627 100.916 279.552 103.402 279.552 106.511C279.552 109.84 278.583 112.52 276.679 114.487C274.766 116.446 271.797 117.439 267.849 117.439Z" fill="white"/>
<path d="M291.972 92.4476H287.797V121.4H291.972V92.4476Z" fill="white"/>
<path d="M315.327 114.206L318.48 121.4H322.865L310.244 92.3686H307.004L294.531 121.049L294.383 121.4H298.689L301.798 114.206H315.336H315.327ZM313.729 110.446H303.379L308.532 98.4121L313.729 110.446Z" fill="white"/>
<path d="M329.31 100.16L346.281 121.4H349.512V92.4476H345.46V113.767L328.533 92.4476H325.258V121.4H329.31V100.16Z" fill="white"/>
<path d="M238.266 145.127L233.969 135.903H231.672L237.498 148.201H239L244.52 135.903H242.284L238.266 145.127Z" fill="white"/>
<path d="M248.354 135.903H246.241V148.201H248.354V135.903Z" fill="white"/>
<path d="M260.311 141.964C260.8 141.323 261.045 140.576 261.045 139.733C261.045 139.206 260.966 138.723 260.818 138.292C260.669 137.862 260.416 137.458 260.075 137.089C259.735 136.72 259.237 136.43 258.582 136.219C257.927 136.009 257.141 135.903 256.224 135.903H251.42V148.201H253.534V143.686H256.119L259.455 148.201H262.023L258.355 143.282C259.167 143.045 259.822 142.605 260.311 141.964ZM256.276 141.683H253.534V137.906H256.171C257.15 137.906 257.839 138.064 258.241 138.38C258.643 138.696 258.844 139.144 258.844 139.733C258.844 140.322 258.617 140.822 258.163 141.165C257.708 141.507 257.08 141.683 256.276 141.683Z" fill="white"/>
<path d="M261.927 137.906H266.032V148.201H268.154V137.906H272.259V135.903H261.927V137.906Z" fill="white"/>
<path d="M282.339 142.667C282.339 143.783 282.085 144.67 281.587 145.337C281.09 146.005 280.347 146.339 279.369 146.339C278.391 146.339 277.613 145.996 277.011 145.311C276.408 144.626 276.102 143.721 276.102 142.597V135.903H273.989V142.86C273.989 144.591 274.504 145.935 275.535 146.892C276.565 147.85 277.841 148.324 279.369 148.324C280.033 148.324 280.653 148.219 281.238 148.017C281.823 147.815 282.356 147.507 282.854 147.094C283.352 146.681 283.736 146.128 284.024 145.416C284.312 144.705 284.452 143.888 284.452 142.966V135.903H282.339V142.667Z" fill="white"/>
<path d="M291.518 135.903L286.155 148.201H288.339L289.509 145.478H295.082L296.269 148.201H298.488L293.125 135.903H291.518ZM290.278 143.651L292.287 138.978L294.295 143.651H290.278Z" fill="white"/>
<path d="M302.418 135.903H300.305V148.201H309.362V146.198H302.418V135.903Z" fill="white"/>
<path d="M321.293 146.304C320.035 146.304 319.013 145.917 318.227 145.135C317.441 144.354 317.048 143.326 317.048 142.052C317.048 140.778 317.423 139.733 318.183 138.96C318.943 138.187 319.947 137.801 321.205 137.801C322.559 137.801 323.659 138.275 324.507 139.224L325.904 137.888C325.476 137.256 324.83 136.746 323.983 136.351C323.135 135.956 322.175 135.763 321.1 135.763C319.24 135.763 317.729 136.36 316.576 137.563C315.423 138.767 314.847 140.26 314.847 142.052C314.847 143.958 315.414 145.487 316.55 146.629C317.685 147.771 319.214 148.342 321.135 148.342C322.183 148.342 323.144 148.14 324.026 147.735C324.908 147.331 325.598 146.769 326.096 146.058L324.856 144.687C323.956 145.768 322.769 146.304 321.293 146.304Z" fill="white"/>
<path d="M333.346 135.763C331.59 135.763 330.105 136.369 328.9 137.581C327.695 138.793 327.092 140.286 327.092 142.052C327.092 143.818 327.695 145.355 328.909 146.55C330.123 147.744 331.599 148.342 333.346 148.342C335.092 148.342 336.568 147.744 337.782 146.541C338.997 145.337 339.599 143.844 339.599 142.052C339.599 140.26 338.996 138.749 337.791 137.555C336.586 136.36 335.101 135.763 333.346 135.763ZM336.237 145.118C335.459 145.908 334.498 146.304 333.346 146.304C332.193 146.304 331.276 145.908 330.481 145.109C329.686 144.31 329.293 143.291 329.293 142.052C329.293 140.813 329.686 139.777 330.481 138.986C331.276 138.196 332.228 137.801 333.346 137.801C334.464 137.801 335.407 138.196 336.202 138.995C336.996 139.795 337.398 140.813 337.398 142.052C337.398 143.291 337.014 144.327 336.237 145.118Z" fill="white"/>
<path d="M350.237 142.667C350.237 143.783 349.984 144.67 349.486 145.337C348.988 146.005 348.246 146.339 347.268 146.339C346.289 146.339 345.512 145.996 344.909 145.311C344.307 144.626 344.001 143.721 344.001 142.597V135.903H341.887V142.86C341.887 144.591 342.403 145.935 343.433 146.892C344.464 147.85 345.739 148.324 347.268 148.324C347.931 148.324 348.552 148.219 349.137 148.017C349.722 147.815 350.255 147.507 350.753 147.094C351.25 146.681 351.635 146.128 351.923 145.416C352.211 144.705 352.351 143.888 352.351 142.966V135.903H350.237V142.667Z" fill="white"/>
<path d="M363.688 144.318L356.936 135.903H355.294V148.201H357.355V139.821L364.107 148.201H365.749V135.903H363.688V144.318Z" fill="white"/>
<path d="M376.125 141.815C375.566 141.586 374.963 141.376 374.308 141.182C373.653 140.989 373.051 140.831 372.492 140.708C371.933 140.585 371.47 140.401 371.094 140.146C370.719 139.891 370.535 139.575 370.535 139.188C370.535 138.705 370.78 138.345 371.269 138.108C371.758 137.871 372.361 137.748 373.086 137.748C374.483 137.748 375.697 138.178 376.719 139.03L377.872 137.519C376.728 136.351 375.155 135.763 373.138 135.763C371.749 135.763 370.605 136.096 369.705 136.773C368.806 137.449 368.352 138.266 368.352 139.241C368.352 139.847 368.491 140.374 368.771 140.813C369.05 141.253 369.409 141.595 369.854 141.841C370.299 142.087 370.788 142.298 371.321 142.465C371.854 142.632 372.396 142.781 372.928 142.904C373.461 143.027 373.95 143.159 374.396 143.308C374.841 143.458 375.199 143.66 375.479 143.914C375.758 144.169 375.898 144.485 375.898 144.863C375.898 145.329 375.697 145.698 375.287 145.961C374.876 146.225 374.308 146.356 373.575 146.356C371.802 146.356 370.369 145.768 369.26 144.599L368.002 146.093C368.535 146.734 369.304 147.27 370.291 147.7C371.278 148.131 372.308 148.342 373.382 148.342C374.701 148.342 375.811 147.999 376.719 147.323C377.627 146.646 378.081 145.768 378.081 144.705C378.081 144.002 377.898 143.405 377.522 142.904C377.147 142.403 376.684 142.043 376.125 141.815Z" fill="white"/>
<path d="M382.545 142.93H389.069V140.998H382.545V137.906H389.523V135.903H380.431V148.201H389.698V146.198H382.545V142.93Z" fill="white"/>
<path d="M394.423 135.903H392.309V148.201H401.366V146.198H394.423V135.903Z" fill="white"/>
<path d="M405.48 135.903H403.367V148.201H405.48V135.903Z" fill="white"/>
<path d="M416.922 144.318L410.179 135.903H408.537V148.201H410.598V139.821L417.35 148.201H418.992V135.903H416.922V144.318Z" fill="white"/>
<path d="M427.455 143.563H430.704V145.443C429.971 146.014 429.053 146.304 427.944 146.304C426.652 146.304 425.604 145.926 424.8 145.17C423.996 144.415 423.595 143.378 423.595 142.052C423.595 140.726 423.979 139.715 424.739 138.951C425.499 138.187 426.521 137.801 427.787 137.801C429.184 137.801 430.268 138.231 431.036 139.101L432.451 137.748C431.997 137.124 431.351 136.641 430.503 136.29C429.656 135.938 428.722 135.763 427.682 135.763C425.866 135.763 424.363 136.369 423.175 137.572C421.988 138.776 421.394 140.269 421.394 142.052C421.394 143.941 422.005 145.46 423.219 146.611C424.433 147.762 425.997 148.342 427.909 148.342C428.853 148.342 429.752 148.175 430.608 147.832C431.464 147.489 432.172 147.015 432.73 146.391V141.63H427.455V143.563Z" fill="white"/>
<path d="M446.111 141.613L441.744 135.903H439.875V148.201H441.989V139.663L445.797 144.564H446.338L450.068 139.68V148.201H452.181V135.903H450.33L446.111 141.613Z" fill="white"/>
<path d="M459.352 135.903L453.989 148.201H456.173L457.343 145.478H462.915L464.103 148.201H466.322L460.959 135.903H459.352ZM458.112 143.651L460.121 138.978L462.129 143.651H458.112Z" fill="white"/>
<path d="M470.252 135.903H468.138V148.201H470.252V135.903Z" fill="white"/>
<path d="M481.694 144.318L474.951 135.903H473.309V148.201H475.37V139.821L482.113 148.201H483.764V135.903H481.694V144.318Z" fill="white"/>
<path d="M488.926 146.198V142.93H495.441V140.998H488.926V137.906H495.895V135.903H486.812V148.201H496.07V146.198H488.926Z" fill="white"/>
<path d="M218.606 140.471H157.852V143.106H218.606V140.471Z" fill="#F9AA19"/>
<path d="M569.943 140.471H509.154V143.106H569.943V140.471Z" fill="#F9AA19"/>
</svg>
