<svg width="645" height="300" viewBox="0 0 645 300" fill="none" xmlns="http://www.w3.org/2000/svg">
<rect width="645" height="300" fill="white"/>
<path d="M199.372 222.706H119.855V225.21H199.372V222.706Z" fill="#F9AA19"/>
<path d="M525.657 222.706H445.863V225.21H525.657V222.706Z" fill="#F9AA19"/>
<path d="M322.202 148.631C300.365 148.631 282.603 130.997 282.603 109.316C282.603 87.6341 300.365 70 322.202 70C344.039 70 361.775 87.6341 361.775 109.316C361.775 130.997 344.022 148.631 322.202 148.631ZM322.202 73.1379C302.104 73.1379 285.762 89.3699 285.762 109.316C285.762 129.261 302.113 145.493 322.202 145.493C342.291 145.493 358.616 129.261 358.616 109.316C358.616 89.3699 342.274 73.1379 322.202 73.1379Z" fill="#044860"/>
<path d="M334.654 129.679L322.681 123.536C322.529 123.461 322.361 123.42 322.193 123.42C322.025 123.42 321.857 123.461 321.706 123.536L309.733 129.679C309.229 129.937 309.019 130.547 309.254 131.064C309.49 131.581 310.094 131.823 310.624 131.607L321.807 127.3C321.933 127.25 322.067 127.225 322.202 127.225C322.336 127.225 322.471 127.25 322.597 127.3L333.78 131.607C334.309 131.823 334.914 131.581 335.149 131.064C335.385 130.547 335.175 129.937 334.67 129.679H334.654Z" fill="#F9AA19"/>
<path d="M350.71 108.247L333.133 107.455C332.091 107.405 331.73 106.061 332.604 105.51L347.433 96.0714C347.912 95.7709 348.063 95.145 347.786 94.6526C347.5 94.1602 346.879 93.9766 346.374 94.2353L330.73 102.272C329.806 102.748 328.814 101.763 329.293 100.845L337.393 85.3057C337.653 84.8049 337.477 84.1874 336.981 83.9036H336.964C336.468 83.6115 335.838 83.7617 335.536 84.2374L326.042 98.9756C325.479 99.8435 324.126 99.4847 324.084 98.4582L323.269 80.9743C323.244 80.4068 322.773 79.9645 322.202 79.9645H322.193C321.622 79.9645 321.152 80.4068 321.126 80.9743L320.32 98.4498C320.269 99.4847 318.917 99.8435 318.362 98.9672L308.868 84.2291C308.557 83.7534 307.927 83.6032 307.439 83.8869H307.423C306.935 84.179 306.75 84.7966 307.011 85.2973L315.119 100.837C315.598 101.755 314.606 102.739 313.682 102.264L298.046 94.2187C297.542 93.9599 296.92 94.1352 296.634 94.6276C296.349 95.1283 296.5 95.7542 296.979 96.063L311.808 105.502C312.682 106.061 312.321 107.405 311.279 107.446L293.694 108.239C293.122 108.264 292.677 108.731 292.677 109.299C292.677 109.875 293.122 110.334 293.694 110.367L311.279 111.168C312.321 111.218 312.682 112.562 311.8 113.113L296.97 122.543C296.492 122.852 296.34 123.478 296.626 123.962V123.979C296.92 124.463 297.542 124.646 298.046 124.388L321.723 112.212C322.034 112.053 322.395 112.053 322.706 112.212L346.383 124.388C346.887 124.646 347.517 124.463 347.794 123.97C348.072 123.478 347.92 122.852 347.442 122.552L332.612 113.121C331.738 112.562 332.099 111.218 333.141 111.177L350.718 110.376C351.29 110.351 351.735 109.883 351.735 109.316C351.735 108.74 351.29 108.281 350.718 108.247H350.71Z" fill="#F9AA19"/>
<path d="M350.794 186.161C352.046 184.734 352.676 183.015 352.676 181.062C352.676 175.521 349.055 172.716 341.905 172.716H331.242V200.223H335.259V189.641H341.972L350.055 200.223H354.978L346.206 188.865C348.08 188.414 349.618 187.505 350.786 186.169L350.794 186.161ZM335.267 176.472H341.787C346.358 176.472 348.584 177.974 348.584 181.062C348.584 182.539 348.013 183.682 346.837 184.559C345.652 185.435 344.039 185.886 342.022 185.886H335.267V176.472Z" fill="#F9AA19"/>
<path d="M361.616 188.097H376.588V184.409H361.616V176.472H377.672V172.716H357.6V200.215H378.025V196.459H361.616V188.097Z" fill="#F9AA19"/>
<path d="M403.525 193.18C401.408 195.533 398.669 196.726 395.384 196.726C392.3 196.726 389.779 195.783 387.897 193.922C386.007 192.061 385.049 189.549 385.049 186.47C385.049 183.39 385.94 180.903 387.704 179.026C389.46 177.156 391.897 176.205 394.955 176.205C398.013 176.205 400.702 177.298 402.87 179.451L403.038 179.618L405.651 177.106L405.525 176.939C404.517 175.604 403.071 174.494 401.215 173.643C399.366 172.792 397.232 172.366 394.871 172.366C390.704 172.366 387.292 173.726 384.73 176.397C382.167 179.067 380.873 182.456 380.873 186.462C380.873 190.726 382.176 194.181 384.755 196.726C387.326 199.272 390.83 200.557 395.148 200.557C397.375 200.557 399.484 200.115 401.408 199.238C403.34 198.362 404.861 197.177 405.92 195.708L406.029 195.55L403.702 192.971L403.525 193.171V193.18Z" fill="#F9AA19"/>
<path d="M420.691 172.366C416.758 172.366 413.389 173.735 410.684 176.43C407.978 179.126 406.609 182.506 406.609 186.462C406.609 190.417 407.978 193.897 410.684 196.551C413.389 199.213 416.75 200.557 420.691 200.557C424.631 200.557 427.95 199.197 430.655 196.509C433.361 193.822 434.73 190.442 434.73 186.453C434.73 182.464 433.361 179.017 430.655 176.363C427.95 173.701 424.597 172.358 420.691 172.358V172.366ZM420.691 196.726C417.968 196.726 415.616 195.742 413.692 193.806C411.768 191.869 410.785 189.399 410.785 186.462C410.785 183.524 411.759 181.029 413.666 179.101C415.582 177.173 417.943 176.197 420.691 176.197C423.438 176.197 425.723 177.173 427.656 179.101C429.58 181.029 430.563 183.507 430.563 186.462C430.563 189.416 429.613 191.894 427.731 193.822C425.858 195.75 423.488 196.726 420.691 196.726Z" fill="#F9AA19"/>
<path d="M448.829 194.465L438.377 172.716H434.033L447.325 200.215H450.19L462.852 172.716H458.626L448.829 194.465Z" fill="#F9AA19"/>
<path d="M468.977 188.097H483.941V184.409H468.977V176.472H485.025V172.716H464.952V200.215H485.378V196.459H468.977V188.097Z" fill="#F9AA19"/>
<path d="M509.265 186.161C510.517 184.734 511.155 183.015 511.155 181.062C511.155 175.521 507.534 172.716 500.384 172.716H489.73V200.223H493.746V189.641H500.46L508.542 200.223H513.466L504.694 188.865C506.568 188.414 508.105 187.505 509.273 186.169L509.265 186.161ZM493.729 176.472H500.249C504.82 176.472 507.047 177.974 507.047 181.062C507.047 182.539 506.475 183.682 505.299 184.559C504.114 185.435 502.493 185.886 500.485 185.886H493.729V176.472Z" fill="#F9AA19"/>
<path d="M532.312 172.716L523.926 185.594L515.734 172.825L515.659 172.716H510.777L521.818 189.816V200.215H525.842V189.816L537 172.716H532.312Z" fill="#F9AA19"/>
<path d="M215.916 218.183H213.883V229.866H215.916V218.183Z" fill="#044860"/>
<path d="M224.864 223.607L220.655 218.183H218.857V229.866H220.89V221.755L224.553 226.411H225.083L228.662 221.771V229.866H230.695V218.183H228.914L224.864 223.607Z" fill="#044860"/>
<path d="M239.635 223.607L235.426 218.183H233.627V229.866H235.661V221.755L239.324 226.411H239.853L243.433 221.771V229.866H245.466V218.183H243.685L239.635 223.607Z" fill="#044860"/>
<path d="M250.432 224.859H256.699V223.023H250.432V220.086H257.145V218.183H248.398V229.866H257.313V227.964H250.432V224.859Z" fill="#044860"/>
<path d="M268.387 223.941C268.857 223.332 269.092 222.623 269.092 221.821C269.092 221.321 269.017 220.862 268.874 220.453C268.731 220.044 268.488 219.66 268.16 219.309C267.832 218.959 267.353 218.683 266.723 218.483C266.093 218.283 265.337 218.183 264.455 218.183H259.833V229.866H261.867V225.577H264.354L267.563 229.866H270.034L266.505 225.193C267.286 224.968 267.916 224.55 268.387 223.941ZM264.497 223.674H261.858V220.086H264.396C265.337 220.086 266.001 220.236 266.387 220.536C266.774 220.837 266.967 221.262 266.967 221.821C266.967 222.381 266.748 222.856 266.311 223.182C265.875 223.507 265.27 223.674 264.497 223.674Z" fill="#044860"/>
<path d="M278.931 223.799C278.394 223.582 277.814 223.382 277.184 223.198C276.553 223.015 275.974 222.865 275.436 222.748C274.898 222.631 274.453 222.456 274.092 222.214C273.73 221.972 273.554 221.671 273.554 221.304C273.554 220.845 273.789 220.503 274.26 220.277C274.73 220.052 275.31 219.935 276.007 219.935C277.352 219.935 278.52 220.344 279.503 221.154L280.612 219.718C279.511 218.608 277.999 218.049 276.058 218.049C274.722 218.049 273.621 218.366 272.756 219.009C271.89 219.652 271.453 220.428 271.453 221.354C271.453 221.93 271.588 222.431 271.857 222.848C272.126 223.265 272.47 223.591 272.899 223.824C273.327 224.058 273.798 224.258 274.31 224.417C274.823 224.575 275.344 224.717 275.856 224.834C276.369 224.951 276.839 225.076 277.268 225.218C277.696 225.36 278.041 225.552 278.31 225.794C278.578 226.036 278.713 226.336 278.713 226.695C278.713 227.137 278.52 227.488 278.125 227.738C277.73 227.989 277.184 228.114 276.478 228.114C274.772 228.114 273.394 227.555 272.327 226.445L271.117 227.864C271.63 228.473 272.369 228.982 273.319 229.391C274.268 229.8 275.26 230 276.293 230C277.562 230 278.629 229.675 279.503 229.032C280.376 228.389 280.813 227.555 280.813 226.545C280.813 225.877 280.637 225.31 280.276 224.834C279.914 224.358 279.469 224.016 278.931 223.799Z" fill="#044860"/>
<path d="M285.115 218.183H283.082V229.866H285.115V218.183Z" fill="#044860"/>
<path d="M293.45 218.049C291.761 218.049 290.333 218.625 289.173 219.777C288.014 220.928 287.434 222.347 287.434 224.025C287.434 225.702 288.014 227.163 289.182 228.298C290.35 229.432 291.77 230 293.45 230C295.13 230 296.55 229.433 297.718 228.289C298.886 227.146 299.466 225.727 299.466 224.025C299.466 222.322 298.886 220.887 297.727 219.752C296.567 218.617 295.139 218.049 293.45 218.049ZM296.239 226.937C295.492 227.688 294.567 228.064 293.458 228.064C292.349 228.064 291.467 227.688 290.703 226.929C289.938 226.169 289.56 225.201 289.56 224.025C289.56 222.848 289.938 221.863 290.703 221.112C291.467 220.361 292.383 219.985 293.458 219.985C294.534 219.985 295.441 220.361 296.206 221.12C296.97 221.88 297.357 222.848 297.357 224.025C297.357 225.201 296.987 226.186 296.239 226.937Z" fill="#044860"/>
<path d="M309.851 226.178L303.364 218.183H301.785V229.866H303.768V221.905L310.254 229.866H311.842V218.183H309.851V226.178Z" fill="#044860"/>
<path d="M327.882 223.941C328.352 223.332 328.587 222.623 328.587 221.821C328.587 221.321 328.512 220.862 328.369 220.453C328.226 220.044 327.982 219.66 327.655 219.309C327.327 218.959 326.848 218.683 326.218 218.483C325.588 218.283 324.832 218.183 323.949 218.183H319.328V229.866H321.362V225.577H323.849L327.058 229.866H329.528L326 225.193C326.781 224.968 327.411 224.55 327.882 223.941ZM324 223.674H321.362V220.086H323.899C324.84 220.086 325.504 220.236 325.89 220.536C326.277 220.837 326.47 221.262 326.47 221.821C326.47 222.381 326.252 222.856 325.815 223.182C325.378 223.507 324.773 223.674 324 223.674Z" fill="#044860"/>
<path d="M333.427 224.859H339.695V223.023H333.427V220.086H340.132V218.183H331.394V229.866H340.3V227.964H333.427V224.859Z" fill="#044860"/>
<path d="M349.861 223.799C349.324 223.582 348.744 223.382 348.114 223.198C347.484 223.015 346.904 222.865 346.366 222.748C345.828 222.631 345.383 222.456 345.022 222.214C344.66 221.972 344.484 221.671 344.484 221.304C344.484 220.845 344.719 220.503 345.19 220.277C345.66 220.052 346.24 219.935 346.937 219.935C348.282 219.935 349.45 220.344 350.433 221.154L351.542 219.718C350.441 218.608 348.929 218.049 346.988 218.049C345.652 218.049 344.551 218.366 343.686 219.009C342.82 219.652 342.384 220.428 342.384 221.354C342.384 221.93 342.518 222.431 342.787 222.848C343.056 223.265 343.4 223.591 343.829 223.824C344.257 224.058 344.728 224.258 345.24 224.417C345.753 224.575 346.274 224.717 346.786 224.834C347.299 224.951 347.769 225.076 348.198 225.218C348.626 225.36 348.971 225.552 349.24 225.794C349.508 226.036 349.643 226.336 349.643 226.695C349.643 227.137 349.45 227.488 349.055 227.738C348.66 227.989 348.114 228.114 347.408 228.114C345.702 228.114 344.324 227.555 343.257 226.445L342.047 227.864C342.56 228.473 343.299 228.982 344.249 229.391C345.198 229.8 346.19 230 347.223 230C348.492 230 349.559 229.675 350.433 229.032C351.306 228.389 351.743 227.555 351.743 226.545C351.743 225.877 351.567 225.31 351.206 224.834C350.844 224.358 350.399 224.016 349.861 223.799Z" fill="#044860"/>
<path d="M356.045 218.183H354.012V229.866H356.045V218.183Z" fill="#044860"/>
<path d="M367.825 219.894C367.321 219.351 366.632 218.934 365.75 218.633C364.867 218.333 363.842 218.183 362.666 218.183H358.986V229.866H362.448C364.725 229.866 366.43 229.316 367.573 228.206C368.715 227.096 369.287 225.652 369.287 223.874C369.287 223.073 369.169 222.347 368.934 221.688C368.699 221.029 368.329 220.436 367.825 219.894ZM366.052 226.87C365.304 227.596 364.153 227.964 362.599 227.964H361.019V220.086H362.632C365.657 220.086 367.17 221.346 367.17 223.874C367.17 225.143 366.8 226.144 366.052 226.87Z" fill="#044860"/>
<path d="M373.639 224.859H379.907V223.023H373.639V220.086H380.344V218.183H371.606V229.866H380.512V227.964H373.639V224.859Z" fill="#044860"/>
<path d="M391.099 226.178L384.612 218.183H383.033V229.866H385.015V221.905L391.502 229.866H393.081V218.183H391.099V226.178Z" fill="#044860"/>
<path d="M394.863 220.086H398.812V229.866H400.845V220.086H404.794V218.183H394.863V220.086Z" fill="#044860"/>
<path d="M408.608 218.183H406.575V229.866H408.608V218.183Z" fill="#044860"/>
<path d="M415.515 218.183L410.356 229.866H412.457L413.582 227.279H418.943L420.086 229.866H422.22L417.061 218.183H415.515ZM414.322 225.544L416.254 221.104L418.187 225.544H414.322Z" fill="#044860"/>
<path d="M426.001 227.964V218.183H423.967V229.866H432.672V227.964H426.001Z" fill="#044860"/>
<path d="M131.022 189.599V194.532C129.148 195.984 126.796 196.726 124.031 196.726C120.864 196.726 118.251 195.792 116.268 193.956C114.293 192.12 113.285 189.599 113.285 186.47C113.285 183.34 114.26 180.912 116.167 179.034C118.083 177.156 120.628 176.205 123.746 176.205C127.123 176.205 129.761 177.19 131.601 179.142L131.77 179.326L134.374 176.722L134.231 176.555C131.929 173.785 128.316 172.374 123.502 172.374C119.41 172.374 115.932 173.751 113.167 176.455C110.403 179.168 109 182.539 109 186.47C109 190.693 110.42 194.131 113.209 196.701C115.999 199.264 119.612 200.565 123.939 200.565C126.006 200.565 128.064 200.19 130.039 199.447C132.022 198.704 133.66 197.678 134.903 196.401L134.971 196.334V185.919H123.3V189.599H131.022Z" fill="#044860"/>
<path d="M159.261 188.014C159.261 190.726 158.606 192.879 157.32 194.423C156.043 195.95 154.153 196.735 151.716 196.735C149.279 196.735 147.355 195.95 145.793 194.39C144.238 192.837 143.448 190.626 143.448 187.822V172.716H139.331V188.323C139.331 192.187 140.524 195.216 142.885 197.344C145.238 199.464 148.212 200.532 151.716 200.532C154.9 200.532 157.673 199.514 159.942 197.519C162.219 195.508 163.378 192.495 163.378 188.556V172.716H159.261V188.014Z" fill="#044860"/>
<path d="M180.266 172.633H177.082L164.605 200.215H168.848L171.923 193.38H185.316L188.433 200.215H192.752L180.333 172.775L180.266 172.633ZM183.736 189.816H173.494L178.594 178.366L183.736 189.816Z" fill="#044860"/>
<path d="M220.117 200.215L211.102 188.857C213.026 188.406 214.605 187.496 215.807 186.161C217.092 184.734 217.748 183.015 217.748 181.062C217.748 175.521 214.026 172.716 206.682 172.716H195.734V200.223H199.851V189.641H206.766L215.076 200.223H220.125L220.117 200.215ZM199.843 176.472H206.556C211.261 176.472 213.547 177.974 213.547 181.062C213.547 182.539 212.958 183.682 211.749 184.559C210.53 185.435 208.867 185.886 206.8 185.886H199.851V176.48L199.843 176.472Z" fill="#044860"/>
<path d="M244.441 176.722C243.248 175.462 241.593 174.469 239.526 173.768C237.476 173.067 235.031 172.708 232.275 172.708H223.402V200.215H231.871C237.131 200.215 241.164 198.888 243.861 196.267C246.558 193.647 247.928 190.217 247.928 186.078C247.928 184.233 247.642 182.506 247.071 180.962C246.508 179.41 245.617 177.982 244.424 176.731L244.441 176.722ZM232.124 196.459H227.528V176.472H232.199C236.215 176.472 239.173 177.34 240.979 179.051C242.786 180.762 243.702 183.123 243.702 186.078C243.702 189.241 242.744 191.786 240.853 193.647C238.963 195.508 236.022 196.451 232.115 196.451L232.124 196.459Z" fill="#044860"/>
<path d="M256.565 172.708H252.448V200.215H256.565V172.708Z" fill="#044860"/>
<path d="M266.866 193.38H280.259L283.376 200.215H287.695L275.276 172.775L275.209 172.633H272.025L259.548 200.215H263.791L266.866 193.38ZM268.437 189.816L273.537 178.366L278.679 189.816H268.437Z" fill="#044860"/>
<path d="M310.649 192.979L293.904 172.708H290.677V200.215H294.677V180.027L311.456 200.215H314.648V172.708H310.649V192.979Z" fill="#044860"/>
</svg>
