<svg width="645" height="300" viewBox="0 0 645 300" fill="none" xmlns="http://www.w3.org/2000/svg">
<rect width="645" height="300" fill="#083045"/>
<path d="M189.265 222.65H124.477V225.156H189.265V222.65Z" fill="#F7A91A"/>
<path d="M519.893 222.667H456.29V225.173H519.893V222.667Z" fill="#F7A91A"/>
<path d="M210.396 229.875L203.909 221.907V229.875H201.927V218.182H203.506L209.993 226.183V218.182H211.975V229.875H210.396Z" fill="white"/>
<path d="M214.916 218.174H223.654V220.078H216.949V223.018H223.217V224.855H216.949V227.962H223.822V229.866H214.916V218.174Z" fill="white"/>
<path d="M237.921 229.875H236.224L233.35 221.74L230.561 229.875H228.847L225.183 218.182H227.301L229.805 226.267L232.544 218.182H234.207L236.997 226.233L239.383 218.182H241.399L237.921 229.875Z" fill="white"/>
<path d="M247.734 229.875V218.182H252.49C253.439 218.182 254.254 218.29 254.918 218.508C255.582 218.725 256.086 219.025 256.431 219.418C256.775 219.811 257.019 220.211 257.162 220.629C257.304 221.047 257.38 221.514 257.38 222.024C257.38 222.533 257.296 222.993 257.12 223.435C256.943 223.878 256.674 224.279 256.313 224.655C255.952 225.031 255.439 225.323 254.784 225.54C254.128 225.757 253.355 225.866 252.473 225.866H249.768V229.875H247.734ZM249.768 220.061V223.97H252.44C254.322 223.97 255.263 223.31 255.263 221.999C255.263 220.687 254.364 220.061 252.557 220.061H249.768Z" fill="white"/>
<path d="M262.606 218.174H264.152L269.311 229.866H267.177L266.034 227.277H260.674L259.548 229.866H257.447L262.606 218.174ZM261.413 225.54H265.278L263.345 221.097L261.413 225.54Z" fill="white"/>
<path d="M268.277 218.174H278.209V220.078H274.26V229.866H272.226V220.078H268.277V218.174Z" fill="white"/>
<path d="M288.199 224.914H282.032V229.875H279.998V218.182H282.032V223.009H288.199V218.182H290.232V229.875H288.199V224.914Z" fill="white"/>
<path d="M304.751 229.875H303.054L300.18 221.74L297.391 229.875H295.677L292.013 218.182H294.131L296.634 226.267L299.373 218.182H301.037L303.827 226.233L306.213 218.182H308.229L304.751 229.875Z" fill="white"/>
<path d="M313.069 218.174H314.615L319.774 229.866H317.639L316.497 227.277H311.136L310.01 229.866H307.91L313.069 218.174ZM311.876 225.54H315.741L313.808 221.097L311.876 225.54Z" fill="white"/>
<path d="M325.403 224.805V229.866H323.37V224.805L318.648 218.174H321.168L324.412 222.834L327.722 218.174H330.159L325.403 224.805Z" fill="white"/>
<path d="M336.359 229.875V218.182H341.115C342.064 218.182 342.879 218.29 343.543 218.508C344.207 218.725 344.711 219.025 345.055 219.418C345.4 219.811 345.643 220.211 345.786 220.629C345.929 221.047 346.005 221.514 346.005 222.024C346.005 222.533 345.921 222.993 345.744 223.435C345.568 223.878 345.299 224.279 344.938 224.655C344.576 225.031 344.064 225.323 343.409 225.54C342.753 225.757 341.98 225.866 341.098 225.866H338.393V229.875H336.359ZM338.393 220.061V223.97H341.064C342.946 223.97 343.887 223.31 343.887 221.999C343.887 220.687 342.988 220.061 341.182 220.061H338.393Z" fill="white"/>
<path d="M348.332 218.174H350.365V229.866H348.332V218.174Z" fill="white"/>
<path d="M361.784 229.875L355.297 221.907V229.875H353.315V218.182H354.894L361.381 226.183V218.182H363.363V229.875H361.784Z" fill="white"/>
<path d="M366.296 218.174H375.034V220.078H368.329V223.018H374.597V224.855H368.329V227.962H375.202V229.866H366.296V218.174Z" fill="white"/>
<path d="M382.276 218.174H387.267C388.746 218.174 389.796 218.432 390.426 218.95C391.057 219.468 391.367 220.186 391.367 221.113C391.367 222.283 390.897 223.151 389.956 223.719C391.166 224.095 391.771 225.014 391.771 226.459C391.771 227.62 391.359 228.472 390.544 229.031C389.729 229.591 388.603 229.866 387.166 229.866H382.276V218.174ZM384.318 220.078V222.984H387.225C387.872 222.984 388.376 222.859 388.738 222.608C389.099 222.358 389.275 222.007 389.275 221.564C389.275 221.055 389.107 220.679 388.771 220.437C388.435 220.195 387.847 220.078 387.007 220.078H384.318ZM384.318 224.822V227.962H387.04C387.956 227.962 388.628 227.837 389.04 227.578C389.452 227.319 389.662 226.91 389.662 226.342C389.662 225.816 389.469 225.431 389.082 225.189C388.696 224.947 388.057 224.822 387.175 224.822H384.318Z" fill="white"/>
<path d="M394.207 229.875V218.182H398.828C399.711 218.182 400.467 218.282 401.097 218.483C401.727 218.683 402.206 218.959 402.534 219.309C402.861 219.66 403.105 220.044 403.248 220.454C403.391 220.863 403.466 221.322 403.466 221.823C403.466 222.625 403.231 223.335 402.761 223.945C402.29 224.554 401.66 224.972 400.879 225.198L404.407 229.875H401.937L398.728 225.582H396.241V229.875H394.207ZM396.241 220.078V223.669H398.879C399.652 223.669 400.257 223.502 400.694 223.176C401.131 222.851 401.349 222.391 401.349 221.815C401.349 221.239 401.156 220.829 400.769 220.529C400.383 220.228 399.719 220.078 398.778 220.078H396.241Z" fill="white"/>
<path d="M406.953 219.769C408.113 218.616 409.541 218.04 411.23 218.04C412.919 218.04 414.347 218.608 415.506 219.744C416.666 220.88 417.246 222.308 417.246 224.02C417.246 225.732 416.666 227.144 415.498 228.288C414.33 229.432 412.91 230 411.23 230C409.549 230 408.129 229.432 406.962 228.296C405.794 227.16 405.214 225.732 405.214 224.02C405.214 222.308 405.794 220.921 406.953 219.769ZM408.482 226.935C409.247 227.695 410.163 228.071 411.238 228.071C412.314 228.071 413.272 227.695 414.019 226.943C414.767 226.191 415.137 225.223 415.137 224.028C415.137 222.834 414.75 221.882 413.986 221.122C413.221 220.362 412.305 219.986 411.238 219.986C410.171 219.986 409.247 220.362 408.482 221.113C407.718 221.865 407.34 222.834 407.34 224.028C407.34 225.223 407.718 226.175 408.482 226.935Z" fill="white"/>
<path d="M420.682 219.769C421.842 218.616 423.27 218.04 424.959 218.04C426.648 218.04 428.076 218.608 429.235 219.744C430.395 220.88 430.975 222.308 430.975 224.02C430.975 225.732 430.395 227.144 429.227 228.288C428.059 229.432 426.639 230 424.959 230C423.278 230 421.858 229.432 420.691 228.296C419.523 227.16 418.943 225.732 418.943 224.02C418.943 222.308 419.523 220.921 420.682 219.769ZM422.203 226.935C422.967 227.695 423.883 228.071 424.959 228.071C426.034 228.071 426.992 227.695 427.74 226.943C428.488 226.191 428.857 225.223 428.857 224.028C428.857 222.834 428.471 221.882 427.706 221.122C426.942 220.362 426.026 219.986 424.959 219.986C423.892 219.986 422.967 220.362 422.203 221.113C421.438 221.865 421.06 222.834 421.06 224.028C421.06 225.223 421.438 226.175 422.203 226.935Z" fill="white"/>
<path d="M433.294 218.174H435.327V223.302L440.603 218.174H443.258L437.915 223.419L443.645 229.866H440.939L436.386 224.772L435.327 225.791V229.866H433.294V218.174Z" fill="white"/>
<path d="M322.202 148.693C300.365 148.693 282.603 131.045 282.603 109.346C282.603 87.6479 300.365 70 322.202 70C344.039 70 361.775 87.6479 361.775 109.346C361.775 131.045 344.022 148.693 322.202 148.693ZM322.202 73.1404C302.104 73.1404 285.762 89.3851 285.762 109.346C285.762 129.308 302.113 145.553 322.202 145.553C342.291 145.553 358.616 129.308 358.616 109.346C358.616 89.3851 342.274 73.1404 322.202 73.1404Z" fill="white"/>
<path d="M334.654 129.725L322.681 123.578C322.529 123.503 322.361 123.461 322.193 123.461C322.025 123.461 321.857 123.503 321.706 123.578L309.733 129.725C309.229 129.984 309.019 130.594 309.254 131.112C309.49 131.63 310.094 131.872 310.624 131.655L321.807 127.345C321.933 127.295 322.067 127.27 322.202 127.27C322.336 127.27 322.471 127.295 322.597 127.345L333.78 131.655C334.309 131.872 334.914 131.63 335.149 131.112C335.385 130.594 335.175 129.984 334.67 129.725H334.654Z" fill="#F7A91A"/>
<path d="M350.71 108.277L333.133 107.484C332.091 107.434 331.73 106.089 332.604 105.538L347.433 96.0918C347.912 95.7911 348.063 95.1647 347.786 94.6719C347.5 94.1792 346.879 93.9954 346.374 94.2543L330.73 102.297C329.806 102.773 328.814 101.788 329.293 100.869L337.393 85.3176C337.653 84.8165 337.477 84.1985 336.981 83.9145H336.964C336.468 83.6222 335.838 83.7725 335.536 84.2486L326.042 98.9983C325.479 99.8669 324.126 99.5077 324.084 98.4804L323.269 80.9829C323.244 80.415 322.773 79.9723 322.202 79.9723H322.193C321.622 79.9723 321.152 80.415 321.126 80.9829L320.32 98.4721C320.269 99.5078 318.917 99.8669 318.362 98.9899L308.868 84.2402C308.557 83.7642 307.927 83.6138 307.439 83.8978H307.423C306.935 84.1901 306.75 84.8082 307.011 85.3093L315.119 100.861C315.598 101.78 314.606 102.765 313.682 102.289L298.046 94.2376C297.542 93.9787 296.92 94.1541 296.634 94.6469C296.349 95.148 296.5 95.7744 296.979 96.0834L311.808 105.53C312.682 106.089 312.321 107.434 311.279 107.476L293.694 108.269C293.122 108.294 292.677 108.762 292.677 109.33C292.677 109.906 293.122 110.365 293.694 110.399L311.279 111.201C312.321 111.251 312.682 112.595 311.8 113.147L296.97 122.584C296.492 122.893 296.34 123.52 296.626 124.004V124.021C296.92 124.505 297.542 124.689 298.046 124.43L321.723 112.245C322.034 112.086 322.395 112.086 322.706 112.245L346.383 124.43C346.887 124.689 347.517 124.505 347.794 124.013C348.072 123.52 347.92 122.893 347.442 122.593L332.612 113.155C331.738 112.595 332.099 111.251 333.141 111.209L350.718 110.407C351.29 110.382 351.735 109.914 351.735 109.346C351.735 108.77 351.29 108.311 350.718 108.277H350.71Z" fill="#F7A91A"/>
<path d="M350.794 186.252C352.046 184.824 352.676 183.103 352.676 181.149C352.676 175.603 349.055 172.797 341.905 172.797H331.242V200.325H335.259V189.735H341.972L349.987 200.225L350.055 200.317H354.978L346.206 188.95C348.08 188.499 349.618 187.588 350.786 186.252H350.794ZM348.584 181.149C348.584 182.627 348.013 183.771 346.837 184.648C345.652 185.525 344.039 185.976 342.022 185.976H335.267V176.564H341.787C346.358 176.564 348.584 178.067 348.584 181.157V181.149Z" fill="#F7A91A"/>
<path d="M361.624 188.19H376.588V184.498H361.624V176.555H377.672V172.797H357.6V200.317H378.025V196.558H361.624V188.19Z" fill="#F7A91A"/>
<path d="M403.525 193.276C401.408 195.631 398.669 196.826 395.384 196.826C392.3 196.826 389.779 195.882 387.897 194.019C386.007 192.157 385.049 189.643 385.049 186.561C385.049 183.479 385.94 180.99 387.704 179.111C389.46 177.24 391.905 176.288 394.955 176.288C398.005 176.288 400.702 177.382 402.87 179.545L403.038 179.712L405.651 177.198L405.525 177.031C404.517 175.695 403.071 174.584 401.215 173.732C399.366 172.88 397.232 172.454 394.871 172.454C390.704 172.454 387.292 173.816 384.73 176.488C382.167 179.161 380.873 182.552 380.873 186.561C380.873 190.829 382.176 194.287 384.755 196.834C387.326 199.381 390.83 200.668 395.148 200.668C397.375 200.668 399.484 200.225 401.408 199.348C403.34 198.471 404.861 197.285 405.92 195.815L406.029 195.656L403.702 193.076L403.525 193.276Z" fill="#F7A91A"/>
<path d="M420.691 172.446C416.758 172.446 413.389 173.816 410.684 176.514C407.978 179.211 406.609 182.594 406.609 186.553C406.609 190.512 407.978 193.994 410.684 196.65C413.389 199.315 416.75 200.659 420.691 200.659C424.631 200.659 427.95 199.298 430.655 196.609C433.361 193.919 434.73 190.537 434.73 186.544C434.73 182.552 433.361 179.103 430.655 176.447C427.95 173.782 424.597 172.438 420.691 172.438V172.446ZM430.563 186.553C430.563 189.509 429.613 191.99 427.731 193.919C425.858 195.849 423.488 196.826 420.691 196.826C417.893 196.826 415.616 195.84 413.692 193.902C411.768 191.965 410.785 189.493 410.785 186.553C410.785 183.613 411.759 181.116 413.666 179.186C415.582 177.257 417.943 176.28 420.682 176.28C423.421 176.28 425.715 177.257 427.647 179.186C429.571 181.116 430.555 183.596 430.555 186.553H430.563Z" fill="#F7A91A"/>
<path d="M448.829 194.562L438.436 172.931L438.377 172.797H434.033L447.258 200.183L447.325 200.317H450.19L462.701 173.131L462.852 172.797H458.626L448.829 194.562Z" fill="#F7A91A"/>
<path d="M468.977 188.19H483.941V184.498H468.977V176.555H485.025V172.797H464.952V200.317H485.378V196.558H468.977V188.19Z" fill="#F7A91A"/>
<path d="M509.265 186.252C510.517 184.824 511.155 183.103 511.155 181.149C511.155 175.603 507.534 172.797 500.384 172.797H489.73V200.325H493.746V189.735H500.46L508.475 200.225L508.542 200.317H513.466L504.694 188.95C506.568 188.499 508.105 187.588 509.273 186.252H509.265ZM507.055 181.149C507.055 182.627 506.484 183.771 505.307 184.648C504.123 185.525 502.501 185.976 500.493 185.976H493.738V176.564H500.258C504.829 176.564 507.055 178.067 507.055 181.157V181.149Z" fill="#F7A91A"/>
<path d="M532.312 172.797L523.926 185.684L515.667 172.797H510.777L521.818 189.91V200.317H525.842V189.91L537 172.797H532.312Z" fill="#F7A91A"/>
<path d="M131.022 189.693V194.629C129.148 196.082 126.796 196.826 124.031 196.826C120.864 196.826 118.251 195.89 116.268 194.053C114.293 192.215 113.285 189.693 113.285 186.561C113.285 183.429 114.26 180.999 116.167 179.119C118.083 177.24 120.628 176.288 123.746 176.288C127.123 176.288 129.761 177.274 131.601 179.228L131.77 179.412L134.374 176.806L134.231 176.639C131.929 173.866 128.316 172.454 123.502 172.454C119.41 172.454 115.932 173.833 113.167 176.539C110.403 179.253 109 182.627 109 186.561C109 190.787 110.42 194.228 113.209 196.801C115.999 199.365 119.612 200.668 123.939 200.668C126.006 200.668 128.064 200.292 130.039 199.548C132.022 198.805 133.66 197.778 134.903 196.5L134.971 196.433V186.01H123.3V189.693H131.022Z" fill="white"/>
<path d="M159.261 188.098C159.261 190.812 158.606 192.967 157.32 194.512C156.043 196.041 154.153 196.826 151.716 196.826C149.279 196.826 147.355 196.041 145.793 194.479C144.238 192.925 143.448 190.712 143.448 187.906V172.789H139.331V188.407C139.331 192.274 140.524 195.306 142.885 197.435C145.238 199.557 148.204 200.626 151.716 200.626C154.909 200.626 157.673 199.615 159.942 197.611C162.219 195.606 163.378 192.583 163.378 188.641V172.789H159.261V188.098Z" fill="white"/>
<path d="M180.266 172.713H177.082L164.605 200.317H168.848L171.923 193.477H185.316L188.433 200.317H192.752L180.333 172.855L180.266 172.713ZM173.494 189.91L178.603 178.451L183.745 189.91H173.494Z" fill="white"/>
<path d="M215.807 186.252C217.092 184.824 217.748 183.103 217.748 181.149C217.748 175.603 214.026 172.797 206.682 172.797H195.734V200.325H199.851V189.735H206.766L215.076 200.325H220.125L211.11 188.958C213.034 188.507 214.614 187.597 215.815 186.26L215.807 186.252ZM213.547 181.149C213.547 182.627 212.958 183.771 211.749 184.648C210.53 185.525 208.867 185.976 206.8 185.976H199.851V176.564H206.565C211.27 176.564 213.555 178.067 213.555 181.157L213.547 181.149Z" fill="white"/>
<path d="M244.441 176.806C243.248 175.545 241.593 174.551 239.534 173.849C237.484 173.148 235.039 172.789 232.283 172.789H223.411V200.317H231.88C237.14 200.317 241.173 198.989 243.87 196.366C246.567 193.744 247.936 190.311 247.936 186.168C247.936 184.323 247.65 182.594 247.079 181.049C246.516 179.495 245.617 178.067 244.432 176.814L244.441 176.806ZM243.702 186.168C243.702 189.334 242.744 191.881 240.853 193.744C238.963 195.606 236.022 196.55 232.115 196.55H227.519V176.547H232.191C236.207 176.547 239.164 177.416 240.971 179.128C242.777 180.84 243.693 183.204 243.693 186.16L243.702 186.168Z" fill="white"/>
<path d="M256.565 172.789H252.448V200.317H256.565V172.789Z" fill="white"/>
<path d="M275.218 172.713H272.033L259.556 200.317H263.799L266.874 193.477H280.267L283.384 200.317H287.703L275.285 172.855L275.218 172.713ZM268.446 189.91L273.554 178.451L278.696 189.91H268.446Z" fill="white"/>
<path d="M310.649 172.789V193.076L293.904 172.789H290.677V200.317H294.677V180.113L311.456 200.317H314.648V172.789H310.649Z" fill="white"/>
</svg>
