<svg width="645" height="240" viewBox="0 0 645 240" fill="none" xmlns="http://www.w3.org/2000/svg">
<rect width="645" height="240" fill="white"/>
<path d="M99.3162 155C80.3982 155 65 139.522 65 120.496C65 101.469 80.3982 86 99.3162 86C118.234 86 133.615 101.478 133.615 120.496C133.615 139.513 118.234 154.991 99.3162 154.991V155ZM99.3162 89.3029C82.2061 89.3029 68.284 103.296 68.284 120.496C68.284 137.695 82.2061 151.697 99.3162 151.697C116.426 151.697 130.331 137.704 130.331 120.496C130.331 103.287 116.417 89.3029 99.3162 89.3029Z" fill="#044860"/>
<path d="M110.024 138.222L99.7267 132.881C99.5956 132.811 99.4559 132.776 99.3074 132.776C99.1677 132.776 99.0192 132.811 98.8882 132.881L88.5907 138.222C88.154 138.451 87.9706 138.978 88.1802 139.426C88.3811 139.874 88.9051 140.084 89.3593 139.9L98.9668 136.149C99.0716 136.105 99.1851 136.079 99.2987 136.079C99.4122 136.079 99.5258 136.105 99.6306 136.149L109.238 139.9C109.692 140.084 110.216 139.874 110.417 139.426C110.618 138.978 110.435 138.451 110.007 138.222H110.024Z" fill="#F9AA19"/>
<path d="M123.824 119.573L108.714 118.879C107.823 118.835 107.509 117.667 108.26 117.184L121.003 108.971C121.413 108.707 121.544 108.163 121.3 107.741C121.055 107.311 120.522 107.152 120.086 107.381L106.644 114.382C105.849 114.795 105.002 113.943 105.413 113.143L112.374 99.6155C112.601 99.1763 112.443 98.6405 112.024 98.3945H112.007C111.579 98.1398 111.037 98.2715 110.775 98.6844L102.618 111.509C102.137 112.265 100.976 111.949 100.932 111.053L100.224 95.8383C100.198 95.3464 99.7965 94.9599 99.3074 94.9599C98.8183 94.9599 98.4165 95.3464 98.3903 95.8383L97.6916 111.053C97.6479 111.949 96.4863 112.265 96.0059 111.509L87.8483 98.6844C87.5863 98.2715 87.0448 98.1398 86.6168 98.3857H86.6081C86.1888 98.6405 86.0316 99.1763 86.2587 99.6155L93.2198 113.134C93.6303 113.934 92.7831 114.786 91.9883 114.373L78.5465 107.372C78.1098 107.144 77.5771 107.302 77.3325 107.723C77.088 108.154 77.219 108.707 77.6295 108.971L90.3725 117.184C91.1236 117.667 90.8092 118.835 89.9183 118.879L74.7996 119.573C74.3105 119.6 73.9262 120.004 73.9262 120.496C73.9262 120.996 74.3105 121.4 74.7996 121.418L89.9183 122.121C90.8092 122.165 91.1236 123.333 90.3725 123.816L77.6295 132.02C77.219 132.284 77.088 132.829 77.3325 133.259C77.5771 133.698 78.1098 133.856 78.5465 133.628L98.8969 123.034C99.1589 122.894 99.4734 122.894 99.7354 123.034L120.086 133.628C120.522 133.856 121.055 133.698 121.3 133.268C121.544 132.837 121.405 132.293 120.994 132.029L108.251 123.825C107.5 123.342 107.814 122.173 108.705 122.129L123.815 121.427C124.304 121.4 124.689 120.996 124.689 120.504C124.689 120.004 124.304 119.6 123.815 119.582" fill="#F9AA19"/>
<path d="M160.21 110.218H168.01V115.418C166.114 116.947 163.739 117.729 160.944 117.729C157.738 117.729 155.101 116.745 153.092 114.812C151.092 112.88 150.079 110.227 150.079 106.924C150.079 103.621 151.057 101.065 152.996 99.0973C154.935 97.1208 157.511 96.1282 160.656 96.1282C164.071 96.1282 166.734 97.1647 168.595 99.2202L168.778 99.4223L171.416 96.6728L171.276 96.4971C168.944 93.572 165.293 92.0962 160.411 92.0962C156.262 92.0962 152.742 93.5456 149.948 96.4005C147.153 99.2554 145.738 102.804 145.738 106.942C145.738 111.378 147.17 115.005 150 117.711C152.821 120.417 156.481 121.787 160.856 121.787C162.953 121.787 165.031 121.392 167.031 120.61C169.04 119.828 170.691 118.748 171.949 117.395L172.019 117.325V106.371H160.201V110.244L160.21 110.218Z" fill="#044860"/>
<path d="M195.967 108.549C195.967 111.404 195.304 113.67 194.002 115.304C192.71 116.912 190.806 117.729 188.334 117.729C185.862 117.729 183.923 116.903 182.351 115.269C180.779 113.635 179.975 111.307 179.975 108.356V92.4476H175.8V108.874C175.8 112.941 177.006 116.13 179.399 118.361C181.783 120.592 184.788 121.717 188.334 121.717C191.565 121.717 194.36 120.645 196.666 118.546C198.972 116.429 200.142 113.257 200.142 109.111V92.4476H195.967V108.549Z" fill="#044860"/>
<path d="M213.383 92.3686L200.762 121.4H205.068L208.178 114.206H221.715L224.868 121.4H229.253L216.693 92.5179L216.632 92.3686H213.383ZM220.117 110.446H209.767L214.92 98.4121L220.117 110.446Z" fill="#044860"/>
<path d="M251.961 106.599C253.263 105.097 253.918 103.287 253.918 101.232C253.918 95.3991 250.154 92.4476 242.721 92.4476H231.637V121.4H235.812V110.262H242.791L251.193 121.4H256.311L247.193 109.445C249.14 108.971 250.739 108.013 251.953 106.608L251.961 106.599ZM235.821 96.4005H242.599C247.35 96.4005 249.664 97.9817 249.664 101.232C249.664 102.787 249.07 103.99 247.848 104.912C246.616 105.835 244.939 106.309 242.843 106.309H235.821V96.4005Z" fill="#044860"/>
<path d="M280.321 96.6728C279.116 95.3464 277.439 94.3011 275.351 93.5544C273.273 92.8166 270.801 92.4388 268.015 92.4388H259.036V121.392H267.613C272.941 121.392 277.02 119.995 279.753 117.237C282.478 114.478 283.867 110.868 283.867 106.511C283.867 104.57 283.579 102.751 283.002 101.126C282.426 99.4926 281.526 97.9905 280.321 96.6728ZM267.849 117.439H263.211V96.4005H267.927C271.989 96.4005 274.976 97.3141 276.801 99.1148C278.627 100.916 279.552 103.402 279.552 106.511C279.552 109.84 278.583 112.52 276.67 114.487C274.757 116.446 271.788 117.439 267.84 117.439H267.849Z" fill="#044860"/>
<path d="M291.981 92.4476H287.806V121.4H291.981V92.4476Z" fill="#044860"/>
<path d="M310.235 92.3686H306.995L294.523 121.049L294.374 121.4H298.68L301.789 114.206H315.327L318.48 121.4H322.865L310.305 92.5179L310.235 92.3686ZM313.738 110.446H303.388L308.541 98.4121L313.738 110.446Z" fill="#044860"/>
<path d="M345.46 92.4476V113.767L328.533 92.4476H325.258V121.4H329.31V100.16L346.281 121.4H349.512V92.4476H345.46Z" fill="#044860"/>
<path d="M387.436 106.599C388.737 105.097 389.401 103.287 389.401 101.232C389.401 95.3991 385.636 92.4476 378.204 92.4476H367.129V121.4H371.304V110.262H378.282L386.615 121.295L386.684 121.392H391.803L382.684 109.436C384.632 108.962 386.23 108.004 387.444 106.599H387.436ZM371.295 96.4005H378.073C382.824 96.4005 385.139 97.9817 385.139 101.232C385.139 102.787 384.545 103.99 383.322 104.912C382.09 105.835 380.405 106.309 378.317 106.309H371.295V96.4005Z" fill="#F9AA19"/>
<path d="M398.685 108.637H414.24V104.763H398.685V96.4005H415.376V92.4476H394.51V121.4H415.743V117.439H398.685V108.637Z" fill="#F9AA19"/>
<path d="M442.251 113.987C440.05 116.464 437.202 117.72 433.787 117.72C430.582 117.72 427.962 116.727 426.005 114.768C424.049 112.809 423.044 110.165 423.044 106.924C423.044 103.683 423.97 101.065 425.804 99.0885C427.63 97.1208 430.171 96.1194 433.342 96.1194C436.512 96.1194 439.316 97.2701 441.569 99.5453L441.744 99.7209L444.46 97.0769L444.329 96.9012C443.281 95.4957 441.779 94.3274 439.849 93.4314C437.927 92.5355 435.709 92.0875 433.255 92.0875C428.922 92.0875 425.376 93.5193 422.712 96.3302C420.049 99.1412 418.704 102.708 418.704 106.924C418.704 111.413 420.057 115.049 422.739 117.729C425.411 120.408 429.053 121.761 433.543 121.761C435.857 121.761 438.05 121.295 440.05 120.373C442.058 119.45 443.639 118.203 444.74 116.657L444.853 116.49L442.434 113.776L442.251 113.987Z" fill="#F9AA19"/>
<path d="M460.094 92.0787C456.007 92.0787 452.504 93.5193 449.692 96.3566C446.88 99.1939 445.456 102.751 445.456 106.915C445.456 111.079 446.88 114.742 449.692 117.535C452.504 120.337 455.998 121.752 460.094 121.752C464.191 121.752 467.641 120.32 470.453 117.491C473.265 114.663 474.689 111.105 474.689 106.906C474.689 102.708 473.265 99.0797 470.453 96.2863C467.641 93.4841 464.156 92.0699 460.094 92.0699V92.0787ZM460.094 117.729C457.264 117.729 454.819 116.692 452.819 114.654C450.819 112.616 449.797 110.016 449.797 106.924C449.797 103.832 450.81 101.205 452.793 99.1763C454.784 97.1472 457.238 96.1194 460.086 96.1194C462.933 96.1194 465.317 97.1472 467.326 99.1763C469.326 101.205 470.348 103.814 470.348 106.924C470.348 110.034 469.361 112.643 467.405 114.672C465.457 116.701 462.994 117.729 460.086 117.729H460.094Z" fill="#F9AA19"/>
<path d="M489.336 115.348L478.541 92.5882L478.471 92.4476H473.955L487.711 121.251L487.773 121.4H490.76L503.756 92.799L503.922 92.4476H499.529L489.336 115.348Z" fill="#F9AA19"/>
<path d="M510.28 108.637H525.836V104.763H510.28V96.4005H526.971V92.4476H506.105V121.4H527.338V117.439H510.28V108.637Z" fill="#F9AA19"/>
<path d="M552.16 106.599C553.462 105.097 554.125 103.287 554.125 101.232C554.125 95.3991 550.361 92.4476 542.928 92.4476H531.853V121.4H536.028V110.262H543.007L551.339 121.295L551.409 121.392H556.527L547.409 109.436C549.357 108.962 550.955 108.004 552.169 106.599H552.16ZM536.02 96.4005H542.797C547.549 96.4005 549.863 97.9817 549.863 101.232C549.863 102.787 549.269 103.99 548.046 104.912C546.815 105.835 545.129 106.309 543.042 106.309H536.02V96.4005Z" fill="#F9AA19"/>
<path d="M576.118 92.4476L567.41 106.01L558.815 92.4476H553.741L565.218 110.446V121.4H569.392V110.446L581 92.4476H576.118Z" fill="#F9AA19"/>
<path d="M209.4 147.402V137.063H213.558C214.387 137.063 215.095 137.159 215.68 137.353C216.265 137.546 216.702 137.809 216.999 138.161C217.296 138.503 217.514 138.863 217.637 139.232C217.768 139.601 217.829 140.014 217.829 140.462C217.829 140.91 217.75 141.323 217.602 141.709C217.453 142.096 217.217 142.456 216.894 142.79C216.58 143.124 216.134 143.378 215.558 143.572C214.981 143.765 214.309 143.862 213.54 143.862H211.173V147.41H209.392L209.4 147.402ZM211.173 138.732V142.184H213.505C215.147 142.184 215.968 141.604 215.968 140.445C215.968 139.285 215.182 138.732 213.601 138.732H211.165H211.173Z" fill="#044860"/>
<path d="M219.864 147.402V137.063H223.899C224.676 137.063 225.331 137.15 225.882 137.326C226.432 137.502 226.851 137.748 227.139 138.055C227.427 138.363 227.637 138.705 227.759 139.065C227.882 139.426 227.952 139.83 227.952 140.278C227.952 140.989 227.742 141.613 227.331 142.157C226.921 142.702 226.371 143.071 225.689 143.264L228.773 147.402H226.615L223.812 143.607H221.637V147.402H219.855H219.864ZM221.646 138.74V141.92H223.951C224.624 141.92 225.157 141.771 225.541 141.481C225.925 141.191 226.117 140.787 226.117 140.278C226.117 139.768 225.951 139.408 225.611 139.144C225.27 138.881 224.694 138.749 223.873 138.749H221.654L221.646 138.74Z" fill="#044860"/>
<path d="M230.415 137.063H232.196V147.402H230.415V137.063Z" fill="#044860"/>
<path d="M242.162 147.402L236.493 140.357V147.402H234.764V137.063H236.144L241.812 144.134V137.063H243.542V147.402H242.162Z" fill="#044860"/>
<path d="M255.018 145.601C254.599 146.198 254.014 146.673 253.28 147.015C252.538 147.358 251.734 147.525 250.852 147.525C249.236 147.525 247.953 147.042 247.001 146.084C246.049 145.127 245.568 143.844 245.568 142.237C245.568 140.726 246.049 139.47 247.027 138.459C247.996 137.449 249.263 136.948 250.835 136.948C251.734 136.948 252.547 137.115 253.254 137.44C253.97 137.774 254.503 138.205 254.87 138.732L253.691 139.856C252.975 139.057 252.049 138.661 250.913 138.661C249.857 138.661 249.009 138.986 248.372 139.636C247.734 140.286 247.42 141.156 247.42 142.237C247.42 143.317 247.752 144.178 248.407 144.828C249.07 145.487 249.926 145.812 250.983 145.812C252.223 145.812 253.228 145.355 253.979 144.45L255.018 145.601Z" fill="#044860"/>
<path d="M256.783 137.063H264.416V138.749H258.556V141.349H264.032V142.974H258.556V145.724H264.565V147.41H256.783V137.063Z" fill="#044860"/>
<path d="M265.753 137.063H274.434V138.749H270.984V147.402H269.211V138.749H265.761V137.063H265.753Z" fill="#044860"/>
<path d="M276.417 138.468C277.43 137.449 278.679 136.94 280.155 136.94C281.631 136.94 282.88 137.44 283.893 138.451C284.906 139.461 285.413 140.717 285.413 142.228C285.413 143.739 284.906 144.995 283.884 146.005C282.863 147.015 281.622 147.516 280.155 147.516C278.688 147.516 277.439 147.015 276.426 146.014C275.412 145.012 274.897 143.747 274.897 142.237C274.897 140.726 275.404 139.496 276.417 138.477V138.468ZM277.753 144.802C278.417 145.469 279.221 145.803 280.164 145.803C281.107 145.803 281.946 145.469 282.592 144.802C283.247 144.134 283.57 143.282 283.57 142.228C283.57 141.174 283.238 140.33 282.566 139.654C281.893 138.986 281.098 138.653 280.164 138.653C279.229 138.653 278.417 138.986 277.753 139.645C277.089 140.313 276.757 141.165 276.757 142.219C276.757 143.273 277.089 144.116 277.753 144.793V144.802Z" fill="#044860"/>
<path d="M294.837 147.402L289.169 140.357V147.402H287.439V137.063H288.819L294.488 144.134V137.063H296.217V147.402H294.837Z" fill="#044860"/>
<path d="M302.768 147.402V137.063H306.925C307.755 137.063 308.462 137.159 309.047 137.353C309.633 137.546 310.069 137.809 310.366 138.161C310.663 138.503 310.882 138.863 311.004 139.232C311.135 139.601 311.196 140.014 311.196 140.462C311.196 140.91 311.117 141.323 310.969 141.709C310.82 142.096 310.585 142.456 310.261 142.79C309.947 143.124 309.502 143.378 308.925 143.572C308.349 143.765 307.676 143.862 306.907 143.862H304.541V147.41H302.759L302.768 147.402ZM304.541 138.732V142.184H306.873C308.515 142.184 309.336 141.604 309.336 140.445C309.336 139.285 308.549 138.732 306.969 138.732H304.532H304.541Z" fill="#044860"/>
<path d="M318.847 143.8C318.611 143.581 318.305 143.414 317.939 143.291C317.563 143.168 317.153 143.053 316.707 142.948C316.253 142.843 315.808 142.72 315.353 142.579C314.899 142.439 314.489 142.263 314.122 142.052C313.746 141.841 313.449 141.56 313.213 141.191C312.978 140.822 312.864 140.383 312.864 139.874C312.864 139.057 313.24 138.363 314 137.801C314.759 137.238 315.72 136.948 316.882 136.948C318.576 136.948 319.904 137.44 320.865 138.424L319.895 139.698C319.03 138.978 318.017 138.617 316.838 138.617C316.227 138.617 315.72 138.723 315.31 138.916C314.899 139.109 314.69 139.417 314.69 139.821C314.69 140.146 314.847 140.418 315.161 140.629C315.476 140.84 315.869 140.998 316.332 141.103C316.803 141.209 317.31 141.341 317.86 141.499C318.41 141.666 318.917 141.841 319.388 142.035C319.86 142.228 320.253 142.535 320.559 142.948C320.873 143.37 321.03 143.87 321.03 144.459C321.03 145.355 320.646 146.093 319.886 146.655C319.126 147.226 318.192 147.516 317.083 147.516C316.183 147.516 315.318 147.331 314.48 146.98C313.65 146.62 313.004 146.172 312.558 145.627L313.615 144.371C314.55 145.355 315.755 145.847 317.24 145.847C317.86 145.847 318.34 145.733 318.681 145.513C319.022 145.293 319.196 144.986 319.196 144.591C319.196 144.274 319.083 144.011 318.847 143.791V143.8Z" fill="#044860"/>
<path d="M327.791 142.922V147.393H326.018V142.922L321.886 137.054H324.087L326.926 141.174L329.817 137.054H331.948L327.791 142.922Z" fill="#044860"/>
<path d="M341.826 145.601C341.407 146.198 340.822 146.673 340.088 147.015C339.346 147.358 338.542 147.525 337.66 147.525C336.044 147.525 334.76 147.042 333.808 146.084C332.856 145.127 332.376 143.844 332.376 142.237C332.376 140.726 332.856 139.47 333.835 138.459C334.804 137.449 336.071 136.948 337.643 136.948C338.542 136.948 339.355 137.115 340.062 137.44C340.778 137.774 341.311 138.205 341.678 138.732L340.499 139.856C339.783 139.057 338.857 138.661 337.721 138.661C336.664 138.661 335.817 138.986 335.18 139.636C334.542 140.286 334.228 141.156 334.228 142.237C334.228 143.317 334.56 144.178 335.215 144.828C335.878 145.487 336.734 145.812 337.791 145.812C339.031 145.812 340.036 145.355 340.787 144.45L341.826 145.601Z" fill="#044860"/>
<path d="M350.753 143.01H345.364V147.393H343.582V137.054H345.364V141.323H350.753V137.054H352.534V147.393H350.753V143.01Z" fill="#044860"/>
<path d="M355.093 137.063H356.875V147.402H355.093V137.063Z" fill="#044860"/>
<path d="M362.91 137.063H364.264L368.771 147.402H366.902L365.906 145.109H361.225L360.238 147.402H358.404L362.91 137.063ZM361.862 143.572H365.242L363.557 139.645L361.871 143.572H361.862Z" fill="#044860"/>
<path d="M367.871 137.063H376.553V138.749H373.103V147.402H371.33V138.749H367.88V137.063H367.871Z" fill="#044860"/>
<path d="M378.108 147.402V137.063H382.143C382.92 137.063 383.575 137.15 384.125 137.326C384.676 137.502 385.095 137.748 385.383 138.055C385.671 138.363 385.881 138.705 386.003 139.065C386.125 139.426 386.195 139.83 386.195 140.278C386.195 140.989 385.986 141.613 385.575 142.157C385.165 142.702 384.615 143.071 383.933 143.264L387.016 147.402H384.859L382.055 143.607H379.881V147.402H378.099H378.108ZM379.881 138.74V141.92H382.186C382.859 141.92 383.392 141.771 383.776 141.481C384.16 141.191 384.352 140.787 384.352 140.278C384.352 139.768 384.187 139.408 383.846 139.144C383.505 138.881 382.929 138.749 382.108 138.749H379.889L379.881 138.74Z" fill="#044860"/>
<path d="M392.728 142.922V147.393H390.955V142.922L386.824 137.054H389.025L391.864 141.174L394.755 137.054H396.886L392.728 142.922Z" fill="#044860"/>
<path d="M410.467 147.402C410.249 147.244 409.821 146.866 409.175 146.268C408.293 147.112 407.21 147.542 405.917 147.542C404.712 147.542 403.742 147.27 403.017 146.725C402.292 146.181 401.925 145.469 401.925 144.608C401.925 144.195 402.004 143.809 402.161 143.466C402.318 143.115 402.554 142.79 402.877 142.491C403.201 142.193 403.498 141.947 403.76 141.771C404.022 141.595 404.38 141.358 404.834 141.086C404.214 140.295 403.908 139.566 403.908 138.899C403.908 138.336 404.118 137.871 404.546 137.502C404.974 137.133 405.568 136.948 406.327 136.948C407.148 136.948 407.769 137.124 408.179 137.467C408.59 137.809 408.799 138.292 408.799 138.899C408.799 139.338 408.642 139.786 408.336 140.216C408.031 140.655 407.62 141.042 407.113 141.393C407.445 141.947 408.135 142.781 409.166 143.888C409.856 142.93 410.197 141.727 410.197 140.286H411.9C411.9 141.156 411.76 142.043 411.48 142.957C411.201 143.87 410.817 144.626 410.328 145.214C411.044 146.014 411.847 146.743 412.738 147.41H410.476L410.467 147.402ZM407.122 145.689C407.489 145.531 407.76 145.329 407.961 145.083C406.886 143.862 406.135 142.974 405.725 142.412C405 142.869 404.502 143.229 404.223 143.501C403.943 143.774 403.803 144.081 403.803 144.441C403.803 144.837 403.995 145.179 404.38 145.487C404.764 145.794 405.297 145.935 405.996 145.935C406.389 145.935 406.764 145.856 407.122 145.698V145.689ZM406.249 140.207C406.747 139.856 407 139.487 407 139.101C407 138.89 406.948 138.732 406.843 138.609C406.738 138.486 406.572 138.424 406.362 138.424C405.926 138.424 405.699 138.653 405.699 139.118C405.699 139.364 405.882 139.724 406.258 140.207H406.249Z" fill="#044860"/>
<path d="M427.211 145.601C426.791 146.198 426.206 146.673 425.472 147.015C424.73 147.358 423.927 147.525 423.044 147.525C421.429 147.525 420.145 147.042 419.193 146.084C418.241 145.127 417.76 143.844 417.76 142.237C417.76 140.726 418.241 139.47 419.219 138.459C420.188 137.449 421.455 136.948 423.027 136.948C423.927 136.948 424.739 137.115 425.446 137.44C426.162 137.774 426.695 138.205 427.062 138.732L425.883 139.856C425.167 139.057 424.241 138.661 423.106 138.661C422.049 138.661 421.202 138.986 420.564 139.636C419.926 140.286 419.612 141.156 419.612 142.237C419.612 143.317 419.944 144.178 420.599 144.828C421.263 145.487 422.119 145.812 423.175 145.812C424.416 145.812 425.42 145.355 426.171 144.45L427.211 145.601Z" fill="#044860"/>
<path d="M429.56 138.468C430.573 137.449 431.822 136.94 433.298 136.94C434.774 136.94 436.023 137.44 437.036 138.451C438.05 139.461 438.556 140.717 438.556 142.228C438.556 143.739 438.05 144.995 437.028 146.005C436.006 147.015 434.766 147.516 433.298 147.516C431.831 147.516 430.582 147.015 429.569 146.014C428.556 145.012 428.04 143.747 428.04 142.237C428.04 140.726 428.547 139.496 429.56 138.477V138.468ZM430.888 144.802C431.551 145.469 432.355 145.803 433.298 145.803C434.241 145.803 435.08 145.469 435.726 144.802C436.381 144.134 436.704 143.282 436.704 142.228C436.704 141.174 436.373 140.33 435.7 139.654C435.028 138.986 434.233 138.653 433.298 138.653C432.364 138.653 431.551 138.986 430.888 139.645C430.224 140.313 429.892 141.165 429.892 142.219C429.892 143.273 430.224 144.116 430.888 144.793V144.802Z" fill="#044860"/>
<path d="M449.273 143.001C449.273 143.783 449.151 144.468 448.915 145.065C448.679 145.662 448.347 146.128 447.928 146.479C447.509 146.822 447.063 147.085 446.574 147.252C446.085 147.428 445.561 147.507 445.002 147.507C443.718 147.507 442.644 147.103 441.779 146.304C440.914 145.504 440.478 144.371 440.478 142.913V137.063H442.251V142.693C442.251 143.642 442.504 144.397 443.019 144.977C443.526 145.557 444.19 145.838 445.002 145.838C445.814 145.838 446.443 145.557 446.871 144.995C447.29 144.433 447.5 143.686 447.5 142.746V137.063H449.282V143.001H449.273Z" fill="#044860"/>
<path d="M459.16 147.402L453.491 140.357V147.402H451.762V137.063H453.142L458.81 144.134V137.063H460.54V147.402H459.16Z" fill="#044860"/>
<path d="M468.715 143.8C468.479 143.581 468.173 143.414 467.806 143.291C467.431 143.168 467.02 143.053 466.575 142.948C466.121 142.843 465.675 142.72 465.221 142.579C464.767 142.439 464.357 142.263 463.99 142.052C463.614 141.841 463.317 141.56 463.081 141.191C462.846 140.822 462.732 140.383 462.732 139.874C462.732 139.057 463.108 138.363 463.867 137.801C464.627 137.238 465.588 136.948 466.75 136.948C468.444 136.948 469.772 137.44 470.732 138.424L469.763 139.698C468.898 138.978 467.885 138.617 466.706 138.617C466.095 138.617 465.588 138.723 465.178 138.916C464.767 139.109 464.557 139.417 464.557 139.821C464.557 140.146 464.715 140.418 465.029 140.629C465.344 140.84 465.737 140.998 466.199 141.103C466.671 141.209 467.178 141.341 467.728 141.499C468.278 141.666 468.785 141.841 469.256 142.035C469.728 142.228 470.121 142.535 470.427 142.948C470.741 143.37 470.898 143.87 470.898 144.459C470.898 145.355 470.514 146.093 469.754 146.655C468.994 147.226 468.06 147.516 466.951 147.516C466.051 147.516 465.186 147.331 464.348 146.98C463.518 146.62 462.872 146.172 462.426 145.627L463.483 144.371C464.418 145.355 465.623 145.847 467.108 145.847C467.728 145.847 468.208 145.733 468.549 145.513C468.89 145.293 469.064 144.986 469.064 144.591C469.064 144.274 468.951 144.011 468.715 143.791V143.8Z" fill="#044860"/>
<path d="M472.881 137.063H480.515V138.749H474.654V141.349H480.13V142.974H474.654V145.724H480.663V147.41H472.881V137.063Z" fill="#044860"/>
<path d="M482.864 137.063H484.646V145.715H490.48V147.402H482.873V137.063H482.864Z" fill="#044860"/>
<path d="M492.157 137.063H493.939V147.402H492.157V137.063Z" fill="#044860"/>
<path d="M503.913 147.402L498.245 140.357V147.402H496.515V137.063H497.895L503.564 144.134V137.063H505.293V147.402H503.913Z" fill="#044860"/>
<path d="M512.411 141.876H516.848V145.882C516.377 146.4 515.783 146.804 515.067 147.094C514.35 147.384 513.59 147.525 512.796 147.525C511.189 147.525 509.879 147.042 508.857 146.066C507.835 145.1 507.319 143.818 507.319 142.237C507.319 140.743 507.817 139.487 508.822 138.468C509.817 137.458 511.084 136.948 512.612 136.948C513.486 136.948 514.272 137.098 514.988 137.388C515.704 137.678 516.246 138.09 516.63 138.617L515.442 139.751C514.796 139.022 513.887 138.661 512.708 138.661C511.643 138.661 510.787 138.986 510.149 139.628C509.512 140.269 509.189 141.139 509.189 142.237C509.189 143.335 509.529 144.222 510.202 144.854C510.874 145.487 511.756 145.803 512.848 145.803C513.783 145.803 514.551 145.557 515.171 145.083V143.501H512.438V141.876H512.411Z" fill="#044860"/>
<path d="M194.413 140.532H157.363V143.352H194.413V140.532Z" fill="#F9AA19"/>
<path d="M569.349 140.515H531.827V143.37H569.349V140.515Z" fill="#F9AA19"/>
</svg>
