<svg width="645" height="240" viewBox="0 0 645 240" fill="none" xmlns="http://www.w3.org/2000/svg">
<rect width="645" height="240" fill="white"/>
<path d="M99.3162 155C80.3982 155 65 139.522 65 120.496C65 101.469 80.3982 86 99.3162 86C118.234 86 133.606 101.478 133.606 120.496C133.606 139.513 118.225 154.991 99.3162 154.991V155ZM99.3162 89.3029C82.2061 89.3029 68.284 103.296 68.284 120.496C68.284 137.695 82.2061 151.697 99.3162 151.697C116.426 151.697 130.331 137.704 130.331 120.496C130.331 103.287 116.417 89.3029 99.3162 89.3029Z" fill="#044860"/>
<path d="M110.024 138.222L99.7267 132.881C99.5956 132.811 99.4559 132.776 99.3074 132.776C99.1677 132.776 99.0192 132.811 98.8882 132.881L88.5907 138.222C88.154 138.451 87.9706 138.978 88.1802 139.426C88.3811 139.874 88.9051 140.084 89.3593 139.9L98.9668 136.149C99.0716 136.105 99.1851 136.079 99.2987 136.079C99.4122 136.079 99.5258 136.105 99.6306 136.149L109.238 139.9C109.692 140.084 110.216 139.874 110.417 139.426C110.618 138.978 110.435 138.451 110.007 138.222H110.024Z" fill="#F9AA19"/>
<path d="M123.824 119.573L108.714 118.879C107.823 118.835 107.509 117.667 108.26 117.184L121.003 108.971C121.413 108.707 121.544 108.163 121.3 107.741C121.055 107.311 120.522 107.152 120.086 107.381L106.644 114.382C105.849 114.795 105.002 113.943 105.413 113.143L112.374 99.6155C112.601 99.1763 112.443 98.6405 112.024 98.3945H112.007C111.579 98.1398 111.037 98.2715 110.775 98.6844L102.618 111.509C102.137 112.265 100.976 111.949 100.932 111.053L100.224 95.8383C100.198 95.3464 99.7965 94.9599 99.3074 94.9599C98.8183 94.9599 98.4165 95.3464 98.3903 95.8383L97.6916 111.053C97.6479 111.949 96.4863 112.265 96.0059 111.509L87.8483 98.6844C87.5863 98.2715 87.0448 98.1398 86.6168 98.3857H86.6081C86.1889 98.6405 86.0316 99.1763 86.2587 99.6155L93.2198 113.134C93.6303 113.934 92.7831 114.786 91.9883 114.373L78.5465 107.372C78.1098 107.144 77.5771 107.302 77.3325 107.723C77.088 108.154 77.219 108.707 77.6295 108.971L90.3725 117.184C91.1236 117.667 90.8092 118.835 89.9183 118.879L74.7996 119.573C74.3105 119.6 73.9262 120.004 73.9262 120.496C73.9262 120.996 74.3105 121.4 74.7996 121.418L89.9183 122.121C90.8092 122.165 91.1236 123.333 90.3725 123.816L77.6295 132.02C77.219 132.284 77.088 132.829 77.3325 133.259C77.5771 133.698 78.1098 133.856 78.5465 133.628L98.8969 123.034C99.1589 122.894 99.4734 122.894 99.7354 123.034L120.086 133.628C120.522 133.856 121.055 133.698 121.3 133.268C121.544 132.837 121.405 132.293 120.994 132.029L108.251 123.825C107.5 123.342 107.814 122.173 108.705 122.129L123.815 121.427C124.304 121.4 124.689 120.996 124.689 120.504C124.689 120.004 124.304 119.6 123.815 119.582" fill="#F9AA19"/>
<path d="M387.436 106.599C388.737 105.097 389.401 103.287 389.401 101.232C389.401 95.3991 385.636 92.4476 378.204 92.4476H367.129V121.4H371.304V110.262H378.282L386.615 121.295L386.684 121.392H391.803L382.684 109.436C384.632 108.962 386.23 108.004 387.444 106.599H387.436ZM371.295 96.4005H378.073C382.824 96.4005 385.139 97.9817 385.139 101.232C385.139 102.787 384.545 103.99 383.322 104.912C382.09 105.835 380.405 106.3 378.317 106.3H371.295V96.4005Z" fill="#F9AA19"/>
<path d="M398.685 108.637H414.24V104.763H398.685V96.4005H415.376V92.4476H394.51V121.4H415.734V117.439H398.685V108.637Z" fill="#F9AA19"/>
<path d="M442.251 113.987C440.05 116.464 437.202 117.72 433.787 117.72C430.582 117.72 427.962 116.727 426.005 114.769C424.049 112.81 423.044 110.166 423.044 106.924C423.044 103.683 423.97 101.065 425.804 99.0887C427.63 97.1211 430.171 96.1197 433.342 96.1197C436.512 96.1197 439.316 97.2704 441.569 99.5367L441.744 99.7124L444.46 97.0684L444.329 96.8927C443.281 95.4872 441.779 94.3189 439.849 93.4229C437.927 92.5269 435.709 92.0789 433.255 92.0789C428.922 92.0789 425.376 93.502 422.712 96.3217C420.049 99.1326 418.704 102.699 418.704 106.915C418.704 111.404 420.057 115.041 422.739 117.72C425.411 120.399 429.053 121.752 433.543 121.752C435.857 121.752 438.05 121.286 440.05 120.364C442.058 119.442 443.639 118.186 444.74 116.64L444.853 116.473L442.434 113.758L442.251 113.969V113.987Z" fill="#F9AA19"/>
<path d="M460.094 92.0787C456.007 92.0787 452.504 93.5193 449.692 96.3566C446.88 99.1939 445.456 102.751 445.456 106.915C445.456 111.079 446.88 114.742 449.692 117.535C452.504 120.337 455.998 121.752 460.094 121.752C464.191 121.752 467.641 120.32 470.453 117.491C473.265 114.663 474.689 111.105 474.689 106.906C474.689 102.708 473.265 99.0797 470.453 96.2863C467.641 93.4841 464.156 92.0699 460.094 92.0699V92.0787ZM460.094 117.729C457.264 117.729 454.819 116.692 452.819 114.654C450.819 112.616 449.797 110.016 449.797 106.924C449.797 103.832 450.81 101.205 452.793 99.1763C454.784 97.1472 457.238 96.1194 460.086 96.1194C462.933 96.1194 465.317 97.1472 467.326 99.1763C469.326 101.205 470.348 103.814 470.348 106.924C470.348 110.034 469.361 112.643 467.405 114.672C465.457 116.701 462.994 117.729 460.086 117.729H460.094Z" fill="#F9AA19"/>
<path d="M489.336 115.348L478.541 92.5882L478.471 92.4476H473.955L487.773 121.4H490.76L503.756 92.799L503.922 92.4476H499.529L489.336 115.348Z" fill="#F9AA19"/>
<path d="M510.28 108.637H525.836V104.763H510.28V96.4005H526.971V92.4476H506.105V121.4H527.338V117.439H510.28V108.637Z" fill="#F9AA19"/>
<path d="M552.16 106.599C553.462 105.097 554.125 103.287 554.125 101.232C554.125 95.3991 550.361 92.4476 542.928 92.4476H531.853V121.4H536.028V110.262H543.007L551.339 121.295L551.409 121.392H556.527L547.409 109.436C549.357 108.962 550.955 108.004 552.169 106.599H552.16ZM536.02 96.4005H542.797C547.549 96.4005 549.863 97.9817 549.863 101.232C549.863 102.787 549.269 103.99 548.046 104.912C546.815 105.835 545.129 106.3 543.042 106.3H536.02V96.4005Z" fill="#F9AA19"/>
<path d="M576.118 92.4476L567.41 106.01L558.885 92.5618L558.815 92.4476H553.732L565.218 110.446V121.4H569.392V110.446L581 92.4476H576.118Z" fill="#F9AA19"/>
<path d="M208.239 140.594H157.852V143.229H208.239V140.594Z" fill="#F9AA19"/>
<path d="M569.943 140.594H520.15V143.229H569.943V140.594Z" fill="#F9AA19"/>
<path d="M160.21 110.218H168.01V115.418C166.114 116.947 163.739 117.729 160.944 117.729C157.738 117.729 155.101 116.745 153.092 114.812C151.092 112.88 150.079 110.227 150.079 106.924C150.079 103.621 151.057 101.065 152.996 99.0973C154.935 97.1208 157.511 96.1282 160.656 96.1282C164.071 96.1282 166.734 97.1647 168.595 99.2115L168.778 99.4135L171.416 96.664L171.276 96.4883C168.944 93.5632 165.293 92.0875 160.411 92.0875C156.262 92.0875 152.742 93.5369 149.948 96.3917C147.153 99.2466 145.738 102.795 145.738 106.933C145.738 111.378 147.17 114.997 150 117.702C152.821 120.408 156.472 121.778 160.856 121.778C162.953 121.778 165.031 121.383 167.031 120.601C169.04 119.819 170.691 118.739 171.949 117.386L172.019 117.316V106.362H160.201V110.236L160.21 110.218Z" fill="#044860"/>
<path d="M195.967 108.549C195.967 111.404 195.304 113.67 194.002 115.304C192.71 116.912 190.806 117.729 188.334 117.729C185.862 117.729 183.923 116.903 182.351 115.269C180.779 113.635 179.975 111.307 179.975 108.356V92.4476H175.8V108.874C175.8 112.941 177.006 116.13 179.399 118.361C181.774 120.592 184.788 121.717 188.334 121.717C191.565 121.717 194.36 120.645 196.666 118.546C198.972 116.429 200.142 113.257 200.142 109.111V92.4476H195.967V108.549Z" fill="#044860"/>
<path d="M224.86 121.4H229.244L216.623 92.3686H213.383L200.911 121.049L200.762 121.4H205.068L208.178 114.206H221.715L224.868 121.4H224.86ZM220.117 110.446H209.767L214.92 98.4121L220.117 110.446Z" fill="#044860"/>
<path d="M251.202 121.4H256.32L247.201 109.445C249.149 108.971 250.747 108.013 251.961 106.608C253.263 105.106 253.927 103.296 253.927 101.241C253.927 95.4079 250.162 92.4564 242.73 92.4564H231.646V121.409H235.821V110.271H242.799L251.202 121.409V121.4ZM235.821 96.4005H242.599C247.35 96.4005 249.664 97.9817 249.664 101.232C249.664 102.787 249.07 103.99 247.848 104.912C246.616 105.835 244.939 106.3 242.843 106.3H235.821V96.4005Z" fill="#044860"/>
<path d="M279.745 117.237C282.47 114.478 283.858 110.868 283.858 106.511C283.858 104.57 283.57 102.751 282.994 101.126C282.417 99.4926 281.518 97.9905 280.312 96.6728C279.107 95.3464 277.43 94.3011 275.343 93.5544C273.264 92.8165 270.792 92.4388 268.006 92.4388H259.027V121.392H267.604C272.932 121.392 277.011 119.995 279.745 117.237ZM267.849 117.439H263.211V96.4005H267.927C271.989 96.4005 274.976 97.3141 276.801 99.1148C278.627 100.916 279.552 103.402 279.552 106.511C279.552 109.84 278.583 112.52 276.679 114.487C274.766 116.446 271.797 117.439 267.849 117.439Z" fill="#044860"/>
<path d="M291.972 92.4476H287.797V121.4H291.972V92.4476Z" fill="#044860"/>
<path d="M318.48 121.4H322.865L310.244 92.3686H307.004L294.531 121.049L294.383 121.4H298.689L301.798 114.206H315.336L318.489 121.4H318.48ZM313.729 110.446H303.379L308.532 98.4121L313.729 110.446Z" fill="#044860"/>
<path d="M349.512 121.4V92.4476H345.46V113.767L328.533 92.4476H325.258V121.4H329.31V100.16L346.281 121.4H349.512Z" fill="#044860"/>
<path d="M227.899 145.285L223.602 136.052H221.314L227.131 148.359H228.633L234.153 136.052H231.917L227.899 145.285Z" fill="#044860"/>
<path d="M237.996 136.052H235.882V148.35H237.996V136.052Z" fill="#044860"/>
<path d="M249.944 142.122C250.433 141.481 250.678 140.734 250.678 139.891C250.678 139.364 250.599 138.881 250.45 138.451C250.302 138.02 250.049 137.616 249.708 137.247C249.367 136.878 248.87 136.588 248.215 136.377C247.559 136.167 246.773 136.061 245.856 136.061H241.053V148.359H243.166V143.844H245.752L249.088 148.359H251.656L247.987 143.44C248.8 143.203 249.455 142.764 249.944 142.122ZM245.909 141.832H243.166V138.055H245.804C246.782 138.055 247.472 138.213 247.874 138.53C248.276 138.846 248.477 139.294 248.477 139.882C248.477 140.471 248.249 140.972 247.795 141.314C247.341 141.657 246.712 141.832 245.909 141.832Z" fill="#044860"/>
<path d="M251.568 138.055H255.673V148.359H257.787V138.055H261.892V136.052H251.568V138.055Z" fill="#044860"/>
<path d="M271.971 142.825C271.971 143.941 271.718 144.828 271.22 145.495C270.722 146.163 269.98 146.497 269.002 146.497C268.023 146.497 267.246 146.154 266.643 145.469C266.041 144.784 265.735 143.879 265.735 142.755V136.061H263.621V143.018C263.621 144.749 264.137 146.093 265.167 147.05C266.198 148.008 267.473 148.482 269.002 148.482C269.665 148.482 270.286 148.377 270.871 148.175C271.456 147.973 271.989 147.665 272.487 147.252C272.984 146.839 273.369 146.286 273.657 145.575C273.945 144.863 274.085 144.046 274.085 143.124V136.061H271.971V142.825Z" fill="#044860"/>
<path d="M281.159 136.052L275.797 148.35H277.98L279.151 145.627H284.723L285.911 148.35H288.129L282.767 136.052H281.159ZM279.919 143.809L281.928 139.136L283.937 143.809H279.919Z" fill="#044860"/>
<path d="M292.06 136.052H289.946V148.359H298.994V146.356H292.06V136.052Z" fill="#044860"/>
<path d="M310.925 146.462C309.667 146.462 308.646 146.075 307.86 145.293C307.073 144.512 306.68 143.484 306.68 142.21C306.68 140.936 307.056 139.891 307.816 139.118C308.576 138.345 309.58 137.959 310.838 137.959C312.192 137.959 313.292 138.433 314.139 139.382L315.537 138.046C315.109 137.414 314.462 136.905 313.615 136.509C312.768 136.114 311.807 135.921 310.733 135.921C308.873 135.921 307.362 136.518 306.209 137.721C305.056 138.925 304.479 140.418 304.479 142.21C304.479 144.116 305.047 145.645 306.183 146.787C307.318 147.929 308.846 148.5 310.768 148.5C311.816 148.5 312.777 148.298 313.659 147.894C314.541 147.489 315.231 146.927 315.729 146.216L314.489 144.845C313.589 145.926 312.401 146.462 310.925 146.462Z" fill="#044860"/>
<path d="M322.978 135.912C321.223 135.912 319.738 136.518 318.533 137.73C317.327 138.942 316.725 140.436 316.725 142.201C316.725 143.967 317.327 145.504 318.541 146.699C319.755 147.894 321.231 148.491 322.978 148.491C324.725 148.491 326.201 147.894 327.415 146.69C328.629 145.487 329.232 143.993 329.232 142.201C329.232 140.409 328.629 138.899 327.424 137.704C326.219 136.509 324.734 135.912 322.978 135.912ZM325.869 145.276C325.092 146.066 324.131 146.462 322.978 146.462C321.825 146.462 320.908 146.066 320.113 145.267C319.319 144.468 318.926 143.449 318.926 142.21C318.926 140.972 319.319 139.935 320.113 139.144C320.908 138.354 321.86 137.959 322.978 137.959C324.096 137.959 325.039 138.354 325.834 139.153C326.629 139.953 327.031 140.972 327.031 142.21C327.031 143.449 326.647 144.485 325.869 145.276Z" fill="#044860"/>
<path d="M339.87 142.825C339.87 143.941 339.617 144.828 339.119 145.495C338.621 146.163 337.878 146.497 336.9 146.497C335.922 146.497 335.145 146.154 334.542 145.469C333.939 144.784 333.634 143.879 333.634 142.755V136.061H331.52V143.018C331.52 144.749 332.035 146.093 333.066 147.05C334.097 148.008 335.372 148.482 336.9 148.482C337.564 148.482 338.184 148.377 338.769 148.175C339.355 147.973 339.887 147.665 340.385 147.252C340.883 146.839 341.267 146.286 341.556 145.575C341.844 144.863 341.983 144.046 341.983 143.124V136.061H339.87V142.825Z" fill="#044860"/>
<path d="M353.32 144.477L346.578 136.052H344.936V148.359H346.997V139.97L353.74 148.359H355.382V136.052H353.32V144.477Z" fill="#044860"/>
<path d="M365.758 141.973C365.199 141.745 364.596 141.534 363.941 141.341C363.286 141.147 362.683 140.989 362.124 140.866C361.565 140.743 361.102 140.559 360.727 140.304C360.351 140.049 360.168 139.733 360.168 139.347C360.168 138.863 360.412 138.503 360.902 138.266C361.391 138.029 361.993 137.906 362.718 137.906C364.116 137.906 365.33 138.336 366.352 139.188L367.504 137.678C366.36 136.509 364.788 135.921 362.771 135.921C361.382 135.921 360.238 136.254 359.338 136.931C358.439 137.607 357.984 138.424 357.984 139.399C357.984 140.005 358.124 140.532 358.404 140.972C358.683 141.411 359.041 141.753 359.487 141.999C359.932 142.245 360.421 142.456 360.954 142.623C361.487 142.79 362.028 142.939 362.561 143.062C363.094 143.185 363.583 143.317 364.028 143.466C364.474 143.616 364.832 143.818 365.111 144.072C365.391 144.327 365.531 144.643 365.531 145.021C365.531 145.487 365.33 145.856 364.919 146.119C364.509 146.383 363.941 146.514 363.207 146.514C361.434 146.514 360.002 145.926 358.893 144.758L357.635 146.251C358.168 146.892 358.936 147.428 359.923 147.858C360.91 148.289 361.941 148.5 363.015 148.5C364.334 148.5 365.443 148.157 366.352 147.481C367.26 146.804 367.714 145.926 367.714 144.863C367.714 144.16 367.531 143.563 367.155 143.062C366.78 142.562 366.317 142.201 365.758 141.973Z" fill="#044860"/>
<path d="M372.186 143.08H378.702V141.147H372.186V138.055H379.156V136.052H370.072V148.359H379.33V146.356H372.186V143.08Z" fill="#044860"/>
<path d="M384.064 136.052H381.951V148.359H390.999V146.356H384.064V136.052Z" fill="#044860"/>
<path d="M395.122 136.052H393.008V148.35H395.122V136.052Z" fill="#044860"/>
<path d="M406.563 144.477L399.82 136.052H398.178V148.359H400.24V139.97L406.982 148.359H408.624V136.052H406.563V144.477Z" fill="#044860"/>
<path d="M417.097 143.721H420.346V145.601C419.612 146.172 418.695 146.462 417.586 146.462C416.293 146.462 415.245 146.084 414.441 145.329C413.638 144.573 413.236 143.537 413.236 142.21C413.236 140.884 413.62 139.874 414.38 139.109C415.14 138.345 416.162 137.959 417.428 137.959C418.826 137.959 419.909 138.389 420.678 139.259L422.092 137.906C421.638 137.282 420.992 136.799 420.145 136.448C419.298 136.096 418.363 135.921 417.324 135.921C415.507 135.921 414.005 136.527 412.817 137.73C411.629 138.934 411.035 140.427 411.035 142.21C411.035 144.099 411.646 145.618 412.861 146.769C414.075 147.92 415.638 148.5 417.551 148.5C418.494 148.5 419.394 148.333 420.25 147.99C421.105 147.648 421.813 147.173 422.372 146.55V141.789H417.097V143.721Z" fill="#044860"/>
<path d="M429.516 148.359H431.63V143.545H438.058V141.543H431.63V138.055H438.512V136.052H429.516V148.359Z" fill="#044860"/>
<path d="M442.984 136.052H440.871V148.359H449.919V146.356H442.984V136.052Z" fill="#044860"/>
<path d="M456.906 135.912C455.151 135.912 453.666 136.518 452.461 137.73C451.255 138.942 450.653 140.436 450.653 142.201C450.653 143.967 451.255 145.504 452.469 146.699C453.684 147.894 455.16 148.491 456.906 148.491C458.653 148.491 460.129 147.894 461.343 146.69C462.557 145.487 463.16 143.993 463.16 142.201C463.16 140.409 462.557 138.899 461.352 137.704C460.147 136.509 458.662 135.912 456.906 135.912ZM459.797 145.276C459.02 146.066 458.059 146.462 456.906 146.462C455.753 146.462 454.836 146.066 454.042 145.267C453.247 144.468 452.854 143.449 452.854 142.21C452.854 140.972 453.247 139.935 454.042 139.144C454.836 138.354 455.788 137.959 456.906 137.959C458.024 137.959 458.968 138.354 459.762 139.153C460.557 139.953 460.959 140.972 460.959 142.21C460.959 143.449 460.575 144.485 459.797 145.276Z" fill="#044860"/>
<path d="M474.462 142.122C474.951 141.481 475.195 140.734 475.195 139.891C475.195 139.364 475.117 138.881 474.968 138.451C474.82 138.02 474.567 137.616 474.226 137.247C473.885 136.878 473.388 136.588 472.732 136.377C472.077 136.167 471.291 136.061 470.374 136.061H465.571V148.359H467.684V143.844H470.269L473.606 148.359H476.174L472.505 143.44C473.318 143.203 473.973 142.764 474.462 142.122ZM470.427 141.832H467.684V138.055H470.322C471.3 138.055 471.99 138.213 472.392 138.53C472.794 138.846 472.994 139.294 472.994 139.882C472.994 140.471 472.767 140.972 472.313 141.314C471.859 141.657 471.23 141.832 470.427 141.832Z" fill="#044860"/>
<path d="M480.226 136.052H478.113V148.35H480.226V136.052Z" fill="#044860"/>
<path d="M492.472 137.853C491.947 137.282 491.231 136.843 490.314 136.527C489.397 136.211 488.332 136.052 487.109 136.052H483.283V148.35H486.882C489.249 148.35 491.022 147.771 492.21 146.602C493.397 145.434 493.991 143.914 493.991 142.043C493.991 141.2 493.869 140.436 493.624 139.742C493.38 139.048 492.996 138.424 492.472 137.853ZM490.629 145.206C489.851 145.97 488.655 146.356 487.039 146.356H485.397V138.064H487.074C490.218 138.064 491.79 139.39 491.79 142.052C491.79 143.387 491.406 144.441 490.629 145.206Z" fill="#044860"/>
<path d="M501.712 136.052H500.105L494.742 148.35H496.926L498.096 145.627H503.669L504.856 148.35H507.075L501.712 136.052ZM498.865 143.809L500.874 139.136L502.883 143.809H498.865Z" fill="#044860"/>
</svg>
