<svg width="645" height="240" viewBox="0 0 645 240" fill="none" xmlns="http://www.w3.org/2000/svg">
<rect width="645" height="240" fill="white"/>
<path d="M99.3162 155C80.3982 155 65 139.522 65 120.496C65 101.469 80.3982 86 99.3162 86C118.234 86 133.615 101.478 133.615 120.496C133.615 139.513 118.234 154.991 99.3162 154.991V155ZM99.3162 89.3029C82.2061 89.3029 68.284 103.296 68.284 120.496C68.284 137.695 82.2061 151.697 99.3162 151.697C116.426 151.697 130.331 137.704 130.331 120.496C130.331 103.287 116.417 89.3029 99.3162 89.3029Z" fill="#044860"/>
<path d="M110.024 138.222L99.7267 132.881C99.5956 132.811 99.4559 132.776 99.3074 132.776C99.1677 132.776 99.0192 132.811 98.8882 132.881L88.5907 138.222C88.154 138.451 87.9706 138.978 88.1802 139.426C88.3811 139.874 88.9051 140.084 89.3593 139.9L98.9668 136.149C99.0716 136.105 99.1851 136.079 99.2987 136.079C99.4122 136.079 99.5258 136.105 99.6306 136.149L109.238 139.9C109.692 140.084 110.216 139.874 110.417 139.426C110.618 138.978 110.435 138.451 110.007 138.222H110.024Z" fill="#F9AA19"/>
<path d="M123.824 119.573L108.714 118.879C107.823 118.835 107.509 117.667 108.26 117.184L121.003 108.971C121.413 108.707 121.544 108.163 121.3 107.741C121.055 107.311 120.522 107.152 120.086 107.381L106.644 114.382C105.849 114.795 105.002 113.943 105.413 113.143L112.374 99.6155C112.601 99.1763 112.443 98.6405 112.024 98.3945H112.007C111.579 98.1398 111.037 98.2715 110.775 98.6844L102.618 111.509C102.137 112.265 100.976 111.949 100.932 111.053L100.224 95.8383C100.198 95.3464 99.7965 94.9599 99.3074 94.9599C98.8183 94.9599 98.4165 95.3464 98.3903 95.8383L97.6916 111.053C97.6479 111.949 96.4863 112.265 96.0059 111.509L87.8483 98.6844C87.5863 98.2715 87.0448 98.1398 86.6168 98.3857H86.6081C86.1889 98.6405 86.0316 99.1763 86.2587 99.6155L93.2198 113.134C93.6303 113.934 92.7831 114.786 91.9883 114.373L78.5465 107.372C78.1098 107.144 77.5771 107.302 77.3325 107.723C77.088 108.154 77.219 108.707 77.6295 108.971L90.3725 117.184C91.1236 117.667 90.8092 118.835 89.9183 118.879L74.7996 119.573C74.3105 119.6 73.9262 120.004 73.9262 120.496C73.9262 120.996 74.3105 121.4 74.7996 121.418L89.9183 122.121C90.8092 122.165 91.1236 123.333 90.3725 123.816L77.6295 132.02C77.219 132.284 77.088 132.829 77.3325 133.259C77.5771 133.698 78.1098 133.856 78.5465 133.628L98.8969 123.034C99.1589 122.894 99.4734 122.894 99.7354 123.034L120.086 133.628C120.522 133.856 121.055 133.698 121.3 133.268C121.544 132.837 121.405 132.293 120.994 132.029L108.251 123.825C107.5 123.342 107.814 122.173 108.705 122.129L123.815 121.427C124.304 121.4 124.689 120.996 124.689 120.504C124.689 120.004 124.304 119.6 123.815 119.582" fill="#F9AA19"/>
<path d="M160.21 110.218H168.01V115.419C166.114 116.947 163.739 117.729 160.944 117.729C157.738 117.729 155.101 116.745 153.092 114.812C151.092 112.88 150.079 110.227 150.079 106.924C150.079 103.621 151.057 101.065 152.996 99.0974C154.935 97.121 157.511 96.1284 160.656 96.1284C164.071 96.1284 166.734 97.1649 168.595 99.2204L168.778 99.4225L171.416 96.673L171.276 96.4973C168.944 93.5722 165.293 92.0964 160.411 92.0964C156.262 92.0964 152.742 93.5458 149.948 96.4007C147.153 99.2556 145.738 102.804 145.738 106.942C145.738 111.378 147.17 115.006 150 117.711C152.821 120.417 156.481 121.787 160.856 121.787C162.953 121.787 165.031 121.392 167.031 120.61C169.04 119.828 170.691 118.748 171.949 117.395L172.019 117.325V106.371H160.201V110.245L160.21 110.218Z" fill="#044860"/>
<path d="M195.967 108.549C195.967 111.404 195.304 113.67 194.002 115.304C192.71 116.912 190.806 117.729 188.334 117.729C185.862 117.729 183.923 116.903 182.351 115.269C180.779 113.635 179.975 111.307 179.975 108.356V92.4476H175.8V108.874C175.8 112.941 177.006 116.13 179.399 118.361C181.783 120.592 184.788 121.717 188.334 121.717C191.565 121.717 194.36 120.645 196.666 118.546C198.972 116.429 200.142 113.257 200.142 109.111V92.4476H195.967V108.549Z" fill="#044860"/>
<path d="M213.383 92.3598L200.762 121.392H205.068L208.178 114.197H221.715L224.868 121.392H229.253L216.693 92.5091L216.632 92.3598H213.383ZM220.117 110.446H209.767L214.92 98.4121L220.117 110.446Z" fill="#044860"/>
<path d="M251.961 106.599C253.263 105.097 253.918 103.287 253.918 101.232C253.918 95.3991 250.154 92.4476 242.721 92.4476H231.637V121.4H235.812V110.262H242.791L251.193 121.4H256.311L247.193 109.445C249.14 108.971 250.739 108.013 251.953 106.608L251.961 106.599ZM235.821 96.4005H242.599C247.35 96.4005 249.664 97.9817 249.664 101.232C249.664 102.787 249.07 103.99 247.848 104.912C246.616 105.835 244.939 106.309 242.843 106.309H235.821V96.4005Z" fill="#044860"/>
<path d="M280.321 96.6728C279.116 95.3464 277.439 94.3011 275.351 93.5544C273.273 92.8166 270.81 92.4388 268.015 92.4388H259.036V121.392H267.613C272.941 121.392 277.019 119.995 279.753 117.237C282.478 114.478 283.867 110.868 283.867 106.511C283.867 104.57 283.579 102.751 283.002 101.126C282.426 99.4926 281.526 97.9905 280.321 96.6728ZM267.849 117.439H263.211V96.4005H267.927C271.989 96.4005 274.976 97.3141 276.801 99.1148C278.627 100.916 279.552 103.402 279.552 106.511C279.552 109.84 278.583 112.52 276.67 114.487C274.766 116.446 271.788 117.439 267.84 117.439H267.849Z" fill="#044860"/>
<path d="M291.981 92.4476H287.806V121.4H291.981V92.4476Z" fill="#044860"/>
<path d="M310.244 92.3598H307.004L294.383 121.392H298.689L301.798 114.197H315.327L318.48 121.392H322.865L310.305 92.5091L310.244 92.3598ZM313.738 110.446H303.388L308.541 98.4121L313.738 110.446Z" fill="#044860"/>
<path d="M345.46 92.4476V113.758L328.542 92.4476H325.258V121.392H329.31V100.16L346.281 121.392H349.521V92.4476H345.46Z" fill="#044860"/>
<path d="M387.436 106.599C388.737 105.097 389.401 103.287 389.401 101.232C389.401 95.3991 385.636 92.4476 378.204 92.4476H367.129V121.4H371.304V110.262H378.282L386.684 121.4H391.803L382.684 109.445C384.632 108.971 386.23 108.013 387.444 106.608L387.436 106.599ZM371.295 96.4005H378.073C382.824 96.4005 385.139 97.9817 385.139 101.232C385.139 102.787 384.545 103.99 383.322 104.912C382.09 105.835 380.405 106.309 378.317 106.309H371.295V96.4005Z" fill="#F9AA19"/>
<path d="M398.685 108.637H414.249V104.754H398.685V96.4005H415.376V92.4476H394.51V121.392H415.743V117.439H398.685V108.637Z" fill="#F9AA19"/>
<path d="M442.251 113.987C440.05 116.464 437.202 117.72 433.787 117.72C430.582 117.72 427.962 116.727 426.005 114.768C424.04 112.809 423.044 110.165 423.044 106.924C423.044 103.683 423.97 101.065 425.804 99.0885C427.63 97.1208 430.171 96.1194 433.342 96.1194C436.512 96.1194 439.316 97.2701 441.569 99.5453L441.744 99.7209L444.46 97.0769L444.329 96.9012C443.29 95.4957 441.779 94.3274 439.849 93.4314C437.927 92.5355 435.709 92.0875 433.255 92.0875C428.922 92.0875 425.376 93.5193 422.712 96.3302C420.049 99.1412 418.704 102.708 418.704 106.924C418.704 111.413 420.057 115.049 422.739 117.729C425.411 120.408 429.053 121.761 433.543 121.761C435.857 121.761 438.05 121.295 440.05 120.373C442.058 119.45 443.639 118.203 444.74 116.657L444.853 116.49L442.434 113.776L442.251 113.987Z" fill="#F9AA19"/>
<path d="M460.094 92.0787C456.007 92.0787 452.504 93.5193 449.692 96.3566C446.88 99.1939 445.456 102.751 445.456 106.915C445.456 111.079 446.88 114.742 449.692 117.535C452.504 120.337 455.998 121.752 460.094 121.752C464.191 121.752 467.641 120.32 470.453 117.491C473.265 114.663 474.689 111.105 474.689 106.906C474.689 102.708 473.265 99.0797 470.453 96.2863C467.641 93.4841 464.156 92.0699 460.094 92.0699V92.0787ZM460.094 117.72C457.264 117.72 454.819 116.683 452.819 114.645C450.819 112.607 449.797 110.007 449.797 106.915C449.797 103.823 450.81 101.197 452.793 99.1675C454.784 97.1384 457.238 96.1106 460.086 96.1106C462.933 96.1106 465.317 97.1384 467.326 99.1675C469.326 101.197 470.348 103.806 470.348 106.915C470.348 110.025 469.361 112.634 467.405 114.663C465.457 116.692 462.994 117.72 460.086 117.72H460.094Z" fill="#F9AA19"/>
<path d="M489.345 115.339L478.471 92.4476H473.964L487.711 121.251L487.781 121.392H490.76L503.922 92.4476H499.529L489.345 115.339Z" fill="#F9AA19"/>
<path d="M510.289 108.637H525.844V104.754H510.289V96.4005H526.971V92.4476H506.105V121.392H527.338V117.439H510.289V108.637Z" fill="#F9AA19"/>
<path d="M552.16 106.599C553.461 105.097 554.125 103.287 554.125 101.232C554.125 95.3991 550.361 92.4476 542.928 92.4476H531.853V121.4H536.028V110.262H543.007L551.409 121.4H556.527L547.409 109.445C549.356 108.971 550.955 108.013 552.169 106.608L552.16 106.599ZM536.02 96.4005H542.797C547.548 96.4005 549.863 97.9817 549.863 101.232C549.863 102.787 549.269 103.99 548.046 104.912C546.815 105.835 545.129 106.309 543.042 106.309H536.02V96.4005Z" fill="#F9AA19"/>
<path d="M576.126 92.4476L567.41 106.01L558.816 92.4476H553.741L565.218 110.446V121.392H569.392V110.446L581 92.4476H576.126Z" fill="#F9AA19"/>
<path d="M192.666 140.594H157.363V143.229H192.666V140.594Z" fill="#F9AA19"/>
<path d="M569.069 140.594H534.159V143.229H569.069V140.594Z" fill="#F9AA19"/>
<path d="M207.654 135.903H209.523L213.89 141.613L218.099 135.903H219.951V148.201H217.837V139.68L214.117 144.564H213.575L209.767 139.663V148.201H207.654V135.903Z" fill="#044860"/>
<path d="M224.17 137.581C225.375 136.369 226.86 135.763 228.615 135.763C230.371 135.763 231.856 136.36 233.061 137.555C234.266 138.749 234.869 140.251 234.869 142.052C234.869 143.853 234.266 145.337 233.052 146.541C231.838 147.744 230.362 148.342 228.615 148.342C226.868 148.342 225.392 147.744 224.178 146.55C222.964 145.355 222.362 143.853 222.362 142.052C222.362 140.251 222.964 138.793 224.17 137.581ZM225.751 145.109C226.545 145.908 227.497 146.304 228.615 146.304C229.733 146.304 230.729 145.908 231.506 145.118C232.284 144.327 232.668 143.308 232.668 142.052C232.668 140.796 232.266 139.795 231.471 138.995C230.677 138.196 229.725 137.801 228.615 137.801C227.506 137.801 226.545 138.196 225.751 138.986C224.956 139.777 224.563 140.796 224.563 142.052C224.563 143.308 224.956 144.31 225.751 145.109Z" fill="#044860"/>
<path d="M246.083 148.201L239.341 139.821V148.201H237.279V135.903H238.922L245.664 144.318V135.903H247.725V148.201H246.083Z" fill="#044860"/>
<path d="M249.577 135.903H259.901V137.906H255.796V148.201H253.682V137.906H249.577V135.903Z" fill="#044860"/>
<path d="M267.849 148.201H266.346L260.53 135.903H262.818L267.115 145.127L271.133 135.903H273.369L267.849 148.201Z" fill="#044860"/>
<path d="M275.098 135.903H277.212V148.201H275.098V135.903Z" fill="#044860"/>
<path d="M280.269 135.903H282.382V146.198H289.317V148.201H280.269V135.903Z" fill="#044860"/>
<path d="M291.326 135.903H293.44V146.198H300.374V148.201H291.326V135.903Z" fill="#044860"/>
<path d="M302.383 135.903H311.467V137.906H304.497V140.998H311.013V142.93H304.497V146.198H311.641V148.201H302.383V135.903Z" fill="#044860"/>
<path d="M323.118 135.903H324.725L330.088 148.201H327.869L326.681 145.478H321.109L319.939 148.201H317.755L323.118 135.903ZM321.878 143.651H325.895L323.887 138.978L321.878 143.651Z" fill="#044860"/>
<path d="M331.904 135.903H335.73C336.953 135.903 338.018 136.061 338.935 136.377C339.852 136.694 340.569 137.133 341.093 137.704C341.617 138.275 342.001 138.899 342.246 139.592C342.49 140.286 342.612 141.051 342.612 141.894C342.612 143.765 342.018 145.285 340.831 146.453C339.643 147.621 337.87 148.201 335.503 148.201H331.904V135.903ZM334.018 137.906V146.198H335.66C337.276 146.198 338.472 145.812 339.25 145.047C340.027 144.283 340.411 143.229 340.411 141.894C340.411 139.232 338.839 137.906 335.695 137.906H334.018Z" fill="#044860"/>
<path d="M346.185 137.581C347.39 136.369 348.875 135.763 350.63 135.763C352.386 135.763 353.871 136.36 355.076 137.555C356.281 138.749 356.884 140.251 356.884 142.052C356.884 143.853 356.281 145.337 355.067 146.541C353.853 147.744 352.377 148.342 350.63 148.342C348.883 148.342 347.407 147.744 346.193 146.55C344.979 145.355 344.377 143.853 344.377 142.052C344.377 140.251 344.979 138.793 346.185 137.581ZM347.765 145.109C348.56 145.908 349.512 146.304 350.63 146.304C351.748 146.304 352.744 145.908 353.521 145.118C354.299 144.327 354.683 143.308 354.683 142.052C354.683 140.796 354.281 139.795 353.486 138.995C352.691 138.196 351.739 137.801 350.63 137.801C349.521 137.801 348.56 138.196 347.765 138.986C346.971 139.777 346.578 140.796 346.578 142.052C346.578 143.308 346.971 144.31 347.765 145.109Z" fill="#044860"/>
<path d="M359.294 135.903H361.408V146.198H368.343V148.201H359.294V135.903Z" fill="#044860"/>
<path d="M370.352 135.903H379.435V137.906H372.465V140.998H378.981V142.93H372.465V146.198H379.61V148.201H370.352V135.903Z" fill="#044860"/>
<path d="M388.903 143.914C388.623 143.66 388.265 143.458 387.82 143.308C387.374 143.159 386.885 143.027 386.353 142.904C385.82 142.781 385.278 142.632 384.745 142.465C384.213 142.298 383.724 142.087 383.278 141.841C382.833 141.595 382.475 141.253 382.195 140.813C381.916 140.374 381.776 139.847 381.776 139.241C381.776 138.266 382.23 137.449 383.13 136.773C384.029 136.096 385.173 135.763 386.562 135.763C388.58 135.763 390.152 136.351 391.296 137.519L390.143 139.03C389.121 138.178 387.907 137.748 386.51 137.748C385.785 137.748 385.182 137.871 384.693 138.108C384.204 138.345 383.959 138.705 383.959 139.188C383.959 139.575 384.143 139.891 384.518 140.146C384.894 140.401 385.357 140.585 385.916 140.708C386.475 140.831 387.077 140.989 387.733 141.182C388.388 141.376 388.99 141.587 389.549 141.815C390.108 142.043 390.571 142.403 390.947 142.904C391.322 143.405 391.506 144.002 391.506 144.705C391.506 145.768 391.051 146.646 390.143 147.323C389.235 147.999 388.126 148.342 386.807 148.342C385.732 148.342 384.702 148.131 383.715 147.7C382.728 147.27 381.959 146.734 381.427 146.093L382.684 144.599C383.793 145.768 385.226 146.356 386.999 146.356C387.733 146.356 388.3 146.225 388.711 145.961C389.121 145.698 389.322 145.329 389.322 144.863C389.322 144.485 389.182 144.169 388.903 143.914Z" fill="#044860"/>
<path d="M404.467 146.058C403.969 146.769 403.279 147.331 402.397 147.735C401.515 148.14 400.554 148.342 399.506 148.342C397.585 148.342 396.056 147.771 394.921 146.629C393.785 145.487 393.218 143.958 393.218 142.052C393.218 140.26 393.794 138.767 394.947 137.563C396.1 136.36 397.611 135.763 399.471 135.763C400.545 135.763 401.506 135.956 402.353 136.351C403.201 136.746 403.847 137.256 404.275 137.888L402.877 139.224C402.03 138.275 400.93 137.801 399.576 137.801C398.318 137.801 397.314 138.187 396.554 138.96C395.794 139.733 395.419 140.761 395.419 142.052C395.419 143.343 395.812 144.354 396.598 145.135C397.384 145.917 398.406 146.304 399.663 146.304C401.139 146.304 402.327 145.768 403.227 144.687L404.467 146.058Z" fill="#044860"/>
<path d="M406.554 135.903H415.638V137.906H408.668V140.998H415.184V142.93H408.668V146.198H415.813V148.201H406.554V135.903Z" fill="#044860"/>
<path d="M427.245 148.201L420.503 139.821V148.201H418.442V135.903H420.084L426.826 144.318V135.903H428.888V148.201H427.245Z" fill="#044860"/>
<path d="M430.73 135.903H441.054V137.906H436.949V148.201H434.835V137.906H430.73V135.903Z" fill="#044860"/>
<path d="M458.251 146.058C457.754 146.769 457.064 147.331 456.181 147.735C455.299 148.14 454.339 148.342 453.29 148.342C451.369 148.342 449.841 147.771 448.705 146.629C447.57 145.487 447.002 143.958 447.002 142.052C447.002 140.26 447.578 138.767 448.731 137.563C449.884 136.36 451.395 135.763 453.256 135.763C454.33 135.763 455.291 135.956 456.138 136.351C456.985 136.746 457.631 137.256 458.059 137.888L456.662 139.224C455.815 138.275 454.714 137.801 453.36 137.801C452.103 137.801 451.098 138.187 450.338 138.96C449.578 139.733 449.203 140.761 449.203 142.052C449.203 143.343 449.596 144.354 450.382 145.135C451.168 145.917 452.19 146.304 453.448 146.304C454.924 146.304 456.112 145.768 457.011 144.687L458.251 146.058Z" fill="#044860"/>
<path d="M460.339 135.903H469.422V137.906H462.453V140.998H468.968V142.93H462.453V146.198H469.597V148.201H460.339V135.903Z" fill="#044860"/>
<path d="M481.03 148.201L474.287 139.821V148.201H472.226V135.903H473.868L480.611 144.318V135.903H482.672V148.201H481.03Z" fill="#044860"/>
<path d="M484.515 135.903H494.838V137.906H490.733V148.201H488.62V137.906H484.515V135.903Z" fill="#044860"/>
<path d="M496.69 135.903H505.774V137.906H498.804V140.998H505.319V142.93H498.804V146.198H505.948V148.201H496.69V135.903Z" fill="#044860"/>
<path d="M508.568 148.201V135.903H513.372C514.289 135.903 515.075 136.009 515.73 136.219C516.385 136.43 516.883 136.72 517.224 137.089C517.565 137.458 517.818 137.862 517.966 138.292C518.115 138.723 518.193 139.206 518.193 139.733C518.193 140.576 517.949 141.323 517.46 141.964C516.971 142.605 516.315 143.045 515.503 143.282L519.172 148.201H516.604L513.267 143.686H510.682V148.201H508.568ZM510.682 137.906V141.683H513.424C514.228 141.683 514.857 141.507 515.311 141.165C515.765 140.822 515.992 140.339 515.992 139.733C515.992 139.127 515.791 138.696 515.39 138.38C514.988 138.064 514.298 137.906 513.32 137.906H510.682Z" fill="#044860"/>
</svg>
