<svg width="645" height="240" viewBox="0 0 645 240" fill="none" xmlns="http://www.w3.org/2000/svg">
<rect width="645" height="240" fill="white"/>
<path d="M99.3162 154C80.3982 154 65 138.522 65 119.496C65 100.469 80.3982 85 99.3162 85C118.234 85 133.606 100.478 133.606 119.496C133.606 138.513 118.225 153.991 99.3162 153.991V154ZM99.3162 88.3029C82.2061 88.3029 68.284 102.296 68.284 119.496C68.284 136.695 82.2061 150.697 99.3162 150.697C116.426 150.697 130.331 136.704 130.331 119.496C130.331 102.287 116.417 88.3029 99.3162 88.3029Z" fill="#044860"/>
<path d="M110.024 137.222L99.7267 131.881C99.5956 131.811 99.4559 131.776 99.3074 131.776C99.1677 131.776 99.0192 131.811 98.8882 131.881L88.5907 137.222C88.154 137.451 87.9706 137.978 88.1802 138.426C88.3811 138.874 88.9051 139.084 89.3593 138.9L98.9668 135.149C99.0716 135.105 99.1851 135.079 99.2987 135.079C99.4122 135.079 99.5258 135.105 99.6306 135.149L109.238 138.9C109.692 139.084 110.216 138.874 110.417 138.426C110.618 137.978 110.435 137.451 110.007 137.222H110.024Z" fill="#F9AA19"/>
<path d="M123.824 118.573L108.714 117.879C107.823 117.835 107.509 116.667 108.26 116.184L121.003 107.971C121.413 107.707 121.544 107.163 121.3 106.741C121.055 106.311 120.522 106.152 120.086 106.381L106.644 113.382C105.849 113.795 105.002 112.943 105.413 112.143L112.374 98.6155C112.601 98.1763 112.443 97.6405 112.024 97.3945H112.007C111.579 97.1398 111.037 97.2715 110.775 97.6844L102.618 110.509C102.137 111.265 100.976 110.949 100.932 110.053L100.224 94.8383C100.198 94.3464 99.7965 93.9599 99.3074 93.9599C98.8183 93.9599 98.4165 94.3464 98.3903 94.8383L97.6916 110.053C97.6479 110.949 96.4863 111.265 96.0059 110.509L87.8483 97.6844C87.5863 97.2715 87.0448 97.1398 86.6168 97.3857H86.6081C86.1889 97.6405 86.0316 98.1763 86.2587 98.6155L93.2198 112.134C93.6303 112.934 92.7831 113.786 91.9883 113.373L78.5465 106.372C78.1098 106.144 77.5771 106.302 77.3325 106.723C77.088 107.154 77.219 107.707 77.6295 107.971L90.3725 116.184C91.1236 116.667 90.8092 117.835 89.9183 117.879L74.7996 118.573C74.3105 118.6 73.9262 119.004 73.9262 119.496C73.9262 119.996 74.3105 120.4 74.7996 120.418L89.9183 121.121C90.8092 121.165 91.1236 122.333 90.3725 122.816L77.6295 131.02C77.219 131.284 77.088 131.829 77.3325 132.259C77.5771 132.698 78.1098 132.856 78.5465 132.628L98.8969 122.034C99.1589 121.894 99.4734 121.894 99.7354 122.034L120.086 132.628C120.522 132.856 121.055 132.698 121.3 132.268C121.544 131.837 121.405 131.293 120.994 131.029L108.251 122.825C107.5 122.342 107.814 121.173 108.705 121.129L123.815 120.427C124.304 120.4 124.689 119.996 124.689 119.504C124.689 119.004 124.304 118.6 123.815 118.582" fill="#F9AA19"/>
<path d="M387.436 105.599C388.737 104.097 389.401 102.287 389.401 100.232C389.401 94.3991 385.636 91.4476 378.204 91.4476H367.129V120.4H371.304V109.262H378.282L386.615 120.295L386.684 120.392H391.803L382.684 108.436C384.632 107.962 386.23 107.004 387.444 105.599H387.436ZM371.295 95.4005H378.073C382.824 95.4005 385.139 96.9817 385.139 100.232C385.139 101.787 384.545 102.99 383.322 103.912C382.09 104.835 380.405 105.3 378.317 105.3H371.295V95.4005Z" fill="#F9AA19"/>
<path d="M398.685 107.637H414.24V103.763H398.685V95.4005H415.376V91.4476H394.51V120.4H415.734V116.439H398.685V107.637Z" fill="#F9AA19"/>
<path d="M442.251 112.986C440.05 115.463 437.202 116.72 433.787 116.72C430.582 116.72 427.962 115.727 426.005 113.768C424.049 111.809 423.044 109.165 423.044 105.924C423.044 102.682 423.97 100.065 425.804 98.0882C427.63 96.1206 430.171 95.1192 433.342 95.1192C436.512 95.1192 439.316 96.2699 441.569 98.5362L441.744 98.7119L444.46 96.0679L444.329 95.8922C443.281 94.4867 441.779 93.3184 439.849 92.4224C437.927 91.5264 435.709 91.0784 433.255 91.0784C428.922 91.0784 425.376 92.5015 422.712 95.3212C420.049 98.1322 418.704 101.699 418.704 105.915C418.704 110.404 420.057 114.04 422.739 116.72C425.411 119.399 429.053 120.752 433.543 120.752C435.857 120.752 438.05 120.286 440.05 119.364C442.058 118.441 443.639 117.185 444.74 115.639L444.853 115.472L442.434 112.758L442.251 112.969V112.986Z" fill="#F9AA19"/>
<path d="M460.094 91.0787C456.007 91.0787 452.504 92.5193 449.692 95.3566C446.88 98.1939 445.456 101.751 445.456 105.915C445.456 110.079 446.88 113.742 449.692 116.535C452.504 119.337 455.998 120.752 460.094 120.752C464.191 120.752 467.641 119.32 470.453 116.491C473.265 113.663 474.689 110.105 474.689 105.906C474.689 101.708 473.265 98.0797 470.453 95.2863C467.641 92.4841 464.156 91.0699 460.094 91.0699V91.0787ZM460.094 116.729C457.264 116.729 454.819 115.692 452.819 113.654C450.819 111.616 449.797 109.016 449.797 105.924C449.797 102.832 450.81 100.205 452.793 98.1763C454.784 96.1472 457.238 95.1194 460.086 95.1194C462.933 95.1194 465.317 96.1472 467.326 98.1763C469.326 100.205 470.348 102.814 470.348 105.924C470.348 109.034 469.361 111.643 467.405 113.672C465.457 115.701 462.994 116.729 460.086 116.729H460.094Z" fill="#F9AA19"/>
<path d="M489.336 114.348L478.541 91.5882L478.471 91.4476H473.955L487.773 120.4H490.76L503.756 91.799L503.922 91.4476H499.529L489.336 114.348Z" fill="#F9AA19"/>
<path d="M510.28 107.637H525.836V103.763H510.28V95.4005H526.971V91.4476H506.105V120.4H527.338V116.439H510.28V107.637Z" fill="#F9AA19"/>
<path d="M552.16 105.599C553.462 104.097 554.125 102.287 554.125 100.232C554.125 94.3991 550.361 91.4476 542.928 91.4476H531.853V120.4H536.028V109.262H543.007L551.339 120.295L551.409 120.392H556.527L547.409 108.436C549.357 107.962 550.955 107.004 552.169 105.599H552.16ZM536.02 95.4005H542.797C547.549 95.4005 549.863 96.9817 549.863 100.232C549.863 101.787 549.269 102.99 548.046 103.912C546.815 104.835 545.129 105.3 543.042 105.3H536.02V95.4005Z" fill="#F9AA19"/>
<path d="M576.118 91.4476L567.41 105.01L558.885 91.5618L558.815 91.4476H553.732L565.218 109.446V120.4H569.392V109.446L581 91.4476H576.118Z" fill="#F9AA19"/>
<path d="M160.21 109.218H168.01V114.418C166.114 115.947 163.739 116.729 160.944 116.729C157.738 116.729 155.101 115.745 153.092 113.812C151.092 111.88 150.079 109.227 150.079 105.924C150.079 102.621 151.057 100.065 152.996 98.0973C154.935 96.1208 157.511 95.1282 160.656 95.1282C164.071 95.1282 166.734 96.1647 168.595 98.2115L168.778 98.4135L171.416 95.664L171.276 95.4883C168.944 92.5632 165.293 91.0875 160.411 91.0875C156.262 91.0875 152.742 92.5369 149.948 95.3917C147.153 98.2466 145.738 101.795 145.738 105.933C145.738 110.378 147.17 113.997 150 116.702C152.821 119.408 156.472 120.778 160.856 120.778C162.953 120.778 165.031 120.383 167.031 119.601C169.04 118.819 170.691 117.739 171.949 116.386L172.019 116.316V105.362H160.201V109.236L160.21 109.218Z" fill="#044860"/>
<path d="M195.967 107.549C195.967 110.404 195.304 112.67 194.002 114.304C192.71 115.912 190.806 116.729 188.334 116.729C185.862 116.729 183.923 115.903 182.351 114.269C180.779 112.635 179.975 110.307 179.975 107.356V91.4476H175.8V107.874C175.8 111.941 177.006 115.13 179.399 117.361C181.774 119.592 184.788 120.717 188.334 120.717C191.565 120.717 194.36 119.645 196.666 117.546C198.972 115.429 200.142 112.257 200.142 108.111V91.4476H195.967V107.549Z" fill="#044860"/>
<path d="M213.383 91.3686L200.911 120.049L200.762 120.4H205.068L208.178 113.206H221.715L224.868 120.4H229.253L216.632 91.3686H213.383ZM220.117 109.446H209.767L214.92 97.4121L220.117 109.446Z" fill="#044860"/>
<path d="M247.193 108.436C249.14 107.962 250.739 107.004 251.953 105.599C253.254 104.097 253.918 102.287 253.918 100.232C253.918 94.3991 250.154 91.4476 242.721 91.4476H231.637V120.4H235.812V109.262H242.791L251.193 120.4H256.311L247.193 108.445V108.436ZM235.821 95.4005H242.599C247.35 95.4005 249.664 96.9817 249.664 100.232C249.664 101.787 249.07 102.99 247.848 103.912C246.616 104.835 244.939 105.3 242.843 105.3H235.821V95.4005Z" fill="#044860"/>
<path d="M279.745 116.237C282.47 113.478 283.858 109.868 283.858 105.511C283.858 103.57 283.57 101.751 282.994 100.126C282.417 98.4926 281.518 96.9905 280.312 95.6728C279.107 94.3464 277.43 93.3011 275.343 92.5544C273.264 91.8165 270.792 91.4388 268.006 91.4388H259.027V120.392H267.604C272.932 120.392 277.011 118.995 279.745 116.237ZM267.849 116.439H263.211V95.4005H267.927C271.989 95.4005 274.976 96.3141 276.801 98.1148C278.627 99.9156 279.552 102.402 279.552 105.511C279.552 108.84 278.583 111.52 276.679 113.487C274.766 115.446 271.797 116.439 267.849 116.439Z" fill="#044860"/>
<path d="M291.972 91.4476H287.797V120.4H291.972V91.4476Z" fill="#044860"/>
<path d="M315.327 113.206L318.48 120.4H322.865L310.244 91.3686H307.004L294.531 120.049L294.383 120.4H298.689L301.798 113.206H315.336H315.327ZM313.729 109.446H303.379L308.532 97.4121L313.729 109.446Z" fill="#044860"/>
<path d="M329.31 99.1602L346.281 120.4H349.512V91.4476H345.46V112.767L328.533 91.4476H325.258V120.4H329.31V99.1602Z" fill="#044860"/>
<path d="M238.266 144.127L233.969 134.903H231.672L237.498 147.201H239L244.52 134.903H242.284L238.266 144.127Z" fill="#044860"/>
<path d="M248.354 134.903H246.241V147.201H248.354V134.903Z" fill="#044860"/>
<path d="M260.311 140.964C260.8 140.323 261.045 139.576 261.045 138.733C261.045 138.206 260.966 137.723 260.818 137.292C260.669 136.862 260.416 136.458 260.075 136.089C259.735 135.72 259.237 135.43 258.582 135.219C257.927 135.009 257.141 134.903 256.224 134.903H251.42V147.201H253.534V142.686H256.119L259.455 147.201H262.023L258.355 142.282C259.167 142.045 259.822 141.605 260.311 140.964ZM256.276 140.683H253.534V136.906H256.171C257.15 136.906 257.839 137.064 258.241 137.38C258.643 137.696 258.844 138.144 258.844 138.733C258.844 139.322 258.617 139.822 258.163 140.165C257.708 140.507 257.08 140.683 256.276 140.683Z" fill="#044860"/>
<path d="M261.927 136.906H266.032V147.201H268.154V136.906H272.259V134.903H261.927V136.906Z" fill="#044860"/>
<path d="M282.339 141.667C282.339 142.783 282.085 143.67 281.587 144.337C281.09 145.005 280.347 145.339 279.369 145.339C278.391 145.339 277.613 144.996 277.011 144.311C276.408 143.626 276.102 142.721 276.102 141.597V134.903H273.989V141.86C273.989 143.591 274.504 144.935 275.535 145.892C276.565 146.85 277.841 147.324 279.369 147.324C280.033 147.324 280.653 147.219 281.238 147.017C281.823 146.815 282.356 146.507 282.854 146.094C283.352 145.681 283.736 145.128 284.024 144.416C284.312 143.705 284.452 142.888 284.452 141.966V134.903H282.339V141.667Z" fill="#044860"/>
<path d="M291.518 134.903L286.155 147.201H288.339L289.509 144.478H295.082L296.269 147.201H298.488L293.125 134.903H291.518ZM290.278 142.651L292.287 137.978L294.295 142.651H290.278Z" fill="#044860"/>
<path d="M302.418 134.903H300.305V147.201H309.362V145.198H302.418V134.903Z" fill="#044860"/>
<path d="M321.293 145.304C320.035 145.304 319.013 144.917 318.227 144.135C317.441 143.354 317.048 142.326 317.048 141.052C317.048 139.778 317.423 138.733 318.183 137.96C318.943 137.187 319.947 136.801 321.205 136.801C322.559 136.801 323.659 137.275 324.507 138.224L325.904 136.888C325.476 136.256 324.83 135.746 323.983 135.351C323.135 134.956 322.175 134.763 321.1 134.763C319.24 134.763 317.729 135.36 316.576 136.563C315.423 137.767 314.847 139.26 314.847 141.052C314.847 142.958 315.414 144.487 316.55 145.629C317.685 146.771 319.214 147.342 321.135 147.342C322.183 147.342 323.144 147.14 324.026 146.735C324.908 146.331 325.598 145.769 326.096 145.058L324.856 143.687C323.956 144.768 322.769 145.304 321.293 145.304Z" fill="#044860"/>
<path d="M333.346 134.763C331.59 134.763 330.105 135.369 328.9 136.581C327.695 137.793 327.092 139.286 327.092 141.052C327.092 142.818 327.695 144.355 328.909 145.55C330.123 146.744 331.599 147.342 333.346 147.342C335.092 147.342 336.568 146.744 337.782 145.541C338.997 144.337 339.599 142.844 339.599 141.052C339.599 139.26 338.996 137.749 337.791 136.555C336.586 135.36 335.101 134.763 333.346 134.763ZM336.237 144.118C335.459 144.908 334.498 145.304 333.346 145.304C332.193 145.304 331.276 144.908 330.481 144.109C329.686 143.31 329.293 142.291 329.293 141.052C329.293 139.813 329.686 138.777 330.481 137.986C331.276 137.196 332.228 136.801 333.346 136.801C334.464 136.801 335.407 137.196 336.202 137.995C336.996 138.795 337.398 139.813 337.398 141.052C337.398 142.291 337.014 143.327 336.237 144.118Z" fill="#044860"/>
<path d="M350.237 141.667C350.237 142.783 349.984 143.67 349.486 144.337C348.988 145.005 348.246 145.339 347.268 145.339C346.289 145.339 345.512 144.996 344.909 144.311C344.307 143.626 344.001 142.721 344.001 141.597V134.903H341.887V141.86C341.887 143.591 342.403 144.935 343.433 145.892C344.464 146.85 345.739 147.324 347.268 147.324C347.931 147.324 348.552 147.219 349.137 147.017C349.722 146.815 350.255 146.507 350.753 146.094C351.25 145.681 351.635 145.128 351.923 144.416C352.211 143.705 352.351 142.888 352.351 141.966V134.903H350.237V141.667Z" fill="#044860"/>
<path d="M363.688 143.318L356.936 134.903H355.294V147.201H357.355V138.821L364.107 147.201H365.749V134.903H363.688V143.318Z" fill="#044860"/>
<path d="M376.125 140.815C375.566 140.586 374.963 140.376 374.308 140.182C373.653 139.989 373.051 139.831 372.492 139.708C371.933 139.585 371.47 139.401 371.094 139.146C370.719 138.891 370.535 138.575 370.535 138.188C370.535 137.705 370.78 137.345 371.269 137.108C371.758 136.871 372.361 136.748 373.086 136.748C374.483 136.748 375.697 137.178 376.719 138.03L377.872 136.519C376.728 135.351 375.155 134.763 373.138 134.763C371.749 134.763 370.605 135.096 369.705 135.773C368.806 136.449 368.352 137.266 368.352 138.241C368.352 138.847 368.491 139.374 368.771 139.813C369.05 140.253 369.409 140.595 369.854 140.841C370.299 141.087 370.788 141.298 371.321 141.465C371.854 141.632 372.396 141.781 372.928 141.904C373.461 142.027 373.95 142.159 374.396 142.308C374.841 142.458 375.199 142.66 375.479 142.914C375.758 143.169 375.898 143.485 375.898 143.863C375.898 144.329 375.697 144.698 375.287 144.961C374.876 145.225 374.308 145.356 373.575 145.356C371.802 145.356 370.369 144.768 369.26 143.599L368.002 145.093C368.535 145.734 369.304 146.27 370.291 146.7C371.278 147.131 372.308 147.342 373.382 147.342C374.701 147.342 375.811 146.999 376.719 146.323C377.627 145.646 378.081 144.768 378.081 143.705C378.081 143.002 377.898 142.405 377.522 141.904C377.147 141.403 376.684 141.043 376.125 140.815Z" fill="#044860"/>
<path d="M382.545 141.93H389.069V139.998H382.545V136.906H389.523V134.903H380.431V147.201H389.698V145.198H382.545V141.93Z" fill="#044860"/>
<path d="M394.423 134.903H392.309V147.201H401.366V145.198H394.423V134.903Z" fill="#044860"/>
<path d="M405.48 134.903H403.367V147.201H405.48V134.903Z" fill="#044860"/>
<path d="M416.922 143.318L410.179 134.903H408.537V147.201H410.598V138.821L417.35 147.201H418.992V134.903H416.922V143.318Z" fill="#044860"/>
<path d="M427.455 142.563H430.704V144.443C429.971 145.014 429.053 145.304 427.944 145.304C426.652 145.304 425.604 144.926 424.8 144.17C423.996 143.415 423.595 142.378 423.595 141.052C423.595 139.726 423.979 138.715 424.739 137.951C425.499 137.187 426.521 136.801 427.787 136.801C429.184 136.801 430.268 137.231 431.036 138.101L432.451 136.748C431.997 136.124 431.351 135.641 430.503 135.29C429.656 134.938 428.722 134.763 427.682 134.763C425.866 134.763 424.363 135.369 423.175 136.572C421.988 137.776 421.394 139.269 421.394 141.052C421.394 142.941 422.005 144.46 423.219 145.611C424.433 146.762 425.997 147.342 427.909 147.342C428.853 147.342 429.752 147.175 430.608 146.832C431.464 146.489 432.172 146.015 432.73 145.391V140.63H427.455V142.563Z" fill="#044860"/>
<path d="M446.111 140.613L441.744 134.903H439.875V147.201H441.989V138.663L445.797 143.564H446.338L450.068 138.68V147.201H452.181V134.903H450.33L446.111 140.613Z" fill="#044860"/>
<path d="M459.352 134.903L453.989 147.201H456.173L457.343 144.478H462.915L464.103 147.201H466.322L460.959 134.903H459.352ZM458.112 142.651L460.121 137.978L462.129 142.651H458.112Z" fill="#044860"/>
<path d="M470.252 134.903H468.138V147.201H470.252V134.903Z" fill="#044860"/>
<path d="M481.694 143.318L474.951 134.903H473.309V147.201H475.37V138.821L482.113 147.201H483.764V134.903H481.694V143.318Z" fill="#044860"/>
<path d="M488.926 145.198V141.93H495.441V139.998H488.926V136.906H495.895V134.903H486.812V147.201H496.07V145.198H488.926Z" fill="#044860"/>
<path d="M218.606 139.471H157.852V142.106H218.606V139.471Z" fill="#F9AA19"/>
<path d="M569.943 139.471H509.154V142.106H569.943V139.471Z" fill="#F9AA19"/>
</svg>
