<svg width="645" height="240" viewBox="0 0 645 240" fill="none" xmlns="http://www.w3.org/2000/svg">
<rect width="645" height="240" fill="white"/>
<path d="M99.3162 156C80.3982 156 65 140.522 65 121.496C65 102.469 80.3982 87 99.3162 87C118.234 87 133.615 102.478 133.615 121.496C133.615 140.513 118.234 155.991 99.3162 155.991V156ZM99.3162 90.3029C82.2061 90.3029 68.284 104.296 68.284 121.496C68.284 138.695 82.2061 152.697 99.3162 152.697C116.426 152.697 130.331 138.704 130.331 121.496C130.331 104.287 116.417 90.3029 99.3162 90.3029Z" fill="#044860"/>
<path d="M110.024 139.222L99.7267 133.881C99.5956 133.811 99.4559 133.776 99.3074 133.776C99.1677 133.776 99.0192 133.811 98.8882 133.881L88.5907 139.222C88.154 139.451 87.9706 139.978 88.1802 140.426C88.3811 140.874 88.9051 141.084 89.3593 140.9L98.9668 137.149C99.0716 137.105 99.1851 137.079 99.2987 137.079C99.4122 137.079 99.5258 137.105 99.6306 137.149L109.238 140.9C109.692 141.084 110.216 140.874 110.417 140.426C110.618 139.978 110.435 139.451 110.007 139.222H110.024Z" fill="#F9AA19"/>
<path d="M123.824 120.573L108.714 119.879C107.823 119.835 107.509 118.667 108.26 118.184L121.003 109.971C121.413 109.707 121.544 109.163 121.3 108.741C121.055 108.31 120.522 108.152 120.086 108.381L106.644 115.382C105.849 115.795 105.002 114.943 105.413 114.143L112.374 100.616C112.601 100.176 112.443 99.6405 112.024 99.3945H112.007C111.579 99.1398 111.037 99.2715 110.775 99.6844L102.618 112.509C102.137 113.265 100.976 112.949 100.932 112.053L100.224 96.8383C100.198 96.3464 99.7965 95.9599 99.3074 95.9599C98.8183 95.9599 98.4165 96.3464 98.3903 96.8383L97.6916 112.053C97.6479 112.949 96.4863 113.265 96.0059 112.509L87.8483 99.6844C87.5863 99.2715 87.0448 99.1398 86.6168 99.3857H86.6081C86.1889 99.6405 86.0316 100.176 86.2587 100.616L93.2198 114.134C93.6303 114.934 92.7831 115.786 91.9883 115.373L78.5465 108.372C78.1098 108.144 77.5771 108.302 77.3325 108.723C77.088 109.154 77.219 109.707 77.6295 109.971L90.3725 118.184C91.1236 118.667 90.8092 119.835 89.9183 119.879L74.7996 120.573C74.3105 120.6 73.9262 121.004 73.9262 121.496C73.9262 121.996 74.3105 122.4 74.7996 122.418L89.9183 123.121C90.8092 123.165 91.1236 124.333 90.3725 124.816L77.6295 133.02C77.219 133.284 77.088 133.829 77.3325 134.259C77.5771 134.698 78.1098 134.856 78.5465 134.628L98.8969 124.034C99.1589 123.894 99.4734 123.894 99.7354 124.034L120.086 134.628C120.522 134.856 121.055 134.698 121.3 134.268C121.544 133.837 121.405 133.293 120.994 133.029L108.251 124.825C107.5 124.342 107.814 123.173 108.705 123.129L123.815 122.427C124.304 122.4 124.689 121.996 124.689 121.504C124.689 121.004 124.304 120.6 123.815 120.582" fill="#F9AA19"/>
<path d="M160.21 111.218H168.01V116.418C166.114 117.947 163.739 118.729 160.944 118.729C157.738 118.729 155.101 117.745 153.092 115.812C151.092 113.88 150.079 111.227 150.079 107.924C150.079 104.621 151.057 102.065 152.996 100.097C154.935 98.1209 157.511 97.1283 160.656 97.1283C164.071 97.1283 166.734 98.1649 168.595 100.212L168.778 100.414L171.416 97.6642L171.276 97.4885C168.944 94.5633 165.293 93.0876 160.411 93.0876C156.262 93.0876 152.742 94.537 149.948 97.3918C147.153 100.247 145.738 103.796 145.738 107.933C145.738 112.369 147.17 115.997 150 118.702C152.821 121.408 156.481 122.778 160.856 122.778C162.953 122.778 165.031 122.383 167.031 121.601C169.04 120.819 170.691 119.739 171.949 118.386L172.019 118.316V107.362H160.201V111.236L160.21 111.218Z" fill="#044860"/>
<path d="M195.967 109.549C195.967 112.404 195.304 114.67 194.002 116.295C192.71 117.903 190.806 118.72 188.334 118.72C185.862 118.72 183.923 117.894 182.351 116.26C180.779 114.626 179.975 112.299 179.975 109.347V93.4476H175.8V109.874C175.8 113.941 177.006 117.13 179.399 119.361C181.783 121.592 184.788 122.717 188.334 122.717C191.565 122.717 194.36 121.645 196.666 119.546C198.972 117.429 200.142 114.257 200.142 110.111V93.4476H195.967V109.549Z" fill="#044860"/>
<path d="M213.383 93.3686L200.762 122.4H205.068L208.178 115.206H221.715L224.868 122.4H229.253L216.693 93.5179L216.632 93.3686H213.383ZM220.117 111.446H209.767L214.92 99.4033L220.117 111.446Z" fill="#044860"/>
<path d="M251.961 107.599C253.263 106.097 253.918 104.287 253.918 102.232C253.918 96.3991 250.154 93.4476 242.721 93.4476H231.637V122.4H235.812V111.262H242.791L251.193 122.4H256.311L247.193 110.445C249.14 109.971 250.739 109.013 251.953 107.608L251.961 107.599ZM235.821 97.4005H242.599C247.35 97.4005 249.664 98.9817 249.664 102.232C249.664 103.787 249.07 104.99 247.848 105.912C246.616 106.835 244.939 107.309 242.843 107.309H235.821V97.4005Z" fill="#044860"/>
<path d="M280.321 97.6728C279.116 96.3464 277.439 95.3011 275.351 94.5544C273.273 93.8165 270.801 93.4388 268.015 93.4388H259.036V122.392H267.613C272.941 122.392 277.02 120.995 279.753 118.237C282.478 115.478 283.867 111.868 283.867 107.511C283.867 105.57 283.579 103.751 283.002 102.126C282.426 100.493 281.526 98.9904 280.321 97.6728ZM267.849 118.439H263.211V97.4005H267.927C271.989 97.4005 274.976 98.3141 276.801 100.115C278.627 101.916 279.552 104.402 279.552 107.511C279.552 110.84 278.583 113.52 276.67 115.487C274.757 117.446 271.788 118.439 267.84 118.439H267.849Z" fill="#044860"/>
<path d="M291.981 93.4476H287.806V122.4H291.981V93.4476Z" fill="#044860"/>
<path d="M307.004 93.3686L294.383 122.4H298.689L301.798 115.206H315.336L318.489 122.4H322.873L310.314 93.5179L310.253 93.3686H307.004ZM313.738 111.446H303.388L308.541 99.4033L313.738 111.446Z" fill="#044860"/>
<path d="M345.46 93.4476V114.758L328.542 93.4476H325.258V122.392H329.31V101.16L346.202 122.304L346.281 122.392H349.521V93.4476H345.46Z" fill="#044860"/>
<path d="M387.436 107.599C388.737 106.097 389.401 104.287 389.401 102.232C389.401 96.3991 385.636 93.4476 378.204 93.4476H367.129V122.4H371.304V111.262H378.282L386.684 122.4H391.803L382.684 110.445C384.632 109.971 386.23 109.013 387.444 107.608L387.436 107.599ZM371.295 97.4005H378.073C382.824 97.4005 385.139 98.9817 385.139 102.232C385.139 103.787 384.545 104.99 383.322 105.912C382.09 106.835 380.405 107.309 378.317 107.309H371.295V97.4005Z" fill="#F9AA19"/>
<path d="M398.685 109.637H414.249V105.763H398.685V97.4005H415.376V93.4476H394.51V122.392H415.743V118.439H398.685V109.637Z" fill="#F9AA19"/>
<path d="M442.251 114.987C440.05 117.464 437.202 118.72 433.787 118.72C430.582 118.72 427.962 117.727 426.005 115.769C424.04 113.81 423.044 111.166 423.044 107.924C423.044 104.683 423.97 102.065 425.804 100.089C427.63 98.1211 430.171 97.1197 433.342 97.1197C436.512 97.1197 439.316 98.2704 441.569 100.537L441.744 100.712L444.46 98.0684L444.329 97.8927C443.281 96.4784 441.779 95.3101 439.849 94.4229C437.927 93.5269 435.709 93.0789 433.255 93.0789C428.922 93.0789 425.376 94.502 422.712 97.3217C420.049 100.133 418.704 103.699 418.704 107.915C418.704 112.404 420.057 116.041 422.739 118.72C425.411 121.399 429.053 122.752 433.543 122.752C435.857 122.752 438.05 122.286 440.05 121.364C442.058 120.442 443.639 119.194 444.74 117.64L444.853 117.473L442.434 114.758L442.251 114.969V114.987Z" fill="#F9AA19"/>
<path d="M460.094 93.0787C456.007 93.0787 452.504 94.5193 449.692 97.3566C446.88 100.194 445.456 103.751 445.456 107.915C445.456 112.079 446.88 115.742 449.692 118.535C452.504 121.337 455.998 122.752 460.094 122.752C464.191 122.752 467.641 121.32 470.453 118.491C473.265 115.663 474.689 112.105 474.689 107.906C474.689 103.708 473.265 100.08 470.453 97.2863C467.641 94.4841 464.156 93.0699 460.094 93.0699V93.0787ZM460.094 118.72C457.264 118.72 454.819 117.683 452.819 115.645C450.819 113.607 449.797 111.007 449.797 107.915C449.797 104.823 450.81 102.197 452.793 100.168C454.784 98.1384 457.238 97.1106 460.086 97.1106C462.933 97.1106 465.317 98.1384 467.326 100.168C469.326 102.197 470.348 104.806 470.348 107.915C470.348 111.025 469.361 113.634 467.405 115.663C465.457 117.692 462.994 118.72 460.086 118.72H460.094Z" fill="#F9AA19"/>
<path d="M489.345 116.339L478.471 93.4476H473.964L487.711 122.251L487.781 122.392H490.76L503.922 93.4476H499.529L489.345 116.339Z" fill="#F9AA19"/>
<path d="M510.289 109.637H525.844V105.763H510.289V97.4005H526.971V93.4476H506.105V122.392H527.338V118.439H510.289V109.637Z" fill="#F9AA19"/>
<path d="M552.16 107.599C553.461 106.097 554.125 104.287 554.125 102.232C554.125 96.3991 550.361 93.4476 542.928 93.4476H531.853V122.4H536.028V111.262H543.007L551.409 122.4H556.527L547.409 110.445C549.356 109.971 550.955 109.013 552.169 107.608L552.16 107.599ZM536.02 97.4005H542.797C547.548 97.4005 549.863 98.9817 549.863 102.232C549.863 103.787 549.269 104.99 548.046 105.912C546.815 106.835 545.129 107.309 543.042 107.309H536.02V97.4005Z" fill="#F9AA19"/>
<path d="M576.126 93.4476L567.41 107.01L558.816 93.4476H553.741L565.218 111.446V122.392H569.392V111.446L581 93.4476H576.126Z" fill="#F9AA19"/>
<path d="M299.719 141.436H157.363V144.071H299.719V141.436Z" fill="#F9AA19"/>
<path d="M569.454 141.436H426.879V144.071H569.454V141.436Z" fill="#F9AA19"/>
<path d="M324.052 147.058C323.555 147.769 322.865 148.331 321.982 148.735C321.1 149.14 320.14 149.342 319.092 149.342C317.17 149.342 315.642 148.771 314.506 147.629C313.371 146.487 312.803 144.958 312.803 143.052C312.803 141.26 313.379 139.767 314.532 138.563C315.685 137.36 317.196 136.763 319.057 136.763C320.131 136.763 321.092 136.956 321.939 137.351C322.786 137.746 323.432 138.256 323.86 138.888L322.463 140.224C321.616 139.275 320.515 138.801 319.161 138.801C317.904 138.801 316.899 139.187 316.139 139.96C315.38 140.733 315.004 141.761 315.004 143.052C315.004 144.343 315.397 145.354 316.183 146.135C316.969 146.917 317.991 147.304 319.249 147.304C320.725 147.304 321.913 146.768 322.812 145.687L324.052 147.058Z" fill="#044860"/>
<path d="M336.49 143.966C336.49 144.888 336.35 145.705 336.062 146.416C335.774 147.128 335.389 147.681 334.891 148.094C334.394 148.507 333.861 148.815 333.276 149.017C332.69 149.219 332.07 149.324 331.407 149.324C329.878 149.324 328.603 148.85 327.572 147.892C326.542 146.935 326.026 145.591 326.026 143.86V136.903H328.14V143.597C328.14 144.721 328.446 145.626 329.048 146.311C329.651 146.996 330.437 147.339 331.407 147.339C332.376 147.339 333.127 147.005 333.625 146.337C334.123 145.67 334.376 144.783 334.376 143.667V136.903H336.49V143.966Z" fill="#044860"/>
<path d="M339.442 149.201V136.903H344.246C345.163 136.903 345.949 137.009 346.604 137.219C347.259 137.43 347.757 137.72 348.097 138.089C348.438 138.458 348.691 138.862 348.84 139.292C348.988 139.723 349.067 140.206 349.067 140.733C349.067 141.576 348.822 142.323 348.333 142.964C347.844 143.605 347.189 144.045 346.377 144.282L350.045 149.201H347.477L344.141 144.686H341.556V149.201H339.442ZM341.556 138.906V142.683H344.298C345.102 142.683 345.73 142.507 346.185 142.165C346.639 141.822 346.866 141.339 346.866 140.733C346.866 140.127 346.665 139.696 346.263 139.38C345.861 139.064 345.171 138.906 344.193 138.906H341.556Z" fill="#044860"/>
<path d="M355.81 136.903H357.417L362.779 149.201H360.561L359.373 146.478H353.801L352.63 149.201H350.447L355.81 136.903ZM354.569 144.651H358.587L356.578 139.978L354.569 144.651Z" fill="#044860"/>
<path d="M375.706 149.201H373.941L370.954 140.645L368.055 149.201H366.273L362.465 136.903H364.666L367.269 145.406L370.116 136.903H371.845L374.745 145.371L377.225 136.903H379.322L375.706 149.201Z" fill="#044860"/>
<path d="M381.173 136.903H390.257V138.906H383.287V141.998H389.803V143.93H383.287V147.198H390.431V149.201H381.173V136.903Z" fill="#044860"/>
<path d="M399.724 144.914C399.445 144.66 399.087 144.458 398.641 144.308C398.196 144.159 397.707 144.027 397.174 143.904C396.641 143.781 396.1 143.632 395.567 143.465C395.034 143.298 394.545 143.087 394.1 142.841C393.654 142.595 393.296 142.253 393.017 141.813C392.737 141.374 392.597 140.847 392.597 140.241C392.597 139.266 393.052 138.449 393.951 137.773C394.851 137.096 395.995 136.763 397.384 136.763C399.401 136.763 400.973 137.351 402.118 138.519L400.965 140.03C399.943 139.178 398.729 138.748 397.331 138.748C396.606 138.748 396.004 138.871 395.515 139.108C395.026 139.345 394.781 139.705 394.781 140.188C394.781 140.575 394.964 140.891 395.34 141.146C395.716 141.401 396.178 141.585 396.737 141.708C397.296 141.831 397.899 141.989 398.554 142.182C399.209 142.376 399.812 142.586 400.371 142.815C400.93 143.043 401.393 143.403 401.768 143.904C402.144 144.405 402.327 145.002 402.327 145.705C402.327 146.768 401.873 147.646 400.965 148.323C400.056 148.999 398.947 149.342 397.628 149.342C396.554 149.342 395.523 149.131 394.536 148.7C393.549 148.27 392.781 147.734 392.248 147.093L393.506 145.599C394.615 146.768 396.047 147.356 397.82 147.356C398.554 147.356 399.122 147.225 399.532 146.961C399.943 146.698 400.144 146.329 400.144 145.863C400.144 145.485 400.004 145.169 399.724 144.914Z" fill="#044860"/>
<path d="M403.48 136.903H413.804V138.906H409.699V149.201H407.585V138.906H403.48V136.903Z" fill="#044860"/>
</svg>
