<svg width="645" height="300" viewBox="0 0 645 300" fill="none" xmlns="http://www.w3.org/2000/svg">
<rect width="645" height="300" fill="#083045"/>
<path d="M322.202 149.897C300.365 149.897 282.603 132.202 282.603 110.444C282.603 88.6871 300.365 71 322.202 71C344.039 71 361.775 88.6955 361.775 110.453C361.775 132.21 344.022 149.905 322.202 149.905V149.897ZM322.202 74.1488C302.104 74.1488 285.762 90.4374 285.762 110.453C285.762 130.468 302.113 146.757 322.202 146.757C342.291 146.757 358.616 130.468 358.616 110.453C358.616 90.4374 342.274 74.1488 322.202 74.1488Z" fill="white"/>
<path d="M334.654 130.887L322.681 124.723C322.529 124.648 322.361 124.606 322.193 124.606C322.025 124.606 321.857 124.648 321.706 124.723L309.733 130.887C309.229 131.146 309.019 131.758 309.254 132.277C309.49 132.796 310.094 133.039 310.624 132.821L321.807 128.5C321.933 128.45 322.067 128.425 322.202 128.425C322.336 128.425 322.471 128.45 322.597 128.5L333.78 132.821C334.309 133.039 334.914 132.796 335.149 132.277C335.385 131.758 335.175 131.146 334.67 130.887H334.654Z" fill="#F9AA19"/>
<path d="M350.71 109.381L333.133 108.585C332.091 108.535 331.73 107.187 332.604 106.634L347.433 97.1622C347.912 96.8607 348.063 96.2326 347.786 95.7385C347.5 95.2444 346.879 95.0602 346.374 95.3198L330.73 103.385C329.806 103.862 328.814 102.874 329.293 101.952L337.393 86.359C337.653 85.8565 337.477 85.2368 336.981 84.9521H336.964C336.468 84.659 335.838 84.8097 335.536 85.2871L326.042 100.077C325.479 100.948 324.126 100.587 324.084 99.5574L323.269 82.0126C323.244 81.4431 322.773 80.9993 322.202 80.9993H322.193C321.622 80.9993 321.152 81.4431 321.126 82.0126L320.32 99.549C320.269 100.587 318.917 100.948 318.362 100.068L308.868 85.2787C308.557 84.8013 307.927 84.6506 307.439 84.9353H307.423C306.935 85.2284 306.75 85.8482 307.011 86.3506L315.119 101.944C315.598 102.865 314.606 103.854 313.682 103.376L298.046 95.3031C297.542 95.0435 296.92 95.2193 296.634 95.7134C296.349 96.2159 296.5 96.844 296.979 97.1539L311.808 106.626C312.682 107.187 312.321 108.535 311.279 108.577L293.694 109.372C293.122 109.398 292.677 109.866 292.677 110.436C292.677 111.014 293.122 111.474 293.694 111.508L311.279 112.312C312.321 112.362 312.682 113.71 311.8 114.263L296.97 123.726C296.492 124.036 296.34 124.664 296.626 125.15V125.167C296.92 125.653 297.542 125.837 298.046 125.577L321.723 113.359C322.034 113.2 322.395 113.2 322.706 113.359L346.383 125.577C346.887 125.837 347.517 125.653 347.794 125.158C348.072 124.664 347.92 124.036 347.442 123.735L332.612 114.272C331.738 113.71 332.099 112.362 333.141 112.32L350.718 111.516C351.29 111.491 351.735 111.022 351.735 110.453C351.735 109.875 351.29 109.414 350.718 109.381H350.71Z" fill="#F9AA19"/>
<path d="M350.794 187.566C352.046 186.134 352.676 184.409 352.676 182.449C352.676 176.888 349.055 174.074 341.905 174.074H331.242V201.677H335.259V191.058H341.972L349.987 201.577L350.055 201.669H354.978L346.206 190.271C348.08 189.819 349.618 188.906 350.786 187.566H350.794ZM335.267 177.843H341.787C346.358 177.843 348.584 179.35 348.584 182.449C348.584 183.931 348.013 185.079 346.837 185.958C345.652 186.837 344.039 187.29 342.022 187.29H335.267V177.843Z" fill="#F9AA19"/>
<path d="M361.624 189.5H376.588V185.807H361.624V177.843H377.672V174.066H357.6V201.669H378.025V197.9H361.624V189.5Z" fill="#F9AA19"/>
<path d="M403.525 194.609C401.408 196.971 398.669 198.168 395.384 198.168C392.3 198.168 389.779 197.222 387.897 195.354C386.007 193.487 385.049 190.966 385.049 187.876C385.049 184.786 385.94 182.29 387.704 180.406C389.46 178.53 391.905 177.575 394.955 177.575C398.005 177.575 400.702 178.672 402.87 180.841L403.038 181.009L405.651 178.488L405.525 178.32C404.517 176.98 403.071 175.867 401.215 175.012C399.366 174.158 397.232 173.731 394.871 173.731C390.704 173.731 387.292 175.096 384.73 177.776C382.167 180.456 380.873 183.856 380.873 187.876C380.873 192.155 382.176 195.622 384.755 198.177C387.326 200.731 390.83 202.02 395.148 202.02C397.375 202.02 399.484 201.577 401.408 200.697C403.34 199.818 404.861 198.629 405.92 197.155L406.029 196.996L403.702 194.408L403.525 194.609Z" fill="#F9AA19"/>
<path d="M420.691 173.723C416.758 173.723 413.389 175.096 410.684 177.801C407.978 180.506 406.609 183.898 406.609 187.867C406.609 191.837 407.978 195.329 410.684 197.992C413.389 200.664 416.75 202.012 420.691 202.012C424.631 202.012 427.95 200.647 430.655 197.95C433.361 195.254 434.73 191.862 434.73 187.859C434.73 183.856 433.361 180.397 430.655 177.734C427.95 175.063 424.597 173.714 420.691 173.714V173.723ZM420.691 198.168C417.968 198.168 415.616 197.18 413.692 195.237C411.768 193.294 410.785 190.815 410.785 187.867C410.785 184.92 411.759 182.416 413.666 180.481C415.582 178.547 417.943 177.567 420.682 177.567C423.421 177.567 425.715 178.547 427.647 180.481C429.571 182.416 430.555 184.903 430.555 187.867C430.555 190.832 429.605 193.319 427.723 195.254C425.849 197.188 423.48 198.168 420.682 198.168H420.691Z" fill="#F9AA19"/>
<path d="M448.829 195.899L438.436 174.208L438.377 174.066H434.033L447.258 201.535L447.325 201.669H450.19L462.701 174.409L462.852 174.066H458.626L448.829 195.899Z" fill="#F9AA19"/>
<path d="M468.977 189.5H483.941V185.807H468.977V177.843H485.025V174.066H464.952V201.669H485.378V197.9H468.977V189.5Z" fill="#F9AA19"/>
<path d="M509.265 187.566C510.517 186.134 511.155 184.409 511.155 182.449C511.155 176.888 507.534 174.074 500.384 174.074H489.73V201.677H493.746V191.058H500.46L508.475 201.577L508.542 201.669H513.466L504.694 190.271C506.568 189.819 508.105 188.906 509.273 187.566H509.265ZM493.729 177.843H500.249C504.82 177.843 507.047 179.35 507.047 182.449C507.047 183.931 506.475 185.079 505.299 185.958C504.114 186.837 502.493 187.29 500.485 187.29H493.729V177.843Z" fill="#F9AA19"/>
<path d="M532.312 174.066L523.926 186.996L515.667 174.066H510.777L521.818 191.234V201.669H525.842V191.234L537 174.066H532.312Z" fill="#F9AA19"/>
<path d="M131.022 191.016V195.966C129.148 197.423 126.796 198.168 124.031 198.168C120.864 198.168 118.251 197.23 116.268 195.388C114.293 193.545 113.285 191.016 113.285 187.876C113.285 184.735 114.26 182.298 116.167 180.414C118.083 178.53 120.628 177.575 123.746 177.575C127.123 177.575 129.761 178.563 131.601 180.523L131.77 180.707L134.374 178.094L134.231 177.927C131.929 175.146 128.316 173.731 123.502 173.731C119.41 173.731 115.932 175.113 113.167 177.826C110.403 180.548 109 183.931 109 187.876C109 192.113 110.42 195.564 113.209 198.143C115.999 200.714 119.612 202.02 123.939 202.02C126.006 202.02 128.064 201.644 130.039 200.898C132.022 200.153 133.66 199.123 134.903 197.842L134.971 197.775V187.323H123.3V191.016H131.022Z" fill="white"/>
<path d="M159.261 189.417C159.261 192.138 158.606 194.299 157.32 195.848C156.043 197.381 154.153 198.168 151.716 198.168C149.279 198.168 147.355 197.381 145.793 195.815C144.238 194.257 143.448 192.038 143.448 189.224V174.066H139.331V189.727C139.331 193.604 140.524 196.644 142.885 198.78C145.238 200.907 148.204 201.979 151.716 201.979C154.909 201.979 157.673 200.965 159.942 198.955C162.219 196.945 163.378 193.914 163.378 189.961V174.066H159.261V189.417Z" fill="white"/>
<path d="M180.266 173.991H177.082L164.605 201.669H168.848L171.923 194.81H185.316L188.433 201.669H192.752L180.333 174.133L180.266 173.991ZM173.494 191.234L178.603 179.744L183.745 191.234H173.494Z" fill="white"/>
<path d="M215.807 187.566C217.092 186.134 217.748 184.409 217.748 182.449C217.748 176.888 214.026 174.074 206.682 174.074H195.734V201.677H199.851V191.058H206.766L215.076 201.677H220.125L211.11 190.279C213.034 189.827 214.614 188.914 215.815 187.574L215.807 187.566ZM199.843 177.843H206.556C211.261 177.843 213.547 179.35 213.547 182.449C213.547 183.931 212.958 185.079 211.749 185.958C210.53 186.837 208.867 187.29 206.8 187.29H199.851V177.851L199.843 177.843Z" fill="white"/>
<path d="M244.441 178.094C243.248 176.83 241.593 175.833 239.534 175.13C237.484 174.426 235.039 174.066 232.283 174.066H223.411V201.669H231.88C237.14 201.669 241.173 200.337 243.87 197.708C246.567 195.078 247.936 191.636 247.936 187.482C247.936 185.631 247.65 183.898 247.079 182.349C246.516 180.791 245.617 179.359 244.432 178.103L244.441 178.094ZM232.124 197.9H227.528V177.843H232.199C236.215 177.843 239.173 178.714 240.979 180.431C242.786 182.148 243.702 184.518 243.702 187.482C243.702 190.656 242.744 193.21 240.853 195.078C238.963 196.945 236.022 197.892 232.115 197.892L232.124 197.9Z" fill="white"/>
<path d="M256.565 174.066H252.448V201.669H256.565V174.066Z" fill="white"/>
<path d="M275.218 173.991H272.033L259.556 201.669H263.799L266.874 194.81H280.267L283.384 201.669H287.703L275.285 174.133L275.218 173.991ZM268.446 191.234L273.554 179.744L278.696 191.234H268.446Z" fill="white"/>
<path d="M310.649 174.066V194.408L293.904 174.066H290.677V201.669H294.677V181.411L311.456 201.669H314.648V174.066H310.649Z" fill="white"/>
<path d="M170.074 224.012H119.864V226.525H170.074V224.012Z" fill="#F9AA19"/>
<path d="M525.657 224.012H475.413V226.525H525.657V224.012Z" fill="#F9AA19"/>
<path d="M189.13 226.449C188.903 226.24 188.609 226.081 188.256 225.963C187.895 225.846 187.5 225.737 187.072 225.637C186.643 225.536 186.206 225.419 185.769 225.285C185.333 225.151 184.938 224.984 184.585 224.783C184.223 224.582 183.938 224.314 183.711 223.962C183.484 223.61 183.375 223.191 183.375 222.706C183.375 221.927 183.736 221.265 184.467 220.729C185.198 220.193 186.122 219.917 187.24 219.917C188.87 219.917 190.147 220.386 191.071 221.324L190.139 222.538C189.307 221.852 188.332 221.508 187.198 221.508C186.61 221.508 186.122 221.6 185.727 221.793C185.333 221.986 185.131 222.27 185.131 222.655C185.131 222.965 185.282 223.225 185.585 223.426C185.887 223.627 186.265 223.778 186.71 223.878C187.156 223.979 187.652 224.104 188.181 224.255C188.71 224.406 189.197 224.582 189.651 224.766C190.105 224.95 190.483 225.243 190.777 225.637C191.08 226.039 191.231 226.516 191.231 227.077C191.231 227.931 190.861 228.635 190.13 229.179C189.399 229.724 188.5 230 187.433 230C186.568 230 185.736 229.833 184.929 229.489C184.123 229.146 183.509 228.719 183.081 228.199L184.097 227.002C184.996 227.94 186.156 228.409 187.584 228.409C188.181 228.409 188.643 228.3 188.971 228.091C189.298 227.881 189.466 227.588 189.466 227.211C189.466 226.91 189.357 226.659 189.13 226.449Z" fill="white"/>
<path d="M196.474 220.026H197.776L202.111 229.883H200.313L199.356 227.697H194.852L193.903 229.883H192.138L196.474 220.026ZM195.465 226.231H198.717L197.095 222.488L195.474 226.231H195.465Z" fill="white"/>
<path d="M203.573 220.026H206.665C207.657 220.026 208.522 220.151 209.262 220.403C210.001 220.654 210.581 221.014 211.009 221.466C211.429 221.919 211.749 222.429 211.942 222.982C212.143 223.535 212.236 224.155 212.236 224.824C212.236 226.324 211.757 227.546 210.799 228.476C209.841 229.414 208.405 229.874 206.489 229.874H203.582V220.017L203.573 220.026ZM205.287 221.625V228.275H206.615C207.926 228.275 208.892 227.965 209.522 227.354C210.152 226.742 210.463 225.896 210.463 224.824C210.463 222.697 209.194 221.625 206.649 221.625H205.287Z" fill="white"/>
<path d="M214.185 220.026H217.277C218.269 220.026 219.134 220.151 219.873 220.403C220.613 220.654 221.192 221.014 221.621 221.466C222.041 221.919 222.36 222.429 222.554 222.982C222.755 223.535 222.848 224.155 222.848 224.824C222.848 226.324 222.369 227.546 221.411 228.476C220.453 229.414 219.016 229.874 217.101 229.874H214.194V220.017L214.185 220.026ZM215.891 221.625V228.275H217.218C218.529 228.275 219.495 227.965 220.125 227.354C220.756 226.742 221.066 225.896 221.066 224.824C221.066 222.697 219.798 221.625 217.252 221.625H215.891Z" fill="white"/>
<path d="M224.789 220.026H226.503V228.275H232.115V229.883H224.797V220.026H224.789Z" fill="white"/>
<path d="M233.728 220.026H241.072V221.634H235.434V224.113H240.702V225.662H235.434V228.283H241.215V229.891H233.728V220.026Z" fill="white"/>
<path d="M247.163 220.026H251.356C252.599 220.026 253.481 220.244 254.011 220.679C254.54 221.115 254.801 221.726 254.801 222.505C254.801 223.493 254.406 224.222 253.616 224.699C254.633 225.017 255.145 225.788 255.145 227.01C255.145 227.99 254.801 228.71 254.112 229.179C253.423 229.648 252.473 229.883 251.272 229.883H247.163V220.026ZM248.877 221.625V224.079H251.322C251.868 224.079 252.288 223.97 252.591 223.761C252.893 223.552 253.045 223.258 253.045 222.882C253.045 222.446 252.902 222.136 252.624 221.927C252.339 221.726 251.852 221.625 251.137 221.625H248.877ZM248.877 225.628V228.275H251.163C251.936 228.275 252.498 228.166 252.843 227.948C253.196 227.73 253.364 227.387 253.364 226.91C253.364 226.466 253.204 226.148 252.877 225.938C252.549 225.729 252.02 225.628 251.272 225.628H248.869H248.877Z" fill="white"/>
<path d="M257.195 229.883V220.026H261.077C261.825 220.026 262.455 220.11 262.984 220.277C263.514 220.445 263.917 220.679 264.194 220.972C264.471 221.265 264.673 221.592 264.791 221.935C264.917 222.287 264.976 222.664 264.976 223.091C264.976 223.769 264.774 224.364 264.379 224.883C263.984 225.402 263.455 225.754 262.799 225.938L265.765 229.883H263.69L260.993 226.265H258.901V229.883H257.187H257.195ZM258.901 221.625V224.657H261.119C261.766 224.657 262.278 224.515 262.648 224.238C263.018 223.962 263.203 223.577 263.203 223.091C263.203 222.605 263.043 222.262 262.715 222.011C262.388 221.759 261.833 221.634 261.043 221.634H258.909L258.901 221.625Z" fill="white"/>
<path d="M267.908 221.366C268.882 220.394 270.084 219.909 271.504 219.909C272.924 219.909 274.125 220.386 275.1 221.349C276.075 222.312 276.562 223.51 276.562 224.95C276.562 226.391 276.075 227.588 275.092 228.551C274.109 229.514 272.915 229.992 271.504 229.992C270.092 229.992 268.891 229.514 267.916 228.56C266.942 227.605 266.446 226.399 266.446 224.958C266.446 223.518 266.933 222.346 267.908 221.374V221.366ZM269.185 227.404C269.823 228.04 270.596 228.359 271.504 228.359C272.411 228.359 273.218 228.04 273.84 227.404C274.47 226.767 274.781 225.955 274.781 224.95C274.781 223.945 274.461 223.141 273.814 222.496C273.167 221.86 272.403 221.542 271.504 221.542C270.605 221.542 269.823 221.86 269.185 222.496C268.546 223.133 268.227 223.945 268.227 224.95C268.227 225.955 268.546 226.759 269.185 227.404Z" fill="white"/>
<path d="M279.444 221.366C280.418 220.394 281.62 219.909 283.04 219.909C284.46 219.909 285.661 220.386 286.636 221.349C287.611 222.312 288.098 223.51 288.098 224.95C288.098 226.391 287.611 227.588 286.628 228.551C285.645 229.514 284.451 229.992 283.04 229.992C281.628 229.992 280.427 229.514 279.452 228.56C278.478 227.605 277.982 226.399 277.982 224.958C277.982 223.518 278.469 222.346 279.444 221.374V221.366ZM280.729 227.404C281.368 228.04 282.141 228.359 283.048 228.359C283.956 228.359 284.762 228.04 285.384 227.404C286.014 226.767 286.325 225.955 286.325 224.95C286.325 223.945 286.006 223.141 285.359 222.496C284.712 221.86 283.947 221.542 283.048 221.542C282.149 221.542 281.368 221.86 280.729 222.496C280.091 223.133 279.771 223.945 279.771 224.95C279.771 225.955 280.091 226.759 280.729 227.404Z" fill="white"/>
<path d="M291.761 220.026V224.347L296.197 220.026H298.432L293.937 224.448L298.752 229.883H296.475L292.643 225.587L291.753 226.449V229.883H290.039V220.026H291.761Z" fill="white"/>
<path d="M312.548 228.166C312.145 228.735 311.582 229.188 310.876 229.514C310.162 229.841 309.389 230 308.54 230C306.986 230 305.751 229.539 304.835 228.627C303.919 227.714 303.457 226.491 303.457 224.958C303.457 223.518 303.919 222.32 304.86 221.357C305.793 220.394 307.011 219.917 308.523 219.917C309.389 219.917 310.17 220.076 310.851 220.386C311.531 220.696 312.052 221.115 312.405 221.617L311.271 222.689C310.582 221.927 309.691 221.55 308.599 221.55C307.582 221.55 306.767 221.86 306.154 222.48C305.541 223.099 305.238 223.928 305.238 224.958C305.238 225.989 305.557 226.809 306.188 227.429C306.826 228.057 307.649 228.367 308.666 228.367C309.859 228.367 310.825 227.931 311.548 227.069L312.548 228.166Z" fill="white"/>
<path d="M314.816 221.366C315.791 220.394 316.993 219.909 318.412 219.909C319.832 219.909 321.034 220.386 322.009 221.349C322.983 222.312 323.471 223.51 323.471 224.95C323.471 226.391 322.983 227.588 322 228.551C321.017 229.514 319.824 229.992 318.412 229.992C317.001 229.992 315.799 229.514 314.825 228.56C313.85 227.605 313.354 226.399 313.354 224.958C313.354 223.518 313.842 222.346 314.816 221.374V221.366ZM316.094 227.404C316.732 228.04 317.505 228.359 318.412 228.359C319.32 228.359 320.126 228.04 320.748 227.404C321.378 226.767 321.689 225.955 321.689 224.95C321.689 223.945 321.37 223.141 320.723 222.496C320.076 221.86 319.311 221.542 318.412 221.542C317.513 221.542 316.732 221.86 316.094 222.496C315.455 223.133 315.136 223.945 315.136 224.95C315.136 225.955 315.455 226.759 316.094 227.404Z" fill="white"/>
<path d="M333.78 225.687C333.78 226.432 333.662 227.086 333.435 227.655C333.208 228.225 332.889 228.668 332.486 229.003C332.083 229.33 331.654 229.581 331.184 229.74C330.713 229.908 330.209 229.983 329.671 229.983C328.436 229.983 327.403 229.598 326.571 228.836C325.739 228.074 325.319 226.994 325.319 225.603V220.026H327.025V225.394C327.025 226.298 327.268 227.019 327.764 227.571C328.26 228.124 328.89 228.392 329.671 228.392C330.453 228.392 331.058 228.124 331.469 227.588C331.873 227.052 332.074 226.34 332.074 225.444V220.026H333.788V225.687H333.78Z" fill="white"/>
<path d="M343.283 229.883L337.83 223.166V229.883H336.166V220.026H337.494L342.946 226.767V220.026H344.61V229.883H343.283Z" fill="white"/>
<path d="M352.483 226.449C352.256 226.24 351.962 226.081 351.609 225.963C351.248 225.846 350.853 225.737 350.424 225.637C349.996 225.536 349.559 225.419 349.122 225.285C348.685 225.151 348.29 224.984 347.937 224.783C347.576 224.582 347.29 224.314 347.063 223.962C346.837 223.61 346.727 223.191 346.727 222.706C346.727 221.927 347.089 221.265 347.82 220.729C348.551 220.193 349.475 219.917 350.592 219.917C352.222 219.917 353.499 220.386 354.424 221.324L353.491 222.538C352.659 221.852 351.685 221.508 350.55 221.508C349.962 221.508 349.475 221.6 349.08 221.793C348.685 221.986 348.483 222.27 348.483 222.655C348.483 222.965 348.635 223.225 348.937 223.426C349.24 223.627 349.618 223.778 350.063 223.878C350.508 223.979 351.004 224.104 351.533 224.255C352.063 224.406 352.55 224.582 353.004 224.766C353.457 224.95 353.835 225.243 354.13 225.637C354.432 226.039 354.583 226.516 354.583 227.077C354.583 227.931 354.214 228.635 353.483 229.179C352.752 229.724 351.853 230 350.786 230C349.92 230 349.088 229.833 348.282 229.489C347.475 229.146 346.862 228.719 346.433 228.199L347.45 227.002C348.349 227.94 349.508 228.409 350.937 228.409C351.533 228.409 351.995 228.3 352.323 228.091C352.651 227.881 352.819 227.588 352.819 227.211C352.819 226.91 352.71 226.659 352.483 226.449Z" fill="white"/>
<path d="M356.491 220.026H363.834V221.634H358.196V224.113H363.464V225.662H358.196V228.283H363.977V229.891H356.491V220.026Z" fill="white"/>
<path d="M366.094 220.026H367.808V228.275H373.421V229.883H366.102V220.026H366.094Z" fill="white"/>
<path d="M375.034 220.026H376.748V229.883H375.034V220.026Z" fill="white"/>
<path d="M386.335 229.883L380.882 223.166V229.883H379.218V220.026H380.546L385.999 226.767V220.026H387.662V229.883H386.335Z" fill="white"/>
<path d="M394.518 224.615H398.786V228.434C398.333 228.928 397.761 229.313 397.072 229.59C396.383 229.866 395.652 230 394.888 230C393.342 230 392.082 229.539 391.099 228.61C390.116 227.689 389.62 226.466 389.62 224.958C389.62 223.535 390.099 222.337 391.065 221.366C392.023 220.403 393.241 219.917 394.711 219.917C395.552 219.917 396.308 220.059 396.997 220.336C397.677 220.62 398.207 221.006 398.576 221.508L397.434 222.588C396.812 221.893 395.938 221.55 394.804 221.55C393.779 221.55 392.955 221.86 392.342 222.471C391.729 223.083 391.418 223.912 391.418 224.958C391.418 226.005 391.745 226.851 392.392 227.454C393.039 228.057 393.888 228.359 394.938 228.359C395.837 228.359 396.577 228.132 397.173 227.672V226.164H394.543V224.615H394.518Z" fill="white"/>
<path d="M413.129 228.166C412.725 228.735 412.162 229.188 411.457 229.514C410.743 229.841 409.97 230 409.121 230C407.567 230 406.331 229.539 405.416 228.627C404.5 227.714 404.038 226.491 404.038 224.958C404.038 223.518 404.5 222.32 405.441 221.357C406.373 220.394 407.592 219.917 409.104 219.917C409.97 219.917 410.751 220.076 411.431 220.386C412.112 220.696 412.633 221.115 412.986 221.617L411.852 222.689C411.163 221.927 410.272 221.55 409.18 221.55C408.163 221.55 407.348 221.86 406.735 222.48C406.121 223.099 405.819 223.928 405.819 224.958C405.819 225.989 406.138 226.809 406.768 227.429C407.407 228.057 408.23 228.367 409.247 228.367C410.44 228.367 411.406 227.931 412.129 227.069L413.129 228.166Z" fill="white"/>
<path d="M414.826 220.026H422.169V221.634H416.532V224.113H421.8V225.662H416.532V228.283H422.312V229.891H414.826V220.026Z" fill="white"/>
<path d="M431.554 229.883L426.101 223.166V229.883H424.438V220.026H425.765L431.218 226.767V220.026H432.882V229.883H431.554Z" fill="white"/>
<path d="M434.369 220.026H442.721V221.634H439.402V229.883H437.696V221.634H434.377V220.026H434.369Z" fill="white"/>
<path d="M444.216 220.026H451.56V221.634H445.922V224.113H451.19V225.662H445.922V228.283H451.702V229.891H444.216V220.026Z" fill="white"/>
<path d="M453.82 229.883V220.026H457.702C458.449 220.026 459.079 220.11 459.609 220.277C460.138 220.445 460.541 220.679 460.819 220.972C461.096 221.265 461.298 221.592 461.415 221.935C461.541 222.287 461.6 222.664 461.6 223.091C461.6 223.769 461.398 224.364 461.004 224.883C460.609 225.402 460.079 225.754 459.424 225.938L462.39 229.883H460.315L457.617 226.265H455.525V229.883H453.811H453.82ZM455.534 221.625V224.657H457.752C458.399 224.657 458.911 224.515 459.281 224.238C459.651 223.962 459.836 223.577 459.836 223.091C459.836 222.605 459.676 222.262 459.348 222.011C459.021 221.759 458.466 221.634 457.676 221.634H455.542L455.534 221.625Z" fill="white"/>
</svg>
