<svg width="645" height="300" viewBox="0 0 645 300" fill="none" xmlns="http://www.w3.org/2000/svg">
<rect width="645" height="300" fill="#083045"/>
<path d="M200.078 222.482H119.855V224.977H200.078V222.482Z" fill="#F9AA19"/>
<path d="M525.666 222.482H444.846V224.977H525.666V222.482Z" fill="#F9AA19"/>
<path d="M322.202 148.349C300.365 148.349 282.603 130.777 282.603 109.17C282.603 87.5643 300.365 70 322.202 70C344.039 70 361.775 87.5726 361.775 109.179C361.775 130.785 344.022 148.358 322.202 148.358V148.349ZM322.202 73.127C302.104 73.127 285.762 89.3025 285.762 109.179C285.762 129.055 302.113 145.231 322.202 145.231C342.291 145.231 358.616 129.055 358.616 109.179C358.616 89.3025 342.274 73.127 322.202 73.127Z" fill="white"/>
<path d="M334.654 129.471L322.681 123.35C322.529 123.275 322.361 123.234 322.193 123.234C322.025 123.234 321.857 123.275 321.706 123.35L309.733 129.471C309.229 129.729 309.019 130.336 309.254 130.851C309.49 131.367 310.094 131.608 310.624 131.392L321.807 127.101C321.933 127.051 322.067 127.026 322.202 127.026C322.336 127.026 322.471 127.051 322.597 127.101L333.78 131.392C334.309 131.608 334.914 131.367 335.149 130.851C335.385 130.336 335.175 129.729 334.67 129.471H334.654Z" fill="#F9AA19"/>
<path d="M350.71 108.114L333.133 107.324C332.091 107.274 331.73 105.935 332.604 105.386L347.433 95.9806C347.912 95.6812 348.063 95.0574 347.786 94.5668C347.5 94.0761 346.879 93.8931 346.374 94.1509L330.73 102.16C329.806 102.634 328.814 101.652 329.293 100.738L337.393 85.2524C337.653 84.7534 337.477 84.1379 336.981 83.8552H336.964C336.468 83.5641 335.838 83.7138 335.536 84.1878L326.042 98.8747C325.479 99.7396 324.126 99.382 324.084 98.3591L323.269 80.9361C323.244 80.3706 322.773 79.9298 322.202 79.9298H322.193C321.622 79.9298 321.152 80.3706 321.126 80.9361L320.32 98.3507C320.269 99.382 318.917 99.7396 318.362 98.8664L308.868 84.1795C308.557 83.7055 307.927 83.5558 307.439 83.8386H307.423C306.935 84.1296 306.75 84.745 307.011 85.244L315.119 100.729C315.598 101.644 314.606 102.625 313.682 102.151L298.046 94.1343C297.542 93.8765 296.92 94.0511 296.634 94.5418C296.349 95.0408 296.5 95.6645 296.979 95.9722L311.808 105.378C312.682 105.935 312.321 107.274 311.279 107.316L293.694 108.106C293.122 108.131 292.677 108.597 292.677 109.162C292.677 109.736 293.122 110.193 293.694 110.227L311.279 111.025C312.321 111.075 312.682 112.414 311.8 112.963L296.97 122.36C296.492 122.668 296.34 123.292 296.626 123.774V123.791C296.92 124.273 297.542 124.456 298.046 124.198L321.723 112.065C322.034 111.907 322.395 111.907 322.706 112.065L346.383 124.198C346.887 124.456 347.517 124.273 347.794 123.782C348.072 123.292 347.92 122.668 347.442 122.369L332.612 112.971C331.738 112.414 332.099 111.075 333.141 111.033L350.718 110.235C351.29 110.21 351.735 109.744 351.735 109.179C351.735 108.605 351.29 108.148 350.718 108.114H350.71Z" fill="#F9AA19"/>
<path d="M350.794 185.757C352.046 184.334 352.676 182.621 352.676 180.675C352.676 175.153 349.055 172.359 341.905 172.359H331.242V199.77H335.259V189.224H341.972L350.055 199.77H354.978L346.206 188.451C348.08 188.002 349.618 187.095 350.786 185.765L350.794 185.757ZM335.267 176.101H341.787C346.358 176.101 348.584 177.598 348.584 180.675C348.584 182.147 348.013 183.287 346.837 184.16C345.652 185.033 344.039 185.482 342.022 185.482H335.267V176.101Z" fill="#F9AA19"/>
<path d="M361.616 187.678H376.588V184.01H361.616V176.101H377.672V172.359H357.6V199.761H378.025V196.019H361.616V187.678Z" fill="#F9AA19"/>
<path d="M403.525 192.751C401.408 195.096 398.669 196.285 395.384 196.285C392.3 196.285 389.779 195.345 387.897 193.491C386.007 191.636 385.049 189.133 385.049 186.064C385.049 182.995 385.94 180.517 387.704 178.646C389.46 176.783 391.897 175.835 394.955 175.835C398.013 175.835 400.702 176.924 402.87 179.078L403.038 179.245L405.651 176.742L405.525 176.575C404.525 175.245 403.071 174.138 401.215 173.29C399.366 172.442 397.232 172.018 394.871 172.018C390.704 172.018 387.292 173.373 384.73 176.035C382.167 178.696 380.873 182.072 380.873 186.064C380.873 190.314 382.176 193.757 384.755 196.293C387.326 198.83 390.83 200.111 395.148 200.111C397.375 200.111 399.484 199.67 401.408 198.797C403.34 197.923 404.861 196.743 405.92 195.279L406.029 195.121L403.702 192.551L403.525 192.751Z" fill="#F9AA19"/>
<path d="M420.691 172.009C416.758 172.009 413.389 173.373 410.684 176.06C407.978 178.746 406.609 182.114 406.609 186.056C406.609 189.998 407.978 193.466 410.684 196.111C413.389 198.763 416.75 200.102 420.691 200.102C424.631 200.102 427.95 198.747 430.655 196.069C433.361 193.391 434.73 190.023 434.73 186.048C434.73 182.072 433.361 178.638 430.655 175.993C427.95 173.348 424.597 172.001 420.691 172.001V172.009ZM420.691 196.285C417.968 196.285 415.616 195.304 413.692 193.374C411.768 191.445 410.785 188.983 410.785 186.056C410.785 183.129 411.759 180.642 413.666 178.721C415.582 176.8 417.943 175.827 420.691 175.827C423.438 175.827 425.723 176.8 427.656 178.721C429.58 180.642 430.563 183.112 430.563 186.056C430.563 189 429.613 191.47 427.731 193.391C425.858 195.312 423.488 196.285 420.691 196.285Z" fill="#F9AA19"/>
<path d="M448.829 194.031L438.377 172.359H434.033L447.258 199.628L447.325 199.761H450.19L462.852 172.359H458.626L448.829 194.031Z" fill="#F9AA19"/>
<path d="M468.977 187.678H483.941V184.01H468.977V176.101H485.025V172.359H464.952V199.761H485.378V196.019H468.977V187.678Z" fill="#F9AA19"/>
<path d="M509.265 185.757C510.517 184.334 511.155 182.621 511.155 180.675C511.155 175.153 507.534 172.359 500.384 172.359H489.73V199.77H493.746V189.224H500.46L508.542 199.77H513.466L504.694 188.451C506.568 188.002 508.105 187.095 509.273 185.765L509.265 185.757ZM493.729 176.101H500.249C504.82 176.101 507.047 177.598 507.047 180.675C507.047 182.147 506.475 183.287 505.299 184.16C504.114 185.033 502.493 185.482 500.485 185.482H493.729V176.101Z" fill="#F9AA19"/>
<path d="M532.312 172.359L523.926 185.191L515.659 172.359H510.777L521.818 189.399V199.761H525.842V189.399L537 172.359H532.312Z" fill="#F9AA19"/>
<path d="M222.318 226.199L215.832 218.224H214.252V229.875H216.235V221.933L222.722 229.875H224.301V218.224H222.318V226.199Z" fill="white"/>
<path d="M229.275 224.885H235.543V223.056H229.275V220.12H235.98V218.224H227.242V229.875H236.148V227.979H229.275V224.885Z" fill="white"/>
<path d="M249.322 226.249L246.533 218.224H244.869L242.13 226.283L239.627 218.224H237.509L241.173 229.875H242.887L245.676 221.767L248.549 229.875H250.247L253.725 218.224H251.709L249.322 226.249Z" fill="white"/>
<path d="M268.756 219.455C268.412 219.064 267.908 218.764 267.244 218.548C266.58 218.332 265.765 218.224 264.816 218.224H260.06V229.867H262.094V225.875H264.799C265.681 225.875 266.454 225.767 267.11 225.551C267.765 225.334 268.277 225.043 268.639 224.669C269 224.295 269.269 223.896 269.445 223.455C269.622 223.014 269.706 222.548 269.706 222.049C269.706 221.55 269.63 221.076 269.487 220.661C269.345 220.245 269.101 219.846 268.756 219.455ZM264.765 223.996H262.094V220.103H264.883C266.69 220.103 267.589 220.744 267.589 222.033C267.589 223.322 266.647 223.996 264.765 223.996Z" fill="white"/>
<path d="M274.932 218.224L269.773 229.867H271.874L272.999 227.289H278.36L279.503 229.867H281.637L276.478 218.224H274.932ZM273.739 225.567L275.671 221.143L277.604 225.567H273.739Z" fill="white"/>
<path d="M280.612 220.12H284.561V229.875H286.594V220.12H290.543V218.224H280.612V220.12Z" fill="white"/>
<path d="M300.525 223.031H294.357V218.224H292.324V229.875H294.357V224.927H300.525V229.875H302.558V218.224H300.525V223.031Z" fill="white"/>
<path d="M318.538 218.224L316.152 226.249L313.363 218.224H311.699L308.96 226.283L306.456 218.224H304.339L308.002 229.875H309.716L312.506 221.767L315.379 229.875H317.077L320.555 218.224H318.538Z" fill="white"/>
<path d="M325.395 218.224L320.236 229.867H322.336L323.462 227.289H328.823L329.965 229.867H332.099L326.941 218.224H325.395ZM324.201 225.567L326.134 221.143L328.066 225.567H324.201Z" fill="white"/>
<path d="M336.737 222.864L333.494 218.224H330.974L335.695 224.827V229.875H337.729V224.827L342.484 218.224H340.048L336.737 222.864Z" fill="white"/>
<path d="M356.365 223.754C357.306 223.189 357.776 222.324 357.776 221.16C357.776 220.236 357.465 219.521 356.835 219.006C356.205 218.49 355.155 218.232 353.676 218.232H348.685V229.875H353.575C355.012 229.875 356.138 229.601 356.953 229.044C357.768 228.486 358.179 227.638 358.179 226.482C358.179 225.043 357.574 224.129 356.365 223.754ZM350.718 220.12H353.407C354.247 220.12 354.835 220.236 355.171 220.478C355.508 220.719 355.676 221.093 355.676 221.6C355.676 222.041 355.499 222.39 355.138 222.64C354.777 222.889 354.272 223.014 353.625 223.014H350.718V220.12ZM355.44 227.597C355.029 227.854 354.356 227.979 353.441 227.979H350.718V224.852H353.575C354.457 224.852 355.096 224.977 355.482 225.218C355.869 225.459 356.062 225.842 356.062 226.366C356.062 226.931 355.852 227.339 355.44 227.597Z" fill="white"/>
<path d="M364.582 218.224L359.423 229.867H361.523L362.649 227.289H368.01L369.152 229.867H371.287L366.128 218.224H364.582ZM363.389 225.567L365.321 221.143L367.254 225.567H363.389Z" fill="white"/>
<path d="M375.924 222.864L372.681 218.224H370.161L374.883 224.827V229.875H376.916V224.827L381.671 218.224H379.235L375.924 222.864Z" fill="white"/>
<path d="M388.175 218.091C386.486 218.091 385.057 218.665 383.898 219.812C382.739 220.96 382.159 222.374 382.159 224.045C382.159 225.717 382.738 227.172 383.906 228.303C385.074 229.434 386.494 230 388.175 230C389.855 230 391.275 229.434 392.443 228.295C393.611 227.156 394.19 225.742 394.19 224.045C394.19 222.349 393.611 220.918 392.451 219.787C391.292 218.656 389.863 218.091 388.175 218.091ZM390.956 226.956C390.208 227.705 389.284 228.079 388.175 228.079C387.066 228.079 386.183 227.705 385.419 226.948C384.654 226.191 384.276 225.226 384.276 224.054C384.276 222.881 384.654 221.9 385.419 221.151C386.183 220.403 387.099 220.029 388.175 220.029C389.25 220.029 390.158 220.403 390.922 221.16C391.687 221.916 392.073 222.881 392.073 224.054C392.073 225.226 391.703 226.208 390.956 226.956Z" fill="white"/>
<path d="M404.575 226.199L398.089 218.224H396.509V229.875H398.492V221.933L404.979 229.875H406.558V218.224H404.575V226.199Z" fill="white"/>
<path d="M417.565 226.199L411.079 218.224H409.499V229.875H411.482V221.933L417.968 229.875H419.548V218.224H417.565V226.199Z" fill="white"/>
<path d="M424.522 227.979V224.885H430.79V223.056H424.522V220.12H431.227V218.224H422.489V229.875H431.395V227.979H424.522Z" fill="white"/>
<path d="M131.022 189.183V194.098C129.148 195.545 126.796 196.285 124.031 196.285C120.864 196.285 118.251 195.354 116.268 193.524C114.293 191.694 113.285 189.183 113.285 186.064C113.285 182.946 114.26 180.525 116.167 178.654C118.083 176.783 120.628 175.835 123.746 175.835C127.123 175.835 129.761 176.816 131.601 178.762L131.77 178.945L134.374 176.351L134.231 176.184C131.929 173.423 128.316 172.018 123.502 172.018C119.41 172.018 115.932 173.39 113.167 176.085C110.403 178.787 109 182.147 109 186.064C109 190.272 110.42 193.699 113.209 196.26C115.999 198.813 119.612 200.111 123.939 200.111C126.006 200.111 128.064 199.736 130.039 198.996C132.022 198.256 133.66 197.233 134.903 195.961L134.971 195.894V185.515H123.3V189.183H131.022Z" fill="white"/>
<path d="M159.261 187.594C159.261 190.297 158.606 192.443 157.32 193.981C156.043 195.503 154.153 196.285 151.716 196.285C149.279 196.285 147.355 195.503 145.793 193.948C144.238 192.401 143.448 190.198 143.448 187.403V172.35H139.331V187.902C139.331 191.753 140.524 194.772 142.885 196.892C145.238 199.005 148.212 200.069 151.716 200.069C154.9 200.069 157.673 199.063 159.942 197.067C162.219 195.063 163.378 192.06 163.378 188.135V172.35H159.261V187.594Z" fill="white"/>
<path d="M180.266 172.276H177.082L164.605 199.761H168.848L171.923 192.95H185.316L188.433 199.761H192.752L180.333 172.417L180.266 172.276ZM183.736 189.399H173.494L178.594 177.989L183.736 189.399Z" fill="white"/>
<path d="M220.117 199.761L211.102 188.443C213.026 187.994 214.605 187.087 215.807 185.757C217.092 184.334 217.748 182.621 217.748 180.675C217.748 175.153 214.026 172.359 206.682 172.359H195.734V199.77H199.851V189.224H206.766L215.076 199.77H220.125L220.117 199.761ZM199.843 176.101H206.556C211.261 176.101 213.547 177.598 213.547 180.675C213.547 182.147 212.958 183.287 211.749 184.16C210.53 185.033 208.867 185.482 206.8 185.482H199.851V176.109L199.843 176.101Z" fill="white"/>
<path d="M243.87 195.828C246.567 193.216 247.936 189.798 247.936 185.673C247.936 183.835 247.65 182.114 247.079 180.575C246.516 179.029 245.626 177.606 244.432 176.359C243.239 175.103 241.584 174.114 239.517 173.415C237.467 172.716 235.022 172.359 232.266 172.359H223.394V199.77H231.863C237.123 199.77 241.156 198.447 243.853 195.836L243.87 195.828ZM232.124 196.019H227.528V176.101H232.199C236.215 176.101 239.173 176.966 240.979 178.671C242.786 180.376 243.702 182.729 243.702 185.673C243.702 188.825 242.744 191.362 240.853 193.216C238.963 195.071 236.022 196.011 232.115 196.011L232.124 196.019Z" fill="white"/>
<path d="M256.565 172.35H252.448V199.761H256.565V172.35Z" fill="white"/>
<path d="M266.866 192.95H280.259L283.376 199.761H287.695L275.276 172.417L275.209 172.276H272.025L259.548 199.761H263.791L266.866 192.95ZM268.437 189.399L273.537 177.989L278.679 189.399H268.437Z" fill="white"/>
<path d="M294.677 179.644L311.456 199.761H314.648V172.35H310.649V192.551L293.904 172.35H290.677V199.761H294.677V179.644Z" fill="white"/>
</svg>
