<svg width="645" height="240" viewBox="0 0 645 240" fill="none" xmlns="http://www.w3.org/2000/svg">
<rect width="645" height="240" fill="#083045"/>
<path d="M99.3162 155C80.3982 155 65 139.522 65 120.496C65 101.469 80.3982 86 99.3162 86C118.234 86 133.606 101.478 133.606 120.496C133.606 139.513 118.225 154.991 99.3162 154.991V155ZM99.3162 89.3029C82.2061 89.3029 68.284 103.296 68.284 120.496C68.284 137.695 82.2061 151.697 99.3249 151.697C116.444 151.697 130.34 137.704 130.34 120.496C130.34 103.287 116.417 89.3029 99.3162 89.3029Z" fill="white"/>
<path d="M110.024 138.222L99.7267 132.881C99.5956 132.811 99.4559 132.776 99.3074 132.776C99.1677 132.776 99.0192 132.811 98.8882 132.881L88.5907 138.222C88.154 138.451 87.9706 138.978 88.1802 139.426C88.3811 139.874 88.9051 140.084 89.3593 139.9L98.9668 136.149C99.0716 136.105 99.1851 136.079 99.2987 136.079C99.4122 136.079 99.5258 136.105 99.6306 136.149L109.238 139.9C109.692 140.084 110.216 139.874 110.417 139.426C110.618 138.978 110.435 138.451 110.007 138.222H110.024Z" fill="#F9AA19"/>
<path d="M123.824 119.573L108.714 118.879C107.823 118.835 107.509 117.667 108.26 117.184L121.003 108.971C121.413 108.707 121.544 108.163 121.3 107.741C121.055 107.311 120.522 107.152 120.086 107.381L106.644 114.382C105.849 114.795 105.002 113.943 105.413 113.143L112.374 99.6155C112.601 99.1763 112.443 98.6405 112.024 98.3945H112.007C111.579 98.1398 111.037 98.2715 110.775 98.6844L102.618 111.509C102.137 112.265 100.976 111.949 100.932 111.053L100.224 95.8383C100.198 95.3464 99.7965 94.9599 99.3074 94.9599C98.8183 94.9599 98.4165 95.3464 98.3903 95.8383L97.6916 111.053C97.6479 111.949 96.4863 112.265 96.0059 111.509L87.8483 98.6844C87.5863 98.2715 87.0448 98.1398 86.6168 98.3857H86.6081C86.1889 98.6405 86.0316 99.1763 86.2587 99.6155L93.2198 113.134C93.6303 113.934 92.7831 114.786 91.9883 114.373L78.5465 107.372C78.1098 107.144 77.5771 107.302 77.3325 107.723C77.088 108.154 77.219 108.707 77.6295 108.971L90.3725 117.184C91.1236 117.667 90.8092 118.835 89.9183 118.879L74.7996 119.573C74.3105 119.6 73.9262 120.004 73.9262 120.496C73.9262 120.996 74.3105 121.4 74.7996 121.418L89.9183 122.121C90.8092 122.165 91.1236 123.333 90.3725 123.816L77.6295 132.02C77.219 132.284 77.088 132.829 77.3325 133.259C77.5771 133.698 78.1098 133.856 78.5465 133.628L98.8969 123.034C99.1589 122.894 99.4734 122.894 99.7354 123.034L120.086 133.628C120.522 133.856 121.055 133.698 121.3 133.268C121.544 132.837 121.405 132.293 120.994 132.029L108.251 123.825C107.5 123.342 107.814 122.173 108.705 122.129L123.815 121.427C124.304 121.4 124.689 120.996 124.689 120.504C124.689 120.004 124.304 119.6 123.815 119.582" fill="#F9AA19"/>
<path d="M387.436 106.599C388.737 105.097 389.401 103.287 389.401 101.232C389.401 95.3991 385.636 92.4476 378.204 92.4476H367.129V121.4H371.304V110.262H378.282L386.684 121.4H391.803L382.684 109.445C384.632 108.971 386.23 108.013 387.444 106.608L387.436 106.599ZM371.295 96.4005H378.073C382.824 96.4005 385.139 97.9817 385.139 101.232C385.139 102.787 384.545 103.99 383.322 104.912C382.09 105.835 380.405 106.309 378.317 106.309H371.295V96.4005Z" fill="#F9AA19"/>
<path d="M398.685 108.637H414.249V104.754H398.685V96.4005H415.376V92.4476H394.51V121.392H415.743V117.439H398.685V108.637Z" fill="#F9AA19"/>
<path d="M442.251 113.987C440.05 116.464 437.202 117.72 433.787 117.72C430.582 117.72 427.962 116.727 426.005 114.768C424.04 112.809 423.044 110.165 423.044 106.924C423.044 103.683 423.97 101.065 425.804 99.0885C427.63 97.1208 430.171 96.1194 433.342 96.1194C436.512 96.1194 439.316 97.2701 441.569 99.5453L441.744 99.7209L444.46 97.0769L444.329 96.9012C443.29 95.4957 441.779 94.3274 439.849 93.4314C437.927 92.5355 435.709 92.0875 433.255 92.0875C428.922 92.0875 425.376 93.5193 422.712 96.3302C420.049 99.1412 418.704 102.708 418.704 106.924C418.704 111.413 420.057 115.049 422.739 117.729C425.411 120.408 429.053 121.761 433.543 121.761C435.857 121.761 438.05 121.295 440.05 120.373C442.058 119.45 443.639 118.203 444.74 116.657L444.853 116.49L442.434 113.776L442.251 113.987Z" fill="#F9AA19"/>
<path d="M460.094 92.0787C456.007 92.0787 452.504 93.5193 449.692 96.3566C446.88 99.1939 445.456 102.751 445.456 106.915C445.456 111.079 446.88 114.742 449.692 117.535C452.504 120.337 455.998 121.752 460.094 121.752C464.191 121.752 467.641 120.32 470.453 117.491C473.265 114.663 474.689 111.105 474.689 106.906C474.689 102.708 473.265 99.0797 470.453 96.2863C467.641 93.4841 464.156 92.0699 460.094 92.0699V92.0787ZM460.094 117.72C457.264 117.72 454.819 116.683 452.819 114.645C450.819 112.607 449.797 110.007 449.797 106.915C449.797 103.823 450.81 101.197 452.793 99.1675C454.784 97.1384 457.238 96.1106 460.086 96.1106C462.933 96.1106 465.317 97.1384 467.326 99.1675C469.326 101.197 470.348 103.806 470.348 106.915C470.348 110.025 469.361 112.634 467.405 114.663C465.457 116.692 462.994 117.72 460.086 117.72H460.094Z" fill="#F9AA19"/>
<path d="M489.345 115.339L478.471 92.4476H473.964L487.711 121.251L487.781 121.392H490.76L503.922 92.4476H499.529L489.345 115.339Z" fill="#F9AA19"/>
<path d="M510.289 108.637H525.844V104.754H510.289V96.4005H526.971V92.4476H506.105V121.392H527.338V117.439H510.289V108.637Z" fill="#F9AA19"/>
<path d="M552.16 106.599C553.462 105.097 554.125 103.287 554.125 101.232C554.125 95.3991 550.361 92.4476 542.928 92.4476H531.853V121.4H536.028V110.262H543.007L551.409 121.4H556.527L547.409 109.445C549.357 108.971 550.955 108.013 552.169 106.608L552.16 106.599ZM536.02 96.4005H542.797C547.549 96.4005 549.863 97.9817 549.863 101.232C549.863 102.787 549.269 103.99 548.046 104.912C546.815 105.835 545.129 106.309 543.042 106.309H536.02V96.4005Z" fill="#F9AA19"/>
<path d="M576.126 92.4476L567.41 106.01L558.815 92.4476H553.741L565.218 110.446V121.392H569.392V110.446L581 92.4476H576.126Z" fill="#F9AA19"/>
<path d="M265.814 140.436H157.363V143.071H265.814V140.436Z" fill="#F9AA19"/>
<path d="M569.454 140.436H460.662V143.071H569.454V140.436Z" fill="#F9AA19"/>
<path d="M160.21 110.218H168.01V115.418C166.114 116.947 163.739 117.729 160.944 117.729C157.738 117.729 155.101 116.745 153.092 114.812C151.092 112.88 150.079 110.227 150.079 106.924C150.079 103.621 151.057 101.065 152.996 99.0973C154.935 97.1208 157.511 96.1282 160.656 96.1282C164.071 96.1282 166.734 97.1647 168.595 99.2202L168.778 99.4223L171.416 96.6728L171.276 96.4971C168.944 93.572 165.293 92.0962 160.411 92.0962C156.262 92.0962 152.742 93.5456 149.948 96.4005C147.153 99.2554 145.738 102.804 145.738 106.942C145.738 111.378 147.17 115.005 150 117.711C152.821 120.417 156.481 121.787 160.856 121.787C162.953 121.787 165.031 121.392 167.031 120.61C169.04 119.828 170.691 118.748 171.949 117.395L172.019 117.325V106.371H160.201V110.244L160.21 110.218Z" fill="white"/>
<path d="M195.967 108.549C195.967 111.404 195.304 113.67 194.002 115.304C192.71 116.912 190.806 117.729 188.334 117.729C185.862 117.729 183.923 116.903 182.351 115.269C180.779 113.635 179.975 111.307 179.975 108.356V92.4476H175.8V108.874C175.8 112.941 177.006 116.13 179.399 118.361C181.783 120.592 184.788 121.717 188.334 121.717C191.565 121.717 194.36 120.645 196.666 118.546C198.972 116.429 200.142 113.257 200.142 109.111V92.4476H195.967V108.549Z" fill="white"/>
<path d="M213.383 92.3598L200.762 121.392H205.068L208.178 114.197H221.715L224.868 121.392H229.253L216.693 92.5091L216.632 92.3598H213.383ZM220.117 110.446H209.767L214.92 98.4121L220.117 110.446Z" fill="white"/>
<path d="M251.961 106.599C253.263 105.097 253.918 103.287 253.918 101.232C253.918 95.3991 250.154 92.4476 242.721 92.4476H231.637V121.4H235.812V110.262H242.791L251.193 121.4H256.311L247.193 109.445C249.14 108.971 250.739 108.013 251.953 106.608L251.961 106.599ZM235.821 96.4005H242.599C247.35 96.4005 249.664 97.9817 249.664 101.232C249.664 102.787 249.07 103.99 247.848 104.912C246.616 105.835 244.939 106.309 242.843 106.309H235.821V96.4005Z" fill="white"/>
<path d="M283.858 106.511C283.858 104.57 283.57 102.751 282.994 101.126C282.417 99.4926 281.518 97.9905 280.312 96.6728C279.107 95.3464 277.43 94.3011 275.343 93.5544C273.264 92.8165 270.801 92.4388 268.006 92.4388H259.027V121.392H267.604C272.932 121.392 277.011 119.995 279.745 117.237C282.47 114.478 283.858 110.868 283.858 106.511ZM267.849 117.439H263.211V96.4005H267.927C271.989 96.4005 274.976 97.3141 276.801 99.1148C278.627 100.916 279.552 103.402 279.552 106.511C279.552 109.84 278.583 112.52 276.67 114.487C274.766 116.446 271.788 117.439 267.84 117.439H267.849Z" fill="white"/>
<path d="M291.981 92.4476H287.806V121.4H291.981V92.4476Z" fill="white"/>
<path d="M301.798 114.206H315.327L318.48 121.4H322.865L310.305 92.5179L310.244 92.3686H307.004L294.383 121.4H298.689L301.798 114.206ZM303.388 110.446L308.541 98.4121L313.738 110.446H303.388Z" fill="white"/>
<path d="M329.31 100.16L346.281 121.392H349.521V92.4476H345.46V113.758L328.542 92.4476H325.258V121.392H329.31V100.16Z" fill="white"/>
<path d="M287.937 137.203C287.579 136.79 287.055 136.474 286.365 136.246C285.675 136.017 284.828 135.903 283.841 135.903H278.897V148.201H281.011V143.985H283.823C284.74 143.985 285.544 143.87 286.225 143.642C286.906 143.414 287.439 143.106 287.815 142.711C288.19 142.316 288.47 141.894 288.653 141.428C288.837 140.963 288.924 140.471 288.924 139.944C288.924 139.417 288.845 138.916 288.697 138.477C288.548 138.038 288.295 137.616 287.937 137.203ZM283.788 141.999H281.011V137.888H283.911C285.789 137.888 286.723 138.565 286.723 139.926C286.723 141.288 285.745 141.999 283.788 141.999Z" fill="white"/>
<path d="M293.466 135.903H291.352V148.201H300.401V146.198H293.466V135.903Z" fill="white"/>
<path d="M305.431 140.805L302.06 135.903H299.44L304.348 142.878V148.201H306.462V142.878L311.406 135.903H308.873L305.431 140.805Z" fill="white"/>
<path d="M319.354 141.613L314.987 135.903H313.117V148.201H315.231V139.663L319.039 144.564H319.581L323.301 139.68V148.201H325.415V135.903H323.563L319.354 141.613Z" fill="white"/>
<path d="M334.079 135.763C332.324 135.763 330.839 136.369 329.634 137.581C328.428 138.793 327.826 140.286 327.826 142.052C327.826 143.818 328.428 145.355 329.642 146.55C330.856 147.744 332.332 148.342 334.079 148.342C335.826 148.342 337.302 147.744 338.516 146.541C339.73 145.337 340.333 143.844 340.333 142.052C340.333 140.26 339.73 138.749 338.525 137.555C337.32 136.36 335.835 135.763 334.079 135.763ZM336.97 145.118C336.193 145.908 335.232 146.304 334.079 146.304C332.926 146.304 332.009 145.908 331.214 145.109C330.42 144.31 330.027 143.291 330.027 142.052C330.027 140.813 330.42 139.777 331.214 138.986C332.009 138.196 332.961 137.801 334.079 137.801C335.197 137.801 336.14 138.196 336.935 138.995C337.73 139.795 338.132 140.813 338.132 142.052C338.132 143.291 337.748 144.327 336.97 145.118Z" fill="white"/>
<path d="M350.971 142.667C350.971 143.783 350.718 144.67 350.22 145.337C349.722 146.005 348.979 146.339 348.001 146.339C347.023 146.339 346.246 145.996 345.643 145.311C345.04 144.626 344.735 143.721 344.735 142.597V135.903H342.621V142.86C342.621 144.591 343.136 145.935 344.167 146.892C345.198 147.85 346.473 148.324 348.001 148.324C348.665 148.324 349.285 148.219 349.87 148.017C350.456 147.815 350.988 147.507 351.486 147.094C351.984 146.681 352.368 146.128 352.657 145.416C352.945 144.705 353.085 143.888 353.085 142.966V135.903H350.971V142.667Z" fill="white"/>
<path d="M354.831 137.906H358.936V148.201H361.05V137.906H365.155V135.903H354.831V137.906Z" fill="white"/>
<path d="M375.531 140.98H369.12V135.903H367.007V148.201H369.12V142.983H375.531V148.201H377.645V135.903H375.531V140.98Z" fill="white"/>
<path d="M393.96 140.98H387.549V135.903H385.436V148.201H387.549V142.983H393.96V148.201H396.074V135.903H393.96V140.98Z" fill="white"/>
<path d="M404.738 135.763C402.982 135.763 401.497 136.369 400.292 137.581C399.087 138.793 398.484 140.286 398.484 142.052C398.484 143.818 399.087 145.355 400.301 146.55C401.515 147.744 402.991 148.342 404.738 148.342C406.485 148.342 407.961 147.744 409.175 146.541C410.389 145.337 410.991 143.844 410.991 142.052C410.991 140.26 410.389 138.749 409.183 137.555C407.978 136.36 406.493 135.763 404.738 135.763ZM407.629 145.118C406.851 145.908 405.891 146.304 404.738 146.304C403.585 146.304 402.668 145.908 401.873 145.109C401.078 144.31 400.685 143.291 400.685 142.052C400.685 140.813 401.078 139.777 401.873 138.986C402.668 138.196 403.62 137.801 404.738 137.801C405.856 137.801 406.799 138.196 407.594 138.995C408.389 139.795 408.79 140.813 408.79 142.052C408.79 143.291 408.406 144.327 407.629 145.118Z" fill="white"/>
<path d="M421.629 142.667C421.629 143.783 421.376 144.67 420.878 145.337C420.38 146.005 419.638 146.339 418.66 146.339C417.682 146.339 416.904 145.996 416.302 145.311C415.699 144.626 415.393 143.721 415.393 142.597V135.903H413.28V142.86C413.28 144.591 413.795 145.935 414.826 146.892C415.856 147.85 417.131 148.324 418.66 148.324C419.324 148.324 419.944 148.219 420.529 148.017C421.114 147.815 421.647 147.507 422.145 147.094C422.643 146.681 423.027 146.128 423.315 145.416C423.603 144.705 423.743 143.888 423.743 142.966V135.903H421.629V142.667Z" fill="white"/>
<path d="M434.014 141.815C433.455 141.586 432.853 141.376 432.198 141.182C431.543 140.989 430.94 140.831 430.381 140.708C429.822 140.585 429.359 140.401 428.984 140.146C428.608 139.891 428.425 139.575 428.425 139.188C428.425 138.705 428.669 138.345 429.158 138.108C429.647 137.871 430.25 137.748 430.975 137.748C432.372 137.748 433.586 138.178 434.608 139.03L435.761 137.519C434.617 136.351 433.045 135.763 431.027 135.763C429.639 135.763 428.494 136.096 427.595 136.773C426.695 137.449 426.241 138.266 426.241 139.241C426.241 139.847 426.381 140.374 426.66 140.813C426.94 141.253 427.298 141.595 427.743 141.841C428.189 142.087 428.678 142.298 429.211 142.465C429.743 142.632 430.285 142.781 430.818 142.904C431.35 143.027 431.84 143.159 432.285 143.308C432.73 143.458 433.089 143.66 433.368 143.914C433.648 144.169 433.787 144.485 433.787 144.863C433.787 145.329 433.586 145.698 433.176 145.961C432.765 146.225 432.198 146.356 431.464 146.356C429.691 146.356 428.259 145.768 427.149 144.599L425.892 146.093C426.424 146.734 427.193 147.27 428.18 147.7C429.167 148.131 430.198 148.342 431.272 148.342C432.591 148.342 433.7 147.999 434.608 147.323C435.517 146.646 435.971 145.768 435.971 144.705C435.971 144.002 435.787 143.405 435.412 142.904C435.036 142.403 434.573 142.043 434.014 141.815Z" fill="white"/>
<path d="M440.443 146.198V142.93H446.958V140.998H440.443V137.906H447.412V135.903H438.329V148.201H447.587V146.198H440.443Z" fill="white"/>
</svg>
