<svg width="645" height="300" viewBox="0 0 645 300" fill="none" xmlns="http://www.w3.org/2000/svg">
<rect width="645" height="300" fill="white"/>
<path d="M153.304 222.693H119.864V225.193H153.304V222.693Z" fill="#F9AA19"/>
<path d="M525.842 222.693H495.284V225.193H525.842V222.693Z" fill="#F9AA19"/>
<path d="M322.202 148.5C300.365 148.5 282.603 130.896 282.603 109.25C282.603 87.6047 300.365 70 322.202 70C344.039 70 361.775 87.6047 361.775 109.25C361.775 130.896 344.022 148.5 322.202 148.5ZM322.202 73.1327C302.104 73.1327 285.762 89.3376 285.762 109.25C285.762 129.163 302.113 145.368 322.202 145.368C342.291 145.368 358.616 129.163 358.616 109.25C358.616 89.3376 342.274 73.1327 322.202 73.1327Z" fill="#044860"/>
<path d="M334.654 129.579L322.681 123.447C322.529 123.372 322.361 123.331 322.193 123.331C322.025 123.331 321.857 123.372 321.706 123.447L309.733 129.579C309.229 129.838 309.019 130.446 309.254 130.962C309.49 131.479 310.094 131.72 310.624 131.504L321.807 127.205C321.933 127.155 322.067 127.13 322.202 127.13C322.336 127.13 322.471 127.155 322.597 127.205L333.78 131.504C334.309 131.72 334.914 131.479 335.149 130.962C335.385 130.446 335.175 129.838 334.67 129.579H334.654Z" fill="#F9AA19"/>
<path d="M350.71 108.184L333.133 107.392C332.091 107.342 331.73 106.001 332.604 105.451L347.433 96.0279C347.912 95.728 348.063 95.1031 347.786 94.6115C347.5 94.12 346.879 93.9367 346.374 94.195L330.73 102.218C329.806 102.693 328.814 101.71 329.293 100.794L337.393 85.2802C337.653 84.7803 337.477 84.1637 336.981 83.8804H336.964C336.468 83.5888 335.838 83.7388 335.536 84.2137L326.042 98.9273C325.479 99.7938 324.126 99.4355 324.084 98.4107L323.269 80.9561C323.244 80.3895 322.773 79.9479 322.202 79.9479H322.193C321.622 79.9479 321.152 80.3895 321.126 80.9561L320.32 98.4024C320.269 99.4355 318.917 99.7938 318.362 98.919L308.868 84.2054C308.557 83.7305 307.927 83.5805 307.439 83.8638H307.423C306.935 84.1554 306.75 84.7719 307.011 85.2718L315.119 100.785C315.598 101.702 314.606 102.685 313.682 102.21L298.046 94.1783C297.542 93.92 296.92 94.095 296.634 94.5865C296.349 95.0864 296.5 95.7113 296.979 96.0196L311.808 105.443C312.682 106.001 312.321 107.342 311.279 107.384L293.694 108.175C293.122 108.2 292.677 108.667 292.677 109.233C292.677 109.808 293.122 110.267 293.694 110.3L311.279 111.1C312.321 111.15 312.682 112.491 311.8 113.041L296.97 122.456C296.492 122.764 296.34 123.389 296.626 123.872V123.889C296.92 124.372 297.542 124.555 298.046 124.297L321.723 112.141C322.034 111.983 322.395 111.983 322.706 112.141L346.383 124.297C346.887 124.555 347.517 124.372 347.794 123.88C348.072 123.389 347.92 122.764 347.442 122.464L332.612 113.049C331.738 112.491 332.099 111.15 333.141 111.108L350.718 110.308C351.29 110.283 351.735 109.817 351.735 109.25C351.735 108.675 351.29 108.217 350.718 108.184H350.71Z" fill="#F9AA19"/>
<path d="M350.794 185.968C352.046 184.543 352.684 182.826 352.684 180.877C352.684 175.345 349.063 172.545 341.913 172.545H331.251V200.006H335.267V189.442H341.98L350.063 200.006H354.987L346.215 188.667C348.089 188.217 349.626 187.309 350.794 185.976V185.968ZM335.267 176.295H341.787C346.358 176.295 348.584 177.794 348.584 180.877C348.584 182.352 348.013 183.493 346.837 184.368C345.652 185.243 344.039 185.693 342.022 185.693H335.267V176.295Z" fill="#F9AA19"/>
<path d="M361.624 187.9H376.588V184.218H361.624V176.295H377.672V172.545H357.6V199.998H378.025V196.249H361.624V187.9Z" fill="#F9AA19"/>
<path d="M403.534 192.974C401.416 195.324 398.677 196.515 395.392 196.515C392.308 196.515 389.788 195.574 387.906 193.716C386.015 191.858 385.057 189.35 385.057 186.276C385.057 183.201 385.948 180.719 387.713 178.844C389.469 176.978 391.905 176.028 394.963 176.028C398.022 176.028 400.71 177.119 402.878 179.269L403.046 179.436L405.659 176.928L405.533 176.761C404.525 175.428 403.08 174.32 401.223 173.47C399.375 172.62 397.24 172.195 394.879 172.195C390.712 172.195 387.301 173.553 384.738 176.22C382.176 178.886 380.882 182.268 380.882 186.267C380.882 190.525 382.184 193.974 384.763 196.515C387.334 199.056 390.838 200.34 395.157 200.34C397.383 200.34 399.492 199.898 401.416 199.023C403.349 198.148 404.87 196.965 405.928 195.499L406.037 195.341L403.71 192.766L403.534 192.966V192.974Z" fill="#F9AA19"/>
<path d="M420.691 172.195C416.758 172.195 413.389 173.562 410.684 176.253C407.978 178.944 406.609 182.318 406.609 186.267C406.609 190.217 407.978 193.691 410.684 196.34C413.389 198.998 416.75 200.34 420.691 200.34C424.631 200.34 427.95 198.981 430.655 196.299C433.361 193.616 434.73 190.242 434.73 186.259C434.73 182.277 433.361 178.836 430.655 176.186C427.95 173.528 424.597 172.187 420.691 172.187V172.195ZM420.691 196.515C417.968 196.515 415.616 195.532 413.692 193.599C411.768 191.666 410.785 189.2 410.785 186.267C410.785 183.335 411.759 180.844 413.666 178.919C415.582 176.994 417.943 176.02 420.691 176.02C423.438 176.02 425.723 176.994 427.656 178.919C429.58 180.844 430.563 183.318 430.563 186.267C430.563 189.217 429.613 191.691 427.731 193.616C425.858 195.541 423.488 196.515 420.691 196.515Z" fill="#F9AA19"/>
<path d="M448.829 194.257L438.436 172.679L438.377 172.545H434.033L447.258 199.865L447.325 199.998H450.19L462.701 172.879L462.852 172.545H458.626L448.829 194.257Z" fill="#F9AA19"/>
<path d="M468.977 187.9H483.941V184.218H468.977V176.295H485.025V172.545H464.952V199.998H485.378V196.249H468.977V187.9Z" fill="#F9AA19"/>
<path d="M509.265 185.968C510.517 184.543 511.155 182.826 511.155 180.877C511.155 175.345 507.534 172.545 500.384 172.545H489.73V200.006H493.746V189.442H500.46L508.475 199.906L508.542 199.998H513.466L504.694 188.659C506.568 188.209 508.105 187.301 509.273 185.968H509.265ZM493.729 176.295H500.249C504.82 176.295 507.047 177.794 507.047 180.877C507.047 182.352 506.475 183.493 505.299 184.368C504.114 185.243 502.493 185.693 500.485 185.693H493.729V176.295Z" fill="#F9AA19"/>
<path d="M532.312 172.545L523.926 185.409L515.734 172.654L515.667 172.545H510.777L521.818 189.617V199.998H525.842V189.617L537 172.545H532.312Z" fill="#F9AA19"/>
<path d="M174.326 226.951L170.184 218.202H167.982L173.586 229.867H175.032L180.342 218.202H178.191L174.326 226.951Z" fill="#044860"/>
<path d="M184.03 218.202H181.997V229.867H184.03V218.202Z" fill="#044860"/>
<path d="M195.533 223.951C196.003 223.343 196.238 222.635 196.238 221.835C196.238 221.335 196.163 220.877 196.02 220.469C195.877 220.06 195.633 219.677 195.306 219.327C194.978 218.977 194.499 218.702 193.869 218.502C193.239 218.302 192.483 218.202 191.6 218.202H186.979V229.867H189.013V225.584H191.5L194.709 229.867H197.179L193.651 225.201C194.432 224.976 195.062 224.559 195.533 223.951ZM191.651 223.685H189.013V220.102H191.55C192.491 220.102 193.155 220.252 193.541 220.552C193.928 220.852 194.121 221.277 194.121 221.835C194.121 222.393 193.903 222.868 193.466 223.193C193.029 223.518 192.424 223.685 191.651 223.685Z" fill="#044860"/>
<path d="M197.087 220.102H201.036V229.867H203.078V220.102H207.027V218.202H197.087V220.102Z" fill="#044860"/>
<path d="M216.723 224.618C216.723 225.676 216.479 226.517 216 227.151C215.521 227.784 214.807 228.1 213.866 228.1C212.925 228.1 212.177 227.775 211.597 227.126C211.018 226.476 210.724 225.618 210.724 224.551V218.202H208.69V224.801C208.69 226.442 209.186 227.717 210.177 228.625C211.169 229.533 212.396 229.983 213.866 229.983C214.504 229.983 215.101 229.883 215.664 229.692C216.227 229.5 216.739 229.208 217.218 228.817C217.697 228.425 218.067 227.9 218.344 227.226C218.621 226.551 218.756 225.776 218.756 224.901V218.202H216.723V224.618Z" fill="#044860"/>
<path d="M225.553 218.202L220.394 229.867H222.495L223.621 227.284H228.981L230.124 229.867H232.258L227.099 218.202H225.553ZM224.36 225.551L226.292 221.119L228.225 225.551H224.36Z" fill="#044860"/>
<path d="M236.039 218.202H234.006V229.867H242.718V227.967H236.039V218.202Z" fill="#044860"/>
<path d="M254.187 228.067C252.977 228.067 251.994 227.7 251.238 226.959C250.482 226.217 250.104 225.243 250.104 224.035C250.104 222.827 250.465 221.835 251.196 221.102C251.927 220.369 252.893 220.002 254.103 220.002C255.406 220.002 256.464 220.452 257.279 221.352L258.624 220.085C258.212 219.486 257.59 219.002 256.775 218.627C255.96 218.252 255.036 218.069 254.002 218.069C252.213 218.069 250.759 218.636 249.65 219.777C248.541 220.919 247.987 222.335 247.987 224.035C247.987 225.843 248.533 227.292 249.625 228.375C250.717 229.458 252.188 230 254.036 230C255.044 230 255.969 229.808 256.817 229.425C257.666 229.042 258.329 228.509 258.808 227.834L257.615 226.534C256.75 227.559 255.607 228.067 254.187 228.067Z" fill="#044860"/>
<path d="M265.782 218.069C264.093 218.069 262.665 218.644 261.505 219.794C260.346 220.944 259.766 222.36 259.766 224.035C259.766 225.709 260.346 227.167 261.514 228.3C262.682 229.433 264.102 230 265.782 230C267.462 230 268.882 229.433 270.05 228.292C271.218 227.151 271.798 225.734 271.798 224.035C271.798 222.335 271.218 220.902 270.059 219.769C268.899 218.636 267.471 218.069 265.782 218.069ZM268.572 226.942C267.824 227.692 266.9 228.067 265.79 228.067C264.681 228.067 263.799 227.692 263.035 226.934C262.27 226.176 261.892 225.209 261.892 224.035C261.892 222.86 262.27 221.877 263.035 221.127C263.799 220.377 264.715 220.002 265.79 220.002C266.866 220.002 267.773 220.377 268.538 221.135C269.303 221.893 269.689 222.86 269.689 224.035C269.689 225.209 269.319 226.192 268.572 226.942Z" fill="#044860"/>
<path d="M282.04 224.618C282.04 225.676 281.796 226.517 281.317 227.151C280.839 227.784 280.124 228.1 279.183 228.1C278.242 228.1 277.495 227.775 276.915 227.126C276.335 226.476 276.041 225.618 276.041 224.551V218.202H274.008V224.801C274.008 226.442 274.503 227.717 275.495 228.625C276.486 229.533 277.713 229.983 279.183 229.983C279.822 229.983 280.418 229.883 280.981 229.692C281.544 229.5 282.057 229.208 282.536 228.817C283.015 228.425 283.384 227.9 283.662 227.226C283.939 226.551 284.073 225.776 284.073 224.901V218.202H282.04V224.618Z" fill="#044860"/>
<path d="M294.971 226.184L288.484 218.202H286.905V229.867H288.888V221.918L295.382 229.867H296.962V218.202H294.971V226.184Z" fill="#044860"/>
<path d="M306.944 223.81C306.406 223.593 305.826 223.393 305.196 223.21C304.566 223.026 303.986 222.876 303.448 222.76C302.911 222.643 302.465 222.468 302.104 222.227C301.743 221.985 301.566 221.685 301.566 221.318C301.566 220.86 301.802 220.519 302.272 220.294C302.743 220.069 303.322 219.952 304.02 219.952C305.364 219.952 306.532 220.36 307.515 221.169L308.624 219.735C307.523 218.627 306.011 218.069 304.07 218.069C302.734 218.069 301.634 218.386 300.768 219.027C299.903 219.669 299.466 220.444 299.466 221.368C299.466 221.943 299.6 222.443 299.869 222.86C300.138 223.276 300.483 223.601 300.911 223.835C301.34 224.068 301.81 224.268 302.323 224.426C302.835 224.584 303.356 224.726 303.869 224.843C304.381 224.959 304.852 225.084 305.28 225.226C305.709 225.368 306.053 225.559 306.322 225.801C306.591 226.042 306.725 226.342 306.725 226.701C306.725 227.142 306.532 227.492 306.137 227.742C305.742 227.992 305.196 228.117 304.49 228.117C302.785 228.117 301.407 227.559 300.34 226.451L299.13 227.867C299.642 228.475 300.382 228.984 301.331 229.392C302.281 229.8 303.272 230 304.305 230C305.574 230 306.641 229.675 307.515 229.034C308.389 228.392 308.826 227.559 308.826 226.551C308.826 225.884 308.649 225.318 308.288 224.843C307.927 224.368 307.481 224.026 306.944 223.81Z" fill="#044860"/>
<path d="M313.119 224.868H319.387V223.035H313.119V220.102H319.832V218.202H311.086V229.867H320V227.967H313.119V224.868Z" fill="#044860"/>
<path d="M324.546 218.202H322.513V229.867H331.226V227.967H324.546V218.202Z" fill="#044860"/>
<path d="M335.183 218.202H333.15V229.867H335.183V218.202Z" fill="#044860"/>
<path d="M346.19 226.184L339.703 218.202H338.124V229.867H340.107V221.918L346.593 229.867H348.181V218.202H346.19V226.184Z" fill="#044860"/>
<path d="M356.322 225.468H359.448V227.251C358.742 227.792 357.86 228.067 356.793 228.067C355.55 228.067 354.541 227.709 353.768 226.992C352.995 226.276 352.609 225.293 352.609 224.035C352.609 222.777 352.978 221.818 353.709 221.094C354.44 220.369 355.423 220.002 356.642 220.002C357.986 220.002 359.028 220.41 359.767 221.235L361.128 219.952C360.692 219.361 360.07 218.902 359.255 218.569C358.44 218.236 357.541 218.069 356.541 218.069C354.793 218.069 353.348 218.644 352.206 219.785C351.063 220.927 350.491 222.343 350.491 224.035C350.491 225.826 351.08 227.267 352.247 228.359C353.415 229.45 354.919 230 356.759 230C357.667 230 358.532 229.842 359.356 229.517C360.179 229.192 360.86 228.742 361.397 228.15V223.635H356.322V225.468Z" fill="#044860"/>
<path d="M376.336 226.184L369.85 218.202H368.27V229.867H370.253V221.918L376.739 229.867H378.327V218.202H376.336V226.184Z" fill="#044860"/>
<path d="M383.293 224.868H389.561V223.035H383.293V220.102H389.998V218.202H381.26V229.867H390.166V227.967H383.293V224.868Z" fill="#044860"/>
<path d="M403.34 226.234L400.551 218.202H398.887L396.148 226.267L393.644 218.202H391.527L395.19 229.867H396.904L399.694 221.752L402.567 229.867H404.273L407.751 218.202H405.735L403.34 226.234Z" fill="#044860"/>
<path d="M417.909 225.868C417.909 226.701 417.775 227.284 417.515 227.609C417.254 227.934 416.826 228.109 416.246 228.117C415.506 228.117 414.86 227.642 414.297 226.701L412.784 227.834C413.095 228.459 413.557 228.975 414.154 229.383C414.75 229.792 415.506 230 416.414 230C417.489 230 418.346 229.675 418.985 229.025C419.623 228.375 419.943 227.451 419.943 226.251V218.202H417.909V225.868Z" fill="#044860"/>
<path d="M424.866 224.868H431.134V223.035H424.866V220.102H431.571V218.202H422.833V229.867H431.739V227.967H424.866V224.868Z" fill="#044860"/>
<path d="M442.813 223.951C443.284 223.343 443.519 222.635 443.519 221.835C443.519 221.335 443.443 220.877 443.3 220.469C443.158 220.06 442.914 219.677 442.586 219.327C442.259 218.977 441.78 218.702 441.15 218.502C440.519 218.302 439.763 218.202 438.881 218.202H434.26V229.867H436.293V225.584H438.78L441.99 229.867H444.46L440.931 225.201C441.712 224.976 442.343 224.559 442.813 223.951ZM438.931 223.685H436.293V220.102H438.831C439.772 220.102 440.435 220.252 440.822 220.552C441.208 220.852 441.402 221.277 441.402 221.835C441.402 222.393 441.183 222.868 440.746 223.193C440.309 223.518 439.704 223.685 438.931 223.685Z" fill="#044860"/>
<path d="M453.366 223.81C452.828 223.593 452.249 223.393 451.618 223.21C450.988 223.026 450.409 222.876 449.871 222.76C449.333 222.643 448.888 222.468 448.526 222.227C448.165 221.985 447.989 221.685 447.989 221.318C447.989 220.86 448.224 220.519 448.695 220.294C449.165 220.069 449.745 219.952 450.442 219.952C451.786 219.952 452.954 220.36 453.937 221.169L455.046 219.735C453.946 218.627 452.433 218.069 450.493 218.069C449.157 218.069 448.056 218.386 447.191 219.027C446.325 219.669 445.888 220.444 445.888 221.368C445.888 221.943 446.023 222.443 446.292 222.86C446.56 223.276 446.905 223.601 447.333 223.835C447.762 224.068 448.232 224.268 448.745 224.426C449.257 224.584 449.778 224.726 450.291 224.843C450.803 224.959 451.274 225.084 451.702 225.226C452.131 225.368 452.475 225.559 452.744 225.801C453.013 226.042 453.148 226.342 453.148 226.701C453.148 227.142 452.954 227.492 452.559 227.742C452.165 227.992 451.618 228.117 450.913 228.117C449.207 228.117 447.829 227.559 446.762 226.451L445.552 227.867C446.065 228.475 446.804 228.984 447.754 229.392C448.703 229.8 449.694 230 450.728 230C451.997 230 453.064 229.675 453.937 229.034C454.811 228.392 455.248 227.559 455.248 226.551C455.248 225.884 455.072 225.318 454.71 224.843C454.349 224.368 453.904 224.026 453.366 223.81Z" fill="#044860"/>
<path d="M459.55 224.868H465.818V223.035H459.55V220.102H466.255V218.202H457.517V229.867H466.423V227.967H459.55V224.868Z" fill="#044860"/>
<path d="M476.724 218.202L473.413 222.852L470.17 218.202H467.65L472.371 224.818V229.867H474.405V224.818L479.16 218.202H476.724Z" fill="#044860"/>
<path d="M131.022 189.4V194.324C129.148 195.774 126.796 196.515 124.031 196.515C120.864 196.515 118.251 195.582 116.268 193.749C114.293 191.916 113.285 189.4 113.285 186.276C113.285 183.151 114.26 180.727 116.167 178.852C118.083 176.978 120.628 176.028 123.746 176.028C127.123 176.028 129.761 177.011 131.601 178.961L131.77 179.144L134.374 176.544L134.231 176.378C131.929 173.612 128.316 172.204 123.502 172.204C119.41 172.204 115.932 173.578 113.167 176.278C110.403 178.986 109 182.352 109 186.276C109 190.492 110.42 193.924 113.209 196.49C115.999 199.048 119.612 200.348 123.939 200.348C126.006 200.348 128.064 199.973 130.039 199.231C132.022 198.49 133.66 197.465 134.903 196.19L134.971 196.124V185.726H123.3V189.4H131.022Z" fill="#044860"/>
<path d="M159.261 187.817C159.261 190.525 158.606 192.674 157.32 194.216C156.043 195.74 154.153 196.524 151.716 196.524C149.279 196.524 147.355 195.74 145.793 194.182C144.238 192.633 143.448 190.425 143.448 187.625V172.545H139.331V188.125C139.331 191.983 140.524 195.007 142.885 197.132C145.238 199.248 148.204 200.315 151.716 200.315C154.909 200.315 157.673 199.306 159.942 197.307C162.219 195.307 163.378 192.291 163.378 188.359V172.545H159.261V187.817Z" fill="#044860"/>
<path d="M192.752 199.998L180.333 172.604L180.266 172.462H177.082L164.605 199.998H168.848L171.923 193.174H185.316L188.433 199.998H192.752ZM173.494 189.617L178.603 178.186L183.745 189.617H173.494Z" fill="#044860"/>
<path d="M215.807 185.968C217.092 184.543 217.748 182.826 217.748 180.877C217.748 175.345 214.026 172.545 206.682 172.545H195.734V200.006H199.851V189.442H206.766L215.076 200.006H220.125L211.11 188.667C213.034 188.217 214.614 187.309 215.815 185.976L215.807 185.968ZM199.843 176.295H206.556C211.261 176.295 213.547 177.794 213.547 180.877C213.547 182.352 212.958 183.493 211.749 184.368C210.53 185.243 208.867 185.693 206.8 185.693H199.851V176.303L199.843 176.295Z" fill="#044860"/>
<path d="M244.441 176.553C243.248 175.295 241.593 174.303 239.534 173.603C237.484 172.904 235.039 172.545 232.283 172.545H223.411V200.006H231.88C237.14 200.006 241.173 198.682 243.87 196.065C246.567 193.449 247.936 190.025 247.936 185.893C247.936 184.051 247.65 182.327 247.079 180.785C246.516 179.236 245.617 177.811 244.432 176.561L244.441 176.553ZM232.124 196.249H227.528V176.295H232.199C236.215 176.295 239.173 177.161 240.979 178.869C242.786 180.577 243.702 182.935 243.702 185.884C243.702 189.042 242.744 191.583 240.853 193.441C238.963 195.299 236.022 196.24 232.115 196.24L232.124 196.249Z" fill="#044860"/>
<path d="M256.565 172.545H252.448V200.006H256.565V172.545Z" fill="#044860"/>
<path d="M266.866 193.183H280.259L283.376 200.006H287.695L275.276 172.612L275.209 172.47H272.025L259.548 200.006H263.791L266.866 193.183ZM268.437 189.617L273.546 178.186L278.688 189.617H268.437Z" fill="#044860"/>
<path d="M294.677 179.844L311.456 199.998H314.648V172.545H310.649V192.774L293.904 172.545H290.677V199.998H294.677V179.844Z" fill="#044860"/>
</svg>
