<svg width="645" height="300" viewBox="0 0 645 300" fill="none" xmlns="http://www.w3.org/2000/svg">
<rect width="645" height="300" fill="#083045"/>
<path d="M160.16 222.46H119.864V224.959H160.16V222.46Z" fill="#F9AA19"/>
<path d="M525.842 222.46H486.949V224.959H525.842V222.46Z" fill="#F9AA19"/>
<path d="M322.202 148.5C300.365 148.5 282.603 130.896 282.603 109.25C282.603 87.6047 300.365 70 322.202 70C344.039 70 361.775 87.6047 361.775 109.25C361.775 130.896 344.022 148.5 322.202 148.5ZM322.202 73.1327C302.104 73.1327 285.762 89.3376 285.762 109.25C285.762 129.163 302.113 145.368 322.202 145.368C342.291 145.368 358.616 129.163 358.616 109.25C358.616 89.3376 342.274 73.1327 322.202 73.1327Z" fill="white"/>
<path d="M334.654 129.579L322.681 123.447C322.529 123.372 322.361 123.331 322.193 123.331C322.025 123.331 321.857 123.372 321.706 123.447L309.733 129.579C309.229 129.838 309.019 130.446 309.254 130.962C309.49 131.479 310.094 131.72 310.624 131.504L321.807 127.205C321.933 127.155 322.067 127.13 322.202 127.13C322.336 127.13 322.471 127.155 322.597 127.205L333.78 131.504C334.309 131.72 334.914 131.479 335.149 130.962C335.385 130.446 335.175 129.838 334.67 129.579H334.654Z" fill="#F9AA19"/>
<path d="M350.71 108.184L333.133 107.392C332.091 107.342 331.73 106.001 332.604 105.451L347.433 96.0279C347.912 95.728 348.063 95.1031 347.786 94.6115C347.5 94.12 346.879 93.9367 346.374 94.195L330.73 102.218C329.806 102.693 328.814 101.71 329.293 100.794L337.393 85.2802C337.653 84.7803 337.477 84.1637 336.981 83.8804H336.964C336.468 83.5888 335.838 83.7388 335.536 84.2137L326.042 98.9273C325.479 99.7938 324.126 99.4355 324.084 98.4107L323.269 80.9561C323.244 80.3895 322.773 79.9479 322.202 79.9479H322.193C321.622 79.9479 321.152 80.3895 321.126 80.9561L320.32 98.4024C320.269 99.4355 318.917 99.7938 318.362 98.919L308.868 84.2054C308.557 83.7305 307.927 83.5805 307.439 83.8638H307.423C306.935 84.1554 306.75 84.7719 307.011 85.2718L315.119 100.785C315.598 101.702 314.606 102.685 313.682 102.21L298.046 94.1783C297.542 93.92 296.92 94.095 296.634 94.5865C296.349 95.0864 296.5 95.7113 296.979 96.0196L311.808 105.443C312.682 106.001 312.321 107.342 311.279 107.384L293.694 108.175C293.122 108.2 292.677 108.667 292.677 109.233C292.677 109.808 293.122 110.267 293.694 110.3L311.279 111.1C312.321 111.15 312.682 112.491 311.8 113.041L296.97 122.456C296.492 122.764 296.34 123.389 296.626 123.872V123.889C296.92 124.372 297.542 124.555 298.046 124.297L321.723 112.141C322.034 111.983 322.395 111.983 322.706 112.141L346.383 124.297C346.887 124.555 347.517 124.372 347.794 123.88C348.072 123.389 347.92 122.764 347.442 122.464L332.612 113.049C331.738 112.491 332.099 111.15 333.141 111.108L350.718 110.308C351.29 110.283 351.735 109.817 351.735 109.25C351.735 108.675 351.29 108.217 350.718 108.184H350.71Z" fill="#F9AA19"/>
<path d="M350.794 185.968C352.046 184.543 352.684 182.826 352.684 180.877C352.684 175.345 349.063 172.545 341.913 172.545H331.251V200.006H335.267V189.442H341.98L350.063 200.006H354.987L346.215 188.667C348.089 188.217 349.626 187.309 350.794 185.976V185.968ZM335.267 176.295H341.787C346.358 176.295 348.584 177.794 348.584 180.877C348.584 182.352 348.013 183.493 346.837 184.368C345.652 185.243 344.039 185.684 342.022 185.684H335.267V176.295Z" fill="#F9AA19"/>
<path d="M361.624 187.9H376.588V184.218H361.624V176.295H377.672V172.545H357.6V199.998H378.025V196.249H361.624V187.9Z" fill="#F9AA19"/>
<path d="M403.534 192.974C401.416 195.324 398.677 196.515 395.392 196.515C392.308 196.515 389.788 195.574 387.906 193.716C386.024 191.858 385.057 189.35 385.057 186.276C385.057 183.201 385.948 180.719 387.713 178.844C389.469 176.978 391.905 176.028 394.963 176.028C398.022 176.028 400.71 177.119 402.878 179.269L403.046 179.436L405.659 176.928L405.533 176.761C404.525 175.428 403.08 174.32 401.223 173.47C399.375 172.62 397.24 172.195 394.879 172.195C390.712 172.195 387.301 173.545 384.738 176.22C382.176 178.886 380.882 182.268 380.882 186.267C380.882 190.525 382.184 193.974 384.763 196.515C387.334 199.056 390.838 200.34 395.157 200.34C397.383 200.34 399.492 199.898 401.416 199.023C403.349 198.148 404.87 196.957 405.928 195.491L406.037 195.332L403.71 192.758L403.534 192.958V192.974Z" fill="#F9AA19"/>
<path d="M420.691 172.195C416.758 172.195 413.389 173.562 410.684 176.253C407.978 178.944 406.609 182.318 406.609 186.267C406.609 190.217 407.978 193.691 410.684 196.34C413.389 198.998 416.75 200.34 420.691 200.34C424.631 200.34 427.95 198.981 430.655 196.299C433.361 193.616 434.73 190.242 434.73 186.259C434.73 182.277 433.361 178.836 430.655 176.186C427.95 173.528 424.597 172.187 420.691 172.187V172.195ZM420.691 196.515C417.968 196.515 415.616 195.532 413.692 193.599C411.768 191.666 410.785 189.2 410.785 186.267C410.785 183.335 411.759 180.844 413.666 178.919C415.582 176.994 417.943 176.02 420.691 176.02C423.438 176.02 425.723 176.994 427.656 178.919C429.58 180.844 430.563 183.318 430.563 186.267C430.563 189.217 429.613 191.691 427.731 193.616C425.858 195.541 423.488 196.515 420.691 196.515Z" fill="#F9AA19"/>
<path d="M448.829 194.257L438.436 172.679L438.377 172.545H434.033L447.325 199.998H450.19L462.701 172.879L462.852 172.545H458.626L448.829 194.257Z" fill="#F9AA19"/>
<path d="M468.977 187.9H483.941V184.218H468.977V176.295H485.025V172.545H464.952V199.998H485.378V196.249H468.977V187.9Z" fill="#F9AA19"/>
<path d="M509.265 185.968C510.517 184.543 511.155 182.826 511.155 180.877C511.155 175.345 507.534 172.545 500.384 172.545H489.73V200.006H493.746V189.442H500.46L508.475 199.906L508.542 199.998H513.466L504.694 188.659C506.568 188.209 508.105 187.301 509.273 185.968H509.265ZM493.729 176.295H500.249C504.82 176.295 507.047 177.794 507.047 180.877C507.047 182.352 506.475 183.493 505.299 184.368C504.114 185.243 502.493 185.684 500.485 185.684H493.729V176.295Z" fill="#F9AA19"/>
<path d="M532.312 172.545L523.926 185.409L515.734 172.654L515.667 172.545H510.777L521.818 189.617V199.998H525.842V189.617L537 172.545H532.312Z" fill="#F9AA19"/>
<path d="M180.367 226.951L176.233 218.202H174.032L179.628 229.867H181.081L186.391 218.202H184.24L180.367 226.951Z" fill="white"/>
<path d="M190.08 218.202H188.046V229.867H190.08V218.202Z" fill="white"/>
<path d="M201.574 223.951C202.044 223.343 202.279 222.635 202.279 221.835C202.279 221.335 202.204 220.877 202.061 220.469C201.918 220.06 201.675 219.677 201.347 219.327C201.019 218.977 200.54 218.702 199.91 218.502C199.28 218.302 198.524 218.202 197.642 218.202H193.02V229.867H195.054V225.584H197.541L200.75 229.867H203.22L199.692 225.201C200.473 224.976 201.103 224.559 201.574 223.951ZM197.692 223.685H195.054V220.102H197.591C198.532 220.102 199.196 220.252 199.582 220.552C199.969 220.852 200.162 221.277 200.162 221.835C200.162 222.393 199.944 222.868 199.507 223.193C199.07 223.518 198.465 223.685 197.692 223.685Z" fill="white"/>
<path d="M203.136 220.102H207.085V229.867H209.119V220.102H213.076V218.202H203.136V220.102Z" fill="white"/>
<path d="M222.764 224.618C222.764 225.676 222.52 226.517 222.041 227.151C221.562 227.784 220.848 228.1 219.907 228.1C218.966 228.1 218.218 227.775 217.638 227.126C217.059 226.476 216.765 225.618 216.765 224.551V218.202H214.731V224.801C214.731 226.442 215.227 227.717 216.218 228.625C217.21 229.533 218.437 229.983 219.907 229.983C220.546 229.983 221.142 229.883 221.705 229.692C222.268 229.5 222.78 229.208 223.259 228.817C223.738 228.425 224.108 227.9 224.385 227.226C224.663 226.551 224.797 225.776 224.797 224.901V218.202H222.764V224.618Z" fill="white"/>
<path d="M231.603 218.202L226.444 229.867H228.544L229.67 227.284H235.031L236.173 229.867H238.307L233.149 218.202H231.603ZM230.409 225.551L232.342 221.119L234.274 225.551H230.409Z" fill="white"/>
<path d="M242.088 218.202H240.055V229.867H248.76V227.967H242.088V218.202Z" fill="white"/>
<path d="M260.237 228.067C259.027 228.067 258.044 227.7 257.288 226.959C256.531 226.217 256.153 225.243 256.153 224.035C256.153 222.827 256.515 221.835 257.246 221.102C257.977 220.369 258.943 220.002 260.153 220.002C261.455 220.002 262.514 220.452 263.329 221.352L264.673 220.085C264.261 219.486 263.64 219.002 262.825 218.627C262.01 218.252 261.085 218.069 260.052 218.069C258.262 218.069 256.809 218.636 255.7 219.777C254.591 220.919 254.036 222.335 254.036 224.035C254.036 225.843 254.582 227.292 255.674 228.375C256.767 229.458 258.237 230 260.085 230C261.094 230 262.018 229.808 262.867 229.425C263.715 229.042 264.379 228.509 264.858 227.834L263.665 226.534C262.799 227.559 261.657 228.067 260.237 228.067Z" fill="white"/>
<path d="M271.832 218.069C270.143 218.069 268.714 218.644 267.555 219.794C266.395 220.944 265.816 222.36 265.816 224.035C265.816 225.709 266.395 227.167 267.563 228.3C268.731 229.433 270.151 230 271.832 230C273.512 230 274.932 229.433 276.1 228.292C277.268 227.151 277.847 225.734 277.847 224.035C277.847 222.335 277.268 220.902 276.108 219.769C274.949 218.636 273.52 218.069 271.832 218.069ZM274.621 226.942C273.873 227.692 272.949 228.067 271.84 228.067C270.731 228.067 269.849 227.692 269.084 226.934C268.32 226.176 267.941 225.209 267.941 224.035C267.941 222.86 268.32 221.877 269.084 221.127C269.849 220.377 270.764 220.002 271.84 220.002C272.915 220.002 273.823 220.377 274.587 221.135C275.352 221.893 275.739 222.86 275.739 224.035C275.739 225.209 275.369 226.192 274.621 226.942Z" fill="white"/>
<path d="M288.081 224.618C288.081 225.676 287.837 226.517 287.359 227.151C286.88 227.784 286.165 228.1 285.224 228.1C284.283 228.1 283.536 227.775 282.956 227.126C282.376 226.476 282.082 225.618 282.082 224.551V218.202H280.049V224.801C280.049 226.442 280.544 227.717 281.536 228.625C282.527 229.533 283.754 229.983 285.224 229.983C285.863 229.983 286.46 229.883 287.022 229.692C287.585 229.5 288.098 229.208 288.577 228.817C289.056 228.425 289.425 227.9 289.703 227.226C289.98 226.551 290.114 225.776 290.114 224.901V218.202H288.081V224.618Z" fill="white"/>
<path d="M301.02 226.184L294.534 218.202H292.954V229.867H294.937V221.918L301.424 229.867H303.012V218.202H301.02V226.184Z" fill="white"/>
<path d="M312.985 223.81C312.447 223.593 311.867 223.393 311.237 223.21C310.607 223.026 310.027 222.876 309.49 222.76C308.952 222.643 308.506 222.468 308.145 222.227C307.784 221.985 307.607 221.685 307.607 221.318C307.607 220.86 307.843 220.519 308.313 220.294C308.784 220.069 309.363 219.952 310.061 219.952C311.405 219.952 312.573 220.36 313.556 221.169L314.665 219.735C313.564 218.627 312.052 218.069 310.111 218.069C308.775 218.069 307.675 218.386 306.809 219.027C305.944 219.669 305.507 220.444 305.507 221.368C305.507 221.943 305.641 222.443 305.91 222.86C306.179 223.276 306.524 223.601 306.952 223.835C307.381 224.068 307.851 224.268 308.364 224.426C308.876 224.584 309.397 224.726 309.91 224.843C310.422 224.959 310.893 225.084 311.321 225.226C311.75 225.368 312.094 225.559 312.363 225.801C312.632 226.042 312.766 226.342 312.766 226.701C312.766 227.142 312.573 227.492 312.178 227.742C311.783 227.992 311.237 228.117 310.531 228.117C308.826 228.117 307.448 227.559 306.381 226.451L305.171 227.867C305.683 228.475 306.423 228.984 307.372 229.392C308.322 229.8 309.313 230 310.347 230C311.615 230 312.682 229.675 313.556 229.034C314.43 228.392 314.867 227.559 314.867 226.551C314.867 225.884 314.69 225.318 314.329 224.843C313.968 224.368 313.522 224.026 312.985 223.81Z" fill="white"/>
<path d="M319.169 224.868H325.437V223.035H319.169V220.102H325.873V218.202H317.135V229.867H326.042V227.967H319.169V224.868Z" fill="white"/>
<path d="M330.595 218.202H328.562V229.867H337.267V227.967H330.595V218.202Z" fill="white"/>
<path d="M341.232 218.202H339.199V229.867H341.232V218.202Z" fill="white"/>
<path d="M352.239 226.184L345.753 218.202H344.173V229.867H346.156V221.918L352.642 229.867H354.222V218.202H352.239V226.184Z" fill="white"/>
<path d="M362.372 225.468H365.497V227.251C364.792 227.792 363.91 228.067 362.842 228.067C361.599 228.067 360.591 227.709 359.818 226.992C359.045 226.276 358.658 225.293 358.658 224.035C358.658 222.777 359.028 221.818 359.759 221.094C360.49 220.369 361.473 220.002 362.691 220.002C364.036 220.002 365.077 220.41 365.817 221.235L367.178 219.952C366.741 219.361 366.119 218.902 365.304 218.569C364.489 218.236 363.59 218.069 362.59 218.069C360.843 218.069 359.398 218.644 358.255 219.785C357.112 220.927 356.541 222.343 356.541 224.035C356.541 225.826 357.129 227.267 358.297 228.359C359.465 229.45 360.969 230 362.809 230C363.716 230 364.582 229.842 365.405 229.517C366.229 229.192 366.909 228.742 367.447 228.15V223.635H362.372V225.468Z" fill="white"/>
<path d="M379.899 228.067C378.689 228.067 377.706 227.7 376.949 226.959C376.193 226.217 375.815 225.243 375.815 224.035C375.815 222.827 376.177 221.835 376.908 221.102C377.638 220.369 378.605 220.002 379.815 220.002C381.117 220.002 382.176 220.452 382.991 221.352L384.335 220.085C383.923 219.486 383.301 219.002 382.486 218.627C381.671 218.252 380.747 218.069 379.714 218.069C377.924 218.069 376.471 218.636 375.362 219.777C374.252 220.919 373.698 222.335 373.698 224.035C373.698 225.843 374.244 227.292 375.336 228.375C376.429 229.458 377.899 230 379.747 230C380.756 230 381.68 229.808 382.528 229.425C383.377 229.042 384.041 228.509 384.52 227.834L383.327 226.534C382.461 227.559 381.319 228.067 379.899 228.067Z" fill="white"/>
<path d="M391.493 218.069C389.805 218.069 388.376 218.644 387.217 219.794C386.057 220.944 385.478 222.36 385.478 224.035C385.478 225.709 386.057 227.167 387.225 228.3C388.393 229.433 389.813 230 391.493 230C393.174 230 394.594 229.433 395.762 228.292C396.93 227.151 397.509 225.734 397.509 224.035C397.509 222.335 396.93 220.902 395.77 219.769C394.611 218.636 393.182 218.069 391.493 218.069ZM394.275 226.942C393.527 227.692 392.603 228.067 391.493 228.067C390.384 228.067 389.502 227.692 388.738 226.934C387.973 226.176 387.595 225.209 387.595 224.035C387.595 222.86 387.973 221.877 388.738 221.127C389.502 220.377 390.418 220.002 391.493 220.002C392.569 220.002 393.476 220.377 394.241 221.135C395.005 221.893 395.392 222.86 395.392 224.035C395.392 225.209 395.022 226.192 394.275 226.942Z" fill="white"/>
<path d="M401.862 218.202H399.828V229.867H408.533V227.967H401.862V218.202Z" fill="white"/>
<path d="M415.254 218.069C413.566 218.069 412.137 218.644 410.978 219.794C409.818 220.944 409.239 222.36 409.239 224.035C409.239 225.709 409.818 227.167 410.986 228.3C412.154 229.433 413.574 230 415.254 230C416.935 230 418.355 229.433 419.523 228.292C420.691 227.151 421.27 225.734 421.27 224.035C421.27 222.335 420.691 220.902 419.531 219.769C418.372 218.636 416.943 218.069 415.254 218.069ZM418.035 226.942C417.288 227.692 416.363 228.067 415.254 228.067C414.145 228.067 413.263 227.692 412.499 226.934C411.734 226.176 411.356 225.209 411.356 224.035C411.356 222.86 411.734 221.877 412.499 221.127C413.263 220.377 414.179 220.002 415.254 220.002C416.33 220.002 417.237 220.377 418.002 221.135C418.766 221.893 419.153 222.86 419.153 224.035C419.153 225.209 418.783 226.192 418.035 226.942Z" fill="white"/>
<path d="M432.143 223.951C432.613 223.343 432.848 222.635 432.848 221.835C432.848 221.335 432.773 220.877 432.63 220.469C432.487 220.06 432.243 219.677 431.916 219.327C431.588 218.977 431.109 218.702 430.479 218.502C429.849 218.302 429.093 218.202 428.21 218.202H423.589V229.867H425.623V225.584H428.11L431.319 229.867H433.789L430.26 225.201C431.042 224.976 431.672 224.559 432.143 223.951ZM428.261 223.685H425.623V220.102H428.16C429.101 220.102 429.765 220.252 430.151 220.552C430.538 220.852 430.731 221.277 430.731 221.835C430.731 222.393 430.513 222.868 430.076 223.193C429.639 223.518 429.034 223.685 428.261 223.685Z" fill="white"/>
<path d="M439.335 218.202L434.176 229.867H436.276L437.402 227.284H442.763L443.905 229.867H446.039L440.881 218.202H439.335ZM438.142 225.551L440.074 221.119L442.007 225.551H438.142Z" fill="white"/>
<path d="M456.626 219.91C456.122 219.369 455.433 218.952 454.551 218.652C453.669 218.352 452.643 218.202 451.467 218.202H447.787V229.867H451.249C453.526 229.867 455.231 229.317 456.374 228.209C457.517 227.101 458.088 225.659 458.088 223.885C458.088 223.085 457.97 222.36 457.735 221.702C457.5 221.044 457.13 220.452 456.626 219.91ZM454.853 226.876C454.105 227.601 452.954 227.967 451.4 227.967H449.82V220.102H451.434C454.458 220.102 455.971 221.36 455.971 223.885C455.971 225.151 455.601 226.151 454.853 226.876Z" fill="white"/>
<path d="M470.078 219.769C468.918 218.636 467.49 218.069 465.801 218.069C464.112 218.069 462.684 218.644 461.524 219.794C460.365 220.944 459.785 222.36 459.785 224.035C459.785 225.709 460.365 227.167 461.533 228.3C462.701 229.433 464.121 230 465.801 230C467.482 230 468.901 229.433 470.069 228.292C471.237 227.151 471.817 225.734 471.817 224.035C471.817 222.335 471.237 220.902 470.078 219.769ZM468.582 226.942C467.834 227.692 466.91 228.067 465.801 228.067C464.692 228.067 463.81 227.692 463.045 226.934C462.281 226.176 461.903 225.209 461.903 224.035C461.903 222.86 462.281 221.877 463.045 221.127C463.81 220.377 464.726 220.002 465.801 220.002C466.877 220.002 467.784 220.377 468.549 221.135C469.313 221.893 469.7 222.86 469.7 224.035C469.7 225.209 469.33 226.192 468.582 226.942Z" fill="white"/>
<path d="M131.022 189.4V194.324C129.148 195.774 126.796 196.515 124.031 196.515C120.864 196.515 118.251 195.582 116.268 193.749C114.293 191.916 113.285 189.4 113.285 186.276C113.285 183.151 114.26 180.727 116.167 178.852C118.083 176.978 120.628 176.028 123.746 176.028C127.123 176.028 129.761 177.011 131.601 178.961L131.77 179.144L134.374 176.544L134.231 176.378C131.929 173.612 128.316 172.204 123.502 172.204C119.41 172.204 115.932 173.578 113.167 176.278C110.403 178.986 109 182.352 109 186.276C109 190.492 110.42 193.924 113.209 196.49C115.999 199.048 119.612 200.348 123.939 200.348C126.006 200.348 128.064 199.973 130.039 199.231C132.022 198.49 133.66 197.465 134.903 196.19L134.971 196.124V185.726H123.3V189.4H131.022Z" fill="white"/>
<path d="M159.261 187.817C159.261 190.525 158.606 192.674 157.32 194.216C156.043 195.74 154.153 196.524 151.716 196.524C149.279 196.524 147.355 195.74 145.793 194.182C144.238 192.633 143.448 190.425 143.448 187.625V172.545H139.331V188.125C139.331 191.983 140.524 195.007 142.885 197.132C145.238 199.248 148.204 200.315 151.716 200.315C154.909 200.315 157.673 199.306 159.942 197.307C162.219 195.307 163.378 192.291 163.378 188.359V172.545H159.261V187.817Z" fill="white"/>
<path d="M180.266 172.462H177.082L164.605 199.998H168.848L171.923 193.174H185.316L188.433 199.998H192.752L180.333 172.604L180.266 172.462ZM173.494 189.617L178.603 178.186L183.745 189.617H173.494Z" fill="white"/>
<path d="M199.843 189.442H206.758L215.067 200.006H220.117L211.102 188.667C213.026 188.217 214.605 187.309 215.807 185.976C217.092 184.551 217.748 182.835 217.748 180.885C217.748 175.353 214.026 172.554 206.682 172.554H195.734V200.015H199.851V189.45L199.843 189.442ZM199.843 176.295H206.556C211.261 176.295 213.547 177.794 213.547 180.877C213.547 182.352 212.958 183.493 211.749 184.368C210.53 185.243 208.867 185.693 206.8 185.693H199.851V176.303L199.843 176.295Z" fill="white"/>
<path d="M243.87 196.057C246.567 193.441 247.936 190.017 247.936 185.884C247.936 184.043 247.65 182.318 247.079 180.777C246.516 179.227 245.617 177.803 244.432 176.553C243.239 175.295 241.584 174.303 239.526 173.603C237.476 172.904 235.031 172.545 232.275 172.545H223.402V200.006H231.871C237.131 200.006 241.164 198.682 243.861 196.065L243.87 196.057ZM232.124 196.249H227.528V176.295H232.199C236.215 176.295 239.173 177.161 240.979 178.869C242.786 180.577 243.702 182.935 243.702 185.884C243.702 189.042 242.744 191.583 240.853 193.441C238.963 195.299 236.022 196.24 232.115 196.24L232.124 196.249Z" fill="white"/>
<path d="M256.565 172.545H252.448V200.006H256.565V172.545Z" fill="white"/>
<path d="M266.866 193.174H280.259L283.376 199.998H287.695L275.276 172.604L275.209 172.462H272.025L259.548 199.998H263.791L266.866 193.174ZM268.437 189.617L273.546 178.186L278.688 189.617H268.437Z" fill="white"/>
<path d="M294.677 179.844L311.456 199.998H314.648V172.545H310.649V192.774L293.904 172.545H290.677V199.998H294.677V179.844Z" fill="white"/>
</svg>
