<svg width="645" height="300" viewBox="0 0 645 300" fill="none" xmlns="http://www.w3.org/2000/svg">
<rect width="645" height="300" fill="#083045"/>
<path d="M228.586 222.458H119.855V224.958H228.586V222.458Z" fill="#F9AA19"/>
<path d="M525.657 222.458H416.027V224.958H525.657V222.458Z" fill="#F9AA19"/>
<path d="M322.202 148.512C300.365 148.512 282.603 130.903 282.603 109.252C282.603 87.6009 300.365 70 322.202 70C344.039 70 361.775 87.6093 361.775 109.26C361.775 130.912 344.022 148.521 322.202 148.521V148.512ZM322.202 73.1335C302.104 73.1335 285.762 89.3427 285.762 109.26C285.762 129.178 302.113 145.387 322.202 145.387C342.291 145.387 358.616 129.178 358.616 109.26C358.616 89.3427 342.274 73.1335 322.202 73.1335Z" fill="white"/>
<path d="M334.654 129.595L322.681 123.461C322.529 123.386 322.361 123.344 322.193 123.344C322.025 123.344 321.857 123.386 321.706 123.461L309.733 129.595C309.229 129.853 309.019 130.461 309.254 130.978C309.49 131.495 310.094 131.737 310.624 131.52L321.807 127.22C321.933 127.17 322.067 127.145 322.202 127.145C322.336 127.145 322.471 127.17 322.597 127.22L333.78 131.52C334.309 131.737 334.914 131.495 335.149 130.978C335.385 130.461 335.175 129.853 334.67 129.595H334.654Z" fill="#F9AA19"/>
<path d="M350.71 108.194L333.133 107.402C332.091 107.352 331.73 106.01 332.604 105.46L347.433 96.0347C347.912 95.7347 348.063 95.1096 347.786 94.6179C347.5 94.1263 346.879 93.9429 346.374 94.2013L330.73 102.227C329.806 102.702 328.814 101.718 329.293 100.802L337.393 85.2841C337.653 84.7841 337.477 84.1674 336.981 83.8841H336.964C336.468 83.5924 335.838 83.7424 335.536 84.2174L326.042 98.9348C325.479 99.8016 324.126 99.4432 324.084 98.4181L323.269 80.9589C323.244 80.3922 322.773 79.9505 322.202 79.9505H322.193C321.622 79.9505 321.152 80.3922 321.126 80.9589L320.32 98.4098C320.269 99.4432 318.917 99.8015 318.362 98.9265L308.868 84.2091C308.557 83.734 307.927 83.584 307.439 83.8674H307.423C306.935 84.1591 306.75 84.7758 307.011 85.2758L315.119 100.793C315.598 101.71 314.606 102.693 313.682 102.218L298.046 94.1846C297.542 93.9262 296.92 94.1013 296.634 94.5929C296.349 95.093 296.5 95.718 296.979 96.0264L311.808 105.452C312.682 106.01 312.321 107.352 311.279 107.394L293.694 108.185C293.122 108.21 292.677 108.677 292.677 109.244C292.677 109.819 293.122 110.277 293.694 110.31L311.279 111.11C312.321 111.16 312.682 112.502 311.8 113.052L296.97 122.469C296.492 122.778 296.34 123.403 296.626 123.886V123.903C296.92 124.386 297.542 124.57 298.046 124.311L321.723 112.152C322.034 111.994 322.395 111.994 322.706 112.152L346.383 124.311C346.887 124.57 347.517 124.386 347.794 123.894C348.072 123.403 347.92 122.778 347.442 122.478L332.612 113.061C331.738 112.502 332.099 111.16 333.141 111.119L350.718 110.319C351.29 110.294 351.735 109.827 351.735 109.26C351.735 108.685 351.29 108.227 350.718 108.194H350.71Z" fill="#F9AA19"/>
<path d="M350.794 185.998C352.046 184.573 352.676 182.856 352.676 180.906C352.676 175.372 349.055 172.572 341.905 172.572H331.242V200.04H335.259V189.473H341.972L350.055 200.04H354.978L346.206 188.698C348.08 188.248 349.618 187.339 350.786 186.006L350.794 185.998ZM335.267 176.322H341.787C346.358 176.322 348.584 177.822 348.584 180.906C348.584 182.381 348.013 183.523 346.837 184.398C345.652 185.273 344.039 185.723 342.022 185.723H335.267V176.322Z" fill="#F9AA19"/>
<path d="M361.616 187.923H376.588V184.248H361.616V176.322H377.672V172.564H357.6V200.032H378.025V196.282H361.616V187.923Z" fill="#F9AA19"/>
<path d="M403.525 193.006C401.408 195.357 398.669 196.548 395.384 196.548C392.3 196.548 389.779 195.607 387.897 193.748C386.007 191.89 385.049 189.381 385.049 186.306C385.049 183.231 385.94 180.747 387.704 178.872C389.46 177.006 391.897 176.056 394.955 176.056C398.013 176.056 400.702 177.147 402.87 179.306L403.038 179.472L405.651 176.964L405.525 176.797C404.525 175.464 403.071 174.355 401.215 173.505C399.366 172.655 397.232 172.23 394.871 172.23C390.704 172.23 387.292 173.589 384.73 176.256C382.167 178.922 380.873 182.306 380.873 186.306C380.873 190.565 382.176 194.015 384.755 196.557C387.326 199.098 390.83 200.382 395.148 200.382C397.375 200.382 399.484 199.94 401.408 199.065C403.34 198.19 404.861 197.007 405.92 195.54L406.029 195.382L403.702 192.806L403.525 193.006Z" fill="#F9AA19"/>
<path d="M420.691 172.222C416.758 172.222 413.389 173.589 410.684 176.281C407.978 178.972 406.609 182.348 406.609 186.298C406.609 190.248 407.978 193.723 410.684 196.373C413.389 199.032 416.75 200.373 420.691 200.373C424.631 200.373 427.95 199.015 430.655 196.332C433.361 193.648 434.73 190.273 434.73 186.289C434.73 182.306 433.361 178.864 430.655 176.214C427.95 173.564 424.597 172.214 420.691 172.214V172.222ZM420.691 196.548C417.968 196.548 415.616 195.565 413.692 193.631C411.768 191.698 410.785 189.231 410.785 186.298C410.785 183.364 411.759 180.872 413.666 178.947C415.582 177.022 417.943 176.047 420.691 176.047C423.438 176.047 425.723 177.022 427.656 178.947C429.58 180.872 430.563 183.348 430.563 186.298C430.563 189.248 429.613 191.723 427.731 193.648C425.858 195.573 423.488 196.548 420.691 196.548Z" fill="#F9AA19"/>
<path d="M448.829 194.29L438.377 172.564H434.033L447.258 199.898L447.325 200.032H450.19L462.852 172.564H458.626L448.829 194.29Z" fill="#F9AA19"/>
<path d="M468.977 187.923H483.941V184.248H468.977V176.322H485.025V172.564H464.952V200.032H485.378V196.282H468.977V187.923Z" fill="#F9AA19"/>
<path d="M509.265 185.998C510.517 184.573 511.155 182.856 511.155 180.906C511.155 175.372 507.534 172.572 500.384 172.572H489.73V200.04H493.746V189.473H500.46L508.542 200.04H513.466L504.694 188.698C506.568 188.248 508.105 187.339 509.273 186.006L509.265 185.998ZM493.729 176.322H500.249C504.82 176.322 507.047 177.822 507.047 180.906C507.047 182.381 506.475 183.523 505.299 184.398C504.114 185.273 502.493 185.723 500.485 185.723H493.729V176.322Z" fill="#F9AA19"/>
<path d="M532.312 172.564L523.926 185.431L515.659 172.564H510.777L521.818 189.648V200.032H525.842V189.648L537 172.564H532.312Z" fill="#F9AA19"/>
<path d="M250.306 219.433C249.961 219.041 249.457 218.741 248.793 218.524C248.129 218.308 247.314 218.199 246.365 218.199H241.609V229.867H243.643V225.866H246.348C247.23 225.866 248.003 225.758 248.659 225.541C249.314 225.325 249.827 225.033 250.188 224.658C250.549 224.283 250.818 223.883 250.994 223.441C251.171 223 251.255 222.533 251.255 222.033C251.255 221.533 251.179 221.058 251.036 220.641C250.894 220.224 250.65 219.824 250.306 219.433ZM246.315 223.983H243.643V220.083H246.432C248.239 220.083 249.138 220.725 249.138 222.016C249.138 223.308 248.197 223.983 246.315 223.983Z" fill="white"/>
<path d="M255.624 218.199H253.591V229.867H262.295V227.967H255.624V218.199Z" fill="white"/>
<path d="M267.135 222.85L263.892 218.199H261.371L266.093 224.816V229.867H268.126V224.816L272.882 218.199H270.445L267.135 222.85Z" fill="white"/>
<path d="M280.528 223.616L276.327 218.199H274.529V229.867H276.562V221.766L280.225 226.416H280.746L284.325 221.783V229.867H286.359V218.199H284.577L280.528 223.616Z" fill="white"/>
<path d="M294.694 218.066C293.005 218.066 291.576 218.641 290.417 219.791C289.257 220.941 288.678 222.358 288.678 224.033C288.678 225.708 289.257 227.167 290.425 228.3C291.593 229.433 293.013 230 294.694 230C296.374 230 297.794 229.433 298.962 228.292C300.13 227.15 300.709 225.733 300.709 224.033C300.709 222.333 300.13 220.9 298.97 219.766C297.811 218.633 296.382 218.066 294.694 218.066ZM297.475 226.942C296.727 227.692 295.803 228.067 294.694 228.067C293.584 228.067 292.702 227.692 291.938 226.933C291.173 226.175 290.795 225.208 290.795 224.033C290.795 222.858 291.173 221.875 291.938 221.125C292.702 220.374 293.618 219.999 294.694 219.999C295.769 219.999 296.676 220.374 297.441 221.133C298.206 221.891 298.592 222.858 298.592 224.033C298.592 225.208 298.222 226.191 297.475 226.942Z" fill="white"/>
<path d="M310.943 224.616C310.943 225.675 310.699 226.516 310.22 227.15C309.742 227.783 309.027 228.1 308.086 228.1C307.145 228.1 306.398 227.775 305.818 227.125C305.238 226.475 304.944 225.616 304.944 224.55V218.199H302.911V224.8C302.911 226.441 303.406 227.717 304.398 228.625C305.389 229.533 306.616 229.983 308.086 229.983C308.725 229.983 309.321 229.883 309.884 229.692C310.447 229.5 310.96 229.208 311.439 228.817C311.918 228.425 312.287 227.9 312.565 227.225C312.842 226.55 312.976 225.775 312.976 224.9V218.199H310.943V224.616Z" fill="white"/>
<path d="M314.657 220.099H318.606V229.867H320.639V220.099H324.588V218.199H314.657V220.099Z" fill="white"/>
<path d="M334.57 223.016H328.403V218.199H326.369V229.867H328.403V224.916H334.57V229.867H336.603V218.199H334.57V223.016Z" fill="white"/>
<path d="M352.298 223.016H346.131V218.199H344.098V229.867H346.131V224.916H352.298V229.867H354.331V218.199H352.298V223.016Z" fill="white"/>
<path d="M362.666 218.066C360.977 218.066 359.549 218.641 358.389 219.791C357.23 220.941 356.65 222.358 356.65 224.033C356.65 225.708 357.23 227.167 358.398 228.3C359.566 229.433 360.986 230 362.666 230C364.346 230 365.766 229.433 366.934 228.292C368.102 227.15 368.682 225.733 368.682 224.033C368.682 222.333 368.102 220.9 366.943 219.766C365.783 218.633 364.355 218.066 362.666 218.066ZM365.447 226.942C364.699 227.692 363.775 228.067 362.666 228.067C361.557 228.067 360.675 227.692 359.91 226.933C359.146 226.175 358.768 225.208 358.768 224.033C358.768 222.858 359.146 221.875 359.91 221.125C360.675 220.374 361.591 219.999 362.666 219.999C363.741 219.999 364.649 220.374 365.414 221.133C366.178 221.891 366.565 222.858 366.565 224.033C366.565 225.208 366.195 226.191 365.447 226.942Z" fill="white"/>
<path d="M378.916 224.616C378.916 225.675 378.672 226.516 378.193 227.15C377.714 227.783 377 228.1 376.059 228.1C375.118 228.1 374.37 227.775 373.79 227.125C373.211 226.475 372.917 225.616 372.917 224.55V218.199H370.883V224.8C370.883 226.441 371.379 227.717 372.37 228.625C373.362 229.533 374.589 229.983 376.059 229.983C376.697 229.983 377.294 229.883 377.857 229.692C378.42 229.5 378.932 229.208 379.411 228.817C379.89 228.425 380.26 227.9 380.537 227.225C380.814 226.55 380.949 225.775 380.949 224.9V218.199H378.916V224.616Z" fill="white"/>
<path d="M390.83 223.808C390.292 223.591 389.712 223.391 389.082 223.208C388.452 223.025 387.872 222.875 387.334 222.758C386.797 222.641 386.351 222.466 385.99 222.225C385.629 221.983 385.452 221.683 385.452 221.316C385.452 220.858 385.688 220.516 386.158 220.291C386.629 220.066 387.208 219.949 387.906 219.949C389.25 219.949 390.418 220.358 391.401 221.166L392.51 219.733C391.409 218.624 389.897 218.066 387.956 218.066C386.62 218.066 385.52 218.383 384.654 219.024C383.789 219.666 383.352 220.441 383.352 221.366C383.352 221.941 383.486 222.441 383.755 222.858C384.024 223.275 384.368 223.6 384.797 223.833C385.225 224.066 385.696 224.266 386.209 224.425C386.721 224.583 387.242 224.725 387.755 224.841C388.267 224.958 388.738 225.083 389.166 225.225C389.595 225.366 389.939 225.558 390.208 225.8C390.477 226.041 390.611 226.341 390.611 226.7C390.611 227.142 390.418 227.492 390.023 227.742C389.628 227.992 389.082 228.117 388.376 228.117C386.671 228.117 385.293 227.558 384.226 226.45L383.016 227.867C383.528 228.475 384.268 228.983 385.217 229.392C386.167 229.8 387.158 230 388.191 230C389.46 230 390.527 229.675 391.401 229.033C392.275 228.392 392.712 227.558 392.712 226.55C392.712 225.883 392.535 225.316 392.174 224.841C391.813 224.366 391.367 224.025 390.83 223.808Z" fill="white"/>
<path d="M397.014 227.967V224.866H403.281V223.033H397.014V220.099H403.718V218.199H394.98V229.867H403.886V227.967H397.014Z" fill="white"/>
<path d="M131.022 189.431V194.356C129.148 195.807 126.796 196.548 124.031 196.548C120.864 196.548 118.251 195.615 116.268 193.781C114.293 191.948 113.285 189.431 113.285 186.306C113.285 183.181 114.26 180.756 116.167 178.881C118.083 177.006 120.628 176.056 123.746 176.056C127.123 176.056 129.761 177.039 131.601 178.989L131.77 179.172L134.374 176.572L134.231 176.406C131.929 173.639 128.316 172.23 123.502 172.23C119.41 172.23 115.932 173.605 113.167 176.306C110.403 179.014 109 182.381 109 186.306C109 190.523 110.42 193.956 113.209 196.523C115.999 199.082 119.612 200.382 123.939 200.382C126.006 200.382 128.064 200.007 130.039 199.265C132.022 198.523 133.66 197.498 134.903 196.223L134.971 196.157V185.756H123.3V189.431H131.022Z" fill="white"/>
<path d="M159.261 187.839C159.261 190.548 158.606 192.698 157.32 194.24C156.043 195.765 154.153 196.548 151.716 196.548C149.279 196.548 147.355 195.765 145.793 194.206C144.238 192.656 143.448 190.448 143.448 187.648V172.564H139.331V188.148C139.331 192.006 140.524 195.032 142.885 197.157C145.238 199.273 148.212 200.34 151.716 200.34C154.9 200.34 157.673 199.332 159.942 197.332C162.219 195.323 163.378 192.315 163.378 188.381V172.564H159.261V187.839Z" fill="white"/>
<path d="M180.266 172.489H177.082L164.605 200.032H168.848L171.923 193.206H185.316L188.433 200.032H192.752L180.333 172.63L180.266 172.489ZM183.736 189.648H173.494L178.594 178.214L183.736 189.648Z" fill="white"/>
<path d="M215.807 185.998C217.092 184.573 217.748 182.856 217.748 180.906C217.748 175.372 214.026 172.572 206.682 172.572H195.734V200.04H199.851V189.473H206.766L215.076 200.04H220.125L211.11 188.698C213.034 188.248 214.614 187.339 215.815 186.006L215.807 185.998ZM199.843 176.322H206.556C211.261 176.322 213.547 177.822 213.547 180.906C213.547 182.381 212.958 183.523 211.749 184.398C210.53 185.273 208.867 185.723 206.8 185.723H199.851V176.331L199.843 176.322Z" fill="white"/>
<path d="M247.945 185.914C247.945 184.073 247.659 182.348 247.088 180.806C246.525 179.256 245.634 177.831 244.441 176.581C243.248 175.322 241.593 174.33 239.526 173.63C237.476 172.93 235.031 172.572 232.275 172.572H223.402V200.04H231.871C237.131 200.04 241.164 198.715 243.861 196.098C246.558 193.481 247.928 190.056 247.928 185.923L247.945 185.914ZM232.124 196.282H227.528V176.322H232.199C236.215 176.322 239.173 177.189 240.979 178.897C242.786 180.606 243.702 182.964 243.702 185.914C243.702 189.073 242.744 191.615 240.853 193.473C238.963 195.332 236.022 196.273 232.115 196.273L232.124 196.282Z" fill="white"/>
<path d="M256.565 172.564H252.448V200.032H256.565V172.564Z" fill="white"/>
<path d="M275.218 172.489H272.033L259.556 200.032H263.799L266.874 193.206H280.267L283.384 200.032H287.703L275.285 172.63L275.218 172.489ZM278.688 189.648H268.446L273.546 178.214L278.688 189.648Z" fill="white"/>
<path d="M310.649 192.806L293.904 172.564H290.677V200.032H294.677V179.872L311.456 200.032H314.648V172.564H310.649V192.806Z" fill="white"/>
</svg>
