<svg width="645" height="300" viewBox="0 0 645 300" fill="none" xmlns="http://www.w3.org/2000/svg">
<rect width="645" height="300" fill="#083045"/>
<path d="M322.202 149.897C300.365 149.897 282.603 132.203 282.603 110.449C282.603 88.6936 300.365 71 322.202 71C344.039 71 361.775 88.6936 361.775 110.449C361.775 132.203 344.022 149.897 322.202 149.897ZM322.202 74.1485C302.104 74.1485 285.762 90.4354 285.762 110.449C285.762 130.462 302.113 146.749 322.202 146.749C342.291 146.749 358.616 130.462 358.616 110.449C358.616 90.4354 342.274 74.1485 322.202 74.1485Z" fill="white"/>
<path d="M334.654 130.88L322.681 124.717C322.529 124.642 322.361 124.6 322.193 124.6C322.025 124.6 321.857 124.642 321.706 124.717L309.733 130.88C309.229 131.14 309.019 131.751 309.254 132.27C309.49 132.79 310.094 133.032 310.624 132.815L321.807 128.494C321.933 128.444 322.067 128.419 322.202 128.419C322.336 128.419 322.471 128.444 322.597 128.494L333.78 132.815C334.309 133.032 334.914 132.79 335.149 132.27C335.385 131.751 335.175 131.14 334.67 130.88H334.654Z" fill="#F9AA19"/>
<path d="M350.71 109.377L333.133 108.581C332.091 108.531 331.73 107.183 332.604 106.63L347.433 97.1595C347.912 96.858 348.063 96.23 347.786 95.7359C347.5 95.2419 346.879 95.0577 346.374 95.3173L330.73 103.381C329.806 103.858 328.814 102.87 329.293 101.949L337.393 86.3574C337.653 85.855 337.477 85.2353 336.981 84.9506H336.964C336.468 84.6575 335.838 84.8082 335.536 85.2855L326.042 100.074C325.479 100.944 324.126 100.584 324.084 99.5543L323.269 82.0114C323.244 81.442 322.773 80.9982 322.202 80.9982H322.193C321.622 80.9982 321.152 81.442 321.126 82.0114L320.32 99.546C320.269 100.584 318.917 100.944 318.362 100.065L308.868 85.2772C308.557 84.7999 307.927 84.6491 307.439 84.9339H307.423C306.935 85.2269 306.75 85.8466 307.011 86.349L315.119 101.941C315.598 102.862 314.606 103.85 313.682 103.373L298.046 95.3005C297.542 95.0409 296.92 95.2168 296.634 95.7108C296.349 96.2132 296.5 96.8413 296.979 97.1511L311.808 106.622C312.682 107.183 312.321 108.531 311.279 108.573L293.694 109.368C293.122 109.393 292.677 109.862 292.677 110.432C292.677 111.01 293.122 111.47 293.694 111.504L311.279 112.308C312.321 112.358 312.682 113.706 311.8 114.259L296.97 123.721C296.492 124.031 296.34 124.659 296.626 125.144V125.161C296.92 125.647 297.542 125.831 298.046 125.571L321.723 113.354C322.034 113.195 322.395 113.195 322.706 113.354L346.383 125.571C346.887 125.831 347.517 125.647 347.794 125.153C348.072 124.659 347.92 124.031 347.442 123.729L332.612 114.267C331.738 113.706 332.099 112.358 333.141 112.316L350.718 111.512C351.29 111.487 351.735 111.018 351.735 110.449C351.735 109.871 351.29 109.41 350.718 109.377H350.71Z" fill="#F9AA19"/>
<path d="M350.794 187.554C352.046 186.122 352.676 184.397 352.676 182.437C352.676 176.877 349.055 174.064 341.905 174.064H331.242V201.663H335.259V191.045H341.972L349.987 201.563L350.055 201.655H354.978L346.206 190.258C348.08 189.806 349.618 188.893 350.786 187.554H350.794ZM335.267 177.832H341.787C346.358 177.832 348.584 179.339 348.584 182.437C348.584 183.919 348.013 185.067 346.837 185.946C345.652 186.825 344.039 187.277 342.022 187.277H335.267V177.832Z" fill="#F9AA19"/>
<path d="M361.624 189.496H376.588V185.795H361.624V177.832H377.672V174.064H357.6V201.655H378.025V197.887H361.624V189.496Z" fill="#F9AA19"/>
<path d="M403.525 194.596C401.408 196.957 398.669 198.155 395.384 198.155C392.3 198.155 389.779 197.209 387.897 195.341C386.007 193.474 385.049 190.953 385.049 187.863C385.049 184.774 385.94 182.278 387.704 180.394C389.46 178.518 391.905 177.564 394.955 177.564C398.005 177.564 400.702 178.661 402.87 180.83L403.038 180.997L405.651 178.477L405.525 178.309C404.517 176.969 403.071 175.856 401.215 175.001C399.366 174.147 397.232 173.72 394.871 173.72C390.704 173.72 387.292 175.085 384.73 177.765C382.167 180.444 380.873 183.844 380.873 187.863C380.873 192.142 382.176 195.609 384.755 198.163C387.326 200.717 390.83 202.007 395.148 202.007C397.375 202.007 399.484 201.563 401.408 200.684C403.34 199.804 404.861 198.615 405.92 197.142L406.029 196.982L403.702 194.395L403.525 194.596Z" fill="#F9AA19"/>
<path d="M420.691 173.712C416.758 173.712 413.389 175.085 410.684 177.79C407.978 180.495 406.609 183.886 406.609 187.855C406.609 191.824 407.978 195.316 410.684 197.979C413.389 200.65 416.75 201.998 420.691 201.998C424.631 201.998 427.95 200.633 430.655 197.937C433.361 195.241 434.73 191.849 434.73 187.847C434.73 183.844 433.361 180.386 430.655 177.723C427.95 175.052 424.597 173.704 420.691 173.704V173.712ZM420.691 198.155C417.968 198.155 415.616 197.167 413.692 195.224C411.768 193.281 410.785 190.803 410.785 187.855C410.785 184.908 411.759 182.404 413.666 180.469C415.582 178.535 417.943 177.555 420.682 177.555C423.421 177.555 425.715 178.535 427.647 180.469C429.571 182.404 430.555 184.891 430.555 187.855C430.555 190.819 429.605 193.306 427.723 195.241C425.849 197.175 423.48 198.155 420.682 198.155H420.691Z" fill="#F9AA19"/>
<path d="M448.829 195.885L438.436 174.198L438.377 174.064H434.033L447.258 201.521L447.325 201.655H450.19L462.701 174.399L462.852 174.064H458.626L448.829 195.885Z" fill="#F9AA19"/>
<path d="M468.977 189.496H483.941V185.795H468.977V177.832H485.025V174.064H464.952V201.655H485.378V197.887H468.977V189.496Z" fill="#F9AA19"/>
<path d="M509.265 187.554C510.517 186.122 511.155 184.397 511.155 182.437C511.155 176.877 507.534 174.064 500.384 174.064H489.73V201.663H493.746V191.045H500.46L508.475 201.563L508.542 201.655H513.466L504.694 190.258C506.568 189.806 508.105 188.893 509.273 187.554H509.265ZM493.729 177.832H500.249C504.82 177.832 507.047 179.339 507.047 182.437C507.047 183.919 506.475 185.067 505.299 185.946C504.114 186.825 502.493 187.277 500.485 187.277H493.729V177.832Z" fill="#F9AA19"/>
<path d="M532.312 174.064L523.926 186.984L515.667 174.064H510.777L521.818 191.221V201.655H525.842V191.221L537 174.064H532.312Z" fill="#F9AA19"/>
<path d="M131.022 191.004V195.952C129.148 197.41 126.796 198.155 124.031 198.155C120.864 198.155 118.251 197.217 116.268 195.375C114.293 193.532 113.285 191.004 113.285 187.863C113.285 184.723 114.26 182.287 116.167 180.403C118.083 178.518 120.628 177.564 123.746 177.564C127.123 177.564 129.761 178.552 131.601 180.511L131.77 180.696L134.374 178.083L134.231 177.916C131.929 175.135 128.316 173.72 123.502 173.72C119.41 173.72 115.932 175.102 113.167 177.815C110.403 180.536 109 183.919 109 187.863C109 192.101 110.42 195.551 113.209 198.13C115.999 200.7 119.612 202.007 123.939 202.007C126.006 202.007 128.064 201.63 130.039 200.885C132.022 200.139 133.66 199.109 134.903 197.828L134.971 197.761V187.311H123.3V191.004H131.022Z" fill="white"/>
<path d="M159.261 189.404C159.261 192.126 158.606 194.286 157.32 195.835C156.043 197.368 154.153 198.155 151.716 198.155C149.279 198.155 147.355 197.368 145.793 195.802C144.238 194.244 143.448 192.025 143.448 189.212V174.055H139.331V189.714C139.331 193.591 140.524 196.631 142.885 198.766C145.238 200.893 148.204 201.965 151.716 201.965C154.909 201.965 157.673 200.952 159.942 198.942C162.219 196.932 163.378 193.901 163.378 189.949V174.055H159.261V189.404Z" fill="white"/>
<path d="M180.266 173.98H177.082L164.605 201.655H168.848L171.923 194.797H185.316L188.433 201.655H192.752L180.333 174.122L180.266 173.98ZM173.494 191.221L178.603 179.733L183.745 191.221H173.494Z" fill="white"/>
<path d="M215.807 187.554C217.092 186.122 217.748 184.397 217.748 182.437C217.748 176.877 214.026 174.064 206.682 174.064H195.734V201.663H199.851V191.045H206.766L215.076 201.663H220.125L211.11 190.267C213.034 189.815 214.614 188.902 215.815 187.562L215.807 187.554ZM199.843 177.832H206.556C211.261 177.832 213.547 179.339 213.547 182.437C213.547 183.919 212.958 185.067 211.749 185.946C210.53 186.825 208.867 187.277 206.8 187.277H199.851V177.84L199.843 177.832Z" fill="white"/>
<path d="M244.441 178.083C243.248 176.819 241.593 175.822 239.534 175.119C237.484 174.415 235.039 174.055 232.283 174.055H223.411V201.655H231.88C237.14 201.655 241.173 200.324 243.87 197.694C246.567 195.065 247.936 191.623 247.936 187.47C247.936 185.619 247.65 183.886 247.079 182.337C246.516 180.779 245.617 179.347 244.432 178.091L244.441 178.083ZM232.124 197.887H227.528V177.832H232.199C236.215 177.832 239.173 178.703 240.979 180.419C242.786 182.136 243.702 184.506 243.702 187.47C243.702 190.644 242.744 193.198 240.853 195.065C238.963 196.932 236.022 197.878 232.115 197.878L232.124 197.887Z" fill="white"/>
<path d="M256.565 174.055H252.448V201.655H256.565V174.055Z" fill="white"/>
<path d="M275.218 173.98H272.033L259.556 201.655H263.799L266.874 194.797H280.267L283.384 201.655H287.703L275.285 174.122L275.218 173.98ZM268.446 191.221L273.554 179.733L278.696 191.221H268.446Z" fill="white"/>
<path d="M310.649 174.055V194.395L293.904 174.055H290.677V201.655H294.677V181.399L311.456 201.655H314.648V174.055H310.649Z" fill="white"/>
<path d="M161.983 223.996H119.864V226.508H161.983V223.996Z" fill="#F9AA19"/>
<path d="M525.657 223.996H483.765V226.508H525.657V223.996Z" fill="#F9AA19"/>
<path d="M174.998 229.866V220.01H178.997C179.796 220.01 180.476 220.102 181.039 220.286C181.602 220.471 182.022 220.722 182.308 221.057C182.593 221.383 182.804 221.727 182.921 222.078C183.039 222.43 183.106 222.824 183.106 223.251C183.106 223.678 183.03 224.071 182.888 224.44C182.745 224.808 182.518 225.152 182.207 225.47C181.905 225.788 181.476 226.031 180.921 226.215C180.367 226.399 179.72 226.491 178.981 226.491H176.704V229.874H174.99L174.998 229.866ZM176.704 221.601V224.9H178.947C180.527 224.9 181.316 224.348 181.316 223.242C181.316 222.137 180.56 221.61 179.039 221.61H176.695L176.704 221.601Z" fill="white"/>
<path d="M185.064 229.866V220.01H188.945C189.693 220.01 190.323 220.094 190.853 220.261C191.382 220.429 191.785 220.663 192.063 220.956C192.34 221.249 192.541 221.576 192.659 221.919C192.785 222.271 192.844 222.648 192.844 223.075C192.844 223.753 192.642 224.348 192.247 224.867C191.853 225.386 191.323 225.738 190.668 225.922L193.634 229.866H191.558L188.861 226.249H186.769V229.866H185.055H185.064ZM186.778 221.618V224.649H188.996C189.643 224.649 190.155 224.507 190.525 224.231C190.895 223.954 191.08 223.569 191.08 223.083C191.08 222.598 190.92 222.254 190.592 222.003C190.265 221.752 189.71 221.626 188.92 221.626H186.786L186.778 221.618Z" fill="white"/>
<path d="M195.205 220.01H196.919V229.866H195.205V220.01Z" fill="white"/>
<path d="M206.506 229.866L201.053 223.15V229.866H199.389V220.01H200.717L206.17 226.751V220.01H207.833V229.866H206.506Z" fill="white"/>
<path d="M218.882 228.149C218.479 228.719 217.916 229.171 217.21 229.498C216.496 229.824 215.723 229.983 214.874 229.983C213.32 229.983 212.085 229.523 211.169 228.61C210.253 227.697 209.791 226.475 209.791 224.942C209.791 223.502 210.253 222.305 211.194 221.342C212.127 220.379 213.345 219.901 214.857 219.901C215.723 219.901 216.504 220.06 217.185 220.37C217.865 220.68 218.386 221.099 218.739 221.601L217.605 222.673C216.916 221.911 216.025 221.534 214.933 221.534C213.916 221.534 213.101 221.844 212.488 222.464C211.875 223.083 211.572 223.912 211.572 224.942C211.572 225.972 211.891 226.793 212.522 227.413C213.16 228.041 213.984 228.35 215 228.35C216.193 228.35 217.159 227.915 217.882 227.052L218.882 228.149Z" fill="white"/>
<path d="M220.579 220.01H227.923V221.618H222.285V224.097H227.553V225.646H222.285V228.267H228.065V229.874H220.579V220.01Z" fill="white"/>
<path d="M229.208 220.01H237.56V221.618H234.241V229.866H232.535V221.618H229.216V220.01H229.208Z" fill="white"/>
<path d="M239.467 221.35C240.442 220.379 241.643 219.893 243.063 219.893C244.483 219.893 245.684 220.37 246.659 221.333C247.634 222.296 248.121 223.494 248.121 224.934C248.121 226.374 247.634 227.572 246.651 228.535C245.668 229.498 244.475 229.975 243.063 229.975C241.651 229.975 240.45 229.498 239.475 228.543C238.501 227.588 238.005 226.383 238.005 224.942C238.005 223.502 238.492 222.33 239.467 221.358V221.35ZM240.744 227.387C241.383 228.024 242.156 228.342 243.063 228.342C243.97 228.342 244.777 228.024 245.399 227.387C246.029 226.751 246.34 225.939 246.34 224.934C246.34 223.929 246.02 223.125 245.374 222.48C244.727 221.844 243.962 221.526 243.063 221.526C242.164 221.526 241.383 221.844 240.744 222.48C240.105 223.117 239.786 223.929 239.786 224.934C239.786 225.939 240.105 226.743 240.744 227.387Z" fill="white"/>
<path d="M257.187 229.866L251.734 223.15V229.866H250.07V220.01H251.398L256.851 226.751V220.01H258.514V229.866H257.187Z" fill="white"/>
<path d="M264.816 229.866V220.01H268.815C269.613 220.01 270.294 220.102 270.857 220.286C271.42 220.471 271.84 220.722 272.126 221.057C272.411 221.383 272.621 221.727 272.739 222.078C272.857 222.43 272.924 222.824 272.924 223.251C272.924 223.678 272.848 224.071 272.705 224.44C272.563 224.808 272.336 225.152 272.025 225.47C271.722 225.788 271.294 226.031 270.739 226.215C270.185 226.399 269.538 226.491 268.798 226.491H266.521V229.874H264.807L264.816 229.866ZM266.521 221.601V224.9H268.765C270.344 224.9 271.134 224.348 271.134 223.242C271.134 222.137 270.378 221.61 268.857 221.61H266.513L266.521 221.601Z" fill="white"/>
<path d="M280.284 226.433C280.057 226.223 279.763 226.064 279.41 225.947C279.049 225.83 278.654 225.721 278.226 225.621C277.797 225.52 277.36 225.403 276.923 225.269C276.486 225.135 276.091 224.967 275.739 224.766C275.377 224.565 275.092 224.297 274.865 223.946C274.638 223.594 274.529 223.175 274.529 222.69C274.529 221.911 274.89 221.249 275.621 220.714C276.352 220.178 277.276 219.901 278.394 219.901C280.024 219.901 281.301 220.37 282.225 221.308L281.292 222.522C280.46 221.836 279.486 221.492 278.352 221.492C277.763 221.492 277.276 221.584 276.881 221.777C276.486 221.97 276.285 222.254 276.285 222.639C276.285 222.949 276.436 223.209 276.738 223.41C277.041 223.611 277.419 223.762 277.864 223.862C278.31 223.963 278.805 224.088 279.335 224.239C279.864 224.39 280.351 224.565 280.805 224.75C281.259 224.934 281.637 225.227 281.931 225.621C282.233 226.022 282.385 226.5 282.385 227.061C282.385 227.915 282.015 228.618 281.284 229.163C280.553 229.707 279.654 229.983 278.587 229.983C277.721 229.983 276.89 229.816 276.083 229.472C275.276 229.129 274.663 228.702 274.235 228.183L275.251 226.985C276.15 227.923 277.31 228.392 278.738 228.392C279.335 228.392 279.797 228.283 280.124 228.074C280.452 227.865 280.62 227.572 280.62 227.195C280.62 226.893 280.511 226.642 280.284 226.433Z" fill="white"/>
<path d="M288.879 225.595V229.866H287.174V225.595L283.2 220.002H285.317L288.048 223.929L290.829 220.002H292.879L288.879 225.595Z" fill="white"/>
<path d="M302.39 228.149C301.986 228.719 301.424 229.171 300.718 229.498C300.004 229.824 299.231 229.983 298.382 229.983C296.828 229.983 295.593 229.523 294.677 228.61C293.761 227.697 293.299 226.475 293.299 224.942C293.299 223.502 293.761 222.305 294.702 221.342C295.635 220.379 296.853 219.901 298.365 219.901C299.231 219.901 300.012 220.06 300.693 220.37C301.373 220.68 301.894 221.099 302.247 221.601L301.113 222.673C300.424 221.911 299.533 221.534 298.441 221.534C297.424 221.534 296.609 221.844 295.996 222.464C295.382 223.083 295.08 223.912 295.08 224.942C295.08 225.972 295.399 226.793 296.029 227.413C296.668 228.041 297.491 228.35 298.508 228.35C299.701 228.35 300.667 227.915 301.39 227.052L302.39 228.149Z" fill="white"/>
<path d="M310.977 225.679H305.793V229.858H304.079V220.002H305.793V224.071H310.977V220.002H312.691V229.858H310.977V225.679Z" fill="white"/>
<path d="M315.152 220.01H316.867V229.866H315.152V220.01Z" fill="white"/>
<path d="M322.672 220.01H323.975L328.31 229.866H326.512L325.554 227.68H321.051L320.101 229.866H318.337L322.672 220.01ZM321.664 226.215H324.916L323.294 222.472L321.672 226.215H321.664Z" fill="white"/>
<path d="M327.445 220.01H335.796V221.618H332.478V229.866H330.772V221.618H327.453V220.01H327.445Z" fill="white"/>
<path d="M337.283 229.866V220.01H341.165C341.913 220.01 342.543 220.094 343.072 220.261C343.602 220.429 344.005 220.663 344.282 220.956C344.56 221.249 344.761 221.576 344.879 221.919C345.005 222.271 345.064 222.648 345.064 223.075C345.064 223.753 344.862 224.348 344.467 224.867C344.072 225.386 343.543 225.738 342.888 225.922L345.854 229.866H343.778L341.081 226.249H338.989V229.866H337.275H337.283ZM338.997 221.618V224.649H341.216C341.863 224.649 342.375 224.507 342.745 224.231C343.114 223.954 343.299 223.569 343.299 223.083C343.299 222.598 343.14 222.254 342.812 222.003C342.484 221.752 341.93 221.626 341.14 221.626H339.006L338.997 221.618Z" fill="white"/>
<path d="M351.357 225.595V229.866H349.651V225.595L345.677 220.002H347.794L350.525 223.929L353.306 220.002H355.356L351.357 225.595Z" fill="white"/>
<path d="M368.421 229.866C368.211 229.715 367.8 229.355 367.178 228.786C366.329 229.59 365.287 230 364.044 230C362.884 230 361.952 229.74 361.254 229.221C360.557 228.702 360.204 228.024 360.204 227.203C360.204 226.81 360.28 226.441 360.431 226.115C360.582 225.788 360.809 225.47 361.12 225.185C361.431 224.9 361.717 224.666 361.969 224.498C362.221 224.323 362.565 224.105 363.002 223.845C362.406 223.092 362.111 222.397 362.111 221.76C362.111 221.224 362.313 220.781 362.725 220.429C363.137 220.077 363.708 219.901 364.439 219.901C365.229 219.901 365.825 220.069 366.22 220.395C366.615 220.722 366.817 221.182 366.817 221.76C366.817 222.179 366.665 222.606 366.371 223.016C366.077 223.435 365.682 223.803 365.195 224.138C365.514 224.666 366.178 225.461 367.17 226.517C367.833 225.604 368.161 224.465 368.161 223.083H369.799C369.799 223.912 369.665 224.758 369.396 225.629C369.127 226.5 368.758 227.22 368.287 227.781C368.976 228.543 369.749 229.238 370.606 229.883H368.43L368.421 229.866ZM365.195 228.233C365.548 228.082 365.808 227.89 366.002 227.655C364.968 226.491 364.246 225.646 363.851 225.11C363.153 225.545 362.674 225.889 362.406 226.148C362.137 226.408 362.002 226.701 362.002 227.044C362.002 227.421 362.187 227.747 362.557 228.041C362.926 228.334 363.439 228.468 364.111 228.468C364.489 228.468 364.851 228.392 365.195 228.242V228.233ZM364.363 223.008C364.842 222.673 365.086 222.321 365.086 221.953C365.086 221.752 365.035 221.601 364.935 221.484C364.834 221.367 364.674 221.308 364.472 221.308C364.052 221.308 363.834 221.526 363.834 221.97C363.834 222.204 364.01 222.547 364.372 223.008H364.363Z" fill="white"/>
<path d="M384.52 228.149C384.116 228.719 383.554 229.171 382.848 229.498C382.134 229.824 381.361 229.983 380.512 229.983C378.958 229.983 377.723 229.523 376.807 228.61C375.891 227.697 375.429 226.475 375.429 224.942C375.429 223.502 375.891 222.305 376.832 221.342C377.764 220.379 378.983 219.901 380.495 219.901C381.361 219.901 382.142 220.06 382.823 220.37C383.503 220.68 384.024 221.099 384.377 221.601L383.243 222.673C382.554 221.911 381.663 221.534 380.571 221.534C379.554 221.534 378.739 221.844 378.126 222.464C377.512 223.083 377.21 223.912 377.21 224.942C377.21 225.972 377.529 226.793 378.159 227.413C378.798 228.041 379.621 228.35 380.638 228.35C381.831 228.35 382.797 227.915 383.52 227.052L384.52 228.149Z" fill="white"/>
<path d="M386.788 221.35C387.763 220.379 388.964 219.893 390.384 219.893C391.804 219.893 393.006 220.37 393.98 221.333C394.955 222.296 395.442 223.494 395.442 224.934C395.442 226.374 394.955 227.572 393.972 228.535C392.989 229.498 391.796 229.975 390.384 229.975C388.973 229.975 387.771 229.498 386.797 228.543C385.822 227.588 385.326 226.383 385.326 224.942C385.326 223.502 385.814 222.33 386.788 221.358V221.35ZM388.065 227.387C388.704 228.024 389.477 228.342 390.384 228.342C391.292 228.342 392.098 228.024 392.72 227.387C393.35 226.751 393.661 225.939 393.661 224.934C393.661 223.929 393.342 223.125 392.695 222.48C392.048 221.844 391.283 221.526 390.384 221.526C389.485 221.526 388.704 221.844 388.065 222.48C387.427 223.117 387.108 223.929 387.108 224.934C387.108 225.939 387.427 226.743 388.065 227.387Z" fill="white"/>
<path d="M405.752 225.671C405.752 226.416 405.634 227.069 405.407 227.639C405.18 228.208 404.861 228.652 404.458 228.987C404.055 229.313 403.626 229.565 403.155 229.724C402.685 229.891 402.181 229.966 401.643 229.966C400.408 229.966 399.375 229.581 398.543 228.819C397.711 228.057 397.291 226.977 397.291 225.587V220.01H398.996V225.378C398.996 226.282 399.24 227.002 399.736 227.555C400.232 228.108 400.862 228.375 401.643 228.375C402.424 228.375 403.029 228.108 403.441 227.572C403.844 227.036 404.046 226.324 404.046 225.428V220.01H405.76V225.671H405.752Z" fill="white"/>
<path d="M415.254 229.866L409.801 223.15V229.866H408.138V220.01H409.465L414.918 226.751V220.01H416.582V229.866H415.254Z" fill="white"/>
<path d="M424.455 226.433C424.228 226.223 423.934 226.064 423.581 225.947C423.22 225.83 422.825 225.721 422.396 225.621C421.968 225.52 421.531 225.403 421.094 225.269C420.657 225.135 420.262 224.967 419.909 224.766C419.548 224.565 419.262 224.297 419.035 223.946C418.808 223.594 418.699 223.175 418.699 222.69C418.699 221.911 419.061 221.249 419.792 220.714C420.522 220.178 421.447 219.901 422.564 219.901C424.194 219.901 425.471 220.37 426.396 221.308L425.463 222.522C424.631 221.836 423.656 221.492 422.522 221.492C421.934 221.492 421.447 221.584 421.052 221.777C420.657 221.97 420.455 222.254 420.455 222.639C420.455 222.949 420.607 223.209 420.909 223.41C421.211 223.611 421.59 223.762 422.035 223.862C422.48 223.963 422.976 224.088 423.505 224.239C424.035 224.39 424.522 224.565 424.976 224.75C425.429 224.934 425.807 225.227 426.101 225.621C426.404 226.022 426.555 226.5 426.555 227.061C426.555 227.915 426.185 228.618 425.454 229.163C424.724 229.707 423.824 229.983 422.757 229.983C421.892 229.983 421.06 229.816 420.254 229.472C419.447 229.129 418.834 228.702 418.405 228.183L419.422 226.985C420.321 227.923 421.48 228.392 422.909 228.392C423.505 228.392 423.967 228.283 424.295 228.074C424.623 227.865 424.791 227.572 424.791 227.195C424.791 226.893 424.681 226.642 424.455 226.433Z" fill="white"/>
<path d="M428.462 220.01H435.806V221.618H430.168V224.097H435.436V225.646H430.168V228.267H435.949V229.874H428.462V220.01Z" fill="white"/>
<path d="M438.066 220.01H439.78V228.258H445.393V229.866H438.074V220.01H438.066Z" fill="white"/>
<path d="M447.006 220.01H448.72V229.866H447.006V220.01Z" fill="white"/>
<path d="M458.306 229.866L452.854 223.15V229.866H451.19V220.01H452.517L457.97 226.751V220.01H459.634V229.866H458.306Z" fill="white"/>
<path d="M466.49 224.599H470.758V228.417C470.305 228.911 469.733 229.297 469.044 229.573C468.355 229.849 467.624 229.983 466.86 229.983C465.314 229.983 464.053 229.523 463.07 228.593C462.087 227.672 461.592 226.45 461.592 224.942C461.592 223.519 462.071 222.321 463.037 221.35C463.995 220.387 465.213 219.901 466.683 219.901C467.524 219.901 468.28 220.044 468.969 220.32C469.649 220.605 470.179 220.99 470.548 221.492L469.406 222.573C468.784 221.877 467.91 221.534 466.776 221.534C465.751 221.534 464.927 221.844 464.314 222.455C463.701 223.067 463.39 223.896 463.39 224.942C463.39 225.989 463.717 226.835 464.364 227.438C465.011 228.041 465.86 228.342 466.91 228.342C467.809 228.342 468.549 228.116 469.145 227.655V226.148H466.515V224.599H466.49Z" fill="white"/>
</svg>
