<svg width="645" height="240" viewBox="0 0 645 240" fill="none" xmlns="http://www.w3.org/2000/svg">
<rect width="645" height="240" fill="white"/>
<path d="M99.3162 155C80.3982 155 65 139.522 65 120.496C65 101.469 80.3982 86 99.3162 86C118.234 86 133.606 101.478 133.606 120.496C133.606 139.513 118.225 154.991 99.3162 154.991V155ZM99.3162 89.3029C82.2061 89.3029 68.284 103.296 68.284 120.496C68.284 137.695 82.2061 151.697 99.3249 151.697C116.444 151.697 130.34 137.704 130.34 120.496C130.34 103.287 116.417 89.3029 99.3162 89.3029Z" fill="#044860"/>
<path d="M110.024 138.222L99.7267 132.881C99.5956 132.811 99.4559 132.776 99.3074 132.776C99.1677 132.776 99.0192 132.811 98.8882 132.881L88.5907 138.222C88.154 138.451 87.9706 138.978 88.1802 139.426C88.3811 139.874 88.9051 140.084 89.3593 139.9L98.9668 136.149C99.0716 136.105 99.1851 136.079 99.2987 136.079C99.4122 136.079 99.5258 136.105 99.6306 136.149L109.238 139.9C109.692 140.084 110.216 139.874 110.417 139.426C110.618 138.978 110.435 138.451 110.007 138.222H110.024Z" fill="#F9AA19"/>
<path d="M123.824 119.573L108.714 118.879C107.823 118.835 107.509 117.667 108.26 117.184L121.003 108.971C121.413 108.707 121.544 108.163 121.3 107.741C121.055 107.311 120.522 107.152 120.086 107.381L106.644 114.382C105.849 114.795 105.002 113.943 105.413 113.143L112.374 99.6155C112.601 99.1763 112.443 98.6405 112.024 98.3945H112.007C111.579 98.1398 111.037 98.2715 110.775 98.6844L102.618 111.509C102.137 112.265 100.976 111.949 100.932 111.053L100.224 95.8383C100.198 95.3464 99.7965 94.9599 99.3074 94.9599C98.8183 94.9599 98.4165 95.3464 98.3903 95.8383L97.6916 111.053C97.6479 111.949 96.4863 112.265 96.0059 111.509L87.8483 98.6844C87.5863 98.2715 87.0448 98.1398 86.6168 98.3857H86.6081C86.1888 98.6405 86.0316 99.1763 86.2587 99.6155L93.2198 113.134C93.6303 113.934 92.7831 114.786 91.9883 114.373L78.5465 107.372C78.1098 107.144 77.5771 107.302 77.3325 107.723C77.088 108.154 77.219 108.707 77.6295 108.971L90.3725 117.184C91.1236 117.667 90.8092 118.835 89.9183 118.879L74.7996 119.573C74.3105 119.6 73.9262 120.004 73.9262 120.496C73.9262 120.996 74.3105 121.4 74.7996 121.418L89.9183 122.121C90.8092 122.165 91.1236 123.333 90.3725 123.816L77.6295 132.02C77.219 132.284 77.088 132.829 77.3325 133.259C77.5771 133.698 78.1098 133.856 78.5465 133.628L98.8969 123.034C99.1589 122.894 99.4734 122.894 99.7354 123.034L120.086 133.628C120.522 133.856 121.055 133.698 121.3 133.268C121.544 132.837 121.405 132.293 120.994 132.029L108.251 123.825C107.5 123.342 107.814 122.173 108.705 122.129L123.815 121.427C124.304 121.4 124.689 120.996 124.689 120.504C124.689 120.004 124.304 119.6 123.815 119.582" fill="#F9AA19"/>
<path d="M387.436 106.599C388.737 105.097 389.401 103.287 389.401 101.232C389.401 95.3991 385.636 92.4476 378.204 92.4476H367.129V121.4H371.304V110.262H378.282L386.684 121.4H391.803L382.684 109.445C384.632 108.971 386.23 108.013 387.444 106.608L387.436 106.599ZM371.295 96.4005H378.073C382.824 96.4005 385.139 97.9817 385.139 101.232C385.139 102.787 384.545 103.99 383.322 104.912C382.09 105.835 380.405 106.309 378.317 106.309H371.295V96.4005Z" fill="#F9AA19"/>
<path d="M398.685 108.637H414.249V104.763H398.685V96.4005H415.376V92.4476H394.51V121.4H415.743V117.439H398.685V108.637Z" fill="#F9AA19"/>
<path d="M442.251 113.987C440.05 116.464 437.202 117.72 433.787 117.72C430.582 117.72 427.962 116.727 426.005 114.768C424.04 112.809 423.044 110.165 423.044 106.924C423.044 103.683 423.97 101.065 425.804 99.0885C427.63 97.1208 430.171 96.1194 433.342 96.1194C436.512 96.1194 439.316 97.2701 441.569 99.5365L441.744 99.7122L444.46 97.0681L444.329 96.8924C443.281 95.487 441.779 94.3187 439.849 93.4227C437.927 92.5267 435.709 92.0787 433.255 92.0787C428.922 92.0787 425.376 93.5105 422.712 96.3215C420.049 99.1324 418.704 102.699 418.704 106.915C418.704 111.404 420.057 115.041 422.739 117.72C425.411 120.399 429.053 121.752 433.543 121.752C435.857 121.752 438.05 121.286 440.05 120.364C442.058 119.441 443.639 118.194 444.74 116.648L444.853 116.481L442.434 113.767L442.251 113.978V113.987Z" fill="#F9AA19"/>
<path d="M460.094 92.0787C456.007 92.0787 452.504 93.5193 449.692 96.3566C446.88 99.1939 445.456 102.751 445.456 106.915C445.456 111.079 446.88 114.742 449.692 117.535C452.504 120.337 455.998 121.752 460.094 121.752C464.191 121.752 467.641 120.32 470.453 117.491C473.265 114.663 474.689 111.105 474.689 106.906C474.689 102.708 473.265 99.0797 470.453 96.2863C467.641 93.4841 464.156 92.0699 460.094 92.0699V92.0787ZM460.094 117.729C457.264 117.729 454.819 116.692 452.819 114.654C450.819 112.616 449.797 110.016 449.797 106.924C449.797 103.832 450.81 101.205 452.793 99.1763C454.784 97.1472 457.238 96.1194 460.086 96.1194C462.933 96.1194 465.317 97.1472 467.326 99.1763C469.326 101.205 470.348 103.814 470.348 106.924C470.348 110.034 469.361 112.643 467.405 114.672C465.457 116.701 462.994 117.729 460.086 117.729H460.094Z" fill="#F9AA19"/>
<path d="M489.345 115.348L478.471 92.4476H473.964L487.781 121.4H490.76L503.922 92.4476H499.529L489.345 115.348Z" fill="#F9AA19"/>
<path d="M510.289 108.637H525.844V104.763H510.289V96.4005H526.971V92.4476H506.105V121.4H527.338V117.439H510.289V108.637Z" fill="#F9AA19"/>
<path d="M552.16 106.599C553.462 105.097 554.125 103.287 554.125 101.232C554.125 95.3991 550.361 92.4476 542.928 92.4476H531.853V121.4H536.028V110.262H543.007L551.409 121.4H556.527L547.409 109.445C549.357 108.971 550.955 108.013 552.169 106.608L552.16 106.599ZM536.02 96.4005H542.797C547.549 96.4005 549.863 97.9817 549.863 101.232C549.863 102.787 549.269 103.99 548.046 104.912C546.815 105.835 545.129 106.309 543.042 106.309H536.02V96.4005Z" fill="#F9AA19"/>
<path d="M576.126 92.4476L567.41 106.01L558.894 92.5618L558.815 92.4476H553.741L565.218 110.446V121.4H569.392V110.446L581 92.4476H576.126Z" fill="#F9AA19"/>
<path d="M236.598 140.524H157.363V143.159H236.598V140.524Z" fill="#F9AA19"/>
<path d="M569.462 140.524H490.192V143.159H569.462V140.524Z" fill="#F9AA19"/>
<path d="M160.21 110.218H168.01V115.418C166.114 116.947 163.739 117.729 160.944 117.729C157.738 117.729 155.101 116.745 153.092 114.812C151.092 112.88 150.079 110.227 150.079 106.924C150.079 103.621 151.057 101.065 152.996 99.0973C154.935 97.1208 157.511 96.1282 160.656 96.1282C164.071 96.1282 166.734 97.1647 168.595 99.2115L168.778 99.4135L171.416 96.664L171.276 96.4884C168.944 93.5632 165.293 92.0875 160.411 92.0875C156.262 92.0875 152.742 93.5369 149.948 96.3917C147.153 99.2466 145.738 102.795 145.738 106.933C145.738 111.369 147.17 114.997 150 117.702C152.821 120.408 156.481 121.778 160.856 121.778C162.953 121.778 165.031 121.383 167.031 120.601C169.04 119.819 170.691 118.739 171.949 117.386L172.019 117.316V106.362H160.201V110.236L160.21 110.218Z" fill="#044860"/>
<path d="M195.967 108.549C195.967 111.404 195.304 113.67 194.002 115.304C192.71 116.912 190.806 117.729 188.334 117.729C185.862 117.729 183.923 116.903 182.351 115.269C180.779 113.635 179.975 111.307 179.975 108.356V92.4476H175.8V108.874C175.8 112.941 177.006 116.13 179.399 118.361C181.783 120.592 184.788 121.717 188.334 121.717C191.565 121.717 194.36 120.645 196.666 118.546C198.972 116.429 200.142 113.257 200.142 109.111V92.4476H195.967V108.549Z" fill="#044860"/>
<path d="M213.383 92.3686L200.762 121.4H205.068L208.178 114.206H221.715L224.868 121.4H229.253L216.693 92.5179L216.632 92.3686H213.383ZM220.117 110.446H209.767L214.92 98.4121L220.117 110.446Z" fill="#044860"/>
<path d="M256.32 121.4L247.201 109.445C249.149 108.971 250.747 108.013 251.961 106.608C253.263 105.106 253.918 103.296 253.918 101.241C253.918 95.4079 250.154 92.4564 242.721 92.4564H231.637V121.409H235.812V110.271H242.791L251.193 121.409H256.311L256.32 121.4ZM235.821 96.4005H242.599C247.35 96.4005 249.664 97.9817 249.664 101.232C249.664 102.787 249.07 103.99 247.848 104.912C246.616 105.835 244.939 106.309 242.843 106.309H235.821V96.4005Z" fill="#044860"/>
<path d="M280.321 96.6728C279.116 95.3464 277.439 94.3011 275.351 93.5544C273.273 92.8166 270.801 92.4388 268.015 92.4388H259.036V121.392H267.613C272.941 121.392 277.02 119.995 279.753 117.237C282.478 114.478 283.867 110.868 283.867 106.511C283.867 104.57 283.579 102.751 283.002 101.126C282.426 99.4926 281.526 97.9905 280.321 96.6728ZM267.849 117.439H263.211V96.4005H267.927C271.989 96.4005 274.976 97.3141 276.801 99.1148C278.627 100.916 279.552 103.402 279.552 106.511C279.552 109.84 278.583 112.52 276.67 114.487C274.757 116.446 271.788 117.439 267.84 117.439H267.849Z" fill="#044860"/>
<path d="M291.981 92.4476H287.806V121.4H291.981V92.4476Z" fill="#044860"/>
<path d="M301.798 114.206H315.327L318.48 121.4H322.865L310.305 92.5179L310.244 92.3686H307.004L294.383 121.4H298.689L301.798 114.206ZM303.388 110.446L308.541 98.4121L313.738 110.446H303.388Z" fill="#044860"/>
<path d="M329.31 100.16L346.281 121.4H349.521V92.4476H345.46V113.767L328.542 92.4476H325.258V121.4H329.31V100.16Z" fill="#044860"/>
<path d="M251.796 135.903H249.682V148.201H251.796V135.903Z" fill="#044860"/>
<path d="M261.089 141.613L256.722 135.903H254.852V148.201H256.966V139.663L260.774 144.564H261.316L265.036 139.68V148.201H267.15V135.903H265.298L261.089 141.613Z" fill="#044860"/>
<path d="M276.443 141.613L272.076 135.903H270.207V148.201H272.321V139.663L276.129 144.564H276.67L280.391 139.68V148.201H282.505V135.903H280.653L276.443 141.613Z" fill="#044860"/>
<path d="M287.675 142.93H294.191V140.998H287.675V137.906H294.645V135.903H285.561V148.201H294.82V146.198H287.675V142.93Z" fill="#044860"/>
<path d="M306.331 141.964C306.82 141.323 307.065 140.576 307.065 139.733C307.065 139.206 306.986 138.723 306.838 138.292C306.689 137.862 306.436 137.458 306.095 137.089C305.755 136.72 305.257 136.43 304.602 136.219C303.947 136.009 303.161 135.903 302.243 135.903H297.44V148.201H299.553V143.686H302.139L305.475 148.201H308.043L304.375 143.282C305.187 143.045 305.842 142.605 306.331 141.964ZM302.296 141.683H299.553V137.906H302.191C303.169 137.906 303.859 138.064 304.261 138.38C304.663 138.696 304.864 139.144 304.864 139.733C304.864 140.322 304.637 140.822 304.182 141.165C303.728 141.507 303.099 141.683 302.296 141.683Z" fill="#044860"/>
<path d="M317.301 141.815C316.742 141.587 316.139 141.376 315.484 141.182C314.829 140.989 314.227 140.831 313.668 140.708C313.109 140.585 312.646 140.401 312.27 140.146C311.895 139.891 311.711 139.575 311.711 139.188C311.711 138.705 311.956 138.345 312.445 138.108C312.934 137.871 313.537 137.748 314.262 137.748C315.659 137.748 316.873 138.178 317.895 139.03L319.048 137.519C317.904 136.351 316.332 135.763 314.314 135.763C312.925 135.763 311.781 136.096 310.881 136.773C309.982 137.449 309.528 138.266 309.528 139.241C309.528 139.847 309.667 140.374 309.947 140.813C310.226 141.253 310.585 141.595 311.03 141.841C311.475 142.087 311.965 142.298 312.497 142.465C313.03 142.632 313.572 142.781 314.104 142.904C314.637 143.027 315.126 143.159 315.572 143.308C316.017 143.458 316.375 143.66 316.655 143.914C316.934 144.169 317.074 144.485 317.074 144.863C317.074 145.329 316.873 145.698 316.463 145.961C316.052 146.225 315.484 146.356 314.751 146.356C312.978 146.356 311.545 145.768 310.436 144.599L309.178 146.093C309.711 146.734 310.48 147.27 311.467 147.7C312.454 148.131 313.484 148.342 314.559 148.342C315.877 148.342 316.987 147.999 317.895 147.323C318.803 146.646 319.257 145.768 319.257 144.705C319.257 144.002 319.074 143.405 318.698 142.904C318.323 142.403 317.86 142.043 317.301 141.815Z" fill="#044860"/>
<path d="M323.729 135.903H321.616V148.201H323.729V135.903Z" fill="#044860"/>
<path d="M332.393 135.763C330.638 135.763 329.153 136.369 327.948 137.581C326.743 138.793 326.14 140.286 326.14 142.052C326.14 143.818 326.743 145.355 327.957 146.55C329.171 147.744 330.647 148.342 332.393 148.342C334.14 148.342 335.616 147.744 336.83 146.541C338.044 145.337 338.647 143.844 338.647 142.052C338.647 140.26 338.044 138.749 336.839 137.555C335.634 136.36 334.149 135.763 332.393 135.763ZM335.284 145.118C334.507 145.908 333.546 146.304 332.393 146.304C331.241 146.304 330.324 145.908 329.529 145.109C328.734 144.31 328.341 143.291 328.341 142.052C328.341 140.813 328.734 139.777 329.529 138.986C330.324 138.196 331.276 137.801 332.393 137.801C333.511 137.801 334.455 138.196 335.25 138.995C336.044 139.795 336.446 140.813 336.446 142.052C336.446 143.291 336.062 144.327 335.284 145.118Z" fill="#044860"/>
<path d="M349.442 144.318L342.7 135.903H341.058V148.201H343.119V139.821L349.862 148.201H351.504V135.903H349.442V144.318Z" fill="#044860"/>
<path d="M368.186 141.964C368.675 141.323 368.919 140.576 368.919 139.733C368.919 139.206 368.841 138.723 368.692 138.292C368.544 137.862 368.29 137.458 367.95 137.089C367.609 136.72 367.111 136.43 366.456 136.219C365.801 136.009 365.015 135.903 364.098 135.903H359.294V148.201H361.408V143.686H363.993L367.33 148.201H369.898L366.229 143.282C367.042 143.045 367.697 142.605 368.186 141.964ZM364.151 141.683H361.408V137.906H364.046C365.024 137.906 365.714 138.064 366.116 138.38C366.518 138.696 366.718 139.144 366.718 139.733C366.718 140.322 366.491 140.822 366.037 141.165C365.583 141.507 364.954 141.683 364.151 141.683Z" fill="#044860"/>
<path d="M373.95 142.93H380.466V140.998H373.95V137.906H380.92V135.903H371.837V148.201H381.095V146.198H373.95V142.93Z" fill="#044860"/>
<path d="M391.034 141.815C390.475 141.587 389.872 141.376 389.217 141.182C388.562 140.989 387.96 140.831 387.401 140.708C386.842 140.585 386.379 140.401 386.003 140.146C385.628 139.891 385.444 139.575 385.444 139.188C385.444 138.705 385.689 138.345 386.178 138.108C386.667 137.871 387.27 137.748 387.995 137.748C389.392 137.748 390.606 138.178 391.628 139.03L392.781 137.519C391.637 136.351 390.065 135.763 388.047 135.763C386.658 135.763 385.514 136.096 384.615 136.773C383.715 137.449 383.261 138.266 383.261 139.241C383.261 139.847 383.4 140.374 383.68 140.813C383.959 141.253 384.318 141.595 384.763 141.841C385.208 142.087 385.698 142.298 386.23 142.465C386.763 142.632 387.305 142.781 387.837 142.904C388.37 143.027 388.859 143.159 389.305 143.308C389.75 143.458 390.108 143.66 390.388 143.914C390.667 144.169 390.807 144.485 390.807 144.863C390.807 145.329 390.606 145.698 390.196 145.961C389.785 146.225 389.217 146.356 388.484 146.356C386.711 146.356 385.278 145.768 384.169 144.599L382.911 146.093C383.444 146.734 384.213 147.27 385.2 147.7C386.187 148.131 387.217 148.342 388.292 148.342C389.61 148.342 390.72 147.999 391.628 147.323C392.536 146.646 392.99 145.768 392.99 144.705C392.99 144.002 392.807 143.405 392.431 142.904C392.056 142.403 391.593 142.043 391.034 141.815Z" fill="#044860"/>
<path d="M397.462 135.903H395.349V148.201H397.462V135.903Z" fill="#044860"/>
<path d="M409.707 137.704C409.183 137.133 408.467 136.694 407.55 136.377C406.633 136.061 405.568 135.903 404.345 135.903H400.519V148.201H404.118C406.485 148.201 408.258 147.621 409.445 146.453C410.633 145.285 411.227 143.765 411.227 141.894C411.227 141.051 411.105 140.286 410.86 139.592C410.616 138.899 410.232 138.275 409.707 137.704ZM407.865 145.047C407.087 145.812 405.891 146.198 404.275 146.198H402.633V137.906H404.31C407.454 137.906 409.026 139.232 409.026 141.894C409.026 143.229 408.642 144.283 407.865 145.047Z" fill="#044860"/>
<path d="M415.751 142.93H422.267V140.998H415.751V137.906H422.721V135.903H413.638V148.201H422.896V146.198H415.751V142.93Z" fill="#044860"/>
<path d="M433.901 144.318L427.158 135.903H425.516V148.201H427.577V139.821L434.32 148.201H435.962V135.903H433.901V144.318Z" fill="#044860"/>
<path d="M437.805 137.906H441.919V148.201H444.032V137.906H448.137V135.903H437.805V137.906Z" fill="#044860"/>
<path d="M452.094 135.903H449.98V148.201H452.094V135.903Z" fill="#044860"/>
<path d="M459.282 135.903L453.919 148.201H456.103L457.273 145.478H462.846L464.033 148.201H466.252L460.889 135.903H459.282ZM458.042 143.651L460.051 138.978L462.059 143.651H458.042Z" fill="#044860"/>
<path d="M470.182 146.198V135.903H468.06V148.201H477.117V146.198H470.182Z" fill="#044860"/>
</svg>
