<svg width="645" height="300" viewBox="0 0 645 300" fill="none" xmlns="http://www.w3.org/2000/svg">
<rect width="645" height="300" fill="#083045"/>
<path d="M181.879 222.46H119.864V224.959H181.879V222.46Z" fill="#F9AA19"/>
<path d="M525.842 222.46H463.28V224.959H525.842V222.46Z" fill="#F9AA19"/>
<path d="M322.202 148.5C300.365 148.5 282.603 130.896 282.603 109.25C282.603 87.6047 300.365 70 322.202 70C344.039 70 361.775 87.6047 361.775 109.25C361.775 130.896 344.022 148.5 322.202 148.5ZM322.202 73.1327C302.104 73.1327 285.762 89.3376 285.762 109.25C285.762 129.163 302.113 145.368 322.202 145.368C342.291 145.368 358.616 129.163 358.616 109.25C358.616 89.3376 342.274 73.1327 322.202 73.1327Z" fill="white"/>
<path d="M334.654 129.579L322.681 123.447C322.529 123.372 322.361 123.331 322.193 123.331C322.025 123.331 321.857 123.372 321.706 123.447L309.733 129.579C309.229 129.838 309.019 130.446 309.254 130.962C309.49 131.479 310.094 131.72 310.624 131.504L321.807 127.205C321.933 127.155 322.067 127.13 322.202 127.13C322.336 127.13 322.471 127.155 322.597 127.205L333.78 131.504C334.309 131.72 334.914 131.479 335.149 130.962C335.385 130.446 335.175 129.838 334.67 129.579H334.654Z" fill="#F9AA19"/>
<path d="M350.71 108.184L333.133 107.392C332.091 107.342 331.73 106.001 332.604 105.451L347.433 96.0279C347.912 95.728 348.063 95.1031 347.786 94.6115C347.5 94.12 346.879 93.9367 346.374 94.195L330.73 102.218C329.806 102.693 328.814 101.71 329.293 100.794L337.393 85.2802C337.653 84.7803 337.477 84.1637 336.981 83.8804H336.964C336.468 83.5888 335.838 83.7388 335.536 84.2137L326.042 98.9273C325.479 99.7938 324.126 99.4355 324.084 98.4107L323.269 80.9561C323.244 80.3895 322.773 79.9479 322.202 79.9479H322.193C321.622 79.9479 321.152 80.3895 321.126 80.9561L320.32 98.4024C320.269 99.4355 318.917 99.7938 318.362 98.919L308.868 84.2054C308.557 83.7305 307.927 83.5805 307.439 83.8638H307.423C306.935 84.1554 306.75 84.7719 307.011 85.2718L315.119 100.785C315.598 101.702 314.606 102.685 313.682 102.21L298.046 94.1783C297.542 93.92 296.92 94.095 296.634 94.5865C296.349 95.0864 296.5 95.7113 296.979 96.0196L311.808 105.443C312.682 106.001 312.321 107.342 311.279 107.384L293.694 108.175C293.122 108.2 292.677 108.667 292.677 109.233C292.677 109.808 293.122 110.267 293.694 110.3L311.279 111.1C312.321 111.15 312.682 112.491 311.8 113.041L296.97 122.456C296.492 122.764 296.34 123.389 296.626 123.872V123.889C296.92 124.372 297.542 124.555 298.046 124.297L321.723 112.141C322.034 111.983 322.395 111.983 322.706 112.141L346.383 124.297C346.887 124.555 347.517 124.372 347.794 123.88C348.072 123.389 347.92 122.764 347.442 122.464L332.612 113.049C331.738 112.491 332.099 111.15 333.141 111.108L350.718 110.308C351.29 110.283 351.735 109.817 351.735 109.25C351.735 108.675 351.29 108.217 350.718 108.184H350.71Z" fill="#F9AA19"/>
<path d="M350.794 185.968C352.046 184.543 352.684 182.826 352.684 180.877C352.684 175.345 349.063 172.545 341.913 172.545H331.251V200.006H335.267V189.442H341.98L350.063 200.006H354.987L346.215 188.659C348.089 188.209 349.626 187.301 350.794 185.968ZM335.267 176.295H341.787C346.358 176.295 348.584 177.794 348.584 180.877C348.584 182.352 348.013 183.493 346.837 184.368C345.652 185.243 344.039 185.693 342.022 185.693H335.267V176.295Z" fill="#F9AA19"/>
<path d="M361.624 187.9H376.588V184.218H361.624V176.295H377.672V172.545H357.6V199.998H378.025V196.249H361.624V187.9Z" fill="#F9AA19"/>
<path d="M403.534 192.974C401.416 195.324 398.677 196.515 395.392 196.515C392.308 196.515 389.788 195.574 387.906 193.716C386.024 191.858 385.057 189.35 385.057 186.276C385.057 183.201 385.948 180.719 387.713 178.844C389.469 176.978 391.905 176.028 394.963 176.028C398.022 176.028 400.71 177.119 402.878 179.269L403.046 179.436L405.659 176.928L405.533 176.761C404.525 175.428 403.08 174.32 401.223 173.47C399.375 172.62 397.24 172.195 394.879 172.195C390.712 172.195 387.301 173.553 384.738 176.22C382.176 178.886 380.882 182.268 380.882 186.267C380.882 190.525 382.184 193.974 384.763 196.515C387.334 199.056 390.838 200.34 395.157 200.34C397.383 200.34 399.492 199.898 401.416 199.023C403.349 198.148 404.87 196.965 405.928 195.499L406.037 195.341L403.71 192.766L403.534 192.966V192.974Z" fill="#F9AA19"/>
<path d="M420.691 172.195C416.758 172.195 413.389 173.562 410.684 176.253C407.978 178.944 406.609 182.318 406.609 186.267C406.609 190.217 407.978 193.691 410.684 196.34C413.389 198.998 416.75 200.34 420.691 200.34C424.631 200.34 427.95 198.981 430.655 196.299C433.361 193.616 434.73 190.242 434.73 186.259C434.73 182.277 433.361 178.836 430.655 176.186C427.95 173.528 424.597 172.187 420.691 172.187V172.195ZM420.691 196.515C417.968 196.515 415.616 195.532 413.692 193.599C411.768 191.666 410.785 189.2 410.785 186.267C410.785 183.335 411.759 180.844 413.666 178.919C415.582 176.994 417.943 176.02 420.691 176.02C423.438 176.02 425.723 176.994 427.656 178.919C429.58 180.844 430.563 183.318 430.563 186.267C430.563 189.217 429.613 191.691 427.731 193.616C425.858 195.541 423.488 196.515 420.691 196.515Z" fill="#F9AA19"/>
<path d="M448.829 194.257L438.436 172.679L438.377 172.545H434.033L447.325 199.998H450.19L462.701 172.879L462.852 172.545H458.626L448.829 194.257Z" fill="#F9AA19"/>
<path d="M468.977 187.9H483.941V184.218H468.977V176.295H485.025V172.545H464.952V199.998H485.378V196.249H468.977V187.9Z" fill="#F9AA19"/>
<path d="M509.265 185.968C510.517 184.543 511.155 182.826 511.155 180.877C511.155 175.345 507.534 172.545 500.384 172.545H489.73V200.006H493.746V189.442H500.46L508.475 199.906L508.542 199.998H513.466L504.694 188.65C506.568 188.2 508.105 187.292 509.273 185.959L509.265 185.968ZM493.729 176.295H500.249C504.82 176.295 507.047 177.794 507.047 180.877C507.047 182.352 506.475 183.493 505.299 184.368C504.114 185.243 502.493 185.693 500.485 185.693H493.729V176.295Z" fill="#F9AA19"/>
<path d="M532.312 172.545L523.926 185.409L515.734 172.654L515.667 172.545H510.777L521.818 189.617V199.998H525.842V189.617L537 172.545H532.312Z" fill="#F9AA19"/>
<path d="M201.498 226.951L197.364 218.202H195.163L200.767 229.867H202.212L207.522 218.202H205.371L201.498 226.951Z" fill="white"/>
<path d="M211.211 218.202H209.178V229.867H211.211V218.202Z" fill="white"/>
<path d="M222.713 223.951C223.184 223.343 223.419 222.635 223.419 221.835C223.419 221.335 223.343 220.877 223.201 220.469C223.058 220.06 222.814 219.677 222.486 219.327C222.159 218.977 221.68 218.702 221.05 218.502C220.419 218.302 219.663 218.202 218.781 218.202H214.16V229.867H216.193V225.584H218.68L221.89 229.867H224.36L220.831 225.201C221.613 224.976 222.243 224.559 222.713 223.951ZM218.831 223.685H216.193V220.102H218.731C219.672 220.102 220.335 220.252 220.722 220.552C221.108 220.852 221.302 221.277 221.302 221.835C221.302 222.393 221.083 222.868 220.646 223.193C220.209 223.518 219.604 223.685 218.831 223.685Z" fill="white"/>
<path d="M224.268 220.102H228.217V229.867H230.25V220.102H234.207V218.202H224.268V220.102Z" fill="white"/>
<path d="M243.895 224.618C243.895 225.676 243.651 226.517 243.172 227.151C242.693 227.784 241.979 228.1 241.038 228.1C240.097 228.1 239.349 227.775 238.77 227.126C238.19 226.476 237.896 225.618 237.896 224.551V218.202H235.862V224.801C235.862 226.442 236.358 227.717 237.35 228.625C238.341 229.533 239.568 229.983 241.038 229.983C241.677 229.983 242.273 229.883 242.836 229.692C243.399 229.5 243.912 229.208 244.39 228.817C244.869 228.425 245.239 227.9 245.516 227.226C245.794 226.551 245.928 225.776 245.928 224.901V218.202H243.895V224.618Z" fill="white"/>
<path d="M252.734 218.202L247.575 229.867H249.675L250.801 227.284H256.162L257.304 229.867H259.439L254.28 218.202H252.734ZM251.541 225.551L253.473 221.119L255.406 225.551H251.541Z" fill="white"/>
<path d="M263.219 218.202H261.186V229.867H269.899V227.967H263.219V218.202Z" fill="white"/>
<path d="M281.368 228.067C280.158 228.067 279.175 227.7 278.419 226.959C277.663 226.217 277.284 225.243 277.284 224.035C277.284 222.827 277.646 221.835 278.377 221.102C279.108 220.369 280.074 220.002 281.284 220.002C282.586 220.002 283.645 220.452 284.46 221.352L285.804 220.085C285.392 219.486 284.771 219.002 283.956 218.627C283.141 218.252 282.216 218.069 281.183 218.069C279.393 218.069 277.94 218.636 276.831 219.777C275.722 220.919 275.167 222.335 275.167 224.035C275.167 225.843 275.713 227.292 276.806 228.375C277.898 229.458 279.368 230 281.217 230C282.225 230 283.149 229.808 283.998 229.425C284.846 229.042 285.51 228.509 285.989 227.834L284.796 226.534C283.93 227.559 282.788 228.067 281.368 228.067Z" fill="white"/>
<path d="M292.963 218.069C291.274 218.069 289.846 218.644 288.686 219.794C287.527 220.944 286.947 222.36 286.947 224.035C286.947 225.709 287.527 227.167 288.694 228.3C289.862 229.433 291.282 230 292.963 230C294.643 230 296.063 229.433 297.231 228.292C298.399 227.151 298.979 225.734 298.979 224.035C298.979 222.335 298.399 220.902 297.239 219.769C296.08 218.636 294.652 218.069 292.963 218.069ZM295.752 226.942C295.004 227.692 294.08 228.067 292.971 228.067C291.862 228.067 290.98 227.692 290.215 226.934C289.451 226.176 289.073 225.209 289.073 224.035C289.073 222.86 289.451 221.877 290.215 221.127C290.98 220.377 291.896 220.002 292.971 220.002C294.047 220.002 294.954 220.377 295.719 221.135C296.483 221.893 296.87 222.86 296.87 224.035C296.87 225.209 296.5 226.192 295.752 226.942Z" fill="white"/>
<path d="M309.221 224.618C309.221 225.676 308.977 226.517 308.498 227.151C308.019 227.784 307.305 228.1 306.364 228.1C305.423 228.1 304.675 227.775 304.095 227.126C303.516 226.476 303.222 225.618 303.222 224.551V218.202H301.188V224.801C301.188 226.442 301.684 227.717 302.675 228.625C303.667 229.533 304.894 229.983 306.364 229.983C307.003 229.983 307.599 229.883 308.162 229.692C308.725 229.5 309.237 229.208 309.716 228.817C310.195 228.425 310.565 227.9 310.842 227.226C311.12 226.551 311.254 225.776 311.254 224.901V218.202H309.221V224.618Z" fill="white"/>
<path d="M322.151 226.184L315.665 218.202H314.085V229.867H316.068V221.918L322.563 229.867H324.143V218.202H322.151V226.184Z" fill="white"/>
<path d="M334.116 223.81C333.578 223.593 332.998 223.393 332.368 223.21C331.738 223.026 331.158 222.876 330.621 222.76C330.083 222.643 329.638 222.468 329.276 222.227C328.915 221.985 328.739 221.685 328.739 221.318C328.739 220.86 328.974 220.519 329.444 220.294C329.915 220.069 330.495 219.952 331.192 219.952C332.536 219.952 333.704 220.36 334.687 221.169L335.796 219.735C334.696 218.627 333.183 218.069 331.242 218.069C329.906 218.069 328.806 218.386 327.94 219.027C327.075 219.669 326.638 220.444 326.638 221.368C326.638 221.943 326.773 222.443 327.041 222.86C327.31 223.276 327.655 223.601 328.083 223.835C328.512 224.068 328.982 224.268 329.495 224.426C330.007 224.584 330.528 224.726 331.041 224.843C331.553 224.959 332.024 225.084 332.452 225.226C332.881 225.368 333.225 225.559 333.494 225.801C333.763 226.042 333.897 226.342 333.897 226.701C333.897 227.142 333.704 227.492 333.309 227.742C332.914 227.992 332.368 228.117 331.663 228.117C329.957 228.117 328.579 227.559 327.512 226.451L326.302 227.867C326.815 228.475 327.554 228.984 328.503 229.392C329.453 229.8 330.444 230 331.478 230C332.746 230 333.813 229.675 334.687 229.034C335.561 228.392 335.998 227.559 335.998 226.551C335.998 225.884 335.822 225.318 335.46 224.843C335.099 224.368 334.654 224.026 334.116 223.81Z" fill="white"/>
<path d="M340.3 224.868H346.568V223.035H340.3V220.102H347.005V218.202H338.266V229.867H347.173V227.967H340.3V224.868Z" fill="white"/>
<path d="M351.727 218.202H349.693V229.867H358.406V227.967H351.727V218.202Z" fill="white"/>
<path d="M362.364 218.202H360.33V229.867H362.364V218.202Z" fill="white"/>
<path d="M373.37 226.184L366.884 218.202H365.304V229.867H367.287V221.918L373.774 229.867H375.353V218.202H373.37V226.184Z" fill="white"/>
<path d="M383.503 225.468H386.629V227.251C385.923 227.792 385.041 228.067 383.974 228.067C382.73 228.067 381.722 227.709 380.949 226.992C380.176 226.276 379.789 225.293 379.789 224.035C379.789 222.777 380.159 221.818 380.89 221.094C381.621 220.369 382.604 220.002 383.822 220.002C385.167 220.002 386.209 220.41 386.948 221.235L388.309 219.952C387.872 219.361 387.25 218.902 386.435 218.569C385.62 218.236 384.721 218.069 383.722 218.069C381.974 218.069 380.529 218.644 379.386 219.785C378.243 220.927 377.672 222.343 377.672 224.035C377.672 225.826 378.26 227.267 379.428 228.359C380.596 229.45 382.1 230 383.94 230C384.847 230 385.713 229.842 386.536 229.517C387.36 229.192 388.04 228.742 388.578 228.15V223.635H383.503V225.468Z" fill="white"/>
<path d="M401.45 223.618L397.249 218.202H395.451V229.867H397.484V221.768L401.147 226.417H401.668L405.248 221.785V229.867H407.281V218.202H405.5L401.45 223.618Z" fill="white"/>
<path d="M414.187 218.202L409.028 229.867H411.129L412.255 227.284H417.615L418.758 229.867H420.892L415.733 218.202H414.187ZM412.994 225.551L414.927 221.119L416.859 225.551H412.994Z" fill="white"/>
<path d="M424.673 218.202H422.64V229.867H424.673V218.202Z" fill="white"/>
<path d="M435.68 226.184L429.193 218.202H427.614V229.867H429.597V221.918L436.083 229.867H437.663V218.202H435.68V226.184Z" fill="white"/>
<path d="M442.637 227.967V224.868H448.905V223.035H442.637V220.102H449.341V218.202H440.603V229.867H449.51V227.967H442.637Z" fill="white"/>
<path d="M131.022 189.4V194.324C129.148 195.774 126.796 196.515 124.031 196.515C120.864 196.515 118.251 195.582 116.268 193.749C114.293 191.916 113.285 189.4 113.285 186.276C113.285 183.151 114.26 180.727 116.167 178.852C118.074 176.978 120.628 176.028 123.746 176.028C127.123 176.028 129.761 177.011 131.601 178.961L131.77 179.144L134.374 176.544L134.231 176.378C131.929 173.612 128.316 172.204 123.502 172.204C119.41 172.204 115.932 173.578 113.167 176.278C110.403 178.986 109 182.352 109 186.276C109 190.492 110.42 193.924 113.209 196.49C115.999 199.048 119.612 200.348 123.939 200.348C126.006 200.348 128.064 199.973 130.039 199.231C132.022 198.49 133.66 197.465 134.903 196.19L134.971 196.124V185.726H123.3V189.4H131.022Z" fill="white"/>
<path d="M159.261 187.817C159.261 190.525 158.606 192.674 157.32 194.216C156.043 195.74 154.153 196.524 151.716 196.524C149.279 196.524 147.355 195.74 145.793 194.182C144.238 192.633 143.448 190.425 143.448 187.625V172.545H139.331V188.125C139.331 191.983 140.524 195.007 142.885 197.132C145.238 199.248 148.204 200.315 151.716 200.315C154.909 200.315 157.673 199.298 159.942 197.307C162.219 195.307 163.378 192.291 163.378 188.359V172.545H159.261V187.817Z" fill="white"/>
<path d="M180.266 172.462H177.082L164.605 199.998H168.848L171.923 193.174H185.316L188.433 199.998H192.752L180.333 172.604L180.266 172.462ZM173.494 189.617L178.603 178.186L183.745 189.617H173.494Z" fill="white"/>
<path d="M199.843 189.442H206.758L215.067 200.006H220.117L211.102 188.667C213.026 188.217 214.605 187.309 215.807 185.976C217.092 184.551 217.748 182.835 217.748 180.885C217.748 175.353 214.026 172.554 206.682 172.554H195.734V200.015H199.851V189.45L199.843 189.442ZM199.843 176.295H206.556C211.261 176.295 213.547 177.794 213.547 180.877C213.547 182.352 212.958 183.493 211.749 184.368C210.53 185.243 208.867 185.693 206.8 185.693H199.851V176.303L199.843 176.295Z" fill="white"/>
<path d="M243.87 196.057C246.567 193.441 247.936 190.017 247.936 185.884C247.936 184.043 247.65 182.318 247.079 180.777C246.516 179.227 245.617 177.803 244.432 176.553C243.239 175.295 241.584 174.303 239.526 173.603C237.476 172.904 235.031 172.545 232.275 172.545H223.402V200.006H231.871C237.131 200.006 241.164 198.682 243.861 196.065L243.87 196.057ZM232.124 196.249H227.528V176.295H232.199C236.215 176.295 239.173 177.161 240.979 178.869C242.786 180.577 243.702 182.935 243.702 185.884C243.702 189.042 242.744 191.583 240.853 193.441C238.963 195.299 236.022 196.24 232.115 196.24L232.124 196.249Z" fill="white"/>
<path d="M256.565 172.545H252.448V200.006H256.565V172.545Z" fill="white"/>
<path d="M266.866 193.183H280.259L283.376 200.006H287.695L275.276 172.612L275.209 172.47H272.025L259.548 200.006H263.791L266.866 193.183ZM268.437 189.617L273.546 178.186L278.688 189.617H268.437Z" fill="white"/>
<path d="M314.648 172.545H310.649V192.774L293.904 172.545H290.677V199.998H294.677V179.844L311.456 199.998H314.648V172.545Z" fill="white"/>
</svg>
