<svg width="645" height="240" viewBox="0 0 645 240" fill="none" xmlns="http://www.w3.org/2000/svg">
<rect width="645" height="240" fill="#083045"/>
<path d="M99.3162 155C80.3982 155 65 139.522 65 120.496C65 101.469 80.3982 86 99.3162 86C118.234 86 133.615 101.478 133.615 120.496C133.615 139.513 118.234 154.991 99.3162 154.991V155ZM99.3162 89.3029C82.2061 89.3029 68.284 103.296 68.284 120.496C68.284 137.695 82.2061 151.697 99.3162 151.697C116.426 151.697 130.331 137.704 130.331 120.496C130.331 103.287 116.417 89.3029 99.3162 89.3029Z" fill="white"/>
<path d="M110.024 138.222L99.7267 132.881C99.5956 132.811 99.4559 132.776 99.3074 132.776C99.1677 132.776 99.0192 132.811 98.8882 132.881L88.5907 138.222C88.154 138.451 87.9706 138.978 88.1802 139.426C88.3811 139.874 88.9051 140.084 89.3593 139.9L98.9668 136.149C99.0716 136.105 99.1851 136.079 99.2987 136.079C99.4122 136.079 99.5258 136.105 99.6306 136.149L109.238 139.9C109.692 140.084 110.216 139.874 110.417 139.426C110.618 138.978 110.435 138.451 110.007 138.222H110.024Z" fill="#F9AA19"/>
<path d="M123.824 119.573L108.714 118.879C107.823 118.835 107.509 117.667 108.26 117.184L121.003 108.971C121.413 108.707 121.544 108.163 121.3 107.741C121.055 107.311 120.522 107.152 120.086 107.381L106.644 114.382C105.849 114.795 105.002 113.943 105.413 113.143L112.374 99.6155C112.601 99.1763 112.443 98.6405 112.024 98.3945H112.007C111.579 98.1398 111.037 98.2715 110.775 98.6844L102.618 111.509C102.137 112.265 100.976 111.949 100.932 111.053L100.224 95.8383C100.198 95.3464 99.7965 94.9599 99.3074 94.9599C98.8183 94.9599 98.4165 95.3464 98.3903 95.8383L97.6916 111.053C97.6479 111.949 96.4863 112.265 96.0059 111.509L87.8483 98.6844C87.5863 98.2715 87.0448 98.1398 86.6168 98.3857H86.6081C86.1889 98.6405 86.0316 99.1763 86.2587 99.6155L93.2198 113.134C93.6303 113.934 92.7831 114.786 91.9883 114.373L78.5465 107.372C78.1098 107.144 77.5771 107.302 77.3325 107.723C77.088 108.154 77.219 108.707 77.6295 108.971L90.3725 117.184C91.1236 117.667 90.8092 118.835 89.9183 118.879L74.7996 119.573C74.3105 119.6 73.9262 120.004 73.9262 120.496C73.9262 120.996 74.3105 121.4 74.7996 121.418L89.9183 122.121C90.8092 122.165 91.1236 123.333 90.3725 123.816L77.6295 132.02C77.219 132.284 77.088 132.829 77.3325 133.259C77.5771 133.698 78.1098 133.856 78.5465 133.628L98.8969 123.034C99.1589 122.894 99.4734 122.894 99.7354 123.034L120.086 133.628C120.522 133.856 121.055 133.698 121.3 133.268C121.544 132.837 121.405 132.293 120.994 132.029L108.251 123.825C107.5 123.342 107.814 122.173 108.705 122.129L123.815 121.427C124.304 121.4 124.689 120.996 124.689 120.504C124.689 120.004 124.304 119.6 123.815 119.582" fill="#F9AA19"/>
<path d="M160.21 110.218H168.01V115.419C166.114 116.947 163.739 117.729 160.944 117.729C157.738 117.729 155.101 116.745 153.092 114.812C151.092 112.88 150.079 110.227 150.079 106.924C150.079 103.621 151.057 101.065 152.996 99.0974C154.935 97.121 157.511 96.1284 160.656 96.1284C164.071 96.1284 166.734 97.1649 168.595 99.2204L168.778 99.4225L171.416 96.673L171.276 96.4973C168.944 93.5722 165.293 92.0964 160.411 92.0964C156.262 92.0964 152.742 93.5458 149.948 96.4007C147.153 99.2556 145.738 102.804 145.738 106.942C145.738 111.378 147.17 115.006 150 117.711C152.821 120.417 156.481 121.787 160.856 121.787C162.953 121.787 165.031 121.392 167.031 120.61C169.04 119.828 170.691 118.748 171.949 117.395L172.019 117.325V106.371H160.201V110.245L160.21 110.218Z" fill="white"/>
<path d="M195.967 108.549C195.967 111.404 195.304 113.67 194.002 115.304C192.71 116.912 190.806 117.729 188.334 117.729C185.862 117.729 183.923 116.903 182.351 115.269C180.779 113.635 179.975 111.307 179.975 108.356V92.4476H175.8V108.874C175.8 112.941 177.006 116.13 179.399 118.361C181.783 120.592 184.788 121.717 188.334 121.717C191.565 121.717 194.36 120.645 196.666 118.546C198.972 116.429 200.142 113.257 200.142 109.111V92.4476H195.967V108.549Z" fill="white"/>
<path d="M213.383 92.3686L200.762 121.4H205.068L208.178 114.206H221.715L224.868 121.4H229.253L216.693 92.5179L216.632 92.3686H213.383ZM209.767 110.446L214.92 98.4121L220.117 110.446H209.767Z" fill="white"/>
<path d="M251.961 106.599C253.263 105.097 253.918 103.287 253.918 101.232C253.918 95.3991 250.154 92.4476 242.721 92.4476H231.637V121.4H235.812V110.262H242.791L251.193 121.4H256.311L247.193 109.445C249.14 108.971 250.739 108.013 251.953 106.608L251.961 106.599ZM235.821 96.4093H242.599C247.35 96.4093 249.664 97.9905 249.664 101.241C249.664 102.795 249.07 103.999 247.848 104.921C246.616 105.844 244.939 106.318 242.843 106.318H235.821V96.4093Z" fill="white"/>
<path d="M280.321 96.6728C279.116 95.3464 277.439 94.3011 275.351 93.5544C273.273 92.8165 270.801 92.4388 268.015 92.4388H259.036V121.392H267.613C272.941 121.392 277.02 119.995 279.753 117.237C282.478 114.478 283.867 110.868 283.867 106.511C283.867 104.57 283.579 102.751 283.002 101.126C282.426 99.4926 281.526 97.9905 280.321 96.6728ZM276.688 114.487C274.775 116.446 271.805 117.439 267.857 117.439H263.22V96.4005H267.936C271.997 96.4005 274.984 97.3141 276.81 99.1148C278.635 100.916 279.561 103.402 279.561 106.511C279.561 109.84 278.592 112.52 276.679 114.487H276.688Z" fill="white"/>
<path d="M291.981 92.4476H287.806V121.4H291.981V92.4476Z" fill="white"/>
<path d="M310.235 92.3686H306.995L294.374 121.4H298.68L301.789 114.206H315.318L318.471 121.4H322.856L310.296 92.5179L310.235 92.3686ZM303.379 110.446L308.532 98.4121L313.729 110.446H303.379Z" fill="white"/>
<path d="M345.46 92.4476V113.767L328.533 92.4476H325.258V121.4H329.31V100.16L346.281 121.4H349.512V92.4476H345.46Z" fill="white"/>
<path d="M387.436 106.599C388.737 105.097 389.401 103.287 389.401 101.232C389.401 95.3991 385.636 92.4476 378.204 92.4476H367.129V121.4H371.304V110.262H378.282L386.685 121.4H391.803L382.684 109.445C384.632 108.971 386.23 108.013 387.444 106.608L387.436 106.599ZM371.295 96.4093H378.073C382.824 96.4093 385.139 97.9905 385.139 101.241C385.139 102.795 384.545 103.999 383.322 104.921C382.09 105.844 380.405 106.318 378.317 106.318H371.295V96.4093Z" fill="#F9AA19"/>
<path d="M398.685 108.637H414.24V104.763H398.685V96.4005H415.376V92.4476H394.51V121.4H415.734V117.439H398.685V108.637Z" fill="#F9AA19"/>
<path d="M442.251 113.987C440.05 116.464 437.202 117.72 433.787 117.72C430.582 117.72 427.962 116.727 426.005 114.768C424.04 112.809 423.044 110.165 423.044 106.924C423.044 103.683 423.97 101.065 425.804 99.0885C427.63 97.1208 430.171 96.1194 433.342 96.1194C436.512 96.1194 439.316 97.2701 441.569 99.5453L441.744 99.7209L444.46 97.0769L444.329 96.9012C443.281 95.4957 441.779 94.3274 439.849 93.4314C437.927 92.5355 435.709 92.0875 433.255 92.0875C428.922 92.0875 425.376 93.5193 422.712 96.3302C420.049 99.1412 418.704 102.708 418.704 106.924C418.704 111.413 420.057 115.049 422.739 117.729C425.411 120.408 429.053 121.761 433.543 121.761C435.857 121.761 438.05 121.295 440.05 120.373C442.058 119.45 443.639 118.203 444.74 116.657L444.853 116.49L442.434 113.776L442.251 113.987Z" fill="#F9AA19"/>
<path d="M460.094 92.0787C456.007 92.0787 452.504 93.5193 449.692 96.3566C446.88 99.1939 445.456 102.751 445.456 106.915C445.456 111.079 446.88 114.742 449.692 117.535C452.504 120.337 455.998 121.752 460.094 121.752C464.191 121.752 467.641 120.32 470.453 117.491C473.265 114.663 474.689 111.105 474.689 106.906C474.689 102.708 473.265 99.0797 470.453 96.2863C467.641 93.4841 464.156 92.0699 460.094 92.0699V92.0787ZM467.413 114.672C465.466 116.701 463.003 117.729 460.094 117.729C457.186 117.729 454.819 116.692 452.819 114.654C450.819 112.616 449.797 110.016 449.797 106.924C449.797 103.832 450.81 101.205 452.793 99.1763C454.784 97.1472 457.238 96.1194 460.086 96.1194C462.933 96.1194 465.317 97.1472 467.326 99.1763C469.326 101.205 470.348 103.814 470.348 106.924C470.348 110.034 469.361 112.643 467.405 114.672H467.413Z" fill="#F9AA19"/>
<path d="M489.336 115.348L478.471 92.4476H473.955L487.703 121.251L487.773 121.4H490.76L503.922 92.4476H499.529L489.336 115.348Z" fill="#F9AA19"/>
<path d="M510.28 108.637H525.836V104.763H510.28V96.4005H526.971V92.4476H506.105V121.4H527.338V117.439H510.28V108.637Z" fill="#F9AA19"/>
<path d="M552.16 106.599C553.461 105.097 554.125 103.287 554.125 101.232C554.125 95.3991 550.361 92.4476 542.928 92.4476H531.853V121.4H536.028V110.262H543.007L551.409 121.4H556.527L547.409 109.445C549.356 108.971 550.955 108.013 552.169 106.608L552.16 106.599ZM536.02 96.4093H542.797C547.548 96.4093 549.863 97.9905 549.863 101.241C549.863 102.795 549.269 103.999 548.046 104.921C546.815 105.844 545.129 106.318 543.042 106.318H536.02V96.4093Z" fill="#F9AA19"/>
<path d="M576.118 92.4476L567.41 106.01L558.815 92.4476H553.732L565.218 110.446V121.4H569.392V110.446L581 92.4476H576.118Z" fill="#F9AA19"/>
<path d="M212.178 147.402V137.063H216.335C217.165 137.063 217.872 137.159 218.458 137.353C219.043 137.546 219.479 137.809 219.776 138.161C220.073 138.503 220.292 138.863 220.414 139.232C220.545 139.601 220.606 140.014 220.606 140.462C220.606 140.91 220.528 141.323 220.379 141.709C220.231 142.096 219.995 142.456 219.672 142.79C219.357 143.124 218.912 143.378 218.335 143.572C217.759 143.765 217.086 143.862 216.318 143.862H213.951V147.41H212.169L212.178 147.402ZM213.96 138.732V142.184H216.292C217.934 142.184 218.755 141.604 218.755 140.445C218.755 139.285 217.968 138.732 216.388 138.732H213.951H213.96Z" fill="white"/>
<path d="M223.392 138.468C224.405 137.449 225.654 136.94 227.131 136.94C228.607 136.94 229.856 137.44 230.869 138.451C231.882 139.461 232.388 140.717 232.388 142.228C232.388 143.739 231.882 144.995 230.86 146.005C229.838 147.015 228.598 147.516 227.131 147.516C225.663 147.516 224.414 147.015 223.401 146.014C222.388 145.012 221.873 143.747 221.873 142.237C221.873 140.726 222.379 139.496 223.392 138.477V138.468ZM224.72 144.802C225.384 145.469 226.187 145.803 227.131 145.803C228.074 145.803 228.912 145.469 229.559 144.802C230.214 144.134 230.537 143.282 230.537 142.228C230.537 141.174 230.205 140.33 229.532 139.654C228.86 138.986 228.065 138.653 227.131 138.653C226.196 138.653 225.384 138.986 224.72 139.645C224.056 140.313 223.724 141.165 223.724 142.219C223.724 143.273 224.056 144.116 224.72 144.793V144.802Z" fill="white"/>
<path d="M234.415 147.402V137.063H238.45C239.227 137.063 239.882 137.15 240.432 137.326C240.983 137.502 241.402 137.748 241.69 138.055C241.978 138.363 242.188 138.705 242.31 139.065C242.433 139.426 242.502 139.83 242.502 140.278C242.502 140.989 242.293 141.613 241.882 142.157C241.472 142.702 240.922 143.071 240.24 143.264L243.323 147.402H241.166L238.363 143.607H236.188V147.402H234.406H234.415ZM236.188 138.74V141.92H238.494C239.166 141.92 239.699 141.771 240.083 141.481C240.467 141.191 240.66 140.787 240.66 140.278C240.66 139.768 240.494 139.408 240.153 139.144C239.812 138.881 239.236 138.749 238.415 138.749H236.196L236.188 138.74Z" fill="white"/>
<path d="M243.254 137.063H251.935V138.749H248.485V147.402H246.712V138.749H243.262V137.063H243.254Z" fill="white"/>
<path d="M253.481 137.063H255.263V145.715H261.097V147.402H253.49V137.063H253.481Z" fill="white"/>
<path d="M266.242 137.063H267.595L272.102 147.402H270.233L269.237 145.109H264.556L263.569 147.402H261.735L266.242 137.063ZM265.202 143.572H268.582L266.897 139.645L265.211 143.572H265.202Z" fill="white"/>
<path d="M281.028 147.402L275.36 140.357V147.402H273.631V137.063H275.011L280.679 144.134V137.063H282.408V147.402H281.028Z" fill="white"/>
<path d="M284.976 137.063H288.19C289.221 137.063 290.121 137.194 290.889 137.458C291.658 137.721 292.26 138.099 292.706 138.574C293.143 139.048 293.475 139.584 293.675 140.163C293.876 140.743 293.981 141.393 293.981 142.096C293.981 143.668 293.483 144.951 292.488 145.926C291.492 146.901 289.998 147.393 288.007 147.393H284.985V137.054L284.976 137.063ZM286.758 138.74V145.715H288.138C289.501 145.715 290.505 145.39 291.16 144.749C291.815 144.108 292.138 143.22 292.138 142.096C292.138 139.865 290.819 138.74 288.173 138.74H286.758Z" fill="white"/>
<path d="M299.981 147.402V137.063H304.139C304.969 137.063 305.676 137.159 306.261 137.353C306.846 137.546 307.283 137.809 307.58 138.161C307.877 138.503 308.095 138.863 308.218 139.232C308.349 139.601 308.41 140.014 308.41 140.462C308.41 140.91 308.331 141.323 308.183 141.709C308.034 142.096 307.798 142.456 307.475 142.79C307.161 143.124 306.715 143.378 306.139 143.572C305.562 143.765 304.89 143.862 304.121 143.862H301.754V147.41H299.973L299.981 147.402ZM301.763 138.732V142.184H304.095C305.737 142.184 306.558 141.604 306.558 140.445C306.558 139.285 305.772 138.732 304.191 138.732H301.754H301.763Z" fill="white"/>
<path d="M316.061 143.8C315.825 143.581 315.519 143.414 315.152 143.291C314.777 143.168 314.366 143.054 313.921 142.948C313.467 142.843 313.021 142.72 312.567 142.579C312.113 142.439 311.702 142.263 311.336 142.052C310.96 141.841 310.663 141.56 310.427 141.191C310.191 140.823 310.078 140.383 310.078 139.874C310.078 139.057 310.454 138.363 311.213 137.801C311.973 137.239 312.934 136.949 314.096 136.949C315.79 136.949 317.118 137.441 318.078 138.424L317.109 139.698C316.244 138.978 315.231 138.618 314.052 138.618C313.441 138.618 312.934 138.723 312.523 138.916C312.113 139.11 311.903 139.417 311.903 139.821C311.903 140.146 312.061 140.418 312.375 140.629C312.689 140.84 313.082 140.998 313.545 141.104C314.017 141.209 314.524 141.341 315.074 141.499C315.624 141.666 316.131 141.841 316.602 142.035C317.074 142.228 317.467 142.535 317.773 142.948C318.087 143.37 318.244 143.871 318.244 144.459C318.244 145.355 317.86 146.093 317.1 146.655C316.34 147.226 315.406 147.516 314.297 147.516C313.397 147.516 312.532 147.332 311.694 146.98C310.864 146.62 310.218 146.172 309.772 145.627L310.829 144.371C311.764 145.355 312.969 145.847 314.454 145.847C315.074 145.847 315.554 145.733 315.895 145.513C316.235 145.294 316.41 144.986 316.41 144.591C316.41 144.275 316.297 144.011 316.061 143.792V143.8Z" fill="white"/>
<path d="M325.004 142.922V147.393H323.231V142.922L319.1 137.054H321.301L324.14 141.174L327.031 137.054H329.162L325.004 142.922Z" fill="white"/>
<path d="M339.04 145.601C338.621 146.198 338.036 146.673 337.302 147.015C336.56 147.358 335.756 147.525 334.874 147.525C333.258 147.525 331.974 147.042 331.022 146.084C330.07 145.127 329.59 143.844 329.59 142.237C329.59 140.726 330.07 139.47 331.048 138.46C332.018 137.449 333.284 136.949 334.857 136.949C335.756 136.949 336.568 137.116 337.276 137.441C337.992 137.774 338.525 138.205 338.892 138.732L337.713 139.856C336.996 139.057 336.071 138.662 334.935 138.662C333.878 138.662 333.031 138.987 332.393 139.637C331.756 140.287 331.441 141.156 331.441 142.237C331.441 143.317 331.773 144.178 332.428 144.828C333.092 145.487 333.948 145.812 335.005 145.812C336.245 145.812 337.25 145.355 338.001 144.45L339.04 145.601Z" fill="white"/>
<path d="M347.966 143.01H342.577V147.393H340.796V137.054H342.577V141.323H347.966V137.054H349.748V147.393H347.966V143.01Z" fill="white"/>
<path d="M352.316 137.063H354.098V147.402H352.316V137.063Z" fill="white"/>
<path d="M360.124 137.063H361.478L365.985 147.402H364.116L363.12 145.109H358.439L357.452 147.402H355.617L360.124 137.063ZM359.085 143.572H362.465L360.779 139.645L359.094 143.572H359.085Z" fill="white"/>
<path d="M365.085 137.063H373.767V138.749H370.317V147.402H368.544V138.749H365.094V137.063H365.085Z" fill="white"/>
<path d="M375.321 147.402V137.063H379.357C380.134 137.063 380.789 137.15 381.339 137.326C381.889 137.502 382.309 137.748 382.597 138.055C382.885 138.363 383.095 138.705 383.217 139.065C383.339 139.426 383.409 139.83 383.409 140.278C383.409 140.989 383.2 141.613 382.789 142.157C382.379 142.702 381.828 143.071 381.147 143.264L384.23 147.402H382.073L379.269 143.607H377.094V147.402H375.313H375.321ZM377.103 138.74V141.92H379.409C380.081 141.92 380.614 141.771 380.999 141.481C381.383 141.191 381.575 140.787 381.575 140.278C381.575 139.768 381.409 139.408 381.068 139.144C380.728 138.881 380.151 138.749 379.33 138.749H377.112L377.103 138.74Z" fill="white"/>
<path d="M389.951 142.922V147.393H388.178V142.922L384.047 137.054H386.248L389.086 141.174L391.977 137.054H394.108L389.951 142.922Z" fill="white"/>
<path d="M407.681 147.402C407.463 147.244 407.035 146.866 406.389 146.269C405.506 147.112 404.423 147.542 403.131 147.542C401.925 147.542 400.956 147.27 400.231 146.726C399.506 146.181 399.139 145.469 399.139 144.609C399.139 144.196 399.218 143.809 399.375 143.467C399.532 143.115 399.768 142.79 400.091 142.492C400.414 142.193 400.711 141.947 400.973 141.771C401.235 141.596 401.594 141.358 402.048 141.086C401.428 140.295 401.122 139.566 401.122 138.899C401.122 138.337 401.332 137.871 401.759 137.502C402.187 137.133 402.781 136.949 403.541 136.949C404.362 136.949 404.982 137.124 405.393 137.467C405.803 137.81 406.013 138.293 406.013 138.899C406.013 139.338 405.856 139.786 405.55 140.216C405.244 140.656 404.834 141.042 404.327 141.393C404.659 141.947 405.349 142.781 406.38 143.888C407.07 142.931 407.41 141.727 407.41 140.287H409.114C409.114 141.156 408.974 142.044 408.694 142.957C408.415 143.871 408.031 144.626 407.541 145.215C408.258 146.014 409.061 146.743 409.952 147.411H407.69L407.681 147.402ZM404.336 145.689C404.703 145.531 404.974 145.329 405.174 145.083C404.1 143.862 403.349 142.975 402.939 142.412C402.214 142.869 401.716 143.229 401.436 143.502C401.157 143.774 401.017 144.081 401.017 144.442C401.017 144.837 401.209 145.179 401.594 145.487C401.978 145.794 402.511 145.935 403.209 145.935C403.602 145.935 403.978 145.856 404.336 145.698V145.689ZM403.471 140.208C403.969 139.856 404.223 139.487 404.223 139.101C404.223 138.89 404.17 138.732 404.065 138.609C403.96 138.486 403.795 138.424 403.585 138.424C403.148 138.424 402.921 138.653 402.921 139.118C402.921 139.364 403.105 139.724 403.48 140.208H403.471Z" fill="white"/>
<path d="M424.424 145.601C424.005 146.198 423.42 146.673 422.686 147.015C421.944 147.358 421.14 147.525 420.258 147.525C418.642 147.525 417.359 147.042 416.407 146.084C415.454 145.127 414.974 143.844 414.974 142.237C414.974 140.726 415.454 139.47 416.433 138.46C417.402 137.449 418.669 136.949 420.241 136.949C421.14 136.949 421.953 137.116 422.66 137.441C423.376 137.774 423.909 138.205 424.276 138.732L423.097 139.856C422.381 139.057 421.455 138.662 420.319 138.662C419.263 138.662 418.415 138.987 417.778 139.637C417.14 140.287 416.826 141.156 416.826 142.237C416.826 143.317 417.158 144.178 417.813 144.828C418.477 145.487 419.332 145.812 420.389 145.812C421.629 145.812 422.634 145.355 423.385 144.45L424.424 145.601Z" fill="white"/>
<path d="M426.783 138.468C427.796 137.449 429.045 136.94 430.521 136.94C431.997 136.94 433.246 137.44 434.259 138.451C435.272 139.461 435.779 140.717 435.779 142.228C435.779 143.739 435.272 144.995 434.25 146.005C433.228 147.015 431.988 147.516 430.521 147.516C429.053 147.516 427.804 147.015 426.791 146.014C425.778 145.012 425.263 143.747 425.263 142.237C425.263 140.726 425.769 139.496 426.783 138.477V138.468ZM428.11 144.802C428.774 145.469 429.577 145.803 430.521 145.803C431.464 145.803 432.302 145.469 432.949 144.802C433.604 144.134 433.927 143.282 433.927 142.228C433.927 141.174 433.595 140.33 432.923 139.654C432.25 138.986 431.455 138.653 430.521 138.653C429.586 138.653 428.774 138.986 428.11 139.645C427.446 140.313 427.114 141.165 427.114 142.219C427.114 143.273 427.446 144.116 428.11 144.793V144.802Z" fill="white"/>
<path d="M446.495 143.001C446.495 143.783 446.373 144.468 446.137 145.065C445.901 145.662 445.57 146.128 445.15 146.479C444.731 146.822 444.286 147.085 443.797 147.252C443.307 147.428 442.783 147.507 442.224 147.507C440.941 147.507 439.866 147.103 439.002 146.304C438.137 145.504 437.7 144.371 437.7 142.913V137.063H439.473V142.693C439.473 143.642 439.727 144.397 440.242 144.977C440.748 145.557 441.412 145.838 442.224 145.838C443.037 145.838 443.666 145.557 444.094 144.995C444.513 144.433 444.722 143.686 444.722 142.746V137.063H446.504V143.001H446.495Z" fill="white"/>
<path d="M456.374 147.402L450.705 140.357V147.402H448.976V137.063H450.356L456.024 144.134V137.063H457.754V147.402H456.374Z" fill="white"/>
<path d="M465.929 143.8C465.693 143.581 465.387 143.414 465.02 143.291C464.645 143.168 464.234 143.054 463.789 142.948C463.335 142.843 462.889 142.72 462.435 142.579C461.981 142.439 461.57 142.263 461.204 142.052C460.828 141.841 460.531 141.56 460.295 141.191C460.059 140.823 459.946 140.383 459.946 139.874C459.946 139.057 460.321 138.363 461.081 137.801C461.841 137.239 462.802 136.949 463.964 136.949C465.658 136.949 466.986 137.441 467.946 138.424L466.977 139.698C466.112 138.978 465.099 138.618 463.92 138.618C463.308 138.618 462.802 138.723 462.391 138.916C461.981 139.11 461.771 139.417 461.771 139.821C461.771 140.146 461.928 140.418 462.243 140.629C462.557 140.84 462.95 140.998 463.413 141.104C463.885 141.209 464.391 141.341 464.942 141.499C465.492 141.666 465.999 141.841 466.47 142.035C466.942 142.228 467.335 142.535 467.641 142.948C467.955 143.37 468.112 143.871 468.112 144.459C468.112 145.355 467.728 146.093 466.968 146.655C466.208 147.226 465.274 147.516 464.164 147.516C463.265 147.516 462.4 147.332 461.562 146.98C460.732 146.62 460.086 146.172 459.64 145.627L460.697 144.371C461.632 145.355 462.837 145.847 464.322 145.847C464.942 145.847 465.422 145.733 465.763 145.513C466.103 145.294 466.278 144.986 466.278 144.591C466.278 144.275 466.164 144.011 465.929 143.792V143.8Z" fill="white"/>
<path d="M470.104 137.063H477.737V138.749H471.877V141.349H477.353V142.974H471.877V145.724H477.886V147.41H470.104V137.063Z" fill="white"/>
<path d="M480.087 137.063H481.868V145.715H487.703V147.402H480.095V137.063H480.087Z" fill="white"/>
<path d="M489.38 137.063H491.161V147.402H489.38V137.063Z" fill="white"/>
<path d="M501.127 147.402L495.459 140.357V147.402H493.729V137.063H495.109L500.778 144.134V137.063H502.507V147.402H501.127Z" fill="white"/>
<path d="M509.625 141.877H514.062V145.882C513.59 146.4 512.997 146.805 512.28 147.094C511.564 147.384 510.804 147.525 510.009 147.525C508.402 147.525 507.092 147.042 506.07 146.067C505.049 145.1 504.533 143.818 504.533 142.237C504.533 140.743 505.031 139.487 506.035 138.468C507.031 137.458 508.298 136.949 509.826 136.949C510.699 136.949 511.486 137.098 512.202 137.388C512.918 137.678 513.459 138.091 513.844 138.618L512.656 139.751C512.01 139.022 511.101 138.662 509.922 138.662C508.857 138.662 508.001 138.987 507.363 139.628C506.725 140.269 506.402 141.139 506.402 142.237C506.402 143.335 506.743 144.222 507.415 144.854C508.088 145.487 508.97 145.803 510.062 145.803C510.996 145.803 511.765 145.557 512.385 145.083V143.502H509.651V141.877H509.625Z" fill="white"/>
<path d="M197.199 140.629H157.363V143.264H197.199V140.629Z" fill="#F9AA19"/>
<path d="M569.349 140.629H529.041V143.264H569.349V140.629Z" fill="#F9AA19"/>
</svg>
