<svg width="645" height="300" viewBox="0 0 645 300" fill="none" xmlns="http://www.w3.org/2000/svg">
<rect width="645" height="300" fill="white"/>
<path d="M322.202 149.401C300.365 149.401 282.603 131.819 282.603 110.2C282.603 88.5824 300.365 71 322.202 71C344.039 71 361.775 88.5824 361.775 110.2C361.775 131.819 344.022 149.401 322.202 149.401ZM322.202 74.1287C302.104 74.1287 285.762 90.3131 285.762 110.2C285.762 130.088 302.113 146.272 322.202 146.272C342.291 146.272 358.616 130.088 358.616 110.2C358.616 90.3131 342.274 74.1287 322.202 74.1287Z" fill="#044860"/>
<path d="M334.654 130.504L322.681 124.38C322.529 124.305 322.361 124.263 322.193 124.263C322.025 124.263 321.857 124.305 321.706 124.38L309.733 130.504C309.229 130.762 309.019 131.369 309.254 131.885C309.49 132.401 310.094 132.642 310.624 132.426L321.807 128.132C321.933 128.082 322.067 128.057 322.202 128.057C322.336 128.057 322.471 128.082 322.597 128.132L333.78 132.426C334.309 132.642 334.914 132.401 335.149 131.885C335.385 131.369 335.175 130.762 334.67 130.504H334.654Z" fill="#F9AA19"/>
<path d="M350.71 109.135L333.133 108.345C332.091 108.295 331.73 106.955 332.604 106.406L347.433 96.9949C347.912 96.6954 348.063 96.0713 347.786 95.5804C347.5 95.0894 346.879 94.9064 346.374 95.1643L330.73 103.177C329.806 103.652 328.814 102.67 329.293 101.755L337.393 86.2608C337.653 85.7615 337.477 85.1458 336.981 84.8629H336.964C336.468 84.5716 335.838 84.7214 335.536 85.1957L326.042 99.8907C325.479 100.756 324.126 100.398 324.084 99.3748L323.269 81.9422C323.244 81.3763 322.773 80.9353 322.202 80.9353H322.193C321.622 80.9353 321.152 81.3763 321.126 81.9422L320.32 99.3664C320.269 100.398 318.917 100.756 318.362 99.8823L308.868 85.1874C308.557 84.7131 307.927 84.5633 307.439 84.8462H307.423C306.935 85.1375 306.75 85.7532 307.011 86.2525L315.119 101.746C315.598 102.662 314.606 103.643 313.682 103.169L298.046 95.1477C297.542 94.8897 296.92 95.0645 296.634 95.5554C296.349 96.0547 296.5 96.6787 296.979 96.9866L311.808 106.398C312.682 106.955 312.321 108.295 311.279 108.337L293.694 109.127C293.122 109.152 292.677 109.618 292.677 110.184C292.677 110.758 293.122 111.216 293.694 111.249L311.279 112.048C312.321 112.098 312.682 113.437 311.8 113.987L296.97 123.389C296.492 123.697 296.34 124.321 296.626 124.804V124.821C296.92 125.303 297.542 125.486 298.046 125.228L321.723 113.088C322.034 112.93 322.395 112.93 322.706 113.088L346.383 125.228C346.887 125.486 347.517 125.303 347.794 124.812C348.072 124.321 347.92 123.697 347.442 123.398L332.612 113.995C331.738 113.437 332.099 112.098 333.141 112.056L350.718 111.257C351.29 111.232 351.735 110.766 351.735 110.2C351.735 109.626 351.29 109.169 350.718 109.135H350.71Z" fill="#F9AA19"/>
<path d="M350.794 186.821C352.046 185.398 352.684 183.684 352.684 181.736C352.684 176.211 349.063 173.415 341.913 173.415H331.251V200.842H335.267V190.29H341.98L350.063 200.842H354.987L346.215 189.517C348.089 189.067 349.626 188.16 350.794 186.829V186.821ZM335.267 177.16H341.787C346.358 177.16 348.584 178.658 348.584 181.736C348.584 183.209 348.013 184.349 346.837 185.223C345.652 186.097 344.039 186.546 342.022 186.546H335.267V177.16Z" fill="#F9AA19"/>
<path d="M361.616 188.751H376.588V185.073H361.616V177.16H377.672V173.415H357.6V200.833H378.025V197.089H361.616V188.751Z" fill="#F9AA19"/>
<path d="M403.525 193.819C401.408 196.165 398.669 197.355 395.384 197.355C392.3 197.355 389.779 196.415 387.897 194.559C386.015 192.704 385.049 190.199 385.049 187.128C385.049 184.058 385.94 181.578 387.704 179.706C389.46 177.842 391.897 176.894 394.955 176.894C398.013 176.894 400.702 177.984 402.87 180.139L403.038 180.305L405.651 177.801L405.525 177.634C404.517 176.303 403.071 175.196 401.215 174.347C399.366 173.499 397.232 173.074 394.871 173.074C390.704 173.074 387.292 174.431 384.73 177.093C382.167 179.756 380.873 183.134 380.873 187.128C380.873 191.381 382.176 194.825 384.755 197.363C387.326 199.901 390.83 201.183 395.148 201.183C397.375 201.183 399.484 200.742 401.408 199.868C403.34 198.994 404.861 197.813 405.92 196.348L406.029 196.19L403.702 193.619L403.525 193.819Z" fill="#F9AA19"/>
<path d="M420.691 173.066C416.758 173.066 413.389 174.431 410.684 177.118C407.978 179.806 406.609 183.176 406.609 187.12C406.609 191.064 407.978 194.534 410.684 197.18C413.389 199.835 416.75 201.174 420.691 201.174C424.631 201.174 427.95 199.818 430.655 197.139C433.361 194.459 434.73 191.089 434.73 187.112C434.73 183.134 433.361 179.698 430.655 177.052C427.95 174.397 424.597 173.058 420.691 173.058V173.066ZM427.731 194.468C425.858 196.39 423.488 197.363 420.691 197.363C417.893 197.363 415.616 196.382 413.692 194.451C411.768 192.521 410.785 190.058 410.785 187.128C410.785 184.199 411.759 181.712 413.666 179.789C415.582 177.867 417.943 176.894 420.691 176.894C423.438 176.894 425.723 177.867 427.656 179.789C429.58 181.712 430.563 184.183 430.563 187.128C430.563 190.074 429.613 192.546 427.731 194.468Z" fill="#F9AA19"/>
<path d="M448.829 195.1L438.436 173.549L438.377 173.415H434.033L447.258 200.7L447.325 200.833H450.19L462.701 173.748L462.852 173.415H458.626L448.829 195.1Z" fill="#F9AA19"/>
<path d="M468.977 188.751H483.941V185.073H468.977V177.16H485.025V173.415H464.952V200.833H485.378V197.089H468.977V188.751Z" fill="#F9AA19"/>
<path d="M509.265 186.821C510.517 185.398 511.155 183.684 511.155 181.736C511.155 176.211 507.534 173.415 500.384 173.415H489.73V200.842H493.746V190.29H500.46L508.475 200.742L508.542 200.833H513.466L504.694 189.508C506.568 189.059 508.105 188.152 509.273 186.821H509.265ZM493.729 177.16H500.249C504.82 177.16 507.047 178.658 507.047 181.736C507.047 183.209 506.475 184.349 505.299 185.223C504.114 186.097 502.493 186.546 500.485 186.546H493.729V177.16Z" fill="#F9AA19"/>
<path d="M532.312 173.415L523.926 186.255L515.659 173.415H510.777L521.818 190.465V200.833H525.842V190.465L537 173.415H532.312Z" fill="#F9AA19"/>
<path d="M123.309 190.249H131.022V195.167C129.148 196.614 126.796 197.355 124.031 197.355C120.864 197.355 118.251 196.423 116.268 194.592C114.293 192.762 113.285 190.249 113.285 187.128C113.285 184.008 114.26 181.587 116.167 179.714C118.083 177.842 120.628 176.894 123.746 176.894C127.123 176.894 129.761 177.875 131.601 179.823L131.77 180.006L134.374 177.41L134.231 177.243C131.929 174.481 128.316 173.074 123.502 173.074C119.41 173.074 115.932 174.447 113.167 177.143C110.403 179.848 109 183.209 109 187.128C109 191.339 110.42 194.767 113.209 197.33C115.999 199.885 119.612 201.183 123.939 201.183C126.006 201.183 128.056 200.808 130.039 200.068C132.022 199.327 133.66 198.304 134.903 197.031L134.971 196.964V186.579H123.309V190.249Z" fill="#044860"/>
<path d="M159.261 188.66C159.261 191.364 158.606 193.511 157.32 195.05C156.043 196.573 154.153 197.355 151.716 197.355C149.279 197.355 147.355 196.573 145.793 195.017C144.23 193.461 143.448 191.264 143.448 188.468V173.407H139.331V188.967C139.331 192.82 140.524 195.841 142.885 197.962C145.238 200.076 148.204 201.141 151.716 201.141C154.9 201.141 157.673 200.134 159.942 198.137C162.219 196.132 163.378 193.128 163.378 189.2V173.407H159.261V188.66Z" fill="#044860"/>
<path d="M180.266 173.332H177.082L164.605 200.833H168.848L171.923 194.018H185.316L188.433 200.833H192.752L180.333 173.474L180.266 173.332ZM173.494 190.465L178.603 179.049L183.745 190.465H173.494Z" fill="#044860"/>
<path d="M215.807 186.821C217.092 185.398 217.748 183.684 217.748 181.736C217.748 176.211 214.026 173.415 206.682 173.415H195.734V200.842H199.851V190.29H206.766L215.076 200.842H220.125L211.11 189.517C213.034 189.067 214.614 188.16 215.815 186.829L215.807 186.821ZM199.843 186.538V177.16H206.556C211.261 177.16 213.547 178.658 213.547 181.736C213.547 183.209 212.958 184.349 211.749 185.223C210.53 186.097 208.867 186.546 206.8 186.546H199.851L199.843 186.538Z" fill="#044860"/>
<path d="M244.441 177.41C243.248 176.153 241.593 175.163 239.534 174.464C237.484 173.765 235.039 173.407 232.283 173.407H223.411V200.833H231.88C237.14 200.833 241.173 199.51 243.87 196.897C246.567 194.285 247.936 190.865 247.936 186.737C247.936 184.898 247.65 183.176 247.079 181.637C246.516 180.089 245.617 178.666 244.432 177.418L244.441 177.41ZM240.862 194.285C238.971 196.14 236.03 197.08 232.124 197.08H227.528V177.152H232.199C236.215 177.152 239.173 178.017 240.979 179.723C242.786 181.429 243.702 183.783 243.702 186.729C243.702 189.883 242.744 192.421 240.853 194.276L240.862 194.285Z" fill="#044860"/>
<path d="M256.565 173.407H252.448V200.833H256.565V173.407Z" fill="#044860"/>
<path d="M275.218 173.332H272.033L259.556 200.833H263.799L266.874 194.018H280.267L283.384 200.833H287.703L275.285 173.474L275.218 173.332ZM268.437 190.465L273.546 179.049L278.688 190.465H268.437Z" fill="#044860"/>
<path d="M310.649 173.407V193.619L293.904 173.407H290.677V200.833H294.677V180.705L311.456 200.833H314.648V173.407H310.649Z" fill="#044860"/>
<path d="M164.596 223.034H119.855V225.53H164.596V223.034Z" fill="#F9AA19"/>
<path d="M525.666 223.034H481.093V225.53H525.666V223.034Z" fill="#F9AA19"/>
<path d="M177.67 228.867V219.073H181.669C182.467 219.073 183.148 219.165 183.711 219.348C184.274 219.531 184.694 219.78 184.98 220.113C185.265 220.438 185.475 220.779 185.593 221.128C185.711 221.478 185.778 221.869 185.778 222.293C185.778 222.718 185.702 223.109 185.559 223.475C185.417 223.841 185.19 224.182 184.879 224.498C184.576 224.815 184.148 225.056 183.593 225.239C183.039 225.422 182.392 225.513 181.652 225.513H179.375V228.875H177.661L177.67 228.867ZM179.384 220.654V223.932H181.627C183.207 223.932 183.997 223.383 183.997 222.285C183.997 221.187 183.24 220.662 181.72 220.662H179.375L179.384 220.654Z" fill="#044860"/>
<path d="M188.458 220.404C189.433 219.439 190.634 218.956 192.054 218.956C193.474 218.956 194.676 219.431 195.65 220.388C196.625 221.345 197.112 222.535 197.112 223.966C197.112 225.397 196.625 226.587 195.642 227.544C194.659 228.501 193.466 228.975 192.054 228.975C190.643 228.975 189.441 228.501 188.467 227.552C187.492 226.604 186.996 225.405 186.996 223.974C186.996 222.543 187.483 221.378 188.458 220.413V220.404ZM189.735 226.404C190.374 227.036 191.147 227.352 192.054 227.352C192.962 227.352 193.768 227.036 194.39 226.404C195.02 225.771 195.331 224.964 195.331 223.966C195.331 222.967 195.012 222.168 194.365 221.528C193.718 220.895 192.953 220.579 192.054 220.579C191.155 220.579 190.374 220.895 189.735 221.528C189.097 222.16 188.777 222.967 188.777 223.966C188.777 224.964 189.097 225.763 189.735 226.404Z" fill="#044860"/>
<path d="M199.053 228.867V219.073H202.935C203.683 219.073 204.313 219.156 204.842 219.323C205.371 219.489 205.775 219.722 206.052 220.013C206.329 220.305 206.531 220.629 206.649 220.97C206.775 221.32 206.833 221.694 206.833 222.118C206.833 222.792 206.632 223.383 206.237 223.899C205.842 224.415 205.313 224.765 204.657 224.948L207.623 228.867H205.548L202.851 225.272H200.759V228.867H199.045H199.053ZM200.767 220.671V223.683H202.985C203.632 223.683 204.145 223.541 204.514 223.267C204.884 222.992 205.069 222.609 205.069 222.127C205.069 221.644 204.909 221.303 204.582 221.053C204.254 220.804 203.699 220.679 202.91 220.679H200.775L200.767 220.671Z" fill="#044860"/>
<path d="M207.556 219.073H215.908V220.671H212.589V228.867H210.883V220.671H207.564V219.073H207.556Z" fill="#044860"/>
<path d="M217.403 219.073H219.117V227.269H224.73V228.867H217.412V219.073H217.403Z" fill="#044860"/>
<path d="M229.679 219.073H230.981L235.316 228.867H233.518L232.56 226.695H228.057L227.107 228.867H225.343L229.679 219.073ZM228.679 225.239H231.93L230.309 221.519L228.687 225.239H228.679Z" fill="#044860"/>
<path d="M243.903 228.867L238.45 222.193V228.867H236.787V219.073H238.114L243.567 225.771V219.073H245.231V228.867H243.903Z" fill="#044860"/>
<path d="M247.701 219.073H250.793C251.784 219.073 252.65 219.198 253.389 219.447C254.128 219.697 254.708 220.055 255.137 220.504C255.557 220.954 255.876 221.461 256.069 222.01C256.271 222.559 256.363 223.175 256.363 223.841C256.363 225.33 255.884 226.545 254.927 227.469C253.969 228.401 252.532 228.859 250.616 228.859H247.709V219.065L247.701 219.073ZM249.415 220.671V227.278H250.742C252.053 227.278 253.019 226.97 253.65 226.362C254.28 225.755 254.591 224.914 254.591 223.849C254.591 221.736 253.322 220.671 250.776 220.671H249.415Z" fill="#044860"/>
<path d="M262.136 228.867V219.073H266.135C266.933 219.073 267.614 219.165 268.177 219.348C268.74 219.531 269.16 219.78 269.445 220.113C269.731 220.438 269.941 220.779 270.059 221.128C270.176 221.478 270.244 221.869 270.244 222.293C270.244 222.718 270.168 223.109 270.025 223.475C269.882 223.841 269.655 224.182 269.345 224.498C269.042 224.815 268.614 225.056 268.059 225.239C267.505 225.422 266.858 225.513 266.118 225.513H263.841V228.875H262.127L262.136 228.867ZM263.85 220.654V223.932H266.093C267.673 223.932 268.462 223.383 268.462 222.285C268.462 221.187 267.706 220.662 266.185 220.662H263.841L263.85 220.654Z" fill="#044860"/>
<path d="M277.604 225.455C277.377 225.247 277.083 225.089 276.73 224.973C276.369 224.856 275.974 224.748 275.545 224.648C275.117 224.548 274.68 224.432 274.243 224.299C273.806 224.165 273.411 223.999 273.058 223.799C272.697 223.6 272.411 223.333 272.184 222.984C271.958 222.634 271.848 222.218 271.848 221.736C271.848 220.962 272.21 220.304 272.941 219.772C273.672 219.239 274.596 218.965 275.713 218.965C277.343 218.965 278.62 219.431 279.545 220.363L278.612 221.569C277.78 220.887 276.806 220.546 275.671 220.546C275.083 220.546 274.596 220.637 274.201 220.829C273.806 221.02 273.604 221.303 273.604 221.686C273.604 221.994 273.756 222.252 274.058 222.451C274.361 222.651 274.739 222.801 275.184 222.901C275.629 223.001 276.125 223.125 276.654 223.275C277.184 223.425 277.671 223.6 278.125 223.783C278.578 223.966 278.956 224.257 279.251 224.648C279.553 225.047 279.704 225.522 279.704 226.079C279.704 226.928 279.335 227.627 278.604 228.168C277.873 228.709 276.974 228.983 275.907 228.983C275.041 228.983 274.209 228.817 273.403 228.476C272.596 228.135 271.983 227.71 271.554 227.194L272.571 226.004C273.47 226.936 274.629 227.402 276.058 227.402C276.654 227.402 277.116 227.294 277.444 227.086C277.772 226.878 277.94 226.587 277.94 226.212C277.94 225.913 277.831 225.663 277.604 225.455Z" fill="#044860"/>
<path d="M286.207 224.623V228.867H284.502V224.623L280.528 219.065H282.645L285.376 222.967L288.157 219.065H290.207L286.207 224.623Z" fill="#044860"/>
<path d="M299.71 227.161C299.306 227.727 298.743 228.176 298.038 228.501C297.323 228.825 296.55 228.983 295.702 228.983C294.147 228.983 292.912 228.526 291.996 227.619C291.081 226.712 290.619 225.497 290.619 223.974C290.619 222.543 291.081 221.353 292.022 220.396C292.954 219.439 294.173 218.965 295.685 218.965C296.55 218.965 297.332 219.123 298.012 219.431C298.693 219.739 299.214 220.155 299.567 220.654L298.432 221.719C297.743 220.962 296.853 220.587 295.761 220.587C294.744 220.587 293.929 220.895 293.316 221.511C292.702 222.127 292.4 222.951 292.4 223.974C292.4 224.998 292.719 225.813 293.349 226.429C293.988 227.053 294.811 227.361 295.828 227.361C297.021 227.361 297.987 226.928 298.71 226.071L299.71 227.161Z" fill="#044860"/>
<path d="M308.296 224.706H303.112V228.859H301.398V219.065H303.112V223.109H308.296V219.065H310.01V228.859H308.296V224.706Z" fill="#044860"/>
<path d="M312.481 219.073H314.195V228.867H312.481V219.073Z" fill="#044860"/>
<path d="M319.992 219.073H321.294L325.63 228.867H323.832L322.874 226.695H318.37L317.421 228.867H315.657L319.992 219.073ZM318.992 225.239H322.244L320.622 221.519L319.001 225.239H318.992Z" fill="#044860"/>
<path d="M324.764 219.073H333.116V220.671H329.797V228.867H328.092V220.671H324.773V219.073H324.764Z" fill="#044860"/>
<path d="M334.612 228.867V219.073H338.493C339.241 219.073 339.871 219.156 340.401 219.323C340.93 219.489 341.333 219.722 341.611 220.013C341.888 220.305 342.089 220.629 342.207 220.97C342.333 221.32 342.392 221.694 342.392 222.118C342.392 222.792 342.19 223.383 341.795 223.899C341.4 224.415 340.871 224.765 340.216 224.948L343.182 228.867H341.106L338.409 225.272H336.317V228.867H334.603H334.612ZM336.317 220.671V223.683H338.535C339.182 223.683 339.695 223.541 340.065 223.267C340.434 222.992 340.619 222.609 340.619 222.127C340.619 221.644 340.459 221.303 340.132 221.053C339.804 220.804 339.25 220.679 338.46 220.679H336.326L336.317 220.671Z" fill="#044860"/>
<path d="M348.677 224.623V228.867H346.971V224.623L342.997 219.065H345.114L347.845 222.967L350.626 219.065H352.676L348.677 224.623Z" fill="#044860"/>
<path d="M365.741 228.867C365.531 228.717 365.119 228.359 364.498 227.793C363.649 228.592 362.607 229 361.364 229C360.204 229 359.272 228.742 358.574 228.226C357.877 227.71 357.524 227.036 357.524 226.221C357.524 225.83 357.6 225.464 357.751 225.139C357.902 224.815 358.129 224.498 358.44 224.215C358.751 223.932 359.036 223.699 359.288 223.533C359.54 223.358 359.885 223.142 360.322 222.884C359.725 222.135 359.431 221.444 359.431 220.812C359.431 220.28 359.633 219.839 360.045 219.489C360.456 219.14 361.028 218.965 361.759 218.965C362.548 218.965 363.145 219.131 363.54 219.456C363.935 219.78 364.136 220.238 364.136 220.812C364.136 221.228 363.985 221.653 363.691 222.06C363.397 222.476 363.002 222.842 362.515 223.175C362.834 223.699 363.498 224.49 364.489 225.538C365.153 224.631 365.481 223.5 365.481 222.127H367.119C367.119 222.951 366.985 223.791 366.716 224.656C366.447 225.522 366.077 226.237 365.607 226.795C366.296 227.552 367.069 228.243 367.926 228.883H365.75L365.741 228.867ZM362.523 227.244C362.876 227.094 363.137 226.903 363.33 226.67C362.296 225.513 361.574 224.673 361.179 224.141C360.482 224.573 360.003 224.914 359.734 225.172C359.465 225.43 359.33 225.722 359.33 226.063C359.33 226.437 359.515 226.762 359.885 227.053C360.255 227.344 360.767 227.477 361.439 227.477C361.817 227.477 362.179 227.402 362.523 227.253V227.244ZM361.691 222.052C362.17 221.719 362.414 221.37 362.414 221.003C362.414 220.804 362.364 220.654 362.263 220.537C362.162 220.421 362.002 220.363 361.801 220.363C361.381 220.363 361.162 220.579 361.162 221.02C361.162 221.253 361.339 221.594 361.7 222.052H361.691Z" fill="#044860"/>
<path d="M381.848 227.161C381.445 227.727 380.882 228.176 380.176 228.501C379.462 228.825 378.689 228.983 377.84 228.983C376.286 228.983 375.051 228.526 374.135 227.619C373.219 226.712 372.757 225.497 372.757 223.974C372.757 222.543 373.219 221.353 374.16 220.396C375.093 219.439 376.311 218.965 377.823 218.965C378.689 218.965 379.47 219.123 380.151 219.431C380.831 219.739 381.352 220.155 381.705 220.654L380.571 221.719C379.882 220.962 378.991 220.587 377.899 220.587C376.882 220.587 376.067 220.895 375.454 221.511C374.841 222.127 374.538 222.951 374.538 223.974C374.538 224.998 374.857 225.813 375.488 226.429C376.126 227.053 376.949 227.361 377.966 227.361C379.159 227.361 380.125 226.928 380.848 226.071L381.848 227.161Z" fill="#044860"/>
<path d="M384.108 220.404C385.083 219.439 386.284 218.956 387.704 218.956C389.124 218.956 390.326 219.431 391.3 220.388C392.275 221.345 392.762 222.535 392.762 223.966C392.762 225.397 392.275 226.587 391.292 227.544C390.309 228.501 389.116 228.975 387.704 228.975C386.293 228.975 385.091 228.501 384.116 227.552C383.142 226.604 382.646 225.405 382.646 223.974C382.646 222.543 383.133 221.378 384.108 220.413V220.404ZM385.385 226.404C386.024 227.036 386.797 227.352 387.704 227.352C388.612 227.352 389.418 227.036 390.04 226.404C390.67 225.771 390.981 224.964 390.981 223.966C390.981 222.967 390.662 222.168 390.015 221.528C389.368 220.895 388.603 220.579 387.704 220.579C386.805 220.579 386.024 220.895 385.385 221.528C384.747 222.16 384.427 222.967 384.427 223.966C384.427 224.964 384.747 225.763 385.385 226.404Z" fill="#044860"/>
<path d="M403.071 224.698C403.071 225.439 402.954 226.088 402.727 226.653C402.5 227.219 402.181 227.66 401.778 227.993C401.374 228.318 400.946 228.567 400.475 228.725C400.005 228.892 399.501 228.967 398.963 228.967C397.728 228.967 396.694 228.584 395.862 227.827C395.031 227.07 394.611 225.996 394.611 224.615V219.073H396.316V224.407C396.316 225.305 396.56 226.021 397.056 226.57C397.551 227.119 398.181 227.386 398.963 227.386C399.744 227.386 400.349 227.119 400.761 226.587C401.164 226.054 401.366 225.347 401.366 224.457V219.073H403.08V224.698H403.071Z" fill="#044860"/>
<path d="M412.583 228.867L407.13 222.193V228.867H405.466V219.073H406.794L412.246 225.771V219.073H413.91V228.867H412.583Z" fill="#044860"/>
<path d="M421.774 225.455C421.548 225.247 421.253 225.089 420.901 224.973C420.539 224.856 420.144 224.748 419.716 224.648C419.287 224.548 418.85 224.432 418.414 224.299C417.977 224.165 417.582 223.999 417.229 223.799C416.868 223.6 416.582 223.333 416.355 222.984C416.128 222.634 416.019 222.218 416.019 221.736C416.019 220.962 416.38 220.304 417.111 219.772C417.842 219.239 418.766 218.965 419.884 218.965C421.514 218.965 422.791 219.431 423.715 220.363L422.783 221.569C421.951 220.887 420.976 220.546 419.842 220.546C419.254 220.546 418.766 220.637 418.372 220.829C417.977 221.02 417.775 221.303 417.775 221.686C417.775 221.994 417.926 222.252 418.229 222.451C418.531 222.651 418.909 222.801 419.355 222.901C419.8 223.001 420.296 223.125 420.825 223.275C421.354 223.425 421.842 223.6 422.295 223.783C422.749 223.966 423.127 224.257 423.421 224.648C423.724 225.047 423.875 225.522 423.875 226.079C423.875 226.928 423.505 227.627 422.774 228.168C422.043 228.709 421.144 228.983 420.077 228.983C419.212 228.983 418.38 228.817 417.573 228.476C416.767 228.135 416.153 227.71 415.725 227.194L416.742 226.004C417.641 226.936 418.8 227.402 420.228 227.402C420.825 227.402 421.287 227.294 421.615 227.086C421.942 226.878 422.11 226.587 422.11 226.212C422.11 225.913 422.001 225.663 421.774 225.455Z" fill="#044860"/>
<path d="M425.782 219.073H433.126V220.671H427.488V223.134H432.756V224.673H427.488V227.278H433.268V228.875H425.782V219.073Z" fill="#044860"/>
<path d="M435.386 219.073H437.1V227.269H442.712V228.867H435.394V219.073H435.386Z" fill="#044860"/>
<path d="M444.334 219.073H446.048V228.867H444.334V219.073Z" fill="#044860"/>
<path d="M455.635 228.867L450.182 222.193V228.867H448.518V219.073H449.846L455.299 225.771V219.073H456.962V228.867H455.635Z" fill="#044860"/>
<path d="M463.81 223.633H468.078V227.427C467.624 227.918 467.053 228.301 466.364 228.576C465.675 228.85 464.944 228.983 464.18 228.983C462.634 228.983 461.373 228.526 460.39 227.602C459.407 226.687 458.911 225.472 458.911 223.974C458.911 222.559 459.39 221.37 460.357 220.404C461.314 219.447 462.533 218.965 464.003 218.965C464.843 218.965 465.599 219.106 466.288 219.381C466.969 219.664 467.498 220.047 467.868 220.546L466.725 221.619C466.104 220.929 465.23 220.587 464.095 220.587C463.07 220.587 462.247 220.895 461.634 221.503C461.02 222.11 460.709 222.934 460.709 223.974C460.709 225.014 461.037 225.855 461.684 226.454C462.331 227.053 463.18 227.352 464.23 227.352C465.129 227.352 465.868 227.128 466.465 226.67V225.172H463.835V223.633H463.81Z" fill="#044860"/>
</svg>
