<svg width="645" height="240" viewBox="0 0 645 240" fill="none" xmlns="http://www.w3.org/2000/svg">
<rect width="645" height="240" fill="#083045"/>
<path d="M99.3162 155C80.3982 155 65 139.522 65 120.496C65 101.469 80.3982 86 99.3162 86C118.234 86 133.606 101.478 133.606 120.496C133.606 139.513 118.225 154.991 99.3162 154.991V155ZM99.3162 89.3029C82.2061 89.3029 68.284 103.296 68.284 120.496C68.284 137.695 82.2061 151.697 99.3249 151.697C116.444 151.697 130.34 137.704 130.34 120.496C130.34 103.287 116.417 89.3029 99.3162 89.3029Z" fill="white"/>
<path d="M110.024 138.222L99.7267 132.881C99.5956 132.811 99.4559 132.776 99.3074 132.776C99.1677 132.776 99.0192 132.811 98.8882 132.881L88.5907 138.222C88.154 138.451 87.9706 138.978 88.1802 139.426C88.3811 139.874 88.9051 140.084 89.3593 139.9L98.9668 136.149C99.0716 136.105 99.1851 136.079 99.2987 136.079C99.4122 136.079 99.5258 136.105 99.6306 136.149L109.238 139.9C109.692 140.084 110.216 139.874 110.417 139.426C110.618 138.978 110.435 138.451 110.007 138.222H110.024Z" fill="#F9AA19"/>
<path d="M123.824 119.573L108.714 118.879C107.823 118.835 107.509 117.667 108.26 117.184L121.003 108.971C121.413 108.707 121.544 108.163 121.3 107.741C121.055 107.311 120.522 107.152 120.086 107.381L106.644 114.382C105.849 114.795 105.002 113.943 105.413 113.143L112.374 99.6155C112.601 99.1763 112.443 98.6405 112.024 98.3945H112.007C111.579 98.1398 111.037 98.2715 110.775 98.6844L102.618 111.509C102.137 112.265 100.976 111.949 100.932 111.053L100.224 95.8383C100.198 95.3464 99.7965 94.9599 99.3074 94.9599C98.8183 94.9599 98.4165 95.3464 98.3903 95.8383L97.6916 111.053C97.6479 111.949 96.4863 112.265 96.0059 111.509L87.8483 98.6844C87.5863 98.2715 87.0448 98.1398 86.6168 98.3857H86.6081C86.1889 98.6405 86.0316 99.1763 86.2587 99.6155L93.2198 113.134C93.6303 113.934 92.7831 114.786 91.9883 114.373L78.5465 107.372C78.1098 107.144 77.5771 107.302 77.3325 107.723C77.088 108.154 77.219 108.707 77.6295 108.971L90.3725 117.184C91.1236 117.667 90.8092 118.835 89.9183 118.879L74.7996 119.573C74.3105 119.6 73.9262 120.004 73.9262 120.496C73.9262 120.996 74.3105 121.4 74.7996 121.418L89.9183 122.121C90.8092 122.165 91.1236 123.333 90.3725 123.816L77.6295 132.02C77.219 132.284 77.088 132.829 77.3325 133.259C77.5771 133.698 78.1098 133.856 78.5465 133.628L98.8969 123.034C99.1589 122.894 99.4734 122.894 99.7354 123.034L120.086 133.628C120.522 133.856 121.055 133.698 121.3 133.268C121.544 132.837 121.405 132.293 120.994 132.029L108.251 123.825C107.5 123.342 107.814 122.173 108.705 122.129L123.815 121.427C124.304 121.4 124.689 120.996 124.689 120.504C124.689 120.004 124.304 119.6 123.815 119.582" fill="#F9AA19"/>
<path d="M160.21 110.218H168.01V115.419C166.114 116.947 163.739 117.729 160.944 117.729C157.738 117.729 155.101 116.745 153.092 114.812C151.092 112.88 150.079 110.227 150.079 106.924C150.079 103.621 151.057 101.065 152.996 99.0974C154.935 97.121 157.511 96.1284 160.656 96.1284C164.071 96.1284 166.734 97.1649 168.595 99.2204L168.778 99.4225L171.416 96.673L171.276 96.4973C168.944 93.5722 165.293 92.0964 160.411 92.0964C156.262 92.0964 152.742 93.5458 149.948 96.4007C147.153 99.2556 145.738 102.804 145.738 106.942C145.738 111.378 147.17 115.006 150 117.711C152.821 120.417 156.481 121.787 160.856 121.787C162.953 121.787 165.031 121.392 167.031 120.61C169.04 119.828 170.691 118.748 171.949 117.395L172.019 117.325V106.371H160.201V110.245L160.21 110.218Z" fill="white"/>
<path d="M195.967 108.549C195.967 111.404 195.304 113.67 194.002 115.295C192.71 116.903 190.806 117.72 188.334 117.72C185.862 117.72 183.923 116.894 182.351 115.26C180.779 113.626 179.975 111.299 179.975 108.347V92.4476H175.8V108.874C175.8 112.941 177.006 116.13 179.399 118.361C181.783 120.592 184.788 121.717 188.334 121.717C191.565 121.717 194.36 120.645 196.666 118.546C198.972 116.429 200.142 113.257 200.142 109.111V92.4476H195.967V108.549Z" fill="white"/>
<path d="M213.383 92.3686L200.762 121.4H205.068L208.178 114.206H221.715L224.868 121.4H229.253L216.693 92.5179L216.632 92.3686H213.383ZM220.117 110.446H209.767L214.92 98.4121L220.117 110.446Z" fill="white"/>
<path d="M251.961 106.599C253.263 105.097 253.918 103.287 253.918 101.232C253.918 95.3991 250.154 92.4476 242.721 92.4476H231.637V121.4H235.812V110.262H242.791L251.193 121.4H256.311L247.193 109.436C249.14 108.962 250.739 108.004 251.953 106.599H251.961ZM235.821 96.4005H242.599C247.35 96.4005 249.664 97.9817 249.664 101.232C249.664 102.787 249.07 103.99 247.848 104.912C246.616 105.835 244.939 106.309 242.843 106.309H235.821V96.4005Z" fill="white"/>
<path d="M280.321 96.6728C279.116 95.3464 277.439 94.3011 275.351 93.5544C273.273 92.8165 270.801 92.4388 268.015 92.4388H259.036V121.392H267.613C272.941 121.392 277.02 119.995 279.753 117.237C282.478 114.478 283.867 110.868 283.867 106.511C283.867 104.57 283.579 102.751 283.002 101.126C282.426 99.4926 281.526 97.9905 280.321 96.6728ZM267.849 117.439H263.211V96.4005H267.927C271.989 96.4005 274.976 97.3141 276.801 99.1148C278.627 100.916 279.552 103.402 279.552 106.511C279.552 109.84 278.583 112.52 276.67 114.487C274.757 116.446 271.788 117.439 267.84 117.439H267.849Z" fill="white"/>
<path d="M291.981 92.4476H287.806V121.4H291.981V92.4476Z" fill="white"/>
<path d="M310.235 92.3686H306.995L294.374 121.4H298.68L301.789 114.206H315.318L318.471 121.4H322.856L310.296 92.5179L310.235 92.3686ZM313.738 110.446H303.388L308.541 98.4121L313.738 110.446Z" fill="white"/>
<path d="M345.46 92.4476V113.758L328.533 92.4476H325.258V121.4H329.31V100.16L346.281 121.4H349.512V92.4476H345.46Z" fill="white"/>
<path d="M387.436 106.599C388.737 105.097 389.401 103.287 389.401 101.232C389.401 95.3991 385.636 92.4476 378.204 92.4476H367.129V121.4H371.304V110.262H378.282L386.684 121.4H391.803L382.684 109.436C384.632 108.962 386.23 108.004 387.444 106.599H387.436ZM371.295 96.4005H378.073C382.824 96.4005 385.139 97.9817 385.139 101.232C385.139 102.787 384.545 103.99 383.322 104.912C382.09 105.835 380.413 106.309 378.317 106.309H371.295V96.4005Z" fill="#F9AA19"/>
<path d="M398.685 108.637H414.24V104.763H398.685V96.4005H415.376V92.4476H394.51V121.4H415.743V117.439H398.685V108.637Z" fill="#F9AA19"/>
<path d="M442.251 113.987C440.05 116.464 437.202 117.72 433.787 117.72C430.582 117.72 427.962 116.727 426.005 114.768C424.04 112.809 423.044 110.165 423.044 106.924C423.044 103.683 423.97 101.065 425.804 99.0885C427.63 97.1208 430.171 96.1194 433.342 96.1194C436.512 96.1194 439.316 97.2701 441.569 99.5453L441.744 99.7209L444.46 97.0769L444.329 96.9012C443.281 95.4957 441.779 94.3274 439.849 93.4314C437.927 92.5355 435.709 92.0875 433.255 92.0875C428.922 92.0875 425.376 93.5193 422.712 96.3302C420.049 99.1412 418.704 102.708 418.704 106.924C418.704 111.413 420.057 115.049 422.739 117.729C425.411 120.408 429.053 121.761 433.543 121.761C435.857 121.761 438.05 121.295 440.05 120.373C442.058 119.45 443.639 118.203 444.74 116.657L444.853 116.49L442.434 113.776L442.251 113.987Z" fill="#F9AA19"/>
<path d="M460.094 92.0787C456.007 92.0787 452.504 93.5193 449.692 96.3566C446.88 99.1939 445.456 102.751 445.456 106.915C445.456 111.079 446.88 114.742 449.692 117.535C452.504 120.337 455.998 121.752 460.094 121.752C464.191 121.752 467.641 120.32 470.453 117.491C473.265 114.663 474.689 111.105 474.689 106.906C474.689 102.708 473.265 99.0797 470.453 96.2863C467.641 93.4841 464.156 92.0699 460.094 92.0699V92.0787ZM460.094 117.729C457.264 117.729 454.819 116.692 452.819 114.654C450.819 112.616 449.797 110.016 449.797 106.924C449.797 103.832 450.81 101.205 452.793 99.1763C454.784 97.1472 457.238 96.1194 460.086 96.1194C462.933 96.1194 465.317 97.1472 467.326 99.1763C469.326 101.205 470.348 103.814 470.348 106.924C470.348 110.034 469.361 112.643 467.405 114.672C465.457 116.701 462.994 117.729 460.086 117.729H460.094Z" fill="#F9AA19"/>
<path d="M489.336 115.348L478.471 92.4476H473.955L487.711 121.251L487.773 121.4H490.76L503.922 92.4476H499.529L489.336 115.348Z" fill="#F9AA19"/>
<path d="M510.28 108.637H525.836V104.763H510.28V96.4005H526.971V92.4476H506.105V121.4H527.338V117.439H510.28V108.637Z" fill="#F9AA19"/>
<path d="M552.16 106.599C553.461 105.097 554.125 103.287 554.125 101.232C554.125 95.3991 550.361 92.4476 542.928 92.4476H531.853V121.4H536.028V110.262H543.007L551.409 121.4H556.527L547.409 109.436C549.356 108.962 550.955 108.004 552.169 106.599H552.16ZM536.02 96.4005H542.797C547.548 96.4005 549.863 97.9817 549.863 101.232C549.863 102.787 549.269 103.99 548.046 104.912C546.815 105.835 545.138 106.309 543.042 106.309H536.02V96.4005Z" fill="#F9AA19"/>
<path d="M576.118 92.4476L567.41 106.01L558.815 92.4476H553.732L565.218 110.446V121.4H569.392V110.446L581 92.4476H576.118Z" fill="#F9AA19"/>
<path d="M224.091 143.791C223.855 143.572 223.55 143.405 223.183 143.282C222.807 143.159 222.397 143.045 221.951 142.939C221.506 142.834 221.052 142.711 220.597 142.57C220.143 142.43 219.733 142.254 219.366 142.043C218.99 141.832 218.693 141.551 218.458 141.182C218.222 140.813 218.108 140.374 218.108 139.865C218.108 139.048 218.484 138.354 219.244 137.792C220.004 137.23 220.964 136.94 222.126 136.94C223.82 136.94 225.148 137.432 226.109 138.415L225.139 139.689C224.274 138.969 223.261 138.609 222.082 138.609C221.471 138.609 220.964 138.705 220.554 138.907C220.143 139.109 219.934 139.408 219.934 139.812C219.934 140.137 220.091 140.409 220.405 140.62C220.72 140.831 221.113 140.989 221.576 141.095C222.039 141.2 222.554 141.332 223.104 141.49C223.654 141.648 224.161 141.832 224.633 142.026C225.104 142.219 225.497 142.526 225.803 142.939C226.117 143.361 226.275 143.862 226.275 144.45C226.275 145.346 225.89 146.084 225.13 146.655C224.371 147.226 223.436 147.516 222.327 147.516C221.427 147.516 220.562 147.331 219.724 146.98C218.894 146.62 218.248 146.172 217.803 145.627L218.859 144.371C219.794 145.355 220.999 145.847 222.484 145.847C223.104 145.847 223.584 145.733 223.925 145.513C224.266 145.293 224.44 144.986 224.44 144.591C224.44 144.274 224.327 144.011 224.091 143.791Z" fill="white"/>
<path d="M231.725 137.063H233.078L237.585 147.402H235.716L234.72 145.109H230.039L229.052 147.402H227.218L231.725 137.063ZM230.685 143.572H234.065L232.38 139.645L230.694 143.572H230.685Z" fill="white"/>
<path d="M239.114 137.063H242.328C243.358 137.063 244.258 137.194 245.027 137.458C245.795 137.721 246.398 138.099 246.843 138.574C247.28 139.048 247.612 139.584 247.813 140.163C248.022 140.743 248.118 141.393 248.118 142.096C248.118 143.668 247.621 144.951 246.625 145.926C245.629 146.91 244.136 147.393 242.144 147.393H239.122V137.054L239.114 137.063ZM240.887 138.74V145.715H242.267C243.629 145.715 244.634 145.39 245.289 144.749C245.944 144.108 246.267 143.22 246.267 142.096C246.267 139.865 244.948 138.74 242.302 138.74H240.887Z" fill="white"/>
<path d="M250.136 137.063H253.35C254.381 137.063 255.28 137.194 256.049 137.458C256.818 137.721 257.42 138.099 257.866 138.574C258.302 139.048 258.634 139.584 258.835 140.163C259.045 140.743 259.141 141.393 259.141 142.096C259.141 143.668 258.643 144.951 257.647 145.926C256.652 146.91 255.158 147.393 253.167 147.393H250.145V137.054L250.136 137.063ZM251.918 138.74V145.715H253.298C254.66 145.715 255.665 145.39 256.32 144.749C256.975 144.108 257.298 143.22 257.298 142.096C257.298 139.865 255.979 138.74 253.333 138.74H251.918Z" fill="white"/>
<path d="M261.167 137.063H262.949V145.715H268.783V147.402H261.176V137.063H261.167Z" fill="white"/>
<path d="M270.46 137.063H278.094V138.749H272.233V141.349H277.71V142.974H272.233V145.724H278.242V147.41H270.46V137.063Z" fill="white"/>
<path d="M284.417 137.063H288.776C290.068 137.063 290.985 137.291 291.536 137.748C292.086 138.205 292.357 138.846 292.357 139.663C292.357 140.699 291.946 141.464 291.125 141.964C292.182 142.298 292.715 143.106 292.715 144.389C292.715 145.416 292.357 146.172 291.64 146.664C290.924 147.156 289.937 147.402 288.688 147.402H284.417V137.063ZM286.199 138.74V141.314H288.741C289.308 141.314 289.745 141.2 290.059 140.98C290.374 140.761 290.531 140.453 290.531 140.058C290.531 139.601 290.383 139.276 290.094 139.057C289.797 138.846 289.291 138.74 288.548 138.74H286.199ZM286.199 142.939V145.715H288.575C289.378 145.715 289.963 145.601 290.322 145.372C290.688 145.144 290.863 144.784 290.863 144.283C290.863 143.818 290.697 143.484 290.356 143.264C290.016 143.045 289.466 142.939 288.688 142.939H286.19H286.199Z" fill="white"/>
<path d="M294.846 147.402V137.063H298.881C299.658 137.063 300.313 137.15 300.864 137.326C301.414 137.502 301.833 137.748 302.121 138.055C302.409 138.363 302.619 138.705 302.741 139.065C302.872 139.434 302.934 139.83 302.934 140.278C302.934 140.989 302.724 141.613 302.313 142.157C301.903 142.702 301.353 143.071 300.671 143.264L303.754 147.402H301.597L298.794 143.607H296.619V147.402H294.837H294.846ZM296.619 138.74V141.92H298.925C299.597 141.92 300.13 141.771 300.514 141.481C300.898 141.191 301.091 140.787 301.091 140.278C301.091 139.768 300.925 139.408 300.584 139.144C300.243 138.881 299.667 138.749 298.846 138.749H296.628L296.619 138.74Z" fill="white"/>
<path d="M305.982 138.468C306.995 137.449 308.244 136.94 309.72 136.94C311.196 136.94 312.445 137.44 313.458 138.451C314.471 139.461 314.978 140.717 314.978 142.228C314.978 143.739 314.471 144.995 313.449 146.005C312.427 147.015 311.187 147.516 309.72 147.516C308.253 147.516 307.004 147.015 305.99 146.005C304.977 144.995 304.462 143.739 304.462 142.228C304.462 140.717 304.969 139.487 305.982 138.468ZM307.309 144.802C307.973 145.469 308.777 145.803 309.72 145.803C310.663 145.803 311.502 145.469 312.148 144.802C312.803 144.134 313.126 143.282 313.126 142.228C313.126 141.174 312.794 140.33 312.122 139.654C311.449 138.986 310.654 138.653 309.72 138.653C308.785 138.653 307.973 138.986 307.309 139.654C306.645 140.322 306.314 141.174 306.314 142.228C306.314 143.282 306.645 144.125 307.309 144.802Z" fill="white"/>
<path d="M317.982 138.468C318.995 137.449 320.244 136.94 321.72 136.94C323.197 136.94 324.445 137.44 325.459 138.451C326.472 139.461 326.978 140.717 326.978 142.228C326.978 143.739 326.472 144.995 325.45 146.005C324.428 147.015 323.188 147.516 321.72 147.516C320.253 147.516 319.004 147.015 317.991 146.005C316.978 144.995 316.463 143.739 316.463 142.228C316.463 140.717 316.969 139.487 317.982 138.468ZM319.31 144.802C319.974 145.469 320.777 145.803 321.72 145.803C322.664 145.803 323.502 145.469 324.149 144.802C324.804 144.134 325.127 143.282 325.127 142.228C325.127 141.174 324.795 140.33 324.122 139.654C323.45 138.986 322.655 138.653 321.72 138.653C320.786 138.653 319.974 138.986 319.31 139.654C318.646 140.322 318.314 141.174 318.314 142.228C318.314 143.282 318.646 144.125 319.31 144.802Z" fill="white"/>
<path d="M330.778 137.063V141.595L335.389 137.063H337.713L333.04 141.701L338.044 147.402H335.677L331.695 142.895L330.769 143.8V147.402H328.987V137.063H330.778Z" fill="white"/>
<path d="M352.395 145.601C351.975 146.198 351.39 146.673 350.656 147.015C349.914 147.358 349.111 147.525 348.228 147.525C346.613 147.525 345.329 147.041 344.377 146.084C343.425 145.127 342.944 143.844 342.944 142.237C342.944 140.726 343.425 139.47 344.403 138.459C345.372 137.449 346.639 136.948 348.211 136.948C349.111 136.948 349.923 137.115 350.63 137.44C351.338 137.765 351.879 138.205 352.246 138.732L351.067 139.856C350.351 139.057 349.425 138.661 348.29 138.661C347.233 138.661 346.385 138.986 345.748 139.636C345.11 140.286 344.796 141.156 344.796 142.237C344.796 143.317 345.128 144.178 345.783 144.828C346.447 145.487 347.303 145.812 348.359 145.812C349.6 145.812 350.604 145.355 351.355 144.45L352.395 145.601Z" fill="white"/>
<path d="M354.744 138.468C355.757 137.449 357.006 136.94 358.482 136.94C359.958 136.94 361.207 137.44 362.22 138.451C363.233 139.461 363.74 140.717 363.74 142.228C363.74 143.739 363.233 144.995 362.212 146.005C361.19 147.015 359.949 147.516 358.482 147.516C357.015 147.516 355.766 147.015 354.753 146.005C353.74 144.995 353.224 143.739 353.224 142.228C353.224 140.717 353.731 139.487 354.744 138.468ZM356.072 144.802C356.735 145.469 357.539 145.803 358.482 145.803C359.425 145.803 360.264 145.469 360.91 144.802C361.565 144.134 361.888 143.282 361.888 142.228C361.888 141.174 361.557 140.33 360.884 139.654C360.211 138.986 359.417 138.653 358.482 138.653C357.548 138.653 356.735 138.986 356.072 139.654C355.408 140.322 355.076 141.174 355.076 142.228C355.076 143.282 355.408 144.125 356.072 144.802Z" fill="white"/>
<path d="M374.457 143.001C374.457 143.783 374.335 144.468 374.099 145.065C373.863 145.662 373.531 146.128 373.112 146.479C372.692 146.822 372.247 147.085 371.758 147.252C371.269 147.428 370.745 147.507 370.186 147.507C368.902 147.507 367.828 147.103 366.963 146.304C366.098 145.504 365.662 144.371 365.662 142.913V137.063H367.435V142.693C367.435 143.642 367.688 144.397 368.203 144.977C368.719 145.557 369.374 145.838 370.186 145.838C370.998 145.838 371.627 145.557 372.055 144.995C372.474 144.433 372.684 143.686 372.684 142.746V137.063H374.466V143.001H374.457Z" fill="white"/>
<path d="M384.344 147.402L378.675 140.357V147.402H376.946V137.063H378.326L383.994 144.134V137.063H385.724V147.402H384.344Z" fill="white"/>
<path d="M393.899 143.791C393.663 143.572 393.357 143.405 392.99 143.282C392.615 143.159 392.204 143.045 391.759 142.939C391.314 142.834 390.859 142.711 390.405 142.57C389.951 142.43 389.54 142.254 389.174 142.043C388.798 141.832 388.501 141.551 388.265 141.182C388.03 140.813 387.916 140.374 387.916 139.865C387.916 139.048 388.292 138.354 389.051 137.792C389.811 137.23 390.772 136.94 391.934 136.94C393.628 136.94 394.956 137.432 395.916 138.415L394.947 139.689C394.082 138.969 393.069 138.609 391.89 138.609C391.279 138.609 390.772 138.705 390.362 138.907C389.951 139.109 389.741 139.408 389.741 139.812C389.741 140.137 389.899 140.409 390.213 140.62C390.527 140.831 390.921 140.989 391.383 141.095C391.846 141.2 392.362 141.332 392.912 141.49C393.462 141.648 393.969 141.832 394.44 142.026C394.912 142.219 395.305 142.526 395.611 142.939C395.925 143.361 396.082 143.862 396.082 144.45C396.082 145.346 395.698 146.084 394.938 146.655C394.178 147.226 393.244 147.516 392.135 147.516C391.235 147.516 390.37 147.331 389.532 146.98C388.702 146.62 388.056 146.172 387.61 145.627L388.667 144.371C389.602 145.355 390.807 145.847 392.292 145.847C392.912 145.847 393.392 145.733 393.733 145.513C394.074 145.293 394.248 144.986 394.248 144.591C394.248 144.274 394.135 144.011 393.899 143.791Z" fill="white"/>
<path d="M398.065 137.063H405.699V138.749H399.838V141.349H405.314V142.974H399.838V145.724H405.847V147.41H398.065V137.063Z" fill="white"/>
<path d="M408.048 137.063H409.83V145.715H415.664V147.402H408.057V137.063H408.048Z" fill="white"/>
<path d="M417.341 137.063H419.123V147.402H417.341V137.063Z" fill="white"/>
<path d="M429.097 147.402L423.429 140.357V147.402H421.699V137.063H423.079L428.748 144.134V137.063H430.477V147.402H429.097Z" fill="white"/>
<path d="M437.595 141.876H442.032V145.882C441.561 146.4 440.967 146.804 440.251 147.094C439.534 147.384 438.774 147.525 437.98 147.525C436.373 147.525 435.062 147.041 434.041 146.066C433.019 145.1 432.503 143.818 432.503 142.237C432.503 140.743 433.001 139.487 434.006 138.468C435.001 137.458 436.268 136.948 437.796 136.948C438.67 136.948 439.456 137.098 440.172 137.388C440.879 137.686 441.43 138.09 441.814 138.617L440.626 139.751C439.98 139.022 439.071 138.661 437.892 138.661C436.827 138.661 435.971 138.986 435.333 139.628C434.696 140.269 434.372 141.139 434.372 142.237C434.372 143.335 434.713 144.222 435.386 144.854C436.058 145.487 436.94 145.803 438.032 145.803C438.967 145.803 439.735 145.566 440.355 145.083V143.501H437.622V141.876H437.595Z" fill="white"/>
<path d="M456.95 145.601C456.531 146.198 455.946 146.673 455.212 147.015C454.47 147.358 453.666 147.525 452.784 147.525C451.168 147.525 449.884 147.041 448.932 146.084C447.98 145.127 447.5 143.844 447.5 142.237C447.5 140.726 447.98 139.47 448.958 138.459C449.928 137.449 451.194 136.948 452.766 136.948C453.666 136.948 454.478 137.115 455.186 137.44C455.893 137.765 456.435 138.205 456.802 138.732L455.622 139.856C454.906 139.057 453.98 138.661 452.845 138.661C451.788 138.661 450.941 138.986 450.303 139.636C449.666 140.286 449.351 141.156 449.351 142.237C449.351 143.317 449.683 144.178 450.338 144.828C451.002 145.487 451.858 145.812 452.915 145.812C454.155 145.812 455.16 145.355 455.911 144.45L456.95 145.601Z" fill="white"/>
<path d="M458.706 137.063H466.339V138.749H460.479V141.349H465.955V142.974H460.479V145.724H466.488V147.41H458.706V137.063Z" fill="white"/>
<path d="M476.095 147.402L470.427 140.357V147.402H468.697V137.063H470.077L475.746 144.134V137.063H477.475V147.402H476.095Z" fill="white"/>
<path d="M479.03 137.063H487.712V138.749H484.262V147.402H482.489V138.749H479.039V137.063H479.03Z" fill="white"/>
<path d="M489.257 137.063H496.891V138.749H491.03V141.349H496.507V142.974H491.03V145.724H497.039V147.41H489.257V137.063Z" fill="white"/>
<path d="M499.249 147.402V137.063H503.284C504.062 137.063 504.717 137.15 505.267 137.326C505.817 137.502 506.236 137.748 506.525 138.055C506.813 138.363 507.022 138.705 507.145 139.065C507.276 139.434 507.337 139.83 507.337 140.278C507.337 140.989 507.127 141.613 506.717 142.157C506.306 142.702 505.756 143.071 505.075 143.264L508.158 147.402H506.001L503.197 143.607H501.022V147.402H499.24H499.249ZM501.022 138.74V141.92H503.328C504 141.92 504.533 141.771 504.918 141.481C505.302 141.191 505.494 140.787 505.494 140.278C505.494 139.768 505.328 139.408 504.987 139.144C504.647 138.881 504.07 138.749 503.249 138.749H501.031L501.022 138.74Z" fill="white"/>
<path d="M202.824 140.629H157.363V143.264H202.824V140.629Z" fill="#F9AA19"/>
<path d="M569.349 140.629H523.233V143.264H569.349V140.629Z" fill="#F9AA19"/>
</svg>
