<svg width="645" height="300" viewBox="0 0 645 300" fill="none" xmlns="http://www.w3.org/2000/svg">
<rect width="645" height="300" fill="#083045"/>
<path d="M199.372 223.706H119.855V226.21H199.372V223.706Z" fill="#F9AA19"/>
<path d="M525.657 223.706H445.863V226.21H525.657V223.706Z" fill="#F9AA19"/>
<path d="M322.202 149.631C300.365 149.631 282.603 131.997 282.603 110.316C282.603 88.6341 300.365 71 322.202 71C344.039 71 361.775 88.6341 361.775 110.316C361.775 131.997 344.022 149.631 322.202 149.631ZM322.202 74.1379C302.104 74.1379 285.762 90.3699 285.762 110.316C285.762 130.261 302.113 146.493 322.202 146.493C342.291 146.493 358.616 130.261 358.616 110.316C358.616 90.3699 342.274 74.1379 322.202 74.1379Z" fill="white"/>
<path d="M334.654 130.679L322.681 124.536C322.529 124.461 322.361 124.42 322.193 124.42C322.025 124.42 321.857 124.461 321.706 124.536L309.733 130.679C309.229 130.937 309.019 131.547 309.254 132.064C309.49 132.581 310.094 132.823 310.624 132.607L321.807 128.3C321.933 128.25 322.067 128.225 322.202 128.225C322.336 128.225 322.471 128.25 322.597 128.3L333.78 132.607C334.309 132.823 334.914 132.581 335.149 132.064C335.385 131.547 335.175 130.937 334.67 130.679H334.654Z" fill="#F9AA19"/>
<path d="M350.71 109.247L333.133 108.455C332.091 108.405 331.73 107.061 332.604 106.51L347.433 97.0714C347.912 96.7709 348.063 96.145 347.786 95.6526C347.5 95.1602 346.879 94.9766 346.374 95.2353L330.73 103.272C329.806 103.748 328.814 102.763 329.293 101.845L337.393 86.3057C337.653 85.8049 337.477 85.1874 336.981 84.9036H336.964C336.468 84.6115 335.838 84.7617 335.536 85.2374L326.042 99.9756C325.479 100.844 324.126 100.485 324.084 99.4582L323.269 81.9743C323.244 81.4068 322.773 80.9645 322.202 80.9645H322.193C321.622 80.9645 321.152 81.4068 321.126 81.9743L320.32 99.4498C320.269 100.485 318.917 100.844 318.362 99.9672L308.868 85.2291C308.557 84.7534 307.927 84.6032 307.439 84.8869H307.423C306.935 85.179 306.75 85.7966 307.011 86.2973L315.119 101.837C315.598 102.755 314.606 103.739 313.682 103.264L298.046 95.2187C297.542 94.9599 296.92 95.1352 296.634 95.6276C296.349 96.1283 296.5 96.7542 296.979 97.063L311.808 106.502C312.682 107.061 312.321 108.405 311.279 108.446L293.694 109.239C293.122 109.264 292.677 109.731 292.677 110.299C292.677 110.875 293.122 111.334 293.694 111.367L311.279 112.168C312.321 112.218 312.682 113.562 311.8 114.113L296.97 123.543C296.492 123.852 296.34 124.478 296.626 124.962V124.979C296.92 125.463 297.542 125.646 298.046 125.388L321.723 113.212C322.034 113.053 322.395 113.053 322.706 113.212L346.383 125.388C346.887 125.646 347.517 125.463 347.794 124.97C348.072 124.478 347.92 123.852 347.442 123.552L332.612 114.121C331.738 113.562 332.099 112.218 333.141 112.177L350.718 111.376C351.29 111.351 351.735 110.883 351.735 110.316C351.735 109.74 351.29 109.281 350.718 109.247H350.71Z" fill="#F9AA19"/>
<path d="M350.794 187.161C352.046 185.734 352.676 184.015 352.676 182.062C352.676 176.521 349.055 173.716 341.905 173.716H331.242V201.223H335.259V190.641H341.972L350.055 201.223H354.978L346.206 189.865C348.08 189.414 349.618 188.505 350.786 187.169L350.794 187.161ZM335.267 177.472H341.787C346.358 177.472 348.584 178.974 348.584 182.062C348.584 183.539 348.013 184.682 346.837 185.559C345.652 186.435 344.039 186.886 342.022 186.886H335.267V177.472Z" fill="#F9AA19"/>
<path d="M361.616 189.097H376.588V185.409H361.616V177.472H377.672V173.716H357.6V201.215H378.025V197.459H361.616V189.097Z" fill="#F9AA19"/>
<path d="M403.525 194.18C401.408 196.533 398.669 197.726 395.384 197.726C392.3 197.726 389.779 196.783 387.897 194.922C386.007 193.061 385.049 190.549 385.049 187.47C385.049 184.39 385.94 181.903 387.704 180.026C389.46 178.156 391.897 177.205 394.955 177.205C398.013 177.205 400.702 178.298 402.87 180.451L403.038 180.618L405.651 178.106L405.525 177.939C404.517 176.604 403.071 175.494 401.215 174.643C399.366 173.792 397.232 173.366 394.871 173.366C390.704 173.366 387.292 174.726 384.73 177.397C382.167 180.067 380.873 183.456 380.873 187.462C380.873 191.726 382.176 195.181 384.755 197.726C387.326 200.272 390.83 201.557 395.148 201.557C397.375 201.557 399.484 201.115 401.408 200.238C403.34 199.362 404.861 198.177 405.92 196.708L406.029 196.55L403.702 193.971L403.525 194.171V194.18Z" fill="#F9AA19"/>
<path d="M420.691 173.366C416.758 173.366 413.389 174.735 410.684 177.43C407.978 180.126 406.609 183.506 406.609 187.462C406.609 191.417 407.978 194.897 410.684 197.551C413.389 200.213 416.75 201.557 420.691 201.557C424.631 201.557 427.95 200.197 430.655 197.509C433.361 194.822 434.73 191.442 434.73 187.453C434.73 183.464 433.361 180.017 430.655 177.363C427.95 174.701 424.597 173.358 420.691 173.358V173.366ZM420.691 197.726C417.968 197.726 415.616 196.742 413.692 194.806C411.768 192.869 410.785 190.399 410.785 187.462C410.785 184.524 411.759 182.029 413.666 180.101C415.582 178.173 417.943 177.197 420.691 177.197C423.438 177.197 425.723 178.173 427.656 180.101C429.58 182.029 430.563 184.507 430.563 187.462C430.563 190.416 429.613 192.894 427.731 194.822C425.858 196.75 423.488 197.726 420.691 197.726Z" fill="#F9AA19"/>
<path d="M448.829 195.465L438.377 173.716H434.033L447.325 201.215H450.19L462.852 173.716H458.626L448.829 195.465Z" fill="#F9AA19"/>
<path d="M468.977 189.097H483.941V185.409H468.977V177.472H485.025V173.716H464.952V201.215H485.378V197.459H468.977V189.097Z" fill="#F9AA19"/>
<path d="M509.265 187.161C510.517 185.734 511.155 184.015 511.155 182.062C511.155 176.521 507.534 173.716 500.384 173.716H489.73V201.223H493.746V190.641H500.46L508.542 201.223H513.466L504.694 189.865C506.568 189.414 508.105 188.505 509.273 187.169L509.265 187.161ZM493.729 177.472H500.249C504.82 177.472 507.047 178.974 507.047 182.062C507.047 183.539 506.475 184.682 505.299 185.559C504.114 186.435 502.493 186.886 500.485 186.886H493.729V177.472Z" fill="#F9AA19"/>
<path d="M532.312 173.716L523.926 186.594L515.734 173.825L515.659 173.716H510.777L521.818 190.816V201.215H525.842V190.816L537 173.716H532.312Z" fill="#F9AA19"/>
<path d="M215.916 219.183H213.883V230.866H215.916V219.183Z" fill="white"/>
<path d="M224.864 224.607L220.655 219.183H218.857V230.866H220.89V222.755L224.553 227.411H225.083L228.662 222.771V230.866H230.695V219.183H228.914L224.864 224.607Z" fill="white"/>
<path d="M239.635 224.607L235.426 219.183H233.627V230.866H235.661V222.755L239.324 227.411H239.853L243.433 222.771V230.866H245.466V219.183H243.685L239.635 224.607Z" fill="white"/>
<path d="M250.432 225.859H256.699V224.023H250.432V221.086H257.145V219.183H248.398V230.866H257.313V228.964H250.432V225.859Z" fill="white"/>
<path d="M268.387 224.941C268.857 224.332 269.092 223.623 269.092 222.821C269.092 222.321 269.017 221.862 268.874 221.453C268.731 221.044 268.488 220.66 268.16 220.309C267.832 219.959 267.353 219.683 266.723 219.483C266.093 219.283 265.337 219.183 264.455 219.183H259.833V230.866H261.867V226.577H264.354L267.563 230.866H270.034L266.505 226.193C267.286 225.968 267.916 225.55 268.387 224.941ZM264.497 224.674H261.858V221.086H264.396C265.337 221.086 266.001 221.236 266.387 221.536C266.774 221.837 266.967 222.262 266.967 222.821C266.967 223.381 266.748 223.856 266.311 224.182C265.875 224.507 265.27 224.674 264.497 224.674Z" fill="white"/>
<path d="M278.931 224.799C278.394 224.582 277.814 224.382 277.184 224.198C276.553 224.015 275.974 223.865 275.436 223.748C274.898 223.631 274.453 223.456 274.092 223.214C273.73 222.972 273.554 222.671 273.554 222.304C273.554 221.845 273.789 221.503 274.26 221.277C274.73 221.052 275.31 220.935 276.007 220.935C277.352 220.935 278.52 221.344 279.503 222.154L280.612 220.718C279.511 219.608 277.999 219.049 276.058 219.049C274.722 219.049 273.621 219.366 272.756 220.009C271.89 220.652 271.453 221.428 271.453 222.354C271.453 222.93 271.588 223.431 271.857 223.848C272.126 224.265 272.47 224.591 272.899 224.824C273.327 225.058 273.798 225.258 274.31 225.417C274.823 225.575 275.344 225.717 275.856 225.834C276.369 225.951 276.839 226.076 277.268 226.218C277.696 226.36 278.041 226.552 278.31 226.794C278.578 227.036 278.713 227.336 278.713 227.695C278.713 228.137 278.52 228.488 278.125 228.738C277.73 228.989 277.184 229.114 276.478 229.114C274.772 229.114 273.394 228.555 272.327 227.445L271.117 228.864C271.63 229.473 272.369 229.982 273.319 230.391C274.268 230.8 275.26 231 276.293 231C277.562 231 278.629 230.675 279.503 230.032C280.376 229.389 280.813 228.555 280.813 227.545C280.813 226.877 280.637 226.31 280.276 225.834C279.914 225.358 279.469 225.016 278.931 224.799Z" fill="white"/>
<path d="M285.115 219.183H283.082V230.866H285.115V219.183Z" fill="white"/>
<path d="M293.45 219.049C291.761 219.049 290.333 219.625 289.173 220.777C288.014 221.928 287.434 223.347 287.434 225.025C287.434 226.702 288.014 228.163 289.182 229.298C290.35 230.432 291.77 231 293.45 231C295.13 231 296.55 230.433 297.718 229.289C298.886 228.146 299.466 226.727 299.466 225.025C299.466 223.322 298.886 221.887 297.727 220.752C296.567 219.617 295.139 219.049 293.45 219.049ZM296.239 227.937C295.492 228.688 294.567 229.064 293.458 229.064C292.349 229.064 291.467 228.688 290.703 227.929C289.938 227.169 289.56 226.201 289.56 225.025C289.56 223.848 289.938 222.863 290.703 222.112C291.467 221.361 292.383 220.985 293.458 220.985C294.534 220.985 295.441 221.361 296.206 222.12C296.97 222.88 297.357 223.848 297.357 225.025C297.357 226.201 296.987 227.186 296.239 227.937Z" fill="white"/>
<path d="M309.851 227.178L303.364 219.183H301.785V230.866H303.768V222.905L310.254 230.866H311.842V219.183H309.851V227.178Z" fill="white"/>
<path d="M327.882 224.941C328.352 224.332 328.587 223.623 328.587 222.821C328.587 222.321 328.512 221.862 328.369 221.453C328.226 221.044 327.982 220.66 327.655 220.309C327.327 219.959 326.848 219.683 326.218 219.483C325.588 219.283 324.832 219.183 323.949 219.183H319.328V230.866H321.362V226.577H323.849L327.058 230.866H329.528L326 226.193C326.781 225.968 327.411 225.55 327.882 224.941ZM324 224.674H321.362V221.086H323.899C324.84 221.086 325.504 221.236 325.89 221.536C326.277 221.837 326.47 222.262 326.47 222.821C326.47 223.381 326.252 223.856 325.815 224.182C325.378 224.507 324.773 224.674 324 224.674Z" fill="white"/>
<path d="M333.427 225.859H339.695V224.023H333.427V221.086H340.132V219.183H331.394V230.866H340.3V228.964H333.427V225.859Z" fill="white"/>
<path d="M349.861 224.799C349.324 224.582 348.744 224.382 348.114 224.198C347.484 224.015 346.904 223.865 346.366 223.748C345.828 223.631 345.383 223.456 345.022 223.214C344.66 222.972 344.484 222.671 344.484 222.304C344.484 221.845 344.719 221.503 345.19 221.277C345.66 221.052 346.24 220.935 346.937 220.935C348.282 220.935 349.45 221.344 350.433 222.154L351.542 220.718C350.441 219.608 348.929 219.049 346.988 219.049C345.652 219.049 344.551 219.366 343.686 220.009C342.82 220.652 342.384 221.428 342.384 222.354C342.384 222.93 342.518 223.431 342.787 223.848C343.056 224.265 343.4 224.591 343.829 224.824C344.257 225.058 344.728 225.258 345.24 225.417C345.753 225.575 346.274 225.717 346.786 225.834C347.299 225.951 347.769 226.076 348.198 226.218C348.626 226.36 348.971 226.552 349.24 226.794C349.508 227.036 349.643 227.336 349.643 227.695C349.643 228.137 349.45 228.488 349.055 228.738C348.66 228.989 348.114 229.114 347.408 229.114C345.702 229.114 344.324 228.555 343.257 227.445L342.047 228.864C342.56 229.473 343.299 229.982 344.249 230.391C345.198 230.8 346.19 231 347.223 231C348.492 231 349.559 230.675 350.433 230.032C351.306 229.389 351.743 228.555 351.743 227.545C351.743 226.877 351.567 226.31 351.206 225.834C350.844 225.358 350.399 225.016 349.861 224.799Z" fill="white"/>
<path d="M356.045 219.183H354.012V230.866H356.045V219.183Z" fill="white"/>
<path d="M367.825 220.894C367.321 220.351 366.632 219.934 365.75 219.633C364.867 219.333 363.842 219.183 362.666 219.183H358.986V230.866H362.448C364.725 230.866 366.43 230.316 367.573 229.206C368.715 228.096 369.287 226.652 369.287 224.874C369.287 224.073 369.169 223.347 368.934 222.688C368.699 222.029 368.329 221.436 367.825 220.894ZM366.052 227.87C365.304 228.596 364.153 228.964 362.599 228.964H361.019V221.086H362.632C365.657 221.086 367.17 222.346 367.17 224.874C367.17 226.143 366.8 227.144 366.052 227.87Z" fill="white"/>
<path d="M373.639 225.859H379.907V224.023H373.639V221.086H380.344V219.183H371.606V230.866H380.512V228.964H373.639V225.859Z" fill="white"/>
<path d="M391.099 227.178L384.612 219.183H383.033V230.866H385.015V222.905L391.502 230.866H393.081V219.183H391.099V227.178Z" fill="white"/>
<path d="M394.863 221.086H398.812V230.866H400.845V221.086H404.794V219.183H394.863V221.086Z" fill="white"/>
<path d="M408.608 219.183H406.575V230.866H408.608V219.183Z" fill="white"/>
<path d="M415.515 219.183L410.356 230.866H412.457L413.582 228.279H418.943L420.086 230.866H422.22L417.061 219.183H415.515ZM414.322 226.544L416.254 222.104L418.187 226.544H414.322Z" fill="white"/>
<path d="M426.001 228.964V219.183H423.967V230.866H432.672V228.964H426.001Z" fill="white"/>
<path d="M131.022 190.599V195.532C129.148 196.984 126.796 197.726 124.031 197.726C120.864 197.726 118.251 196.792 116.268 194.956C114.293 193.12 113.285 190.599 113.285 187.47C113.285 184.34 114.26 181.912 116.167 180.034C118.083 178.156 120.628 177.205 123.746 177.205C127.123 177.205 129.761 178.19 131.601 180.142L131.77 180.326L134.374 177.722L134.231 177.555C131.929 174.785 128.316 173.374 123.502 173.374C119.41 173.374 115.932 174.751 113.167 177.455C110.403 180.168 109 183.539 109 187.47C109 191.693 110.42 195.131 113.209 197.701C115.999 200.264 119.612 201.565 123.939 201.565C126.006 201.565 128.064 201.19 130.039 200.447C132.022 199.704 133.66 198.678 134.903 197.401L134.971 197.334V186.919H123.3V190.599H131.022Z" fill="white"/>
<path d="M159.261 189.014C159.261 191.726 158.606 193.879 157.32 195.423C156.043 196.95 154.153 197.735 151.716 197.735C149.279 197.735 147.355 196.95 145.793 195.39C144.238 193.837 143.448 191.626 143.448 188.822V173.716H139.331V189.323C139.331 193.187 140.524 196.216 142.885 198.344C145.238 200.464 148.212 201.532 151.716 201.532C154.9 201.532 157.673 200.514 159.942 198.519C162.219 196.508 163.378 193.495 163.378 189.556V173.716H159.261V189.014Z" fill="white"/>
<path d="M180.266 173.633H177.082L164.605 201.215H168.848L171.923 194.38H185.316L188.433 201.215H192.752L180.333 173.775L180.266 173.633ZM183.736 190.816H173.494L178.594 179.366L183.736 190.816Z" fill="white"/>
<path d="M220.117 201.215L211.102 189.857C213.026 189.406 214.605 188.496 215.807 187.161C217.092 185.734 217.748 184.015 217.748 182.062C217.748 176.521 214.026 173.716 206.682 173.716H195.734V201.223H199.851V190.641H206.766L215.076 201.223H220.125L220.117 201.215ZM199.843 177.472H206.556C211.261 177.472 213.547 178.974 213.547 182.062C213.547 183.539 212.958 184.682 211.749 185.559C210.53 186.435 208.867 186.886 206.8 186.886H199.851V177.48L199.843 177.472Z" fill="white"/>
<path d="M244.441 177.722C243.248 176.462 241.593 175.469 239.526 174.768C237.476 174.067 235.031 173.708 232.275 173.708H223.402V201.215H231.871C237.131 201.215 241.164 199.888 243.861 197.267C246.558 194.647 247.928 191.217 247.928 187.078C247.928 185.233 247.642 183.506 247.071 181.962C246.508 180.41 245.617 178.982 244.424 177.731L244.441 177.722ZM232.124 197.459H227.528V177.472H232.199C236.215 177.472 239.173 178.34 240.979 180.051C242.786 181.762 243.702 184.123 243.702 187.078C243.702 190.241 242.744 192.786 240.853 194.647C238.963 196.508 236.022 197.451 232.115 197.451L232.124 197.459Z" fill="white"/>
<path d="M256.565 173.708H252.448V201.215H256.565V173.708Z" fill="white"/>
<path d="M266.866 194.38H280.259L283.376 201.215H287.695L275.276 173.775L275.209 173.633H272.025L259.548 201.215H263.791L266.866 194.38ZM268.437 190.816L273.537 179.366L278.679 190.816H268.437Z" fill="white"/>
<path d="M310.649 193.979L293.904 173.708H290.677V201.215H294.677V181.027L311.456 201.215H314.648V173.708H310.649V193.979Z" fill="white"/>
</svg>
