<svg width="645" height="300" viewBox="0 0 645 300" fill="none" xmlns="http://www.w3.org/2000/svg">
<rect width="645" height="300" fill="#083045"/>
<path d="M174.721 222.706H119.864V225.21H174.721V222.706Z" fill="#F9AA19"/>
<path d="M525.657 222.706H471.909V225.21H525.657V222.706Z" fill="#F9AA19"/>
<path d="M187.727 229.866V218.183H192.483C193.432 218.183 194.247 218.291 194.911 218.508C195.575 218.725 196.079 219.026 196.423 219.418C196.768 219.81 197.011 220.211 197.154 220.628C197.297 221.045 197.373 221.513 197.373 222.022C197.373 222.531 197.289 222.99 197.112 223.432C196.936 223.874 196.667 224.275 196.306 224.651C195.944 225.026 195.432 225.318 194.776 225.535C194.121 225.752 193.348 225.861 192.466 225.861H189.76V229.866H187.727ZM189.769 220.069V223.975H192.441C194.323 223.975 195.264 223.315 195.264 222.005C195.264 220.695 194.365 220.069 192.558 220.069H189.769Z" fill="white"/>
<path d="M200.557 219.777C201.717 218.625 203.145 218.049 204.834 218.049C206.522 218.049 207.951 218.617 209.11 219.752C210.27 220.887 210.85 222.314 210.85 224.025C210.85 225.735 210.27 227.146 209.102 228.289C207.934 229.433 206.514 230 204.834 230C203.153 230 201.733 229.432 200.565 228.298C199.398 227.163 198.818 225.735 198.818 224.025C198.818 222.314 199.398 220.928 200.557 219.777ZM202.086 226.929C202.851 227.688 203.767 228.064 204.842 228.064C205.918 228.064 206.875 227.688 207.623 226.937C208.371 226.186 208.741 225.218 208.741 224.025C208.741 222.831 208.354 221.88 207.59 221.12C206.825 220.361 205.909 219.985 204.842 219.985C203.775 219.985 202.851 220.361 202.086 221.112C201.322 221.863 200.944 222.831 200.944 224.025C200.944 225.218 201.322 226.169 202.086 226.929Z" fill="white"/>
<path d="M213.169 229.866V218.183H217.79C218.672 218.183 219.428 218.283 220.058 218.483C220.688 218.683 221.167 218.959 221.495 219.309C221.823 219.66 222.066 220.044 222.209 220.453C222.352 220.862 222.428 221.321 222.428 221.821C222.428 222.623 222.192 223.332 221.722 223.941C221.251 224.55 220.621 224.968 219.84 225.193L223.369 229.866H220.898L217.689 225.577H215.202V229.866H213.169ZM215.21 220.086V223.674H217.848C218.621 223.674 219.226 223.507 219.663 223.182C220.1 222.856 220.319 222.397 220.319 221.821C220.319 221.246 220.125 220.837 219.739 220.536C219.352 220.236 218.689 220.086 217.748 220.086H215.21Z" fill="white"/>
<path d="M223.285 218.183H233.216V220.086H229.267V229.866H227.234V220.086H223.285V218.183Z" fill="white"/>
<path d="M234.997 218.183H237.03V227.964H243.702V229.866H234.997V218.183Z" fill="white"/>
<path d="M249.6 218.183H251.146L256.305 229.866H254.17L253.028 227.279H247.667L246.541 229.866H244.441L249.6 218.183ZM248.415 225.544H252.28L250.348 221.104L248.415 225.544Z" fill="white"/>
<path d="M266.53 229.866L260.043 221.905V229.866H258.061V218.183H259.64L266.127 226.178V218.183H268.109V229.866H266.53Z" fill="white"/>
<path d="M271.042 218.183H274.722C275.898 218.183 276.923 218.333 277.805 218.633C278.688 218.934 279.377 219.351 279.881 219.894C280.385 220.436 280.755 221.029 280.99 221.688C281.225 222.347 281.343 223.073 281.343 223.874C281.343 225.652 280.771 227.096 279.629 228.206C278.486 229.316 276.78 229.866 274.503 229.866H271.042V218.183ZM273.075 220.086V227.964H274.655C276.209 227.964 277.36 227.596 278.108 226.87C278.856 226.144 279.225 225.143 279.225 223.874C279.225 221.346 277.713 220.086 274.688 220.086H273.075Z" fill="white"/>
<path d="M292.181 218.183H293.727L298.886 229.866H296.752L295.609 227.279H290.249L289.123 229.866H287.022L292.181 218.183ZM290.988 225.544H294.853L292.921 221.104L290.988 225.544Z" fill="white"/>
<path d="M300.634 218.183H304.314C305.49 218.183 306.515 218.333 307.397 218.633C308.28 218.934 308.969 219.351 309.473 219.894C309.977 220.436 310.347 221.029 310.582 221.688C310.817 222.347 310.935 223.073 310.935 223.874C310.935 225.652 310.363 227.096 309.221 228.206C308.078 229.316 306.372 229.866 304.095 229.866H300.634V218.183ZM302.667 220.086V227.964H304.247C305.801 227.964 306.952 227.596 307.7 226.87C308.448 226.144 308.817 225.143 308.817 223.874C308.817 221.346 307.305 220.086 304.28 220.086H302.667Z" fill="white"/>
<path d="M313.254 218.183H316.934C318.11 218.183 319.135 218.333 320.017 218.633C320.899 218.934 321.588 219.351 322.093 219.894C322.597 220.436 322.966 221.029 323.202 221.688C323.437 222.347 323.555 223.073 323.555 223.874C323.555 225.652 322.983 227.096 321.841 228.206C320.698 229.316 318.992 229.866 316.715 229.866H313.254V218.183ZM315.287 220.086V227.964H316.867C318.421 227.964 319.572 227.596 320.32 226.87C321.068 226.144 321.437 225.143 321.437 223.874C321.437 221.346 319.925 220.086 316.9 220.086H315.287Z" fill="white"/>
<path d="M325.873 218.183H327.907V229.866H325.873V218.183Z" fill="white"/>
<path d="M341.048 227.83C340.569 228.506 339.905 229.04 339.056 229.424C338.208 229.808 337.283 230 336.275 230C334.427 230 332.956 229.458 331.864 228.373C330.772 227.288 330.226 225.836 330.226 224.025C330.226 222.322 330.78 220.903 331.889 219.76C332.998 218.617 334.452 218.049 336.242 218.049C337.275 218.049 338.199 218.233 339.014 218.608C339.829 218.984 340.451 219.468 340.863 220.069L339.518 221.337C338.703 220.436 337.645 219.985 336.342 219.985C335.133 219.985 334.166 220.353 333.435 221.087C332.704 221.821 332.343 222.798 332.343 224.025C332.343 225.251 332.721 226.211 333.477 226.954C334.234 227.697 335.217 228.064 336.426 228.064C337.846 228.064 338.989 227.555 339.854 226.528L341.048 227.83Z" fill="white"/>
<path d="M342.123 218.183H352.054V220.086H348.105V229.866H346.072V220.086H342.123V218.183Z" fill="white"/>
<path d="M353.835 218.183H355.869V229.866H353.835V218.183Z" fill="white"/>
<path d="M359.927 219.777C361.086 218.625 362.515 218.049 364.204 218.049C365.892 218.049 367.321 218.617 368.48 219.752C369.64 220.887 370.219 222.314 370.219 224.025C370.219 225.735 369.64 227.146 368.472 228.289C367.304 229.433 365.884 230 364.204 230C362.523 230 361.103 229.432 359.935 228.298C358.767 227.163 358.188 225.735 358.188 224.025C358.188 222.314 358.768 220.928 359.927 219.777ZM361.448 226.929C362.212 227.688 363.128 228.064 364.204 228.064C365.279 228.064 366.237 227.688 366.985 226.937C367.732 226.186 368.102 225.218 368.102 224.025C368.102 222.831 367.716 221.88 366.951 221.12C366.186 220.361 365.271 219.985 364.204 219.985C363.137 219.985 362.212 220.361 361.448 221.112C360.683 221.863 360.305 222.831 360.305 224.025C360.305 225.218 360.683 226.169 361.448 226.929Z" fill="white"/>
<path d="M381.008 229.866L374.521 221.905V229.866H372.538V218.183H374.118L380.604 226.178V218.183H382.587V229.866H381.008Z" fill="white"/>
<path d="M400.282 227.83C399.803 228.506 399.139 229.04 398.291 229.424C397.442 229.808 396.518 230 395.51 230C393.661 230 392.191 229.458 391.099 228.373C390.006 227.288 389.46 225.836 389.46 224.025C389.46 222.322 390.015 220.903 391.124 219.76C392.233 218.617 393.686 218.049 395.476 218.049C396.509 218.049 397.434 218.233 398.249 218.608C399.064 218.984 399.685 219.468 400.097 220.069L398.753 221.337C397.938 220.436 396.879 219.985 395.577 219.985C394.367 219.985 393.401 220.353 392.67 221.087C391.939 221.821 391.577 222.798 391.577 224.025C391.577 225.251 391.956 226.211 392.712 226.954C393.468 227.697 394.451 228.064 395.661 228.064C397.081 228.064 398.223 227.555 399.089 226.528L400.282 227.83Z" fill="white"/>
<path d="M402.298 218.183H411.037V220.086H404.332V223.023H410.6V224.859H404.332V227.964H411.205V229.866H402.298V218.183Z" fill="white"/>
<path d="M422.194 229.866L415.708 221.905V229.866H413.725V218.183H415.305L421.791 226.178V218.183H423.774V229.866H422.194Z" fill="white"/>
<path d="M425.555 218.183H435.487V220.086H431.538V229.866H429.504V220.086H425.555V218.183Z" fill="white"/>
<path d="M437.268 218.183H446.006V220.086H439.301V223.023H445.569V224.859H439.301V227.964H446.174V229.866H437.268V218.183Z" fill="white"/>
<path d="M448.695 229.866V218.183H453.316C454.198 218.183 454.954 218.283 455.584 218.483C456.214 218.683 456.693 218.959 457.021 219.309C457.349 219.66 457.592 220.044 457.735 220.453C457.878 220.862 457.954 221.321 457.954 221.821C457.954 222.623 457.718 223.332 457.248 223.941C456.777 224.55 456.147 224.968 455.366 225.193L458.895 229.866H456.424L453.215 225.577H450.728V229.866H448.695ZM450.728 220.086V223.674H453.366C454.139 223.674 454.744 223.507 455.181 223.182C455.618 222.856 455.836 222.397 455.836 221.821C455.836 221.246 455.643 220.837 455.257 220.536C454.87 220.236 454.206 220.086 453.265 220.086H450.728Z" fill="white"/>
<path d="M322.202 148.631C300.365 148.631 282.603 130.997 282.603 109.316C282.603 87.6341 300.365 70 322.202 70C344.039 70 361.775 87.6341 361.775 109.316C361.775 130.997 344.022 148.631 322.202 148.631ZM322.202 73.1379C302.104 73.1379 285.762 89.3699 285.762 109.316C285.762 129.261 302.113 145.493 322.202 145.493C342.291 145.493 358.616 129.261 358.616 109.316C358.616 89.3699 342.274 73.1379 322.202 73.1379Z" fill="white"/>
<path d="M334.654 129.679L322.681 123.536C322.529 123.461 322.361 123.42 322.193 123.42C322.025 123.42 321.857 123.461 321.706 123.536L309.733 129.679C309.229 129.937 309.019 130.547 309.254 131.064C309.49 131.581 310.094 131.823 310.624 131.607L321.807 127.3C321.933 127.25 322.067 127.225 322.202 127.225C322.336 127.225 322.471 127.25 322.597 127.3L333.78 131.607C334.309 131.823 334.914 131.581 335.149 131.064C335.385 130.547 335.175 129.937 334.67 129.679H334.654Z" fill="#F9AA19"/>
<path d="M350.71 108.247L333.133 107.455C332.091 107.405 331.73 106.061 332.604 105.51L347.433 96.0714C347.912 95.7709 348.063 95.145 347.786 94.6526C347.5 94.1602 346.879 93.9766 346.374 94.2353L330.73 102.272C329.806 102.748 328.814 101.763 329.293 100.845L337.393 85.3057C337.653 84.8049 337.477 84.1874 336.981 83.9036H336.964C336.468 83.6115 335.838 83.7617 335.536 84.2374L326.042 98.9756C325.479 99.8435 324.126 99.4847 324.084 98.4582L323.269 80.9743C323.244 80.4068 322.773 79.9645 322.202 79.9645H322.193C321.622 79.9645 321.152 80.4068 321.126 80.9743L320.32 98.4498C320.269 99.4847 318.917 99.8435 318.362 98.9672L308.868 84.2291C308.557 83.7534 307.927 83.6032 307.439 83.8869H307.423C306.935 84.179 306.75 84.7966 307.011 85.2973L315.119 100.837C315.598 101.755 314.606 102.739 313.682 102.264L298.046 94.2187C297.542 93.9599 296.92 94.1352 296.634 94.6276C296.349 95.1283 296.5 95.7542 296.979 96.063L311.808 105.502C312.682 106.061 312.321 107.405 311.279 107.446L293.694 108.239C293.122 108.264 292.677 108.731 292.677 109.299C292.677 109.875 293.122 110.334 293.694 110.367L311.279 111.168C312.321 111.218 312.682 112.562 311.8 113.113L296.97 122.543C296.492 122.852 296.34 123.478 296.626 123.962V123.979C296.92 124.463 297.542 124.646 298.046 124.388L321.723 112.212C322.034 112.053 322.395 112.053 322.706 112.212L346.383 124.388C346.887 124.646 347.517 124.463 347.794 123.97C348.072 123.478 347.92 122.852 347.442 122.552L332.612 113.121C331.738 112.562 332.099 111.218 333.141 111.177L350.718 110.376C351.29 110.351 351.735 109.883 351.735 109.316C351.735 108.74 351.29 108.281 350.718 108.247H350.71Z" fill="#F9AA19"/>
<path d="M350.794 186.161C352.046 184.734 352.676 183.015 352.676 181.062C352.676 175.521 349.055 172.716 341.905 172.716H331.242V200.223H335.259V189.641H341.972L349.987 200.123L350.055 200.215H354.978L346.206 188.857C348.08 188.406 349.618 187.496 350.786 186.161H350.794ZM335.267 176.472H341.787C346.358 176.472 348.584 177.974 348.584 181.062C348.584 182.539 348.013 183.682 346.837 184.559C345.652 185.435 344.039 185.886 342.022 185.886H335.267V176.472Z" fill="#F9AA19"/>
<path d="M361.624 188.097H376.588V184.409H361.624V176.472H377.672V172.716H357.6V200.215H378.025V196.459H361.624V188.097Z" fill="#F9AA19"/>
<path d="M403.525 193.18C401.408 195.533 398.669 196.726 395.384 196.726C392.3 196.726 389.779 195.783 387.897 193.922C386.007 192.061 385.049 189.549 385.049 186.47C385.049 183.39 385.94 180.903 387.704 179.026C389.46 177.156 391.905 176.205 394.955 176.205C398.005 176.205 400.702 177.298 402.87 179.451L403.038 179.618L405.651 177.106L405.525 176.939C404.525 175.604 403.071 174.494 401.215 173.643C399.366 172.792 397.232 172.366 394.871 172.366C390.704 172.366 387.292 173.718 384.73 176.397C382.167 179.067 380.873 182.456 380.873 186.462C380.873 190.726 382.176 194.181 384.755 196.726C387.326 199.272 390.83 200.557 395.148 200.557C397.375 200.557 399.484 200.115 401.408 199.238C403.34 198.362 404.861 197.177 405.92 195.7L406.029 195.541L403.702 192.963L403.525 193.163V193.18Z" fill="#F9AA19"/>
<path d="M420.691 172.366C416.758 172.366 413.389 173.735 410.684 176.43C407.978 179.126 406.609 182.506 406.609 186.462C406.609 190.417 407.978 193.897 410.684 196.551C413.389 199.213 416.75 200.557 420.691 200.557C424.631 200.557 427.95 199.197 430.655 196.509C433.361 193.822 434.73 190.442 434.73 186.453C434.73 182.464 433.361 179.017 430.655 176.363C427.95 173.701 424.597 172.358 420.691 172.358V172.366ZM420.691 196.726C417.968 196.726 415.616 195.742 413.692 193.806C411.768 191.869 410.785 189.399 410.785 186.462C410.785 183.524 411.759 181.029 413.666 179.101C415.582 177.173 417.943 176.197 420.682 176.197C423.421 176.197 425.715 177.173 427.647 179.101C429.571 181.029 430.555 183.507 430.555 186.462C430.555 189.416 429.605 191.894 427.723 193.822C425.849 195.75 423.48 196.726 420.682 196.726H420.691Z" fill="#F9AA19"/>
<path d="M448.829 194.465L438.436 172.85L438.377 172.716H434.033L447.258 200.081L447.325 200.215H450.19L462.701 173.05L462.852 172.716H458.626L448.829 194.465Z" fill="#F9AA19"/>
<path d="M468.977 188.097H483.941V184.409H468.977V176.472H485.025V172.716H464.952V200.215H485.378V196.459H468.977V188.097Z" fill="#F9AA19"/>
<path d="M509.265 186.161C510.517 184.734 511.155 183.015 511.155 181.062C511.155 175.521 507.534 172.716 500.384 172.716H489.73V200.223H493.746V189.641H500.46L508.475 200.123L508.542 200.215H513.466L504.694 188.857C506.568 188.406 508.105 187.496 509.273 186.161H509.265ZM493.729 176.472H500.249C504.82 176.472 507.047 177.974 507.047 181.062C507.047 182.539 506.475 183.682 505.299 184.559C504.114 185.435 502.493 185.886 500.485 185.886H493.729V176.472Z" fill="#F9AA19"/>
<path d="M532.312 172.716L523.926 185.602L515.667 172.716H510.777L521.818 189.816V200.215H525.842V189.816L537 172.716H532.312Z" fill="#F9AA19"/>
<path d="M131.022 189.599V194.532C129.148 195.984 126.796 196.726 124.031 196.726C120.864 196.726 118.251 195.792 116.268 193.956C114.293 192.12 113.285 189.599 113.285 186.47C113.285 183.34 114.26 180.912 116.167 179.034C118.083 177.156 120.628 176.205 123.746 176.205C127.123 176.205 129.761 177.19 131.601 179.142L131.77 179.326L134.374 176.722L134.231 176.555C131.929 173.785 128.316 172.374 123.502 172.374C119.41 172.374 115.932 173.751 113.167 176.455C110.403 179.168 109 182.539 109 186.47C109 190.693 110.42 194.131 113.209 196.701C115.999 199.264 119.612 200.565 123.939 200.565C126.006 200.565 128.064 200.19 130.039 199.447C132.022 198.704 133.66 197.678 134.903 196.401L134.971 196.334V185.919H123.3V189.599H131.022Z" fill="white"/>
<path d="M159.261 188.014C159.261 190.726 158.606 192.879 157.32 194.423C156.043 195.95 154.153 196.735 151.716 196.735C149.279 196.735 147.355 195.95 145.793 194.39C144.238 192.837 143.448 190.626 143.448 187.822V172.716H139.331V188.323C139.331 192.187 140.524 195.216 142.885 197.344C145.238 199.464 148.204 200.532 151.716 200.532C154.909 200.532 157.673 199.522 159.942 197.519C162.219 195.516 163.378 192.495 163.378 188.556V172.716H159.261V188.014Z" fill="white"/>
<path d="M180.266 172.633H177.082L164.605 200.215H168.848L171.923 193.38H185.316L188.433 200.215H192.752L180.333 172.775L180.266 172.633ZM173.494 189.816L178.603 178.366L183.745 189.816H173.494Z" fill="white"/>
<path d="M215.807 186.161C217.092 184.734 217.748 183.015 217.748 181.062C217.748 175.521 214.026 172.716 206.682 172.716H195.734V200.223H199.851V189.641H206.766L215.076 200.223H220.125L211.11 188.865C213.034 188.414 214.614 187.505 215.815 186.169L215.807 186.161ZM199.843 176.472H206.556C211.261 176.472 213.547 177.974 213.547 181.062C213.547 182.539 212.958 183.682 211.749 184.559C210.53 185.435 208.867 185.886 206.8 185.886H199.851V176.48L199.843 176.472Z" fill="white"/>
<path d="M244.441 176.722C243.248 175.462 241.593 174.469 239.534 173.768C237.484 173.067 235.039 172.708 232.283 172.708H223.411V200.215H231.88C237.14 200.215 241.173 198.888 243.87 196.267C246.567 193.647 247.936 190.217 247.936 186.078C247.936 184.233 247.65 182.506 247.079 180.962C246.516 179.41 245.617 177.982 244.432 176.731L244.441 176.722ZM232.124 196.459H227.528V176.472H232.199C236.215 176.472 239.173 177.34 240.979 179.051C242.786 180.762 243.702 183.123 243.702 186.078C243.702 189.241 242.744 191.786 240.853 193.647C238.963 195.508 236.022 196.451 232.115 196.451L232.124 196.459Z" fill="white"/>
<path d="M256.565 172.716H252.448V200.223H256.565V172.716Z" fill="white"/>
<path d="M275.218 172.633H272.033L259.556 200.215H263.799L266.874 193.38H280.267L283.384 200.215H287.703L275.285 172.775L275.218 172.633ZM268.446 189.816L273.554 178.366L278.696 189.816H268.446Z" fill="white"/>
<path d="M310.649 172.716V192.979L293.904 172.716H290.677V200.215H294.677V180.027L311.388 200.131L311.456 200.215H314.648V172.716H310.649Z" fill="white"/>
</svg>
