<svg width="645" height="240" viewBox="0 0 645 240" fill="none" xmlns="http://www.w3.org/2000/svg">
<rect width="645" height="240" fill="white"/>
<path d="M99.3162 155C80.3982 155 65 139.522 65 120.496C65 101.469 80.3982 86 99.3162 86C118.234 86 133.606 101.478 133.606 120.496C133.606 139.513 118.225 154.991 99.3162 154.991V155ZM99.3162 89.3029C82.2061 89.3029 68.284 103.296 68.284 120.496C68.284 137.695 82.2061 151.697 99.3162 151.697C116.426 151.697 130.331 137.704 130.331 120.496C130.331 103.287 116.417 89.3029 99.3162 89.3029Z" fill="#044860"/>
<path d="M110.024 138.222L99.7267 132.881C99.5956 132.811 99.4559 132.776 99.3074 132.776C99.1677 132.776 99.0192 132.811 98.8882 132.881L88.5907 138.222C88.154 138.451 87.9706 138.978 88.1802 139.426C88.3811 139.874 88.9051 140.084 89.3593 139.9L98.9668 136.149C99.0716 136.105 99.1851 136.079 99.2987 136.079C99.4122 136.079 99.5258 136.105 99.6306 136.149L109.238 139.9C109.692 140.084 110.216 139.874 110.417 139.426C110.618 138.978 110.435 138.451 110.007 138.222H110.024Z" fill="#F9AA19"/>
<path d="M123.824 119.573L108.714 118.879C107.823 118.835 107.509 117.667 108.26 117.184L121.003 108.971C121.413 108.707 121.544 108.163 121.3 107.741C121.055 107.311 120.522 107.152 120.086 107.381L106.644 114.382C105.849 114.795 105.002 113.943 105.413 113.143L112.374 99.6155C112.601 99.1763 112.443 98.6405 112.024 98.3945H112.007C111.579 98.1398 111.037 98.2715 110.775 98.6844L102.618 111.509C102.137 112.265 100.976 111.949 100.932 111.053L100.224 95.8383C100.198 95.3464 99.7965 94.9599 99.3074 94.9599C98.8183 94.9599 98.4165 95.3464 98.3903 95.8383L97.6916 111.053C97.6479 111.949 96.4863 112.265 96.0059 111.509L87.8483 98.6844C87.5863 98.2715 87.0448 98.1398 86.6168 98.3857H86.6081C86.1889 98.6405 86.0316 99.1763 86.2587 99.6155L93.2198 113.134C93.6303 113.934 92.7831 114.786 91.9883 114.373L78.5465 107.372C78.1098 107.144 77.5771 107.302 77.3325 107.723C77.088 108.154 77.219 108.707 77.6295 108.971L90.3725 117.184C91.1236 117.667 90.8092 118.835 89.9183 118.879L74.7996 119.573C74.3105 119.6 73.9262 120.004 73.9262 120.496C73.9262 120.996 74.3105 121.4 74.7996 121.418L89.9183 122.121C90.8092 122.165 91.1236 123.333 90.3725 123.816L77.6295 132.02C77.219 132.284 77.088 132.829 77.3325 133.259C77.5771 133.698 78.1098 133.856 78.5465 133.628L98.8969 123.034C99.1589 122.894 99.4734 122.894 99.7354 123.034L120.086 133.628C120.522 133.856 121.055 133.698 121.3 133.268C121.544 132.837 121.405 132.293 120.994 132.029L108.251 123.825C107.5 123.342 107.814 122.173 108.705 122.129L123.815 121.427C124.304 121.4 124.689 120.996 124.689 120.504C124.689 120.004 124.304 119.6 123.815 119.582" fill="#F9AA19"/>
<path d="M160.21 110.218H168.01V115.419C166.114 116.947 163.739 117.729 160.944 117.729C157.738 117.729 155.101 116.745 153.092 114.812C151.092 112.88 150.079 110.227 150.079 106.924C150.079 103.621 151.057 101.065 152.996 99.0974C154.935 97.121 157.511 96.1284 160.656 96.1284C164.071 96.1284 166.734 97.1649 168.595 99.2204L168.778 99.4225L171.416 96.673L171.276 96.4973C168.944 93.5722 165.293 92.0964 160.411 92.0964C156.262 92.0964 152.742 93.5458 149.948 96.4007C147.153 99.2556 145.738 102.804 145.738 106.942C145.738 111.378 147.17 115.006 150 117.711C152.821 120.417 156.481 121.787 160.856 121.787C162.953 121.787 165.031 121.392 167.031 120.61C169.04 119.828 170.691 118.748 171.949 117.395L172.019 117.325V106.371H160.201V110.245L160.21 110.218Z" fill="#044860"/>
<path d="M195.967 108.549C195.967 111.404 195.304 113.67 194.002 115.295C192.71 116.903 190.806 117.72 188.334 117.72C185.862 117.72 183.923 116.894 182.351 115.26C180.779 113.626 179.975 111.299 179.975 108.347V92.4476H175.8V108.874C175.8 112.941 177.006 116.13 179.399 118.361C181.783 120.592 184.788 121.717 188.334 121.717C191.565 121.717 194.36 120.645 196.666 118.546C198.972 116.429 200.142 113.257 200.142 109.111V92.4476H195.967V108.549Z" fill="#044860"/>
<path d="M213.383 92.3686L200.762 121.4H205.068L208.178 114.206H221.715L224.868 121.4H229.253L216.693 92.5179L216.632 92.3686H213.383ZM209.767 110.446L214.92 98.4121L220.117 110.446H209.767Z" fill="#044860"/>
<path d="M251.961 106.599C253.263 105.097 253.918 103.287 253.918 101.232C253.918 95.3991 250.154 92.4476 242.721 92.4476H231.637V121.4H235.812V110.262H242.791L251.193 121.4H256.311L247.193 109.436C249.14 108.962 250.739 108.004 251.953 106.599H251.961ZM235.821 96.4005H242.599C247.35 96.4005 249.664 97.9817 249.664 101.232C249.664 102.787 249.07 103.99 247.848 104.912C246.616 105.835 244.939 106.309 242.843 106.309H235.821V96.4005Z" fill="#044860"/>
<path d="M280.321 96.6728C279.116 95.3464 277.439 94.3011 275.351 93.5544C273.273 92.8166 270.801 92.4388 268.015 92.4388H259.036V121.392H267.613C272.941 121.392 277.02 119.995 279.753 117.237C282.478 114.478 283.867 110.868 283.867 106.511C283.867 104.57 283.579 102.751 283.002 101.126C282.426 99.4926 281.526 97.9905 280.321 96.6728ZM276.688 114.487C274.775 116.446 271.805 117.439 267.857 117.439H263.22V96.4005H267.936C271.997 96.4005 274.984 97.3141 276.81 99.1148C278.635 100.916 279.561 103.402 279.561 106.511C279.561 109.84 278.592 112.52 276.679 114.487H276.688Z" fill="#044860"/>
<path d="M291.981 92.4476H287.806V121.4H291.981V92.4476Z" fill="#044860"/>
<path d="M310.235 92.3686H306.995L294.374 121.4H298.68L301.789 114.206H315.318L318.471 121.4H322.856L310.296 92.5179L310.235 92.3686ZM303.379 110.446L308.532 98.4121L313.729 110.446H303.379Z" fill="#044860"/>
<path d="M345.46 92.4476V113.758L328.533 92.4476H325.258V121.4H329.31V100.16L346.281 121.4H349.512V92.4476H345.46Z" fill="#044860"/>
<path d="M387.436 106.599C388.737 105.097 389.401 103.287 389.401 101.232C389.401 95.3991 385.636 92.4476 378.204 92.4476H367.129V121.4H371.304V110.262H378.282L386.684 121.4H391.803L382.684 109.436C384.632 108.962 386.23 108.004 387.444 106.599H387.436ZM371.295 96.4005H378.073C382.824 96.4005 385.139 97.9817 385.139 101.232C385.139 102.787 384.545 103.99 383.322 104.912C382.09 105.835 380.413 106.309 378.317 106.309H371.295V96.4005Z" fill="#F9AA19"/>
<path d="M398.685 108.637H414.24V104.763H398.685V96.4005H415.376V92.4476H394.51V121.4H415.734V117.439H398.685V108.637Z" fill="#F9AA19"/>
<path d="M442.251 113.987C440.05 116.464 437.202 117.72 433.787 117.72C430.582 117.72 427.962 116.727 426.005 114.768C424.04 112.809 423.044 110.165 423.044 106.924C423.044 103.683 423.97 101.065 425.804 99.0885C427.63 97.1208 430.171 96.1194 433.342 96.1194C436.512 96.1194 439.316 97.2701 441.569 99.5453L441.744 99.7209L444.46 97.0769L444.329 96.9012C443.281 95.4957 441.779 94.3274 439.849 93.4314C437.927 92.5355 435.709 92.0875 433.255 92.0875C428.922 92.0875 425.376 93.5193 422.712 96.3302C420.049 99.1412 418.704 102.708 418.704 106.924C418.704 111.413 420.057 115.049 422.739 117.729C425.411 120.408 429.053 121.761 433.543 121.761C435.857 121.761 438.05 121.295 440.05 120.373C442.058 119.45 443.639 118.203 444.74 116.657L444.853 116.49L442.434 113.776L442.251 113.987Z" fill="#F9AA19"/>
<path d="M460.094 92.0787C456.007 92.0787 452.504 93.5193 449.692 96.3566C446.88 99.1939 445.456 102.751 445.456 106.915C445.456 111.079 446.88 114.742 449.692 117.535C452.504 120.337 455.998 121.752 460.094 121.752C464.191 121.752 467.641 120.32 470.453 117.491C473.265 114.663 474.689 111.105 474.689 106.906C474.689 102.708 473.265 99.0797 470.453 96.2863C467.641 93.4842 464.156 92.0699 460.094 92.0699V92.0787ZM467.413 114.672C465.466 116.701 463.003 117.729 460.094 117.729C457.186 117.729 454.819 116.692 452.819 114.654C450.819 112.616 449.797 110.016 449.797 106.924C449.797 103.832 450.81 101.205 452.793 99.1763C454.784 97.1472 457.238 96.1194 460.086 96.1194C462.933 96.1194 465.317 97.1472 467.326 99.1763C469.326 101.205 470.348 103.814 470.348 106.924C470.348 110.034 469.361 112.643 467.405 114.672H467.413Z" fill="#F9AA19"/>
<path d="M489.336 115.348L478.471 92.4476H473.955L487.703 121.251L487.773 121.4H490.76L503.922 92.4476H499.529L489.336 115.348Z" fill="#F9AA19"/>
<path d="M510.28 108.637H525.836V104.763H510.28V96.4005H526.971V92.4476H506.105V121.4H527.338V117.439H510.28V108.637Z" fill="#F9AA19"/>
<path d="M552.16 106.599C553.461 105.097 554.125 103.287 554.125 101.232C554.125 95.3991 550.361 92.4476 542.928 92.4476H531.853V121.4H536.028V110.262H543.007L551.409 121.4H556.527L547.409 109.436C549.356 108.962 550.955 108.004 552.169 106.599H552.16ZM536.02 96.4005H542.797C547.548 96.4005 549.863 97.9817 549.863 101.232C549.863 102.787 549.269 103.99 548.046 104.912C546.815 105.835 545.138 106.309 543.042 106.309H536.02V96.4005Z" fill="#F9AA19"/>
<path d="M576.118 92.4476L567.41 106.01L558.815 92.4476H553.732L565.218 110.446V121.4H569.392V110.446L581 92.4476H576.118Z" fill="#F9AA19"/>
<path d="M219.628 147.402L213.96 140.357V147.402H212.23V137.063H213.61L219.279 144.134V137.063H221.008V147.402H219.628Z" fill="#044860"/>
<path d="M223.576 137.063H231.209V138.749H225.349V141.349H230.825V142.974H225.349V145.724H231.358V147.41H223.576V137.063Z" fill="#044860"/>
<path d="M243.682 147.402H242.197L239.681 140.207L237.245 147.402H235.751L232.546 137.063H234.397L236.581 144.213L238.974 137.063H240.432L242.869 144.178L244.957 137.063H246.721L243.682 147.402Z" fill="#044860"/>
<path d="M252.25 137.063H256.608C257.901 137.063 258.818 137.291 259.368 137.748C259.918 138.205 260.189 138.846 260.189 139.663C260.189 140.699 259.778 141.464 258.957 141.964C260.014 142.298 260.547 143.106 260.547 144.389C260.547 145.416 260.189 146.172 259.473 146.664C258.757 147.156 257.77 147.402 256.521 147.402H252.25V137.063ZM254.031 138.74V141.314H256.573C257.141 141.314 257.577 141.2 257.892 140.98C258.206 140.761 258.364 140.453 258.364 140.058C258.364 139.601 258.215 139.276 257.927 139.057C257.63 138.846 257.123 138.74 256.381 138.74H254.031ZM254.031 142.939V145.715H256.407C257.211 145.715 257.796 145.601 258.154 145.372C258.521 145.144 258.695 144.784 258.695 144.283C258.695 143.818 258.529 143.484 258.189 143.264C257.848 143.045 257.298 142.939 256.521 142.939H254.023H254.031Z" fill="#044860"/>
<path d="M262.678 147.402V137.063H266.713C267.491 137.063 268.146 137.15 268.696 137.326C269.246 137.502 269.665 137.748 269.954 138.055C270.242 138.363 270.451 138.705 270.574 139.065C270.705 139.434 270.766 139.83 270.766 140.278C270.766 140.989 270.556 141.613 270.146 142.157C269.735 142.702 269.185 143.071 268.504 143.264L271.587 147.402H269.43L266.626 143.607H264.451V147.402H262.669H262.678ZM264.451 138.74V141.92H266.757C267.429 141.92 267.962 141.771 268.347 141.481C268.731 141.191 268.923 140.787 268.923 140.278C268.923 139.768 268.757 139.408 268.416 139.144C268.076 138.881 267.499 138.749 266.678 138.749H264.46L264.451 138.74Z" fill="#044860"/>
<path d="M281.911 143.001C281.911 143.783 281.788 144.468 281.552 145.065C281.317 145.662 280.985 146.128 280.566 146.479C280.146 146.822 279.701 147.085 279.212 147.252C278.723 147.428 278.199 147.507 277.64 147.507C276.356 147.507 275.281 147.103 274.417 146.304C273.552 145.504 273.115 144.371 273.115 142.913V137.063H274.888V142.693C274.888 143.642 275.142 144.397 275.657 144.977C276.172 145.557 276.827 145.838 277.64 145.838C278.452 145.838 279.081 145.557 279.509 144.995C279.928 144.433 280.138 143.686 280.138 142.746V137.063H281.919V143.001H281.911Z" fill="#044860"/>
<path d="M291.798 147.402L286.129 140.357V147.402H284.4V137.063H285.78L291.448 144.134V137.063H293.178V147.402H291.798Z" fill="#044860"/>
<path d="M301.353 143.791C301.117 143.572 300.811 143.405 300.444 143.282C300.069 143.159 299.658 143.045 299.213 142.939C298.767 142.834 298.313 142.711 297.859 142.57C297.405 142.43 296.994 142.254 296.627 142.043C296.252 141.832 295.955 141.551 295.719 141.182C295.483 140.813 295.37 140.374 295.37 139.865C295.37 139.048 295.745 138.354 296.505 137.792C297.265 137.23 298.226 136.94 299.387 136.94C301.082 136.94 302.409 137.432 303.37 138.415L302.401 139.689C301.536 138.969 300.523 138.609 299.344 138.609C298.732 138.609 298.226 138.705 297.815 138.907C297.405 139.109 297.195 139.408 297.195 139.812C297.195 140.137 297.352 140.409 297.667 140.62C297.981 140.831 298.374 140.989 298.837 141.095C299.3 141.2 299.815 141.332 300.366 141.49C300.916 141.648 301.423 141.832 301.894 142.026C302.366 142.219 302.759 142.526 303.064 142.939C303.379 143.361 303.536 143.862 303.536 144.45C303.536 145.346 303.152 146.084 302.392 146.655C301.632 147.226 300.698 147.516 299.588 147.516C298.689 147.516 297.824 147.331 296.986 146.98C296.156 146.62 295.51 146.172 295.064 145.627L296.121 144.371C297.055 145.355 298.261 145.847 299.746 145.847C300.366 145.847 300.846 145.733 301.187 145.513C301.527 145.293 301.702 144.986 301.702 144.591C301.702 144.274 301.588 144.011 301.353 143.791Z" fill="#044860"/>
<path d="M315.642 147.402H314.157L311.641 140.207L309.205 147.402H307.711L304.506 137.063H306.357L308.541 144.213L310.934 137.063H312.392L314.829 144.178L316.917 137.063H318.681L315.642 147.402Z" fill="#044860"/>
<path d="M320.236 137.063H322.017V147.402H320.236V137.063Z" fill="#044860"/>
<path d="M333.494 145.601C333.075 146.198 332.49 146.673 331.756 147.015C331.014 147.358 330.21 147.525 329.328 147.525C327.712 147.525 326.428 147.042 325.476 146.084C324.524 145.127 324.044 143.844 324.044 142.237C324.044 140.726 324.524 139.47 325.502 138.459C326.472 137.449 327.738 136.949 329.31 136.949C330.21 136.949 331.022 137.115 331.73 137.44C332.437 137.765 332.979 138.205 333.345 138.732L332.166 139.856C331.45 139.057 330.524 138.661 329.389 138.661C328.332 138.661 327.485 138.986 326.847 139.637C326.21 140.287 325.895 141.156 325.895 142.237C325.895 143.317 326.227 144.178 326.882 144.828C327.546 145.487 328.402 145.812 329.459 145.812C330.699 145.812 331.703 145.355 332.455 144.45L333.494 145.601Z" fill="#044860"/>
<path d="M337.031 137.063V141.595L341.643 137.063H343.966L339.293 141.701L344.298 147.402H341.931L337.948 142.895L337.023 143.8V147.402H335.241V137.063H337.031Z" fill="#044860"/>
<path d="M358.648 145.601C358.229 146.198 357.644 146.673 356.91 147.015C356.168 147.358 355.364 147.525 354.482 147.525C352.866 147.525 351.582 147.042 350.63 146.084C349.678 145.127 349.198 143.844 349.198 142.237C349.198 140.726 349.678 139.47 350.656 138.459C351.626 137.449 352.892 136.949 354.464 136.949C355.364 136.949 356.176 137.115 356.884 137.44C357.591 137.765 358.133 138.205 358.5 138.732L357.321 139.856C356.604 139.057 355.679 138.661 354.543 138.661C353.486 138.661 352.639 138.986 352.001 139.637C351.364 140.287 351.049 141.156 351.049 142.237C351.049 143.317 351.381 144.178 352.036 144.828C352.7 145.487 353.556 145.812 354.613 145.812C355.853 145.812 356.858 145.355 357.609 144.45L358.648 145.601Z" fill="#044860"/>
<path d="M360.998 138.468C362.011 137.449 363.26 136.94 364.736 136.94C366.212 136.94 367.461 137.44 368.474 138.451C369.487 139.461 369.994 140.717 369.994 142.228C369.994 143.739 369.487 144.995 368.465 146.005C367.443 147.015 366.203 147.516 364.736 147.516C363.268 147.516 362.019 147.015 361.006 146.005C359.993 144.995 359.478 143.739 359.478 142.228C359.478 140.717 359.984 139.487 360.998 138.468ZM362.325 144.802C362.989 145.469 363.792 145.803 364.736 145.803C365.679 145.803 366.517 145.469 367.164 144.802C367.819 144.134 368.142 143.282 368.142 142.228C368.142 141.174 367.81 140.33 367.138 139.654C366.465 138.986 365.67 138.653 364.736 138.653C363.801 138.653 362.989 138.986 362.325 139.654C361.661 140.322 361.329 141.174 361.329 142.228C361.329 143.282 361.661 144.125 362.325 144.802Z" fill="#044860"/>
<path d="M380.71 143.001C380.71 143.783 380.588 144.468 380.352 145.065C380.116 145.662 379.785 146.128 379.365 146.479C378.946 146.822 378.501 147.085 378.012 147.252C377.522 147.428 376.998 147.507 376.439 147.507C375.155 147.507 374.081 147.103 373.217 146.304C372.352 145.504 371.915 144.371 371.915 142.913V137.063H373.688V142.693C373.688 143.642 373.941 144.397 374.457 144.977C374.972 145.557 375.627 145.838 376.439 145.838C377.252 145.838 377.881 145.557 378.309 144.995C378.728 144.433 378.937 143.686 378.937 142.746V137.063H380.719V143.001H380.71Z" fill="#044860"/>
<path d="M390.597 147.402L384.929 140.357V147.402H383.2V137.063H384.58L390.248 144.134V137.063H391.977V147.402H390.597Z" fill="#044860"/>
<path d="M400.152 143.791C399.917 143.572 399.611 143.405 399.244 143.282C398.868 143.159 398.458 143.045 398.013 142.939C397.567 142.834 397.113 142.711 396.659 142.57C396.205 142.43 395.794 142.254 395.427 142.043C395.052 141.832 394.755 141.551 394.519 141.182C394.283 140.813 394.17 140.374 394.17 139.865C394.17 139.048 394.545 138.354 395.305 137.792C396.065 137.23 397.026 136.94 398.187 136.94C399.882 136.94 401.209 137.432 402.17 138.415L401.2 139.689C400.336 138.969 399.323 138.609 398.144 138.609C397.532 138.609 397.026 138.705 396.615 138.907C396.205 139.109 395.995 139.408 395.995 139.812C395.995 140.137 396.152 140.409 396.467 140.62C396.781 140.831 397.174 140.989 397.637 141.095C398.1 141.2 398.615 141.332 399.165 141.49C399.716 141.648 400.222 141.832 400.694 142.026C401.166 142.219 401.559 142.526 401.864 142.939C402.179 143.361 402.336 143.862 402.336 144.45C402.336 145.346 401.952 146.084 401.192 146.655C400.432 147.226 399.497 147.516 398.388 147.516C397.488 147.516 396.624 147.331 395.785 146.98C394.956 146.62 394.309 146.172 393.864 145.627L394.921 144.371C395.855 145.355 397.061 145.847 398.545 145.847C399.165 145.847 399.646 145.733 399.986 145.513C400.327 145.293 400.502 144.986 400.502 144.591C400.502 144.274 400.388 144.011 400.152 143.791Z" fill="#044860"/>
<path d="M404.319 137.063H411.952V138.749H406.092V141.349H411.568V142.974H406.092V145.724H412.101V147.41H404.319V137.063Z" fill="#044860"/>
<path d="M414.302 137.063H416.083V145.715H421.918V147.402H414.31V137.063H414.302Z" fill="#044860"/>
<path d="M423.603 137.063H425.385V147.402H423.603V137.063Z" fill="#044860"/>
<path d="M435.351 147.402L429.682 140.357V147.402H427.953V137.063H429.333L435.001 144.134V137.063H436.731V147.402H435.351Z" fill="#044860"/>
<path d="M443.849 141.876H448.286V145.882C447.814 146.4 447.22 146.804 446.504 147.094C445.788 147.384 445.028 147.525 444.233 147.525C442.626 147.525 441.316 147.042 440.294 146.067C439.272 145.1 438.757 143.818 438.757 142.237C438.757 140.743 439.255 139.487 440.259 138.468C441.255 137.458 442.521 136.949 444.05 136.949C444.923 136.949 445.709 137.098 446.426 137.388C447.133 137.686 447.683 138.09 448.068 138.618L446.88 139.751C446.233 139.022 445.325 138.661 444.146 138.661C443.08 138.661 442.224 138.986 441.587 139.628C440.949 140.269 440.626 141.139 440.626 142.237C440.626 143.335 440.967 144.222 441.639 144.854C442.312 145.487 443.194 145.803 444.286 145.803C445.22 145.803 445.989 145.566 446.609 145.083V143.502H443.875V141.876H443.849Z" fill="#044860"/>
<path d="M463.204 145.601C462.784 146.198 462.199 146.673 461.466 147.015C460.723 147.358 459.92 147.525 459.037 147.525C457.422 147.525 456.138 147.042 455.186 146.084C454.234 145.127 453.753 143.844 453.753 142.237C453.753 140.726 454.234 139.47 455.212 138.459C456.181 137.449 457.448 136.949 459.02 136.949C459.92 136.949 460.732 137.115 461.439 137.44C462.147 137.765 462.688 138.205 463.055 138.732L461.876 139.856C461.16 139.057 460.234 138.661 459.099 138.661C458.042 138.661 457.195 138.986 456.557 139.637C455.919 140.287 455.605 141.156 455.605 142.237C455.605 143.317 455.937 144.178 456.592 144.828C457.256 145.487 458.112 145.812 459.168 145.812C460.409 145.812 461.413 145.355 462.164 144.45L463.204 145.601Z" fill="#044860"/>
<path d="M464.959 137.063H472.593V138.749H466.732V141.349H472.208V142.974H466.732V145.724H472.741V147.41H464.959V137.063Z" fill="#044860"/>
<path d="M482.349 147.402L476.68 140.357V147.402H474.951V137.063H476.331L481.999 144.134V137.063H483.729V147.402H482.349Z" fill="#044860"/>
<path d="M485.283 137.063H493.965V138.749H490.515V147.402H488.742V138.749H485.292V137.063H485.283Z" fill="#044860"/>
<path d="M495.52 137.063H503.153V138.749H497.293V141.349H502.769V142.974H497.293V145.724H503.302V147.41H495.52V137.063Z" fill="#044860"/>
<path d="M505.503 147.402V137.063H509.538C510.315 137.063 510.97 137.15 511.52 137.326C512.071 137.502 512.49 137.748 512.778 138.055C513.066 138.363 513.276 138.705 513.398 139.065C513.529 139.434 513.59 139.83 513.59 140.278C513.59 140.989 513.381 141.613 512.97 142.157C512.56 142.702 512.01 143.071 511.328 143.264L514.411 147.402H512.254L509.451 143.607H507.276V147.402H505.494H505.503ZM507.276 138.74V141.92H509.581C510.254 141.92 510.787 141.771 511.171 141.481C511.555 141.191 511.748 140.787 511.748 140.278C511.748 139.768 511.582 139.408 511.241 139.144C510.9 138.881 510.324 138.749 509.503 138.749H507.284L507.276 138.74Z" fill="#044860"/>
<path d="M197.243 140.629H157.363V143.264H197.243V140.629Z" fill="#F9AA19"/>
<path d="M569.358 140.629H529.399V143.264H569.358V140.629Z" fill="#F9AA19"/>
</svg>
