<svg width="645" height="240" viewBox="0 0 645 240" fill="none" xmlns="http://www.w3.org/2000/svg">
<rect width="645" height="240" fill="white"/>
<path d="M99.3162 155C80.3982 155 65 139.522 65 120.496C65 101.469 80.3982 86 99.3162 86C118.234 86 133.615 101.478 133.615 120.496C133.615 139.513 118.234 154.991 99.3162 154.991V155ZM99.3162 89.3029C82.2061 89.3029 68.284 103.296 68.284 120.496C68.284 137.695 82.2061 151.697 99.3162 151.697C116.426 151.697 130.331 137.704 130.331 120.496C130.331 103.287 116.417 89.3029 99.3162 89.3029Z" fill="#044860"/>
<path d="M110.024 138.222L99.7267 132.881C99.5956 132.811 99.4559 132.776 99.3074 132.776C99.1677 132.776 99.0192 132.811 98.8882 132.881L88.5907 138.222C88.154 138.451 87.9706 138.978 88.1802 139.426C88.3811 139.874 88.9051 140.084 89.3593 139.9L98.9668 136.149C99.0716 136.105 99.1851 136.079 99.2987 136.079C99.4122 136.079 99.5258 136.105 99.6306 136.149L109.238 139.9C109.692 140.084 110.216 139.874 110.417 139.426C110.618 138.978 110.435 138.451 110.007 138.222H110.024Z" fill="#F9AA19"/>
<path d="M123.824 119.573L108.714 118.879C107.823 118.835 107.509 117.667 108.26 117.184L121.003 108.971C121.413 108.707 121.544 108.163 121.3 107.741C121.055 107.311 120.522 107.152 120.086 107.381L106.644 114.382C105.849 114.795 105.002 113.943 105.413 113.143L112.374 99.6155C112.601 99.1763 112.443 98.6405 112.024 98.3945H112.007C111.579 98.1398 111.037 98.2715 110.775 98.6844L102.618 111.509C102.137 112.265 100.976 111.949 100.932 111.053L100.224 95.8383C100.198 95.3464 99.7965 94.9599 99.3074 94.9599C98.8183 94.9599 98.4165 95.3464 98.3903 95.8383L97.6916 111.053C97.6479 111.949 96.4863 112.265 96.0059 111.509L87.8483 98.6844C87.5863 98.2715 87.0448 98.1398 86.6168 98.3857H86.6081C86.1889 98.6405 86.0316 99.1763 86.2587 99.6155L93.2198 113.134C93.6303 113.934 92.7831 114.786 91.9883 114.373L78.5465 107.372C78.1098 107.144 77.5771 107.302 77.3325 107.723C77.088 108.154 77.219 108.707 77.6295 108.971L90.3725 117.184C91.1236 117.667 90.8092 118.835 89.9183 118.879L74.7996 119.573C74.3105 119.6 73.9262 120.004 73.9262 120.496C73.9262 120.996 74.3105 121.4 74.7996 121.418L89.9183 122.121C90.8092 122.165 91.1236 123.333 90.3725 123.816L77.6295 132.02C77.219 132.284 77.088 132.829 77.3325 133.259C77.5771 133.698 78.1098 133.856 78.5465 133.628L98.8969 123.034C99.1589 122.894 99.4734 122.894 99.7354 123.034L120.086 133.628C120.522 133.856 121.055 133.698 121.3 133.268C121.544 132.837 121.405 132.293 120.994 132.029L108.251 123.825C107.5 123.342 107.814 122.173 108.705 122.129L123.815 121.427C124.304 121.4 124.689 120.996 124.689 120.504C124.689 120.004 124.304 119.6 123.815 119.582" fill="#F9AA19"/>
<path d="M160.21 110.218H168.01V115.418C166.114 116.947 163.739 117.729 160.944 117.729C157.738 117.729 155.101 116.745 153.092 114.812C151.092 112.88 150.079 110.227 150.079 106.924C150.079 103.621 151.057 101.065 152.996 99.0974C154.935 97.1209 157.511 96.1283 160.656 96.1283C164.071 96.1283 166.734 97.1649 168.595 99.2116L168.778 99.4136L171.416 96.6642L171.276 96.4885C168.944 93.5633 165.293 92.0876 160.411 92.0876C156.262 92.0876 152.742 93.537 149.948 96.3918C147.153 99.2467 145.738 102.796 145.738 106.933C145.738 111.369 147.17 114.997 150 117.702C152.821 120.408 156.481 121.778 160.856 121.778C162.953 121.778 165.031 121.383 167.031 120.601C169.04 119.819 170.691 118.739 171.949 117.386L172.019 117.316V106.362H160.201V110.236L160.21 110.218Z" fill="#044860"/>
<path d="M195.967 108.549C195.967 111.404 195.304 113.67 194.002 115.295C192.71 116.903 190.806 117.72 188.334 117.72C185.862 117.72 183.923 116.894 182.351 115.26C180.779 113.626 179.975 111.299 179.975 108.347V92.4476H175.8V108.874C175.8 112.941 177.006 116.13 179.399 118.361C181.783 120.592 184.788 121.717 188.334 121.717C191.565 121.717 194.36 120.645 196.666 118.546C198.972 116.429 200.142 113.257 200.142 109.111V92.4476H195.967V108.549Z" fill="#044860"/>
<path d="M213.383 92.3686L200.762 121.4H205.068L208.178 114.206H221.715L224.868 121.4H229.253L216.693 92.5179L216.632 92.3686H213.383ZM220.117 110.446H209.767L214.92 98.4121L220.117 110.446Z" fill="#044860"/>
<path d="M251.961 106.599C253.263 105.097 253.918 103.287 253.918 101.232C253.918 95.3991 250.154 92.4476 242.721 92.4476H231.637V121.4H235.812V110.262H242.791L251.193 121.4H256.311L247.193 109.436C249.14 108.962 250.739 108.004 251.953 106.599H251.961ZM235.821 96.4005H242.599C247.35 96.4005 249.664 97.9817 249.664 101.232C249.664 102.787 249.07 103.99 247.848 104.912C246.616 105.835 244.939 106.309 242.843 106.309H235.821V96.4005Z" fill="#044860"/>
<path d="M280.321 96.6728C279.116 95.3464 277.439 94.3011 275.351 93.5544C273.273 92.8165 270.801 92.4388 268.015 92.4388H259.036V121.392H267.613C272.941 121.392 277.02 119.995 279.753 117.237C282.478 114.478 283.867 110.868 283.867 106.511C283.867 104.57 283.579 102.751 283.002 101.126C282.426 99.4926 281.526 97.9905 280.321 96.6728ZM267.849 117.439H263.211V96.4005H267.927C271.989 96.4005 274.976 97.3141 276.801 99.1148C278.627 100.916 279.552 103.402 279.552 106.511C279.552 109.84 278.583 112.52 276.67 114.487C274.757 116.446 271.788 117.439 267.84 117.439H267.849Z" fill="#044860"/>
<path d="M291.972 92.4476H287.797V121.4H291.972V92.4476Z" fill="#044860"/>
<path d="M310.235 92.3686H306.995L294.374 121.4H298.68L301.789 114.206H315.318L318.471 121.4H322.856L310.296 92.5179L310.235 92.3686ZM313.729 110.446H303.379L308.532 98.4121L313.729 110.446Z" fill="#044860"/>
<path d="M345.46 92.4476V113.767L328.533 92.4476H325.258V121.4H329.31V100.16L346.202 121.304L346.281 121.4H349.512V92.4476H345.46Z" fill="#044860"/>
<path d="M387.436 106.599C388.737 105.097 389.401 103.287 389.401 101.232C389.401 95.3991 385.636 92.4476 378.204 92.4476H367.129V121.4H371.304V110.262H378.282L386.684 121.4H391.803L382.684 109.436C384.632 108.962 386.23 108.004 387.444 106.599H387.436ZM371.295 96.4005H378.073C382.824 96.4005 385.139 97.9817 385.139 101.232C385.139 102.787 384.545 103.99 383.322 104.912C382.09 105.835 380.413 106.309 378.317 106.309H371.295V96.4005Z" fill="#F9AA19"/>
<path d="M398.685 108.637H414.24V104.763H398.685V96.4005H415.376V92.4476H394.51V121.4H415.734V117.439H398.685V108.637Z" fill="#F9AA19"/>
<path d="M442.251 113.987C440.05 116.464 437.202 117.72 433.787 117.72C430.582 117.72 427.962 116.727 426.005 114.768C424.04 112.809 423.044 110.165 423.044 106.924C423.044 103.683 423.97 101.065 425.804 99.0885C427.63 97.1208 430.171 96.1194 433.342 96.1194C436.512 96.1194 439.316 97.2701 441.569 99.5365L441.744 99.7122L444.46 97.0681L444.329 96.8924C443.281 95.4782 441.779 94.3187 439.849 93.4227C437.927 92.5267 435.709 92.0787 433.255 92.0787C428.922 92.0787 425.376 93.5017 422.712 96.3215C420.049 99.1324 418.704 102.699 418.704 106.915C418.704 111.404 420.057 115.041 422.739 117.72C425.411 120.399 429.053 121.752 433.543 121.752C435.857 121.752 438.05 121.286 440.05 120.364C442.058 119.441 443.639 118.194 444.74 116.639L444.853 116.472L442.434 113.758L442.251 113.969V113.987Z" fill="#F9AA19"/>
<path d="M460.094 92.0787C456.007 92.0787 452.504 93.5193 449.692 96.3566C446.88 99.1939 445.456 102.751 445.456 106.915C445.456 111.079 446.88 114.742 449.692 117.535C452.504 120.337 455.998 121.752 460.094 121.752C464.191 121.752 467.641 120.32 470.453 117.491C473.265 114.663 474.689 111.105 474.689 106.906C474.689 102.708 473.265 99.0797 470.453 96.2863C467.641 93.4841 464.156 92.0699 460.094 92.0699V92.0787ZM460.094 117.729C457.264 117.729 454.819 116.692 452.819 114.654C450.819 112.616 449.797 110.016 449.797 106.924C449.797 103.832 450.81 101.205 452.793 99.1763C454.784 97.1472 457.238 96.1194 460.086 96.1194C462.933 96.1194 465.317 97.1472 467.326 99.1763C469.326 101.205 470.348 103.814 470.348 106.924C470.348 110.034 469.361 112.643 467.405 114.672C465.457 116.701 462.994 117.729 460.086 117.729H460.094Z" fill="#F9AA19"/>
<path d="M489.336 115.348L478.471 92.4476H473.955L487.703 121.251L487.773 121.4H490.76L503.922 92.4476H499.529L489.336 115.348Z" fill="#F9AA19"/>
<path d="M510.28 108.637H525.836V104.763H510.28V96.4005H526.971V92.4476H506.105V121.4H527.338V117.439H510.28V108.637Z" fill="#F9AA19"/>
<path d="M552.16 106.599C553.461 105.097 554.125 103.287 554.125 101.232C554.125 95.3991 550.361 92.4476 542.928 92.4476H531.853V121.4H536.028V110.262H543.007L551.409 121.4H556.527L547.409 109.436C549.356 108.962 550.955 108.004 552.169 106.599H552.16ZM536.02 96.4005H542.797C547.548 96.4005 549.863 97.9817 549.863 101.232C549.863 102.787 549.269 103.99 548.046 104.912C546.815 105.835 545.138 106.309 543.042 106.309H536.02V96.4005Z" fill="#F9AA19"/>
<path d="M576.118 92.4476L567.41 106.01L558.815 92.4476H553.732L565.218 110.446V121.4H569.392V110.446L581 92.4476H576.118Z" fill="#F9AA19"/>
<path d="M238.598 148.201H237.096L231.279 135.903H233.568L237.865 145.127L241.882 135.903H244.118L238.598 148.201Z" fill="#044860"/>
<path d="M245.839 135.903H247.953V148.201H245.839V135.903Z" fill="#044860"/>
<path d="M251.009 148.201V135.903H255.813C256.73 135.903 257.516 136.009 258.171 136.219C258.826 136.43 259.324 136.72 259.665 137.089C260.006 137.458 260.259 137.862 260.407 138.292C260.556 138.723 260.634 139.206 260.634 139.733C260.634 140.576 260.39 141.323 259.901 141.964C259.412 142.605 258.757 143.045 257.944 143.282L261.613 148.201H259.045L255.708 143.686H253.123V148.201H251.009ZM253.132 137.906V141.683H255.874C256.678 141.683 257.307 141.507 257.761 141.165C258.215 140.822 258.442 140.339 258.442 139.733C258.442 139.127 258.241 138.696 257.839 138.38C257.438 138.064 256.748 137.906 255.77 137.906H253.132Z" fill="#044860"/>
<path d="M261.525 135.903H271.849V137.906H267.744V148.201H265.63V137.906H261.525V135.903Z" fill="#044860"/>
<path d="M284.05 142.966C284.05 143.888 283.911 144.705 283.622 145.416C283.334 146.128 282.95 146.681 282.452 147.094C281.954 147.507 281.421 147.815 280.836 148.017C280.251 148.219 279.631 148.324 278.967 148.324C277.439 148.324 276.164 147.85 275.133 146.892C274.102 145.935 273.587 144.591 273.587 142.86V135.903H275.701V142.597C275.701 143.721 276.006 144.626 276.609 145.311C277.212 145.996 277.998 146.339 278.967 146.339C279.937 146.339 280.688 146.005 281.186 145.337C281.684 144.67 281.937 143.783 281.937 142.667V135.903H284.05V142.966Z" fill="#044860"/>
<path d="M291.116 135.903H292.723L298.086 148.201H295.868L294.68 145.478H289.107L287.937 148.201H285.754L291.116 135.903ZM289.876 143.651H293.894L291.885 138.978L289.876 143.651Z" fill="#044860"/>
<path d="M299.903 135.903H302.016V146.198H308.951V148.201H299.903V135.903Z" fill="#044860"/>
<path d="M325.694 146.058C325.197 146.769 324.507 147.331 323.624 147.735C322.742 148.14 321.782 148.342 320.734 148.342C318.812 148.342 317.284 147.771 316.148 146.629C315.013 145.487 314.445 143.958 314.445 142.052C314.445 140.26 315.021 138.767 316.174 137.563C317.327 136.36 318.838 135.763 320.699 135.763C321.773 135.763 322.734 135.956 323.581 136.351C324.428 136.746 325.074 137.256 325.502 137.888L324.105 139.224C323.258 138.275 322.157 137.801 320.803 137.801C319.546 137.801 318.541 138.187 317.781 138.96C317.022 139.733 316.646 140.761 316.646 142.052C316.646 143.343 317.039 144.354 317.825 145.135C318.611 145.917 319.633 146.304 320.891 146.304C322.367 146.304 323.555 145.768 324.454 144.687L325.694 146.058Z" fill="#044860"/>
<path d="M328.489 137.581C329.695 136.369 331.179 135.763 332.935 135.763C334.691 135.763 336.175 136.36 337.381 137.555C338.586 138.749 339.189 140.251 339.189 142.052C339.189 143.853 338.586 145.337 337.372 146.541C336.158 147.744 334.682 148.342 332.935 148.342C331.188 148.342 329.712 147.744 328.498 146.55C327.284 145.355 326.681 143.853 326.681 142.052C326.681 140.251 327.284 138.793 328.489 137.581ZM330.079 145.109C330.874 145.908 331.826 146.304 332.944 146.304C334.062 146.304 335.057 145.908 335.835 145.118C336.612 144.327 336.996 143.308 336.996 142.052C336.996 140.796 336.595 139.795 335.8 138.995C335.005 138.196 334.053 137.801 332.944 137.801C331.835 137.801 330.874 138.196 330.079 138.986C329.284 139.777 328.891 140.796 328.891 142.052C328.891 143.308 329.284 144.31 330.079 145.109Z" fill="#044860"/>
<path d="M351.949 142.966C351.949 143.888 351.809 144.705 351.521 145.416C351.233 146.128 350.849 146.681 350.351 147.094C349.853 147.507 349.32 147.815 348.735 148.017C348.15 148.219 347.53 148.324 346.866 148.324C345.337 148.324 344.062 147.85 343.032 146.892C342.001 145.935 341.486 144.591 341.486 142.86V135.903H343.599V142.597C343.599 143.721 343.905 144.626 344.508 145.311C345.11 145.996 345.896 146.339 346.866 146.339C347.835 146.339 348.586 146.005 349.084 145.337C349.582 144.67 349.835 143.783 349.835 142.667V135.903H351.949V142.966Z" fill="#044860"/>
<path d="M363.705 148.201L356.962 139.821V148.201H354.901V135.903H356.543L363.286 144.318V135.903H365.347V148.201H363.705Z" fill="#044860"/>
<path d="M375.077 143.914C374.797 143.66 374.439 143.458 373.994 143.308C373.548 143.159 373.059 143.027 372.527 142.904C371.994 142.781 371.452 142.632 370.919 142.465C370.387 142.298 369.898 142.087 369.452 141.841C369.007 141.595 368.649 141.253 368.369 140.813C368.09 140.374 367.95 139.847 367.95 139.241C367.95 138.266 368.404 137.449 369.304 136.773C370.203 136.096 371.347 135.763 372.736 135.763C374.754 135.763 376.326 136.351 377.47 137.519L376.317 139.03C375.295 138.178 374.081 137.748 372.684 137.748C371.959 137.748 371.356 137.871 370.867 138.108C370.378 138.345 370.133 138.705 370.133 139.188C370.133 139.575 370.317 139.891 370.692 140.146C371.068 140.401 371.531 140.585 372.09 140.708C372.649 140.831 373.251 140.989 373.906 141.182C374.562 141.376 375.164 141.587 375.723 141.815C376.282 142.043 376.745 142.403 377.121 142.904C377.496 143.405 377.68 144.002 377.68 144.705C377.68 145.768 377.225 146.646 376.317 147.323C375.409 147.999 374.3 148.342 372.981 148.342C371.906 148.342 370.876 148.131 369.889 147.7C368.902 147.27 368.133 146.734 367.6 146.093L368.858 144.599C369.967 145.768 371.4 146.356 373.173 146.356C373.906 146.356 374.474 146.225 374.885 145.961C375.295 145.698 375.496 145.329 375.496 144.863C375.496 144.485 375.356 144.169 375.077 143.914Z" fill="#044860"/>
<path d="M380.029 135.903H389.113V137.906H382.143V140.998H388.658V142.93H382.143V146.198H389.287V148.201H380.029V135.903Z" fill="#044860"/>
<path d="M391.907 135.903H394.021V146.198H400.956V148.201H391.907V135.903Z" fill="#044860"/>
<path d="M402.965 135.903H405.078V148.201H402.965V135.903Z" fill="#044860"/>
<path d="M416.948 148.201L410.205 139.821V148.201H408.144V135.903H409.786L416.529 144.318V135.903H418.59V148.201H416.948Z" fill="#044860"/>
<path d="M427.053 141.63H432.329V146.391C431.77 147.015 431.062 147.489 430.206 147.832C429.35 148.175 428.451 148.342 427.507 148.342C425.595 148.342 424.031 147.762 422.817 146.611C421.603 145.46 420.992 143.941 420.992 142.052C420.992 140.269 421.586 138.776 422.774 137.572C423.961 136.369 425.464 135.763 427.28 135.763C428.32 135.763 429.254 135.938 430.102 136.29C430.949 136.641 431.595 137.124 432.049 137.748L430.634 139.101C429.866 138.231 428.783 137.801 427.385 137.801C426.119 137.801 425.097 138.187 424.337 138.951C423.577 139.715 423.193 140.752 423.193 142.052C423.193 143.352 423.595 144.415 424.398 145.17C425.202 145.926 426.25 146.304 427.542 146.304C428.652 146.304 429.569 146.014 430.302 145.443V143.563H427.053V141.63Z" fill="#044860"/>
<path d="M438.268 135.903H448.592V137.906H444.487V148.201H442.373V137.906H438.268V135.903Z" fill="#044860"/>
<path d="M450.443 135.903H459.527V137.906H452.557V140.998H459.072V142.93H452.557V146.198H459.701V148.201H450.443V135.903Z" fill="#044860"/>
<path d="M468.331 141.964L472.907 148.201H470.322L467.055 143.686L463.789 148.201H461.221L465.798 141.964L461.413 135.903H463.946L467.073 140.207L470.2 135.903H472.75L468.331 141.964Z" fill="#044860"/>
<path d="M478.672 135.903H480.279L485.641 148.201H483.423L482.235 145.478H476.663L475.492 148.201H473.309L478.672 135.903ZM477.431 143.651H481.449L479.44 138.978L477.431 143.651Z" fill="#044860"/>
<path d="M494.131 143.914C493.851 143.66 493.493 143.458 493.048 143.308C492.603 143.159 492.113 143.027 491.581 142.904C491.048 142.781 490.506 142.632 489.974 142.465C489.441 142.298 488.952 142.087 488.506 141.841C488.061 141.595 487.703 141.253 487.423 140.813C487.144 140.374 487.004 139.847 487.004 139.241C487.004 138.266 487.458 137.449 488.358 136.773C489.257 136.096 490.402 135.763 491.79 135.763C493.808 135.763 495.38 136.351 496.524 137.519L495.371 139.03C494.349 138.178 493.135 137.748 491.738 137.748C491.013 137.748 490.41 137.871 489.921 138.108C489.432 138.345 489.188 138.705 489.188 139.188C489.188 139.575 489.371 139.891 489.746 140.146C490.122 140.401 490.585 140.585 491.144 140.708C491.703 140.831 492.306 140.989 492.961 141.182C493.616 141.376 494.218 141.587 494.777 141.815C495.336 142.043 495.799 142.403 496.175 142.904C496.55 143.405 496.734 144.002 496.734 144.705C496.734 145.768 496.28 146.646 495.371 147.323C494.463 147.999 493.354 148.342 492.035 148.342C490.961 148.342 489.93 148.131 488.943 147.7C487.956 147.27 487.187 146.734 486.655 146.093L487.912 144.599C489.022 145.768 490.454 146.356 492.227 146.356C492.961 146.356 493.528 146.225 493.939 145.961C494.349 145.698 494.55 145.329 494.55 144.863C494.55 144.485 494.41 144.169 494.131 143.914Z" fill="#044860"/>
<path d="M216.292 140.524H157.852V143.062H216.292V140.524Z" fill="#F9AA19"/>
<path d="M569.943 140.471H511.721V143.106H569.943V140.471Z" fill="#F9AA19"/>
</svg>
