<svg width="645" height="300" viewBox="0 0 645 300" fill="none" xmlns="http://www.w3.org/2000/svg">
<rect width="645" height="300" fill="#083045"/>
<path d="M201.817 229.867H200.372L194.776 218.202H196.978L201.112 226.951L204.977 218.202H207.127L201.817 229.867Z" fill="white"/>
<path d="M208.791 218.202H210.824V229.867H208.791V218.202Z" fill="white"/>
<path d="M213.765 229.867V218.202H218.386C219.268 218.202 220.025 218.302 220.655 218.502C221.285 218.702 221.764 218.977 222.091 219.327C222.419 219.677 222.663 220.06 222.806 220.469C222.948 220.877 223.024 221.335 223.024 221.835C223.024 222.635 222.789 223.343 222.318 223.951C221.848 224.559 221.218 224.976 220.436 225.201L223.965 229.867H221.495L218.285 225.584H215.798V229.867H213.765ZM215.798 220.102V223.685H218.437C219.21 223.685 219.815 223.518 220.251 223.193C220.688 222.868 220.907 222.41 220.907 221.835C220.907 221.26 220.714 220.852 220.327 220.552C219.941 220.252 219.277 220.102 218.336 220.102H215.798Z" fill="white"/>
<path d="M223.881 218.202H233.812V220.102H229.863V229.867H227.83V220.102H223.881V218.202Z" fill="white"/>
<path d="M245.542 224.901C245.542 225.776 245.407 226.551 245.13 227.226C244.853 227.9 244.483 228.425 244.004 228.817C243.525 229.208 243.013 229.5 242.45 229.692C241.887 229.883 241.29 229.983 240.652 229.983C239.181 229.983 237.955 229.533 236.963 228.625C235.972 227.717 235.476 226.442 235.476 224.801V218.202H237.509V224.551C237.509 225.618 237.803 226.476 238.383 227.126C238.963 227.775 239.719 228.1 240.652 228.1C241.584 228.1 242.307 227.784 242.786 227.151C243.265 226.517 243.508 225.676 243.508 224.618V218.202H245.542V224.901Z" fill="white"/>
<path d="M252.347 218.202H253.893L259.052 229.867H256.918L255.775 227.284H250.415L249.289 229.867H247.188L252.347 218.202ZM251.154 225.551H255.019L253.087 221.119L251.154 225.551Z" fill="white"/>
<path d="M260.8 218.202H262.833V227.967H269.504V229.867H260.8V218.202Z" fill="white"/>
<path d="M285.603 227.834C285.124 228.509 284.46 229.042 283.611 229.425C282.763 229.808 281.838 230 280.83 230C278.982 230 277.511 229.458 276.419 228.375C275.327 227.292 274.781 225.843 274.781 224.035C274.781 222.335 275.335 220.919 276.444 219.777C277.553 218.636 279.007 218.069 280.797 218.069C281.83 218.069 282.754 218.252 283.569 218.627C284.384 219.002 285.006 219.486 285.418 220.085L284.073 221.352C283.258 220.452 282.2 220.002 280.897 220.002C279.687 220.002 278.721 220.369 277.99 221.102C277.259 221.835 276.898 222.81 276.898 224.035C276.898 225.259 277.276 226.217 278.032 226.959C278.788 227.7 279.771 228.067 280.981 228.067C282.401 228.067 283.544 227.559 284.409 226.534L285.603 227.834Z" fill="white"/>
<path d="M288.3 219.794C289.459 218.644 290.887 218.069 292.576 218.069C294.265 218.069 295.693 218.636 296.853 219.769C298.012 220.902 298.592 222.327 298.592 224.035C298.592 225.743 298.012 227.151 296.844 228.292C295.677 229.433 294.257 230 292.576 230C290.896 230 289.476 229.433 288.308 228.3C287.14 227.167 286.56 225.743 286.56 224.035C286.56 222.327 287.14 220.944 288.3 219.794ZM289.82 226.934C290.585 227.692 291.501 228.067 292.576 228.067C293.652 228.067 294.609 227.692 295.357 226.942C296.105 226.192 296.475 225.226 296.475 224.035C296.475 222.843 296.088 221.893 295.324 221.135C294.559 220.377 293.643 220.002 292.576 220.002C291.509 220.002 290.585 220.377 289.82 221.127C289.056 221.877 288.678 222.843 288.678 224.035C288.678 225.226 289.056 226.176 289.82 226.934Z" fill="white"/>
<path d="M310.867 224.901C310.867 225.776 310.733 226.551 310.456 227.226C310.178 227.9 309.809 228.425 309.33 228.817C308.851 229.208 308.338 229.5 307.775 229.692C307.213 229.883 306.616 229.983 305.977 229.983C304.507 229.983 303.28 229.533 302.289 228.625C301.298 227.717 300.802 226.442 300.802 224.801V218.202H302.835V224.551C302.835 225.618 303.129 226.476 303.709 227.126C304.289 227.775 305.045 228.1 305.977 228.1C306.91 228.1 307.633 227.784 308.112 227.151C308.59 226.517 308.834 225.676 308.834 224.618V218.202H310.867V224.901Z" fill="white"/>
<path d="M322.168 229.867L315.682 221.918V229.867H313.699V218.202H315.279L321.765 226.184V218.202H323.748V229.867H322.168Z" fill="white"/>
<path d="M333.108 225.801C332.839 225.559 332.494 225.368 332.066 225.226C331.637 225.084 331.167 224.959 330.654 224.843C330.142 224.726 329.621 224.584 329.108 224.426C328.596 224.268 328.125 224.068 327.697 223.835C327.268 223.601 326.924 223.276 326.655 222.86C326.386 222.443 326.252 221.943 326.252 221.368C326.252 220.444 326.688 219.669 327.554 219.027C328.419 218.386 329.52 218.069 330.856 218.069C332.797 218.069 334.309 218.627 335.41 219.735L334.301 221.169C333.318 220.36 332.15 219.952 330.805 219.952C330.108 219.952 329.528 220.069 329.058 220.294C328.587 220.519 328.352 220.86 328.352 221.318C328.352 221.685 328.529 221.985 328.89 222.227C329.251 222.468 329.696 222.643 330.234 222.76C330.772 222.876 331.352 223.026 331.982 223.21C332.612 223.393 333.192 223.593 333.729 223.81C334.267 224.026 334.712 224.368 335.074 224.843C335.435 225.318 335.611 225.884 335.611 226.551C335.611 227.559 335.175 228.392 334.301 229.034C333.427 229.675 332.36 230 331.091 230C330.058 230 329.066 229.8 328.117 229.392C327.167 228.984 326.428 228.475 325.916 227.867L327.125 226.451C328.192 227.559 329.57 228.117 331.276 228.117C331.982 228.117 332.528 227.992 332.923 227.742C333.318 227.492 333.511 227.142 333.511 226.701C333.511 226.342 333.377 226.042 333.108 225.801Z" fill="white"/>
<path d="M337.88 218.202H346.618V220.102H339.913V223.035H346.181V224.868H339.913V227.967H346.786V229.867H337.88V218.202Z" fill="white"/>
<path d="M349.307 218.202H351.34V227.967H358.011V229.867H349.307V218.202Z" fill="white"/>
<path d="M359.944 218.202H361.977V229.867H359.944V218.202Z" fill="white"/>
<path d="M373.387 229.867L366.901 221.918V229.867H364.918V218.202H366.497L372.984 226.184V218.202H374.967V229.867H373.387Z" fill="white"/>
<path d="M383.117 223.635H388.191V228.15C387.654 228.742 386.973 229.192 386.15 229.517C385.326 229.842 384.461 230 383.554 230C381.713 230 380.21 229.45 379.042 228.359C377.874 227.267 377.286 225.826 377.286 224.035C377.286 222.343 377.857 220.927 379 219.785C380.142 218.644 381.587 218.069 383.335 218.069C384.335 218.069 385.234 218.236 386.049 218.569C386.864 218.902 387.486 219.361 387.923 219.952L386.561 221.235C385.822 220.41 384.78 220.002 383.436 220.002C382.218 220.002 381.235 220.369 380.504 221.094C379.773 221.818 379.403 222.802 379.403 224.035C379.403 225.268 379.789 226.276 380.562 226.992C381.335 227.709 382.344 228.067 383.587 228.067C384.654 228.067 385.536 227.792 386.242 227.251V225.468H383.117V223.635Z" fill="white"/>
<path d="M393.905 218.202H403.836V220.102H399.887V229.867H397.854V220.102H393.905V218.202Z" fill="white"/>
<path d="M405.617 218.202H414.355V220.102H407.651V223.035H413.918V224.868H407.651V227.967H414.523V229.867H405.617V218.202Z" fill="white"/>
<path d="M422.825 223.951L427.227 229.867H424.74L421.598 225.584L418.456 229.867H415.985L420.388 223.951L416.17 218.202H418.607L421.615 222.285L424.623 218.202H427.076L422.825 223.951Z" fill="white"/>
<path d="M432.773 218.202H434.319L439.477 229.867H437.343L436.201 227.284H430.84L429.714 229.867H427.614L432.773 218.202ZM431.58 225.551H435.444L433.512 221.119L431.58 225.551Z" fill="white"/>
<path d="M447.644 225.801C447.375 225.559 447.031 225.368 446.602 225.226C446.174 225.084 445.703 224.959 445.191 224.843C444.678 224.726 444.157 224.584 443.645 224.426C443.132 224.268 442.662 224.068 442.233 223.835C441.805 223.601 441.46 223.276 441.191 222.86C440.923 222.443 440.788 221.943 440.788 221.368C440.788 220.444 441.225 219.669 442.091 219.027C442.956 218.386 444.057 218.069 445.393 218.069C447.333 218.069 448.846 218.627 449.946 219.735L448.837 221.169C447.854 220.36 446.686 219.952 445.342 219.952C444.645 219.952 444.065 220.069 443.594 220.294C443.124 220.519 442.889 220.86 442.889 221.318C442.889 221.685 443.065 221.985 443.426 222.227C443.788 222.468 444.233 222.643 444.771 222.76C445.309 222.876 445.888 223.026 446.518 223.21C447.149 223.393 447.728 223.593 448.266 223.81C448.804 224.026 449.249 224.368 449.61 224.843C449.972 225.318 450.148 225.884 450.148 226.551C450.148 227.559 449.711 228.392 448.837 229.034C447.964 229.675 446.897 230 445.628 230C444.594 230 443.603 229.8 442.653 229.392C441.704 228.984 440.965 228.475 440.452 227.867L441.662 226.451C442.729 227.559 444.107 228.117 445.813 228.117C446.518 228.117 447.065 227.992 447.459 227.742C447.854 227.492 448.048 227.142 448.048 226.701C448.048 226.342 447.913 226.042 447.644 225.801Z" fill="white"/>
<path d="M181.762 222.46H119.864V224.959H181.762V222.46Z" fill="#F9AA19"/>
<path d="M525.842 222.46H463.28V224.959H525.842V222.46Z" fill="#F9AA19"/>
<path d="M322.202 148.5C300.365 148.5 282.603 130.896 282.603 109.25C282.603 87.6047 300.365 70 322.202 70C344.039 70 361.775 87.6047 361.775 109.25C361.775 130.896 344.022 148.5 322.202 148.5ZM322.202 73.1327C302.104 73.1327 285.762 89.3376 285.762 109.25C285.762 129.163 302.113 145.368 322.202 145.368C342.291 145.368 358.616 129.163 358.616 109.25C358.616 89.3376 342.274 73.1327 322.202 73.1327Z" fill="white"/>
<path d="M334.654 129.579L322.681 123.447C322.529 123.372 322.361 123.331 322.193 123.331C322.025 123.331 321.857 123.372 321.706 123.447L309.733 129.579C309.229 129.838 309.019 130.446 309.254 130.962C309.49 131.479 310.094 131.72 310.624 131.504L321.807 127.205C321.933 127.155 322.067 127.13 322.202 127.13C322.336 127.13 322.471 127.155 322.597 127.205L333.78 131.504C334.309 131.72 334.914 131.479 335.149 130.962C335.385 130.446 335.175 129.838 334.67 129.579H334.654Z" fill="#F9AA19"/>
<path d="M350.71 108.184L333.133 107.392C332.091 107.342 331.73 106.001 332.604 105.451L347.433 96.0279C347.912 95.728 348.063 95.1031 347.786 94.6115C347.5 94.12 346.879 93.9367 346.374 94.195L330.73 102.218C329.806 102.693 328.814 101.71 329.293 100.794L337.393 85.2802C337.653 84.7803 337.477 84.1637 336.981 83.8804H336.964C336.468 83.5888 335.838 83.7388 335.536 84.2137L326.042 98.9273C325.479 99.7938 324.126 99.4355 324.084 98.4107L323.269 80.9561C323.244 80.3895 322.773 79.9479 322.202 79.9479H322.193C321.622 79.9479 321.152 80.3895 321.126 80.9561L320.32 98.4024C320.269 99.4355 318.917 99.7938 318.362 98.919L308.868 84.2054C308.557 83.7305 307.927 83.5805 307.439 83.8638H307.423C306.935 84.1554 306.75 84.7719 307.011 85.2718L315.119 100.785C315.598 101.702 314.606 102.685 313.682 102.21L298.046 94.1783C297.542 93.92 296.92 94.095 296.634 94.5865C296.349 95.0864 296.5 95.7113 296.979 96.0196L311.808 105.443C312.682 106.001 312.321 107.342 311.279 107.384L293.694 108.175C293.122 108.2 292.677 108.667 292.677 109.233C292.677 109.808 293.122 110.267 293.694 110.3L311.279 111.1C312.321 111.15 312.682 112.491 311.8 113.041L296.97 122.456C296.492 122.764 296.34 123.389 296.626 123.872V123.889C296.92 124.372 297.542 124.555 298.046 124.297L321.723 112.141C322.034 111.983 322.395 111.983 322.706 112.141L346.383 124.297C346.887 124.555 347.517 124.372 347.794 123.88C348.072 123.389 347.92 122.764 347.442 122.464L332.612 113.049C331.738 112.491 332.099 111.15 333.141 111.108L350.718 110.308C351.29 110.283 351.735 109.817 351.735 109.25C351.735 108.675 351.29 108.217 350.718 108.184H350.71Z" fill="#F9AA19"/>
<path d="M350.794 185.968C352.046 184.543 352.684 182.826 352.684 180.877C352.684 175.345 349.063 172.545 341.913 172.545H331.251V200.006H335.267V189.442H341.98L350.063 200.006H354.987L346.215 188.667C348.089 188.217 349.626 187.309 350.794 185.976V185.968ZM335.267 176.295H341.787C346.358 176.295 348.584 177.794 348.584 180.877C348.584 182.352 348.013 183.493 346.837 184.368C345.652 185.243 344.039 185.693 342.022 185.693H335.267V176.295Z" fill="#F9AA19"/>
<path d="M361.616 187.9H376.588V184.218H361.616V176.295H377.672V172.545H357.6V199.998H378.025V196.249H361.616V187.9Z" fill="#F9AA19"/>
<path d="M403.525 192.974C401.408 195.324 398.669 196.515 395.384 196.515C392.3 196.515 389.779 195.574 387.897 193.716C386.007 191.858 385.049 189.35 385.049 186.276C385.049 183.201 385.94 180.719 387.704 178.844C389.46 176.978 391.897 176.028 394.955 176.028C398.013 176.028 400.702 177.119 402.87 179.269L403.038 179.436L405.651 176.928L405.525 176.761C404.525 175.428 403.071 174.32 401.215 173.47C399.366 172.62 397.232 172.195 394.871 172.195C390.704 172.195 387.292 173.545 384.73 176.22C382.167 178.886 380.873 182.268 380.873 186.267C380.873 190.525 382.176 193.974 384.755 196.515C387.326 199.056 390.83 200.34 395.148 200.34C397.375 200.34 399.484 199.898 401.408 199.023C403.34 198.148 404.861 196.965 405.92 195.491L406.029 195.332L403.702 192.758L403.525 192.958V192.974Z" fill="#F9AA19"/>
<path d="M420.691 172.195C416.758 172.195 413.389 173.562 410.684 176.253C407.978 178.944 406.609 182.318 406.609 186.267C406.609 190.217 407.978 193.691 410.684 196.34C413.389 198.998 416.75 200.34 420.691 200.34C424.631 200.34 427.95 198.981 430.655 196.299C433.361 193.616 434.73 190.242 434.73 186.259C434.73 182.277 433.361 178.836 430.655 176.186C427.95 173.528 424.597 172.187 420.691 172.187V172.195ZM420.691 196.515C417.968 196.515 415.616 195.532 413.692 193.599C411.768 191.666 410.785 189.2 410.785 186.267C410.785 183.335 411.759 180.844 413.666 178.919C415.582 176.994 417.943 176.02 420.691 176.02C423.438 176.02 425.723 176.994 427.656 178.919C429.58 180.844 430.563 183.318 430.563 186.267C430.563 189.217 429.613 191.691 427.731 193.616C425.858 195.541 423.488 196.515 420.691 196.515Z" fill="#F9AA19"/>
<path d="M448.829 194.257L438.436 172.679L438.377 172.545H434.033L447.258 199.865L447.325 199.998H450.19L462.701 172.879L462.852 172.545H458.626L448.829 194.257Z" fill="#F9AA19"/>
<path d="M468.977 187.9H483.941V184.218H468.977V176.295H485.025V172.545H464.952V199.998H485.378V196.249H468.977V187.9Z" fill="#F9AA19"/>
<path d="M509.265 185.968C510.517 184.543 511.155 182.826 511.155 180.877C511.155 175.345 507.534 172.545 500.384 172.545H489.73V200.006H493.746V189.442H500.46L508.475 199.906L508.542 199.998H513.466L504.694 188.659C506.568 188.209 508.105 187.301 509.273 185.968H509.265ZM493.729 176.295H500.249C504.82 176.295 507.047 177.794 507.047 180.877C507.047 182.352 506.475 183.493 505.299 184.368C504.114 185.243 502.493 185.693 500.485 185.693H493.729V176.295Z" fill="#F9AA19"/>
<path d="M532.312 172.545L523.926 185.409L515.659 172.545H510.777L521.818 189.617V199.998H525.842V189.617L537 172.545H532.312Z" fill="#F9AA19"/>
<path d="M123.309 189.4H131.022V194.324C129.148 195.774 126.796 196.515 124.031 196.515C120.864 196.515 118.251 195.582 116.268 193.749C114.293 191.916 113.285 189.4 113.285 186.276C113.285 183.151 114.26 180.727 116.167 178.852C118.083 176.978 120.628 176.028 123.746 176.028C127.123 176.028 129.761 177.011 131.601 178.961L131.77 179.144L134.374 176.544L134.231 176.378C131.929 173.612 128.316 172.204 123.502 172.204C119.41 172.204 115.932 173.578 113.167 176.278C110.403 178.986 109 182.352 109 186.276C109 190.492 110.42 193.924 113.209 196.49C115.999 199.048 119.612 200.348 123.939 200.348C126.006 200.348 128.056 199.973 130.039 199.231C132.022 198.49 133.66 197.465 134.903 196.19L134.971 196.124V185.726H123.309V189.4Z" fill="white"/>
<path d="M159.261 187.817C159.261 190.525 158.606 192.674 157.32 194.216C156.043 195.74 154.153 196.524 151.716 196.524C149.279 196.524 147.355 195.74 145.793 194.182C144.23 192.624 143.448 190.425 143.448 187.625V172.545H139.331V188.125C139.331 191.983 140.524 195.007 142.885 197.132C145.238 199.248 148.204 200.315 151.716 200.315C154.9 200.315 157.673 199.306 159.942 197.307C162.219 195.299 163.378 192.291 163.378 188.359V172.545H159.261V187.817Z" fill="white"/>
<path d="M180.266 172.462H177.082L164.605 199.998H168.848L171.923 193.174H185.316L188.433 199.998H192.752L180.333 172.604L180.266 172.462ZM173.494 189.617L178.603 178.186L183.745 189.617H173.494Z" fill="white"/>
<path d="M215.807 185.968C217.092 184.543 217.748 182.826 217.748 180.877C217.748 175.345 214.026 172.545 206.682 172.545H195.734V200.006H199.851V189.442H206.766L215.076 200.006H220.125L211.11 188.667C213.034 188.217 214.614 187.309 215.815 185.976L215.807 185.968ZM199.843 176.295H206.556C211.261 176.295 213.547 177.794 213.547 180.877C213.547 182.352 212.958 183.493 211.749 184.368C210.53 185.243 208.867 185.693 206.8 185.693H199.851V176.303L199.843 176.295Z" fill="white"/>
<path d="M244.441 176.553C243.248 175.295 241.593 174.303 239.534 173.603C237.484 172.904 235.039 172.545 232.283 172.545H223.411V200.006H231.88C237.14 200.006 241.173 198.682 243.87 196.065C246.567 193.449 247.936 190.025 247.936 185.893C247.936 184.051 247.65 182.327 247.079 180.785C246.516 179.236 245.617 177.811 244.432 176.561L244.441 176.553ZM232.124 196.249H227.528V176.295H232.199C236.215 176.295 239.173 177.161 240.979 178.869C242.786 180.577 243.702 182.935 243.702 185.884C243.702 189.042 242.744 191.583 240.853 193.441C238.963 195.299 236.022 196.24 232.115 196.24L232.124 196.249Z" fill="white"/>
<path d="M256.565 172.545H252.448V200.006H256.565V172.545Z" fill="white"/>
<path d="M275.218 172.462H272.033L259.556 199.998H263.799L266.874 193.174H280.267L283.384 199.998H287.703L275.285 172.604L275.218 172.462ZM268.446 189.617L273.554 178.186L278.696 189.617H268.446Z" fill="white"/>
<path d="M310.649 172.545V192.774L293.904 172.545H290.677V199.998H294.677V179.844L311.388 199.915L311.456 199.998H314.648V172.545H310.649Z" fill="white"/>
</svg>
