<svg width="645" height="300" viewBox="0 0 645 300" fill="none" xmlns="http://www.w3.org/2000/svg">
<rect width="645" height="300" fill="white"/>
<path d="M160.505 222.465H119.864V224.963H160.505V222.465Z" fill="#F9AA19"/>
<path d="M525.657 222.465H486.21V224.963H525.657V222.465Z" fill="#F9AA19"/>
<path d="M173.519 218.21H175.317L179.518 223.622L183.568 218.21H185.349V229.867H183.316V221.791L179.737 226.42H179.216L175.553 221.774V229.867H173.519V218.21Z" fill="#044860"/>
<path d="M189.408 219.801C190.567 218.652 191.995 218.077 193.684 218.077C195.373 218.077 196.801 218.643 197.961 219.776C199.12 220.908 199.7 222.332 199.7 224.039C199.7 225.745 199.12 227.153 197.952 228.293C196.785 229.434 195.365 230 193.684 230C192.004 230 190.584 229.434 189.416 228.301C188.248 227.169 187.668 225.745 187.668 224.039C187.668 222.332 188.248 220.95 189.408 219.801ZM190.928 226.936C191.693 227.694 192.609 228.068 193.684 228.068C194.76 228.068 195.717 227.694 196.465 226.944C197.213 226.195 197.583 225.229 197.583 224.039C197.583 222.848 197.196 221.899 196.432 221.141C195.667 220.384 194.751 220.009 193.684 220.009C192.617 220.009 191.693 220.384 190.928 221.133C190.164 221.882 189.786 222.848 189.786 224.039C189.786 225.229 190.164 226.178 190.928 226.936Z" fill="#044860"/>
<path d="M210.488 229.867L204.002 221.924V229.867H202.019V218.21H203.599L210.085 226.187V218.21H212.068V229.867H210.488Z" fill="#044860"/>
<path d="M213.849 218.21H223.78V220.109H219.831V229.867H217.798V220.109H213.849V218.21Z" fill="#044860"/>
<path d="M231.426 229.867H229.981L224.385 218.21H226.587L230.72 226.953L234.585 218.21H236.736L231.426 229.867Z" fill="#044860"/>
<path d="M238.4 218.21H240.433V229.867H238.4V218.21Z" fill="#044860"/>
<path d="M243.374 218.21H245.407V227.968H252.078V229.867H243.374V218.21Z" fill="#044860"/>
<path d="M254.011 218.21H256.044V227.968H262.715V229.867H254.011V218.21Z" fill="#044860"/>
<path d="M264.648 218.21H273.386V220.109H266.681V223.039H272.949V224.871H266.681V227.968H273.554V229.867H264.648V218.21Z" fill="#044860"/>
<path d="M284.594 218.21H286.14L291.299 229.867H289.165L288.022 227.286H282.662L281.536 229.867H279.435L284.594 218.21ZM283.401 225.554H287.266L285.334 221.125L283.401 225.554Z" fill="#044860"/>
<path d="M293.047 218.21H296.727C297.903 218.21 298.928 218.36 299.81 218.66C300.693 218.96 301.382 219.376 301.886 219.917C302.39 220.458 302.759 221.05 302.995 221.707C303.23 222.365 303.348 223.089 303.348 223.889C303.348 225.662 302.776 227.103 301.634 228.21C300.491 229.317 298.785 229.867 296.508 229.867H293.047V218.21ZM295.08 220.109V227.968H296.66C298.214 227.968 299.365 227.602 300.113 226.878C300.861 226.153 301.23 225.154 301.23 223.889C301.23 221.366 299.718 220.109 296.693 220.109H295.08Z" fill="#044860"/>
<path d="M306.776 219.801C307.935 218.652 309.363 218.077 311.052 218.077C312.741 218.077 314.169 218.643 315.329 219.776C316.488 220.908 317.068 222.332 317.068 224.039C317.068 225.745 316.488 227.153 315.321 228.293C314.153 229.434 312.733 230 311.052 230C309.372 230 307.952 229.434 306.784 228.301C305.616 227.169 305.036 225.745 305.036 224.039C305.036 222.332 305.616 220.95 306.776 219.801ZM308.305 226.936C309.069 227.694 309.985 228.068 311.061 228.068C312.136 228.068 313.094 227.694 313.842 226.944C314.59 226.195 314.959 225.229 314.959 224.039C314.959 222.848 314.573 221.899 313.808 221.141C313.044 220.384 312.128 220.009 311.061 220.009C309.994 220.009 309.069 220.384 308.305 221.133C307.54 221.882 307.162 222.848 307.162 224.039C307.162 225.229 307.54 226.178 308.305 226.936Z" fill="#044860"/>
<path d="M319.387 218.21H321.42V227.968H328.092V229.867H319.387V218.21Z" fill="#044860"/>
<path d="M330.024 218.21H338.762V220.109H332.057V223.039H338.325V224.871H332.057V227.968H338.93V229.867H330.024V218.21Z" fill="#044860"/>
<path d="M347.878 225.804C347.61 225.562 347.265 225.371 346.837 225.229C346.408 225.088 345.938 224.963 345.425 224.846C344.913 224.73 344.392 224.588 343.879 224.43C343.367 224.272 342.896 224.072 342.468 223.839C342.039 223.606 341.695 223.281 341.426 222.865C341.157 222.448 341.022 221.949 341.022 221.374C341.022 220.45 341.459 219.676 342.325 219.035C343.19 218.394 344.291 218.077 345.627 218.077C347.568 218.077 349.08 218.635 350.181 219.742L349.072 221.174C348.089 220.367 346.921 219.959 345.576 219.959C344.879 219.959 344.299 220.075 343.829 220.3C343.358 220.525 343.123 220.866 343.123 221.324C343.123 221.691 343.299 221.99 343.661 222.232C344.022 222.473 344.467 222.648 345.005 222.765C345.543 222.881 346.122 223.031 346.753 223.214C347.383 223.398 347.962 223.597 348.5 223.814C349.038 224.03 349.483 224.372 349.845 224.846C350.206 225.321 350.382 225.887 350.382 226.553C350.382 227.56 349.945 228.393 349.072 229.034C348.198 229.675 347.131 230 345.862 230C344.828 230 343.837 229.8 342.888 229.392C341.938 228.984 341.199 228.476 340.686 227.869L341.896 226.453C342.963 227.56 344.341 228.118 346.047 228.118C346.753 228.118 347.299 227.993 347.694 227.744C348.088 227.494 348.282 227.144 348.282 226.703C348.282 226.345 348.147 226.045 347.878 225.804Z" fill="#044860"/>
<path d="M362.851 227.835C362.372 228.51 361.708 229.043 360.86 229.426C360.011 229.809 359.087 230 358.079 230C356.23 230 354.76 229.459 353.667 228.376C352.575 227.294 352.029 225.845 352.029 224.039C352.029 222.34 352.584 220.925 353.693 219.784C354.802 218.643 356.255 218.077 358.045 218.077C359.078 218.077 360.003 218.26 360.818 218.635C361.633 219.01 362.254 219.493 362.666 220.092L361.322 221.358C360.507 220.458 359.448 220.009 358.146 220.009C356.936 220.009 355.97 220.375 355.239 221.108C354.508 221.841 354.146 222.815 354.146 224.039C354.146 225.263 354.524 226.22 355.281 226.961C356.037 227.702 357.02 228.068 358.23 228.068C359.65 228.068 360.792 227.56 361.658 226.536L362.851 227.835Z" fill="#044860"/>
<path d="M364.859 218.21H373.597V220.109H366.892V223.039H373.16V224.871H366.892V227.968H373.765V229.867H364.859V218.21Z" fill="#044860"/>
<path d="M384.763 229.867L378.277 221.924V229.867H376.294V218.21H377.874L384.36 226.187V218.21H386.343V229.867H384.763Z" fill="#044860"/>
<path d="M388.116 218.21H398.047V220.109H394.098V229.867H392.065V220.109H388.116V218.21Z" fill="#044860"/>
<path d="M414.591 227.835C414.112 228.51 413.448 229.043 412.599 229.426C411.751 229.809 410.827 230 409.818 230C407.97 230 406.499 229.459 405.407 228.376C404.315 227.294 403.769 225.845 403.769 224.039C403.769 222.34 404.323 220.925 405.432 219.784C406.541 218.643 407.995 218.077 409.785 218.077C410.818 218.077 411.742 218.26 412.557 218.635C413.372 219.01 413.994 219.493 414.406 220.092L413.061 221.358C412.246 220.458 411.188 220.009 409.885 220.009C408.676 220.009 407.709 220.375 406.978 221.108C406.247 221.841 405.886 222.815 405.886 224.039C405.886 225.263 406.264 226.22 407.02 226.961C407.777 227.702 408.76 228.068 409.97 228.068C411.389 228.068 412.532 227.56 413.398 226.536L414.591 227.835Z" fill="#044860"/>
<path d="M416.599 218.21H425.337V220.109H418.632V223.039H424.9V224.871H418.632V227.968H425.505V229.867H416.599V218.21Z" fill="#044860"/>
<path d="M436.495 229.867L430.008 221.924V229.867H428.026V218.21H429.605L436.091 226.187V218.21H438.074V229.867H436.495Z" fill="#044860"/>
<path d="M439.856 218.21H449.787V220.109H445.838V229.867H443.805V220.109H439.856V218.21Z" fill="#044860"/>
<path d="M451.568 218.21H460.306V220.109H453.601V223.039H459.869V224.871H453.601V227.968H460.474V229.867H451.568V218.21Z" fill="#044860"/>
<path d="M462.995 229.867V218.21H467.616C468.498 218.21 469.254 218.31 469.884 218.51C470.515 218.71 470.994 218.985 471.321 219.334C471.649 219.684 471.893 220.067 472.035 220.475C472.178 220.883 472.254 221.341 472.254 221.841C472.254 222.64 472.019 223.348 471.548 223.955C471.078 224.563 470.447 224.979 469.666 225.204L473.195 229.867H470.725L467.515 225.587H465.028V229.867H462.995ZM465.028 220.109V223.689H467.666C468.439 223.689 469.044 223.522 469.481 223.198C469.918 222.873 470.137 222.415 470.137 221.841C470.137 221.266 469.943 220.858 469.557 220.558C469.17 220.259 468.507 220.109 467.566 220.109H465.028Z" fill="#044860"/>
<path d="M322.202 148.439C300.365 148.439 282.603 130.846 282.603 109.215C282.603 87.5844 300.365 70 322.202 70C344.039 70 361.775 87.5928 361.775 109.224C361.775 130.854 344.022 148.447 322.202 148.447V148.439ZM322.202 73.1306C302.104 73.1306 285.762 89.3246 285.762 109.224C285.762 129.123 302.113 145.317 322.202 145.317C342.291 145.317 358.616 129.123 358.616 109.224C358.616 89.3246 342.274 73.1306 322.202 73.1306Z" fill="#044860"/>
<path d="M334.654 129.539L322.681 123.411C322.529 123.336 322.361 123.294 322.193 123.294C322.025 123.294 321.857 123.336 321.706 123.411L309.733 129.539C309.229 129.797 309.019 130.405 309.254 130.921C309.49 131.437 310.094 131.679 310.624 131.462L321.807 127.166C321.933 127.116 322.067 127.091 322.202 127.091C322.336 127.091 322.471 127.116 322.597 127.166L333.78 131.462C334.309 131.679 334.914 131.437 335.149 130.921C335.385 130.405 335.175 129.797 334.67 129.539H334.654Z" fill="#F9AA19"/>
<path d="M350.71 108.158L333.133 107.367C332.091 107.317 331.73 105.976 332.604 105.427L347.433 96.0103C347.912 95.7106 348.063 95.0861 347.786 94.5949C347.5 94.1037 346.879 93.9205 346.374 94.1786L330.73 102.196C329.806 102.671 328.814 101.689 329.293 100.773L337.393 85.2698C337.653 84.7703 337.477 84.1541 336.981 83.8711H336.964C336.468 83.5796 335.838 83.7295 335.536 84.2041L326.042 98.9077C325.479 99.7736 324.126 99.4156 324.084 98.3915L323.269 80.9486C323.244 80.3825 322.773 79.9412 322.202 79.9412H322.193C321.622 79.9412 321.152 80.3825 321.126 80.9486L320.32 98.3832C320.269 99.4156 318.917 99.7736 318.362 98.8994L308.868 84.1958C308.557 83.7212 307.927 83.5713 307.439 83.8544H307.423C306.935 84.1458 306.75 84.7619 307.011 85.2615L315.119 100.764C315.598 101.68 314.606 102.663 313.682 102.188L298.046 94.1619C297.542 93.9038 296.92 94.0787 296.634 94.5699C296.349 95.0695 296.5 95.6939 296.979 96.002L311.808 105.419C312.682 105.976 312.321 107.317 311.279 107.359L293.694 108.15C293.122 108.175 292.677 108.641 292.677 109.207C292.677 109.781 293.122 110.239 293.694 110.273L311.279 111.072C312.321 111.122 312.682 112.462 311.8 113.012L296.97 122.42C296.492 122.728 296.34 123.353 296.626 123.836V123.852C296.92 124.335 297.542 124.518 298.046 124.26L321.723 112.113C322.034 111.955 322.395 111.955 322.706 112.113L346.383 124.26C346.887 124.518 347.517 124.335 347.794 123.844C348.072 123.353 347.92 122.728 347.442 122.429L332.612 113.02C331.738 112.462 332.099 111.122 333.141 111.08L350.718 110.281C351.29 110.256 351.735 109.79 351.735 109.224C351.735 108.649 351.29 108.191 350.718 108.158H350.71Z" fill="#F9AA19"/>
<path d="M350.794 185.889C352.046 184.465 352.676 182.75 352.676 180.802C352.676 175.273 349.055 172.476 341.905 172.476H331.242V199.918H335.259V189.361H341.972L349.987 199.818L350.055 199.91H354.978L346.206 188.578C348.08 188.129 349.618 187.221 350.786 185.889H350.794ZM335.267 176.223H341.787C346.358 176.223 348.584 177.721 348.584 180.802C348.584 182.276 348.013 183.416 346.837 184.29C345.652 185.165 344.039 185.614 342.022 185.614H335.267V176.223Z" fill="#F9AA19"/>
<path d="M361.624 187.812H376.588V184.141H361.624V176.223H377.672V172.468H357.6V199.91H378.025V196.163H361.624V187.812Z" fill="#F9AA19"/>
<path d="M403.525 192.891C401.408 195.239 398.669 196.43 395.384 196.43C392.3 196.43 389.779 195.489 387.897 193.632C386.007 191.776 385.049 189.269 385.049 186.197C385.049 183.125 385.94 180.644 387.704 178.77C389.46 176.905 391.905 175.956 394.955 175.956C398.005 175.956 400.702 177.047 402.87 179.203L403.038 179.37L405.651 176.864L405.525 176.697C404.525 175.365 403.071 174.258 401.215 173.408C399.366 172.559 397.232 172.135 394.871 172.135C390.704 172.135 387.292 173.492 384.73 176.156C382.167 178.82 380.873 182.201 380.873 186.197C380.873 190.452 382.176 193.899 384.755 196.438C387.326 198.977 390.83 200.26 395.148 200.26C397.375 200.26 399.484 199.818 401.408 198.944C403.34 198.07 404.861 196.888 405.92 195.422L406.029 195.264L403.702 192.691L403.525 192.891Z" fill="#F9AA19"/>
<path d="M420.691 172.126C416.758 172.126 413.389 173.492 410.684 176.181C407.978 178.87 406.609 182.242 406.609 186.189C406.609 190.135 407.978 193.607 410.684 196.255C413.389 198.911 416.75 200.251 420.691 200.251C424.631 200.251 427.95 198.894 430.655 196.213C433.361 193.532 434.73 190.16 434.73 186.18C434.73 182.201 433.361 178.762 430.655 176.114C427.95 173.458 424.597 172.118 420.691 172.118V172.126ZM420.691 196.43C417.968 196.43 415.616 195.447 413.692 193.516C411.768 191.584 410.785 189.12 410.785 186.189C410.785 183.258 411.759 180.769 413.666 178.845C415.582 176.922 417.943 175.948 420.682 175.948C423.421 175.948 425.715 176.922 427.647 178.845C429.571 180.769 430.555 183.241 430.555 186.189C430.555 189.136 429.605 191.609 427.723 193.532C425.849 195.456 423.48 196.43 420.682 196.43H420.691Z" fill="#F9AA19"/>
<path d="M448.829 194.173L438.436 172.609L438.377 172.468H434.033L447.258 199.777L447.325 199.91H450.19L462.701 172.809L462.852 172.468H458.626L448.829 194.173Z" fill="#F9AA19"/>
<path d="M468.977 187.812H483.941V184.141H468.977V176.223H485.025V172.468H464.952V199.91H485.378V196.163H468.977V187.812Z" fill="#F9AA19"/>
<path d="M509.265 185.889C510.517 184.465 511.155 182.75 511.155 180.802C511.155 175.273 507.534 172.476 500.384 172.476H489.73V199.918H493.746V189.361H500.46L508.475 199.818L508.542 199.91H513.466L504.694 188.578C506.568 188.129 508.105 187.221 509.273 185.889H509.265ZM493.729 176.223H500.249C504.82 176.223 507.047 177.721 507.047 180.802C507.047 182.276 506.475 183.416 505.299 184.29C504.114 185.165 502.493 185.614 500.485 185.614H493.729V176.223Z" fill="#F9AA19"/>
<path d="M532.312 172.468L523.926 185.323L515.667 172.468H510.777L521.818 189.536V199.91H525.842V189.536L537 172.468H532.312Z" fill="#F9AA19"/>
<path d="M131.022 189.319V194.24C129.148 195.689 126.796 196.43 124.031 196.43C120.864 196.43 118.251 195.497 116.268 193.666C114.293 191.834 113.285 189.319 113.285 186.197C113.285 183.075 114.26 180.652 116.167 178.779C118.083 176.905 120.628 175.956 123.746 175.956C127.123 175.956 129.761 176.939 131.601 178.887L131.77 179.07L134.374 176.472L134.231 176.306C131.929 173.542 128.316 172.135 123.502 172.135C119.41 172.135 115.932 173.508 113.167 176.206C110.403 178.912 109 182.276 109 186.197C109 190.41 110.42 193.84 113.209 196.405C115.999 198.961 119.612 200.26 123.939 200.26C126.006 200.26 128.064 199.885 130.039 199.144C132.022 198.403 133.66 197.379 134.903 196.105L134.971 196.038V185.648H123.3V189.319H131.022Z" fill="#044860"/>
<path d="M159.261 187.729C159.261 190.435 158.606 192.583 157.32 194.123C156.043 195.647 154.153 196.43 151.716 196.43C149.279 196.43 147.355 195.647 145.793 194.09C144.238 192.541 143.448 190.335 143.448 187.538V172.468H139.331V188.037C139.331 191.892 140.524 194.914 142.885 197.038C145.238 199.152 148.204 200.218 151.716 200.218C154.909 200.218 157.673 199.211 159.942 197.212C162.219 195.214 163.378 192.2 163.378 188.27V172.468H159.261V187.729Z" fill="#044860"/>
<path d="M180.266 172.393H177.082L164.605 199.91H168.848L171.923 193.091H185.316L188.433 199.91H192.752L180.333 172.534L180.266 172.393ZM173.494 189.536L178.603 178.113L183.745 189.536H173.494Z" fill="#044860"/>
<path d="M215.807 185.889C217.092 184.465 217.748 182.75 217.748 180.802C217.748 175.273 214.026 172.476 206.682 172.476H195.734V199.918H199.851V189.361H206.766L215.076 199.918H220.125L211.11 188.587C213.034 188.137 214.614 187.23 215.815 185.897L215.807 185.889ZM199.843 176.223H206.556C211.261 176.223 213.547 177.721 213.547 180.802C213.547 182.276 212.958 183.416 211.749 184.29C210.53 185.165 208.867 185.614 206.8 185.614H199.851V176.231L199.843 176.223Z" fill="#044860"/>
<path d="M244.441 176.472C243.248 175.215 241.593 174.224 239.534 173.525C237.484 172.826 235.039 172.468 232.283 172.468H223.411V199.91H231.88C237.14 199.91 241.173 198.586 243.87 195.972C246.567 193.357 247.936 189.935 247.936 185.806C247.936 183.966 247.65 182.242 247.079 180.702C246.516 179.153 245.617 177.73 244.432 176.481L244.441 176.472ZM232.124 196.163H227.528V176.223H232.199C236.215 176.223 239.173 177.089 240.979 178.795C242.786 180.502 243.702 182.858 243.702 185.806C243.702 188.961 242.744 191.501 240.853 193.357C238.963 195.214 236.022 196.155 232.115 196.155L232.124 196.163Z" fill="#044860"/>
<path d="M256.565 172.468H252.448V199.91H256.565V172.468Z" fill="#044860"/>
<path d="M275.218 172.393H272.033L259.556 199.91H263.799L266.874 193.091H280.267L283.384 199.91H287.703L275.285 172.534L275.218 172.393ZM268.446 189.536L273.554 178.113L278.696 189.536H268.446Z" fill="#044860"/>
<path d="M310.649 172.468V192.691L293.904 172.468H290.677V199.91H294.677V179.769L311.456 199.91H314.648V172.468H310.649Z" fill="#044860"/>
</svg>
