<svg width="645" height="240" viewBox="0 0 645 240" fill="none" xmlns="http://www.w3.org/2000/svg">
<rect width="645" height="240" fill="white"/>
<path d="M99.3162 155C80.3982 155 65 139.522 65 120.496C65 101.469 80.3982 86 99.3162 86C118.234 86 133.606 101.478 133.606 120.496C133.606 139.513 118.225 154.991 99.3162 154.991V155ZM99.3162 89.3029C82.2061 89.3029 68.284 103.296 68.284 120.496C68.284 137.695 82.2061 151.697 99.3249 151.697C116.444 151.697 130.34 137.704 130.34 120.496C130.34 103.287 116.417 89.3029 99.3162 89.3029Z" fill="#044860"/>
<path d="M110.024 138.222L99.7267 132.881C99.5956 132.811 99.4559 132.776 99.3074 132.776C99.1677 132.776 99.0192 132.811 98.8882 132.881L88.5907 138.222C88.154 138.451 87.9706 138.978 88.1802 139.426C88.3811 139.874 88.9051 140.084 89.3593 139.9L98.9668 136.149C99.0716 136.105 99.1851 136.079 99.2987 136.079C99.4122 136.079 99.5258 136.105 99.6306 136.149L109.238 139.9C109.692 140.084 110.216 139.874 110.417 139.426C110.618 138.978 110.435 138.451 110.007 138.222H110.024Z" fill="#F9AA19"/>
<path d="M123.824 119.573L108.714 118.879C107.823 118.835 107.509 117.667 108.26 117.184L121.003 108.971C121.413 108.707 121.544 108.163 121.3 107.741C121.055 107.311 120.522 107.152 120.086 107.381L106.644 114.382C105.849 114.795 105.002 113.943 105.413 113.143L112.374 99.6155C112.601 99.1763 112.443 98.6405 112.024 98.3945H112.007C111.579 98.1398 111.037 98.2715 110.775 98.6844L102.618 111.509C102.137 112.265 100.976 111.949 100.932 111.053L100.224 95.8383C100.198 95.3464 99.7965 94.9599 99.3074 94.9599C98.8183 94.9599 98.4165 95.3464 98.3903 95.8383L97.6916 111.053C97.6479 111.949 96.4863 112.265 96.0059 111.509L87.8483 98.6844C87.5863 98.2715 87.0448 98.1398 86.6168 98.3857H86.6081C86.1888 98.6405 86.0316 99.1763 86.2587 99.6155L93.2198 113.134C93.6303 113.934 92.7831 114.786 91.9883 114.373L78.5465 107.372C78.1098 107.144 77.5771 107.302 77.3325 107.723C77.088 108.154 77.219 108.707 77.6295 108.971L90.3725 117.184C91.1236 117.667 90.8092 118.835 89.9183 118.879L74.7996 119.573C74.3105 119.6 73.9262 120.004 73.9262 120.496C73.9262 120.996 74.3105 121.4 74.7996 121.418L89.9183 122.121C90.8092 122.165 91.1236 123.333 90.3725 123.816L77.6295 132.02C77.219 132.284 77.088 132.829 77.3325 133.259C77.5771 133.698 78.1098 133.856 78.5465 133.628L98.8969 123.034C99.1589 122.894 99.4734 122.894 99.7354 123.034L120.086 133.628C120.522 133.856 121.055 133.698 121.3 133.268C121.544 132.837 121.405 132.293 120.994 132.029L108.251 123.825C107.5 123.342 107.814 122.173 108.705 122.129L123.815 121.427C124.304 121.4 124.689 120.996 124.689 120.504C124.689 120.004 124.304 119.6 123.815 119.582" fill="#F9AA19"/>
<path d="M387.436 106.599C388.737 105.097 389.401 103.287 389.401 101.232C389.401 95.3991 385.636 92.4476 378.204 92.4476H367.129V121.4H371.304V110.262H378.282L386.684 121.4H391.803L382.684 109.445C384.632 108.971 386.23 108.013 387.444 106.608L387.436 106.599ZM371.295 96.4005H378.073C382.824 96.4005 385.139 97.9817 385.139 101.232C385.139 102.787 384.545 103.99 383.322 104.912C382.09 105.835 380.405 106.309 378.317 106.309H371.295V96.4005Z" fill="#F9AA19"/>
<path d="M398.685 108.637H414.249V104.763H398.685V96.4005H415.376V92.4476H394.51V121.4H415.743V117.439H398.685V108.637Z" fill="#F9AA19"/>
<path d="M442.251 113.987C440.05 116.464 437.202 117.72 433.787 117.72C430.582 117.72 427.962 116.727 426.005 114.768C424.04 112.809 423.044 110.165 423.044 106.924C423.044 103.683 423.97 101.065 425.804 99.0885C427.63 97.1208 430.171 96.1194 433.342 96.1194C436.512 96.1194 439.316 97.2701 441.569 99.5453L441.744 99.7209L444.46 97.0769L444.329 96.9012C443.281 95.4957 441.779 94.3274 439.849 93.4314C437.927 92.5355 435.709 92.0875 433.255 92.0875C428.922 92.0875 425.376 93.5193 422.712 96.3302C420.049 99.1412 418.704 102.708 418.704 106.924C418.704 111.413 420.057 115.049 422.739 117.729C425.411 120.408 429.053 121.761 433.543 121.761C435.857 121.761 438.05 121.295 440.05 120.373C442.058 119.45 443.639 118.203 444.74 116.657L444.853 116.49L442.434 113.776L442.251 113.987Z" fill="#F9AA19"/>
<path d="M460.094 92.0787C456.007 92.0787 452.504 93.5193 449.692 96.3566C446.88 99.1939 445.456 102.751 445.456 106.915C445.456 111.079 446.88 114.742 449.692 117.535C452.504 120.337 455.998 121.752 460.094 121.752C464.191 121.752 467.641 120.32 470.453 117.491C473.265 114.663 474.689 111.105 474.689 106.906C474.689 102.708 473.265 99.0797 470.453 96.2863C467.641 93.4841 464.156 92.0699 460.094 92.0699V92.0787ZM460.094 117.72C457.264 117.72 454.819 116.683 452.819 114.645C450.819 112.607 449.797 110.007 449.797 106.915C449.797 103.823 450.81 101.197 452.793 99.1675C454.784 97.1384 457.238 96.1106 460.086 96.1106C462.933 96.1106 465.317 97.1384 467.326 99.1675C469.326 101.197 470.348 103.806 470.348 106.915C470.348 110.025 469.361 112.634 467.405 114.663C465.457 116.692 462.994 117.72 460.086 117.72H460.094Z" fill="#F9AA19"/>
<path d="M489.345 115.348L478.471 92.4476H473.964L487.711 121.251L487.781 121.4H490.76L503.922 92.4476H499.529L489.345 115.348Z" fill="#F9AA19"/>
<path d="M510.289 108.637H525.844V104.763H510.289V96.4005H526.971V92.4476H506.105V121.4H527.338V117.439H510.289V108.637Z" fill="#F9AA19"/>
<path d="M552.16 106.599C553.462 105.097 554.125 103.287 554.125 101.232C554.125 95.3991 550.361 92.4476 542.928 92.4476H531.853V121.4H536.028V110.262H543.007L551.409 121.4H556.527L547.409 109.445C549.357 108.971 550.955 108.013 552.169 106.608L552.16 106.599ZM536.02 96.4005H542.797C547.549 96.4005 549.863 97.9817 549.863 101.232C549.863 102.787 549.269 103.99 548.046 104.912C546.815 105.835 545.129 106.309 543.042 106.309H536.02V96.4005Z" fill="#F9AA19"/>
<path d="M576.126 92.4476L567.41 106.01L558.815 92.4476H553.741L565.218 110.446V121.4H569.392V110.446L581 92.4476H576.126Z" fill="#F9AA19"/>
<path d="M239.673 140.805H157.363V143.44H239.673V140.805Z" fill="#F9AA19"/>
<path d="M569.454 140.805H487.187V143.44H569.454V140.805Z" fill="#F9AA19"/>
<path d="M160.21 110.218H168.01V115.418C166.114 116.947 163.739 117.729 160.944 117.729C157.738 117.729 155.101 116.745 153.092 114.812C151.092 112.88 150.079 110.227 150.079 106.924C150.079 103.621 151.057 101.065 152.996 99.0973C154.935 97.1208 157.511 96.1282 160.656 96.1282C164.071 96.1282 166.734 97.1647 168.595 99.2202L168.778 99.4223L171.416 96.6728L171.276 96.4971C168.944 93.572 165.293 92.0962 160.411 92.0962C156.262 92.0962 152.742 93.5456 149.948 96.4005C147.153 99.2554 145.738 102.804 145.738 106.942C145.738 111.378 147.17 115.005 150 117.711C152.821 120.417 156.481 121.787 160.856 121.787C162.953 121.787 165.031 121.392 167.031 120.61C169.04 119.828 170.691 118.748 171.949 117.395L172.019 117.325V106.371H160.201V110.244L160.21 110.218Z" fill="#044860"/>
<path d="M195.967 108.549C195.967 111.404 195.304 113.67 194.002 115.304C192.71 116.912 190.806 117.729 188.334 117.729C185.862 117.729 183.923 116.903 182.351 115.269C180.779 113.635 179.975 111.307 179.975 108.356V92.4476H175.8V108.874C175.8 112.941 177.006 116.13 179.399 118.361C181.783 120.592 184.788 121.717 188.334 121.717C191.565 121.717 194.36 120.645 196.666 118.546C198.972 116.429 200.142 113.257 200.142 109.111V92.4476H195.967V108.549Z" fill="#044860"/>
<path d="M213.383 92.3686L200.762 121.4H205.068L208.178 114.206H221.715L224.868 121.4H229.253L216.693 92.5179L216.632 92.3686H213.383ZM220.117 110.446H209.767L214.92 98.4121L220.117 110.446Z" fill="#044860"/>
<path d="M251.961 106.599C253.263 105.097 253.918 103.287 253.918 101.232C253.918 95.3991 250.154 92.4476 242.721 92.4476H231.637V121.4H235.812V110.262H242.791L251.193 121.4H256.311L247.193 109.445C249.14 108.971 250.739 108.013 251.953 106.608L251.961 106.599ZM235.821 96.4005H242.599C247.35 96.4005 249.664 97.9817 249.664 101.232C249.664 102.787 249.07 103.99 247.848 104.912C246.616 105.835 244.939 106.309 242.843 106.309H235.821V96.4005Z" fill="#044860"/>
<path d="M279.753 117.237C282.478 114.478 283.867 110.868 283.867 106.511C283.867 104.57 283.579 102.751 283.002 101.126C282.426 99.4926 281.526 97.9905 280.321 96.6728C279.116 95.3464 277.439 94.3011 275.351 93.5544C273.273 92.8166 270.801 92.4388 268.015 92.4388H259.036V121.392H267.613C272.941 121.392 277.02 119.995 279.753 117.237ZM267.849 117.439H263.211V96.4005H267.927C271.989 96.4005 274.976 97.3141 276.801 99.1148C278.627 100.916 279.552 103.402 279.552 106.511C279.552 109.84 278.583 112.52 276.67 114.487C274.757 116.446 271.788 117.439 267.84 117.439H267.849Z" fill="#044860"/>
<path d="M291.981 92.4476H287.806V121.4H291.981V92.4476Z" fill="#044860"/>
<path d="M310.244 92.3686H307.004L294.383 121.4H298.689L301.798 114.206H315.327L318.48 121.4H322.865L310.305 92.5179L310.244 92.3686ZM313.738 110.446H303.388L308.541 98.4121L313.738 110.446Z" fill="#044860"/>
<path d="M329.31 100.16L346.281 121.4H349.521V92.4476H345.46V113.758L328.542 92.4476H325.258V121.4H329.31V100.16Z" fill="#044860"/>
<path d="M254.87 135.903H252.756V148.201H254.87V135.903Z" fill="#044860"/>
<path d="M264.163 141.613L259.796 135.903H257.927V148.201H260.04V139.663L263.849 144.564H264.39L268.111 139.68V148.201H270.233V135.903H268.373L264.163 141.613Z" fill="#044860"/>
<path d="M279.517 141.613L275.15 135.903H273.281V148.201H275.395V139.663L279.203 144.564H279.745L283.465 139.68V148.201H285.588V135.903H283.736L279.517 141.613Z" fill="#044860"/>
<path d="M290.749 142.93H297.265V140.998H290.749V137.906H297.719V135.903H288.636V148.201H297.894V146.198H290.749V142.93Z" fill="#044860"/>
<path d="M309.405 141.964C309.895 141.323 310.139 140.576 310.139 139.733C310.139 139.206 310.06 138.723 309.912 138.292C309.764 137.862 309.51 137.458 309.17 137.089C308.829 136.72 308.331 136.43 307.676 136.219C307.021 136.009 306.235 135.903 305.318 135.903H300.514V148.201H302.628V143.686H305.213L308.549 148.201H311.117L307.449 143.282C308.261 143.045 308.916 142.605 309.405 141.964ZM305.37 141.683H302.628V137.906H305.265C306.244 137.906 306.934 138.064 307.335 138.38C307.737 138.696 307.938 139.144 307.938 139.733C307.938 140.322 307.711 140.822 307.257 141.165C306.803 141.507 306.174 141.683 305.37 141.683Z" fill="#044860"/>
<path d="M320.375 141.815C319.816 141.587 319.214 141.376 318.559 141.182C317.904 140.989 317.301 140.831 316.742 140.708C316.183 140.585 315.72 140.401 315.345 140.146C314.969 139.891 314.786 139.575 314.786 139.188C314.786 138.705 315.03 138.345 315.519 138.108C316.008 137.871 316.611 137.748 317.336 137.748C318.733 137.748 319.947 138.178 320.969 139.03L322.122 137.519C320.978 136.351 319.406 135.763 317.388 135.763C316 135.763 314.855 136.096 313.956 136.773C313.056 137.449 312.602 138.266 312.602 139.241C312.602 139.847 312.742 140.374 313.021 140.813C313.301 141.253 313.659 141.595 314.104 141.841C314.55 142.087 315.039 142.298 315.572 142.465C316.104 142.632 316.646 142.781 317.179 142.904C317.712 143.027 318.201 143.159 318.646 143.308C319.092 143.458 319.45 143.66 319.729 143.914C320.009 144.169 320.148 144.485 320.148 144.863C320.148 145.329 319.947 145.698 319.537 145.961C319.126 146.225 318.559 146.356 317.825 146.356C316.052 146.356 314.62 145.768 313.51 144.599L312.253 146.093C312.786 146.734 313.554 147.27 314.541 147.7C315.528 148.131 316.559 148.342 317.633 148.342C318.952 148.342 320.061 147.999 320.969 147.323C321.878 146.646 322.332 145.768 322.332 144.705C322.332 144.002 322.148 143.405 321.773 142.904C321.397 142.403 320.934 142.043 320.375 141.815Z" fill="#044860"/>
<path d="M326.804 135.903H324.69V148.201H326.804V135.903Z" fill="#044860"/>
<path d="M335.468 135.763C333.712 135.763 332.228 136.369 331.022 137.581C329.817 138.793 329.214 140.286 329.214 142.052C329.214 143.818 329.817 145.355 331.031 146.55C332.245 147.744 333.721 148.342 335.468 148.342C337.215 148.342 338.691 147.744 339.905 146.541C341.119 145.337 341.721 143.844 341.721 142.052C341.721 140.26 341.119 138.749 339.914 137.555C338.708 136.36 337.223 135.763 335.468 135.763ZM338.359 145.118C337.582 145.908 336.621 146.304 335.468 146.304C334.315 146.304 333.398 145.908 332.603 145.109C331.808 144.31 331.415 143.291 331.415 142.052C331.415 140.813 331.808 139.777 332.603 138.986C333.398 138.196 334.35 137.801 335.468 137.801C336.586 137.801 337.529 138.196 338.324 138.995C339.119 139.795 339.521 140.813 339.521 142.052C339.521 143.291 339.136 144.327 338.359 145.118Z" fill="#044860"/>
<path d="M352.517 144.318L345.774 135.903H344.132V148.201H346.193V139.821L352.936 148.201H354.578V135.903H352.517V144.318Z" fill="#044860"/>
<path d="M367.976 135.763C366.221 135.763 364.736 136.369 363.53 137.581C362.325 138.793 361.723 140.286 361.723 142.052C361.723 143.818 362.325 145.355 363.539 146.55C364.753 147.744 366.229 148.342 367.976 148.342C369.723 148.342 371.199 147.744 372.413 146.541C373.627 145.337 374.23 143.844 374.23 142.052C374.23 140.26 373.627 138.749 372.422 137.555C371.216 136.36 369.732 135.763 367.976 135.763ZM370.867 145.118C370.09 145.908 369.129 146.304 367.976 146.304C366.823 146.304 365.906 145.908 365.111 145.109C364.316 144.31 363.923 143.291 363.923 142.052C363.923 140.813 364.316 139.777 365.111 138.986C365.906 138.196 366.858 137.801 367.976 137.801C369.094 137.801 370.037 138.196 370.832 138.995C371.627 139.795 372.029 140.813 372.029 142.052C372.029 143.291 371.644 144.327 370.867 145.118Z" fill="#044860"/>
<path d="M384.868 142.667C384.868 143.783 384.615 144.67 384.117 145.337C383.619 146.005 382.876 146.339 381.898 146.339C380.92 146.339 380.143 145.996 379.54 145.311C378.937 144.626 378.632 143.721 378.632 142.597V135.903H376.518V142.86C376.518 144.591 377.033 145.935 378.064 146.892C379.095 147.85 380.37 148.324 381.898 148.324C382.562 148.324 383.182 148.219 383.767 148.017C384.352 147.815 384.885 147.507 385.383 147.094C385.881 146.681 386.265 146.128 386.553 145.416C386.842 144.705 386.981 143.888 386.981 142.966V135.903H384.868V142.667Z" fill="#044860"/>
<path d="M388.728 137.906H392.833V148.201H394.947V137.906H399.052V135.903H388.728V137.906Z" fill="#044860"/>
<path d="M409.943 137.203C409.585 136.79 409.061 136.474 408.371 136.246C407.681 136.017 406.834 135.903 405.847 135.903H400.904V148.201H403.017V143.985H405.83C406.747 143.985 407.55 143.87 408.231 143.642C408.913 143.414 409.445 143.106 409.821 142.711C410.197 142.316 410.476 141.894 410.659 141.428C410.843 140.963 410.93 140.471 410.93 139.944C410.93 139.417 410.852 138.916 410.703 138.477C410.555 138.038 410.301 137.616 409.943 137.203ZM405.795 141.999H403.017V137.888H405.917C407.795 137.888 408.729 138.565 408.729 139.926C408.729 141.288 407.751 141.999 405.795 141.999Z" fill="#044860"/>
<path d="M416.363 135.903L411 148.201H413.184L414.354 145.478H419.926L421.114 148.201H423.333L417.97 135.903H416.363ZM415.123 143.651L417.131 138.978L419.14 143.651H415.123Z" fill="#044860"/>
<path d="M422.267 137.906H426.372V148.201H428.486V137.906H432.591V135.903H422.267V137.906Z" fill="#044860"/>
<path d="M436.556 135.903H434.442V148.201H436.556V135.903Z" fill="#044860"/>
<path d="M441.727 142.93H448.242V140.998H441.727V137.906H448.696V135.903H439.613V148.201H448.871V146.198H441.727V142.93Z" fill="#044860"/>
<path d="M459.876 144.318L453.133 135.903H451.491V148.201H453.552V139.821L460.295 148.201H461.937V135.903H459.876V144.318Z" fill="#044860"/>
<path d="M463.789 135.903V137.906H467.894V148.201H470.007V137.906H474.112V135.903H463.789Z" fill="#044860"/>
</svg>
