<svg width="645" height="240" viewBox="0 0 645 240" fill="none" xmlns="http://www.w3.org/2000/svg">
<rect width="645" height="240" fill="white"/>
<path d="M99.3162 155C80.3982 155 65 139.522 65 120.496C65 101.469 80.3982 86 99.3162 86C118.234 86 133.606 101.478 133.606 120.496C133.606 139.513 118.225 154.991 99.3162 154.991V155ZM99.3162 89.3029C82.2061 89.3029 68.284 103.296 68.284 120.496C68.284 137.695 82.2061 151.697 99.3162 151.697C116.426 151.697 130.331 137.704 130.331 120.496C130.331 103.287 116.417 89.3029 99.3162 89.3029Z" fill="#044860"/>
<path d="M110.024 138.222L99.7267 132.881C99.5956 132.811 99.4559 132.776 99.3074 132.776C99.1677 132.776 99.0192 132.811 98.8882 132.881L88.5907 138.222C88.154 138.451 87.9706 138.978 88.1802 139.426C88.3811 139.874 88.9051 140.084 89.3593 139.9L98.9668 136.149C99.0716 136.105 99.1851 136.079 99.2987 136.079C99.4122 136.079 99.5258 136.105 99.6306 136.149L109.238 139.9C109.692 140.084 110.216 139.874 110.417 139.426C110.618 138.978 110.435 138.451 110.007 138.222H110.024Z" fill="#F9AA19"/>
<path d="M123.824 119.573L108.714 118.879C107.823 118.835 107.509 117.667 108.26 117.184L121.003 108.971C121.413 108.707 121.544 108.163 121.3 107.741C121.055 107.311 120.522 107.152 120.086 107.381L106.644 114.382C105.849 114.795 105.002 113.943 105.413 113.143L112.374 99.6155C112.601 99.1763 112.443 98.6405 112.024 98.3945H112.007C111.579 98.1398 111.037 98.2715 110.775 98.6844L102.618 111.509C102.137 112.265 100.976 111.949 100.932 111.053L100.224 95.8383C100.198 95.3464 99.7965 94.9599 99.3074 94.9599C98.8183 94.9599 98.4165 95.3464 98.3903 95.8383L97.6916 111.053C97.6479 111.949 96.4863 112.265 96.0059 111.509L87.8483 98.6844C87.5863 98.2715 87.0448 98.1398 86.6168 98.3857H86.6081C86.1889 98.6405 86.0316 99.1763 86.2587 99.6155L93.2198 113.134C93.6303 113.934 92.7831 114.786 91.9883 114.373L78.5465 107.372C78.1098 107.144 77.5771 107.302 77.3325 107.723C77.088 108.154 77.219 108.707 77.6295 108.971L90.3725 117.184C91.1236 117.667 90.8092 118.835 89.9183 118.879L74.7996 119.573C74.3105 119.6 73.9262 120.004 73.9262 120.496C73.9262 120.996 74.3105 121.4 74.7996 121.418L89.9183 122.121C90.8092 122.165 91.1236 123.333 90.3725 123.816L77.6295 132.02C77.219 132.284 77.088 132.829 77.3325 133.259C77.5771 133.698 78.1098 133.856 78.5465 133.628L98.8969 123.034C99.1589 122.894 99.4734 122.894 99.7354 123.034L120.086 133.628C120.522 133.856 121.055 133.698 121.3 133.268C121.544 132.837 121.405 132.293 120.994 132.029L108.251 123.825C107.5 123.342 107.814 122.173 108.705 122.129L123.815 121.427C124.304 121.4 124.689 120.996 124.689 120.504C124.689 120.004 124.304 119.6 123.815 119.582" fill="#F9AA19"/>
<path d="M387.436 106.599C388.737 105.097 389.401 103.287 389.401 101.232C389.401 95.3991 385.636 92.4476 378.204 92.4476H367.129V121.4H371.304V110.262H378.282L386.615 121.295L386.684 121.392H391.803L382.684 109.436C384.632 108.962 386.23 108.004 387.444 106.599H387.436ZM371.295 96.4005H378.073C382.824 96.4005 385.139 97.9817 385.139 101.232C385.139 102.787 384.545 103.99 383.322 104.912C382.09 105.835 380.405 106.309 378.317 106.309H371.295V96.4005Z" fill="#F9AA19"/>
<path d="M398.685 108.637H414.24V104.763H398.685V96.4005H415.376V92.4476H394.51V121.4H415.734V117.439H398.685V108.637Z" fill="#F9AA19"/>
<path d="M442.251 113.987C440.05 116.464 437.202 117.72 433.787 117.72C430.582 117.72 427.962 116.728 426.005 114.769C424.04 112.81 423.044 110.166 423.044 106.924C423.044 103.683 423.97 101.065 425.804 99.0888C427.63 97.1212 430.171 96.1198 433.342 96.1198C436.512 96.1198 439.316 97.2705 441.569 99.5368L441.744 99.7125L444.46 97.0685L444.329 96.8928C443.281 95.4873 441.779 94.319 439.849 93.423C437.927 92.527 435.709 92.079 433.255 92.079C428.922 92.079 425.376 93.5109 422.712 96.3218C420.049 99.1328 418.704 102.699 418.704 106.916C418.704 111.404 420.057 115.041 422.739 117.72C425.411 120.399 429.053 121.752 433.543 121.752C435.857 121.752 438.05 121.287 440.05 120.364C442.058 119.442 443.639 118.195 444.74 116.648L444.853 116.482L442.434 113.767L442.251 113.978V113.987Z" fill="#F9AA19"/>
<path d="M460.094 92.0787C456.007 92.0787 452.504 93.5193 449.692 96.3566C446.88 99.1939 445.456 102.751 445.456 106.915C445.456 111.079 446.88 114.742 449.692 117.535C452.504 120.337 455.998 121.752 460.094 121.752C464.191 121.752 467.641 120.32 470.453 117.491C473.265 114.663 474.689 111.105 474.689 106.906C474.689 102.708 473.265 99.0797 470.453 96.2863C467.641 93.4841 464.156 92.0699 460.094 92.0699V92.0787ZM460.094 117.72C457.264 117.72 454.819 116.683 452.819 114.645C450.819 112.607 449.797 110.007 449.797 106.915C449.797 103.823 450.81 101.197 452.793 99.1675C454.784 97.1384 457.238 96.1106 460.086 96.1106C462.933 96.1106 465.317 97.1384 467.326 99.1675C469.326 101.197 470.348 103.806 470.348 106.915C470.348 110.025 469.361 112.634 467.405 114.663C465.457 116.692 462.994 117.72 460.086 117.72H460.094Z" fill="#F9AA19"/>
<path d="M489.336 115.348L478.541 92.5882L478.471 92.4476H473.955L487.703 121.251L487.773 121.4H490.76L503.756 92.799L503.922 92.4476H499.529L489.336 115.348Z" fill="#F9AA19"/>
<path d="M510.28 108.637H525.836V104.763H510.28V96.4005H526.971V92.4476H506.105V121.4H527.338V117.439H510.28V108.637Z" fill="#F9AA19"/>
<path d="M552.16 106.599C553.462 105.097 554.125 103.287 554.125 101.232C554.125 95.3991 550.361 92.4476 542.928 92.4476H531.853V121.4H536.028V110.262H543.007L551.339 121.295L551.409 121.392H556.527L547.409 109.436C549.357 108.962 550.955 108.004 552.169 106.599H552.16ZM536.02 96.4005H542.797C547.549 96.4005 549.863 97.9817 549.863 101.232C549.863 102.787 549.269 103.99 548.046 104.912C546.815 105.835 545.129 106.309 543.042 106.309H536.02V96.4005Z" fill="#F9AA19"/>
<path d="M576.118 92.4476L567.41 106.01L558.885 92.5618L558.815 92.4476H553.732L565.218 110.446V121.4H569.392V110.446L581 92.4476H576.118Z" fill="#F9AA19"/>
<path d="M189.434 140.594H157.852V143.229H189.434V140.594Z" fill="#F9AA19"/>
<path d="M569.943 140.594H539.059V143.229H569.943V140.594Z" fill="#F9AA19"/>
<path d="M160.21 110.218H168.01V115.418C166.114 116.947 163.739 117.729 160.944 117.729C157.738 117.729 155.101 116.745 153.092 114.812C151.092 112.88 150.079 110.227 150.079 106.924C150.079 103.621 151.057 101.065 152.996 99.0973C154.935 97.1208 157.511 96.1282 160.656 96.1282C164.071 96.1282 166.734 97.1647 168.595 99.2115L168.778 99.4135L171.416 96.664L171.276 96.4883C168.944 93.5632 165.293 92.0875 160.411 92.0875C156.262 92.0875 152.742 93.5369 149.948 96.3917C147.153 99.2466 145.738 102.787 145.738 106.933C145.738 111.378 147.17 114.997 150 117.702C152.821 120.408 156.472 121.778 160.856 121.778C162.953 121.778 165.031 121.383 167.031 120.601C169.031 119.819 170.691 118.739 171.949 117.386L172.019 117.316V106.362H160.201V110.236L160.21 110.218Z" fill="#044860"/>
<path d="M195.967 108.549C195.967 111.404 195.304 113.67 194.002 115.304C192.71 116.912 190.806 117.729 188.334 117.729C185.862 117.729 183.923 116.903 182.351 115.269C180.779 113.635 179.975 111.307 179.975 108.356V92.4476H175.8V108.874C175.8 112.941 177.006 116.13 179.399 118.361C181.774 120.592 184.788 121.717 188.334 121.717C191.565 121.717 194.36 120.645 196.666 118.546C198.972 116.429 200.142 113.257 200.142 109.111V92.4476H195.967V108.549Z" fill="#044860"/>
<path d="M229.244 121.4L216.623 92.3686H213.383L200.911 121.049L200.762 121.4H205.068L208.178 114.206H221.715L224.868 121.4H229.253H229.244ZM220.117 110.446H209.767L214.92 98.4121L220.117 110.446Z" fill="#044860"/>
<path d="M251.961 106.599C253.263 105.097 253.927 103.287 253.927 101.232C253.927 95.3991 250.162 92.4476 242.73 92.4476H231.646V121.4H235.821V110.262H242.799L251.202 121.4H256.32L247.201 109.445C249.149 108.971 250.747 108.013 251.961 106.608V106.599ZM235.821 96.4005H242.599C247.35 96.4005 249.664 97.9817 249.664 101.232C249.664 102.787 249.07 103.99 247.848 104.912C246.616 105.835 244.939 106.309 242.843 106.309H235.821V96.4005Z" fill="#044860"/>
<path d="M280.321 96.6728C279.116 95.3464 277.439 94.3011 275.351 93.5544C273.273 92.8166 270.801 92.4388 268.015 92.4388H259.036V121.392H267.613C272.941 121.392 277.02 119.995 279.753 117.237C282.478 114.478 283.867 110.868 283.867 106.511C283.867 104.57 283.579 102.751 283.002 101.126C282.426 99.4926 281.526 97.9905 280.321 96.6728ZM267.849 117.439H263.211V96.4005H267.927C271.989 96.4005 274.976 97.3141 276.801 99.1148C278.627 100.916 279.552 103.402 279.552 106.511C279.552 109.84 278.583 112.52 276.679 114.487C274.766 116.446 271.797 117.439 267.849 117.439Z" fill="#044860"/>
<path d="M291.972 92.4476H287.797V121.4H291.972V92.4476Z" fill="#044860"/>
<path d="M301.789 114.206H315.327L318.48 121.4H322.865L310.244 92.3686H307.004L294.531 121.049L294.383 121.4H298.689L301.798 114.206H301.789ZM303.379 110.446L308.532 98.4121L313.729 110.446H303.379Z" fill="#044860"/>
<path d="M345.46 113.758L328.533 92.4476H325.258V121.4H329.31V100.16L346.281 121.4H349.512V92.4476H345.46V113.758Z" fill="#044860"/>
<path d="M209.095 145.285L204.798 136.052H202.509L208.326 148.359H209.828L215.348 136.052H213.112L209.095 145.285Z" fill="#044860"/>
<path d="M219.191 136.052H217.078V148.35H219.191V136.052Z" fill="#044860"/>
<path d="M231.139 142.122C231.629 141.481 231.873 140.734 231.873 139.891C231.873 139.364 231.795 138.881 231.646 138.451C231.498 138.02 231.244 137.616 230.904 137.247C230.563 136.878 230.065 136.588 229.41 136.377C228.755 136.167 227.969 136.061 227.052 136.061H222.248V148.359H224.362V143.844H226.947L230.284 148.359H232.851L229.183 143.44C229.995 143.203 230.65 142.764 231.139 142.122ZM227.104 141.832H224.362V138.055H226.999C227.978 138.055 228.668 138.213 229.069 138.53C229.471 138.846 229.672 139.294 229.672 139.882C229.672 140.471 229.445 140.972 228.991 141.314C228.537 141.657 227.908 141.832 227.104 141.832Z" fill="#044860"/>
<path d="M232.764 138.055H236.869V148.359H238.983V138.055H243.088V136.052H232.764V138.055Z" fill="#044860"/>
<path d="M253.167 142.825C253.167 143.941 252.913 144.828 252.416 145.495C251.918 146.163 251.175 146.497 250.197 146.497C249.219 146.497 248.442 146.154 247.839 145.469C247.236 144.784 246.931 143.879 246.931 142.755V136.061H244.817V143.018C244.817 144.749 245.332 146.093 246.363 147.05C247.394 148.008 248.669 148.482 250.197 148.482C250.861 148.482 251.481 148.377 252.066 148.175C252.651 147.973 253.184 147.665 253.682 147.252C254.18 146.839 254.564 146.286 254.852 145.575C255.141 144.863 255.28 144.046 255.28 143.124V136.061H253.167V142.825Z" fill="#044860"/>
<path d="M262.355 136.052L256.992 148.35H259.176L260.346 145.627H265.919L267.106 148.35H269.325L263.962 136.052H262.355ZM261.115 143.809L263.124 139.136L265.132 143.809H261.115Z" fill="#044860"/>
<path d="M273.255 136.052H271.141V148.359H280.19V146.356H273.255V136.052Z" fill="#044860"/>
<path d="M292.121 146.462C290.863 146.462 289.841 146.075 289.055 145.293C288.269 144.512 287.876 143.484 287.876 142.21C287.876 140.936 288.252 139.891 289.011 139.118C289.771 138.345 290.776 137.959 292.033 137.959C293.387 137.959 294.488 138.433 295.335 139.382L296.732 138.046C296.304 137.414 295.658 136.905 294.811 136.509C293.964 136.114 293.003 135.921 291.929 135.921C290.068 135.921 288.557 136.518 287.404 137.721C286.251 138.925 285.675 140.418 285.675 142.21C285.675 144.116 286.243 145.645 287.378 146.787C288.514 147.929 290.042 148.5 291.963 148.5C293.012 148.5 293.972 148.298 294.854 147.894C295.737 147.489 296.427 146.927 296.924 146.216L295.684 144.845C294.785 145.926 293.597 146.462 292.121 146.462Z" fill="#044860"/>
<path d="M304.174 135.912C302.418 135.912 300.933 136.518 299.728 137.73C298.523 138.942 297.92 140.436 297.92 142.201C297.92 143.967 298.523 145.504 299.737 146.699C300.951 147.894 302.427 148.491 304.174 148.491C305.921 148.491 307.397 147.894 308.611 146.69C309.825 145.487 310.427 143.993 310.427 142.201C310.427 140.409 309.825 138.899 308.619 137.704C307.414 136.509 305.929 135.912 304.174 135.912ZM307.065 145.276C306.287 146.066 305.327 146.462 304.174 146.462C303.021 146.462 302.104 146.066 301.309 145.267C300.514 144.468 300.121 143.449 300.121 142.21C300.121 140.972 300.514 139.935 301.309 139.144C302.104 138.354 303.056 137.959 304.174 137.959C305.292 137.959 306.235 138.354 307.03 139.153C307.825 139.953 308.226 140.972 308.226 142.21C308.226 143.449 307.842 144.485 307.065 145.276Z" fill="#044860"/>
<path d="M321.065 142.825C321.065 143.941 320.812 144.828 320.314 145.495C319.816 146.163 319.074 146.497 318.096 146.497C317.118 146.497 316.34 146.154 315.738 145.469C315.135 144.784 314.829 143.879 314.829 142.755V136.061H312.716V143.018C312.716 144.749 313.231 146.093 314.262 147.05C315.292 148.008 316.567 148.482 318.096 148.482C318.76 148.482 319.38 148.377 319.965 148.175C320.55 147.973 321.083 147.665 321.581 147.252C322.079 146.839 322.463 146.286 322.751 145.575C323.039 144.863 323.179 144.046 323.179 143.124V136.061H321.065V142.825Z" fill="#044860"/>
<path d="M334.516 144.477L327.773 136.052H326.131V148.359H328.192V139.97L334.935 148.359H336.577V136.052H334.516V144.477Z" fill="#044860"/>
<path d="M346.953 141.973C346.394 141.745 345.792 141.534 345.137 141.341C344.481 141.147 343.879 140.989 343.32 140.866C342.761 140.743 342.298 140.559 341.922 140.304C341.547 140.049 341.363 139.733 341.363 139.347C341.363 138.863 341.608 138.503 342.097 138.266C342.586 138.029 343.189 137.906 343.914 137.906C345.311 137.906 346.525 138.336 347.547 139.188L348.7 137.678C347.556 136.509 345.984 135.921 343.966 135.921C342.577 135.921 341.433 136.254 340.534 136.931C339.634 137.607 339.18 138.424 339.18 139.399C339.18 140.005 339.32 140.532 339.599 140.972C339.879 141.411 340.237 141.753 340.682 141.999C341.128 142.245 341.617 142.456 342.149 142.623C342.682 142.79 343.224 142.939 343.757 143.062C344.289 143.185 344.778 143.317 345.224 143.466C345.669 143.616 346.027 143.818 346.307 144.072C346.586 144.327 346.726 144.643 346.726 145.021C346.726 145.487 346.525 145.856 346.115 146.119C345.704 146.383 345.137 146.514 344.403 146.514C342.63 146.514 341.197 145.926 340.088 144.758L338.831 146.251C339.363 146.892 340.132 147.428 341.119 147.858C342.106 148.289 343.136 148.5 344.211 148.5C345.53 148.5 346.639 148.157 347.547 147.481C348.455 146.804 348.91 145.926 348.91 144.863C348.91 144.16 348.726 143.563 348.351 143.062C347.975 142.562 347.512 142.201 346.953 141.973Z" fill="#044860"/>
<path d="M353.381 143.08H359.897V141.147H353.381V138.055H360.351V136.052H351.268V148.359H360.526V146.356H353.381V143.08Z" fill="#044860"/>
<path d="M365.26 136.052H363.146V148.359H372.195V146.356H365.26V136.052Z" fill="#044860"/>
<path d="M376.317 136.052H374.203V148.35H376.317V136.052Z" fill="#044860"/>
<path d="M387.759 144.477L381.016 136.052H379.374V148.359H381.435V139.97L388.178 148.359H389.82V136.052H387.759V144.477Z" fill="#044860"/>
<path d="M398.292 143.721H401.541V145.601C400.807 146.172 399.89 146.462 398.781 146.462C397.489 146.462 396.44 146.084 395.637 145.329C394.833 144.573 394.432 143.537 394.432 142.21C394.432 140.884 394.816 139.874 395.576 139.109C396.336 138.345 397.357 137.959 398.624 137.959C400.021 137.959 401.104 138.389 401.873 139.259L403.288 137.906C402.834 137.282 402.187 136.799 401.34 136.448C400.493 136.096 399.558 135.921 398.519 135.921C396.702 135.921 395.2 136.527 394.012 137.73C392.825 138.934 392.231 140.427 392.231 142.21C392.231 144.099 392.842 145.618 394.056 146.769C395.27 147.92 396.833 148.5 398.746 148.5C399.689 148.5 400.589 148.333 401.445 147.99C402.301 147.648 403.008 147.173 403.567 146.55V141.789H398.292V143.721Z" fill="#044860"/>
<path d="M419.097 144.477L412.354 136.052H410.712V148.359H412.773V139.97L419.516 148.359H421.158V136.052H419.097V144.477Z" fill="#044860"/>
<path d="M426.328 143.08H432.844V141.147H426.328V138.055H433.298V136.052H424.215V148.359H433.473V146.356H426.328V143.08Z" fill="#044860"/>
<path d="M447.168 144.529L444.268 136.052H442.539L439.692 144.564L437.089 136.052H434.888L438.696 148.359H440.478L443.377 139.795L446.364 148.359H448.129L451.745 136.052H449.648L447.168 144.529Z" fill="#044860"/>
<path d="M462.313 144.143C462.313 145.021 462.173 145.636 461.902 145.979C461.632 146.321 461.186 146.506 460.583 146.514C459.815 146.514 459.142 146.014 458.557 145.021L456.985 146.216C457.308 146.875 457.789 147.419 458.409 147.85C459.029 148.28 459.815 148.5 460.758 148.5C461.876 148.5 462.767 148.157 463.431 147.472C464.095 146.787 464.426 145.812 464.426 144.547V136.061H462.313V144.143Z" fill="#044860"/>
<path d="M469.545 143.08H476.06V141.147H469.545V138.055H476.514V136.052H467.431V148.359H476.689V146.356H469.545V143.08Z" fill="#044860"/>
<path d="M488.201 142.122C488.69 141.481 488.934 140.734 488.934 139.891C488.934 139.364 488.856 138.881 488.707 138.451C488.559 138.02 488.305 137.616 487.965 137.247C487.624 136.878 487.126 136.588 486.471 136.377C485.816 136.167 485.03 136.061 484.113 136.061H479.309V148.359H481.423V143.844H484.008L487.345 148.359H489.912L486.244 143.44C487.056 143.203 487.711 142.764 488.201 142.122ZM484.165 141.832H481.423V138.055H484.061C485.039 138.055 485.729 138.213 486.131 138.53C486.532 138.846 486.733 139.294 486.733 139.882C486.733 140.471 486.506 140.972 486.052 141.314C485.598 141.657 484.969 141.832 484.165 141.832Z" fill="#044860"/>
<path d="M499.171 141.973C498.612 141.745 498.009 141.534 497.354 141.341C496.699 141.147 496.096 140.989 495.537 140.866C494.978 140.743 494.515 140.559 494.14 140.304C493.764 140.049 493.581 139.733 493.581 139.347C493.581 138.863 493.825 138.503 494.314 138.266C494.804 138.029 495.406 137.906 496.131 137.906C497.529 137.906 498.743 138.336 499.764 139.188L500.917 137.678C499.773 136.509 498.201 135.921 496.184 135.921C494.795 135.921 493.651 136.254 492.751 136.931C491.851 137.607 491.397 138.424 491.397 139.399C491.397 140.005 491.537 140.532 491.816 140.972C492.096 141.411 492.454 141.753 492.9 141.999C493.345 142.245 493.834 142.456 494.367 142.623C494.9 142.79 495.441 142.939 495.974 143.062C496.507 143.185 496.996 143.317 497.441 143.466C497.887 143.616 498.245 143.818 498.524 144.072C498.804 144.327 498.943 144.643 498.943 145.021C498.943 145.487 498.743 145.856 498.332 146.119C497.922 146.383 497.354 146.514 496.62 146.514C494.847 146.514 493.415 145.926 492.306 144.758L491.048 146.251C491.581 146.892 492.349 147.428 493.336 147.858C494.323 148.289 495.354 148.5 496.428 148.5C497.747 148.5 498.856 148.157 499.764 147.481C500.673 146.804 501.127 145.926 501.127 144.863C501.127 144.16 500.944 143.563 500.568 143.062C500.192 142.562 499.73 142.201 499.171 141.973Z" fill="#044860"/>
<path d="M505.599 143.08H512.114V141.147H505.599V138.055H512.569V136.052H503.485V148.359H512.743V146.356H505.599V143.08Z" fill="#044860"/>
<path d="M523.451 136.052L520.01 140.954L516.639 136.052H514.018L518.927 143.036V148.359H521.041V143.036L525.984 136.052H523.451Z" fill="#044860"/>
</svg>
