<svg width="645" height="300" viewBox="0 0 645 300" fill="none" xmlns="http://www.w3.org/2000/svg">
<rect width="645" height="300" fill="white"/>
<path d="M202.456 222.448H119.855V224.951H202.456V222.448Z" fill="#F9AA19"/>
<path d="M525.657 222.448H442.83V224.951H525.657V222.448Z" fill="#F9AA19"/>
<path d="M322.202 148.623C300.365 148.623 282.603 130.991 282.603 109.312C282.603 87.6322 300.365 70 322.202 70C344.039 70 361.775 87.6322 361.775 109.312C361.775 130.991 344.022 148.623 322.202 148.623ZM322.202 73.1376C302.104 73.1376 285.762 89.3679 285.762 109.312C285.762 129.255 302.113 145.486 322.202 145.486C342.291 145.486 358.616 129.255 358.616 109.312C358.616 89.3679 342.274 73.1376 322.202 73.1376Z" fill="#044860"/>
<path d="M334.654 129.672L322.681 123.531C322.529 123.456 322.361 123.414 322.193 123.414C322.025 123.414 321.857 123.456 321.706 123.531L309.733 129.672C309.229 129.931 309.019 130.54 309.254 131.058C309.49 131.575 310.094 131.817 310.624 131.6L321.807 127.294C321.933 127.244 322.067 127.219 322.202 127.219C322.336 127.219 322.471 127.244 322.597 127.294L333.78 131.6C334.309 131.817 334.914 131.575 335.149 131.058C335.385 130.54 335.175 129.931 334.67 129.672H334.654Z" fill="#F9AA19"/>
<path d="M350.71 108.243L333.133 107.451C332.091 107.401 331.73 106.057 332.604 105.506L347.433 96.0686C347.912 95.7682 348.063 95.1424 347.786 94.65C347.5 94.1577 346.879 93.9741 346.374 94.2328L330.73 102.269C329.806 102.744 328.814 101.76 329.293 100.842L337.393 85.3041C337.653 84.8034 337.477 84.1859 336.981 83.9022H336.964C336.468 83.6101 335.838 83.7603 335.536 84.2359L326.042 98.9726C325.479 99.8404 324.126 99.4816 324.084 98.4552L323.269 80.9732C323.244 80.4058 322.773 79.9635 322.202 79.9635H322.193C321.622 79.9635 321.152 80.4058 321.126 80.9732L320.32 98.4469C320.269 99.4816 318.917 99.8404 318.362 98.9642L308.868 84.2276C308.557 83.752 307.927 83.6018 307.439 83.8855H307.423C306.935 84.1775 306.75 84.795 307.011 85.2957L315.119 100.833C315.598 101.751 314.606 102.736 313.682 102.26L298.046 94.2161C297.542 93.9574 296.92 94.1327 296.634 94.625C296.349 95.1257 296.5 95.7515 296.979 96.0603L311.808 105.498C312.682 106.057 312.321 107.401 311.279 107.442L293.694 108.235C293.122 108.26 292.677 108.727 292.677 109.295C292.677 109.871 293.122 110.33 293.694 110.363L311.279 111.164C312.321 111.214 312.682 112.558 311.8 113.108L296.97 122.538C296.492 122.847 296.34 123.472 296.626 123.956V123.973C296.92 124.457 297.542 124.641 298.046 124.382L321.723 112.207C322.034 112.049 322.395 112.049 322.706 112.207L346.383 124.382C346.887 124.641 347.517 124.457 347.794 123.965C348.072 123.472 347.92 122.847 347.442 122.546L332.612 113.117C331.738 112.558 332.099 111.214 333.141 111.172L350.718 110.371C351.29 110.346 351.735 109.879 351.735 109.312C351.735 108.736 351.29 108.277 350.718 108.243H350.71Z" fill="#F9AA19"/>
<path d="M350.794 186.149C352.046 184.722 352.676 183.003 352.676 181.05C352.676 175.51 349.055 172.706 341.905 172.706H331.242V200.21H335.259V189.629H341.972L350.055 200.21H354.978L346.206 188.853C348.08 188.402 349.618 187.492 350.786 186.157L350.794 186.149ZM335.267 176.461H341.787C346.358 176.461 348.584 177.963 348.584 181.05C348.584 182.527 348.013 183.671 346.837 184.547C345.652 185.423 344.039 185.874 342.022 185.874H335.267V176.461Z" fill="#F9AA19"/>
<path d="M361.616 188.085H376.588V184.397H361.616V176.461H377.672V172.706H357.6V200.201H378.025V196.446H361.616V188.085Z" fill="#F9AA19"/>
<path d="M403.525 193.167C401.408 195.52 398.669 196.713 395.384 196.713C392.3 196.713 389.779 195.77 387.897 193.909C386.007 192.049 385.049 189.537 385.049 186.458C385.049 183.379 385.94 180.892 387.704 179.014C389.46 177.145 391.897 176.194 394.955 176.194C398.013 176.194 400.702 177.287 402.87 179.448L403.038 179.615L405.651 177.103L405.525 176.936C404.517 175.601 403.071 174.491 401.215 173.64C399.366 172.789 397.232 172.364 394.871 172.364C390.704 172.364 387.292 173.724 384.73 176.394C382.167 179.064 380.873 182.452 380.873 186.458C380.873 190.722 382.176 194.176 384.755 196.722C387.326 199.267 390.83 200.552 395.148 200.552C397.375 200.552 399.484 200.11 401.408 199.233C403.34 198.357 404.861 197.172 405.92 195.704L406.029 195.545L403.702 192.967L403.525 193.167Z" fill="#F9AA19"/>
<path d="M420.691 172.355C416.758 172.355 413.389 173.724 410.684 176.419C407.978 179.114 406.609 182.494 406.609 186.449C406.609 190.405 407.978 193.884 410.684 196.538C413.389 199.2 416.75 200.543 420.691 200.543C424.631 200.543 427.95 199.183 430.655 196.496C433.361 193.809 434.73 190.43 434.73 186.441C434.73 182.452 433.361 179.006 430.655 176.352C427.95 173.69 424.597 172.347 420.691 172.347V172.355ZM420.691 196.713C417.968 196.713 415.616 195.729 413.692 193.793C411.768 191.857 410.785 189.387 410.785 186.449C410.785 183.512 411.759 181.017 413.666 179.089C415.582 177.162 417.943 176.185 420.691 176.185C423.438 176.185 425.723 177.162 427.656 179.089C429.58 181.017 430.563 183.495 430.563 186.449C430.563 189.403 429.613 191.882 427.731 193.809C425.858 195.737 423.488 196.713 420.691 196.713Z" fill="#F9AA19"/>
<path d="M448.829 194.452L438.377 172.706H434.033L447.258 200.068L447.325 200.201H450.19L462.852 172.706H458.626L448.829 194.452Z" fill="#F9AA19"/>
<path d="M468.977 188.085H483.941V184.397H468.977V176.461H485.025V172.706H464.952V200.201H485.378V196.446H468.977V188.085Z" fill="#F9AA19"/>
<path d="M509.265 186.149C510.517 184.722 511.155 183.003 511.155 181.05C511.155 175.51 507.534 172.706 500.384 172.706H489.73V200.21H493.746V189.629H500.46L508.542 200.21H513.466L504.694 188.853C506.568 188.402 508.105 187.492 509.273 186.157L509.265 186.149ZM493.729 176.461H500.249C504.82 176.461 507.047 177.963 507.047 181.05C507.047 182.527 506.475 183.671 505.299 184.547C504.114 185.423 502.493 185.874 500.485 185.874H493.729V176.461Z" fill="#F9AA19"/>
<path d="M532.312 172.706L523.926 185.59L515.659 172.706H510.777L521.818 189.804V200.201H525.842V189.804L537 172.706H532.312Z" fill="#F9AA19"/>
<path d="M218.848 218.184H216.815V229.866H218.848V218.184Z" fill="#044860"/>
<path d="M227.788 223.608L223.587 218.184H221.789V229.866H223.822V221.755L227.486 226.412H228.007L231.586 221.772V229.866H233.619V218.184H231.838L227.788 223.608Z" fill="#044860"/>
<path d="M242.559 223.608L238.358 218.184H236.56V229.866H238.593V221.755L242.256 226.412H242.777L246.357 221.772V229.866H248.39V218.184H246.609L242.559 223.608Z" fill="#044860"/>
<path d="M253.364 224.86H259.632V223.024H253.364V220.087H260.069V218.184H251.331V229.866H260.237V227.964H253.364V224.86Z" fill="#044860"/>
<path d="M271.311 223.942C271.781 223.333 272.016 222.623 272.016 221.822C272.016 221.322 271.941 220.863 271.798 220.454C271.655 220.045 271.411 219.661 271.084 219.311C270.756 218.96 270.277 218.685 269.647 218.484C269.017 218.284 268.261 218.184 267.378 218.184H262.757V229.866H264.791V225.577H267.278L270.487 229.866H272.957L269.429 225.193C270.21 224.968 270.84 224.551 271.311 223.942ZM267.429 223.675H264.791V220.087H267.328C268.269 220.087 268.933 220.237 269.319 220.537C269.706 220.838 269.899 221.263 269.899 221.822C269.899 222.381 269.681 222.857 269.244 223.182C268.807 223.508 268.202 223.675 267.429 223.675Z" fill="#044860"/>
<path d="M281.864 223.8C281.326 223.583 280.746 223.383 280.116 223.199C279.486 223.016 278.906 222.865 278.368 222.749C277.831 222.632 277.385 222.456 277.024 222.214C276.663 221.972 276.486 221.672 276.486 221.305C276.486 220.846 276.722 220.504 277.192 220.278C277.663 220.053 278.242 219.936 278.94 219.936C280.284 219.936 281.452 220.345 282.435 221.155L283.544 219.719C282.443 218.61 280.931 218.05 278.99 218.05C277.654 218.05 276.554 218.368 275.688 219.01C274.823 219.653 274.386 220.429 274.386 221.355C274.386 221.931 274.52 222.431 274.789 222.849C275.058 223.266 275.402 223.591 275.831 223.825C276.259 224.059 276.73 224.259 277.242 224.417C277.755 224.576 278.276 224.718 278.788 224.835C279.301 224.951 279.771 225.077 280.2 225.219C280.628 225.36 280.973 225.552 281.242 225.794C281.511 226.036 281.645 226.337 281.645 226.696C281.645 227.138 281.452 227.488 281.057 227.739C280.662 227.989 280.116 228.114 279.41 228.114C277.705 228.114 276.327 227.555 275.26 226.445L274.05 227.864C274.562 228.473 275.302 228.982 276.251 229.391C277.2 229.8 278.192 230 279.225 230C280.494 230 281.561 229.675 282.435 229.032C283.309 228.389 283.746 227.555 283.746 226.545C283.746 225.878 283.569 225.31 283.208 224.835C282.847 224.359 282.401 224.017 281.864 223.8Z" fill="#044860"/>
<path d="M288.047 218.184H286.014V229.866H288.047V218.184Z" fill="#044860"/>
<path d="M296.382 218.05C294.693 218.05 293.265 218.626 292.106 219.778C290.946 220.929 290.366 222.348 290.366 224.025C290.366 225.703 290.946 227.163 292.114 228.298C293.282 229.433 294.702 230 296.382 230C298.063 230 299.483 229.433 300.651 228.289C301.818 227.146 302.398 225.728 302.398 224.025C302.398 222.323 301.818 220.888 300.659 219.753C299.499 218.618 298.071 218.05 296.382 218.05ZM299.163 226.938C298.416 227.689 297.491 228.064 296.382 228.064C295.273 228.064 294.391 227.689 293.626 226.929C292.862 226.17 292.484 225.202 292.484 224.025C292.484 222.849 292.862 221.864 293.626 221.113C294.391 220.362 295.307 219.986 296.382 219.986C297.458 219.986 298.365 220.362 299.13 221.121C299.894 221.881 300.281 222.849 300.281 224.025C300.281 225.202 299.911 226.187 299.163 226.938Z" fill="#044860"/>
<path d="M312.783 226.178L306.297 218.184H304.717V229.866H306.7V221.906L313.186 229.866H314.766V218.184H312.783V226.178Z" fill="#044860"/>
<path d="M327.655 218.05C325.966 218.05 324.538 218.626 323.378 219.778C322.219 220.929 321.639 222.348 321.639 224.025C321.639 225.703 322.219 227.163 323.386 228.298C324.554 229.433 325.974 230 327.655 230C329.335 230 330.755 229.433 331.923 228.289C333.091 227.146 333.671 225.728 333.671 224.025C333.671 222.323 333.091 220.888 331.931 219.753C330.772 218.618 329.344 218.05 327.655 218.05ZM330.436 226.938C329.688 227.689 328.764 228.064 327.655 228.064C326.546 228.064 325.663 227.689 324.899 226.929C324.134 226.17 323.756 225.202 323.756 224.025C323.756 222.849 324.134 221.864 324.899 221.113C325.663 220.362 326.579 219.986 327.655 219.986C328.73 219.986 329.638 220.362 330.402 221.121C331.167 221.881 331.553 222.849 331.553 224.025C331.553 225.202 331.184 226.187 330.436 226.938Z" fill="#044860"/>
<path d="M343.904 224.609C343.904 225.669 343.661 226.512 343.182 227.146C342.703 227.78 341.989 228.097 341.048 228.097C340.107 228.097 339.359 227.772 338.779 227.121C338.199 226.47 337.905 225.611 337.905 224.543V218.184H335.872V224.793C335.872 226.437 336.368 227.714 337.359 228.623C338.351 229.533 339.577 229.983 341.048 229.983C341.686 229.983 342.283 229.883 342.846 229.691C343.409 229.499 343.921 229.207 344.4 228.815C344.879 228.423 345.249 227.897 345.526 227.221C345.803 226.545 345.938 225.769 345.938 224.893V218.184H343.904V224.609Z" fill="#044860"/>
<path d="M347.61 220.087H351.567V229.866H353.6V220.087H357.549V218.184H347.61V220.087Z" fill="#044860"/>
<path d="M368.027 219.419C367.682 219.027 367.178 218.726 366.514 218.509C365.85 218.292 365.035 218.184 364.086 218.184H359.33V229.866H361.364V225.861H364.069C364.951 225.861 365.724 225.753 366.38 225.536C367.035 225.319 367.548 225.027 367.909 224.651C368.27 224.276 368.539 223.875 368.716 223.433C368.892 222.99 368.976 222.523 368.976 222.023C368.976 221.522 368.9 221.046 368.758 220.629C368.615 220.212 368.371 219.811 368.027 219.419ZM364.036 223.975H361.364V220.07H364.153C365.96 220.07 366.859 220.712 366.859 222.006C366.859 223.299 365.918 223.975 364.036 223.975Z" fill="#044860"/>
<path d="M374.202 218.184L369.043 229.866H371.144L372.27 227.28H377.63L378.773 229.866H380.907L375.748 218.184H374.202ZM373.009 225.544L374.941 221.105L376.874 225.544H373.009Z" fill="#044860"/>
<path d="M379.873 220.087H383.831V229.866H385.864V220.087H389.813V218.184H379.873V220.087Z" fill="#044860"/>
<path d="M393.619 218.184H391.586V229.866H393.619V218.184Z" fill="#044860"/>
<path d="M398.602 224.86H404.869V223.024H398.602V220.087H405.306V218.184H396.56V229.866H405.474V227.964H398.602V224.86Z" fill="#044860"/>
<path d="M416.061 226.178L409.566 218.184H407.987V229.866H409.97V221.906L416.464 229.866H418.044V218.184H416.061V226.178Z" fill="#044860"/>
<path d="M419.817 218.184V220.087H423.766V229.866H425.807V220.087H429.756V218.184H419.817Z" fill="#044860"/>
<path d="M131.022 189.587V194.519C129.148 195.971 126.796 196.713 124.031 196.713C120.864 196.713 118.251 195.779 116.268 193.943C114.293 192.107 113.285 189.587 113.285 186.458C113.285 183.328 114.26 180.9 116.167 179.023C118.083 177.145 120.628 176.194 123.746 176.194C127.123 176.194 129.761 177.178 131.601 179.131L131.77 179.315L134.374 176.711L134.231 176.544C131.929 173.774 128.316 172.364 123.502 172.364C119.41 172.364 115.932 173.74 113.167 176.444C110.403 179.156 109 182.527 109 186.458C109 190.68 110.42 194.118 113.209 196.688C115.999 199.25 119.612 200.552 123.939 200.552C126.006 200.552 128.064 200.176 130.039 199.434C132.022 198.691 133.66 197.665 134.903 196.388L134.971 196.321V185.907H123.3V189.587H131.022Z" fill="#044860"/>
<path d="M159.261 188.001C159.261 190.713 158.606 192.866 157.32 194.41C156.043 195.937 154.153 196.722 151.716 196.722C149.279 196.722 147.355 195.937 145.793 194.377C144.238 192.825 143.448 190.613 143.448 187.81V172.706H139.331V188.31C139.331 192.174 140.524 195.203 142.885 197.331C145.238 199.45 148.212 200.518 151.716 200.518C154.9 200.518 157.673 199.509 159.942 197.506C162.219 195.495 163.378 192.483 163.378 188.544V172.706H159.261V188.001Z" fill="#044860"/>
<path d="M180.266 172.622H177.082L164.605 200.201H168.848L171.923 193.367H185.316L188.433 200.201H192.752L180.333 172.764L180.266 172.622ZM183.736 189.804H173.494L178.594 178.355L183.736 189.804Z" fill="#044860"/>
<path d="M215.807 186.149C217.092 184.722 217.748 183.003 217.748 181.05C217.748 175.51 214.026 172.706 206.682 172.706H195.734V200.21H199.851V189.629H206.766L215.076 200.21H220.125L211.11 188.853C213.034 188.402 214.614 187.492 215.815 186.157L215.807 186.149ZM199.843 176.461H206.556C211.261 176.461 213.547 177.963 213.547 181.05C213.547 182.527 212.958 183.671 211.749 184.547C210.53 185.423 208.867 185.874 206.8 185.874H199.851V176.469L199.843 176.461Z" fill="#044860"/>
<path d="M243.87 196.254C246.567 193.634 247.936 190.204 247.936 186.065C247.936 184.221 247.65 182.494 247.079 180.95C246.516 179.398 245.626 177.971 244.432 176.72C243.239 175.459 241.584 174.466 239.517 173.766C237.467 173.065 235.022 172.706 232.266 172.706H223.394V200.21H231.863C237.123 200.21 241.156 198.883 243.853 196.263L243.87 196.254ZM232.124 196.446H227.528V176.461H232.199C236.215 176.461 239.173 177.329 240.979 179.039C242.786 180.75 243.702 183.111 243.702 186.065C243.702 189.228 242.744 191.773 240.853 193.634C238.963 195.495 236.022 196.438 232.115 196.438L232.124 196.446Z" fill="#044860"/>
<path d="M256.565 172.706H252.448V200.21H256.565V172.706Z" fill="#044860"/>
<path d="M266.866 193.375H280.259L283.376 200.21H287.695L275.276 172.772L275.209 172.631H272.025L259.548 200.21H263.791L266.866 193.375ZM268.437 189.804L273.537 178.355L278.679 189.804H268.437Z" fill="#044860"/>
<path d="M294.677 180.016L311.456 200.201H314.648V172.706H310.649V192.967L293.904 172.706H290.677V200.201H294.677V180.016Z" fill="#044860"/>
</svg>
