<svg width="645" height="240" viewBox="0 0 645 240" fill="none" xmlns="http://www.w3.org/2000/svg">
<rect width="645" height="240" fill="white"/>
<path d="M99.3162 155C80.3982 155 65 139.522 65 120.496C65 101.469 80.3982 86 99.3162 86C118.234 86 133.615 101.478 133.615 120.496C133.615 139.513 118.234 154.991 99.3162 154.991V155ZM99.3162 89.3029C82.2061 89.3029 68.284 103.296 68.284 120.496C68.284 137.695 82.2061 151.697 99.3162 151.697C116.426 151.697 130.331 137.704 130.331 120.496C130.331 103.287 116.417 89.3029 99.3162 89.3029Z" fill="#044860"/>
<path d="M110.024 138.222L99.7267 132.881C99.5956 132.811 99.4559 132.776 99.3074 132.776C99.1677 132.776 99.0192 132.811 98.8882 132.881L88.5907 138.222C88.154 138.451 87.9706 138.978 88.1802 139.426C88.3811 139.874 88.9051 140.084 89.3593 139.9L98.9668 136.149C99.0716 136.105 99.1851 136.079 99.2987 136.079C99.4122 136.079 99.5258 136.105 99.6306 136.149L109.238 139.9C109.692 140.084 110.216 139.874 110.417 139.426C110.618 138.978 110.435 138.451 110.007 138.222H110.024Z" fill="#F9AA19"/>
<path d="M123.824 119.573L108.714 118.879C107.823 118.835 107.509 117.667 108.26 117.184L121.003 108.971C121.413 108.707 121.544 108.163 121.3 107.741C121.055 107.311 120.522 107.152 120.086 107.381L106.644 114.382C105.849 114.795 105.002 113.943 105.413 113.143L112.374 99.6155C112.601 99.1763 112.443 98.6405 112.024 98.3945H112.007C111.579 98.1398 111.037 98.2715 110.775 98.6844L102.618 111.509C102.137 112.265 100.976 111.949 100.932 111.053L100.224 95.8383C100.198 95.3464 99.7965 94.9599 99.3074 94.9599C98.8183 94.9599 98.4165 95.3464 98.3903 95.8383L97.6916 111.053C97.6479 111.949 96.4863 112.265 96.0059 111.509L87.8483 98.6844C87.5863 98.2715 87.0448 98.1398 86.6168 98.3857H86.6081C86.1888 98.6405 86.0316 99.1763 86.2587 99.6155L93.2198 113.134C93.6303 113.934 92.7831 114.786 91.9883 114.373L78.5465 107.372C78.1098 107.144 77.5771 107.302 77.3325 107.723C77.088 108.154 77.219 108.707 77.6295 108.971L90.3725 117.184C91.1236 117.667 90.8092 118.835 89.9183 118.879L74.7996 119.573C74.3105 119.6 73.9262 120.004 73.9262 120.496C73.9262 120.996 74.3105 121.4 74.7996 121.418L89.9183 122.121C90.8092 122.165 91.1236 123.333 90.3725 123.816L77.6295 132.02C77.219 132.284 77.088 132.829 77.3325 133.259C77.5771 133.698 78.1098 133.856 78.5465 133.628L98.8969 123.034C99.1589 122.894 99.4734 122.894 99.7354 123.034L120.086 133.628C120.522 133.856 121.055 133.698 121.3 133.268C121.544 132.837 121.405 132.293 120.994 132.029L108.251 123.825C107.5 123.342 107.814 122.173 108.705 122.129L123.815 121.427C124.304 121.4 124.689 120.996 124.689 120.504C124.689 120.004 124.304 119.6 123.815 119.582" fill="#F9AA19"/>
<path d="M160.21 110.218H168.01V115.418C166.114 116.947 163.739 117.729 160.944 117.729C157.738 117.729 155.101 116.745 153.092 114.812C151.092 112.88 150.079 110.227 150.079 106.924C150.079 103.621 151.057 101.065 152.996 99.0973C154.935 97.1208 157.511 96.1282 160.656 96.1282C164.071 96.1282 166.734 97.1647 168.595 99.2202L168.778 99.4223L171.416 96.6728L171.276 96.4971C168.944 93.572 165.293 92.0962 160.411 92.0962C156.262 92.0962 152.742 93.5456 149.948 96.4005C147.153 99.2554 145.738 102.804 145.738 106.942C145.738 111.378 147.17 115.005 150 117.711C152.821 120.417 156.481 121.787 160.856 121.787C162.953 121.787 165.031 121.392 167.031 120.61C169.04 119.828 170.691 118.748 171.949 117.395L172.019 117.325V106.371H160.201V110.244L160.21 110.218Z" fill="#044860"/>
<path d="M195.967 108.549C195.967 111.404 195.304 113.67 194.002 115.304C192.71 116.912 190.806 117.729 188.334 117.729C185.862 117.729 183.923 116.903 182.351 115.269C180.779 113.635 179.975 111.307 179.975 108.356V92.4476H175.8V108.874C175.8 112.941 177.006 116.13 179.399 118.361C181.783 120.592 184.788 121.717 188.334 121.717C191.565 121.717 194.36 120.645 196.666 118.546C198.972 116.429 200.142 113.257 200.142 109.111V92.4476H195.967V108.549Z" fill="#044860"/>
<path d="M213.383 92.3686L200.762 121.4H205.068L208.178 114.206H221.715L224.868 121.4H229.253L216.693 92.5179L216.632 92.3686H213.383ZM209.767 110.446L214.92 98.4121L220.117 110.446H209.767Z" fill="#044860"/>
<path d="M251.961 106.599C253.263 105.097 253.918 103.287 253.918 101.232C253.918 95.3991 250.154 92.4476 242.721 92.4476H231.637V121.4H235.812V110.262H242.791L251.193 121.4H256.311L247.193 109.445C249.14 108.971 250.739 108.013 251.953 106.608L251.961 106.599ZM235.821 96.4093H242.599C247.35 96.4093 249.664 97.9905 249.664 101.241C249.664 102.795 249.07 103.999 247.848 104.921C246.616 105.844 244.939 106.318 242.843 106.318H235.821V96.4093Z" fill="#044860"/>
<path d="M280.321 96.6728C279.116 95.3464 277.439 94.3011 275.351 93.5544C273.273 92.8166 270.801 92.4388 268.015 92.4388H259.036V121.392H267.613C272.941 121.392 277.02 119.995 279.753 117.237C282.478 114.478 283.867 110.868 283.867 106.511C283.867 104.57 283.579 102.751 283.002 101.126C282.426 99.4926 281.526 97.9905 280.321 96.6728ZM276.688 114.487C274.775 116.446 271.805 117.439 267.857 117.439H263.22V96.4005H267.936C271.997 96.4005 274.984 97.3141 276.81 99.1148C278.635 100.916 279.561 103.402 279.561 106.511C279.561 109.84 278.592 112.52 276.679 114.487H276.688Z" fill="#044860"/>
<path d="M291.981 92.4476H287.806V121.4H291.981V92.4476Z" fill="#044860"/>
<path d="M310.235 92.3686H306.995L294.523 121.049L294.374 121.4H298.68L301.789 114.206H315.327L318.48 121.4H322.865L310.305 92.5179L310.235 92.3686ZM303.379 110.446L308.532 98.4121L313.729 110.446H303.379Z" fill="#044860"/>
<path d="M345.46 92.4476V113.767L328.533 92.4476H325.258V121.4H329.31V100.16L346.281 121.4H349.512V92.4476H345.46Z" fill="#044860"/>
<path d="M387.436 106.599C388.737 105.097 389.401 103.287 389.401 101.232C389.401 95.3991 385.636 92.4476 378.204 92.4476H367.129V121.4H371.304V110.262H378.282L386.615 121.295L386.684 121.392H391.803L382.684 109.436C384.632 108.962 386.23 108.004 387.444 106.599H387.436ZM371.295 96.4005H378.073C382.824 96.4005 385.139 97.9817 385.139 101.232C385.139 102.787 384.545 103.99 383.322 104.912C382.09 105.835 380.405 106.309 378.317 106.309H371.295V96.4005Z" fill="#F9AA19"/>
<path d="M398.685 108.637H414.24V104.763H398.685V96.4005H415.376V92.4476H394.51V121.4H415.743V117.439H398.685V108.637Z" fill="#F9AA19"/>
<path d="M442.251 113.987C440.05 116.464 437.202 117.72 433.787 117.72C430.582 117.72 427.962 116.727 426.005 114.768C424.049 112.809 423.044 110.165 423.044 106.924C423.044 103.683 423.97 101.065 425.804 99.0885C427.63 97.1208 430.171 96.1194 433.342 96.1194C436.512 96.1194 439.316 97.2701 441.569 99.5453L441.744 99.7209L444.46 97.0769L444.329 96.9012C443.281 95.4957 441.779 94.3274 439.849 93.4314C437.927 92.5355 435.709 92.0875 433.255 92.0875C428.922 92.0875 425.376 93.5193 422.712 96.3302C420.049 99.1412 418.704 102.708 418.704 106.924C418.704 111.413 420.057 115.049 422.739 117.729C425.411 120.408 429.053 121.761 433.543 121.761C435.857 121.761 438.05 121.295 440.05 120.373C442.058 119.45 443.639 118.203 444.74 116.657L444.853 116.49L442.434 113.776L442.251 113.987Z" fill="#F9AA19"/>
<path d="M460.094 92.0787C456.007 92.0787 452.504 93.5193 449.692 96.3566C446.88 99.1939 445.456 102.751 445.456 106.915C445.456 111.079 446.88 114.742 449.692 117.535C452.504 120.337 455.998 121.752 460.094 121.752C464.191 121.752 467.641 120.32 470.453 117.491C473.265 114.663 474.689 111.105 474.689 106.906C474.689 102.708 473.265 99.0797 470.453 96.2863C467.641 93.4841 464.156 92.0699 460.094 92.0699V92.0787ZM460.094 117.729C457.264 117.729 454.819 116.692 452.819 114.654C450.819 112.616 449.797 110.016 449.797 106.924C449.797 103.832 450.81 101.205 452.793 99.1763C454.784 97.1472 457.238 96.1194 460.086 96.1194C462.933 96.1194 465.317 97.1472 467.326 99.1763C469.326 101.205 470.348 103.814 470.348 106.924C470.348 110.034 469.361 112.643 467.405 114.672C465.457 116.701 462.994 117.729 460.086 117.729H460.094Z" fill="#F9AA19"/>
<path d="M489.336 115.348L478.541 92.5882L478.471 92.4476H473.955L487.711 121.251L487.773 121.4H490.76L503.756 92.799L503.922 92.4476H499.529L489.336 115.348Z" fill="#F9AA19"/>
<path d="M510.28 108.637H525.836V104.763H510.28V96.4005H526.971V92.4476H506.105V121.4H527.338V117.439H510.28V108.637Z" fill="#F9AA19"/>
<path d="M552.16 106.599C553.462 105.097 554.125 103.287 554.125 101.232C554.125 95.3991 550.361 92.4476 542.928 92.4476H531.853V121.4H536.028V110.262H543.007L551.339 121.295L551.409 121.392H556.527L547.409 109.436C549.357 108.962 550.955 108.004 552.169 106.599H552.16ZM536.02 96.4005H542.797C547.549 96.4005 549.863 97.9817 549.863 101.232C549.863 102.787 549.269 103.99 548.046 104.912C546.815 105.835 545.129 106.309 543.042 106.309H536.02V96.4005Z" fill="#F9AA19"/>
<path d="M576.118 92.4476L567.41 106.01L558.815 92.4476H553.741L565.218 110.446V121.4H569.392V110.446L581 92.4476H576.118Z" fill="#F9AA19"/>
<path d="M206.964 147.402V137.063H211.121C211.951 137.063 212.658 137.159 213.243 137.353C213.829 137.546 214.265 137.809 214.562 138.161C214.859 138.512 215.077 138.863 215.2 139.232C215.331 139.601 215.392 140.014 215.392 140.462C215.392 140.91 215.313 141.323 215.165 141.709C215.016 142.096 214.781 142.456 214.457 142.79C214.143 143.124 213.698 143.378 213.121 143.572C212.545 143.765 211.872 143.862 211.104 143.862H208.737V147.41H206.955L206.964 147.402ZM208.737 138.732V142.193H211.069C212.711 142.193 213.532 141.613 213.532 140.453C213.532 139.294 212.745 138.74 211.165 138.74H208.728L208.737 138.732Z" fill="#044860"/>
<path d="M217.427 147.402V137.063H221.462C222.239 137.063 222.894 137.15 223.445 137.326C223.995 137.502 224.414 137.748 224.702 138.055C224.991 138.363 225.2 138.705 225.323 139.065C225.454 139.434 225.515 139.838 225.515 140.278C225.515 140.989 225.305 141.613 224.895 142.157C224.484 142.702 223.934 143.071 223.253 143.264L226.336 147.402H224.178L221.375 143.607H219.2V147.402H217.418H217.427ZM219.209 138.74V141.92H221.514C222.187 141.92 222.72 141.771 223.104 141.481C223.488 141.191 223.681 140.787 223.681 140.278C223.681 139.768 223.515 139.408 223.174 139.144C222.833 138.881 222.257 138.749 221.436 138.749H219.217L219.209 138.74Z" fill="#044860"/>
<path d="M227.969 137.063H229.751V147.402H227.969V137.063Z" fill="#044860"/>
<path d="M239.725 147.402L234.057 140.357V147.402H232.327V137.063H233.707L239.376 144.134V137.063H241.105V147.402H239.725Z" fill="#044860"/>
<path d="M252.582 145.601C252.162 146.198 251.577 146.673 250.844 147.015C250.101 147.358 249.298 147.525 248.415 147.525C246.8 147.525 245.516 147.042 244.564 146.084C243.612 145.127 243.131 143.844 243.131 142.237C243.131 140.734 243.612 139.47 244.59 138.459C245.559 137.449 246.826 136.948 248.398 136.948C249.298 136.948 250.11 137.115 250.817 137.44C251.533 137.774 252.066 138.205 252.433 138.732L251.254 139.856C250.538 139.057 249.612 138.661 248.477 138.661C247.42 138.661 246.573 138.986 245.935 139.636C245.297 140.286 244.983 141.156 244.983 142.237C244.983 143.317 245.315 144.178 245.97 144.828C246.625 145.478 247.49 145.812 248.546 145.812C249.787 145.812 250.791 145.355 251.542 144.45L252.582 145.601Z" fill="#044860"/>
<path d="M254.346 137.063H261.979V138.749H256.119V141.349H261.595V142.974H256.119V145.724H262.128V147.41H254.346V137.063Z" fill="#044860"/>
<path d="M263.316 137.063H271.997V138.749H268.547V147.402H266.774V138.749H263.324V137.063H263.316Z" fill="#044860"/>
<path d="M273.98 138.468C274.993 137.449 276.242 136.94 277.718 136.94C279.194 136.94 280.443 137.44 281.456 138.442C282.47 139.443 282.976 140.708 282.976 142.219C282.976 143.73 282.47 144.986 281.448 145.996C280.426 147.006 279.186 147.507 277.718 147.507C276.251 147.507 275.002 147.006 273.989 145.996C272.976 144.986 272.46 143.73 272.46 142.219C272.46 140.708 272.967 139.478 273.98 138.459V138.468ZM275.308 144.802C275.971 145.469 276.775 145.803 277.718 145.803C278.662 145.803 279.5 145.469 280.146 144.81C280.801 144.143 281.125 143.282 281.125 142.237C281.125 141.191 280.793 140.339 280.12 139.663C279.448 138.995 278.653 138.661 277.718 138.661C276.784 138.661 275.971 138.995 275.308 139.663C274.644 140.33 274.312 141.182 274.312 142.237C274.312 143.291 274.644 144.134 275.308 144.81V144.802Z" fill="#044860"/>
<path d="M292.4 147.402L286.732 140.357V147.402H285.002V137.063H286.382L292.051 144.134V137.063H293.78V147.402H292.4Z" fill="#044860"/>
<path d="M300.331 137.063H303.545C304.575 137.063 305.475 137.194 306.244 137.458C307.012 137.721 307.615 138.099 308.06 138.574C308.497 139.048 308.829 139.584 309.03 140.163C309.239 140.743 309.336 141.393 309.336 142.096C309.336 143.668 308.838 144.951 307.842 145.926C306.846 146.91 305.353 147.393 303.361 147.393H300.339V137.054L300.331 137.063ZM302.104 138.74V145.715H303.484C304.846 145.715 305.851 145.39 306.506 144.749C307.161 144.108 307.484 143.22 307.484 142.096C307.484 139.865 306.165 138.74 303.519 138.74H302.104Z" fill="#044860"/>
<path d="M311.353 137.063H318.987V138.749H313.126V141.349H318.602V142.974H313.126V145.724H319.135V147.41H311.353V137.063Z" fill="#044860"/>
<path d="M320.323 137.063H329.005V138.749H325.555V147.402H323.782V138.749H320.332V137.063H320.323Z" fill="#044860"/>
<path d="M330.996 138.468C332.009 137.449 333.258 136.94 334.734 136.94C336.21 136.94 337.459 137.44 338.472 138.442C339.486 139.443 339.992 140.708 339.992 142.219C339.992 143.73 339.486 144.986 338.464 145.996C337.442 147.006 336.202 147.507 334.734 147.507C333.267 147.507 332.018 147.006 331.005 145.996C329.992 144.986 329.476 143.73 329.476 142.219C329.476 140.708 329.983 139.478 330.996 138.459V138.468ZM332.324 144.802C332.987 145.469 333.791 145.803 334.734 145.803C335.677 145.803 336.516 145.469 337.162 144.81C337.817 144.143 338.141 143.282 338.141 142.237C338.141 141.191 337.809 140.339 337.136 139.663C336.464 138.995 335.669 138.661 334.734 138.661C333.8 138.661 332.987 138.995 332.324 139.663C331.66 140.33 331.328 141.182 331.328 142.237C331.328 143.291 331.66 144.134 332.324 144.81V144.802Z" fill="#044860"/>
<path d="M346.49 142.157L350.342 147.402H348.167L345.425 143.607L342.682 147.402H340.525L344.377 142.157L340.691 137.063H342.822L345.451 140.682L348.08 137.063H350.228L346.517 142.157H346.49Z" fill="#044860"/>
<path d="M364.116 147.402C363.897 147.244 363.469 146.866 362.823 146.268C361.941 147.112 360.858 147.542 359.565 147.542C358.36 147.542 357.39 147.27 356.665 146.725C355.941 146.181 355.574 145.469 355.574 144.608C355.574 144.195 355.652 143.809 355.81 143.466C355.967 143.115 356.203 142.79 356.526 142.491C356.849 142.193 357.146 141.947 357.408 141.771C357.67 141.587 358.028 141.358 358.482 141.086C357.862 140.295 357.556 139.566 357.556 138.899C357.556 138.336 357.766 137.871 358.194 137.502C358.622 137.133 359.216 136.948 359.976 136.948C360.797 136.948 361.417 137.124 361.827 137.467C362.238 137.809 362.447 138.292 362.447 138.899C362.447 139.338 362.29 139.786 361.985 140.216C361.679 140.655 361.268 141.042 360.762 141.393C361.094 141.947 361.784 142.772 362.814 143.888C363.504 142.93 363.845 141.736 363.845 140.286H365.548C365.548 141.156 365.408 142.043 365.129 142.957C364.849 143.87 364.465 144.626 363.976 145.214C364.692 146.014 365.496 146.743 366.387 147.419H364.124L364.116 147.402ZM360.762 145.689C361.129 145.531 361.399 145.329 361.6 145.083C360.526 143.862 359.775 142.974 359.364 142.412C358.639 142.869 358.142 143.229 357.862 143.501C357.583 143.774 357.443 144.09 357.443 144.441C357.443 144.837 357.635 145.179 358.019 145.487C358.404 145.794 358.936 145.935 359.635 145.935C360.028 145.935 360.404 145.856 360.762 145.698V145.689ZM359.897 140.207C360.395 139.856 360.648 139.487 360.648 139.101C360.648 138.89 360.596 138.732 360.491 138.609C360.386 138.486 360.22 138.424 360.011 138.424C359.574 138.424 359.347 138.653 359.347 139.118C359.347 139.364 359.53 139.733 359.906 140.207H359.897Z" fill="#044860"/>
<path d="M371.941 147.402V137.063H375.977C376.754 137.063 377.409 137.15 377.959 137.326C378.509 137.502 378.929 137.748 379.217 138.055C379.505 138.363 379.715 138.705 379.837 139.065C379.968 139.434 380.029 139.838 380.029 140.278C380.029 140.989 379.819 141.613 379.409 142.157C378.999 142.702 378.448 143.071 377.767 143.264L380.85 147.402H378.693L375.889 143.607H373.714V147.402H371.933H371.941ZM373.714 138.74V141.92H376.02C376.693 141.92 377.225 141.771 377.61 141.481C377.994 141.191 378.186 140.787 378.186 140.278C378.186 139.768 378.02 139.408 377.68 139.144C377.339 138.881 376.763 138.749 375.942 138.749H373.723L373.714 138.74Z" fill="#044860"/>
<path d="M382.483 137.063H390.117V138.749H384.256V141.349H389.733V142.974H384.256V145.724H390.265V147.41H382.483V137.063Z" fill="#044860"/>
<path d="M401.375 145.601C400.956 146.198 400.371 146.673 399.637 147.015C398.895 147.358 398.091 147.525 397.209 147.525C395.593 147.525 394.309 147.042 393.357 146.084C392.405 145.127 391.925 143.844 391.925 142.237C391.925 140.734 392.405 139.47 393.384 138.459C394.353 137.449 395.619 136.948 397.192 136.948C398.091 136.948 398.903 137.115 399.611 137.44C400.327 137.774 400.86 138.205 401.227 138.732L400.048 139.856C399.331 139.057 398.406 138.661 397.27 138.661C396.213 138.661 395.366 138.986 394.729 139.636C394.091 140.286 393.777 141.156 393.777 142.237C393.777 143.317 394.108 144.178 394.763 144.828C395.419 145.478 396.283 145.812 397.34 145.812C398.58 145.812 399.585 145.355 400.336 144.45L401.375 145.601Z" fill="#044860"/>
<path d="M403.733 138.468C404.747 137.449 405.995 136.94 407.472 136.94C408.948 136.94 410.197 137.44 411.21 138.442C412.223 139.443 412.729 140.708 412.729 142.219C412.729 143.73 412.223 144.986 411.201 145.996C410.179 147.006 408.939 147.507 407.472 147.507C406.004 147.507 404.755 147.006 403.742 145.996C402.729 144.986 402.214 143.73 402.214 142.219C402.214 140.708 402.72 139.478 403.733 138.459V138.468ZM405.061 144.802C405.725 145.469 406.528 145.803 407.472 145.803C408.415 145.803 409.253 145.469 409.9 144.81C410.555 144.143 410.878 143.282 410.878 142.237C410.878 141.191 410.546 140.339 409.873 139.663C409.201 138.995 408.406 138.661 407.472 138.661C406.537 138.661 405.725 138.995 405.061 139.663C404.397 140.33 404.065 141.182 404.065 142.237C404.065 143.291 404.397 144.134 405.061 144.81V144.802Z" fill="#044860"/>
<path d="M419.28 147.402H418.014L413.122 137.063H415.044L418.66 144.819L422.04 137.063H423.918L419.28 147.402Z" fill="#044860"/>
<path d="M425.368 137.063H433.001V138.749H427.141V141.349H432.617V142.974H427.141V145.724H433.15V147.41H425.368V137.063Z" fill="#044860"/>
<path d="M435.351 147.402V137.063H439.386C440.163 137.063 440.818 137.15 441.368 137.326C441.919 137.502 442.338 137.748 442.626 138.055C442.914 138.363 443.124 138.705 443.246 139.065C443.377 139.434 443.438 139.838 443.438 140.278C443.438 140.989 443.229 141.613 442.818 142.157C442.408 142.702 441.858 143.071 441.176 143.264L444.259 147.402H442.102L439.298 143.607H437.124V147.402H435.342H435.351ZM437.132 138.74V141.92H439.438C440.111 141.92 440.644 141.771 441.028 141.481C441.412 141.191 441.604 140.787 441.604 140.278C441.604 139.768 441.438 139.408 441.098 139.144C440.757 138.881 440.181 138.749 439.36 138.749H437.141L437.132 138.74Z" fill="#044860"/>
<path d="M449.98 142.922V147.402H448.207V142.922L444.076 137.063H446.277L449.116 141.182L452.007 137.063H454.138L449.98 142.922Z" fill="#044860"/>
<path d="M468.462 145.601C468.042 146.198 467.457 146.673 466.723 147.015C465.981 147.358 465.178 147.525 464.295 147.525C462.68 147.525 461.396 147.042 460.444 146.084C459.492 145.127 459.011 143.844 459.011 142.237C459.011 140.734 459.492 139.47 460.47 138.459C461.439 137.449 462.706 136.948 464.278 136.948C465.178 136.948 465.99 137.115 466.697 137.44C467.413 137.774 467.946 138.205 468.313 138.732L467.134 139.856C466.418 139.057 465.492 138.661 464.357 138.661C463.3 138.661 462.452 138.986 461.815 139.636C461.177 140.286 460.863 141.156 460.863 142.237C460.863 143.317 461.195 144.178 461.85 144.828C462.505 145.478 463.37 145.812 464.426 145.812C465.667 145.812 466.671 145.355 467.422 144.45L468.462 145.601Z" fill="#044860"/>
<path d="M470.226 137.063H477.859V138.749H471.999V141.349H477.475V142.974H471.999V145.724H478.008V147.41H470.226V137.063Z" fill="#044860"/>
<path d="M487.615 147.402L481.947 140.357V147.402H480.218V137.063H481.598L487.266 144.134V137.063H488.995V147.402H487.615Z" fill="#044860"/>
<path d="M490.541 137.063H499.223V138.749H495.773V147.402H494V138.749H490.55V137.063H490.541Z" fill="#044860"/>
<path d="M500.778 137.063H508.411V138.749H502.551V141.349H508.027V142.974H502.551V145.724H508.56V147.41H500.778V137.063Z" fill="#044860"/>
<path d="M510.761 147.402V137.063H514.796C515.573 137.063 516.228 137.15 516.778 137.326C517.329 137.502 517.748 137.748 518.036 138.055C518.324 138.363 518.534 138.705 518.656 139.065C518.787 139.434 518.848 139.838 518.848 140.278C518.848 140.989 518.639 141.613 518.228 142.157C517.818 142.702 517.268 143.071 516.586 143.264L519.669 147.402H517.512L514.708 143.607H512.534V147.402H510.752H510.761ZM512.542 138.74V141.92H514.848C515.521 141.92 516.053 141.771 516.438 141.481C516.822 141.191 517.014 140.787 517.014 140.278C517.014 139.768 516.848 139.408 516.508 139.144C516.167 138.881 515.591 138.749 514.77 138.749H512.551L512.542 138.74Z" fill="#044860"/>
<path d="M191.976 140.629H157.363V143.264H191.976V140.629Z" fill="#F9AA19"/>
<path d="M569.349 140.629H534.736V143.264H569.349V140.629Z" fill="#F9AA19"/>
</svg>
