<svg width="645" height="240" viewBox="0 0 645 240" fill="none" xmlns="http://www.w3.org/2000/svg">
<rect width="645" height="240" fill="#083045"/>
<path d="M99.3162 155C80.3982 155 65 139.522 65 120.496C65 101.469 80.3982 86 99.3162 86C118.234 86 133.615 101.478 133.615 120.496C133.615 139.513 118.234 154.991 99.3162 154.991V155ZM99.3162 89.3029C82.2061 89.3029 68.284 103.296 68.284 120.496C68.284 137.695 82.2061 151.697 99.3162 151.697C116.426 151.697 130.331 137.704 130.331 120.496C130.331 103.287 116.417 89.3029 99.3162 89.3029Z" fill="white"/>
<path d="M110.024 138.222L99.7267 132.881C99.5956 132.811 99.4559 132.776 99.3074 132.776C99.1677 132.776 99.0192 132.811 98.8882 132.881L88.5907 138.222C88.154 138.451 87.9706 138.978 88.1802 139.426C88.3811 139.874 88.9051 140.084 89.3593 139.9L98.9668 136.149C99.0716 136.105 99.1851 136.079 99.2987 136.079C99.4122 136.079 99.5258 136.105 99.6306 136.149L109.238 139.9C109.692 140.084 110.216 139.874 110.417 139.426C110.618 138.978 110.435 138.451 110.007 138.222H110.024Z" fill="#F9AA19"/>
<path d="M123.824 119.573L108.714 118.879C107.823 118.835 107.509 117.667 108.26 117.184L121.003 108.971C121.413 108.707 121.544 108.163 121.3 107.741C121.055 107.311 120.522 107.152 120.086 107.381L106.644 114.382C105.849 114.795 105.002 113.943 105.413 113.143L112.374 99.6155C112.601 99.1763 112.443 98.6405 112.024 98.3945H112.007C111.579 98.1398 111.037 98.2715 110.775 98.6844L102.618 111.509C102.137 112.265 100.976 111.949 100.932 111.053L100.224 95.8383C100.198 95.3464 99.7965 94.9599 99.3074 94.9599C98.8183 94.9599 98.4165 95.3464 98.3903 95.8383L97.6916 111.053C97.6479 111.949 96.4863 112.265 96.0059 111.509L87.8483 98.6844C87.5863 98.2715 87.0448 98.1398 86.6168 98.3857H86.6081C86.1889 98.6405 86.0316 99.1763 86.2587 99.6155L93.2198 113.134C93.6303 113.934 92.7831 114.786 91.9883 114.373L78.5465 107.372C78.1098 107.144 77.5771 107.302 77.3325 107.723C77.088 108.154 77.219 108.707 77.6295 108.971L90.3725 117.184C91.1236 117.667 90.8092 118.835 89.9183 118.879L74.7996 119.573C74.3105 119.6 73.9262 120.004 73.9262 120.496C73.9262 120.996 74.3105 121.4 74.7996 121.418L89.9183 122.121C90.8092 122.165 91.1236 123.333 90.3725 123.816L77.6295 132.02C77.219 132.284 77.088 132.829 77.3325 133.259C77.5771 133.698 78.1098 133.856 78.5465 133.628L98.8969 123.034C99.1589 122.894 99.4734 122.894 99.7354 123.034L120.086 133.628C120.522 133.856 121.055 133.698 121.3 133.268C121.544 132.837 121.405 132.293 120.994 132.029L108.251 123.825C107.5 123.342 107.814 122.173 108.705 122.129L123.815 121.427C124.304 121.4 124.689 120.996 124.689 120.504C124.689 120.004 124.304 119.6 123.815 119.582" fill="#F9AA19"/>
<path d="M160.21 110.218H168.01V115.418C166.114 116.947 163.739 117.728 160.944 117.728C157.738 117.728 155.101 116.745 153.092 114.812C151.092 112.88 150.079 110.227 150.079 106.924C150.079 103.621 151.057 101.065 152.996 99.0971C154.935 97.1207 157.511 96.128 160.656 96.128C164.071 96.128 166.734 97.1646 168.595 99.2201L168.778 99.4221L171.416 96.6727L171.276 96.497C168.944 93.5718 165.293 92.0961 160.411 92.0961C156.262 92.0961 152.742 93.5455 149.948 96.4004C147.153 99.2552 145.738 102.804 145.738 106.941C145.738 111.377 147.17 115.005 150 117.711C152.821 120.416 156.481 121.787 160.856 121.787C162.953 121.787 165.031 121.391 167.031 120.61C169.04 119.828 170.691 118.747 171.949 117.395L172.019 117.324V106.37H160.201V110.244L160.21 110.218Z" fill="white"/>
<path d="M195.967 108.549C195.967 111.404 195.304 113.67 194.002 115.295C192.71 116.903 190.806 117.72 188.334 117.72C185.862 117.72 183.923 116.894 182.351 115.26C180.779 113.626 179.975 111.299 179.975 108.347V92.4476H175.8V108.874C175.8 112.941 177.006 116.13 179.399 118.361C181.783 120.592 184.788 121.717 188.334 121.717C191.565 121.717 194.36 120.645 196.666 118.546C198.972 116.429 200.142 113.257 200.142 109.111V92.4476H195.967V108.549Z" fill="white"/>
<path d="M213.383 92.3598L200.762 121.392H205.068L208.178 114.197H221.715L224.868 121.392H229.253L216.693 92.5091L216.632 92.3598H213.383ZM220.117 110.446H209.767L214.92 98.4121L220.117 110.446Z" fill="white"/>
<path d="M251.961 106.599C253.263 105.097 253.918 103.287 253.918 101.232C253.918 95.3991 250.154 92.4476 242.721 92.4476H231.637V121.4H235.812V110.262H242.791L251.193 121.4H256.311L247.193 109.436C249.14 108.962 250.739 108.004 251.953 106.599H251.961ZM235.821 96.4005H242.599C247.35 96.4005 249.664 97.9817 249.664 101.232C249.664 102.787 249.07 103.99 247.848 104.912C246.616 105.835 244.939 106.309 242.843 106.309H235.821V96.4005Z" fill="white"/>
<path d="M280.321 96.6728C279.116 95.3464 277.439 94.3011 275.351 93.5544C273.273 92.8165 270.801 92.4388 268.015 92.4388H259.036V121.392H267.613C272.941 121.392 277.02 119.995 279.753 117.237C282.478 114.478 283.867 110.868 283.867 106.511C283.867 104.57 283.579 102.751 283.002 101.126C282.426 99.4926 281.526 97.9905 280.321 96.6728ZM267.849 117.439H263.211V96.4005H267.927C271.989 96.4005 274.976 97.3141 276.801 99.1148C278.627 100.916 279.552 103.402 279.552 106.511C279.552 109.84 278.583 112.52 276.67 114.487C274.757 116.446 271.788 117.439 267.84 117.439H267.849Z" fill="white"/>
<path d="M291.981 92.4476H287.806V121.4H291.981V92.4476Z" fill="white"/>
<path d="M310.244 92.3598H307.004L294.383 121.392H298.689L301.798 114.197H315.327L318.48 121.392H322.865L310.305 92.5091L310.244 92.3598ZM313.738 110.446H303.388L308.541 98.4121L313.738 110.446Z" fill="white"/>
<path d="M345.46 92.4476V113.758L328.542 92.4476H325.258V121.392H329.31V100.16L346.281 121.392H349.521V92.4476H345.46Z" fill="white"/>
<path d="M387.436 106.599C388.737 105.097 389.401 103.287 389.401 101.232C389.401 95.3991 385.636 92.4476 378.204 92.4476H367.129V121.4H371.304V110.262H378.282L386.684 121.4H391.803L382.684 109.436C384.632 108.962 386.23 108.004 387.444 106.599H387.436ZM371.295 96.4005H378.073C382.824 96.4005 385.139 97.9817 385.139 101.232C385.139 102.787 384.545 103.99 383.322 104.912C382.09 105.835 380.413 106.309 378.317 106.309H371.295V96.4005Z" fill="#F9AA19"/>
<path d="M398.685 108.637H414.249V104.754H398.685V96.4005H415.376V92.4476H394.51V121.392H415.743V117.439H398.685V108.637Z" fill="#F9AA19"/>
<path d="M442.251 113.987C440.05 116.464 437.202 117.72 433.787 117.72C430.582 117.72 427.962 116.727 426.005 114.768C424.04 112.809 423.044 110.165 423.044 106.924C423.044 103.683 423.97 101.065 425.804 99.0885C427.63 97.1208 430.171 96.1194 433.342 96.1194C436.512 96.1194 439.316 97.2701 441.569 99.5453L441.744 99.7209L444.46 97.0769L444.329 96.9012C443.281 95.4957 441.779 94.3274 439.849 93.4314C437.927 92.5355 435.709 92.0875 433.255 92.0875C428.922 92.0875 425.376 93.5193 422.712 96.3302C420.049 99.1412 418.704 102.708 418.704 106.924C418.704 111.413 420.057 115.049 422.739 117.729C425.411 120.408 429.053 121.761 433.543 121.761C435.857 121.761 438.05 121.295 440.05 120.373C442.058 119.45 443.639 118.203 444.74 116.657L444.853 116.49L442.434 113.776L442.251 113.987Z" fill="#F9AA19"/>
<path d="M460.094 92.0787C456.007 92.0787 452.504 93.5193 449.692 96.3566C446.88 99.1939 445.456 102.751 445.456 106.915C445.456 111.079 446.88 114.742 449.692 117.535C452.504 120.337 455.998 121.752 460.094 121.752C464.191 121.752 467.641 120.32 470.453 117.491C473.265 114.663 474.689 111.105 474.689 106.906C474.689 102.708 473.265 99.0797 470.453 96.2863C467.641 93.4841 464.156 92.0699 460.094 92.0699V92.0787ZM460.094 117.72C457.264 117.72 454.819 116.683 452.819 114.645C450.819 112.607 449.797 110.007 449.797 106.915C449.797 103.823 450.81 101.197 452.793 99.1675C454.784 97.1384 457.238 96.1106 460.086 96.1106C462.933 96.1106 465.317 97.1384 467.326 99.1675C469.326 101.197 470.348 103.806 470.348 106.915C470.348 110.025 469.361 112.634 467.405 114.663C465.457 116.692 462.994 117.72 460.086 117.72H460.094Z" fill="#F9AA19"/>
<path d="M489.345 115.339L478.471 92.4476H473.964L487.711 121.251L487.781 121.392H490.76L503.922 92.4476H499.529L489.345 115.339Z" fill="#F9AA19"/>
<path d="M510.289 108.637H525.844V104.754H510.289V96.4005H526.971V92.4476H506.105V121.392H527.338V117.439H510.289V108.637Z" fill="#F9AA19"/>
<path d="M552.16 106.599C553.461 105.097 554.125 103.287 554.125 101.232C554.125 95.3991 550.361 92.4476 542.928 92.4476H531.853V121.4H536.028V110.262H543.007L551.409 121.4H556.527L547.409 109.436C549.356 108.962 550.955 108.004 552.169 106.599H552.16ZM536.02 96.4005H542.797C547.548 96.4005 549.863 97.9817 549.863 101.232C549.863 102.787 549.269 103.99 548.046 104.912C546.815 105.835 545.138 106.309 543.042 106.309H536.02V96.4005Z" fill="#F9AA19"/>
<path d="M576.126 92.4476L567.41 106.01L558.816 92.4476H553.741L565.218 110.446V121.392H569.392V110.446L581 92.4476H576.126Z" fill="#F9AA19"/>
<path d="M201.845 140.594H157.363V143.229H201.845V140.594Z" fill="#F9AA19"/>
<path d="M569.061 140.594H524.98V143.229H569.061V140.594Z" fill="#F9AA19"/>
<path d="M225.357 142.983H218.947V148.201H216.833V135.903H218.947V140.98H225.357V135.903H227.471V148.201H225.357V142.983Z" fill="white"/>
<path d="M231.69 137.581C232.895 136.369 234.38 135.763 236.135 135.763C237.891 135.763 239.376 136.36 240.581 137.555C241.786 138.749 242.389 140.251 242.389 142.052C242.389 143.853 241.786 145.337 240.572 146.541C239.358 147.744 237.882 148.342 236.135 148.342C234.389 148.342 232.912 147.744 231.698 146.55C230.484 145.355 229.882 143.853 229.882 142.052C229.882 140.251 230.484 138.793 231.69 137.581ZM233.271 145.109C234.065 145.908 235.017 146.304 236.135 146.304C237.253 146.304 238.249 145.908 239.026 145.118C239.804 144.327 240.188 143.308 240.188 142.052C240.188 140.796 239.786 139.795 238.991 138.995C238.197 138.196 237.245 137.801 236.135 137.801C235.026 137.801 234.065 138.196 233.271 138.986C232.476 139.777 232.083 140.796 232.083 142.052C232.083 143.308 232.476 144.31 233.271 145.109Z" fill="white"/>
<path d="M244.8 135.903H249.988C251.525 135.903 252.617 136.175 253.272 136.72C253.927 137.265 254.25 138.02 254.25 138.995C254.25 140.225 253.761 141.139 252.782 141.736C254.04 142.131 254.669 143.097 254.669 144.617C254.669 145.838 254.241 146.734 253.394 147.323C252.547 147.911 251.376 148.201 249.883 148.201H244.8V135.903ZM246.913 137.906V140.963H249.935C250.608 140.963 251.132 140.831 251.507 140.568C251.883 140.304 252.066 139.935 252.066 139.47C252.066 138.934 251.892 138.538 251.542 138.284C251.193 138.029 250.581 137.906 249.708 137.906H246.913ZM246.913 142.895V146.198H249.743C250.695 146.198 251.394 146.066 251.822 145.794C252.25 145.522 252.468 145.091 252.468 144.494C252.468 143.941 252.267 143.537 251.865 143.282C251.464 143.027 250.8 142.895 249.883 142.895H246.913Z" fill="white"/>
<path d="M258.364 137.581C259.569 136.369 261.054 135.763 262.809 135.763C264.565 135.763 266.05 136.36 267.255 137.555C268.46 138.749 269.063 140.251 269.063 142.052C269.063 143.853 268.46 145.337 267.246 146.541C266.032 147.744 264.556 148.342 262.809 148.342C261.062 148.342 259.586 147.744 258.372 146.55C257.158 145.355 256.556 143.853 256.556 142.052C256.556 140.251 257.158 138.793 258.364 137.581ZM259.944 145.109C260.739 145.908 261.691 146.304 262.809 146.304C263.927 146.304 264.923 145.908 265.7 145.118C266.477 144.327 266.862 143.308 266.862 142.052C266.862 140.796 266.46 139.795 265.665 138.995C264.87 138.196 263.918 137.801 262.809 137.801C261.7 137.801 260.739 138.196 259.944 138.986C259.15 139.777 258.757 140.796 258.757 142.052C258.757 143.308 259.15 144.31 259.944 145.109Z" fill="white"/>
<path d="M271.473 135.903H273.587V141.297L279.072 135.903H281.832L276.277 141.42L282.234 148.201H279.421L274.688 142.843L273.587 143.914V148.201H271.473V135.903Z" fill="white"/>
<path d="M283.963 135.903H293.047V137.906H286.077V140.998H292.592V142.93H286.077V146.198H293.221V148.201H283.963V135.903Z" fill="white"/>
<path d="M304.645 148.201L297.903 139.821V148.201H295.841V135.903H297.483L304.226 144.318V135.903H306.287V148.201H304.645Z" fill="white"/>
<path d="M324.681 146.058C324.183 146.769 323.493 147.331 322.611 147.735C321.729 148.14 320.768 148.342 319.72 148.342C317.799 148.342 316.27 147.771 315.135 146.629C314 145.487 313.432 143.958 313.432 142.052C313.432 140.26 314.008 138.767 315.161 137.563C316.314 136.36 317.825 135.763 319.685 135.763C320.76 135.763 321.72 135.956 322.568 136.351C323.415 136.746 324.061 137.256 324.489 137.888L323.092 139.224C322.245 138.275 321.144 137.801 319.79 137.801C318.533 137.801 317.528 138.187 316.768 138.96C316.008 139.733 315.633 140.761 315.633 142.052C315.633 143.343 316.026 144.354 316.812 145.135C317.598 145.917 318.62 146.304 319.878 146.304C321.354 146.304 322.541 145.768 323.441 144.687L324.681 146.058Z" fill="white"/>
<path d="M327.485 137.581C328.69 136.369 330.175 135.763 331.931 135.763C333.686 135.763 335.171 136.36 336.376 137.555C337.582 138.749 338.184 140.251 338.184 142.052C338.184 143.853 337.582 145.337 336.368 146.541C335.153 147.744 333.677 148.342 331.931 148.342C330.184 148.342 328.708 147.744 327.494 146.55C326.28 145.355 325.677 143.853 325.677 142.052C325.677 140.251 326.28 138.793 327.485 137.581ZM329.066 145.109C329.861 145.908 330.813 146.304 331.931 146.304C333.049 146.304 334.044 145.908 334.822 145.118C335.599 144.327 335.983 143.308 335.983 142.052C335.983 140.796 335.581 139.795 334.787 138.995C333.992 138.196 333.04 137.801 331.931 137.801C330.821 137.801 329.861 138.196 329.066 138.986C328.271 139.777 327.878 140.796 327.878 142.052C327.878 143.308 328.271 144.31 329.066 145.109Z" fill="white"/>
<path d="M350.936 142.966C350.936 143.888 350.796 144.705 350.508 145.416C350.22 146.128 349.835 146.681 349.338 147.094C348.84 147.507 348.307 147.815 347.722 148.017C347.137 148.219 346.516 148.324 345.853 148.324C344.324 148.324 343.049 147.85 342.018 146.892C340.988 145.935 340.473 144.591 340.473 142.86V135.903H342.586V142.597C342.586 143.721 342.892 144.626 343.494 145.311C344.097 145.996 344.883 146.339 345.853 146.339C346.822 146.339 347.573 146.005 348.071 145.337C348.569 144.67 348.822 143.783 348.822 142.667V135.903H350.936V142.966Z" fill="white"/>
<path d="M362.692 148.201L355.949 139.821V148.201H353.888V135.903H355.53L362.273 144.318V135.903H364.334V148.201H362.692Z" fill="white"/>
<path d="M374.064 143.914C373.784 143.66 373.426 143.458 372.981 143.308C372.535 143.159 372.046 143.027 371.513 142.904C370.981 142.781 370.439 142.632 369.906 142.465C369.374 142.298 368.884 142.087 368.439 141.841C367.994 141.595 367.635 141.253 367.356 140.813C367.077 140.374 366.937 139.847 366.937 139.241C366.937 138.266 367.391 137.449 368.291 136.773C369.19 136.096 370.334 135.763 371.723 135.763C373.741 135.763 375.313 136.351 376.457 137.519L375.304 139.03C374.282 138.178 373.068 137.748 371.671 137.748C370.946 137.748 370.343 137.871 369.854 138.108C369.365 138.345 369.12 138.705 369.12 139.188C369.12 139.575 369.304 139.891 369.679 140.146C370.055 140.401 370.518 140.585 371.077 140.708C371.636 140.831 372.238 140.989 372.893 141.182C373.548 141.376 374.151 141.587 374.71 141.815C375.269 142.043 375.732 142.403 376.108 142.904C376.483 143.405 376.667 144.002 376.667 144.705C376.667 145.768 376.212 146.646 375.304 147.323C374.396 147.999 373.286 148.342 371.968 148.342C370.893 148.342 369.863 148.131 368.876 147.7C367.889 147.27 367.12 146.734 366.587 146.093L367.845 144.599C368.954 145.768 370.387 146.356 372.16 146.356C372.893 146.356 373.461 146.225 373.872 145.961C374.282 145.698 374.483 145.329 374.483 144.863C374.483 144.485 374.343 144.169 374.064 143.914Z" fill="white"/>
<path d="M379.025 135.903H388.108V137.906H381.138V140.998H387.654V142.93H381.138V146.198H388.283V148.201H379.025V135.903Z" fill="white"/>
<path d="M390.903 135.903H393.017V146.198H399.952V148.201H390.903V135.903Z" fill="white"/>
<path d="M401.96 135.903H404.074V148.201H401.96V135.903Z" fill="white"/>
<path d="M415.935 148.201L409.192 139.821V148.201H407.131V135.903H408.773L415.516 144.318V135.903H417.577V148.201H415.935Z" fill="white"/>
<path d="M426.049 141.63H431.324V146.391C430.765 147.015 430.058 147.489 429.202 147.832C428.346 148.175 427.446 148.342 426.503 148.342C424.59 148.342 423.027 147.762 421.813 146.611C420.599 145.46 419.987 143.941 419.987 142.052C419.987 140.269 420.581 138.776 421.769 137.572C422.957 136.369 424.459 135.763 426.276 135.763C427.315 135.763 428.25 135.938 429.097 136.29C429.944 136.641 430.591 137.124 431.045 137.748L429.63 139.101C428.861 138.231 427.778 137.801 426.381 137.801C425.114 137.801 424.092 138.187 423.333 138.951C422.573 139.715 422.188 140.752 422.188 142.052C422.188 143.352 422.59 144.415 423.394 145.17C424.197 145.926 425.245 146.304 426.538 146.304C427.647 146.304 428.564 146.014 429.298 145.443V143.563H426.049V141.63Z" fill="white"/>
<path d="M449.072 146.058C448.574 146.769 447.884 147.331 447.002 147.735C446.12 148.14 445.159 148.342 444.111 148.342C442.189 148.342 440.661 147.771 439.526 146.629C438.39 145.487 437.822 143.958 437.822 142.052C437.822 140.26 438.399 138.767 439.552 137.563C440.705 136.36 442.216 135.763 444.076 135.763C445.15 135.763 446.111 135.956 446.958 136.351C447.805 136.746 448.452 137.256 448.88 137.888L447.482 139.224C446.635 138.275 445.535 137.801 444.181 137.801C442.923 137.801 441.919 138.187 441.159 138.96C440.399 139.733 440.023 140.761 440.023 142.052C440.023 143.343 440.416 144.354 441.203 145.135C441.989 145.917 443.01 146.304 444.268 146.304C445.744 146.304 446.932 145.768 447.832 144.687L449.072 146.058Z" fill="white"/>
<path d="M451.168 135.903H460.252V137.906H453.282V140.998H459.797V142.93H453.282V146.198H460.426V148.201H451.168V135.903Z" fill="white"/>
<path d="M471.85 148.201L465.108 139.821V148.201H463.046V135.903H464.688L471.431 144.318V135.903H473.492V148.201H471.85Z" fill="white"/>
<path d="M475.335 135.903H485.659V137.906H481.554V148.201H479.44V137.906H475.335V135.903Z" fill="white"/>
<path d="M487.519 135.903H496.603V137.906H489.633V140.998H496.148V142.93H489.633V146.198H496.777V148.201H487.519V135.903Z" fill="white"/>
<path d="M499.389 148.201V135.903H504.193C505.11 135.903 505.896 136.009 506.551 136.219C507.206 136.43 507.704 136.72 508.044 137.089C508.385 137.458 508.638 137.862 508.787 138.292C508.935 138.723 509.014 139.206 509.014 139.733C509.014 140.576 508.769 141.323 508.28 141.964C507.791 142.605 507.136 143.045 506.324 143.282L509.992 148.201H507.424L504.088 143.686H501.503V148.201H499.389ZM501.511 137.906V141.683H504.254C505.057 141.683 505.686 141.507 506.14 141.165C506.595 140.822 506.822 140.339 506.822 139.733C506.822 139.127 506.621 138.696 506.219 138.38C505.817 138.064 505.127 137.906 504.149 137.906H501.511Z" fill="white"/>
</svg>
