<svg width="645" height="300" viewBox="0 0 645 300" fill="none" xmlns="http://www.w3.org/2000/svg">
<rect width="645" height="300" fill="#083045"/>
<path d="M172.385 222.46H119.864V224.959H172.385V222.46Z" fill="#F9AA19"/>
<path d="M525.842 222.46H475.716V224.959H525.842V222.46Z" fill="#F9AA19"/>
<path d="M322.202 148.5C300.365 148.5 282.603 130.896 282.603 109.25C282.603 87.6047 300.365 70 322.202 70C344.039 70 361.775 87.6047 361.775 109.25C361.775 130.896 344.022 148.5 322.202 148.5ZM322.202 73.1327C302.104 73.1327 285.762 89.3376 285.762 109.25C285.762 129.163 302.113 145.368 322.202 145.368C342.291 145.368 358.616 129.163 358.616 109.25C358.616 89.3376 342.274 73.1327 322.202 73.1327Z" fill="white"/>
<path d="M334.654 129.579L322.681 123.447C322.529 123.372 322.361 123.331 322.193 123.331C322.025 123.331 321.857 123.372 321.706 123.447L309.733 129.579C309.229 129.838 309.019 130.446 309.254 130.962C309.49 131.479 310.094 131.72 310.624 131.504L321.807 127.205C321.933 127.155 322.067 127.13 322.202 127.13C322.336 127.13 322.471 127.155 322.597 127.205L333.78 131.504C334.309 131.72 334.914 131.479 335.149 130.962C335.385 130.446 335.175 129.838 334.67 129.579H334.654Z" fill="#F9AA19"/>
<path d="M350.71 108.184L333.133 107.392C332.091 107.342 331.73 106.001 332.604 105.451L347.433 96.0279C347.912 95.728 348.063 95.1031 347.786 94.6115C347.5 94.12 346.879 93.9367 346.374 94.195L330.73 102.218C329.806 102.693 328.814 101.71 329.293 100.794L337.393 85.2802C337.653 84.7803 337.477 84.1637 336.981 83.8804H336.964C336.468 83.5888 335.838 83.7388 335.536 84.2137L326.042 98.9273C325.479 99.7938 324.126 99.4355 324.084 98.4107L323.269 80.9561C323.244 80.3895 322.773 79.9479 322.202 79.9479H322.193C321.622 79.9479 321.152 80.3895 321.126 80.9561L320.32 98.4024C320.269 99.4355 318.917 99.7938 318.362 98.919L308.868 84.2054C308.557 83.7305 307.927 83.5805 307.439 83.8638H307.423C306.935 84.1554 306.75 84.7719 307.011 85.2718L315.119 100.785C315.598 101.702 314.606 102.685 313.682 102.21L298.046 94.1783C297.542 93.92 296.92 94.095 296.634 94.5865C296.349 95.0864 296.5 95.7113 296.979 96.0196L311.808 105.443C312.682 106.001 312.321 107.342 311.279 107.384L293.694 108.175C293.122 108.2 292.677 108.667 292.677 109.233C292.677 109.808 293.122 110.267 293.694 110.3L311.279 111.1C312.321 111.15 312.682 112.491 311.8 113.041L296.97 122.456C296.492 122.764 296.34 123.389 296.626 123.872V123.889C296.92 124.372 297.542 124.555 298.046 124.297L321.723 112.141C322.034 111.983 322.395 111.983 322.706 112.141L346.383 124.297C346.887 124.555 347.517 124.372 347.794 123.88C348.072 123.389 347.92 122.764 347.442 122.464L332.612 113.049C331.738 112.491 332.099 111.15 333.141 111.108L350.718 110.308C351.29 110.283 351.735 109.817 351.735 109.25C351.735 108.675 351.29 108.217 350.718 108.184H350.71Z" fill="#F9AA19"/>
<path d="M350.794 185.968C352.046 184.543 352.684 182.826 352.684 180.877C352.684 175.345 349.063 172.545 341.913 172.545H331.251V200.006H335.267V189.442H341.98L350.063 200.006H354.987L346.215 188.659C348.089 188.209 349.626 187.301 350.794 185.968ZM335.267 176.295H341.787C346.358 176.295 348.584 177.794 348.584 180.877C348.584 182.352 348.013 183.493 346.837 184.368C345.652 185.243 344.039 185.693 342.022 185.693H335.267V176.295Z" fill="#F9AA19"/>
<path d="M361.624 187.9H376.588V184.218H361.624V176.295H377.672V172.545H357.6V199.998H378.025V196.249H361.624V187.9Z" fill="#F9AA19"/>
<path d="M403.534 192.974C401.416 195.324 398.677 196.515 395.392 196.515C392.308 196.515 389.788 195.574 387.906 193.716C386.024 191.858 385.057 189.35 385.057 186.276C385.057 183.201 385.948 180.719 387.713 178.844C389.469 176.978 391.905 176.028 394.963 176.028C398.022 176.028 400.71 177.119 402.878 179.269L403.046 179.436L405.659 176.928L405.533 176.761C404.525 175.428 403.08 174.32 401.223 173.47C399.375 172.62 397.24 172.195 394.879 172.195C390.712 172.195 387.301 173.553 384.738 176.22C382.176 178.886 380.882 182.268 380.882 186.267C380.882 190.525 382.184 193.974 384.763 196.515C387.334 199.056 390.838 200.34 395.157 200.34C397.383 200.34 399.492 199.898 401.416 199.023C403.349 198.148 404.87 196.965 405.928 195.499L406.037 195.341L403.71 192.766L403.534 192.966V192.974Z" fill="#F9AA19"/>
<path d="M420.691 172.195C416.758 172.195 413.389 173.562 410.684 176.253C407.978 178.944 406.609 182.318 406.609 186.267C406.609 190.217 407.978 193.691 410.684 196.34C413.389 198.998 416.75 200.34 420.691 200.34C424.631 200.34 427.95 198.981 430.655 196.299C433.361 193.616 434.73 190.242 434.73 186.259C434.73 182.277 433.361 178.836 430.655 176.186C427.95 173.528 424.597 172.187 420.691 172.187V172.195ZM420.691 196.515C417.968 196.515 415.616 195.532 413.692 193.599C411.768 191.666 410.785 189.2 410.785 186.267C410.785 183.335 411.759 180.844 413.666 178.919C415.582 176.994 417.943 176.02 420.691 176.02C423.438 176.02 425.723 176.994 427.656 178.919C429.58 180.844 430.563 183.318 430.563 186.267C430.563 189.217 429.613 191.691 427.731 193.616C425.858 195.541 423.488 196.515 420.691 196.515Z" fill="#F9AA19"/>
<path d="M448.829 194.257L438.436 172.679L438.377 172.545H434.033L447.325 199.998H450.19L462.701 172.879L462.852 172.545H458.626L448.829 194.257Z" fill="#F9AA19"/>
<path d="M468.977 187.9H483.941V184.218H468.977V176.295H485.025V172.545H464.952V199.998H485.378V196.249H468.977V187.9Z" fill="#F9AA19"/>
<path d="M509.265 185.968C510.517 184.543 511.155 182.826 511.155 180.877C511.155 175.345 507.534 172.545 500.384 172.545H489.73V200.006H493.746V189.442H500.46L508.475 199.906L508.542 199.998H513.466L504.694 188.65C506.568 188.2 508.105 187.292 509.273 185.959L509.265 185.968ZM493.729 176.295H500.249C504.82 176.295 507.047 177.794 507.047 180.877C507.047 182.352 506.475 183.493 505.299 184.368C504.114 185.243 502.493 185.693 500.485 185.693H493.729V176.295Z" fill="#F9AA19"/>
<path d="M532.312 172.545L523.926 185.409L515.734 172.654L515.667 172.545H510.777L521.818 189.617V199.998H525.842V189.617L537 172.545H532.312Z" fill="#F9AA19"/>
<path d="M192.34 226.951L188.206 218.202H186.005L191.6 229.867H193.046L198.356 218.202H196.205L192.34 226.951Z" fill="white"/>
<path d="M202.053 218.202H200.019V229.867H202.053V218.202Z" fill="white"/>
<path d="M213.547 223.951C214.017 223.343 214.252 222.635 214.252 221.835C214.252 221.335 214.177 220.877 214.034 220.469C213.891 220.06 213.647 219.677 213.32 219.327C212.992 218.977 212.513 218.702 211.883 218.502C211.253 218.302 210.497 218.202 209.614 218.202H204.993V229.867H207.027V225.584H209.514L212.723 229.867H215.193L211.665 225.201C212.446 224.976 213.076 224.559 213.547 223.951ZM209.665 223.685H207.027V220.102H209.564C210.505 220.102 211.169 220.252 211.555 220.552C211.942 220.852 212.135 221.277 212.135 221.835C212.135 222.393 211.917 222.868 211.48 223.193C211.043 223.518 210.438 223.685 209.665 223.685Z" fill="white"/>
<path d="M215.109 220.102H219.058V229.867H221.092V220.102H225.041V218.202H215.109V220.102Z" fill="white"/>
<path d="M234.737 224.618C234.737 225.676 234.493 226.517 234.014 227.151C233.535 227.784 232.821 228.1 231.88 228.1C230.939 228.1 230.191 227.775 229.611 227.126C229.032 226.476 228.737 225.618 228.737 224.551V218.202H226.704V224.801C226.704 226.442 227.2 227.717 228.191 228.625C229.183 229.533 230.409 229.983 231.88 229.983C232.518 229.983 233.115 229.883 233.678 229.692C234.241 229.5 234.753 229.208 235.232 228.817C235.711 228.425 236.081 227.9 236.358 227.226C236.635 226.551 236.77 225.776 236.77 224.901V218.202H234.737V224.618Z" fill="white"/>
<path d="M243.575 218.202L238.417 229.867H240.517L241.643 227.284H247.004L248.146 229.867H250.28L245.121 218.202H243.575ZM242.382 225.551L244.315 221.119L246.247 225.551H242.382Z" fill="white"/>
<path d="M254.061 218.202H252.028V229.867H260.732V227.967H254.061V218.202Z" fill="white"/>
<path d="M272.21 228.067C271 228.067 270.017 227.7 269.261 226.959C268.504 226.217 268.126 225.243 268.126 224.035C268.126 222.827 268.488 221.835 269.219 221.102C269.949 220.369 270.916 220.002 272.126 220.002C273.428 220.002 274.487 220.452 275.302 221.352L276.646 220.085C276.234 219.486 275.612 219.002 274.797 218.627C273.982 218.252 273.058 218.069 272.025 218.069C270.235 218.069 268.782 218.636 267.673 219.777C266.563 220.919 266.009 222.335 266.009 224.035C266.009 225.843 266.555 227.292 267.647 228.375C268.74 229.458 270.21 230 272.058 230C273.067 230 273.991 229.808 274.839 229.425C275.688 229.042 276.352 228.509 276.831 227.834L275.638 226.534C274.772 227.559 273.63 228.067 272.21 228.067Z" fill="white"/>
<path d="M283.804 218.069C282.116 218.069 280.687 218.644 279.528 219.794C278.368 220.944 277.789 222.36 277.789 224.035C277.789 225.709 278.368 227.167 279.536 228.3C280.704 229.433 282.124 230 283.804 230C285.485 230 286.905 229.433 288.073 228.292C289.241 227.151 289.82 225.734 289.82 224.035C289.82 222.335 289.241 220.902 288.081 219.769C286.922 218.636 285.493 218.069 283.804 218.069ZM286.586 226.942C285.838 227.692 284.914 228.067 283.804 228.067C282.695 228.067 281.813 227.692 281.049 226.934C280.284 226.176 279.906 225.209 279.906 224.035C279.906 222.86 280.284 221.877 281.049 221.127C281.813 220.377 282.729 220.002 283.804 220.002C284.88 220.002 285.787 220.377 286.552 221.135C287.317 221.893 287.703 222.86 287.703 224.035C287.703 225.209 287.333 226.192 286.586 226.942Z" fill="white"/>
<path d="M300.054 224.618C300.054 225.676 299.81 226.517 299.331 227.151C298.853 227.784 298.138 228.1 297.197 228.1C296.256 228.1 295.508 227.775 294.929 227.126C294.349 226.476 294.055 225.618 294.055 224.551V218.202H292.022V224.801C292.022 226.442 292.517 227.717 293.509 228.625C294.5 229.533 295.727 229.983 297.197 229.983C297.836 229.983 298.432 229.883 298.995 229.692C299.558 229.5 300.071 229.208 300.55 228.817C301.029 228.425 301.398 227.9 301.676 227.226C301.953 226.551 302.087 225.776 302.087 224.901V218.202H300.054V224.618Z" fill="white"/>
<path d="M312.993 226.184L306.507 218.202H304.927V229.867H306.91V221.918L313.396 229.867H314.976V218.202H312.993V226.184Z" fill="white"/>
<path d="M324.958 223.81C324.42 223.593 323.84 223.393 323.21 223.21C322.58 223.026 322 222.876 321.462 222.76C320.925 222.643 320.479 222.468 320.118 222.227C319.757 221.985 319.58 221.685 319.58 221.318C319.58 220.86 319.816 220.519 320.286 220.294C320.757 220.069 321.336 219.952 322.034 219.952C323.378 219.952 324.546 220.36 325.529 221.169L326.638 219.735C325.537 218.627 324.025 218.069 322.084 218.069C320.748 218.069 319.648 218.386 318.782 219.027C317.917 219.669 317.48 220.444 317.48 221.368C317.48 221.943 317.614 222.443 317.883 222.86C318.152 223.276 318.496 223.601 318.925 223.835C319.354 224.068 319.824 224.268 320.337 224.426C320.849 224.584 321.37 224.726 321.883 224.843C322.395 224.959 322.866 225.084 323.294 225.226C323.723 225.368 324.067 225.559 324.336 225.801C324.605 226.042 324.739 226.342 324.739 226.701C324.739 227.142 324.546 227.492 324.151 227.742C323.756 227.992 323.21 228.117 322.504 228.117C320.799 228.117 319.421 227.559 318.354 226.451L317.144 227.867C317.656 228.475 318.396 228.984 319.345 229.392C320.295 229.8 321.286 230 322.319 230C323.588 230 324.655 229.675 325.529 229.034C326.403 228.392 326.84 227.559 326.84 226.551C326.84 225.884 326.663 225.318 326.302 224.843C325.941 224.368 325.495 224.026 324.958 223.81Z" fill="white"/>
<path d="M331.142 224.868H337.41V223.035H331.142V220.102H337.846V218.202H329.108V229.867H338.014V227.967H331.142V224.868Z" fill="white"/>
<path d="M342.568 218.202H340.535V229.867H349.24V227.967H342.568V218.202Z" fill="white"/>
<path d="M353.205 218.202H351.172V229.867H353.205V218.202Z" fill="white"/>
<path d="M364.212 226.184L357.726 218.202H356.146V229.867H358.129V221.918L364.615 229.867H366.195V218.202H364.212V226.184Z" fill="white"/>
<path d="M374.345 225.468H377.47V227.251C376.765 227.792 375.882 228.067 374.815 228.067C373.572 228.067 372.564 227.709 371.791 226.992C371.018 226.276 370.631 225.293 370.631 224.035C370.631 222.777 371.001 221.818 371.732 221.094C372.463 220.369 373.446 220.002 374.664 220.002C376.008 220.002 377.05 220.41 377.79 221.235L379.151 219.952C378.714 219.361 378.092 218.902 377.277 218.569C376.462 218.236 375.563 218.069 374.563 218.069C372.816 218.069 371.371 218.644 370.228 219.785C369.085 220.927 368.514 222.343 368.514 224.035C368.514 225.826 369.102 227.267 370.27 228.359C371.438 229.45 372.942 230 374.782 230C375.689 230 376.555 229.842 377.378 229.517C378.201 229.192 378.882 228.742 379.42 228.15V223.635H374.345V225.468Z" fill="white"/>
<path d="M386.293 229.867H388.326V225.301H394.51V223.401H388.326V220.102H394.947V218.202H386.293V229.867Z" fill="white"/>
<path d="M399.249 218.202H397.215V229.867H405.92V227.967H399.249V218.202Z" fill="white"/>
<path d="M412.641 218.069C410.953 218.069 409.524 218.644 408.365 219.794C407.205 220.944 406.626 222.36 406.626 224.035C406.626 225.709 407.205 227.167 408.373 228.3C409.541 229.433 410.961 230 412.641 230C414.322 230 415.742 229.433 416.91 228.292C418.077 227.151 418.657 225.734 418.657 224.035C418.657 222.335 418.077 220.902 416.918 219.769C415.759 218.636 414.33 218.069 412.641 218.069ZM415.422 226.942C414.675 227.692 413.75 228.067 412.641 228.067C411.532 228.067 410.65 227.692 409.885 226.934C409.121 226.176 408.743 225.209 408.743 224.035C408.743 222.86 409.121 221.877 409.885 221.127C410.65 220.377 411.566 220.002 412.641 220.002C413.717 220.002 414.624 220.377 415.389 221.135C416.153 221.893 416.54 222.86 416.54 224.035C416.54 225.209 416.17 226.192 415.422 226.942Z" fill="white"/>
<path d="M429.529 223.951C430 223.343 430.235 222.635 430.235 221.835C430.235 221.335 430.16 220.877 430.017 220.469C429.874 220.06 429.63 219.677 429.303 219.327C428.975 218.977 428.496 218.702 427.866 218.502C427.236 218.302 426.48 218.202 425.597 218.202H420.976V229.867H423.009V225.584H425.496L428.706 229.867H431.176L427.647 225.201C428.429 224.976 429.059 224.559 429.529 223.951ZM425.648 223.685H423.009V220.102H425.547C426.488 220.102 427.152 220.252 427.538 220.552C427.925 220.852 428.118 221.277 428.118 221.835C428.118 222.393 427.899 222.868 427.463 223.193C427.026 223.518 426.421 223.685 425.648 223.685Z" fill="white"/>
<path d="M435.075 218.202H433.042V229.867H435.075V218.202Z" fill="white"/>
<path d="M446.854 219.91C446.35 219.369 445.661 218.952 444.779 218.652C443.897 218.352 442.872 218.202 441.696 218.202H438.016V229.867H441.477C443.754 229.867 445.46 229.317 446.602 228.209C447.745 227.101 448.316 225.659 448.316 223.885C448.316 223.085 448.199 222.36 447.964 221.702C447.728 221.044 447.359 220.452 446.854 219.91ZM445.082 226.876C444.334 227.601 443.183 227.967 441.628 227.967H440.049V220.102H441.662C444.687 220.102 446.199 221.36 446.199 223.885C446.199 225.151 445.829 226.151 445.082 226.876Z" fill="white"/>
<path d="M455.744 218.202H454.198L449.039 229.867H451.14L452.265 227.284H457.626L458.769 229.867H460.903L455.744 218.202ZM453.005 225.551L454.937 221.119L456.87 225.551H453.005Z" fill="white"/>
<path d="M131.022 189.4V194.324C129.148 195.774 126.796 196.515 124.031 196.515C120.864 196.515 118.251 195.582 116.268 193.749C114.293 191.916 113.285 189.4 113.285 186.276C113.285 183.151 114.26 180.727 116.167 178.852C118.083 176.978 120.628 176.028 123.746 176.028C127.123 176.028 129.761 177.011 131.601 178.961L131.77 179.144L134.374 176.544L134.231 176.378C131.929 173.612 128.316 172.204 123.502 172.204C119.41 172.204 115.932 173.578 113.167 176.278C110.403 178.986 109 182.352 109 186.276C109 190.492 110.42 193.924 113.209 196.49C115.999 199.048 119.612 200.348 123.939 200.348C126.006 200.348 128.064 199.973 130.039 199.231C132.022 198.49 133.66 197.465 134.903 196.19L134.971 196.124V185.726H123.3V189.4H131.022Z" fill="white"/>
<path d="M159.261 187.817C159.261 190.525 158.606 192.674 157.32 194.216C156.043 195.74 154.153 196.524 151.716 196.524C149.279 196.524 147.355 195.74 145.793 194.182C144.238 192.633 143.448 190.425 143.448 187.625V172.545H139.331V188.125C139.331 191.983 140.524 195.007 142.885 197.132C145.238 199.248 148.204 200.315 151.716 200.315C154.909 200.315 157.673 199.306 159.942 197.307C162.219 195.307 163.378 192.291 163.378 188.359V172.545H159.261V187.817Z" fill="white"/>
<path d="M192.752 199.998L180.333 172.604L180.266 172.462H177.082L164.605 199.998H168.848L171.923 193.174H185.316L188.433 199.998H192.752ZM173.494 189.617L178.603 178.186L183.745 189.617H173.494Z" fill="white"/>
<path d="M215.067 199.998H220.117L211.102 188.659C213.026 188.209 214.605 187.301 215.807 185.968C217.092 184.543 217.748 182.826 217.748 180.877C217.748 175.345 214.026 172.545 206.682 172.545H195.734V200.006H199.851V189.442H206.766L215.076 200.006L215.067 199.998ZM199.843 176.295H206.556C211.261 176.295 213.547 177.794 213.547 180.877C213.547 182.352 212.958 183.493 211.749 184.368C210.53 185.243 208.867 185.693 206.8 185.693H199.851V176.303L199.843 176.295Z" fill="white"/>
<path d="M243.87 196.057C246.567 193.441 247.936 190.017 247.936 185.884C247.936 184.043 247.65 182.318 247.079 180.777C246.516 179.227 245.617 177.803 244.432 176.553C243.239 175.295 241.584 174.303 239.526 173.603C237.476 172.904 235.031 172.545 232.275 172.545H223.402V200.006H231.871C237.131 200.006 241.164 198.682 243.861 196.065L243.87 196.057ZM232.124 196.249H227.528V176.295H232.199C236.215 176.295 239.173 177.161 240.979 178.869C242.786 180.577 243.702 182.935 243.702 185.884C243.702 189.042 242.744 191.583 240.853 193.441C238.963 195.299 236.022 196.24 232.115 196.24L232.124 196.249Z" fill="white"/>
<path d="M256.565 172.545H252.448V200.006H256.565V172.545Z" fill="white"/>
<path d="M280.259 193.174L283.376 199.998H287.695L275.276 172.604L275.209 172.462H272.025L259.548 199.998H263.791L266.866 193.174H280.259ZM268.446 189.617L273.554 178.186L278.696 189.617H268.446Z" fill="white"/>
<path d="M294.677 179.844L311.456 199.998H314.648V172.545H310.649V192.774L293.904 172.545H290.677V199.998H294.677V179.844Z" fill="white"/>
</svg>
