<svg width="645" height="240" viewBox="0 0 645 240" fill="none" xmlns="http://www.w3.org/2000/svg">
<rect width="645" height="240" fill="white"/>
<path d="M99.3162 155C80.3982 155 65 139.522 65 120.496C65 101.469 80.3982 86 99.3162 86C118.234 86 133.606 101.478 133.606 120.496C133.606 139.513 118.225 154.991 99.3162 154.991V155ZM99.3162 89.3029C82.2061 89.3029 68.284 103.296 68.284 120.496C68.284 137.695 82.2061 151.697 99.3249 151.697C116.444 151.697 130.34 137.704 130.34 120.496C130.34 103.287 116.417 89.3029 99.3162 89.3029Z" fill="#044860"/>
<path d="M110.024 138.222L99.7267 132.881C99.5956 132.811 99.4559 132.776 99.3074 132.776C99.1677 132.776 99.0192 132.811 98.8882 132.881L88.5907 138.222C88.154 138.451 87.9706 138.978 88.1802 139.426C88.3811 139.874 88.9051 140.084 89.3593 139.9L98.9668 136.149C99.0716 136.105 99.1851 136.079 99.2987 136.079C99.4122 136.079 99.5258 136.105 99.6306 136.149L109.238 139.9C109.692 140.084 110.216 139.874 110.417 139.426C110.618 138.978 110.435 138.451 110.007 138.222H110.024Z" fill="#F9AA19"/>
<path d="M123.824 119.573L108.714 118.879C107.823 118.835 107.509 117.667 108.26 117.184L121.003 108.971C121.413 108.707 121.544 108.163 121.3 107.741C121.055 107.311 120.522 107.152 120.086 107.381L106.644 114.382C105.849 114.795 105.002 113.943 105.413 113.143L112.374 99.6155C112.601 99.1763 112.443 98.6405 112.024 98.3945H112.007C111.579 98.1398 111.037 98.2715 110.775 98.6844L102.618 111.509C102.137 112.265 100.976 111.949 100.932 111.053L100.224 95.8383C100.198 95.3464 99.7965 94.9599 99.3074 94.9599C98.8183 94.9599 98.4165 95.3464 98.3903 95.8383L97.6916 111.053C97.6479 111.949 96.4863 112.265 96.0059 111.509L87.8483 98.6844C87.5863 98.2715 87.0448 98.1398 86.6168 98.3857H86.6081C86.1889 98.6405 86.0316 99.1763 86.2587 99.6155L93.2198 113.134C93.6303 113.934 92.7831 114.786 91.9883 114.373L78.5465 107.372C78.1098 107.144 77.5771 107.302 77.3325 107.723C77.088 108.154 77.219 108.707 77.6295 108.971L90.3725 117.184C91.1236 117.667 90.8092 118.835 89.9183 118.879L74.7996 119.573C74.3105 119.6 73.9262 120.004 73.9262 120.496C73.9262 120.996 74.3105 121.4 74.7996 121.418L89.9183 122.121C90.8092 122.165 91.1236 123.333 90.3725 123.816L77.6295 132.02C77.219 132.284 77.088 132.829 77.3325 133.259C77.5771 133.698 78.1098 133.856 78.5465 133.628L98.8969 123.034C99.1589 122.894 99.4734 122.894 99.7354 123.034L120.086 133.628C120.522 133.856 121.055 133.698 121.3 133.268C121.544 132.837 121.405 132.293 120.994 132.029L108.251 123.825C107.5 123.342 107.814 122.173 108.705 122.129L123.815 121.427C124.304 121.4 124.689 120.996 124.689 120.504C124.689 120.004 124.304 119.6 123.815 119.582" fill="#F9AA19"/>
<path d="M387.436 106.599C388.737 105.097 389.401 103.287 389.401 101.232C389.401 95.3991 385.636 92.4476 378.204 92.4476H367.129V121.4H371.304V110.262H378.282L386.684 121.4H391.803L382.684 109.445C384.632 108.971 386.23 108.013 387.444 106.608L387.436 106.599ZM371.295 96.4005H378.073C382.824 96.4005 385.139 97.9817 385.139 101.232C385.139 102.787 384.545 103.99 383.322 104.912C382.09 105.835 380.405 106.3 378.317 106.3H371.295V96.4005Z" fill="#F9AA19"/>
<path d="M398.685 108.637H414.249V104.763H398.685V96.4005H415.376V92.4476H394.51V121.4H415.743V117.439H398.685V108.637Z" fill="#F9AA19"/>
<path d="M442.251 113.987C440.05 116.464 437.202 117.72 433.787 117.72C430.582 117.72 427.962 116.727 426.005 114.769C424.04 112.81 423.044 110.166 423.044 106.924C423.044 103.683 423.97 101.065 425.804 99.0887C427.63 97.1211 430.171 96.1197 433.342 96.1197C436.512 96.1197 439.316 97.2704 441.569 99.5367L441.744 99.7124L444.46 97.0684L444.329 96.8927C443.281 95.4872 441.779 94.3189 439.849 93.4229C437.927 92.5269 435.709 92.0789 433.255 92.0789C428.922 92.0789 425.376 93.502 422.712 96.3217C420.049 99.1327 418.704 102.699 418.704 106.915C418.704 111.404 420.057 115.041 422.739 117.72C425.411 120.399 429.053 121.752 433.543 121.752C435.857 121.752 438.05 121.286 440.05 120.364C442.058 119.442 443.639 118.186 444.74 116.64L444.853 116.473L442.434 113.758L442.251 113.969V113.987Z" fill="#F9AA19"/>
<path d="M460.094 92.0787C456.007 92.0787 452.504 93.5193 449.692 96.3566C446.88 99.1939 445.456 102.751 445.456 106.915C445.456 111.079 446.88 114.742 449.692 117.535C452.504 120.337 455.998 121.752 460.094 121.752C464.191 121.752 467.641 120.32 470.453 117.491C473.265 114.663 474.689 111.105 474.689 106.906C474.689 102.708 473.265 99.0797 470.453 96.2863C467.641 93.4842 464.156 92.0699 460.094 92.0699V92.0787ZM460.094 117.729C457.264 117.729 454.819 116.692 452.819 114.654C450.819 112.616 449.797 110.016 449.797 106.924C449.797 103.832 450.81 101.205 452.793 99.1763C454.784 97.1472 457.238 96.1194 460.086 96.1194C462.933 96.1194 465.317 97.1472 467.326 99.1763C469.326 101.205 470.348 103.814 470.348 106.924C470.348 110.034 469.361 112.643 467.405 114.672C465.457 116.701 462.994 117.729 460.086 117.729H460.094Z" fill="#F9AA19"/>
<path d="M489.345 115.348L478.471 92.4476H473.964L487.781 121.4H490.76L503.922 92.4476H499.529L489.345 115.348Z" fill="#F9AA19"/>
<path d="M510.289 108.637H525.844V104.763H510.289V96.4005H526.971V92.4476H506.105V121.4H527.338V117.439H510.289V108.637Z" fill="#F9AA19"/>
<path d="M552.16 106.599C553.462 105.097 554.125 103.287 554.125 101.232C554.125 95.3991 550.361 92.4476 542.928 92.4476H531.853V121.4H536.028V110.262H543.007L551.409 121.4H556.527L547.409 109.445C549.357 108.971 550.955 108.013 552.169 106.608L552.16 106.599ZM536.02 96.4005H542.797C547.549 96.4005 549.863 97.9817 549.863 101.232C549.863 102.787 549.269 103.99 548.046 104.912C546.815 105.835 545.129 106.3 543.042 106.3H536.02V96.4005Z" fill="#F9AA19"/>
<path d="M576.126 92.4476L567.41 106.01L558.894 92.5618L558.815 92.4476H553.741L565.218 110.446V121.4H569.392V110.446L581 92.4476H576.126Z" fill="#F9AA19"/>
<path d="M223.122 140.664H157.363V143.299H223.122V140.664Z" fill="#F9AA19"/>
<path d="M569.454 140.664H503.695V143.299H569.454V140.664Z" fill="#F9AA19"/>
<path d="M160.21 110.218H168.01V115.418C166.114 116.947 163.739 117.729 160.944 117.729C157.738 117.729 155.101 116.745 153.092 114.812C151.092 112.88 150.079 110.227 150.079 106.924C150.079 103.621 151.057 101.065 152.996 99.0973C154.935 97.1208 157.511 96.1282 160.656 96.1282C164.071 96.1282 166.734 97.1647 168.595 99.2115L168.778 99.4135L171.416 96.664L171.276 96.4883C168.944 93.5632 165.293 92.0875 160.411 92.0875C156.262 92.0875 152.742 93.5369 149.948 96.3917C147.153 99.2466 145.738 102.795 145.738 106.933C145.738 111.369 147.17 114.997 150 117.702C152.821 120.408 156.481 121.778 160.856 121.778C162.953 121.778 165.031 121.383 167.031 120.601C169.04 119.819 170.691 118.739 171.949 117.386L172.019 117.316V106.362H160.201V110.236L160.21 110.218Z" fill="#044860"/>
<path d="M195.967 108.549C195.967 111.404 195.304 113.67 194.002 115.304C192.71 116.912 190.806 117.729 188.334 117.729C185.862 117.729 183.923 116.903 182.351 115.269C180.779 113.635 179.975 111.307 179.975 108.356V92.4476H175.8V108.874C175.8 112.941 177.006 116.13 179.399 118.361C181.783 120.592 184.788 121.717 188.334 121.717C191.565 121.717 194.36 120.645 196.666 118.546C198.972 116.429 200.142 113.257 200.142 109.111V92.4476H195.967V108.549Z" fill="#044860"/>
<path d="M213.383 92.3686L200.762 121.4H205.068L208.178 114.206H221.715L224.868 121.4H229.253L216.693 92.5179L216.632 92.3686H213.383ZM220.117 110.446H209.767L214.92 98.4121L220.117 110.446Z" fill="#044860"/>
<path d="M251.202 121.4H256.32L247.201 109.445C249.149 108.971 250.747 108.013 251.961 106.608C253.263 105.106 253.918 103.296 253.918 101.241C253.918 95.4079 250.154 92.4564 242.721 92.4564H231.637V121.409H235.812V110.271H242.791L251.193 121.409L251.202 121.4ZM235.821 96.4005H242.599C247.35 96.4005 249.664 97.9817 249.664 101.232C249.664 102.787 249.07 103.99 247.848 104.912C246.616 105.835 244.939 106.3 242.843 106.3H235.821V96.4005Z" fill="#044860"/>
<path d="M279.753 117.237C282.478 114.478 283.867 110.868 283.867 106.511C283.867 104.57 283.579 102.751 283.002 101.126C282.426 99.4926 281.526 97.9905 280.321 96.6728C279.116 95.3464 277.439 94.3011 275.351 93.5544C273.273 92.8166 270.801 92.4388 268.015 92.4388H259.036V121.392H267.613C272.941 121.392 277.02 119.995 279.753 117.237ZM267.849 117.439H263.211V96.4005H267.927C271.989 96.4005 274.976 97.3141 276.801 99.1148C278.627 100.916 279.552 103.402 279.552 106.511C279.552 109.84 278.583 112.52 276.67 114.487C274.757 116.446 271.788 117.439 267.84 117.439H267.849Z" fill="#044860"/>
<path d="M291.981 92.4476H287.806V121.4H291.981V92.4476Z" fill="#044860"/>
<path d="M301.798 114.206H315.327L318.48 121.4H322.865L310.305 92.5179L310.244 92.3686H307.004L294.383 121.4H298.689L301.798 114.206ZM303.388 110.446L308.541 98.4121L313.738 110.446H303.388Z" fill="#044860"/>
<path d="M329.31 100.16L346.281 121.4H349.521V92.4476H345.46V113.767L328.542 92.4476H325.258V121.4H329.31V100.16Z" fill="#044860"/>
<path d="M245.393 137.704C244.869 137.133 244.153 136.694 243.236 136.377C242.319 136.061 241.253 135.903 240.031 135.903H236.205V148.201H239.804C242.171 148.201 243.944 147.621 245.131 146.453C246.319 145.285 246.913 143.765 246.913 141.894C246.913 141.051 246.791 140.286 246.546 139.592C246.302 138.899 245.917 138.275 245.393 137.704ZM243.551 145.047C242.773 145.812 241.577 146.198 239.961 146.198H238.319V137.906H239.996C243.14 137.906 244.712 139.232 244.712 141.894C244.712 143.229 244.328 144.283 243.551 145.047Z" fill="#044860"/>
<path d="M253.027 135.903L247.664 148.201H249.848L251.018 145.478H256.591L257.778 148.201H259.997L254.634 135.903H253.027ZM251.787 143.651L253.796 138.978L255.804 143.651H251.787Z" fill="#044860"/>
<path d="M263.927 135.903H261.813V148.201H270.862V146.198H263.927V135.903Z" fill="#044860"/>
<path d="M274.984 135.903H272.871V148.201H281.919V146.198H274.984V135.903Z" fill="#044860"/>
<path d="M288.051 135.903L282.688 148.201H284.871L286.042 145.478H291.614L292.802 148.201H295.02L289.658 135.903H288.051ZM286.81 143.651L288.819 138.978L290.828 143.651H286.81Z" fill="#044860"/>
<path d="M304.156 141.815C303.597 141.587 302.995 141.376 302.34 141.182C301.685 140.989 301.082 140.831 300.523 140.708C299.964 140.585 299.501 140.401 299.125 140.146C298.75 139.891 298.566 139.575 298.566 139.188C298.566 138.705 298.811 138.345 299.3 138.108C299.789 137.871 300.392 137.748 301.117 137.748C302.514 137.748 303.728 138.178 304.75 139.03L305.903 137.519C304.759 136.351 303.187 135.763 301.169 135.763C299.781 135.763 298.636 136.096 297.737 136.773C296.837 137.449 296.383 138.266 296.383 139.241C296.383 139.847 296.523 140.374 296.802 140.813C297.082 141.253 297.44 141.595 297.885 141.841C298.331 142.087 298.82 142.298 299.353 142.465C299.885 142.632 300.427 142.781 300.96 142.904C301.492 143.027 301.981 143.159 302.427 143.308C302.872 143.458 303.23 143.66 303.51 143.914C303.789 144.169 303.929 144.485 303.929 144.863C303.929 145.329 303.728 145.698 303.318 145.961C302.907 146.225 302.34 146.356 301.606 146.356C299.833 146.356 298.401 145.768 297.291 144.599L296.034 146.093C296.566 146.734 297.335 147.27 298.322 147.7C299.309 148.131 300.339 148.342 301.414 148.342C302.733 148.342 303.842 147.999 304.75 147.323C305.659 146.646 306.113 145.768 306.113 144.705C306.113 144.002 305.929 143.405 305.554 142.904C305.178 142.403 304.715 142.043 304.156 141.815Z" fill="#044860"/>
<path d="M317.327 135.903L311.965 148.201H314.148L315.318 145.478H320.891L322.079 148.201H324.297L318.934 135.903H317.327ZM316.087 143.651L318.096 138.978L320.105 143.651H316.087Z" fill="#044860"/>
<path d="M335.302 137.704C334.778 137.133 334.062 136.694 333.145 136.377C332.228 136.061 331.162 135.903 329.939 135.903H326.114V148.201H329.712C332.079 148.201 333.852 147.621 335.04 146.453C336.228 145.285 336.822 143.765 336.822 141.894C336.822 141.051 336.699 140.286 336.455 139.592C336.21 138.899 335.826 138.275 335.302 137.704ZM333.459 145.047C332.682 145.812 331.485 146.198 329.869 146.198H328.227V137.906H329.904C333.049 137.906 334.621 139.232 334.621 141.894C334.621 143.229 334.236 144.283 333.459 145.047Z" fill="#044860"/>
<path d="M348.421 137.704C347.896 137.133 347.18 136.694 346.263 136.377C345.346 136.061 344.281 135.903 343.058 135.903H339.232V148.201H342.831C345.198 148.201 346.971 147.621 348.159 146.453C349.346 145.285 349.94 143.765 349.94 141.894C349.94 141.051 349.818 140.286 349.573 139.592C349.329 138.899 348.945 138.275 348.421 137.704ZM346.578 145.047C345.8 145.812 344.604 146.198 342.988 146.198H341.346V137.906H343.023C346.167 137.906 347.739 139.232 347.739 141.894C347.739 143.229 347.355 144.283 346.578 145.047Z" fill="#044860"/>
<path d="M354.465 135.903H352.351V148.201H354.465V135.903Z" fill="#044860"/>
<path d="M363.321 146.304C362.063 146.304 361.041 145.917 360.255 145.135C359.469 144.354 359.076 143.326 359.076 142.052C359.076 140.778 359.452 139.733 360.212 138.96C360.971 138.187 361.976 137.801 363.233 137.801C364.587 137.801 365.688 138.275 366.535 139.224L367.932 137.888C367.504 137.256 366.858 136.746 366.011 136.351C365.164 135.956 364.203 135.763 363.129 135.763C361.268 135.763 359.757 136.36 358.604 137.563C357.452 138.767 356.875 140.26 356.875 142.052C356.875 143.958 357.443 145.487 358.578 146.629C359.714 147.771 361.242 148.342 363.164 148.342C364.212 148.342 365.172 148.14 366.055 147.735C366.937 147.331 367.627 146.769 368.125 146.058L366.884 144.687C365.985 145.768 364.797 146.304 363.321 146.304Z" fill="#044860"/>
<path d="M369.234 137.906H373.348V148.201H375.461V137.906H379.566V135.903H369.234V137.906Z" fill="#044860"/>
<path d="M383.523 135.903H381.409V148.201H383.523V135.903Z" fill="#044860"/>
<path d="M392.196 135.763C390.44 135.763 388.955 136.369 387.75 137.581C386.545 138.793 385.942 140.286 385.942 142.052C385.942 143.818 386.545 145.355 387.759 146.55C388.973 147.744 390.449 148.342 392.196 148.342C393.943 148.342 395.419 147.744 396.633 146.541C397.847 145.337 398.449 143.844 398.449 142.052C398.449 140.26 397.847 138.749 396.641 137.555C395.436 136.36 393.951 135.763 392.196 135.763ZM395.087 145.118C394.309 145.908 393.349 146.304 392.196 146.304C391.043 146.304 390.126 145.908 389.331 145.109C388.536 144.31 388.143 143.291 388.143 142.052C388.143 140.813 388.536 139.777 389.331 138.986C390.126 138.196 391.078 137.801 392.196 137.801C393.314 137.801 394.257 138.196 395.052 138.995C395.847 139.795 396.248 140.813 396.248 142.052C396.248 143.291 395.864 144.327 395.087 145.118Z" fill="#044860"/>
<path d="M409.245 144.318L402.493 135.903H400.851V148.201H402.921V139.821L409.664 148.201H411.306V135.903H409.245V144.318Z" fill="#044860"/>
<path d="M424.896 146.304C423.638 146.304 422.616 145.917 421.83 145.135C421.044 144.354 420.651 143.326 420.651 142.052C420.651 140.778 421.027 139.733 421.787 138.96C422.547 138.187 423.551 137.801 424.809 137.801C426.163 137.801 427.263 138.275 428.11 139.224L429.508 137.888C429.08 137.256 428.433 136.746 427.586 136.351C426.739 135.956 425.778 135.763 424.704 135.763C422.844 135.763 421.333 136.36 420.18 137.563C419.027 138.767 418.45 140.26 418.45 142.052C418.45 143.958 419.018 145.487 420.153 146.629C421.289 147.771 422.817 148.342 424.739 148.342C425.787 148.342 426.748 148.14 427.63 147.735C428.512 147.331 429.202 146.769 429.7 146.058L428.46 144.687C427.56 145.768 426.372 146.304 424.896 146.304Z" fill="#044860"/>
<path d="M433.901 142.93H440.425V140.998H433.901V137.906H440.879V135.903H431.787V148.201H441.054V146.198H433.901V142.93Z" fill="#044860"/>
<path d="M452.05 144.318L445.308 135.903H443.666V148.201H445.727V139.821L452.478 148.201H454.12V135.903H452.05V144.318Z" fill="#044860"/>
<path d="M455.963 137.906H460.068V148.201H462.182V137.906H466.295V135.903H455.963V137.906Z" fill="#044860"/>
<path d="M470.252 142.93H476.768V140.998H470.252V137.906H477.23V135.903H468.138V148.201H477.405V146.198H470.252V142.93Z" fill="#044860"/>
<path d="M486.952 143.282C487.764 143.045 488.419 142.605 488.908 141.964C489.397 141.323 489.642 140.576 489.642 139.733C489.642 139.206 489.563 138.723 489.415 138.292C489.266 137.862 489.013 137.458 488.672 137.089C488.332 136.72 487.834 136.43 487.179 136.219C486.524 136.009 485.738 135.903 484.82 135.903H480.017V148.201H482.13V143.686H484.716L488.052 148.201H490.62L486.952 143.282ZM484.873 141.683H482.13V137.906H484.768C485.746 137.906 486.436 138.064 486.838 138.38C487.24 138.696 487.441 139.144 487.441 139.733C487.441 140.322 487.214 140.822 486.759 141.165C486.305 141.507 485.676 141.683 484.873 141.683Z" fill="#044860"/>
</svg>
