<svg width="645" height="300" viewBox="0 0 645 300" fill="none" xmlns="http://www.w3.org/2000/svg">
<rect width="645" height="300" fill="white"/>
<path d="M264.186 222.592H119.864V225.092H264.186V222.592Z" fill="#F9AA19"/>
<path d="M525.657 222.592H382.058V225.092H525.657V222.592Z" fill="#F9AA19"/>
<path d="M278.595 230V218.334H283.351C284.3 218.334 285.115 218.442 285.779 218.659C286.443 218.876 286.947 219.176 287.291 219.567C287.636 219.959 287.879 220.359 288.022 220.775C288.165 221.192 288.241 221.659 288.241 222.167C288.241 222.675 288.157 223.134 287.98 223.575C287.804 224.017 287.535 224.417 287.174 224.792C286.812 225.167 286.3 225.459 285.645 225.675C284.989 225.892 284.216 226 283.334 226H280.628V230H278.595ZM280.628 220.217V224.117H283.3C285.182 224.117 286.123 223.459 286.123 222.15C286.123 220.842 285.224 220.217 283.418 220.217H280.628Z" fill="#044860"/>
<path d="M290.577 218.334H292.61V230H290.577V218.334Z" fill="#044860"/>
<path d="M304.02 230L297.533 222.05V230H295.551V218.334H297.13L303.616 226.317V218.334H305.599V230H304.02Z" fill="#044860"/>
<path d="M308.54 218.334H317.278V220.234H310.573V223.167H316.841V225H310.573V228.1H317.446V230H308.54V218.334Z" fill="#044860"/>
<path d="M323.353 218.334H333.284V220.234H329.335V230H327.302V220.234H323.353V218.334Z" fill="#044860"/>
<path d="M335.065 230V218.334H339.686C340.569 218.334 341.325 218.434 341.955 218.634C342.585 218.834 343.064 219.109 343.392 219.459C343.719 219.809 343.963 220.192 344.106 220.6C344.249 221.009 344.324 221.467 344.324 221.967C344.324 222.767 344.089 223.475 343.619 224.084C343.148 224.692 342.518 225.109 341.737 225.334L345.265 230H342.795L339.586 225.717H337.099V230H335.065ZM337.107 220.234V223.817H339.745C340.518 223.817 341.123 223.65 341.56 223.325C341.997 223 342.215 222.542 342.215 221.967C342.215 221.392 342.022 220.984 341.636 220.684C341.249 220.384 340.585 220.234 339.644 220.234H337.107Z" fill="#044860"/>
<path d="M347.139 218.334H355.877V220.234H349.172V223.167H355.44V225H349.172V228.1H356.045V230H347.139V218.334Z" fill="#044860"/>
<path d="M358.557 218.334H367.296V220.234H360.591V223.167H366.859V225H360.591V228.1H367.464V230H358.557V218.334Z" fill="#044860"/>
<path d="M322.202 148.504C300.365 148.504 282.603 130.897 282.603 109.248C282.603 87.5991 300.365 70 322.202 70C344.039 70 361.775 87.6074 361.775 109.256C361.775 130.905 344.022 148.513 322.202 148.513V148.504ZM322.202 73.1332C302.104 73.1332 285.762 89.3407 285.762 109.256C285.762 129.172 302.113 145.379 322.202 145.379C342.291 145.379 358.616 129.172 358.616 109.256C358.616 89.3407 342.274 73.1332 322.202 73.1332Z" fill="#044860"/>
<path d="M334.654 129.589L322.681 123.456C322.529 123.381 322.361 123.339 322.193 123.339C322.025 123.339 321.857 123.381 321.706 123.456L309.733 129.589C309.229 129.847 309.019 130.455 309.254 130.972C309.49 131.488 310.094 131.73 310.624 131.513L321.807 127.214C321.933 127.164 322.067 127.139 322.202 127.139C322.336 127.139 322.471 127.164 322.597 127.214L333.78 131.513C334.309 131.73 334.914 131.488 335.149 130.972C335.385 130.455 335.175 129.847 334.67 129.589H334.654Z" fill="#F9AA19"/>
<path d="M350.71 108.19L333.133 107.398C332.091 107.348 331.73 106.006 332.604 105.456L347.433 96.032C347.912 95.732 348.063 95.107 347.786 94.6154C347.5 94.1237 346.879 93.9404 346.374 94.1987L330.73 102.223C329.806 102.698 328.814 101.715 329.293 100.798L337.393 85.2825C337.653 84.7826 337.477 84.1659 336.981 83.8826H336.964C336.468 83.591 335.838 83.741 335.536 84.2159L326.042 98.9318C325.479 99.7985 324.126 99.4401 324.084 98.4152L323.269 80.9578C323.244 80.3911 322.773 79.9495 322.202 79.9495H322.193C321.622 79.9495 321.152 80.3911 321.126 80.9578L320.32 98.4069C320.269 99.4401 318.917 99.7984 318.362 98.9235L308.868 84.2076C308.557 83.7326 307.927 83.5826 307.439 83.8659H307.423C306.935 84.1576 306.75 84.7742 307.011 85.2742L315.119 100.79C315.598 101.707 314.606 102.69 313.682 102.215L298.046 94.1821C297.542 93.9238 296.92 94.0987 296.634 94.5904C296.349 95.0904 296.5 95.7153 296.979 96.0236L311.808 105.448C312.682 106.006 312.321 107.348 311.279 107.39L293.694 108.181C293.122 108.206 292.677 108.673 292.677 109.24C292.677 109.815 293.122 110.273 293.694 110.306L311.279 111.106C312.321 111.156 312.682 112.498 311.8 113.048L296.97 122.464C296.492 122.772 296.34 123.397 296.626 123.881V123.897C296.92 124.381 297.542 124.564 298.046 124.306L321.723 112.148C322.034 111.989 322.395 111.989 322.706 112.148L346.383 124.306C346.887 124.564 347.517 124.381 347.794 123.889C348.072 123.397 347.92 122.772 347.442 122.472L332.612 113.056C331.738 112.498 332.099 111.156 333.141 111.115L350.718 110.315C351.29 110.29 351.735 109.823 351.735 109.256C351.735 108.681 351.29 108.223 350.718 108.19H350.71Z" fill="#F9AA19"/>
<path d="M350.794 185.986C352.046 184.561 352.676 182.844 352.676 180.894C352.676 175.361 349.055 172.561 341.905 172.561H331.242V200.027H335.259V189.46H341.972L349.987 199.927L350.055 200.018H354.978L346.206 188.669C348.08 188.219 349.618 187.311 350.786 185.977L350.794 185.986ZM335.267 176.311H341.787C346.358 176.311 348.584 177.811 348.584 180.894C348.584 182.369 348.013 183.511 346.837 184.386C345.652 185.261 344.039 185.711 342.022 185.711H335.267V176.311Z" fill="#F9AA19"/>
<path d="M361.624 187.911H376.588V184.236H361.624V176.311H377.672V172.553H357.6V200.018H378.025V196.268H361.624V187.911Z" fill="#F9AA19"/>
<path d="M403.525 192.994C401.408 195.343 398.669 196.535 395.384 196.535C392.3 196.535 389.779 195.593 387.897 193.735C386.007 191.877 385.049 189.369 385.049 186.294C385.049 183.219 385.94 180.736 387.704 178.861C389.46 176.994 391.905 176.044 394.955 176.044C398.005 176.044 400.702 177.136 402.87 179.294L403.038 179.461L405.651 176.953L405.525 176.786C404.517 175.453 403.071 174.345 401.215 173.495C399.366 172.645 397.232 172.22 394.871 172.22C390.704 172.22 387.292 173.578 384.73 176.244C382.167 178.911 380.873 182.294 380.873 186.294C380.873 190.552 382.176 194.002 384.755 196.543C387.326 199.085 390.83 200.368 395.148 200.368C397.375 200.368 399.484 199.927 401.408 199.052C403.34 198.177 404.861 196.993 405.92 195.527L406.029 195.368L403.702 192.794L403.525 192.994Z" fill="#F9AA19"/>
<path d="M420.691 172.211C416.758 172.211 413.389 173.578 410.684 176.269C407.978 178.961 406.609 182.336 406.609 186.286C406.609 190.235 407.978 193.71 410.684 196.36C413.389 199.018 416.75 200.36 420.691 200.36C424.631 200.36 427.95 199.002 430.655 196.318C433.361 193.635 434.73 190.26 434.73 186.277C434.73 182.294 433.361 178.853 430.655 176.203C427.95 173.545 424.597 172.203 420.691 172.203V172.211ZM420.691 196.535C417.968 196.535 415.616 195.552 413.692 193.619C411.768 191.685 410.785 189.219 410.785 186.286C410.785 183.352 411.759 180.861 413.666 178.936C415.582 177.011 417.943 176.036 420.682 176.036C423.421 176.036 425.715 177.011 427.647 178.936C429.571 180.861 430.555 183.336 430.555 186.286C430.555 189.235 429.605 191.71 427.723 193.635C425.849 195.56 423.48 196.535 420.682 196.535H420.691Z" fill="#F9AA19"/>
<path d="M448.829 194.277L438.436 172.695L438.377 172.553H434.033L447.258 199.885L447.325 200.018H450.19L462.701 172.895L462.852 172.553H458.626L448.829 194.277Z" fill="#F9AA19"/>
<path d="M468.977 187.911H483.941V184.236H468.977V176.311H485.025V172.553H464.952V200.018H485.378V196.268H468.977V187.911Z" fill="#F9AA19"/>
<path d="M509.265 185.986C510.517 184.561 511.155 182.844 511.155 180.894C511.155 175.361 507.534 172.561 500.384 172.561H489.73V200.027H493.746V189.46H500.46L508.475 199.927L508.542 200.018H513.466L504.694 188.669C506.568 188.219 508.105 187.311 509.273 185.977L509.265 185.986ZM493.729 176.311H500.249C504.82 176.311 507.047 177.811 507.047 180.894C507.047 182.369 506.475 183.511 505.299 184.386C504.114 185.261 502.501 185.711 500.485 185.711H493.729V176.311Z" fill="#F9AA19"/>
<path d="M532.312 172.553L523.926 185.419L515.667 172.553H510.777L521.818 189.635V200.018H525.842V189.635L537 172.553H532.312Z" fill="#F9AA19"/>
<path d="M131.022 189.419V194.344C129.148 195.793 126.796 196.535 124.031 196.535C120.864 196.535 118.251 195.602 116.268 193.769C114.293 191.935 113.285 189.419 113.285 186.294C113.285 183.169 114.26 180.744 116.167 178.869C118.083 176.994 120.628 176.044 123.746 176.044C127.123 176.044 129.761 177.028 131.601 178.978L131.77 179.161L134.374 176.561L134.231 176.394C131.929 173.628 128.316 172.22 123.502 172.22C119.41 172.22 115.932 173.595 113.167 176.294C110.403 179.003 109 182.369 109 186.294C109 190.51 110.42 193.944 113.209 196.51C115.999 199.068 119.612 200.368 123.939 200.368C126.006 200.368 128.064 199.993 130.039 199.252C132.022 198.51 133.66 197.485 134.903 196.21L134.971 196.143V185.744H123.3V189.419H131.022Z" fill="#044860"/>
<path d="M159.261 187.827C159.261 190.535 158.606 192.685 157.32 194.227C156.043 195.752 154.153 196.535 151.716 196.535C149.279 196.535 147.355 195.752 145.793 194.194C144.238 192.644 143.448 190.435 143.448 187.636V172.553H139.331V188.136C139.331 191.994 140.524 195.018 142.885 197.143C145.238 199.26 148.204 200.327 151.716 200.327C154.909 200.327 157.673 199.318 159.942 197.318C162.219 195.318 163.378 192.302 163.378 188.369V172.553H159.261V187.827Z" fill="#044860"/>
<path d="M180.266 172.478H177.082L164.605 200.018H168.848L171.923 193.194H185.316L188.433 200.018H192.752L180.333 172.62L180.266 172.478ZM173.494 189.635L178.603 178.203L183.745 189.635H173.494Z" fill="#044860"/>
<path d="M215.807 185.986C217.092 184.561 217.748 182.844 217.748 180.894C217.748 175.361 214.026 172.561 206.682 172.561H195.734V200.027H199.851V189.46H206.766L215.076 200.027H220.125L211.11 188.685C213.034 188.236 214.614 187.327 215.815 185.994L215.807 185.986ZM199.843 176.311H206.556C211.261 176.311 213.547 177.811 213.547 180.894C213.547 182.369 212.958 183.511 211.749 184.386C210.53 185.261 208.867 185.711 206.8 185.711H199.851V176.319L199.843 176.311Z" fill="#044860"/>
<path d="M244.441 176.561C243.248 175.303 241.593 174.311 239.534 173.611C237.484 172.911 235.039 172.553 232.283 172.553H223.411V200.018H231.88C237.14 200.018 241.173 198.693 243.87 196.077C246.567 193.46 247.936 190.035 247.936 185.902C247.936 184.061 247.65 182.336 247.079 180.794C246.516 179.244 245.617 177.819 244.432 176.569L244.441 176.561ZM232.124 196.268H227.528V176.311H232.199C236.215 176.311 239.173 177.178 240.979 178.886C242.786 180.594 243.702 182.952 243.702 185.902C243.702 189.06 242.744 191.602 240.853 193.46C238.963 195.318 236.022 196.26 232.115 196.26L232.124 196.268Z" fill="#044860"/>
<path d="M256.565 172.553H252.448V200.018H256.565V172.553Z" fill="#044860"/>
<path d="M275.218 172.478H272.033L259.556 200.018H263.799L266.874 193.194H280.267L283.384 200.018H287.703L275.285 172.62L275.218 172.478ZM268.446 189.635L273.554 178.203L278.696 189.635H268.446Z" fill="#044860"/>
<path d="M310.649 172.553V192.794L293.904 172.553H290.677V200.018H294.677V179.861L311.456 200.018H314.648V172.553H310.649Z" fill="#044860"/>
</svg>
