<svg width="645" height="240" viewBox="0 0 645 240" fill="none" xmlns="http://www.w3.org/2000/svg">
<rect width="645" height="240" fill="white"/>
<path d="M99.3162 155C80.3982 155 65 139.522 65 120.496C65 101.469 80.3982 86 99.3162 86C118.234 86 133.606 101.478 133.606 120.496C133.606 139.513 118.225 154.991 99.3162 154.991V155ZM99.3162 89.3029C82.2061 89.3029 68.284 103.296 68.284 120.496C68.284 137.695 82.2061 151.697 99.3162 151.697C116.426 151.697 130.331 137.704 130.331 120.496C130.331 103.287 116.417 89.3029 99.3162 89.3029Z" fill="#044860"/>
<path d="M110.024 138.222L99.7267 132.881C99.5956 132.811 99.4559 132.776 99.3074 132.776C99.1677 132.776 99.0192 132.811 98.8882 132.881L88.5907 138.222C88.154 138.451 87.9706 138.978 88.1802 139.426C88.3811 139.874 88.9051 140.084 89.3593 139.9L98.9668 136.149C99.0716 136.105 99.1851 136.079 99.2987 136.079C99.4122 136.079 99.5258 136.105 99.6306 136.149L109.238 139.9C109.692 140.084 110.216 139.874 110.417 139.426C110.618 138.978 110.435 138.451 110.007 138.222H110.024Z" fill="#F9AA19"/>
<path d="M123.824 119.573L108.714 118.879C107.823 118.835 107.509 117.667 108.26 117.184L121.003 108.971C121.413 108.707 121.544 108.163 121.3 107.741C121.055 107.311 120.522 107.152 120.086 107.381L106.644 114.382C105.849 114.795 105.002 113.943 105.413 113.143L112.374 99.6155C112.601 99.1763 112.443 98.6405 112.024 98.3945H112.007C111.579 98.1398 111.037 98.2715 110.775 98.6844L102.618 111.509C102.137 112.265 100.976 111.949 100.932 111.053L100.224 95.8383C100.198 95.3464 99.7965 94.9599 99.3074 94.9599C98.8183 94.9599 98.4165 95.3464 98.3903 95.8383L97.6916 111.053C97.6479 111.949 96.4863 112.265 96.0059 111.509L87.8483 98.6844C87.5863 98.2715 87.0448 98.1398 86.6168 98.3857H86.6081C86.1889 98.6405 86.0316 99.1763 86.2587 99.6155L93.2198 113.134C93.6303 113.934 92.7831 114.786 91.9883 114.373L78.5465 107.372C78.1098 107.144 77.5771 107.302 77.3325 107.723C77.088 108.154 77.219 108.707 77.6295 108.971L90.3725 117.184C91.1236 117.667 90.8092 118.835 89.9183 118.879L74.7996 119.573C74.3105 119.6 73.9262 120.004 73.9262 120.496C73.9262 120.996 74.3105 121.4 74.7996 121.418L89.9183 122.121C90.8092 122.165 91.1236 123.333 90.3725 123.816L77.6295 132.02C77.219 132.284 77.088 132.829 77.3325 133.259C77.5771 133.698 78.1098 133.856 78.5465 133.628L98.8969 123.034C99.1589 122.894 99.4734 122.894 99.7354 123.034L120.086 133.628C120.522 133.856 121.055 133.698 121.3 133.268C121.544 132.837 121.405 132.293 120.994 132.029L108.251 123.825C107.5 123.342 107.814 122.173 108.705 122.129L123.815 121.427C124.304 121.4 124.689 120.996 124.689 120.504C124.689 120.004 124.304 119.6 123.815 119.582" fill="#F9AA19"/>
<path d="M387.436 106.599C388.737 105.097 389.401 103.287 389.401 101.232C389.401 95.3991 385.636 92.4476 378.204 92.4476H367.129V121.4H371.304V110.262H378.282L386.615 121.295L386.684 121.392H391.803L382.684 109.427C384.632 108.953 386.23 107.996 387.444 106.59L387.436 106.599ZM371.295 96.4005H378.073C382.824 96.4005 385.139 97.9817 385.139 101.232C385.139 102.787 384.545 103.99 383.322 104.912C382.09 105.835 380.405 106.309 378.317 106.309H371.295V96.4005Z" fill="#F9AA19"/>
<path d="M398.685 108.637H414.24V104.763H398.685V96.4005H415.376V92.4476H394.51V121.4H415.734V117.439H398.685V108.637Z" fill="#F9AA19"/>
<path d="M442.251 113.986C440.05 116.464 437.202 117.72 433.787 117.72C430.582 117.72 427.962 116.727 426.005 114.768C424.049 112.809 423.044 110.165 423.044 106.924C423.044 103.683 423.97 101.065 425.804 99.0885C427.63 97.1208 430.171 96.1194 433.342 96.1194C436.512 96.1194 439.316 97.2701 441.569 99.5365L441.744 99.7121L444.46 97.0681L444.329 96.8924C443.281 95.4869 441.779 94.3186 439.849 93.4227C437.927 92.5267 435.709 92.0787 433.255 92.0787C428.922 92.0787 425.376 93.5105 422.712 96.3214C420.049 99.1324 418.704 102.699 418.704 106.915C418.704 111.404 420.057 115.041 422.739 117.72C425.411 120.399 429.053 121.752 433.543 121.752C435.857 121.752 438.05 121.286 440.05 120.364C442.058 119.441 443.639 118.194 444.74 116.648L444.853 116.481L442.434 113.767L442.251 113.978V113.986Z" fill="#F9AA19"/>
<path d="M460.094 92.0787C456.007 92.0787 452.504 93.5193 449.692 96.3566C446.88 99.1939 445.456 102.751 445.456 106.915C445.456 111.079 446.88 114.742 449.692 117.535C452.504 120.337 455.998 121.752 460.094 121.752C464.191 121.752 467.641 120.32 470.453 117.491C473.265 114.663 474.689 111.105 474.689 106.906C474.689 102.708 473.265 99.0797 470.453 96.2863C467.641 93.4841 464.156 92.0699 460.094 92.0699V92.0787ZM460.094 117.72C457.264 117.72 454.819 116.683 452.819 114.645C450.819 112.607 449.797 110.007 449.797 106.915C449.797 103.823 450.81 101.197 452.793 99.1675C454.784 97.1384 457.238 96.1106 460.086 96.1106C462.933 96.1106 465.317 97.1384 467.326 99.1675C469.326 101.197 470.348 103.806 470.348 106.915C470.348 110.025 469.361 112.634 467.405 114.663C465.457 116.692 462.994 117.711 460.086 117.711L460.094 117.72Z" fill="#F9AA19"/>
<path d="M489.336 115.348L478.541 92.5882L478.471 92.4476H473.955L487.773 121.4H490.76L503.756 92.799L503.922 92.4476H499.529L489.336 115.348Z" fill="#F9AA19"/>
<path d="M510.28 108.637H525.836V104.763H510.28V96.4005H526.971V92.4476H506.105V121.4H527.338V117.439H510.28V108.637Z" fill="#F9AA19"/>
<path d="M552.16 106.599C553.462 105.097 554.125 103.287 554.125 101.232C554.125 95.3991 550.361 92.4476 542.928 92.4476H531.853V121.4H536.028V110.262H543.007L551.339 121.295L551.409 121.392H556.527L547.409 109.427C549.357 108.953 550.955 107.996 552.169 106.59L552.16 106.599ZM536.02 96.4005H542.797C547.549 96.4005 549.863 97.9817 549.863 101.232C549.863 102.787 549.269 103.99 548.046 104.912C546.815 105.835 545.129 106.309 543.042 106.309H536.02V96.4005Z" fill="#F9AA19"/>
<path d="M576.118 92.4476L567.41 106.01L558.885 92.5618L558.815 92.4476H553.732L565.218 110.446V121.4H569.392V110.446L581 92.4476H576.118Z" fill="#F9AA19"/>
<path d="M196.194 140.594H157.852V143.229H196.194V140.594Z" fill="#F9AA19"/>
<path d="M569.943 140.594H531.006V143.229H569.943V140.594Z" fill="#F9AA19"/>
<path d="M160.21 110.218H168.01V115.418C166.114 116.947 163.739 117.729 160.944 117.729C157.738 117.729 155.101 116.745 153.092 114.812C151.092 112.88 150.079 110.227 150.079 106.924C150.079 103.621 151.057 101.065 152.996 99.0973C154.935 97.1208 157.511 96.1282 160.656 96.1282C164.071 96.1282 166.734 97.1647 168.595 99.2115L168.778 99.4135L171.416 96.664L171.276 96.4884C168.944 93.5632 165.293 92.0875 160.411 92.0875C156.262 92.0875 152.742 93.5369 149.948 96.3917C147.153 99.2466 145.738 102.787 145.738 106.933C145.738 111.378 147.17 114.997 150 117.702C152.821 120.408 156.472 121.778 160.856 121.778C162.953 121.778 165.031 121.383 167.031 120.601C169.04 119.819 170.691 118.739 171.949 117.386L172.019 117.316V106.362H160.201V110.236L160.21 110.218Z" fill="#044860"/>
<path d="M195.967 108.549C195.967 111.404 195.304 113.67 194.002 115.304C192.71 116.912 190.806 117.729 188.334 117.729C185.862 117.729 183.923 116.903 182.351 115.269C180.779 113.635 179.975 111.307 179.975 108.356V92.4476H175.8V108.874C175.8 112.941 177.006 116.13 179.399 118.361C181.774 120.592 184.788 121.717 188.334 121.717C191.565 121.717 194.36 120.645 196.666 118.546C198.972 116.429 200.142 113.257 200.142 109.111V92.4476H195.967V108.549Z" fill="#044860"/>
<path d="M224.86 121.4H229.244L216.623 92.3686H213.383L200.911 121.049L200.762 121.4H205.068L208.178 114.206H221.715L224.868 121.4H224.86ZM220.117 110.446H209.767L214.92 98.4121L220.117 110.446Z" fill="#044860"/>
<path d="M247.193 109.436C249.14 108.962 250.739 108.004 251.953 106.599C253.254 105.097 253.918 103.287 253.918 101.232C253.918 95.3991 250.154 92.4476 242.721 92.4476H231.637V121.4H235.812V110.262H242.791L251.193 121.4H256.311L247.193 109.436ZM235.821 96.4005H242.599C247.35 96.4005 249.664 97.9817 249.664 101.232C249.664 102.787 249.07 103.99 247.848 104.912C246.616 105.835 244.939 106.309 242.843 106.309H235.821V96.4005Z" fill="#044860"/>
<path d="M279.745 117.237C282.47 114.478 283.858 110.868 283.858 106.511C283.858 104.57 283.57 102.751 282.994 101.126C282.417 99.4926 281.518 97.9905 280.312 96.6728C279.107 95.3464 277.43 94.3011 275.343 93.5544C273.264 92.8166 270.792 92.4388 268.006 92.4388H259.027V121.392H267.604C272.932 121.392 277.011 119.995 279.745 117.237ZM267.849 117.439H263.211V96.4005H267.927C271.989 96.4005 274.976 97.3141 276.801 99.1148C278.627 100.916 279.552 103.402 279.552 106.511C279.552 109.84 278.583 112.52 276.679 114.487C274.766 116.446 271.797 117.439 267.849 117.439Z" fill="#044860"/>
<path d="M291.972 92.4476H287.797V121.4H291.972V92.4476Z" fill="#044860"/>
<path d="M306.995 92.3686L294.523 121.049L294.374 121.4H298.68L301.789 114.206H315.327L318.48 121.4H322.865L310.244 92.3686H306.995ZM313.729 110.446H303.379L308.532 98.4121L313.729 110.446Z" fill="#044860"/>
<path d="M329.31 100.16L346.281 121.4H349.512V92.4476H345.46V113.758L328.533 92.4476H325.258V121.4H329.31V100.16Z" fill="#044860"/>
<path d="M215.855 145.285L211.558 136.052H209.269L215.086 148.359H216.588L222.108 136.052H219.872L215.855 145.285Z" fill="#044860"/>
<path d="M225.951 136.052H223.838V148.35H225.951V136.052Z" fill="#044860"/>
<path d="M237.9 142.122C238.389 141.481 238.633 140.734 238.633 139.891C238.633 139.364 238.555 138.881 238.406 138.451C238.258 138.02 238.004 137.616 237.664 137.247C237.323 136.878 236.825 136.588 236.17 136.377C235.515 136.167 234.729 136.061 233.812 136.061H229.008V148.359H231.122V143.844H233.707L237.044 148.359H239.611L235.943 143.44C236.755 143.203 237.411 142.764 237.9 142.122ZM233.864 141.841H231.122V138.064H233.76C234.738 138.064 235.428 138.222 235.83 138.538C236.231 138.855 236.432 139.303 236.432 139.891C236.432 140.48 236.205 140.98 235.751 141.323C235.297 141.666 234.668 141.841 233.864 141.841Z" fill="#044860"/>
<path d="M239.524 138.055H243.629V148.359H245.743V138.055H249.848V136.052H239.524V138.055Z" fill="#044860"/>
<path d="M259.927 142.825C259.927 143.941 259.674 144.828 259.176 145.495C258.678 146.163 257.936 146.497 256.957 146.497C255.979 146.497 255.202 146.154 254.599 145.469C253.997 144.784 253.691 143.879 253.691 142.755V136.061H251.577V143.018C251.577 144.749 252.092 146.093 253.123 147.05C254.154 148.008 255.429 148.482 256.957 148.482C257.621 148.482 258.241 148.377 258.826 148.175C259.412 147.973 259.944 147.665 260.442 147.252C260.94 146.839 261.324 146.286 261.613 145.575C261.901 144.863 262.041 144.046 262.041 143.124V136.061H259.927V142.825Z" fill="#044860"/>
<path d="M269.115 136.052L263.752 148.35H265.936L267.106 145.627H272.679L273.867 148.35H276.085L270.722 136.052H269.115ZM267.875 143.809L269.884 139.136L271.893 143.809H267.875Z" fill="#044860"/>
<path d="M280.015 136.052H277.902V148.359H286.95V146.356H280.015V136.052Z" fill="#044860"/>
<path d="M298.881 146.462C297.623 146.462 296.601 146.075 295.815 145.293C295.029 144.512 294.636 143.484 294.636 142.21C294.636 140.936 295.012 139.891 295.772 139.118C296.531 138.345 297.536 137.959 298.794 137.959C300.147 137.959 301.248 138.433 302.095 139.382L303.492 138.046C303.064 137.414 302.418 136.905 301.571 136.509C300.724 136.114 299.763 135.921 298.689 135.921C296.828 135.921 295.317 136.518 294.164 137.721C293.012 138.925 292.435 140.418 292.435 142.21C292.435 144.116 293.003 145.645 294.138 146.787C295.274 147.929 296.802 148.5 298.724 148.5C299.772 148.5 300.732 148.298 301.615 147.894C302.497 147.489 303.187 146.927 303.685 146.216L302.444 144.845C301.545 145.926 300.357 146.462 298.881 146.462Z" fill="#044860"/>
<path d="M310.934 135.912C309.178 135.912 307.694 136.518 306.488 137.73C305.283 138.942 304.68 140.436 304.68 142.201C304.68 143.967 305.283 145.504 306.497 146.699C307.711 147.894 309.187 148.491 310.934 148.491C312.681 148.491 314.157 147.894 315.371 146.69C316.585 145.487 317.187 143.993 317.187 142.201C317.187 140.409 316.585 138.899 315.38 137.704C314.174 136.509 312.689 135.912 310.934 135.912ZM313.825 145.276C313.048 146.066 312.087 146.462 310.934 146.462C309.781 146.462 308.864 146.066 308.069 145.267C307.274 144.468 306.881 143.449 306.881 142.21C306.881 140.972 307.274 139.935 308.069 139.144C308.864 138.354 309.816 137.959 310.934 137.959C312.052 137.959 312.995 138.354 313.79 139.153C314.585 139.953 314.986 140.972 314.986 142.21C314.986 143.449 314.602 144.485 313.825 145.276Z" fill="#044860"/>
<path d="M327.826 142.825C327.826 143.941 327.572 144.828 327.074 145.495C326.577 146.163 325.834 146.497 324.856 146.497C323.878 146.497 323.1 146.154 322.498 145.469C321.895 144.784 321.589 143.879 321.589 142.755V136.061H319.476V143.018C319.476 144.749 319.991 146.093 321.022 147.05C322.052 148.008 323.328 148.482 324.856 148.482C325.52 148.482 326.14 148.377 326.725 148.175C327.31 147.973 327.843 147.665 328.341 147.252C328.839 146.839 329.223 146.286 329.511 145.575C329.799 144.863 329.939 144.046 329.939 143.124V136.061H327.826V142.825Z" fill="#044860"/>
<path d="M341.276 144.477L334.533 136.052H332.891V148.359H334.953V139.979L341.695 148.359H343.337V136.052H341.276V144.477Z" fill="#044860"/>
<path d="M353.713 141.973C353.154 141.745 352.552 141.534 351.897 141.341C351.242 141.147 350.639 140.989 350.08 140.866C349.521 140.743 349.058 140.559 348.683 140.304C348.307 140.049 348.124 139.733 348.124 139.347C348.124 138.863 348.368 138.503 348.857 138.266C349.346 138.029 349.949 137.906 350.674 137.906C352.071 137.906 353.285 138.336 354.307 139.188L355.46 137.678C354.316 136.509 352.744 135.921 350.726 135.921C349.338 135.921 348.193 136.254 347.294 136.931C346.394 137.607 345.94 138.424 345.94 139.399C345.94 140.005 346.08 140.532 346.359 140.972C346.639 141.411 346.997 141.753 347.442 141.999C347.888 142.245 348.377 142.456 348.91 142.623C349.442 142.79 349.984 142.939 350.517 143.062C351.049 143.185 351.539 143.317 351.984 143.466C352.429 143.616 352.788 143.818 353.067 144.072C353.347 144.327 353.486 144.643 353.486 145.021C353.486 145.487 353.285 145.856 352.875 146.119C352.464 146.383 351.897 146.514 351.163 146.514C349.39 146.514 347.958 145.926 346.848 144.758L345.591 146.251C346.123 146.892 346.892 147.428 347.879 147.858C348.866 148.289 349.897 148.5 350.971 148.5C352.29 148.5 353.399 148.157 354.307 147.481C355.216 146.804 355.67 145.926 355.67 144.863C355.67 144.16 355.486 143.563 355.111 143.062C354.735 142.562 354.272 142.201 353.713 141.973Z" fill="#044860"/>
<path d="M360.142 143.089H366.657V141.156H360.142V138.055H367.111V136.052H358.028V148.359H367.286V146.356H360.142V143.089Z" fill="#044860"/>
<path d="M372.02 136.052H369.906V148.359H378.955V146.356H372.02V136.052Z" fill="#044860"/>
<path d="M383.077 136.052H380.964V148.35H383.077V136.052Z" fill="#044860"/>
<path d="M394.519 144.477L387.776 136.052H386.134V148.359H388.195V139.979L394.938 148.359H396.58V136.052H394.519V144.477Z" fill="#044860"/>
<path d="M405.052 143.721H408.301V145.601C407.568 146.172 406.651 146.462 405.541 146.462C404.249 146.462 403.201 146.084 402.397 145.329C401.593 144.573 401.192 143.537 401.192 142.21C401.192 140.884 401.576 139.874 402.336 139.109C403.096 138.345 404.118 137.959 405.384 137.959C406.782 137.959 407.865 138.389 408.633 139.259L410.048 137.906C409.594 137.282 408.948 136.799 408.1 136.448C407.253 136.096 406.319 135.921 405.279 135.921C403.463 135.921 401.96 136.527 400.772 137.73C399.585 138.934 398.991 140.427 398.991 142.21C398.991 144.099 399.602 145.618 400.816 146.769C402.03 147.92 403.594 148.5 405.506 148.5C406.45 148.5 407.349 148.333 408.205 147.99C409.061 147.648 409.769 147.173 410.328 146.55V141.789H405.052V143.721Z" fill="#044860"/>
<path d="M423.271 146.462C422.014 146.462 420.992 146.075 420.206 145.293C419.42 144.512 419.027 143.484 419.027 142.21C419.027 140.936 419.402 139.891 420.162 139.118C420.922 138.345 421.926 137.959 423.184 137.959C424.538 137.959 425.638 138.433 426.486 139.382L427.883 138.046C427.455 137.414 426.809 136.905 425.962 136.509C425.114 136.114 424.154 135.921 423.079 135.921C421.219 135.921 419.708 136.518 418.555 137.721C417.402 138.925 416.826 140.418 416.826 142.21C416.826 144.116 417.393 145.645 418.529 146.787C419.664 147.929 421.193 148.5 423.114 148.5C424.162 148.5 425.123 148.298 426.005 147.894C426.887 147.489 427.577 146.927 428.075 146.216L426.835 144.845C425.935 145.926 424.748 146.462 423.271 146.462Z" fill="#044860"/>
<path d="M435.324 135.912C433.569 135.912 432.084 136.518 430.879 137.73C429.674 138.942 429.071 140.436 429.071 142.201C429.071 143.967 429.674 145.504 430.888 146.699C432.102 147.894 433.578 148.491 435.324 148.491C437.071 148.491 438.547 147.894 439.761 146.69C440.975 145.487 441.578 143.993 441.578 142.201C441.578 140.409 440.975 138.899 439.77 137.704C438.565 136.509 437.08 135.912 435.324 135.912ZM438.215 145.276C437.438 146.066 436.477 146.462 435.324 146.462C434.172 146.462 433.255 146.066 432.46 145.267C431.665 144.468 431.272 143.449 431.272 142.21C431.272 140.972 431.665 139.935 432.46 139.144C433.255 138.354 434.207 137.959 435.324 137.959C436.442 137.959 437.386 138.354 438.181 139.153C438.975 139.953 439.377 140.972 439.377 142.21C439.377 143.449 438.993 144.485 438.215 145.276Z" fill="#044860"/>
<path d="M446.102 136.052H443.989V148.359H453.037V146.356H446.102V136.052Z" fill="#044860"/>
<path d="M460.024 135.912C458.269 135.912 456.784 136.518 455.579 137.73C454.374 138.942 453.771 140.436 453.771 142.201C453.771 143.967 454.374 145.504 455.588 146.699C456.802 147.894 458.278 148.491 460.024 148.491C461.771 148.491 463.247 147.894 464.461 146.69C465.675 145.487 466.278 143.993 466.278 142.201C466.278 140.409 465.675 138.899 464.47 137.704C463.265 136.509 461.78 135.912 460.024 135.912ZM462.915 145.276C462.138 146.066 461.177 146.462 460.024 146.462C458.872 146.462 457.954 146.066 457.16 145.267C456.365 144.468 455.972 143.449 455.972 142.21C455.972 140.972 456.365 139.935 457.16 139.144C457.954 138.354 458.907 137.959 460.024 137.959C461.142 137.959 462.086 138.354 462.88 139.153C463.675 139.953 464.077 140.972 464.077 142.21C464.077 143.449 463.693 144.485 462.915 145.276Z" fill="#044860"/>
<path d="M477.58 142.122C478.069 141.481 478.314 140.734 478.314 139.891C478.314 139.364 478.235 138.881 478.086 138.451C477.938 138.02 477.685 137.616 477.344 137.247C477.003 136.878 476.506 136.588 475.851 136.377C475.195 136.167 474.409 136.061 473.492 136.061H468.689V148.359H470.802V143.844H473.388L476.724 148.359H479.292L475.623 143.44C476.436 143.203 477.091 142.764 477.58 142.122ZM473.545 141.841H470.802V138.064H473.44C474.418 138.064 475.108 138.222 475.51 138.538C475.912 138.855 476.113 139.303 476.113 139.891C476.113 140.48 475.885 140.98 475.431 141.323C474.977 141.666 474.348 141.841 473.545 141.841Z" fill="#044860"/>
<path d="M485.056 136.052L479.694 148.35H481.877L483.047 145.627H488.62L489.808 148.35H492.026L486.663 136.052H485.056ZM483.816 143.809L485.825 139.136L487.834 143.809H483.816Z" fill="#044860"/>
<path d="M503.031 137.853C502.507 137.282 501.791 136.843 500.874 136.527C499.957 136.211 498.891 136.052 497.668 136.052H493.843V148.35H497.441C499.808 148.35 501.581 147.771 502.769 146.602C503.957 145.434 504.551 143.914 504.551 142.043C504.551 141.2 504.428 140.436 504.184 139.742C503.939 139.048 503.555 138.424 503.031 137.853ZM501.188 145.206C500.411 145.97 499.214 146.356 497.598 146.356H495.956V138.064H497.633C500.778 138.064 502.35 139.39 502.35 142.052C502.35 143.387 501.965 144.441 501.188 145.206Z" fill="#044860"/>
<path d="M517.014 137.704C515.809 136.509 514.324 135.912 512.569 135.912C510.813 135.912 509.328 136.518 508.123 137.73C506.918 138.942 506.315 140.436 506.315 142.201C506.315 143.967 506.918 145.504 508.132 146.699C509.346 147.894 510.822 148.491 512.569 148.491C514.315 148.491 515.792 147.894 517.006 146.69C518.22 145.487 518.822 143.993 518.822 142.201C518.822 140.409 518.22 138.899 517.014 137.704ZM515.46 145.276C514.682 146.066 513.722 146.462 512.569 146.462C511.416 146.462 510.499 146.066 509.704 145.267C508.909 144.468 508.516 143.449 508.516 142.21C508.516 140.972 508.909 139.935 509.704 139.144C510.499 138.354 511.451 137.959 512.569 137.959C513.687 137.959 514.63 138.354 515.425 139.153C516.219 139.953 516.621 140.972 516.621 142.21C516.621 143.449 516.237 144.485 515.46 145.276Z" fill="#044860"/>
</svg>
