<svg width="645" height="240" viewBox="0 0 645 240" fill="none" xmlns="http://www.w3.org/2000/svg">
<rect width="645" height="240" fill="#083045"/>
<path d="M99.3162 155C80.3982 155 65 139.522 65 120.496C65 101.469 80.3982 86 99.3162 86C118.234 86 133.615 101.478 133.615 120.496C133.615 139.513 118.234 154.991 99.3162 154.991V155ZM99.3162 89.3029C82.2061 89.3029 68.284 103.296 68.284 120.496C68.284 137.695 82.2061 151.697 99.3162 151.697C116.426 151.697 130.331 137.704 130.331 120.496C130.331 103.287 116.417 89.3029 99.3162 89.3029Z" fill="white"/>
<path d="M110.024 138.222L99.7267 132.881C99.5956 132.811 99.4559 132.776 99.3074 132.776C99.1677 132.776 99.0192 132.811 98.8882 132.881L88.5907 138.222C88.154 138.451 87.9706 138.978 88.1802 139.426C88.3811 139.874 88.9051 140.084 89.3593 139.9L98.9668 136.149C99.0716 136.105 99.1851 136.079 99.2987 136.079C99.4122 136.079 99.5258 136.105 99.6306 136.149L109.238 139.9C109.692 140.084 110.216 139.874 110.417 139.426C110.618 138.978 110.435 138.451 110.007 138.222H110.024Z" fill="#F9AA19"/>
<path d="M123.824 119.573L108.714 118.879C107.823 118.835 107.509 117.667 108.26 117.184L121.003 108.971C121.413 108.707 121.544 108.163 121.3 107.741C121.055 107.311 120.522 107.152 120.086 107.381L106.644 114.382C105.849 114.795 105.002 113.943 105.413 113.143L112.374 99.6155C112.601 99.1763 112.443 98.6405 112.024 98.3945H112.007C111.579 98.1398 111.037 98.2715 110.775 98.6844L102.618 111.509C102.137 112.265 100.976 111.949 100.932 111.053L100.224 95.8383C100.198 95.3464 99.7965 94.9599 99.3074 94.9599C98.8183 94.9599 98.4165 95.3464 98.3903 95.8383L97.6916 111.053C97.6479 111.949 96.4863 112.265 96.0059 111.509L87.8483 98.6844C87.5863 98.2715 87.0448 98.1398 86.6168 98.3857H86.6081C86.1889 98.6405 86.0316 99.1763 86.2587 99.6155L93.2198 113.134C93.6303 113.934 92.7831 114.786 91.9883 114.373L78.5465 107.372C78.1098 107.144 77.5771 107.302 77.3325 107.723C77.088 108.154 77.219 108.707 77.6295 108.971L90.3725 117.184C91.1236 117.667 90.8092 118.835 89.9183 118.879L74.7996 119.573C74.3105 119.6 73.9262 120.004 73.9262 120.496C73.9262 120.996 74.3105 121.4 74.7996 121.418L89.9183 122.121C90.8092 122.165 91.1236 123.333 90.3725 123.816L77.6295 132.02C77.219 132.284 77.088 132.829 77.3325 133.259C77.5771 133.698 78.1098 133.856 78.5465 133.628L98.8969 123.034C99.1589 122.894 99.4734 122.894 99.7354 123.034L120.086 133.628C120.522 133.856 121.055 133.698 121.3 133.268C121.544 132.837 121.405 132.293 120.994 132.029L108.251 123.825C107.5 123.342 107.814 122.173 108.705 122.129L123.815 121.427C124.304 121.4 124.689 120.996 124.689 120.504C124.689 120.004 124.304 119.6 123.815 119.582" fill="#F9AA19"/>
<path d="M160.21 110.218H168.01V115.419C166.114 116.947 163.739 117.729 160.944 117.729C157.738 117.729 155.101 116.745 153.092 114.812C151.092 112.88 150.079 110.227 150.079 106.924C150.079 103.621 151.057 101.065 152.996 99.0974C154.935 97.121 157.511 96.1284 160.656 96.1284C164.071 96.1284 166.734 97.1649 168.595 99.2204L168.778 99.4225L171.416 96.673L171.276 96.4973C168.944 93.5722 165.293 92.0964 160.411 92.0964C156.262 92.0964 152.742 93.5458 149.948 96.4007C147.153 99.2556 145.738 102.804 145.738 106.942C145.738 111.378 147.17 115.006 150 117.711C152.821 120.417 156.481 121.787 160.856 121.787C162.953 121.787 165.031 121.392 167.031 120.61C169.04 119.828 170.691 118.748 171.949 117.395L172.019 117.325V106.371H160.201V110.245L160.21 110.218Z" fill="white"/>
<path d="M195.967 108.549C195.967 111.404 195.304 113.67 194.002 115.295C192.71 116.903 190.806 117.72 188.334 117.72C185.862 117.72 183.923 116.894 182.351 115.26C180.779 113.626 179.975 111.299 179.975 108.347V92.4476H175.8V108.874C175.8 112.941 177.006 116.13 179.399 118.361C181.783 120.592 184.788 121.717 188.334 121.717C191.565 121.717 194.36 120.645 196.666 118.546C198.972 116.429 200.142 113.257 200.142 109.111V92.4476H195.967V108.549Z" fill="white"/>
<path d="M213.383 92.3598L200.762 121.392H205.068L208.178 114.197H221.715L224.868 121.392H229.253L216.693 92.5091L216.632 92.3598H213.383ZM220.117 110.446H209.767L214.92 98.4121L220.117 110.446Z" fill="white"/>
<path d="M251.961 106.599C253.263 105.097 253.918 103.287 253.918 101.232C253.918 95.3991 250.154 92.4476 242.721 92.4476H231.637V121.4H235.812V110.262H242.791L251.193 121.4H256.311L247.193 109.436C249.14 108.962 250.739 108.004 251.953 106.599H251.961ZM235.821 96.4005H242.599C247.35 96.4005 249.664 97.9817 249.664 101.232C249.664 102.787 249.07 103.99 247.848 104.912C246.616 105.835 244.939 106.309 242.843 106.309H235.821V96.4005Z" fill="white"/>
<path d="M280.321 96.6728C279.116 95.3464 277.439 94.3011 275.351 93.5544C273.273 92.8165 270.801 92.4388 268.015 92.4388H259.036V121.392H267.613C272.941 121.392 277.02 119.995 279.753 117.237C282.478 114.478 283.867 110.868 283.867 106.511C283.867 104.57 283.579 102.751 283.002 101.126C282.426 99.4926 281.526 97.9905 280.321 96.6728ZM267.849 117.439H263.211V96.4005H267.927C271.989 96.4005 274.976 97.3141 276.801 99.1148C278.627 100.916 279.552 103.402 279.552 106.511C279.552 109.84 278.583 112.52 276.67 114.487C274.757 116.446 271.788 117.439 267.84 117.439H267.849Z" fill="white"/>
<path d="M291.981 92.4476H287.806V121.4H291.981V92.4476Z" fill="white"/>
<path d="M310.244 92.3598H307.004L294.383 121.392H298.689L301.798 114.197H315.327L318.48 121.392H322.865L310.305 92.5091L310.244 92.3598ZM313.738 110.446H303.388L308.541 98.4121L313.738 110.446Z" fill="white"/>
<path d="M345.46 92.4476V113.758L328.542 92.4476H325.258V121.392H329.31V100.16L346.281 121.392H349.521V92.4476H345.46Z" fill="white"/>
<path d="M387.436 106.599C388.737 105.097 389.401 103.287 389.401 101.232C389.401 95.3991 385.636 92.4476 378.204 92.4476H367.129V121.4H371.304V110.262H378.282L386.684 121.4H391.803L382.684 109.436C384.632 108.962 386.23 108.004 387.444 106.599H387.436ZM371.295 96.4005H378.073C382.824 96.4005 385.139 97.9817 385.139 101.232C385.139 102.787 384.545 103.99 383.322 104.912C382.09 105.835 380.413 106.309 378.317 106.309H371.295V96.4005Z" fill="#F9AA19"/>
<path d="M398.685 108.637H414.249V104.754H398.685V96.4005H415.376V92.4476H394.51V121.392H415.743V117.439H398.685V108.637Z" fill="#F9AA19"/>
<path d="M442.251 113.987C440.05 116.464 437.202 117.72 433.787 117.72C430.582 117.72 427.962 116.727 426.005 114.768C424.04 112.809 423.044 110.165 423.044 106.924C423.044 103.683 423.97 101.065 425.804 99.0885C427.63 97.1208 430.171 96.1194 433.342 96.1194C436.512 96.1194 439.316 97.2701 441.569 99.5453L441.744 99.7209L444.46 97.0769L444.329 96.9012C443.281 95.4957 441.779 94.3274 439.849 93.4314C437.927 92.5355 435.709 92.0875 433.255 92.0875C428.922 92.0875 425.376 93.5193 422.712 96.3302C420.049 99.1412 418.704 102.708 418.704 106.924C418.704 111.413 420.057 115.049 422.739 117.729C425.411 120.408 429.053 121.761 433.543 121.761C435.857 121.761 438.05 121.295 440.05 120.373C442.058 119.45 443.639 118.203 444.74 116.657L444.853 116.49L442.434 113.776L442.251 113.987Z" fill="#F9AA19"/>
<path d="M460.094 92.0787C456.007 92.0787 452.504 93.5193 449.692 96.3566C446.88 99.1939 445.456 102.751 445.456 106.915C445.456 111.079 446.88 114.742 449.692 117.535C452.504 120.337 455.998 121.752 460.094 121.752C464.191 121.752 467.641 120.32 470.453 117.491C473.265 114.663 474.689 111.105 474.689 106.906C474.689 102.708 473.265 99.0797 470.453 96.2863C467.641 93.4841 464.156 92.0699 460.094 92.0699V92.0787ZM460.094 117.72C457.264 117.72 454.819 116.683 452.819 114.645C450.819 112.607 449.797 110.007 449.797 106.915C449.797 103.823 450.81 101.197 452.793 99.1675C454.784 97.1384 457.238 96.1106 460.086 96.1106C462.933 96.1106 465.317 97.1384 467.326 99.1675C469.326 101.197 470.348 103.806 470.348 106.915C470.348 110.025 469.361 112.634 467.405 114.663C465.457 116.692 462.994 117.72 460.086 117.72H460.094Z" fill="#F9AA19"/>
<path d="M489.345 115.339L478.471 92.4476H473.964L487.711 121.251L487.781 121.392H490.76L503.922 92.4476H499.529L489.345 115.339Z" fill="#F9AA19"/>
<path d="M510.289 108.637H525.844V104.754H510.289V96.4005H526.971V92.4476H506.105V121.392H527.338V117.439H510.289V108.637Z" fill="#F9AA19"/>
<path d="M552.16 106.599C553.461 105.097 554.125 103.287 554.125 101.232C554.125 95.3991 550.361 92.4476 542.928 92.4476H531.853V121.4H536.028V110.262H543.007L551.409 121.4H556.527L547.409 109.436C549.356 108.962 550.955 108.004 552.169 106.599H552.16ZM536.02 96.4005H542.797C547.548 96.4005 549.863 97.9817 549.863 101.232C549.863 102.787 549.269 103.99 548.046 104.912C546.815 105.835 545.138 106.309 543.042 106.309H536.02V96.4005Z" fill="#F9AA19"/>
<path d="M576.126 92.4476L567.41 106.01L558.816 92.4476H553.741L565.218 110.446V121.392H569.392V110.446L581 92.4476H576.126Z" fill="#F9AA19"/>
<path d="M301.894 140.594H157.363V143.229H301.894V140.594Z" fill="#F9AA19"/>
<path d="M569.061 140.594H424.25V143.229H569.061V140.594Z" fill="#F9AA19"/>
<path d="M316.882 148.201V135.903H321.825C322.812 135.903 323.659 136.017 324.349 136.246C325.039 136.474 325.563 136.79 325.922 137.203C326.28 137.616 326.533 138.038 326.681 138.477C326.83 138.916 326.909 139.408 326.909 139.944C326.909 140.48 326.821 140.963 326.638 141.428C326.454 141.894 326.175 142.316 325.799 142.711C325.424 143.106 324.891 143.414 324.21 143.642C323.528 143.87 322.725 143.985 321.808 143.985H318.995V148.201H316.882ZM318.995 137.888V141.999H321.773C323.729 141.999 324.708 141.305 324.708 139.926C324.708 138.547 323.773 137.888 321.895 137.888H318.995Z" fill="white"/>
<path d="M329.337 135.903H331.45V148.201H329.337V135.903Z" fill="white"/>
<path d="M343.311 148.201L336.568 139.821V148.201H334.507V135.903H336.149L342.892 144.318V135.903H344.953V148.201H343.311Z" fill="white"/>
<path d="M348.01 135.903H357.093V137.906H350.124V140.998H356.639V142.93H350.124V146.198H357.268V148.201H348.01V135.903Z" fill="white"/>
<path d="M363.417 135.903H373.741V137.906H369.636V148.201H367.522V137.906H363.417V135.903Z" fill="white"/>
<path d="M375.592 148.201V135.903H380.396C381.313 135.903 382.099 136.009 382.754 136.219C383.409 136.43 383.907 136.72 384.248 137.089C384.588 137.458 384.842 137.862 384.99 138.292C385.139 138.723 385.217 139.206 385.217 139.733C385.217 140.576 384.973 141.323 384.483 141.964C383.994 142.605 383.339 143.045 382.527 143.282L386.195 148.201H383.628L380.291 143.686H377.706V148.201H375.592ZM377.706 137.906V141.683H380.448C381.252 141.683 381.881 141.507 382.335 141.165C382.789 140.822 383.016 140.339 383.016 139.733C383.016 139.127 382.815 138.696 382.414 138.38C382.012 138.064 381.322 137.906 380.344 137.906H377.706Z" fill="white"/>
<path d="M388.134 135.903H397.218V137.906H390.248V140.998H396.764V142.93H390.248V146.198H397.392V148.201H388.134V135.903Z" fill="white"/>
<path d="M400.013 135.903H409.096V137.906H402.126V140.998H408.642V142.93H402.126V146.198H409.271V148.201H400.013V135.903Z" fill="white"/>
</svg>
