<svg width="645" height="240" viewBox="0 0 645 240" fill="none" xmlns="http://www.w3.org/2000/svg">
<rect width="645" height="240" fill="#083045"/>
<path d="M99.3162 155C80.3982 155 65 139.522 65 120.496C65 101.469 80.3982 86 99.3162 86C118.234 86 133.606 101.478 133.606 120.496C133.606 139.513 118.225 154.991 99.3162 154.991V155ZM99.3162 89.3029C82.2061 89.3029 68.284 103.296 68.284 120.496C68.284 137.695 82.2061 151.697 99.3249 151.697C116.444 151.697 130.34 137.704 130.34 120.496C130.34 103.287 116.417 89.3029 99.3162 89.3029Z" fill="white"/>
<path d="M110.024 138.222L99.7267 132.881C99.5956 132.811 99.4559 132.776 99.3074 132.776C99.1677 132.776 99.0192 132.811 98.8882 132.881L88.5907 138.222C88.154 138.451 87.9706 138.978 88.1802 139.426C88.3811 139.874 88.9051 140.084 89.3593 139.9L98.9668 136.149C99.0716 136.105 99.1851 136.079 99.2987 136.079C99.4122 136.079 99.5258 136.105 99.6306 136.149L109.238 139.9C109.692 140.084 110.216 139.874 110.417 139.426C110.618 138.978 110.435 138.451 110.007 138.222H110.024Z" fill="#F9AA19"/>
<path d="M123.824 119.573L108.714 118.879C107.823 118.835 107.509 117.667 108.26 117.184L121.003 108.971C121.413 108.707 121.544 108.163 121.3 107.741C121.055 107.311 120.522 107.152 120.086 107.381L106.644 114.382C105.849 114.795 105.002 113.943 105.413 113.143L112.374 99.6155C112.601 99.1763 112.443 98.6405 112.024 98.3945H112.007C111.579 98.1398 111.037 98.2715 110.775 98.6844L102.618 111.509C102.137 112.265 100.976 111.949 100.932 111.053L100.224 95.8383C100.198 95.3464 99.7965 94.9599 99.3074 94.9599C98.8183 94.9599 98.4165 95.3464 98.3903 95.8383L97.6916 111.053C97.6479 111.949 96.4863 112.265 96.0059 111.509L87.8483 98.6844C87.5863 98.2715 87.0448 98.1398 86.6168 98.3857H86.6081C86.1889 98.6405 86.0316 99.1763 86.2587 99.6155L93.2198 113.134C93.6303 113.934 92.7831 114.786 91.9883 114.373L78.5465 107.372C78.1098 107.144 77.5771 107.302 77.3325 107.723C77.088 108.154 77.219 108.707 77.6295 108.971L90.3725 117.184C91.1236 117.667 90.8092 118.835 89.9183 118.879L74.7996 119.573C74.3105 119.6 73.9262 120.004 73.9262 120.496C73.9262 120.996 74.3105 121.4 74.7996 121.418L89.9183 122.121C90.8092 122.165 91.1236 123.333 90.3725 123.816L77.6295 132.02C77.219 132.284 77.088 132.829 77.3325 133.259C77.5771 133.698 78.1098 133.856 78.5465 133.628L98.8969 123.034C99.1589 122.894 99.4734 122.894 99.7354 123.034L120.086 133.628C120.522 133.856 121.055 133.698 121.3 133.268C121.544 132.837 121.405 132.293 120.994 132.029L108.251 123.825C107.5 123.342 107.814 122.173 108.705 122.129L123.815 121.427C124.304 121.4 124.689 120.996 124.689 120.504C124.689 120.004 124.304 119.6 123.815 119.582" fill="#F9AA19"/>
<path d="M160.21 110.218H168.01V115.418C166.114 116.947 163.739 117.729 160.944 117.729C157.738 117.729 155.101 116.745 153.092 114.812C151.092 112.88 150.079 110.227 150.079 106.924C150.079 103.621 151.057 101.065 152.996 99.0974C154.935 97.1209 157.511 96.1283 160.656 96.1283C164.071 96.1283 166.734 97.1649 168.595 99.2116L168.778 99.4136L171.416 96.6642L171.276 96.4885C168.944 93.5633 165.293 92.0876 160.411 92.0876C156.262 92.0876 152.742 93.537 149.948 96.3918C147.153 99.2467 145.738 102.796 145.738 106.933C145.738 111.369 147.17 114.997 150 117.702C152.821 120.408 156.481 121.778 160.856 121.778C162.953 121.778 165.031 121.383 167.031 120.601C169.04 119.819 170.691 118.739 171.949 117.386L172.019 117.316V106.362H160.201V110.236L160.21 110.218Z" fill="white"/>
<path d="M195.967 108.549C195.967 111.404 195.304 113.67 194.002 115.304C192.71 116.912 190.806 117.729 188.334 117.729C185.862 117.729 183.923 116.903 182.351 115.269C180.779 113.635 179.975 111.307 179.975 108.356V92.4476H175.8V108.874C175.8 112.941 177.006 116.13 179.399 118.361C181.783 120.592 184.788 121.717 188.334 121.717C191.565 121.717 194.36 120.645 196.666 118.546C198.972 116.429 200.142 113.257 200.142 109.111V92.4476H195.967V108.549Z" fill="white"/>
<path d="M213.383 92.3686L200.762 121.4H205.068L208.178 114.206H221.715L224.868 121.4H229.253L216.693 92.5179L216.632 92.3686H213.383ZM220.117 110.446H209.767L214.92 98.4121L220.117 110.446Z" fill="white"/>
<path d="M251.961 106.599C253.263 105.097 253.918 103.287 253.918 101.232C253.918 95.3991 250.154 92.4476 242.721 92.4476H231.637V121.4H235.812V110.262H242.791L251.193 121.4H256.311L247.193 109.445C249.14 108.971 250.739 108.013 251.953 106.608L251.961 106.599ZM235.821 96.4005H242.599C247.35 96.4005 249.664 97.9817 249.664 101.232C249.664 102.787 249.07 103.99 247.848 104.912C246.616 105.835 244.939 106.309 242.843 106.309H235.821V96.4005Z" fill="white"/>
<path d="M280.321 96.6728C279.116 95.3464 277.439 94.3011 275.351 93.5544C273.273 92.8165 270.81 92.4388 268.015 92.4388H259.036V121.392H267.613C272.941 121.392 277.02 119.995 279.753 117.237C282.478 114.478 283.867 110.868 283.867 106.511C283.867 104.57 283.579 102.751 283.002 101.126C282.426 99.4926 281.526 97.9905 280.321 96.6728ZM267.849 117.439H263.211V96.4005H267.927C271.989 96.4005 274.976 97.3141 276.801 99.1148C278.627 100.916 279.552 103.402 279.552 106.511C279.552 109.84 278.583 112.52 276.67 114.487C274.766 116.446 271.788 117.439 267.84 117.439H267.849Z" fill="white"/>
<path d="M291.981 92.4476H287.806V121.4H291.981V92.4476Z" fill="white"/>
<path d="M310.244 92.3686H307.004L294.383 121.4H298.689L301.798 114.206H315.327L318.48 121.4H322.865L310.305 92.5179L310.244 92.3686ZM313.738 110.446H303.388L308.541 98.4121L313.738 110.446Z" fill="white"/>
<path d="M345.46 92.4476V113.767L328.542 92.4476H325.258V121.4H329.31V100.16L346.202 121.304L346.281 121.4H349.521V92.4476H345.46Z" fill="white"/>
<path d="M387.436 106.599C388.737 105.097 389.401 103.287 389.401 101.232C389.401 95.3991 385.636 92.4476 378.204 92.4476H367.129V121.4H371.304V110.262H378.282L386.684 121.4H391.803L382.684 109.445C384.632 108.971 386.23 108.013 387.444 106.608L387.436 106.599ZM371.295 96.4005H378.073C382.824 96.4005 385.139 97.9817 385.139 101.232C385.139 102.787 384.545 103.99 383.322 104.912C382.09 105.835 380.405 106.309 378.317 106.309H371.295V96.4005Z" fill="#F9AA19"/>
<path d="M398.685 108.637H414.249V104.763H398.685V96.4005H415.376V92.4476H394.51V121.4H415.743V117.439H398.685V108.637Z" fill="#F9AA19"/>
<path d="M442.251 113.987C440.05 116.464 437.202 117.72 433.787 117.72C430.582 117.72 427.962 116.727 426.005 114.768C424.04 112.81 423.044 110.165 423.044 106.924C423.044 103.683 423.97 101.065 425.804 99.0886C427.63 97.1209 430.171 96.1195 433.342 96.1195C436.512 96.1195 439.316 97.2703 441.569 99.5366L441.744 99.7123L444.46 97.0682L444.329 96.8925C443.29 95.4871 441.779 94.3188 439.849 93.4228C437.927 92.5268 435.709 92.0788 433.255 92.0788C428.922 92.0788 425.376 93.5018 422.712 96.3216C420.049 99.1325 418.704 102.699 418.704 106.915C418.704 111.404 420.057 115.041 422.739 117.72C425.411 120.399 429.053 121.752 433.543 121.752C435.857 121.752 438.05 121.286 440.05 120.364C442.058 119.442 443.639 118.194 444.74 116.639L444.853 116.473L442.434 113.758L442.251 113.969V113.987Z" fill="#F9AA19"/>
<path d="M460.094 92.0787C456.007 92.0787 452.504 93.5193 449.692 96.3566C446.88 99.1939 445.456 102.751 445.456 106.915C445.456 111.079 446.88 114.742 449.692 117.535C452.504 120.337 455.998 121.752 460.094 121.752C464.191 121.752 467.641 120.32 470.453 117.491C473.265 114.663 474.689 111.105 474.689 106.906C474.689 102.708 473.265 99.0797 470.453 96.2863C467.641 93.4841 464.156 92.0699 460.094 92.0699V92.0787ZM460.094 117.729C457.264 117.729 454.819 116.692 452.819 114.654C450.819 112.616 449.797 110.016 449.797 106.924C449.797 103.832 450.81 101.205 452.793 99.1763C454.784 97.1472 457.238 96.1194 460.086 96.1194C462.933 96.1194 465.317 97.1472 467.326 99.1763C469.326 101.205 470.348 103.814 470.348 106.924C470.348 110.034 469.361 112.643 467.405 114.672C465.457 116.701 462.994 117.729 460.086 117.729H460.094Z" fill="#F9AA19"/>
<path d="M489.345 115.348L478.471 92.4476H473.964L487.711 121.251L487.781 121.4H490.76L503.922 92.4476H499.529L489.345 115.348Z" fill="#F9AA19"/>
<path d="M510.289 108.637H525.844V104.763H510.289V96.4005H526.971V92.4476H506.105V121.4H527.338V117.439H510.289V108.637Z" fill="#F9AA19"/>
<path d="M552.16 106.599C553.461 105.097 554.125 103.287 554.125 101.232C554.125 95.3991 550.361 92.4476 542.928 92.4476H531.853V121.4H536.028V110.262H543.007L551.409 121.4H556.527L547.409 109.445C549.356 108.971 550.955 108.013 552.169 106.608L552.16 106.599ZM536.02 96.4005H542.797C547.548 96.4005 549.863 97.9817 549.863 101.232C549.863 102.787 549.269 103.99 548.046 104.912C546.815 105.835 545.129 106.309 543.042 106.309H536.02V96.4005Z" fill="#F9AA19"/>
<path d="M576.126 92.4476L567.41 106.01L558.816 92.4476H553.741L565.218 110.446V121.4H569.392V110.446L581 92.4476H576.126Z" fill="#F9AA19"/>
<path d="M207.505 140.524H157.363V143.159H207.505V140.524Z" fill="#F9AA19"/>
<path d="M569.462 140.524H519.355V143.159H569.462V140.524Z" fill="#F9AA19"/>
<path d="M222.493 148.201V135.903H227.436C228.423 135.903 229.27 136.017 229.96 136.246C230.65 136.474 231.174 136.79 231.532 137.203C231.891 137.616 232.144 138.038 232.292 138.477C232.441 138.916 232.519 139.408 232.519 139.944C232.519 140.48 232.432 140.963 232.249 141.428C232.065 141.894 231.786 142.316 231.41 142.711C231.035 143.106 230.502 143.414 229.821 143.642C229.139 143.87 228.336 143.985 227.419 143.985H224.606V148.201H222.493ZM224.606 137.888V141.999H227.384C229.34 141.999 230.318 141.305 230.318 139.926C230.318 138.547 229.384 137.888 227.506 137.888H224.606Z" fill="white"/>
<path d="M235.83 137.581C237.035 136.369 238.52 135.763 240.275 135.763C242.031 135.763 243.516 136.36 244.721 137.555C245.926 138.749 246.529 140.251 246.529 142.052C246.529 143.853 245.926 145.337 244.712 146.541C243.498 147.744 242.022 148.342 240.275 148.342C238.528 148.342 237.052 147.744 235.838 146.55C234.624 145.355 234.022 143.853 234.022 142.052C234.022 140.251 234.624 138.793 235.83 137.581ZM237.411 145.109C238.205 145.908 239.157 146.304 240.275 146.304C241.393 146.304 242.389 145.908 243.166 145.118C243.944 144.327 244.328 143.308 244.328 142.052C244.328 140.796 243.926 139.795 243.131 138.995C242.337 138.196 241.385 137.801 240.275 137.801C239.166 137.801 238.205 138.196 237.411 138.986C236.616 139.777 236.223 140.796 236.223 142.052C236.223 143.308 236.616 144.31 237.411 145.109Z" fill="white"/>
<path d="M248.939 148.201V135.903H253.743C254.66 135.903 255.446 136.009 256.101 136.219C256.756 136.43 257.254 136.72 257.595 137.089C257.936 137.458 258.189 137.862 258.337 138.292C258.486 138.723 258.564 139.206 258.564 139.733C258.564 140.576 258.32 141.323 257.831 141.964C257.342 142.605 256.687 143.045 255.874 143.282L259.543 148.201H256.975L253.638 143.686H251.053V148.201H248.939ZM251.053 137.906V141.683H253.796C254.599 141.683 255.228 141.507 255.682 141.165C256.136 140.822 256.363 140.339 256.363 139.733C256.363 139.127 256.163 138.696 255.761 138.38C255.359 138.064 254.669 137.906 253.691 137.906H251.053Z" fill="white"/>
<path d="M259.455 135.903H269.779V137.906H265.674V148.201H263.56V137.906H259.455V135.903Z" fill="white"/>
<path d="M271.631 135.903H273.744V146.198H280.679V148.201H271.631V135.903Z" fill="white"/>
<path d="M286.81 135.903H288.417L293.78 148.201H291.562L290.374 145.478H284.802L283.631 148.201H281.448L286.81 135.903ZM285.57 143.651H289.588L287.579 138.978L285.57 143.651Z" fill="white"/>
<path d="M304.401 148.201L297.658 139.821V148.201H295.597V135.903H297.239L303.982 144.318V135.903H306.043V148.201H304.401Z" fill="white"/>
<path d="M309.1 135.903H312.925C314.148 135.903 315.214 136.061 316.131 136.377C317.048 136.694 317.764 137.133 318.288 137.704C318.812 138.275 319.196 138.899 319.441 139.592C319.685 140.286 319.808 141.051 319.808 141.894C319.808 143.765 319.214 145.285 318.026 146.453C316.838 147.621 315.065 148.201 312.698 148.201H309.1V135.903ZM311.213 137.906V146.198H312.855C314.471 146.198 315.668 145.812 316.445 145.047C317.222 144.283 317.607 143.229 317.607 141.894C317.607 139.232 316.035 137.906 312.89 137.906H311.213Z" fill="white"/>
<path d="M331.075 135.903H332.682L338.044 148.201H335.826L334.638 145.478H329.066L327.895 148.201H325.712L331.075 135.903ZM329.834 143.651H333.852L331.843 138.978L329.834 143.651Z" fill="white"/>
<path d="M339.861 135.903H343.687C344.909 135.903 345.975 136.061 346.892 136.377C347.809 136.694 348.525 137.133 349.049 137.704C349.573 138.275 349.958 138.899 350.202 139.592C350.447 140.286 350.569 141.051 350.569 141.894C350.569 143.765 349.975 145.285 348.787 146.453C347.6 147.621 345.827 148.201 343.46 148.201H339.861V135.903ZM341.975 137.906V146.198H343.617C345.233 146.198 346.429 145.812 347.206 145.047C347.984 144.283 348.368 143.229 348.368 141.894C348.368 139.232 346.796 137.906 343.652 137.906H341.975Z" fill="white"/>
<path d="M352.98 135.903H356.805C358.028 135.903 359.094 136.061 360.011 136.377C360.928 136.694 361.644 137.133 362.168 137.704C362.692 138.275 363.076 138.899 363.321 139.592C363.565 140.286 363.688 141.051 363.688 141.894C363.688 143.765 363.094 145.285 361.906 146.453C360.718 147.621 358.945 148.201 356.578 148.201H352.98V135.903ZM355.093 137.906V146.198H356.735C358.351 146.198 359.548 145.812 360.325 145.047C361.102 144.283 361.487 143.229 361.487 141.894C361.487 139.232 359.915 137.906 356.77 137.906H355.093Z" fill="white"/>
<path d="M366.098 135.903H368.212V148.201H366.098V135.903Z" fill="white"/>
<path d="M381.872 146.058C381.374 146.769 380.684 147.331 379.802 147.735C378.92 148.14 377.959 148.342 376.911 148.342C374.99 148.342 373.461 147.771 372.326 146.629C371.19 145.487 370.623 143.958 370.623 142.052C370.623 140.26 371.199 138.767 372.352 137.563C373.505 136.36 375.016 135.763 376.876 135.763C377.95 135.763 378.911 135.956 379.758 136.351C380.606 136.746 381.252 137.256 381.68 137.888L380.282 139.224C379.435 138.275 378.335 137.801 376.981 137.801C375.723 137.801 374.719 138.187 373.959 138.96C373.199 139.733 372.824 140.761 372.824 142.052C372.824 143.343 373.217 144.354 374.003 145.135C374.789 145.917 375.811 146.304 377.068 146.304C378.544 146.304 379.732 145.768 380.632 144.687L381.872 146.058Z" fill="white"/>
<path d="M382.981 135.903H393.305V137.906H389.2V148.201H387.086V137.906H382.981V135.903Z" fill="white"/>
<path d="M395.165 135.903H397.279V148.201H395.165V135.903Z" fill="white"/>
<path d="M401.497 137.581C402.703 136.369 404.188 135.763 405.943 135.763C407.699 135.763 409.183 136.36 410.389 137.555C411.594 138.749 412.197 140.251 412.197 142.052C412.197 143.853 411.594 145.337 410.38 146.541C409.166 147.744 407.69 148.342 405.943 148.342C404.196 148.342 402.72 147.744 401.506 146.55C400.292 145.355 399.69 143.853 399.69 142.052C399.69 140.251 400.292 138.793 401.497 137.581ZM403.078 145.109C403.873 145.908 404.825 146.304 405.943 146.304C407.061 146.304 408.057 145.908 408.834 145.118C409.611 144.327 409.996 143.308 409.996 142.052C409.996 140.796 409.594 139.795 408.799 138.995C408.004 138.196 407.052 137.801 405.943 137.801C404.834 137.801 403.873 138.196 403.078 138.986C402.284 139.777 401.891 140.796 401.891 142.052C401.891 143.308 402.284 144.31 403.078 145.109Z" fill="white"/>
<path d="M423.411 148.201L416.669 139.821V148.201H414.607V135.903H416.249L422.992 144.318V135.903H425.053V148.201H423.411Z" fill="white"/>
<path d="M443.447 146.058C442.949 146.769 442.259 147.331 441.377 147.735C440.495 148.14 439.534 148.342 438.486 148.342C436.565 148.342 435.036 147.771 433.901 146.629C432.765 145.487 432.198 143.958 432.198 142.052C432.198 140.26 432.774 138.767 433.927 137.563C435.08 136.36 436.591 135.763 438.451 135.763C439.526 135.763 440.486 135.956 441.334 136.351C442.181 136.746 442.827 137.256 443.255 137.888L441.858 139.224C441.01 138.275 439.91 137.801 438.556 137.801C437.298 137.801 436.294 138.187 435.534 138.96C434.774 139.733 434.399 140.761 434.399 142.052C434.399 143.343 434.792 144.354 435.578 145.135C436.364 145.917 437.386 146.304 438.643 146.304C440.119 146.304 441.307 145.768 442.207 144.687L443.447 146.058Z" fill="white"/>
<path d="M445.535 135.903H454.618V137.906H447.648V140.998H454.164V142.93H447.648V146.198H454.793V148.201H445.535V135.903Z" fill="white"/>
<path d="M466.226 148.201L459.483 139.821V148.201H457.422V135.903H459.064L465.806 144.318V135.903H467.868V148.201H466.226Z" fill="white"/>
<path d="M469.711 135.903H480.034V137.906H475.929V148.201H473.816V137.906H469.711V135.903Z" fill="white"/>
<path d="M481.886 135.903H490.969V137.906H483.999V140.998H490.515V142.93H483.999V146.198H491.144V148.201H481.886V135.903Z" fill="white"/>
<path d="M493.764 148.201V135.903H498.568C499.485 135.903 500.271 136.009 500.926 136.219C501.581 136.43 502.079 136.72 502.42 137.089C502.76 137.458 503.014 137.862 503.162 138.292C503.31 138.723 503.389 139.206 503.389 139.733C503.389 140.576 503.145 141.323 502.655 141.964C502.166 142.605 501.511 143.045 500.699 143.282L504.367 148.201H501.799L498.463 143.686H495.878V148.201H493.764ZM495.878 137.906V141.683H498.62C499.424 141.683 500.053 141.507 500.507 141.165C500.961 140.822 501.188 140.339 501.188 139.733C501.188 139.127 500.987 138.696 500.585 138.38C500.184 138.064 499.494 137.906 498.515 137.906H495.878Z" fill="white"/>
</svg>
