<svg width="645" height="300" viewBox="0 0 645 300" fill="none" xmlns="http://www.w3.org/2000/svg">
<rect width="645" height="300" fill="#083045"/>
<path d="M322.202 149.897C300.365 149.897 282.603 132.203 282.603 110.449C282.603 88.6936 300.365 71 322.202 71C344.039 71 361.775 88.6936 361.775 110.449C361.775 132.203 344.022 149.897 322.202 149.897ZM322.202 74.1485C302.104 74.1485 285.762 90.4354 285.762 110.449C285.762 130.462 302.113 146.749 322.202 146.749C342.291 146.749 358.616 130.462 358.616 110.449C358.616 90.4354 342.274 74.1485 322.202 74.1485Z" fill="white"/>
<path d="M334.654 130.88L322.681 124.717C322.529 124.642 322.361 124.6 322.193 124.6C322.025 124.6 321.857 124.642 321.706 124.717L309.733 130.88C309.229 131.14 309.019 131.751 309.254 132.27C309.49 132.79 310.094 133.032 310.624 132.815L321.807 128.494C321.933 128.444 322.067 128.419 322.202 128.419C322.336 128.419 322.471 128.444 322.597 128.494L333.78 132.815C334.309 133.032 334.914 132.79 335.149 132.27C335.385 131.751 335.175 131.14 334.67 130.88H334.654Z" fill="#F9AA19"/>
<path d="M350.71 109.377L333.133 108.581C332.091 108.531 331.73 107.183 332.604 106.63L347.433 97.1595C347.912 96.858 348.063 96.23 347.786 95.7359C347.5 95.2419 346.879 95.0577 346.374 95.3173L330.73 103.381C329.806 103.858 328.814 102.87 329.293 101.949L337.393 86.3574C337.653 85.855 337.477 85.2353 336.981 84.9506H336.964C336.468 84.6575 335.838 84.8082 335.536 85.2855L326.042 100.074C325.479 100.944 324.126 100.584 324.084 99.5543L323.269 82.0114C323.244 81.442 322.773 80.9982 322.202 80.9982H322.193C321.622 80.9982 321.152 81.442 321.126 82.0114L320.32 99.546C320.269 100.584 318.917 100.944 318.362 100.065L308.868 85.2772C308.557 84.7999 307.927 84.6491 307.439 84.9339H307.423C306.935 85.2269 306.75 85.8466 307.011 86.349L315.119 101.941C315.598 102.862 314.606 103.85 313.682 103.373L298.046 95.3005C297.542 95.0409 296.92 95.2168 296.634 95.7108C296.349 96.2132 296.5 96.8413 296.979 97.1511L311.808 106.622C312.682 107.183 312.321 108.531 311.279 108.573L293.694 109.368C293.122 109.393 292.677 109.862 292.677 110.432C292.677 111.01 293.122 111.47 293.694 111.504L311.279 112.308C312.321 112.358 312.682 113.706 311.8 114.259L296.97 123.721C296.492 124.031 296.34 124.659 296.626 125.144V125.161C296.92 125.647 297.542 125.831 298.046 125.571L321.723 113.354C322.034 113.195 322.395 113.195 322.706 113.354L346.383 125.571C346.887 125.831 347.517 125.647 347.794 125.153C348.072 124.659 347.92 124.031 347.442 123.729L332.612 114.267C331.738 113.706 332.099 112.358 333.141 112.316L350.718 111.512C351.29 111.487 351.735 111.018 351.735 110.449C351.735 109.871 351.29 109.41 350.718 109.377H350.71Z" fill="#F9AA19"/>
<path d="M350.794 187.554C352.046 186.122 352.676 184.397 352.676 182.437C352.676 176.877 349.055 174.064 341.905 174.064H331.242V201.663H335.259V191.045H341.972L349.987 201.563L350.055 201.655H354.978L346.206 190.258C348.08 189.806 349.618 188.893 350.786 187.554H350.794ZM335.267 177.832H341.787C346.358 177.832 348.584 179.339 348.584 182.437C348.584 183.919 348.013 185.067 346.837 185.946C345.652 186.825 344.039 187.277 342.022 187.277H335.267V177.832Z" fill="#F9AA19"/>
<path d="M361.624 189.496H376.588V185.795H361.624V177.832H377.672V174.064H357.6V201.655H378.025V197.887H361.624V189.496Z" fill="#F9AA19"/>
<path d="M403.525 194.596C401.408 196.957 398.669 198.155 395.384 198.155C392.3 198.155 389.779 197.209 387.897 195.341C386.007 193.474 385.049 190.953 385.049 187.863C385.049 184.774 385.94 182.278 387.704 180.394C389.46 178.518 391.905 177.564 394.955 177.564C398.005 177.564 400.702 178.661 402.87 180.83L403.038 180.997L405.651 178.477L405.525 178.309C404.517 176.969 403.071 175.856 401.215 175.001C399.366 174.147 397.232 173.72 394.871 173.72C390.704 173.72 387.292 175.085 384.73 177.765C382.167 180.444 380.873 183.844 380.873 187.863C380.873 192.142 382.176 195.609 384.755 198.163C387.326 200.717 390.83 202.007 395.148 202.007C397.375 202.007 399.484 201.563 401.408 200.684C403.34 199.804 404.861 198.615 405.92 197.142L406.029 196.982L403.702 194.395L403.525 194.596Z" fill="#F9AA19"/>
<path d="M420.691 173.712C416.758 173.712 413.389 175.085 410.684 177.79C407.978 180.495 406.609 183.886 406.609 187.855C406.609 191.824 407.978 195.316 410.684 197.979C413.389 200.65 416.75 201.998 420.691 201.998C424.631 201.998 427.95 200.633 430.655 197.937C433.361 195.241 434.73 191.849 434.73 187.847C434.73 183.844 433.361 180.386 430.655 177.723C427.95 175.052 424.597 173.704 420.691 173.704V173.712ZM420.691 198.155C417.968 198.155 415.616 197.167 413.692 195.224C411.768 193.281 410.785 190.803 410.785 187.855C410.785 184.908 411.759 182.404 413.666 180.469C415.582 178.535 417.943 177.555 420.682 177.555C423.421 177.555 425.715 178.535 427.647 180.469C429.571 182.404 430.555 184.891 430.555 187.855C430.555 190.819 429.605 193.306 427.723 195.241C425.849 197.175 423.48 198.155 420.682 198.155H420.691Z" fill="#F9AA19"/>
<path d="M448.829 195.885L438.436 174.198L438.377 174.064H434.033L447.258 201.521L447.325 201.655H450.19L462.701 174.399L462.852 174.064H458.626L448.829 195.885Z" fill="#F9AA19"/>
<path d="M468.977 189.496H483.941V185.795H468.977V177.832H485.025V174.064H464.952V201.655H485.378V197.887H468.977V189.496Z" fill="#F9AA19"/>
<path d="M509.265 187.554C510.517 186.122 511.155 184.397 511.155 182.437C511.155 176.877 507.534 174.064 500.384 174.064H489.73V201.663H493.746V191.045H500.46L508.475 201.563L508.542 201.655H513.466L504.694 190.258C506.568 189.806 508.105 188.893 509.273 187.554H509.265ZM493.729 177.832H500.249C504.82 177.832 507.047 179.339 507.047 182.437C507.047 183.919 506.475 185.067 505.299 185.946C504.114 186.825 502.493 187.277 500.485 187.277H493.729V177.832Z" fill="#F9AA19"/>
<path d="M532.312 174.064L523.926 186.984L515.667 174.064H510.777L521.818 191.221V201.655H525.842V191.221L537 174.064H532.312Z" fill="#F9AA19"/>
<path d="M131.022 191.004V195.952C129.148 197.41 126.796 198.155 124.031 198.155C120.864 198.155 118.251 197.217 116.268 195.375C114.293 193.532 113.285 191.004 113.285 187.863C113.285 184.723 114.26 182.287 116.167 180.403C118.083 178.518 120.628 177.564 123.746 177.564C127.123 177.564 129.761 178.552 131.601 180.511L131.77 180.696L134.374 178.083L134.231 177.916C131.929 175.135 128.316 173.72 123.502 173.72C119.41 173.72 115.932 175.102 113.167 177.815C110.403 180.536 109 183.919 109 187.863C109 192.101 110.42 195.551 113.209 198.13C115.999 200.7 119.612 202.007 123.939 202.007C126.006 202.007 128.064 201.63 130.039 200.885C132.022 200.139 133.66 199.109 134.903 197.828L134.971 197.761V187.311H123.3V191.004H131.022Z" fill="white"/>
<path d="M159.261 189.404C159.261 192.126 158.606 194.286 157.32 195.835C156.043 197.368 154.153 198.155 151.716 198.155C149.279 198.155 147.355 197.368 145.793 195.802C144.238 194.244 143.448 192.025 143.448 189.212V174.055H139.331V189.714C139.331 193.591 140.524 196.631 142.885 198.766C145.238 200.893 148.204 201.965 151.716 201.965C154.909 201.965 157.673 200.952 159.942 198.942C162.219 196.932 163.378 193.901 163.378 189.949V174.055H159.261V189.404Z" fill="white"/>
<path d="M180.266 173.98H177.082L164.605 201.655H168.848L171.923 194.797H185.316L188.433 201.655H192.752L180.333 174.122L180.266 173.98ZM173.494 191.221L178.603 179.733L183.745 191.221H173.494Z" fill="white"/>
<path d="M215.807 187.554C217.092 186.122 217.748 184.397 217.748 182.437C217.748 176.877 214.026 174.064 206.682 174.064H195.734V201.663H199.851V191.045H206.766L215.076 201.663H220.125L211.11 190.267C213.034 189.815 214.614 188.902 215.815 187.562L215.807 187.554ZM199.843 177.832H206.556C211.261 177.832 213.547 179.339 213.547 182.437C213.547 183.919 212.958 185.067 211.749 185.946C210.53 186.825 208.867 187.277 206.8 187.277H199.851V177.84L199.843 177.832Z" fill="white"/>
<path d="M244.441 178.083C243.248 176.819 241.593 175.822 239.534 175.119C237.484 174.415 235.039 174.055 232.283 174.055H223.411V201.655H231.88C237.14 201.655 241.173 200.324 243.87 197.694C246.567 195.065 247.936 191.623 247.936 187.47C247.936 185.619 247.65 183.886 247.079 182.337C246.516 180.779 245.617 179.347 244.432 178.091L244.441 178.083ZM232.124 197.887H227.528V177.832H232.199C236.215 177.832 239.173 178.703 240.979 180.419C242.786 182.136 243.702 184.506 243.702 187.47C243.702 190.644 242.744 193.198 240.853 195.065C238.963 196.932 236.022 197.878 232.115 197.878L232.124 197.887Z" fill="white"/>
<path d="M256.565 174.055H252.448V201.655H256.565V174.055Z" fill="white"/>
<path d="M275.218 173.98H272.033L259.556 201.655H263.799L266.874 194.797H280.267L283.384 201.655H287.703L275.285 174.122L275.218 173.98ZM268.446 191.221L273.554 179.733L278.696 191.221H268.446Z" fill="white"/>
<path d="M310.649 174.055V194.395L293.904 174.055H290.677V201.655H294.677V181.399L311.456 201.655H314.648V174.055H310.649Z" fill="white"/>
<path d="M159.639 223.996H119.864V226.508H159.639V223.996Z" fill="#F9AA19"/>
<path d="M525.657 223.996H486.487V226.508H525.657V223.996Z" fill="#F9AA19"/>
<path d="M172.654 229.866V220.01H176.653C177.451 220.01 178.132 220.102 178.695 220.286C179.258 220.471 179.678 220.722 179.964 221.057C180.249 221.383 180.459 221.727 180.577 222.078C180.695 222.43 180.762 222.824 180.762 223.251C180.762 223.678 180.686 224.071 180.543 224.44C180.401 224.808 180.174 225.152 179.863 225.47C179.56 225.788 179.132 226.031 178.577 226.215C178.023 226.399 177.376 226.491 176.636 226.491H174.359V229.874H172.645L172.654 229.866ZM174.359 221.601V224.9H176.603C178.182 224.9 178.972 224.348 178.972 223.242C178.972 222.137 178.216 221.61 176.695 221.61H174.351L174.359 221.601Z" fill="white"/>
<path d="M182.72 229.866V220.01H186.601C187.349 220.01 187.979 220.094 188.509 220.261C189.038 220.429 189.441 220.663 189.718 220.956C189.996 221.249 190.197 221.576 190.315 221.919C190.441 222.271 190.5 222.648 190.5 223.075C190.5 223.753 190.298 224.348 189.903 224.867C189.508 225.386 188.979 225.738 188.324 225.922L191.29 229.866H189.214L186.517 226.249H184.425V229.866H182.711H182.72ZM184.434 221.618V224.649H186.652C187.299 224.649 187.811 224.507 188.181 224.231C188.551 223.954 188.735 223.569 188.735 223.083C188.735 222.598 188.576 222.254 188.248 222.003C187.92 221.752 187.366 221.626 186.576 221.626H184.442L184.434 221.618Z" fill="white"/>
<path d="M192.861 220.01H194.575V229.866H192.861V220.01Z" fill="white"/>
<path d="M204.162 229.866L198.709 223.15V229.866H197.045V220.01H198.373L203.825 226.751V220.01H205.489V229.866H204.162Z" fill="white"/>
<path d="M216.538 228.149C216.134 228.719 215.571 229.171 214.866 229.498C214.152 229.824 213.379 229.983 212.53 229.983C210.976 229.983 209.74 229.523 208.825 228.61C207.909 227.697 207.447 226.475 207.447 224.942C207.447 223.502 207.909 222.305 208.85 221.342C209.782 220.379 211.001 219.901 212.513 219.901C213.379 219.901 214.16 220.06 214.841 220.37C215.521 220.68 216.042 221.099 216.395 221.601L215.261 222.673C214.572 221.911 213.681 221.534 212.589 221.534C211.572 221.534 210.757 221.844 210.144 222.464C209.53 223.083 209.228 223.912 209.228 224.942C209.228 225.972 209.547 226.793 210.177 227.413C210.816 228.041 211.639 228.35 212.656 228.35C213.849 228.35 214.815 227.915 215.538 227.052L216.538 228.149Z" fill="white"/>
<path d="M218.227 220.01H225.57V221.618H219.932V224.097H225.2V225.646H219.932V228.267H225.713V229.874H218.227V220.01Z" fill="white"/>
<path d="M226.864 220.01H235.215V221.618H231.897V229.866H230.191V221.618H226.872V220.01H226.864Z" fill="white"/>
<path d="M237.123 221.35C238.097 220.379 239.299 219.893 240.719 219.893C242.139 219.893 243.34 220.37 244.315 221.333C245.29 222.296 245.777 223.494 245.777 224.934C245.777 226.374 245.29 227.572 244.306 228.535C243.323 229.498 242.13 229.975 240.719 229.975C239.307 229.975 238.106 229.498 237.131 228.543C236.156 227.588 235.661 226.383 235.661 224.942C235.661 223.502 236.148 222.33 237.123 221.358V221.35ZM238.4 227.387C239.038 228.024 239.811 228.342 240.719 228.342C241.626 228.342 242.433 228.024 243.055 227.387C243.685 226.751 243.996 225.939 243.996 224.934C243.996 223.929 243.676 223.125 243.029 222.48C242.382 221.844 241.618 221.526 240.719 221.526C239.82 221.526 239.038 221.844 238.4 222.48C237.761 223.117 237.442 223.929 237.442 224.934C237.442 225.939 237.761 226.743 238.4 227.387Z" fill="white"/>
<path d="M254.843 229.866L249.39 223.15V229.866H247.726V220.01H249.054L254.507 226.751V220.01H256.17V229.866H254.843Z" fill="white"/>
<path d="M262.472 220.01H265.564C266.555 220.01 267.42 220.136 268.16 220.387C268.899 220.638 269.479 220.998 269.908 221.45C270.328 221.903 270.647 222.413 270.84 222.966C271.042 223.519 271.134 224.138 271.134 224.808C271.134 226.307 270.655 227.53 269.697 228.459C268.74 229.397 267.303 229.858 265.387 229.858H262.48V220.002L262.472 220.01ZM264.177 221.618V228.267H265.505C266.816 228.267 267.782 227.957 268.412 227.346C269.042 226.734 269.353 225.889 269.353 224.817C269.353 222.69 268.084 221.618 265.538 221.618H264.177Z" fill="white"/>
<path d="M273.075 220.01H280.418V221.618H274.781V224.097H280.049V225.646H274.781V228.267H280.561V229.874H273.075V220.01Z" fill="white"/>
<path d="M281.704 220.01H290.056V221.618H286.737V229.866H285.031V221.618H281.712V220.01H281.704Z" fill="white"/>
<path d="M291.971 221.35C292.946 220.379 294.147 219.893 295.567 219.893C296.987 219.893 298.189 220.37 299.163 221.333C300.138 222.296 300.625 223.494 300.625 224.934C300.625 226.374 300.138 227.572 299.155 228.535C298.172 229.498 296.979 229.975 295.567 229.975C294.156 229.975 292.954 229.498 291.98 228.543C291.005 227.588 290.509 226.383 290.509 224.942C290.509 223.502 290.997 222.33 291.971 221.358V221.35ZM293.248 227.387C293.887 228.024 294.66 228.342 295.567 228.342C296.475 228.342 297.281 228.024 297.903 227.387C298.533 226.751 298.844 225.939 298.844 224.934C298.844 223.929 298.525 223.125 297.878 222.48C297.231 221.844 296.466 221.526 295.567 221.526C294.668 221.526 293.887 221.844 293.248 222.48C292.61 223.117 292.291 223.929 292.291 224.934C292.291 225.939 292.61 226.743 293.248 227.387Z" fill="white"/>
<path d="M306.876 224.867L310.582 229.866H308.49L305.851 226.249L303.213 229.866H301.138L304.843 224.867L301.298 220.01H303.348L305.877 223.46L308.406 220.01H310.473L306.902 224.867H306.876Z" fill="white"/>
<path d="M323.832 229.866C323.622 229.715 323.21 229.355 322.588 228.786C321.74 229.59 320.698 230 319.454 230C318.295 230 317.362 229.74 316.665 229.221C315.967 228.702 315.615 228.024 315.615 227.203C315.615 226.81 315.69 226.441 315.841 226.115C315.993 225.788 316.22 225.47 316.53 225.185C316.841 224.9 317.127 224.666 317.379 224.498C317.631 224.323 317.976 224.105 318.412 223.845C317.816 223.092 317.522 222.397 317.522 221.76C317.522 221.224 317.724 220.781 318.135 220.429C318.547 220.077 319.118 219.901 319.849 219.901C320.639 219.901 321.236 220.069 321.63 220.395C322.025 220.722 322.227 221.182 322.227 221.76C322.227 222.179 322.076 222.606 321.782 223.016C321.488 223.435 321.093 223.803 320.605 224.138C320.925 224.666 321.588 225.461 322.58 226.517C323.244 225.604 323.571 224.465 323.571 223.083H325.21C325.21 223.912 325.075 224.758 324.806 225.629C324.538 226.5 324.168 227.22 323.697 227.781C324.386 228.543 325.159 229.238 326.016 229.883H323.84L323.832 229.866ZM320.605 228.233C320.958 228.082 321.219 227.89 321.412 227.655C320.379 226.491 319.656 225.646 319.261 225.11C318.564 225.545 318.085 225.889 317.816 226.148C317.547 226.408 317.413 226.701 317.413 227.044C317.413 227.421 317.597 227.747 317.967 228.041C318.337 228.334 318.849 228.468 319.522 228.468C319.9 228.468 320.261 228.392 320.605 228.242V228.233ZM319.774 223.008C320.253 222.673 320.496 222.321 320.496 221.953C320.496 221.752 320.446 221.601 320.345 221.484C320.244 221.367 320.084 221.308 319.883 221.308C319.463 221.308 319.244 221.526 319.244 221.97C319.244 222.204 319.421 222.547 319.782 223.008H319.774Z" fill="white"/>
<path d="M331.352 229.866V220.01H335.233C335.981 220.01 336.611 220.094 337.141 220.261C337.67 220.429 338.073 220.663 338.351 220.956C338.628 221.249 338.829 221.576 338.947 221.919C339.073 222.271 339.132 222.648 339.132 223.075C339.132 223.753 338.93 224.348 338.535 224.867C338.14 225.386 337.611 225.738 336.956 225.922L339.922 229.866H337.846L335.149 226.249H333.057V229.866H331.343H331.352ZM333.066 221.618V224.649H335.284C335.931 224.649 336.443 224.507 336.813 224.231C337.183 223.954 337.367 223.569 337.367 223.083C337.367 222.598 337.208 222.254 336.88 222.003C336.552 221.752 335.998 221.626 335.208 221.626H333.074L333.066 221.618Z" fill="white"/>
<path d="M341.493 220.01H348.836V221.618H343.199V224.097H348.467V225.646H343.199V228.267H348.979V229.874H341.493V220.01Z" fill="white"/>
<path d="M359.675 228.149C359.272 228.719 358.709 229.171 358.003 229.498C357.289 229.824 356.516 229.983 355.667 229.983C354.113 229.983 352.878 229.523 351.962 228.61C351.046 227.697 350.584 226.475 350.584 224.942C350.584 223.502 351.046 222.305 351.987 221.342C352.92 220.379 354.138 219.901 355.65 219.901C356.516 219.901 357.297 220.06 357.978 220.37C358.658 220.68 359.179 221.099 359.532 221.601L358.398 222.673C357.709 221.911 356.818 221.534 355.726 221.534C354.709 221.534 353.894 221.844 353.281 222.464C352.668 223.083 352.365 223.912 352.365 224.942C352.365 225.972 352.684 226.793 353.315 227.413C353.953 228.041 354.777 228.35 355.793 228.35C356.986 228.35 357.952 227.915 358.675 227.052L359.675 228.149Z" fill="white"/>
<path d="M361.943 221.35C362.918 220.379 364.12 219.893 365.54 219.893C366.959 219.893 368.161 220.37 369.136 221.333C370.11 222.296 370.598 223.494 370.598 224.934C370.598 226.374 370.11 227.572 369.127 228.535C368.144 229.498 366.951 229.975 365.54 229.975C364.128 229.975 362.926 229.498 361.952 228.543C360.977 227.588 360.481 226.383 360.481 224.942C360.481 223.502 360.969 222.33 361.943 221.358V221.35ZM363.221 227.387C363.859 228.024 364.632 228.342 365.54 228.342C366.447 228.342 367.254 228.024 367.875 227.387C368.505 226.751 368.816 225.939 368.816 224.934C368.816 223.929 368.497 223.125 367.85 222.48C367.203 221.844 366.439 221.526 365.54 221.526C364.641 221.526 363.859 221.844 363.221 222.48C362.582 223.117 362.263 223.929 362.263 224.934C362.263 225.939 362.582 226.743 363.221 227.387Z" fill="white"/>
<path d="M376.891 229.866H375.672L370.967 220.01H372.816L376.294 227.404L379.546 220.01H381.352L376.891 229.866Z" fill="white"/>
<path d="M382.755 220.01H390.099V221.618H384.461V224.097H389.729V225.646H384.461V228.267H390.242V229.874H382.755V220.01Z" fill="white"/>
<path d="M392.359 229.866V220.01H396.241C396.988 220.01 397.619 220.094 398.148 220.261C398.677 220.429 399.08 220.663 399.358 220.956C399.635 221.249 399.837 221.576 399.954 221.919C400.08 222.271 400.139 222.648 400.139 223.075C400.139 223.753 399.938 224.348 399.543 224.867C399.148 225.386 398.618 225.738 397.963 225.922L400.929 229.866H398.854L396.157 226.249H394.064V229.866H392.35H392.359ZM394.073 221.618V224.649H396.291C396.938 224.649 397.45 224.507 397.82 224.231C398.19 223.954 398.375 223.569 398.375 223.083C398.375 222.598 398.215 222.254 397.887 222.003C397.56 221.752 397.005 221.626 396.215 221.626H394.081L394.073 221.618Z" fill="white"/>
<path d="M406.432 225.595V229.866H404.727V225.595L400.753 220.002H402.87L405.6 223.929L408.382 220.002H410.432L406.432 225.595Z" fill="white"/>
<path d="M424.211 228.149C423.808 228.719 423.245 229.171 422.539 229.498C421.825 229.824 421.052 229.983 420.203 229.983C418.649 229.983 417.414 229.523 416.498 228.61C415.582 227.697 415.12 226.475 415.12 224.942C415.12 223.502 415.582 222.305 416.523 221.342C417.456 220.379 418.674 219.901 420.186 219.901C421.052 219.901 421.833 220.06 422.514 220.37C423.194 220.68 423.715 221.099 424.068 221.601L422.934 222.673C422.245 221.911 421.354 221.534 420.262 221.534C419.245 221.534 418.43 221.844 417.817 222.464C417.204 223.083 416.901 223.912 416.901 224.942C416.901 225.972 417.22 226.793 417.851 227.413C418.489 228.041 419.313 228.35 420.329 228.35C421.522 228.35 422.489 227.915 423.211 227.052L424.211 228.149Z" fill="white"/>
<path d="M425.908 220.01H433.252V221.618H427.614V224.097H432.882V225.646H427.614V228.267H433.394V229.874H425.908V220.01Z" fill="white"/>
<path d="M442.628 229.866L437.175 223.15V229.866H435.512V220.01H436.839L442.292 226.751V220.01H443.956V229.866H442.628Z" fill="white"/>
<path d="M445.451 220.01H453.803V221.618H450.484V229.866H448.779V221.618H445.46V220.01H445.451Z" fill="white"/>
<path d="M455.299 220.01H462.642V221.618H457.004V224.097H462.272V225.646H457.004V228.267H462.785V229.874H455.299V220.01Z" fill="white"/>
<path d="M464.902 229.866V220.01H468.784C469.532 220.01 470.162 220.094 470.691 220.261C471.22 220.429 471.624 220.663 471.901 220.956C472.178 221.249 472.38 221.576 472.497 221.919C472.624 222.271 472.682 222.648 472.682 223.075C472.682 223.753 472.481 224.348 472.086 224.867C471.691 225.386 471.162 225.738 470.506 225.922L473.472 229.866H471.397L468.7 226.249H466.608V229.866H464.894H464.902ZM466.616 221.618V224.649H468.834C469.481 224.649 469.994 224.507 470.363 224.231C470.733 223.954 470.918 223.569 470.918 223.083C470.918 222.598 470.758 222.254 470.431 222.003C470.103 221.752 469.548 221.626 468.759 221.626H466.624L466.616 221.618Z" fill="white"/>
</svg>
