<svg width="645" height="300" viewBox="0 0 645 300" fill="none" xmlns="http://www.w3.org/2000/svg">
<rect width="645" height="300" fill="#083045"/>
<path d="M322.202 149.897C300.365 149.897 282.603 132.202 282.603 110.444C282.603 88.6871 300.365 71 322.202 71C344.039 71 361.775 88.6955 361.775 110.453C361.775 132.21 344.022 149.905 322.202 149.905V149.897ZM322.202 74.1488C302.104 74.1488 285.762 90.4374 285.762 110.453C285.762 130.468 302.113 146.757 322.202 146.757C342.291 146.757 358.616 130.468 358.616 110.453C358.616 90.4374 342.274 74.1488 322.202 74.1488Z" fill="white"/>
<path d="M334.654 130.887L322.681 124.723C322.529 124.648 322.361 124.606 322.193 124.606C322.025 124.606 321.857 124.648 321.706 124.723L309.733 130.887C309.229 131.146 309.019 131.758 309.254 132.277C309.49 132.796 310.094 133.039 310.624 132.821L321.807 128.5C321.933 128.45 322.067 128.425 322.202 128.425C322.336 128.425 322.471 128.45 322.597 128.5L333.78 132.821C334.309 133.039 334.914 132.796 335.149 132.277C335.385 131.758 335.175 131.146 334.67 130.887H334.654Z" fill="#F9AA19"/>
<path d="M350.71 109.381L333.133 108.585C332.091 108.535 331.73 107.187 332.604 106.634L347.433 97.1622C347.912 96.8607 348.063 96.2326 347.786 95.7385C347.5 95.2444 346.879 95.0602 346.374 95.3198L330.73 103.385C329.806 103.862 328.814 102.874 329.293 101.952L337.393 86.359C337.653 85.8565 337.477 85.2368 336.981 84.9521H336.964C336.468 84.659 335.838 84.8097 335.536 85.2871L326.042 100.077C325.479 100.948 324.126 100.587 324.084 99.5574L323.269 82.0126C323.244 81.4431 322.773 80.9993 322.202 80.9993H322.193C321.622 80.9993 321.152 81.4431 321.126 82.0126L320.32 99.549C320.269 100.587 318.917 100.948 318.362 100.068L308.868 85.2787C308.557 84.8013 307.927 84.6506 307.439 84.9353H307.423C306.935 85.2284 306.75 85.8482 307.011 86.3506L315.119 101.944C315.598 102.865 314.606 103.854 313.682 103.376L298.046 95.3031C297.542 95.0435 296.92 95.2193 296.634 95.7134C296.349 96.2159 296.5 96.844 296.979 97.1539L311.808 106.626C312.682 107.187 312.321 108.535 311.279 108.577L293.694 109.372C293.122 109.398 292.677 109.866 292.677 110.436C292.677 111.014 293.122 111.474 293.694 111.508L311.279 112.312C312.321 112.362 312.682 113.71 311.8 114.263L296.97 123.726C296.492 124.036 296.34 124.664 296.626 125.15V125.167C296.92 125.653 297.542 125.837 298.046 125.577L321.723 113.359C322.034 113.2 322.395 113.2 322.706 113.359L346.383 125.577C346.887 125.837 347.517 125.653 347.794 125.158C348.072 124.664 347.92 124.036 347.442 123.735L332.612 114.272C331.738 113.71 332.099 112.362 333.141 112.32L350.718 111.516C351.29 111.491 351.735 111.022 351.735 110.453C351.735 109.875 351.29 109.414 350.718 109.381H350.71Z" fill="#F9AA19"/>
<path d="M350.794 187.566C352.046 186.134 352.684 184.409 352.684 182.449C352.684 176.888 349.063 174.074 341.913 174.074H331.251V201.677H335.267V191.058H341.98L350.063 201.677H354.987L346.215 190.279C348.089 189.827 349.626 188.914 350.794 187.574V187.566ZM335.267 177.843H341.787C346.358 177.843 348.584 179.35 348.584 182.449C348.584 183.931 348.013 185.079 346.837 185.958C345.652 186.837 344.039 187.29 342.022 187.29H335.267V177.843Z" fill="#F9AA19"/>
<path d="M361.616 189.5H376.588V185.807H361.616V177.843H377.672V174.066H357.6V201.669H378.025V197.9H361.616V189.5Z" fill="#F9AA19"/>
<path d="M403.525 194.609C401.408 196.971 398.669 198.168 395.384 198.168C392.3 198.168 389.779 197.222 387.897 195.354C386.015 193.487 385.049 190.966 385.049 187.876C385.049 184.786 385.94 182.29 387.704 180.406C389.46 178.53 391.897 177.575 394.955 177.575C398.013 177.575 400.702 178.672 402.87 180.841L403.038 181.009L405.651 178.488L405.525 178.32C404.517 176.98 403.071 175.867 401.215 175.012C399.366 174.158 397.232 173.731 394.871 173.731C390.704 173.731 387.292 175.096 384.73 177.776C382.167 180.456 380.873 183.856 380.873 187.876C380.873 192.155 382.176 195.622 384.755 198.177C387.326 200.731 390.83 202.02 395.148 202.02C397.375 202.02 399.484 201.577 401.408 200.697C403.34 199.818 404.861 198.629 405.92 197.155L406.029 196.996L403.702 194.408L403.525 194.609Z" fill="#F9AA19"/>
<path d="M420.691 173.723C416.758 173.723 413.389 175.096 410.684 177.801C407.978 180.506 406.609 183.898 406.609 187.867C406.609 191.837 407.978 195.329 410.684 197.992C413.389 200.664 416.75 202.012 420.691 202.012C424.631 202.012 427.95 200.647 430.655 197.95C433.361 195.254 434.73 191.862 434.73 187.859C434.73 183.856 433.361 180.397 430.655 177.734C427.95 175.063 424.597 173.714 420.691 173.714V173.723ZM420.691 198.168C417.968 198.168 415.616 197.18 413.692 195.237C411.768 193.294 410.785 190.815 410.785 187.867C410.785 184.92 411.759 182.416 413.666 180.481C415.582 178.547 417.943 177.567 420.691 177.567C423.438 177.567 425.723 178.547 427.656 180.481C429.58 182.416 430.563 184.903 430.563 187.867C430.563 190.832 429.613 193.319 427.731 195.254C425.858 197.188 423.488 198.168 420.691 198.168Z" fill="#F9AA19"/>
<path d="M448.829 195.899L438.436 174.208L438.377 174.066H434.033L447.258 201.535L447.325 201.669H450.19L462.701 174.409L462.852 174.066H458.626L448.829 195.899Z" fill="#F9AA19"/>
<path d="M468.977 189.5H483.941V185.807H468.977V177.843H485.025V174.066H464.952V201.669H485.378V197.9H468.977V189.5Z" fill="#F9AA19"/>
<path d="M509.265 187.566C510.517 186.134 511.155 184.409 511.155 182.449C511.155 176.888 507.534 174.074 500.384 174.074H489.73V201.677H493.746V191.058H500.46L508.475 201.577L508.542 201.669H513.466L504.694 190.271C506.568 189.819 508.105 188.906 509.273 187.566H509.265ZM493.729 177.843H500.249C504.82 177.843 507.047 179.35 507.047 182.449C507.047 183.931 506.475 185.079 505.299 185.958C504.114 186.837 502.493 187.29 500.485 187.29H493.729V177.843Z" fill="#F9AA19"/>
<path d="M532.312 174.066L523.926 186.996L515.659 174.066H510.777L521.818 191.234V201.669H525.842V191.234L537 174.066H532.312Z" fill="#F9AA19"/>
<path d="M123.309 191.016H131.022V195.966C129.148 197.423 126.796 198.168 124.031 198.168C120.864 198.168 118.251 197.23 116.268 195.388C114.293 193.545 113.285 191.016 113.285 187.876C113.285 184.735 114.26 182.298 116.167 180.414C118.083 178.53 120.628 177.575 123.746 177.575C127.123 177.575 129.761 178.563 131.601 180.523L131.77 180.707L134.374 178.094L134.231 177.927C131.929 175.146 128.316 173.731 123.502 173.731C119.41 173.731 115.932 175.113 113.167 177.826C110.403 180.548 109 183.931 109 187.876C109 192.113 110.42 195.564 113.209 198.143C115.999 200.714 119.612 202.02 123.939 202.02C126.006 202.02 128.056 201.644 130.039 200.898C132.022 200.153 133.66 199.123 134.903 197.842L134.971 197.775V187.323H123.309V191.016Z" fill="white"/>
<path d="M159.261 189.417C159.261 192.138 158.606 194.299 157.32 195.848C156.043 197.381 154.153 198.168 151.716 198.168C149.279 198.168 147.355 197.381 145.793 195.815C144.23 194.249 143.448 192.038 143.448 189.224V174.066H139.331V189.727C139.331 193.604 140.524 196.644 142.885 198.78C145.238 200.907 148.204 201.979 151.716 201.979C154.9 201.979 157.673 200.965 159.942 198.955C162.219 196.937 163.378 193.914 163.378 189.961V174.066H159.261V189.417Z" fill="white"/>
<path d="M180.266 173.991H177.082L164.605 201.669H168.848L171.923 194.81H185.316L188.433 201.669H192.752L180.333 174.133L180.266 173.991ZM173.494 191.234L178.603 179.744L183.745 191.234H173.494Z" fill="white"/>
<path d="M215.807 187.566C217.092 186.134 217.748 184.409 217.748 182.449C217.748 176.888 214.026 174.074 206.682 174.074H195.734V201.677H199.851V191.058H206.766L215.076 201.677H220.125L211.11 190.279C213.034 189.827 214.614 188.914 215.815 187.574L215.807 187.566ZM199.843 177.843H206.556C211.261 177.843 213.547 179.35 213.547 182.449C213.547 183.931 212.958 185.079 211.749 185.958C210.53 186.837 208.867 187.29 206.8 187.29H199.851V177.851L199.843 177.843Z" fill="white"/>
<path d="M244.441 178.094C243.248 176.83 241.593 175.833 239.534 175.13C237.484 174.426 235.039 174.066 232.283 174.066H223.411V201.669H231.88C237.14 201.669 241.173 200.337 243.87 197.708C246.567 195.078 247.936 191.636 247.936 187.482C247.936 185.631 247.65 183.898 247.079 182.349C246.516 180.791 245.617 179.359 244.432 178.103L244.441 178.094ZM232.124 197.9H227.528V177.843H232.199C236.215 177.843 239.173 178.714 240.979 180.431C242.786 182.148 243.702 184.518 243.702 187.482C243.702 190.656 242.744 193.21 240.853 195.078C238.963 196.945 236.022 197.892 232.115 197.892L232.124 197.9Z" fill="white"/>
<path d="M256.565 174.066H252.448V201.669H256.565V174.066Z" fill="white"/>
<path d="M275.218 173.991H272.033L259.556 201.669H263.799L266.874 194.81H280.267L283.384 201.669H287.703L275.285 174.133L275.218 173.991ZM268.446 191.234L273.554 179.744L278.696 191.234H268.446Z" fill="white"/>
<path d="M310.649 174.066V194.408L293.904 174.066H290.677V201.669H294.677V181.411L311.456 201.669H314.648V174.066H310.649Z" fill="white"/>
<path d="M164.605 224.012H119.864V226.525H164.605V224.012Z" fill="#F9AA19"/>
<path d="M525.657 224.012H481.454V226.525H525.657V224.012Z" fill="#F9AA19"/>
<path d="M184.837 229.883L179.384 223.166V229.883H177.72V220.026H179.048L184.501 226.767V220.026H186.164V229.883H184.837Z" fill="white"/>
<path d="M188.635 220.026H195.978V221.634H190.34V224.113H195.608V225.662H190.34V228.283H196.121V229.891H188.635V220.026Z" fill="white"/>
<path d="M207.968 229.883H206.539L204.12 223.024L201.775 229.883H200.339L197.255 220.026H199.036L201.137 226.843L203.439 220.026H204.842L207.186 226.809L209.194 220.026H210.892L207.968 229.883Z" fill="white"/>
<path d="M216.218 220.026H220.411C221.655 220.026 222.537 220.244 223.066 220.679C223.595 221.115 223.856 221.726 223.856 222.505C223.856 223.493 223.461 224.222 222.671 224.699C223.688 225.017 224.2 225.788 224.2 227.01C224.2 227.99 223.856 228.71 223.167 229.179C222.478 229.648 221.529 229.883 220.327 229.883H216.218V220.026ZM217.924 221.625V224.079H220.369C220.915 224.079 221.335 223.97 221.638 223.761C221.94 223.552 222.091 223.258 222.091 222.882C222.091 222.446 221.949 222.136 221.671 221.927C221.386 221.726 220.898 221.625 220.184 221.625H217.924ZM217.924 225.628V228.275H220.209C220.982 228.275 221.545 228.166 221.89 227.948C222.243 227.73 222.411 227.387 222.411 226.91C222.411 226.466 222.251 226.148 221.923 225.938C221.596 225.729 221.066 225.628 220.319 225.628H217.916H217.924Z" fill="white"/>
<path d="M226.242 229.883V220.026H230.124C230.872 220.026 231.502 220.11 232.031 220.277C232.56 220.445 232.964 220.679 233.241 220.972C233.518 221.265 233.72 221.592 233.838 221.935C233.964 222.287 234.022 222.664 234.022 223.091C234.022 223.769 233.821 224.364 233.426 224.883C233.031 225.402 232.502 225.754 231.846 225.938L234.812 229.883H232.737L230.04 226.265H227.948V229.883H226.234H226.242ZM227.956 221.625V224.657H230.174C230.821 224.657 231.334 224.515 231.703 224.238C232.073 223.962 232.258 223.577 232.258 223.091C232.258 222.605 232.098 222.262 231.771 222.011C231.443 221.759 230.888 221.634 230.099 221.634H227.965L227.956 221.625Z" fill="white"/>
<path d="M244.752 225.687C244.752 226.432 244.634 227.086 244.407 227.655C244.18 228.225 243.861 228.668 243.458 229.003C243.055 229.33 242.626 229.581 242.156 229.74C241.685 229.908 241.181 229.983 240.643 229.983C239.408 229.983 238.375 229.598 237.543 228.836C236.711 228.074 236.291 226.994 236.291 225.603V220.026H237.997V225.394C237.997 226.298 238.24 227.019 238.736 227.571C239.232 228.124 239.862 228.392 240.643 228.392C241.425 228.392 242.03 228.124 242.441 227.588C242.845 227.052 243.046 226.34 243.046 225.444V220.026H244.76V225.687H244.752Z" fill="white"/>
<path d="M254.254 229.883L248.802 223.166V229.883H247.138V220.026H248.465L253.918 226.767V220.026H255.582V229.883H254.254Z" fill="white"/>
<path d="M263.455 226.449C263.228 226.24 262.934 226.081 262.581 225.963C262.22 225.846 261.825 225.737 261.396 225.637C260.968 225.536 260.531 225.419 260.094 225.285C259.657 225.151 259.262 224.984 258.909 224.783C258.548 224.582 258.262 224.314 258.035 223.962C257.809 223.61 257.699 223.191 257.699 222.706C257.699 221.927 258.061 221.265 258.792 220.729C259.523 220.193 260.447 219.917 261.564 219.917C263.194 219.917 264.471 220.386 265.396 221.324L264.463 222.538C263.631 221.852 262.657 221.508 261.522 221.508C260.934 221.508 260.447 221.6 260.052 221.793C259.657 221.986 259.455 222.27 259.455 222.655C259.455 222.965 259.607 223.225 259.909 223.426C260.212 223.627 260.59 223.778 261.035 223.878C261.48 223.979 261.976 224.104 262.505 224.255C263.035 224.406 263.522 224.582 263.976 224.766C264.429 224.95 264.807 225.243 265.102 225.637C265.404 226.039 265.555 226.516 265.555 227.077C265.555 227.931 265.186 228.635 264.455 229.179C263.724 229.724 262.825 230 261.758 230C260.892 230 260.06 229.833 259.254 229.489C258.447 229.146 257.834 228.719 257.405 228.199L258.422 227.002C259.321 227.94 260.48 228.409 261.909 228.409C262.505 228.409 262.967 228.3 263.295 228.091C263.623 227.881 263.791 227.588 263.791 227.211C263.791 226.91 263.682 226.659 263.455 226.449Z" fill="white"/>
<path d="M277.192 229.883H275.764L273.344 223.024L271 229.883H269.563L266.479 220.026H268.261L270.361 226.843L272.663 220.026H274.066L276.411 226.809L278.419 220.026H280.116L277.192 229.883Z" fill="white"/>
<path d="M281.612 220.026H283.326V229.883H281.612V220.026Z" fill="white"/>
<path d="M294.374 228.166C293.971 228.735 293.408 229.188 292.702 229.514C291.988 229.841 291.215 230 290.366 230C288.812 230 287.577 229.539 286.661 228.627C285.745 227.714 285.283 226.491 285.283 224.958C285.283 223.518 285.745 222.32 286.686 221.357C287.619 220.394 288.837 219.917 290.35 219.917C291.215 219.917 291.996 220.076 292.677 220.386C293.358 220.696 293.879 221.115 294.231 221.617L293.097 222.689C292.408 221.927 291.518 221.55 290.425 221.55C289.409 221.55 288.594 221.86 287.98 222.48C287.367 223.099 287.064 223.928 287.064 224.958C287.064 225.989 287.384 226.809 288.014 227.429C288.652 228.057 289.476 228.367 290.492 228.367C291.686 228.367 292.652 227.931 293.374 227.069L294.374 228.166Z" fill="white"/>
<path d="M297.777 220.026V224.347L302.213 220.026H304.448L299.953 224.448L304.768 229.883H302.491L298.659 225.587L297.769 226.449V229.883H296.055V220.026H297.777Z" fill="white"/>
<path d="M318.564 228.166C318.16 228.735 317.597 229.188 316.892 229.514C316.178 229.841 315.405 230 314.556 230C313.002 230 311.766 229.539 310.851 228.627C309.935 227.714 309.473 226.491 309.473 224.958C309.473 223.518 309.935 222.32 310.876 221.357C311.808 220.394 313.027 219.917 314.539 219.917C315.405 219.917 316.186 220.076 316.867 220.386C317.547 220.696 318.068 221.115 318.421 221.617L317.287 222.689C316.598 221.927 315.707 221.55 314.615 221.55C313.598 221.55 312.783 221.86 312.17 222.48C311.556 223.099 311.254 223.928 311.254 224.958C311.254 225.989 311.573 226.809 312.203 227.429C312.842 228.057 313.665 228.367 314.682 228.367C315.875 228.367 316.841 227.931 317.564 227.069L318.564 228.166Z" fill="white"/>
<path d="M320.832 221.366C321.807 220.394 323.008 219.909 324.428 219.909C325.848 219.909 327.05 220.386 328.024 221.349C328.999 222.312 329.486 223.51 329.486 224.95C329.486 226.391 328.999 227.588 328.016 228.551C327.033 229.514 325.84 229.992 324.428 229.992C323.017 229.992 321.815 229.514 320.841 228.56C319.866 227.605 319.37 226.399 319.37 224.958C319.37 223.518 319.858 222.346 320.832 221.374V221.366ZM322.109 227.404C322.748 228.04 323.521 228.359 324.428 228.359C325.336 228.359 326.142 228.04 326.764 227.404C327.394 226.767 327.705 225.955 327.705 224.95C327.705 223.945 327.386 223.141 326.739 222.496C326.092 221.86 325.327 221.542 324.428 221.542C323.529 221.542 322.748 221.86 322.109 222.496C321.471 223.133 321.152 223.945 321.152 224.95C321.152 225.955 321.471 226.759 322.109 227.404Z" fill="white"/>
<path d="M339.796 225.687C339.796 226.432 339.678 227.086 339.451 227.655C339.224 228.225 338.905 228.668 338.502 229.003C338.098 229.33 337.67 229.581 337.199 229.74C336.729 229.908 336.225 229.983 335.687 229.983C334.452 229.983 333.419 229.598 332.587 228.836C331.755 228.074 331.335 226.994 331.335 225.603V220.026H333.04V225.394C333.04 226.298 333.284 227.019 333.78 227.571C334.276 228.124 334.906 228.392 335.687 228.392C336.468 228.392 337.073 228.124 337.485 227.588C337.888 227.052 338.09 226.34 338.09 225.444V220.026H339.804V225.687H339.796Z" fill="white"/>
<path d="M349.298 229.883L343.845 223.166V229.883H342.182V220.026H343.509L348.962 226.767V220.026H350.626V229.883H349.298Z" fill="white"/>
<path d="M358.499 226.449C358.272 226.24 357.978 226.081 357.625 225.963C357.264 225.846 356.869 225.737 356.44 225.637C356.012 225.536 355.575 225.419 355.138 225.285C354.701 225.151 354.306 224.984 353.953 224.783C353.592 224.582 353.306 224.314 353.079 223.962C352.852 223.61 352.743 223.191 352.743 222.706C352.743 221.927 353.105 221.265 353.835 220.729C354.566 220.193 355.491 219.917 356.608 219.917C358.238 219.917 359.515 220.386 360.439 221.324L359.507 222.538C358.675 221.852 357.7 221.508 356.566 221.508C355.978 221.508 355.491 221.6 355.096 221.793C354.701 221.986 354.499 222.27 354.499 222.655C354.499 222.965 354.65 223.225 354.953 223.426C355.255 223.627 355.634 223.778 356.079 223.878C356.524 223.979 357.02 224.104 357.549 224.255C358.079 224.406 358.566 224.582 359.02 224.766C359.473 224.95 359.851 225.243 360.145 225.637C360.448 226.039 360.599 226.516 360.599 227.077C360.599 227.931 360.229 228.635 359.498 229.179C358.767 229.724 357.868 230 356.801 230C355.936 230 355.104 229.833 354.298 229.489C353.491 229.146 352.878 228.719 352.449 228.199L353.466 227.002C354.365 227.94 355.524 228.409 356.953 228.409C357.549 228.409 358.011 228.3 358.339 228.091C358.667 227.881 358.835 227.588 358.835 227.211C358.835 226.91 358.725 226.659 358.499 226.449Z" fill="white"/>
<path d="M362.506 220.026H369.85V221.634H364.212V224.113H369.48V225.662H364.212V228.283H369.993V229.891H362.506V220.026Z" fill="white"/>
<path d="M372.11 220.026H373.824V228.275H379.436V229.883H372.118V220.026H372.11Z" fill="white"/>
<path d="M381.05 220.026H382.764V229.883H381.05V220.026Z" fill="white"/>
<path d="M392.35 229.883L386.898 223.166V229.883H385.234V220.026H386.561L392.014 226.767V220.026H393.678V229.883H392.35Z" fill="white"/>
<path d="M400.534 224.615H404.802V228.434C404.349 228.928 403.777 229.313 403.088 229.59C402.399 229.866 401.668 230 400.904 230C399.358 230 398.097 229.539 397.114 228.61C396.131 227.689 395.636 226.466 395.636 224.958C395.636 223.535 396.115 222.337 397.081 221.366C398.039 220.403 399.257 219.917 400.727 219.917C401.568 219.917 402.324 220.059 403.013 220.336C403.693 220.62 404.223 221.006 404.592 221.508L403.45 222.588C402.828 221.893 401.954 221.55 400.82 221.55C399.795 221.55 398.971 221.86 398.358 222.471C397.745 223.083 397.434 223.912 397.434 224.958C397.434 226.005 397.761 226.851 398.408 227.454C399.055 228.057 399.904 228.359 400.954 228.359C401.853 228.359 402.593 228.132 403.189 227.672V226.164H400.559V224.615H400.534Z" fill="white"/>
<path d="M419.145 228.166C418.741 228.735 418.178 229.188 417.473 229.514C416.758 229.841 415.985 230 415.137 230C413.582 230 412.347 229.539 411.431 228.627C410.516 227.714 410.054 226.491 410.054 224.958C410.054 223.518 410.516 222.32 411.457 221.357C412.389 220.394 413.608 219.917 415.12 219.917C415.985 219.917 416.767 220.076 417.447 220.386C418.128 220.696 418.649 221.115 419.002 221.617L417.867 222.689C417.178 221.927 416.288 221.55 415.196 221.55C414.179 221.55 413.364 221.86 412.751 222.48C412.137 223.099 411.835 223.928 411.835 224.958C411.835 225.989 412.154 226.809 412.784 227.429C413.423 228.057 414.246 228.367 415.263 228.367C416.456 228.367 417.422 227.931 418.145 227.069L419.145 228.166Z" fill="white"/>
<path d="M420.842 220.026H428.185V221.634H422.547V224.113H427.815V225.662H422.547V228.283H428.328V229.891H420.842V220.026Z" fill="white"/>
<path d="M437.57 229.883L432.117 223.166V229.883H430.454V220.026H431.781L437.234 226.767V220.026H438.898V229.883H437.57Z" fill="white"/>
<path d="M440.393 220.026H448.745V221.634H445.426V229.883H443.721V221.634H440.402V220.026H440.393Z" fill="white"/>
<path d="M450.232 220.026H457.575V221.634H451.938V224.113H457.206V225.662H451.938V228.283H457.718V229.891H450.232V220.026Z" fill="white"/>
<path d="M459.836 229.883V220.026H463.717C464.465 220.026 465.095 220.11 465.625 220.277C466.154 220.445 466.557 220.679 466.835 220.972C467.112 221.265 467.313 221.592 467.431 221.935C467.557 222.287 467.616 222.664 467.616 223.091C467.616 223.769 467.414 224.364 467.019 224.883C466.624 225.402 466.095 225.754 465.44 225.938L468.406 229.883H466.33L463.633 226.265H461.541V229.883H459.827H459.836ZM461.55 221.625V224.657H463.768C464.415 224.657 464.927 224.515 465.297 224.238C465.667 223.962 465.852 223.577 465.852 223.091C465.852 222.605 465.692 222.262 465.364 222.011C465.036 221.759 464.482 221.634 463.692 221.634H461.558L461.55 221.625Z" fill="white"/>
</svg>
