<svg width="645" height="300" viewBox="0 0 645 300" fill="none" xmlns="http://www.w3.org/2000/svg">
<rect width="645" height="300" fill="#083045"/>
<path d="M169.335 222.465H119.864V224.963H169.335V222.465Z" fill="#F9AA19"/>
<path d="M525.666 222.465H477.388V224.963H525.666V222.465Z" fill="#F9AA19"/>
<path d="M190.55 224.921H184.383V229.867H182.35V218.21H184.383V223.023H190.55V218.21H192.584V229.867H190.55V224.921Z" fill="white"/>
<path d="M196.642 219.801C197.801 218.652 199.23 218.077 200.918 218.077C202.607 218.077 204.035 218.643 205.195 219.776C206.354 220.908 206.934 222.332 206.934 224.039C206.934 225.745 206.354 227.153 205.187 228.293C204.019 229.434 202.599 230 200.918 230C199.238 230 197.818 229.434 196.65 228.301C195.482 227.169 194.902 225.745 194.902 224.039C194.902 222.332 195.482 220.95 196.642 219.801ZM198.162 226.936C198.927 227.694 199.843 228.068 200.918 228.068C201.994 228.068 202.952 227.694 203.699 226.944C204.447 226.195 204.817 225.229 204.817 224.039C204.817 222.848 204.43 221.899 203.666 221.141C202.901 220.384 201.985 220.009 200.918 220.009C199.851 220.009 198.927 220.384 198.162 221.133C197.398 221.882 197.02 222.848 197.02 224.039C197.02 225.229 197.398 226.178 198.162 226.936Z" fill="white"/>
<path d="M209.253 218.21H214.244C215.723 218.21 216.773 218.469 217.403 218.985C218.033 219.501 218.344 220.217 218.344 221.141C218.344 222.307 217.874 223.173 216.933 223.739C218.143 224.114 218.747 225.029 218.747 226.47C218.747 227.627 218.336 228.476 217.521 229.034C216.706 229.592 215.58 229.867 214.143 229.867H209.253V218.21ZM211.286 220.109V223.006H214.194C214.841 223.006 215.345 222.881 215.706 222.632C216.067 222.382 216.244 222.032 216.244 221.591C216.244 221.083 216.076 220.708 215.74 220.467C215.403 220.225 214.815 220.109 213.975 220.109H211.286ZM211.286 224.838V227.968H214.009C214.925 227.968 215.597 227.844 216.008 227.585C216.42 227.327 216.63 226.919 216.63 226.353C216.63 225.829 216.437 225.446 216.05 225.204C215.664 224.963 215.025 224.838 214.143 224.838H211.286Z" fill="white"/>
<path d="M222.302 219.801C223.461 218.652 224.889 218.077 226.578 218.077C228.267 218.077 229.695 218.643 230.855 219.776C232.014 220.908 232.594 222.332 232.594 224.039C232.594 225.745 232.014 227.153 230.846 228.293C229.679 229.434 228.259 230 226.578 230C224.898 230 223.478 229.434 222.31 228.301C221.142 227.169 220.562 225.745 220.562 224.039C220.562 222.332 221.142 220.95 222.302 219.801ZM223.822 226.936C224.587 227.694 225.503 228.068 226.578 228.068C227.654 228.068 228.611 227.694 229.359 226.944C230.107 226.195 230.477 225.229 230.477 224.039C230.477 222.848 230.09 221.899 229.326 221.141C228.561 220.384 227.645 220.009 226.578 220.009C225.511 220.009 224.587 220.384 223.822 221.133C223.058 221.882 222.68 222.848 222.68 224.039C222.68 225.229 223.058 226.178 223.822 226.936Z" fill="white"/>
<path d="M234.913 218.21H236.946V223.323L242.223 218.21H244.878L239.534 223.439L245.264 229.867H242.559L238.005 224.788L236.946 225.804V229.867H234.913V218.21Z" fill="white"/>
<path d="M246.928 218.21H255.666V220.109H248.961V223.039H255.229V224.871H248.961V227.968H255.834V229.867H246.928V218.21Z" fill="white"/>
<path d="M266.824 229.867L260.338 221.924V229.867H258.355V218.21H259.934L266.421 226.187V218.21H268.404V229.867H266.824Z" fill="white"/>
<path d="M286.098 227.835C285.619 228.51 284.956 229.043 284.107 229.426C283.258 229.809 282.334 230 281.326 230C279.477 230 278.007 229.459 276.915 228.376C275.823 227.294 275.276 225.845 275.276 224.039C275.276 222.34 275.831 220.925 276.94 219.784C278.049 218.643 279.503 218.077 281.292 218.077C282.326 218.077 283.25 218.26 284.065 218.635C284.88 219.01 285.502 219.493 285.913 220.092L284.569 221.358C283.754 220.458 282.695 220.009 281.393 220.009C280.183 220.009 279.217 220.375 278.486 221.108C277.755 221.841 277.394 222.815 277.394 224.039C277.394 225.263 277.772 226.22 278.528 226.961C279.284 227.702 280.267 228.068 281.477 228.068C282.897 228.068 284.04 227.56 284.905 226.536L286.098 227.835Z" fill="white"/>
<path d="M288.795 219.801C289.955 218.652 291.383 218.077 293.072 218.077C294.761 218.077 296.189 218.643 297.349 219.776C298.508 220.908 299.088 222.332 299.088 224.039C299.088 225.745 298.508 227.153 297.34 228.293C296.172 229.434 294.752 230 293.072 230C291.392 230 289.972 229.434 288.804 228.301C287.636 227.169 287.056 225.745 287.056 224.039C287.056 222.332 287.636 220.95 288.795 219.801ZM290.316 226.936C291.081 227.694 291.996 228.068 293.072 228.068C294.147 228.068 295.105 227.694 295.853 226.944C296.601 226.195 296.97 225.229 296.97 224.039C296.97 222.848 296.584 221.899 295.819 221.141C295.055 220.384 294.139 220.009 293.072 220.009C292.005 220.009 291.081 220.384 290.316 221.133C289.551 221.882 289.173 222.848 289.173 224.039C289.173 225.229 289.551 226.178 290.316 226.936Z" fill="white"/>
<path d="M311.355 224.905C311.355 225.779 311.22 226.553 310.943 227.227C310.666 227.902 310.296 228.426 309.817 228.818C309.338 229.209 308.826 229.5 308.263 229.692C307.7 229.883 307.103 229.983 306.465 229.983C304.994 229.983 303.768 229.534 302.776 228.626C301.785 227.719 301.289 226.445 301.289 224.805V218.21H303.322V224.555C303.322 225.621 303.616 226.478 304.196 227.128C304.776 227.777 305.532 228.102 306.465 228.102C307.397 228.102 308.12 227.785 308.599 227.153C309.078 226.52 309.321 225.679 309.321 224.621V218.21H311.355V224.905Z" fill="white"/>
<path d="M322.664 229.867L316.178 221.924V229.867H314.195V218.21H315.774L322.261 226.187V218.21H324.244V229.867H322.664Z" fill="white"/>
<path d="M333.603 225.804C333.335 225.562 332.99 225.371 332.562 225.229C332.133 225.088 331.663 224.963 331.15 224.846C330.637 224.73 330.117 224.588 329.604 224.43C329.091 224.272 328.621 224.072 328.192 223.839C327.764 223.606 327.419 223.281 327.151 222.865C326.882 222.448 326.747 221.949 326.747 221.374C326.747 220.45 327.184 219.676 328.05 219.035C328.915 218.394 330.016 218.077 331.352 218.077C333.292 218.077 334.805 218.635 335.906 219.742L334.796 221.174C333.813 220.367 332.646 219.959 331.301 219.959C330.604 219.959 330.024 220.075 329.554 220.3C329.083 220.525 328.848 220.866 328.848 221.324C328.848 221.691 329.024 221.99 329.386 222.232C329.747 222.473 330.192 222.648 330.73 222.765C331.268 222.881 331.847 223.031 332.477 223.214C333.108 223.398 333.687 223.597 334.225 223.814C334.763 224.03 335.208 224.372 335.569 224.846C335.931 225.321 336.107 225.887 336.107 226.553C336.107 227.56 335.67 228.393 334.796 229.034C333.923 229.675 332.856 230 331.587 230C330.553 230 329.562 229.8 328.613 229.392C327.663 228.984 326.924 228.476 326.411 227.869L327.621 226.453C328.688 227.56 330.066 228.118 331.772 228.118C332.478 228.118 333.024 227.993 333.419 227.744C333.813 227.494 334.007 227.144 334.007 226.703C334.007 226.345 333.872 226.045 333.603 225.804Z" fill="white"/>
<path d="M338.376 218.21H347.114V220.109H340.409V223.039H346.677V224.871H340.409V227.968H347.282V229.867H338.376V218.21Z" fill="white"/>
<path d="M349.794 218.21H351.827V227.968H358.499V229.867H349.794V218.21Z" fill="white"/>
<path d="M360.439 218.21H362.473V229.867H360.439V218.21Z" fill="white"/>
<path d="M373.883 229.867L367.396 221.924V229.867H365.413V218.21H366.993L373.479 226.187V218.21H375.462V229.867H373.883Z" fill="white"/>
<path d="M383.612 223.639H388.687V228.152C388.149 228.743 387.469 229.192 386.645 229.517C385.822 229.842 384.957 230 384.049 230C382.209 230 380.705 229.45 379.537 228.36C378.369 227.269 377.781 225.829 377.781 224.039C377.781 222.348 378.353 220.933 379.495 219.792C380.638 218.652 382.083 218.077 383.831 218.077C384.831 218.077 385.73 218.244 386.545 218.577C387.36 218.91 387.981 219.368 388.418 219.959L387.057 221.241C386.318 220.417 385.276 220.009 383.932 220.009C382.713 220.009 381.73 220.375 380.999 221.1C380.268 221.824 379.899 222.806 379.899 224.039C379.899 225.271 380.285 226.278 381.058 226.994C381.831 227.71 382.839 228.068 384.083 228.068C385.15 228.068 386.032 227.794 386.738 227.252V225.471H383.612V223.639Z" fill="white"/>
<path d="M405.76 227.835C405.281 228.51 404.617 229.043 403.769 229.426C402.92 229.809 401.996 230 400.988 230C399.139 230 397.669 229.459 396.577 228.376C395.484 227.294 394.938 225.845 394.938 224.039C394.938 222.34 395.493 220.925 396.602 219.784C397.711 218.643 399.164 218.077 400.954 218.077C401.988 218.077 402.912 218.26 403.727 218.635C404.542 219.01 405.164 219.493 405.575 220.092L404.231 221.358C403.416 220.458 402.357 220.009 401.055 220.009C399.845 220.009 398.879 220.375 398.148 221.108C397.417 221.841 397.056 222.815 397.056 224.039C397.056 225.263 397.434 226.22 398.19 226.961C398.946 227.702 399.929 228.068 401.139 228.068C402.559 228.068 403.702 227.56 404.567 226.536L405.76 227.835Z" fill="white"/>
<path d="M407.768 218.21H416.506V220.109H409.801V223.039H416.069V224.871H409.801V227.968H416.674V229.867H407.768V218.21Z" fill="white"/>
<path d="M427.673 229.867L421.186 221.924V229.867H419.203V218.21H420.783L427.269 226.187V218.21H429.252V229.867H427.673Z" fill="white"/>
<path d="M431.025 218.21H440.956V220.109H437.007V229.867H434.974V220.109H431.025V218.21Z" fill="white"/>
<path d="M442.737 218.21H451.476V220.109H444.771V223.039H451.039V224.871H444.771V227.968H451.644V229.867H442.737V218.21Z" fill="white"/>
<path d="M454.164 229.867V218.21H458.785C459.668 218.21 460.424 218.31 461.054 218.51C461.684 218.71 462.163 218.985 462.491 219.334C462.818 219.684 463.062 220.067 463.205 220.475C463.348 220.883 463.423 221.341 463.423 221.841C463.423 222.64 463.188 223.348 462.718 223.955C462.247 224.563 461.617 224.979 460.835 225.204L464.364 229.867H461.894L458.685 225.587H456.198V229.867H454.164ZM456.198 220.109V223.689H458.836C459.609 223.689 460.214 223.522 460.651 223.198C461.088 222.873 461.306 222.415 461.306 221.841C461.306 221.266 461.113 220.858 460.726 220.558C460.34 220.259 459.676 220.109 458.735 220.109H456.198Z" fill="white"/>
<path d="M322.202 148.447C300.365 148.447 282.603 130.854 282.603 109.224C282.603 87.5928 300.365 70 322.202 70C344.039 70 361.775 87.5928 361.775 109.224C361.775 130.854 344.022 148.447 322.202 148.447ZM322.202 73.1306C302.104 73.1306 285.762 89.3246 285.762 109.224C285.762 129.123 302.113 145.317 322.202 145.317C342.291 145.317 358.616 129.123 358.616 109.224C358.616 89.3246 342.274 73.1306 322.202 73.1306Z" fill="white"/>
<path d="M334.654 129.539L322.681 123.411C322.529 123.336 322.361 123.294 322.193 123.294C322.025 123.294 321.857 123.336 321.706 123.411L309.733 129.539C309.229 129.797 309.019 130.405 309.254 130.921C309.49 131.437 310.094 131.679 310.624 131.462L321.807 127.166C321.933 127.116 322.067 127.091 322.202 127.091C322.336 127.091 322.471 127.116 322.597 127.166L333.78 131.462C334.309 131.679 334.914 131.437 335.149 130.921C335.385 130.405 335.175 129.797 334.67 129.539H334.654Z" fill="#F9AA19"/>
<path d="M350.71 108.158L333.133 107.367C332.091 107.317 331.73 105.976 332.604 105.427L347.433 96.0103C347.912 95.7106 348.063 95.0861 347.786 94.5949C347.5 94.1037 346.879 93.9205 346.374 94.1786L330.73 102.196C329.806 102.671 328.814 101.689 329.293 100.773L337.393 85.2698C337.653 84.7703 337.477 84.1541 336.981 83.8711H336.964C336.468 83.5796 335.838 83.7295 335.536 84.2041L326.042 98.9077C325.479 99.7736 324.126 99.4156 324.084 98.3915L323.269 80.9486C323.244 80.3825 322.773 79.9412 322.202 79.9412H322.193C321.622 79.9412 321.152 80.3825 321.126 80.9486L320.32 98.3832C320.269 99.4156 318.917 99.7736 318.362 98.8994L308.868 84.1958C308.557 83.7212 307.927 83.5713 307.439 83.8544H307.423C306.935 84.1458 306.75 84.7619 307.011 85.2615L315.119 100.764C315.598 101.68 314.606 102.663 313.682 102.188L298.046 94.1619C297.542 93.9038 296.92 94.0787 296.634 94.5699C296.349 95.0695 296.5 95.6939 296.979 96.002L311.808 105.419C312.682 105.976 312.321 107.317 311.279 107.359L293.694 108.15C293.122 108.175 292.677 108.641 292.677 109.207C292.677 109.781 293.122 110.239 293.694 110.273L311.279 111.072C312.321 111.122 312.682 112.462 311.8 113.012L296.97 122.42C296.492 122.728 296.34 123.353 296.626 123.836V123.852C296.92 124.335 297.542 124.518 298.046 124.26L321.723 112.113C322.034 111.955 322.395 111.955 322.706 112.113L346.383 124.26C346.887 124.518 347.517 124.335 347.794 123.844C348.072 123.353 347.92 122.728 347.442 122.429L332.612 113.02C331.738 112.462 332.099 111.122 333.141 111.08L350.718 110.281C351.29 110.256 351.735 109.79 351.735 109.224C351.735 108.649 351.29 108.191 350.718 108.158H350.71Z" fill="#F9AA19"/>
<path d="M350.794 185.889C352.046 184.465 352.676 182.75 352.676 180.802C352.676 175.273 349.055 172.476 341.905 172.476H331.242V199.918H335.259V189.361H341.972L349.987 199.818L350.055 199.91H354.978L346.206 188.57C348.08 188.12 349.618 187.213 350.786 185.881L350.794 185.889ZM335.267 176.223H341.787C346.358 176.223 348.584 177.721 348.584 180.802C348.584 182.276 348.013 183.416 346.837 184.29C345.652 185.165 344.039 185.614 342.022 185.614H335.267V176.223Z" fill="#F9AA19"/>
<path d="M361.624 187.812H376.588V184.141H361.624V176.223H377.672V172.468H357.6V199.91H378.025V196.163H361.624V187.812Z" fill="#F9AA19"/>
<path d="M403.525 192.891C401.408 195.239 398.669 196.43 395.384 196.43C392.3 196.43 389.779 195.489 387.897 193.632C386.007 191.776 385.049 189.269 385.049 186.197C385.049 183.125 385.94 180.644 387.704 178.77C389.46 176.905 391.905 175.956 394.955 175.956C398.005 175.956 400.702 177.047 402.87 179.203L403.038 179.37L405.651 176.864L405.525 176.697C404.517 175.365 403.071 174.258 401.215 173.408C399.366 172.559 397.232 172.135 394.871 172.135C390.704 172.135 387.292 173.492 384.73 176.156C382.167 178.82 380.873 182.201 380.873 186.197C380.873 190.452 382.176 193.899 384.755 196.438C387.326 198.977 390.83 200.26 395.148 200.26C397.375 200.26 399.484 199.818 401.408 198.944C403.34 198.07 404.861 196.888 405.92 195.422L406.029 195.264L403.702 192.691L403.525 192.891Z" fill="#F9AA19"/>
<path d="M420.691 172.126C416.758 172.126 413.389 173.492 410.684 176.181C407.978 178.87 406.609 182.242 406.609 186.189C406.609 190.135 407.978 193.607 410.684 196.255C413.389 198.911 416.75 200.251 420.691 200.251C424.631 200.251 427.95 198.894 430.655 196.213C433.361 193.532 434.73 190.16 434.73 186.18C434.73 182.201 433.361 178.762 430.655 176.114C427.95 173.458 424.597 172.118 420.691 172.118V172.126ZM420.691 196.43C417.968 196.43 415.616 195.447 413.692 193.516C411.768 191.584 410.785 189.12 410.785 186.189C410.785 183.258 411.759 180.769 413.666 178.845C415.582 176.922 417.943 175.948 420.682 175.948C423.421 175.948 425.715 176.922 427.647 178.845C429.571 180.769 430.555 183.241 430.555 186.189C430.555 189.136 429.605 191.609 427.723 193.532C425.849 195.456 423.48 196.43 420.682 196.43H420.691Z" fill="#F9AA19"/>
<path d="M448.829 194.173L438.436 172.609L438.377 172.468H434.033L447.258 199.777L447.325 199.91H450.19L462.701 172.809L462.852 172.468H458.626L448.829 194.173Z" fill="#F9AA19"/>
<path d="M468.977 187.812H483.941V184.141H468.977V176.223H485.025V172.468H464.952V199.91H485.378V196.163H468.977V187.812Z" fill="#F9AA19"/>
<path d="M509.265 185.889C510.517 184.465 511.155 182.75 511.155 180.802C511.155 175.273 507.534 172.476 500.384 172.476H489.73V199.918H493.746V189.361H500.46L508.475 199.818L508.542 199.91H513.466L504.694 188.57C506.568 188.12 508.105 187.213 509.273 185.881L509.265 185.889ZM493.729 176.223H500.249C504.82 176.223 507.047 177.721 507.047 180.802C507.047 182.276 506.475 183.416 505.299 184.29C504.114 185.165 502.501 185.614 500.485 185.614H493.729V176.223Z" fill="#F9AA19"/>
<path d="M532.312 172.468L523.926 185.323L515.667 172.468H510.777L521.818 189.536V199.91H525.842V189.536L537 172.468H532.312Z" fill="#F9AA19"/>
<path d="M131.022 189.319V194.24C129.148 195.689 126.796 196.43 124.031 196.43C120.864 196.43 118.251 195.497 116.268 193.666C114.293 191.834 113.285 189.319 113.285 186.197C113.285 183.075 114.26 180.652 116.167 178.779C118.083 176.905 120.628 175.956 123.746 175.956C127.123 175.956 129.761 176.939 131.601 178.887L131.77 179.07L134.374 176.472L134.231 176.306C131.929 173.542 128.316 172.135 123.502 172.135C119.41 172.135 115.932 173.508 113.167 176.206C110.403 178.912 109 182.276 109 186.197C109 190.41 110.42 193.84 113.209 196.405C115.999 198.961 119.612 200.26 123.939 200.26C126.006 200.26 128.064 199.885 130.039 199.144C132.022 198.403 133.66 197.379 134.903 196.105L134.971 196.038V185.648H123.3V189.319H131.022Z" fill="white"/>
<path d="M159.261 187.729C159.261 190.435 158.606 192.583 157.32 194.123C156.043 195.647 154.153 196.43 151.716 196.43C149.279 196.43 147.355 195.647 145.793 194.09C144.238 192.541 143.448 190.335 143.448 187.538V172.468H139.331V188.037C139.331 191.892 140.524 194.914 142.885 197.038C145.238 199.152 148.204 200.218 151.716 200.218C154.909 200.218 157.673 199.211 159.942 197.212C162.219 195.214 163.378 192.2 163.378 188.27V172.468H159.261V187.729Z" fill="white"/>
<path d="M180.266 172.393H177.082L164.605 199.91H168.848L171.923 193.091H185.316L188.433 199.91H192.752L180.333 172.534L180.266 172.393ZM173.494 189.536L178.603 178.113L183.745 189.536H173.494Z" fill="white"/>
<path d="M215.807 185.889C217.092 184.465 217.748 182.75 217.748 180.802C217.748 175.273 214.026 172.476 206.682 172.476H195.734V199.918H199.851V189.361H206.766L215.076 199.918H220.125L211.11 188.587C213.034 188.137 214.614 187.23 215.815 185.897L215.807 185.889ZM199.843 176.223H206.556C211.261 176.223 213.547 177.721 213.547 180.802C213.547 182.276 212.958 183.416 211.749 184.29C210.53 185.165 208.867 185.614 206.8 185.614H199.851V176.231L199.843 176.223Z" fill="white"/>
<path d="M244.441 176.472C243.248 175.215 241.593 174.224 239.534 173.525C237.484 172.826 235.039 172.468 232.283 172.468H223.411V199.91H231.88C237.14 199.91 241.173 198.586 243.87 195.972C246.567 193.357 247.936 189.935 247.936 185.806C247.936 183.966 247.65 182.242 247.079 180.702C246.516 179.153 245.617 177.73 244.432 176.481L244.441 176.472ZM232.124 196.163H227.528V176.223H232.199C236.215 176.223 239.173 177.089 240.979 178.795C242.786 180.502 243.702 182.858 243.702 185.806C243.702 188.961 242.744 191.501 240.853 193.357C238.963 195.214 236.022 196.155 232.115 196.155L232.124 196.163Z" fill="white"/>
<path d="M256.565 172.468H252.448V199.91H256.565V172.468Z" fill="white"/>
<path d="M275.218 172.393H272.033L259.556 199.91H263.799L266.874 193.091H280.267L283.384 199.91H287.703L275.285 172.534L275.218 172.393ZM268.446 189.536L273.554 178.113L278.696 189.536H268.446Z" fill="white"/>
<path d="M310.649 172.468V192.691L293.904 172.468H290.677V199.91H294.677V179.769L311.456 199.91H314.648V172.468H310.649Z" fill="white"/>
</svg>
