<svg width="645" height="300" viewBox="0 0 645 300" fill="none" xmlns="http://www.w3.org/2000/svg">
<rect width="645" height="300" fill="white"/>
<path d="M185.904 222.718H119.855V225.218H185.904V222.718Z" fill="#F9AA19"/>
<path d="M525.657 222.718H459.516V225.218H525.657V222.718Z" fill="#F9AA19"/>
<path d="M322.202 148.5C300.365 148.5 282.603 130.896 282.603 109.25C282.603 87.6047 300.365 70 322.202 70C344.039 70 361.775 87.6047 361.775 109.25C361.775 130.896 344.022 148.5 322.202 148.5ZM322.202 73.1327C302.104 73.1327 285.762 89.3376 285.762 109.25C285.762 129.163 302.113 145.368 322.202 145.368C342.291 145.368 358.616 129.163 358.616 109.25C358.616 89.3376 342.274 73.1327 322.202 73.1327Z" fill="#044860"/>
<path d="M334.654 129.579L322.681 123.447C322.529 123.372 322.361 123.331 322.193 123.331C322.025 123.331 321.857 123.372 321.706 123.447L309.733 129.579C309.229 129.838 309.019 130.446 309.254 130.962C309.49 131.479 310.094 131.72 310.624 131.504L321.807 127.205C321.933 127.155 322.067 127.13 322.202 127.13C322.336 127.13 322.471 127.155 322.597 127.205L333.78 131.504C334.309 131.72 334.914 131.479 335.149 130.962C335.385 130.446 335.175 129.838 334.67 129.579H334.654Z" fill="#F9AA19"/>
<path d="M350.71 108.184L333.133 107.392C332.091 107.342 331.73 106.001 332.604 105.451L347.433 96.0279C347.912 95.728 348.063 95.1031 347.786 94.6115C347.5 94.12 346.879 93.9367 346.374 94.195L330.73 102.218C329.806 102.693 328.814 101.71 329.293 100.794L337.393 85.2802C337.653 84.7803 337.477 84.1637 336.981 83.8804H336.964C336.468 83.5888 335.838 83.7388 335.536 84.2137L326.042 98.9273C325.479 99.7938 324.126 99.4355 324.084 98.4107L323.269 80.9561C323.244 80.3895 322.773 79.9479 322.202 79.9479H322.193C321.622 79.9479 321.152 80.3895 321.126 80.9561L320.32 98.4024C320.269 99.4355 318.917 99.7938 318.362 98.919L308.868 84.2054C308.557 83.7305 307.927 83.5805 307.439 83.8638H307.423C306.935 84.1554 306.75 84.7719 307.011 85.2718L315.119 100.785C315.598 101.702 314.606 102.685 313.682 102.21L298.046 94.1783C297.542 93.92 296.92 94.095 296.634 94.5865C296.349 95.0864 296.5 95.7113 296.979 96.0196L311.808 105.443C312.682 106.001 312.321 107.342 311.279 107.384L293.694 108.175C293.122 108.2 292.677 108.667 292.677 109.233C292.677 109.808 293.122 110.267 293.694 110.3L311.279 111.1C312.321 111.15 312.682 112.491 311.8 113.041L296.97 122.456C296.492 122.764 296.34 123.389 296.626 123.872V123.889C296.92 124.372 297.542 124.555 298.046 124.297L321.723 112.141C322.034 111.983 322.395 111.983 322.706 112.141L346.383 124.297C346.887 124.555 347.517 124.372 347.794 123.88C348.072 123.389 347.92 122.764 347.442 122.464L332.612 113.049C331.738 112.491 332.099 111.15 333.141 111.108L350.718 110.308C351.29 110.283 351.735 109.817 351.735 109.25C351.735 108.675 351.29 108.217 350.718 108.184H350.71Z" fill="#F9AA19"/>
<path d="M350.794 185.968C352.046 184.543 352.676 182.826 352.676 180.877C352.676 175.345 349.055 172.545 341.905 172.545H331.242V200.006H335.259V189.442H341.972L350.055 200.006H354.978L346.206 188.659C348.08 188.209 349.618 187.301 350.786 185.968H350.794ZM335.267 176.295H341.787C346.358 176.295 348.584 177.794 348.584 180.877C348.584 182.352 348.013 183.493 346.837 184.368C345.652 185.243 344.039 185.693 342.022 185.693H335.267V176.295Z" fill="#F9AA19"/>
<path d="M361.616 187.9H376.588V184.218H361.616V176.295H377.672V172.545H357.6V199.998H378.025V196.249H361.616V187.9Z" fill="#F9AA19"/>
<path d="M403.525 192.974C401.408 195.324 398.669 196.515 395.384 196.515C392.3 196.515 389.779 195.574 387.897 193.716C386.007 191.858 385.049 189.35 385.049 186.276C385.049 183.201 385.94 180.719 387.704 178.844C389.46 176.978 391.897 176.028 394.955 176.028C398.013 176.028 400.702 177.119 402.87 179.269L403.038 179.436L405.651 176.928L405.525 176.761C404.517 175.428 403.071 174.32 401.215 173.47C399.366 172.62 397.232 172.195 394.871 172.195C390.704 172.195 387.292 173.553 384.73 176.22C382.167 178.886 380.873 182.268 380.873 186.267C380.873 190.525 382.176 193.974 384.755 196.515C387.326 199.056 390.83 200.34 395.148 200.34C397.375 200.34 399.484 199.898 401.408 199.023C403.34 198.148 404.861 196.965 405.92 195.499L406.029 195.341L403.702 192.766L403.525 192.966V192.974Z" fill="#F9AA19"/>
<path d="M420.691 172.195C416.758 172.195 413.389 173.562 410.684 176.253C407.978 178.944 406.609 182.318 406.609 186.267C406.609 190.217 407.978 193.691 410.684 196.34C413.389 198.998 416.75 200.34 420.691 200.34C424.631 200.34 427.95 198.981 430.655 196.299C433.361 193.616 434.73 190.242 434.73 186.259C434.73 182.277 433.361 178.836 430.655 176.186C427.95 173.537 424.597 172.187 420.691 172.187V172.195ZM420.691 196.515C417.968 196.515 415.616 195.532 413.692 193.599C411.768 191.666 410.785 189.2 410.785 186.267C410.785 183.335 411.759 180.844 413.666 178.919C415.582 176.994 417.943 176.02 420.691 176.02C423.438 176.02 425.723 176.994 427.656 178.919C429.58 180.844 430.563 183.318 430.563 186.267C430.563 189.217 429.613 191.691 427.731 193.616C425.858 195.541 423.488 196.507 420.691 196.507V196.515Z" fill="#F9AA19"/>
<path d="M448.829 194.257L438.377 172.545H434.033L447.325 199.998H450.19L462.852 172.545H458.626L448.829 194.257Z" fill="#F9AA19"/>
<path d="M468.977 187.9H483.941V184.218H468.977V176.295H485.025V172.545H464.952V199.998H485.378V196.249H468.977V187.9Z" fill="#F9AA19"/>
<path d="M509.265 185.968C510.517 184.543 511.155 182.826 511.155 180.877C511.155 175.345 507.534 172.545 500.384 172.545H489.73V200.006H493.746V189.442H500.46L508.542 200.006H513.466L504.694 188.659C506.568 188.209 508.105 187.301 509.273 185.968H509.265ZM493.729 176.295H500.249C504.82 176.295 507.047 177.794 507.047 180.877C507.047 182.352 506.475 183.493 505.299 184.368C504.114 185.243 502.493 185.693 500.485 185.693H493.729V176.295Z" fill="#F9AA19"/>
<path d="M532.312 172.545L523.926 185.409L515.734 172.654L515.659 172.545H510.777L521.818 189.617V199.998H525.842V189.617L537 172.545H532.312Z" fill="#F9AA19"/>
<path d="M209.74 219.91C209.236 219.369 208.547 218.952 207.665 218.652C206.783 218.352 205.758 218.202 204.582 218.202H200.902V229.867H204.363C206.64 229.867 208.346 229.317 209.488 228.209C210.631 227.101 211.202 225.659 211.202 223.885C211.202 223.085 211.085 222.36 210.85 221.702C210.614 221.044 210.245 220.452 209.74 219.91ZM207.968 226.876C207.22 227.601 206.069 227.967 204.514 227.967H202.935V220.102H204.548C207.573 220.102 209.085 221.36 209.085 223.885C209.085 225.151 208.715 226.151 207.968 226.876Z" fill="#044860"/>
<path d="M217.084 218.202L211.925 229.867H214.026L215.151 227.284H220.512L221.655 229.867H223.789L218.63 218.202H217.084ZM215.891 225.551L217.823 221.119L219.756 225.551H215.891Z" fill="#044860"/>
<path d="M227.57 218.202H225.536V229.867H234.241V227.967H227.57V218.202Z" fill="#044860"/>
<path d="M238.207 218.202H236.173V229.867H244.878V227.967H238.207V218.202Z" fill="#044860"/>
<path d="M250.776 218.202L245.617 229.867H247.718L248.844 227.284H254.204L255.347 229.867H257.481L252.322 218.202H250.776ZM249.583 225.551L251.515 221.119L253.448 225.551H249.583Z" fill="#044860"/>
<path d="M266.269 223.81C265.732 223.593 265.152 223.393 264.522 223.21C263.892 223.026 263.312 222.876 262.774 222.76C262.236 222.643 261.791 222.468 261.43 222.227C261.069 221.985 260.892 221.685 260.892 221.318C260.892 220.86 261.127 220.519 261.598 220.294C262.068 220.069 262.648 219.952 263.345 219.952C264.69 219.952 265.858 220.36 266.841 221.169L267.95 219.735C266.849 218.627 265.337 218.069 263.396 218.069C262.06 218.069 260.959 218.386 260.094 219.027C259.229 219.669 258.792 220.444 258.792 221.368C258.792 221.943 258.926 222.443 259.195 222.86C259.464 223.276 259.808 223.601 260.237 223.835C260.665 224.068 261.136 224.268 261.648 224.426C262.161 224.584 262.682 224.726 263.194 224.843C263.707 224.959 264.177 225.084 264.606 225.226C265.034 225.368 265.379 225.559 265.648 225.801C265.917 226.042 266.051 226.342 266.051 226.701C266.051 227.142 265.858 227.492 265.463 227.742C265.068 227.992 264.522 228.117 263.816 228.117C262.11 228.117 260.732 227.559 259.665 226.451L258.456 227.867C258.968 228.475 259.707 228.984 260.657 229.392C261.606 229.8 262.598 230 263.631 230C264.9 230 265.967 229.675 266.841 229.034C267.715 228.392 268.151 227.559 268.151 226.551C268.151 225.884 267.975 225.318 267.614 224.843C267.252 224.368 266.807 224.026 266.269 223.81Z" fill="#044860"/>
<path d="M278.94 218.202L273.781 229.867H275.881L277.007 227.284H282.368L283.51 229.867H285.645L280.486 218.202H278.94ZM277.747 225.551L279.679 221.119L281.612 225.551H277.747Z" fill="#044860"/>
<path d="M296.231 219.91C295.727 219.369 295.038 218.952 294.156 218.652C293.274 218.352 292.249 218.202 291.072 218.202H287.392V229.867H290.854C293.131 229.867 294.836 229.317 295.979 228.209C297.122 227.101 297.693 225.659 297.693 223.885C297.693 223.085 297.575 222.36 297.34 221.702C297.105 221.044 296.735 220.452 296.231 219.91ZM294.458 226.876C293.71 227.601 292.559 227.967 291.005 227.967H289.425V220.102H291.039C294.063 220.102 295.576 221.36 295.576 223.885C295.576 225.151 295.206 226.151 294.458 226.876Z" fill="#044860"/>
<path d="M308.851 219.91C308.347 219.369 307.658 218.952 306.776 218.652C305.893 218.352 304.868 218.202 303.692 218.202H300.012V229.867H303.474C305.751 229.867 307.456 229.317 308.599 228.209C309.742 227.101 310.313 225.659 310.313 223.885C310.313 223.085 310.195 222.36 309.96 221.702C309.725 221.044 309.355 220.452 308.851 219.91ZM307.078 226.876C306.33 227.601 305.179 227.967 303.625 227.967H302.045V220.102H303.658C306.683 220.102 308.196 221.36 308.196 223.885C308.196 225.151 307.826 226.151 307.078 226.876Z" fill="#044860"/>
<path d="M314.665 218.202H312.632V229.867H314.665V218.202Z" fill="#044860"/>
<path d="M323.185 228.067C321.975 228.067 320.992 227.7 320.236 226.959C319.48 226.217 319.101 225.243 319.101 224.035C319.101 222.827 319.463 221.835 320.194 221.102C320.925 220.369 321.891 220.002 323.101 220.002C324.403 220.002 325.462 220.452 326.277 221.352L327.621 220.085C327.209 219.486 326.588 219.002 325.773 218.627C324.958 218.252 324.033 218.069 323 218.069C321.21 218.069 319.757 218.636 318.648 219.777C317.539 220.919 316.984 222.335 316.984 224.035C316.984 225.843 317.53 227.292 318.623 228.375C319.715 229.458 321.185 230 323.034 230C324.042 230 324.966 229.808 325.815 229.425C326.663 229.042 327.327 228.509 327.806 227.834L326.613 226.534C325.747 227.559 324.605 228.067 323.185 228.067Z" fill="#044860"/>
<path d="M328.881 220.102H332.83V229.867H334.864V220.102H338.813V218.202H328.881V220.102Z" fill="#044860"/>
<path d="M342.627 218.202H340.594V229.867H342.627V218.202Z" fill="#044860"/>
<path d="M350.962 218.069C349.273 218.069 347.845 218.644 346.685 219.794C345.526 220.944 344.946 222.36 344.946 224.035C344.946 225.709 345.526 227.167 346.694 228.3C347.862 229.433 349.282 230 350.962 230C352.642 230 354.062 229.433 355.23 228.292C356.398 227.151 356.978 225.734 356.978 224.035C356.978 222.335 356.398 220.902 355.239 219.769C354.079 218.636 352.651 218.069 350.962 218.069ZM353.743 226.942C352.995 227.692 352.071 228.067 350.962 228.067C349.853 228.067 348.971 227.692 348.206 226.934C347.442 226.176 347.063 225.209 347.063 224.035C347.063 222.86 347.442 221.877 348.206 221.127C348.971 220.377 349.887 220.002 350.962 220.002C352.037 220.002 352.945 220.377 353.709 221.135C354.474 221.893 354.861 222.86 354.861 224.035C354.861 225.209 354.491 226.192 353.743 226.942Z" fill="#044860"/>
<path d="M367.363 226.184L360.876 218.202H359.297V229.867H361.28V221.918L367.766 229.867H369.346V218.202H367.363V226.184Z" fill="#044860"/>
<path d="M382.419 228.067C381.209 228.067 380.226 227.7 379.47 226.959C378.714 226.217 378.336 225.243 378.336 224.035C378.336 222.827 378.697 221.835 379.428 221.102C380.159 220.369 381.125 220.002 382.335 220.002C383.638 220.002 384.696 220.452 385.511 221.352L386.855 220.085C386.444 219.486 385.822 219.002 385.007 218.627C384.192 218.252 383.268 218.069 382.234 218.069C380.445 218.069 378.991 218.636 377.882 219.777C376.773 220.919 376.219 222.335 376.219 224.035C376.219 225.843 376.765 227.292 377.857 228.375C378.949 229.458 380.42 230 382.268 230C383.276 230 384.2 229.808 385.049 229.425C385.898 229.042 386.561 228.509 387.04 227.834L385.847 226.534C384.982 227.559 383.839 228.067 382.419 228.067Z" fill="#044860"/>
<path d="M391.09 224.868H397.358V223.035H391.09V220.102H397.795V218.202H389.048V229.867H397.963V227.967H391.09V224.868Z" fill="#044860"/>
<path d="M408.55 226.184L402.055 218.202H400.475V229.867H402.458V221.918L408.953 229.867H410.532V218.202H408.55V226.184Z" fill="#044860"/>
<path d="M412.305 220.102H416.254V229.867H418.288V220.102H422.245V218.202H412.305V220.102Z" fill="#044860"/>
<path d="M426.051 224.868H432.327V223.035H426.051V220.102H432.764V218.202H424.018V229.867H432.932V227.967H426.051V224.868Z" fill="#044860"/>
<path d="M442.124 225.201C442.906 224.976 443.536 224.559 444.006 223.951C444.477 223.343 444.712 222.635 444.712 221.835C444.712 221.335 444.636 220.877 444.494 220.469C444.351 220.06 444.107 219.677 443.779 219.327C443.452 218.977 442.973 218.702 442.343 218.502C441.712 218.302 440.956 218.202 440.074 218.202H435.453V229.867H437.486V225.584H439.973L443.183 229.867H445.653L442.124 225.201ZM440.124 223.685H437.486V220.102H440.024C440.965 220.102 441.628 220.252 442.015 220.552C442.401 220.852 442.595 221.277 442.595 221.835C442.595 222.393 442.376 222.868 441.939 223.193C441.502 223.518 440.897 223.685 440.124 223.685Z" fill="#044860"/>
<path d="M131.022 189.4V194.324C129.148 195.774 126.796 196.515 124.031 196.515C120.864 196.515 118.251 195.582 116.268 193.749C114.293 191.916 113.285 189.4 113.285 186.276C113.285 183.151 114.26 180.727 116.167 178.852C118.083 176.978 120.628 176.028 123.746 176.028C127.123 176.028 129.761 177.011 131.601 178.961L131.77 179.144L134.374 176.544L134.231 176.378C131.929 173.612 128.316 172.204 123.502 172.204C119.41 172.204 115.932 173.578 113.167 176.278C110.403 178.986 109 182.352 109 186.276C109 190.492 110.42 193.924 113.209 196.49C115.999 199.048 119.612 200.348 123.939 200.348C126.006 200.348 128.064 199.973 130.039 199.231C132.022 198.49 133.66 197.465 134.903 196.19L134.971 196.124V185.726H123.3V189.4H131.022Z" fill="#044860"/>
<path d="M159.261 187.817C159.261 190.525 158.606 192.674 157.32 194.216C156.043 195.74 154.153 196.524 151.716 196.524C149.279 196.524 147.355 195.74 145.793 194.182C144.238 192.633 143.448 190.425 143.448 187.625V172.545H139.331V188.125C139.331 191.983 140.524 195.007 142.885 197.132C145.238 199.248 148.212 200.315 151.716 200.315C154.9 200.315 157.673 199.298 159.942 197.307C162.219 195.299 163.378 192.291 163.378 188.359V172.545H159.261V187.817Z" fill="#044860"/>
<path d="M180.266 172.462H177.082L164.605 199.998H168.848L171.923 193.174H185.316L188.433 199.998H192.752L180.333 172.604L180.266 172.462ZM183.736 189.617H173.494L178.594 178.186L183.736 189.617Z" fill="#044860"/>
<path d="M215.067 199.998H220.117L211.102 188.659C213.026 188.209 214.605 187.301 215.807 185.968C217.092 184.543 217.748 182.826 217.748 180.877C217.748 175.345 214.026 172.545 206.682 172.545H195.734V200.006H199.851V189.442H206.766L215.076 200.006L215.067 199.998ZM199.843 176.295H206.556C211.261 176.295 213.547 177.794 213.547 180.877C213.547 182.352 212.958 183.493 211.749 184.368C210.53 185.243 208.867 185.693 206.8 185.693H199.851V176.303L199.843 176.295Z" fill="#044860"/>
<path d="M243.87 196.057C246.567 193.441 247.936 190.017 247.936 185.884C247.936 184.043 247.65 182.318 247.079 180.777C246.516 179.227 245.626 177.803 244.432 176.553C243.239 175.295 241.584 174.303 239.517 173.603C237.467 172.904 235.022 172.545 232.266 172.545H223.394V200.006H231.863C237.123 200.006 241.156 198.682 243.853 196.065L243.87 196.057ZM232.124 196.249H227.528V176.295H232.199C236.215 176.295 239.173 177.161 240.979 178.869C242.786 180.577 243.702 182.935 243.702 185.884C243.702 189.042 242.744 191.583 240.853 193.441C238.963 195.299 236.022 196.24 232.115 196.24L232.124 196.249Z" fill="#044860"/>
<path d="M256.565 172.537H252.448V199.998H256.565V172.537Z" fill="#044860"/>
<path d="M266.866 193.183H280.259L283.376 200.006H287.695L275.276 172.612L275.209 172.47H272.025L259.548 200.006H263.791L266.866 193.183ZM268.437 189.617L273.537 178.186L278.679 189.617H268.437Z" fill="#044860"/>
<path d="M314.648 172.537H310.649V192.774L293.904 172.537H290.677V199.998H294.677V179.844L311.456 199.998H314.648V172.537Z" fill="#044860"/>
</svg>
