<svg width="645" height="200" viewBox="0 0 645 200" fill="none" xmlns="http://www.w3.org/2000/svg">
<rect width="645" height="200" fill="#083045"/>
<path d="M206.439 135C187.132 135 171.421 119.298 171.421 100C171.421 80.7018 187.132 65 206.439 65C225.746 65 241.43 80.7018 241.43 100C241.43 119.298 225.737 135 206.439 135ZM206.439 68.2983C188.947 68.2983 174.719 82.5176 174.719 100C174.719 117.482 188.947 131.702 206.439 131.702C223.93 131.702 238.132 117.482 238.132 100C238.132 82.5176 223.912 68.2983 206.439 68.2983Z" fill="white"/>
<path d="M217.368 118L206.86 112.579C206.728 112.509 206.579 112.474 206.43 112.474C206.281 112.474 206.14 112.509 206 112.579L195.491 118C195.044 118.228 194.86 118.763 195.07 119.219C195.281 119.675 195.807 119.895 196.272 119.702L206.088 115.895C206.202 115.851 206.316 115.825 206.43 115.825C206.544 115.825 206.667 115.851 206.772 115.895L216.588 119.702C217.053 119.886 217.588 119.675 217.79 119.219C218 118.763 217.807 118.228 217.368 118Z" fill="#FFAD00"/>
<path d="M231.456 99.0526L216.026 98.3509C215.114 98.307 214.798 97.1228 215.561 96.6316L228.579 88.2895C229 88.0176 229.132 87.4737 228.886 87.0351C228.64 86.5965 228.088 86.4386 227.649 86.6667L213.921 93.7719C213.114 94.193 212.246 93.3246 212.658 92.5088L219.763 78.7807C219.991 78.3421 219.833 77.7895 219.404 77.5439H219.386C218.956 77.2807 218.395 77.4211 218.132 77.8421L209.798 90.8684C209.307 91.6404 208.123 91.3158 208.079 90.4123L207.36 74.9649C207.333 74.4649 206.921 74.0702 206.43 74.0702C205.93 74.0702 205.518 74.4649 205.5 74.9649L204.79 90.4123C204.746 91.3246 203.561 91.6404 203.07 90.8772L194.737 77.8509C194.465 77.4298 193.912 77.2983 193.483 77.5439H193.474C193.044 77.7983 192.886 78.3509 193.114 78.7895L200.228 92.5176C200.649 93.3246 199.781 94.193 198.965 93.7807L185.246 86.6754C184.807 86.4474 184.263 86.6053 184.009 87.0351C183.754 87.4737 183.886 88.0263 184.316 88.2983L197.333 96.6316C198.105 97.1228 197.781 98.307 196.868 98.3509L181.43 99.0526C180.93 99.0789 180.535 99.4825 180.535 99.9825C180.535 100.491 180.93 100.904 181.43 100.921L196.868 101.632C197.781 101.675 198.097 102.86 197.333 103.351L184.316 111.684C183.895 111.956 183.763 112.509 184.009 112.939V112.956C184.263 113.386 184.816 113.544 185.254 113.316L206.035 102.553C206.307 102.412 206.623 102.412 206.895 102.553L227.675 113.307C228.123 113.535 228.667 113.377 228.921 112.939C229.167 112.5 229.035 111.947 228.614 111.684L215.597 103.351C214.825 102.86 215.149 101.675 216.061 101.632L231.491 100.921C231.991 100.895 232.386 100.482 232.386 99.9912C232.386 99.4825 231.991 99.0702 231.491 99.0526H231.456Z" fill="#FFAD00"/>
<path d="M276.175 118.789C277.509 117.263 278.184 115.43 278.184 113.342C278.184 107.421 274.325 104.421 266.711 104.421H255.36V133.833H259.632V122.518H266.789L275.403 133.833H280.64L271.289 121.675C273.289 121.193 274.93 120.219 276.175 118.789ZM259.632 108.421H266.588C271.465 108.421 273.833 110.026 273.833 113.333C273.833 114.921 273.219 116.14 271.965 117.079C270.702 118.018 268.982 118.491 266.833 118.491H259.632V108.421Z" fill="#FFAD00"/>
<path d="M287.711 120.851H303.658V116.921H287.711V108.421H304.816V104.412H283.439V133.825H305.193V129.816H287.711V120.851Z" fill="#FFAD00"/>
<path d="M332.368 126.298C330.114 128.816 327.193 130.096 323.693 130.096C320.412 130.096 317.728 129.088 315.71 127.096C313.702 125.105 312.675 122.421 312.675 119.114C312.675 115.807 313.632 113.158 315.509 111.149C317.386 109.149 319.982 108.132 323.237 108.132C326.491 108.132 329.36 109.298 331.675 111.614L331.851 111.789L334.631 109.105L334.5 108.93C333.43 107.5 331.886 106.307 329.912 105.404C327.939 104.5 325.667 104.035 323.158 104.035C318.719 104.035 315.079 105.482 312.351 108.351C309.623 111.211 308.246 114.833 308.246 119.123C308.246 123.684 309.632 127.377 312.377 130.105C315.123 132.825 318.842 134.202 323.447 134.202C325.816 134.202 328.061 133.728 330.114 132.798C332.175 131.86 333.789 130.588 334.912 129.018L335.026 128.851L332.553 126.096L332.36 126.307L332.368 126.298Z" fill="#FFAD00"/>
<path d="M350.658 104.035C346.465 104.035 342.877 105.5 340 108.386C337.123 111.272 335.658 114.886 335.658 119.114C335.658 123.342 337.114 127.061 340 129.903C342.877 132.746 346.465 134.193 350.658 134.193C354.851 134.193 358.395 132.737 361.272 129.868C364.149 127 365.614 123.377 365.614 119.114C365.614 114.851 364.158 111.167 361.272 108.325C358.386 105.482 354.824 104.035 350.658 104.035ZM350.658 130.096C347.763 130.096 345.254 129.044 343.202 126.974C341.149 124.895 340.105 122.254 340.105 119.114C340.105 115.974 341.14 113.298 343.184 111.237C345.228 109.175 347.737 108.132 350.667 108.132C353.596 108.132 356.035 109.175 358.088 111.237C360.14 113.298 361.184 115.947 361.184 119.114C361.184 122.281 360.167 124.93 358.167 126.991C356.167 129.053 353.649 130.096 350.667 130.096H350.658Z" fill="#FFAD00"/>
<path d="M380.631 127.684L369.561 104.553L369.491 104.412H364.877L378.965 133.684L379.035 133.825H382.088L395.403 104.763L395.57 104.412H391.079L380.631 127.684Z" fill="#FFAD00"/>
<path d="M402.096 120.851H418.044V116.921H402.096V108.421H419.202V104.412H397.824V133.825H419.57V129.816H402.096V120.851Z" fill="#FFAD00"/>
<path d="M445.026 118.789C446.359 117.263 447.035 115.43 447.035 113.342C447.035 107.421 443.175 104.421 435.561 104.421H424.21V133.833H428.482V122.518H435.64L444.254 133.833H449.491L440.14 121.675C442.131 121.193 443.781 120.219 445.026 118.789ZM428.482 108.421H435.438C440.316 108.421 442.684 110.026 442.684 113.333C442.684 114.921 442.07 116.14 440.816 117.079C439.552 118.018 437.833 118.491 435.684 118.491H428.482V108.421Z" fill="#FFAD00"/>
<path d="M469.588 104.412L460.658 118.193L451.921 104.526L451.851 104.412H446.649L458.412 122.702V133.825H462.684V122.702L474.579 104.412H469.588Z" fill="#FFAD00"/>
<path d="M269.316 84.3948H277.588V89.7369C275.57 91.307 273.053 92.1053 270.079 92.1053C266.675 92.1053 263.868 91.0965 261.746 89.1053C259.623 87.1228 258.544 84.3947 258.544 81.0088C258.544 77.6228 259.588 75 261.64 72.9737C263.693 70.9474 266.439 69.9211 269.781 69.9211C273.403 69.9211 276.246 70.9913 278.211 73.0965L278.386 73.2895L281.175 70.4825L281.026 70.307C278.561 67.3158 274.684 65.7983 269.518 65.7983C265.123 65.7983 261.395 67.2807 258.439 70.2106C255.474 73.1404 253.974 76.7719 253.974 81.0176C253.974 85.5702 255.491 89.2895 258.491 92.0614C261.482 94.8333 265.351 96.2368 270 96.2368C272.219 96.2368 274.421 95.8333 276.535 95.0351C278.658 94.2368 280.412 93.1228 281.754 91.7456L281.825 91.6754V80.4386H269.325V84.4035L269.316 84.3948Z" fill="white"/>
<path d="M307.886 82.6842C307.886 85.614 307.184 87.9474 305.798 89.614C304.43 91.2719 302.403 92.1053 299.781 92.1053C297.158 92.1053 295.096 91.2544 293.421 89.5702C291.746 87.886 290.903 85.5 290.903 82.4737V66.1755H286.5V83.0176C286.5 87.1842 287.781 90.4649 290.307 92.7544C292.833 95.0351 296.018 96.193 299.781 96.193C303.202 96.193 306.167 95.0965 308.605 92.9386C311.053 90.7719 312.289 87.5176 312.289 83.2632V66.1755H307.886V82.6842Z" fill="white"/>
<path d="M330.412 66.0877H327L313.614 95.8597H318.149L321.447 88.4825H335.824L339.167 95.8597H343.789L330.474 66.2369L330.403 66.0877H330.412ZM334.149 84.6404H323.14L328.623 72.2544L334.149 84.6404Z" fill="white"/>
<path d="M368.535 80.6842C369.912 79.1404 370.614 77.2895 370.614 75.1842C370.614 69.2106 366.623 66.1755 358.746 66.1755H347.009V95.8597H351.412V84.4386H358.842L367.754 95.8597H373.149L363.474 83.5965C365.535 83.1053 367.237 82.1316 368.526 80.6842H368.535ZM351.412 70.2193H358.623C363.675 70.2193 366.131 71.8421 366.131 75.1842C366.131 76.7807 365.5 78.0176 364.202 78.9649C362.895 79.9123 361.105 80.3948 358.886 80.3948H351.421V70.2193H351.412Z" fill="white"/>
<path d="M399.254 70.5088C397.974 69.1491 396.202 68.079 393.991 67.3158C391.789 66.5614 389.175 66.1755 386.219 66.1755H376.71V95.8597H385.789C391.43 95.8597 395.763 94.4298 398.649 91.5965C401.544 88.7632 403.009 85.0702 403.009 80.5965C403.009 78.6053 402.702 76.7456 402.096 75.0702C401.491 73.3948 400.535 71.8509 399.254 70.5V70.5088ZM386.044 91.8158H381.105V70.2193H386.123C390.438 70.2193 393.605 71.1579 395.552 73.0088C397.491 74.8509 398.474 77.4123 398.474 80.6053C398.474 84.0263 397.447 86.7719 395.421 88.7895C393.395 90.7983 390.237 91.8246 386.044 91.8246V91.8158Z" fill="white"/>
<path d="M412.263 66.1755H407.86V95.8597H412.263V66.1755Z" fill="white"/>
<path d="M432.281 66.0877H428.868L415.482 95.8597H420.017L423.316 88.4825H437.693L441.035 95.8597H445.658L432.342 66.2369L432.272 66.0877H432.281ZM436.009 84.6404H425L430.482 72.2544L436.009 84.6404Z" fill="white"/>
<path d="M470.307 66.1755V88.0702L452.333 66.1755H448.877V95.8597H453.149V74.0439L471.166 95.8597H474.579V66.1755H470.307Z" fill="white"/>
</svg>
