<svg width="645" height="200" viewBox="0 0 645 200" fill="none" xmlns="http://www.w3.org/2000/svg">
<rect width="645" height="200" fill="white"/>
<path d="M206.018 135C186.711 135 171 119.298 171 100C171 80.7018 186.711 65 206.018 65C225.325 65 241.009 80.7018 241.009 100C241.009 119.298 225.316 135 206.018 135ZM206.018 68.2983C188.526 68.2983 174.298 82.5176 174.298 100C174.298 117.482 188.526 131.702 206.018 131.702C223.509 131.702 237.71 117.482 237.71 100C237.71 82.5176 223.491 68.2983 206.018 68.2983Z" fill="#004860"/>
<path d="M216.947 118L206.439 112.579C206.307 112.509 206.158 112.474 206.009 112.474C205.86 112.474 205.719 112.509 205.579 112.579L195.07 118C194.623 118.228 194.439 118.763 194.649 119.219C194.86 119.675 195.386 119.895 195.851 119.702L205.667 115.895C205.781 115.851 205.895 115.825 206.009 115.825C206.123 115.825 206.246 115.851 206.351 115.895L216.167 119.702C216.632 119.886 217.167 119.675 217.368 119.219C217.579 118.763 217.386 118.228 216.947 118Z" fill="#FFAD00"/>
<path d="M231.035 99.0526L215.605 98.3509C214.693 98.307 214.377 97.1228 215.14 96.6316L228.158 88.2895C228.579 88.0176 228.71 87.4737 228.465 87.0351C228.219 86.5965 227.667 86.4386 227.228 86.6667L213.5 93.7719C212.693 94.193 211.825 93.3246 212.237 92.5088L219.342 78.7807C219.57 78.3421 219.412 77.7895 218.982 77.5439H218.965C218.535 77.2807 217.974 77.4211 217.71 77.8421L209.377 90.8684C208.886 91.6404 207.702 91.3158 207.658 90.4123L206.939 74.9649C206.912 74.4649 206.5 74.0702 206.009 74.0702C205.509 74.0702 205.096 74.4649 205.079 74.9649L204.368 90.4123C204.325 91.3246 203.14 91.6404 202.649 90.8772L194.316 77.8509C194.044 77.4298 193.491 77.2983 193.061 77.5439H193.053C192.623 77.7983 192.465 78.3509 192.693 78.7895L199.807 92.5176C200.228 93.3246 199.36 94.193 198.544 93.7807L184.825 86.6754C184.386 86.4474 183.842 86.6053 183.588 87.0351C183.333 87.4737 183.465 88.0263 183.895 88.2983L196.912 96.6316C197.684 97.1228 197.36 98.307 196.447 98.3509L181.009 99.0526C180.509 99.0789 180.114 99.4825 180.114 99.9825C180.114 100.491 180.509 100.904 181.009 100.921L196.447 101.632C197.36 101.675 197.675 102.86 196.912 103.351L183.895 111.684C183.474 111.956 183.342 112.509 183.588 112.939V112.956C183.842 113.386 184.395 113.544 184.833 113.316L205.614 102.553C205.886 102.412 206.202 102.412 206.474 102.553L227.254 113.307C227.702 113.535 228.246 113.377 228.5 112.939C228.746 112.5 228.614 111.947 228.193 111.684L215.175 103.351C214.403 102.86 214.728 101.675 215.64 101.632L231.07 100.921C231.57 100.895 231.965 100.482 231.965 99.9912C231.965 99.4825 231.57 99.0702 231.07 99.0526H231.035Z" fill="#FFAD00"/>
<path d="M275.754 118.789C277.088 117.263 277.763 115.43 277.763 113.342C277.763 107.421 273.903 104.421 266.289 104.421H254.939V133.833H259.21V122.518H266.368L274.982 133.833H280.219L270.868 121.675C272.868 121.193 274.509 120.219 275.754 118.789ZM259.21 108.421H266.167C271.044 108.421 273.412 110.026 273.412 113.333C273.412 114.921 272.798 116.14 271.544 117.079C270.281 118.018 268.561 118.491 266.412 118.491H259.21V108.421Z" fill="#FFAD00"/>
<path d="M287.289 120.851H303.237V116.921H287.289V108.421H304.395V104.412H283.017V133.825H304.772V129.816H287.289V120.851Z" fill="#FFAD00"/>
<path d="M331.947 126.298C329.693 128.816 326.772 130.096 323.272 130.096C319.991 130.096 317.307 129.088 315.289 127.096C313.281 125.105 312.254 122.421 312.254 119.114C312.254 115.807 313.21 113.158 315.088 111.149C316.965 109.149 319.561 108.132 322.816 108.132C326.07 108.132 328.938 109.298 331.254 111.614L331.43 111.789L334.21 109.105L334.079 108.93C333.009 107.5 331.465 106.307 329.491 105.404C327.517 104.5 325.245 104.035 322.737 104.035C318.298 104.035 314.658 105.482 311.93 108.351C309.202 111.211 307.824 114.833 307.824 119.123C307.824 123.684 309.21 127.377 311.956 130.105C314.702 132.825 318.421 134.202 323.026 134.202C325.395 134.202 327.64 133.728 329.693 132.798C331.754 131.86 333.368 130.588 334.491 129.018L334.605 128.851L332.131 126.096L331.938 126.307L331.947 126.298Z" fill="#FFAD00"/>
<path d="M350.237 104.035C346.044 104.035 342.456 105.5 339.579 108.386C336.702 111.272 335.237 114.886 335.237 119.114C335.237 123.342 336.693 127.061 339.579 129.903C342.456 132.746 346.044 134.193 350.237 134.193C354.43 134.193 357.973 132.737 360.851 129.868C363.728 127 365.193 123.377 365.193 119.114C365.193 114.851 363.737 111.167 360.851 108.325C357.965 105.482 354.403 104.035 350.237 104.035ZM350.237 130.096C347.342 130.096 344.833 129.044 342.781 126.974C340.728 124.895 339.684 122.254 339.684 119.114C339.684 115.974 340.719 113.298 342.763 111.237C344.807 109.175 347.316 108.132 350.245 108.132C353.175 108.132 355.614 109.175 357.666 111.237C359.719 113.298 360.763 115.947 360.763 119.114C360.763 122.281 359.745 124.93 357.745 126.991C355.745 129.053 353.228 130.096 350.245 130.096H350.237Z" fill="#FFAD00"/>
<path d="M380.21 127.684L369.14 104.553L369.07 104.412H364.456L378.544 133.684L378.614 133.825H381.666L394.982 104.763L395.149 104.412H390.658L380.21 127.684Z" fill="#FFAD00"/>
<path d="M401.675 120.851H417.623V116.921H401.675V108.421H418.78V104.412H397.403V133.825H419.149V129.816H401.675V120.851Z" fill="#FFAD00"/>
<path d="M444.605 118.789C445.938 117.263 446.614 115.43 446.614 113.342C446.614 107.421 442.754 104.421 435.14 104.421H423.789V133.833H428.061V122.518H435.219L443.833 133.833H449.07L439.719 121.675C441.71 121.193 443.359 120.219 444.605 118.789ZM428.061 108.421H435.017C439.894 108.421 442.263 110.026 442.263 113.333C442.263 114.921 441.649 116.14 440.394 117.079C439.131 118.018 437.412 118.491 435.263 118.491H428.061V108.421Z" fill="#FFAD00"/>
<path d="M469.166 104.412L460.237 118.193L451.5 104.526L451.43 104.412H446.228L457.991 122.702V133.825H462.263V122.702L474.158 104.412H469.166Z" fill="#FFAD00"/>
<path d="M268.895 84.3948H277.167V89.7369C275.149 91.307 272.631 92.1053 269.658 92.1053C266.254 92.1053 263.447 91.0965 261.324 89.1053C259.202 87.1228 258.123 84.3947 258.123 81.0088C258.123 77.6228 259.167 75 261.219 72.9737C263.272 70.9474 266.017 69.9211 269.36 69.9211C272.982 69.9211 275.824 70.9913 277.789 73.0965L277.965 73.2895L280.754 70.4825L280.605 70.307C278.14 67.3158 274.263 65.7983 269.096 65.7983C264.702 65.7983 260.974 67.2807 258.017 70.2106C255.053 73.1404 253.553 76.7719 253.553 81.0176C253.553 85.5702 255.07 89.2895 258.07 92.0614C261.061 94.8333 264.93 96.2368 269.579 96.2368C271.798 96.2368 274 95.8333 276.114 95.0351C278.237 94.2368 279.991 93.1228 281.333 91.7456L281.403 91.6754V80.4386H268.903V84.4035L268.895 84.3948Z" fill="#004860"/>
<path d="M307.465 82.6842C307.465 85.614 306.763 87.9474 305.377 89.614C304.009 91.2719 301.982 92.1053 299.36 92.1053C296.737 92.1053 294.675 91.2544 293 89.5702C291.324 87.886 290.482 85.5 290.482 82.4737V66.1755H286.079V83.0176C286.079 87.1842 287.36 90.4649 289.886 92.7544C292.412 95.0351 295.596 96.193 299.36 96.193C302.781 96.193 305.745 95.0965 308.184 92.9386C310.631 90.7719 311.868 87.5176 311.868 83.2632V66.1755H307.465V82.6842Z" fill="#004860"/>
<path d="M329.991 66.0877H326.579L313.193 95.8597H317.728L321.026 88.4825H335.403L338.745 95.8597H343.368L330.052 66.2369L329.982 66.0877H329.991ZM333.728 84.6404H322.719L328.202 72.2544L333.728 84.6404Z" fill="#004860"/>
<path d="M368.114 80.6842C369.491 79.1404 370.193 77.2895 370.193 75.1842C370.193 69.2106 366.202 66.1755 358.324 66.1755H346.588V95.8597H350.991V84.4386H358.421L367.333 95.8597H372.728L363.052 83.5965C365.114 83.1053 366.816 82.1316 368.105 80.6842H368.114ZM350.991 70.2193H358.202C363.254 70.2193 365.71 71.8421 365.71 75.1842C365.71 76.7807 365.079 78.0176 363.781 78.9649C362.473 79.9123 360.684 80.3948 358.465 80.3948H351V70.2193H350.991Z" fill="#004860"/>
<path d="M398.833 70.5088C397.552 69.1491 395.78 68.079 393.57 67.3158C391.368 66.5614 388.754 66.1755 385.798 66.1755H376.289V95.8597H385.368C391.009 95.8597 395.342 94.4298 398.228 91.5965C401.123 88.7632 402.587 85.0702 402.587 80.5965C402.587 78.6053 402.28 76.7456 401.675 75.0702C401.07 73.3948 400.114 71.8509 398.833 70.5V70.5088ZM385.623 91.8158H380.684V70.2193H385.702C390.017 70.2193 393.184 71.1579 395.131 73.0088C397.07 74.8509 398.052 77.4123 398.052 80.6053C398.052 84.0263 397.026 86.7719 395 88.7895C392.973 90.7983 389.816 91.8246 385.623 91.8246V91.8158Z" fill="#004860"/>
<path d="M411.842 66.1755H407.438V95.8597H411.842V66.1755Z" fill="#004860"/>
<path d="M431.859 66.0877H428.447L415.061 95.8597H419.596L422.894 88.4825H437.272L440.614 95.8597H445.237L431.921 66.2369L431.851 66.0877H431.859ZM435.587 84.6404H424.579L430.061 72.2544L435.587 84.6404Z" fill="#004860"/>
<path d="M469.886 66.1755V88.0702L451.912 66.1755H448.456V95.8597H452.728V74.0439L470.745 95.8597H474.158V66.1755H469.886Z" fill="#004860"/>
</svg>
