<svg width="645" height="200" viewBox="0 0 645 200" fill="none" xmlns="http://www.w3.org/2000/svg">
<rect width="645" height="200" fill="#083045"/>
<path d="M99.5034 135C80.6012 135 65.2159 119.298 65.2159 99.9955C65.2159 80.6931 80.6012 64.9998 99.5034 64.9998C118.406 64.9998 133.773 80.702 133.773 99.9955C133.773 119.289 118.406 134.991 99.5034 134.991V135ZM99.5034 68.3505C82.4077 68.3505 68.4972 82.5467 68.4972 99.9955C68.4972 117.444 82.4077 131.649 99.5034 131.649C116.599 131.649 130.492 117.453 130.492 99.9955C130.492 82.5378 116.59 68.3505 99.5034 68.3505Z" fill="white"/>
<path d="M110.202 117.979L99.9135 112.561C99.7826 112.49 99.643 112.454 99.4947 112.454C99.355 112.454 99.2067 112.49 99.0758 112.561L88.7869 117.979C88.3506 118.211 88.1673 118.745 88.3768 119.2C88.5775 119.654 89.1011 119.868 89.5549 119.681L99.1543 115.876C99.259 115.831 99.3725 115.805 99.4859 115.805C99.5994 115.805 99.7128 115.831 99.8176 115.876L109.417 119.681C109.871 119.868 110.394 119.654 110.595 119.2C110.796 118.745 110.613 118.211 110.185 117.979H110.202Z" fill="#FFAD00"/>
<path d="M123.991 99.0598L108.893 98.3558C108.003 98.3113 107.689 97.126 108.44 96.6359L121.172 88.3036C121.582 88.0362 121.713 87.4837 121.469 87.0559C121.224 86.6193 120.692 86.4589 120.256 86.6906L106.825 93.7931C106.031 94.2119 105.185 93.3475 105.595 92.5366L112.55 78.8127C112.777 78.3672 112.62 77.8235 112.201 77.574H112.183C111.756 77.3156 111.215 77.4493 110.953 77.8681L102.802 90.879C102.322 91.6454 101.161 91.3246 101.118 90.4156L100.411 74.9808C100.385 74.4817 99.9834 74.0896 99.4947 74.0896C99.006 74.0896 98.6045 74.4817 98.5783 74.9808L97.8802 90.4156C97.8366 91.3246 96.6759 91.6454 96.1959 90.879L88.0451 77.8681C87.7833 77.4493 87.2423 77.3156 86.8147 77.5651H86.8059C86.3871 77.8235 86.23 78.3672 86.4569 78.8127L93.4121 92.5276C93.8223 93.3386 92.9758 94.203 92.1816 93.7842L78.7511 86.6817C78.3148 86.45 77.7825 86.6104 77.5381 87.0381C77.2938 87.4748 77.4247 88.0362 77.8348 88.3036L90.5672 96.6359C91.3177 97.126 91.0035 98.3113 90.1134 98.3558L75.0074 99.0598C74.5187 99.0866 74.1347 99.4965 74.1347 99.9955C74.1347 100.504 74.5187 100.913 75.0074 100.931L90.1134 101.644C91.0035 101.689 91.3177 102.874 90.5672 103.364L77.8348 111.688C77.4247 111.955 77.2938 112.507 77.5381 112.944C77.7825 113.39 78.3148 113.55 78.7511 113.318L99.0845 102.571C99.3463 102.428 99.6605 102.428 99.9223 102.571L120.256 113.318C120.692 113.55 121.224 113.39 121.469 112.953C121.713 112.516 121.573 111.964 121.163 111.696L108.431 103.373C107.68 102.883 107.995 101.698 108.885 101.653L123.982 100.94C124.471 100.913 124.855 100.504 124.855 100.004C124.855 99.4965 124.471 99.0866 123.982 99.0687" fill="#FFAD00"/>
<path d="M160.346 103.346H168.139V108.622C166.246 110.173 163.872 110.966 161.079 110.966C157.877 110.966 155.241 109.968 153.234 108.007C151.236 106.046 150.223 103.355 150.223 100.004C150.223 96.6537 151.201 94.0604 153.138 92.0642C155.067 90.0591 157.65 89.0521 160.791 89.0521C164.204 89.0521 166.865 90.1037 168.724 92.189L168.907 92.394L171.543 89.6046L171.403 89.4264C169.073 86.4589 165.425 84.9617 160.547 84.9617C156.402 84.9617 152.885 86.4321 150.092 89.3284C147.3 92.2246 145.886 95.8249 145.886 100.022C145.886 104.523 147.317 108.203 150.145 110.948C152.964 113.693 156.62 115.083 160.992 115.083C163.087 115.083 165.164 114.682 167.162 113.889C169.169 113.096 170.818 111.999 172.075 110.627L172.145 110.556V99.443H160.338V103.373L160.346 103.346Z" fill="white"/>
<path d="M196.074 101.653C196.074 104.549 195.41 106.849 194.11 108.506C192.819 110.137 190.916 110.966 188.447 110.966C185.977 110.966 184.04 110.128 182.469 108.47C180.898 106.813 180.095 104.451 180.095 101.457V85.3271H175.924V101.992C175.924 106.118 177.128 109.353 179.519 111.616C181.901 113.88 184.903 115.02 188.455 115.02C191.684 115.02 194.477 113.933 196.781 111.803C199.084 109.656 200.254 106.439 200.254 102.232V85.3182H196.082V101.653H196.074Z" fill="white"/>
<path d="M213.475 85.2291L201.013 114.325L200.865 114.682H205.167L208.274 107.383H221.8L224.951 114.682H229.331L216.721 85.2291H213.475ZM220.203 103.578H209.862L215.011 91.3691L220.203 103.578Z" fill="white"/>
<path d="M252.021 99.6747C253.321 98.1508 253.976 96.3151 253.976 94.2298C253.976 88.3125 250.215 85.3182 242.788 85.3182H231.714V114.691H235.885V103.391H242.858L251.183 114.584L251.253 114.682H256.367L247.256 102.553C249.202 102.072 250.799 101.101 252.012 99.6747H252.021ZM235.894 89.3284H242.666C247.413 89.3284 249.726 90.9325 249.726 94.2298C249.726 95.8071 249.132 97.028 247.911 97.9637C246.68 98.8994 245.005 99.3806 242.91 99.3806H235.894V89.3284Z" fill="white"/>
<path d="M280.357 89.6046C279.152 88.259 277.477 87.1985 275.391 86.441C273.314 85.6925 270.845 85.3093 268.061 85.3093H259.09V114.682H267.659C272.983 114.682 277.058 113.265 279.79 110.467C282.512 107.668 283.9 104.006 283.9 99.5856C283.9 97.6162 283.612 95.7715 283.036 94.1228C282.46 92.4653 281.561 90.9414 280.357 89.6046ZM267.895 110.672H263.261V89.3284H267.974C272.031 89.3284 275.016 90.2552 276.84 92.0821C278.664 93.9089 279.589 96.4309 279.589 99.5856C279.589 102.963 278.62 105.681 276.718 107.677C274.807 109.665 271.839 110.672 267.895 110.672Z" fill="white"/>
<path d="M292.007 85.3182H287.836V114.691H292.007V85.3182Z" fill="white"/>
<path d="M307.017 85.2291L294.555 114.325L294.407 114.682H298.709L301.816 107.383H315.342L318.493 114.682H322.874L310.263 85.2291H307.017ZM313.745 103.578H303.404L308.553 91.3691L313.745 103.578Z" fill="white"/>
<path d="M345.441 85.3182V106.938L328.537 85.3182H325.256V114.682H329.305V93.1425L346.261 114.682H349.499V85.3182H345.441Z" fill="white"/>
<path d="M387.382 99.6747C388.682 98.1508 389.345 96.3151 389.345 94.2298C389.345 88.3125 385.584 85.3182 378.158 85.3182H367.092V114.691H371.263V103.391H378.236L386.561 114.584L386.631 114.682H391.745L382.634 102.553C384.58 102.072 386.177 101.101 387.39 99.6747H387.382ZM371.255 89.3284H378.027C382.774 89.3284 385.087 90.9325 385.087 94.2298C385.087 95.8071 384.493 97.028 383.271 97.9637C382.041 98.8994 380.357 99.3806 378.271 99.3806H371.255V89.3284Z" fill="#FFAD00"/>
<path d="M398.622 101.742H414.173V97.8033H398.622V89.3284H415.299V85.3182H394.45V114.682H415.665V110.672H398.622V101.742Z" fill="#FFAD00"/>
<path d="M442.151 107.169C439.952 109.682 437.107 110.957 433.695 110.957C430.492 110.957 427.874 109.95 425.919 107.962C423.964 105.975 422.961 103.293 422.961 100.004C422.961 96.7161 423.886 94.0604 425.718 92.0553C427.542 90.0591 430.082 89.0432 433.25 89.0432C436.417 89.0432 439.219 90.2106 441.47 92.5187L441.645 92.697L444.359 90.0146L444.228 89.8363C443.181 88.4105 441.68 87.2253 439.751 86.3163C437.831 85.4073 435.615 84.9528 433.162 84.9528C428.834 84.9528 425.291 86.4054 422.629 89.2571C419.968 92.1088 418.624 95.7269 418.624 100.004C418.624 104.558 419.976 108.248 422.655 110.966C425.326 113.684 428.965 115.056 433.45 115.056C435.763 115.056 437.953 114.584 439.952 113.648C441.959 112.712 443.538 111.438 444.638 109.878L444.752 109.709L442.334 106.955L442.151 107.169Z" fill="#FFAD00"/>
<path d="M459.98 84.9439C455.896 84.9439 452.396 86.4054 449.586 89.2838C446.776 92.1623 445.354 95.7715 445.354 99.9955C445.354 104.22 446.776 107.936 449.586 110.77C452.396 113.612 455.887 115.047 459.98 115.047C464.073 115.047 467.52 113.595 470.33 110.725C473.14 107.856 474.562 104.246 474.562 99.9866C474.562 95.7269 473.14 92.0464 470.33 89.2125C467.52 86.3697 464.038 84.935 459.98 84.935V84.9439ZM459.98 110.957C457.152 110.957 454.709 109.905 452.71 107.838C450.712 105.77 449.691 103.132 449.691 99.9955C449.691 96.8587 450.703 94.1941 452.684 92.1355C454.674 90.077 457.126 89.0343 459.971 89.0343C462.816 89.0343 465.198 90.077 467.205 92.1355C469.204 94.1941 470.225 96.8408 470.225 99.9955C470.225 103.15 469.239 105.797 467.284 107.856C465.338 109.914 462.877 110.957 459.971 110.957H459.98Z" fill="#FFAD00"/>
<path d="M489.206 108.542L478.411 85.4608L478.341 85.3182H473.838L487.644 114.682H490.619L503.605 85.6746L503.771 85.3182H499.381L489.206 108.542Z" fill="#FFAD00"/>
<path d="M510.132 101.742H525.675V97.8033H510.132V89.3284H526.801V85.3182H505.952V114.682H527.167V110.672H510.132V101.742Z" fill="#FFAD00"/>
<path d="M551.968 99.6747C553.269 98.1508 553.932 96.3151 553.932 94.2298C553.932 88.3125 550.171 85.3182 542.744 85.3182H531.679V114.691H535.85V103.391H542.823L551.148 114.584L551.218 114.682H556.332L547.221 102.553C549.167 102.072 550.764 101.101 551.977 99.6747H551.968ZM535.841 89.3284H542.613C547.361 89.3284 549.673 90.9325 549.673 94.2298C549.673 95.8071 549.08 97.028 547.858 97.9637C546.628 98.8994 544.943 99.3806 542.858 99.3806H535.841V89.3284Z" fill="#FFAD00"/>
<path d="M575.915 85.3182L567.205 99.0687L558.697 85.434L558.618 85.3182H553.548L565.015 103.578V114.682H569.186V103.578L580.784 85.3182H575.915Z" fill="#FFAD00"/>
</svg>
