<svg width="645" height="240" viewBox="0 0 645 240" fill="none" xmlns="http://www.w3.org/2000/svg">
<rect width="645" height="240" fill="white"/>
<path d="M322.194 133.424C300.382 133.424 282.64 115.69 282.64 93.8864C282.64 72.0824 300.39 54.3488 322.194 54.3488C343.998 54.3488 361.724 72.0824 361.724 93.8864C361.724 115.69 343.99 133.424 322.194 133.424ZM322.194 57.5044C302.119 57.5044 285.796 73.828 285.796 93.8864C285.796 113.945 302.128 130.268 322.194 130.268C342.261 130.268 358.568 113.945 358.568 93.8864C358.568 73.828 342.253 57.5044 322.194 57.5044Z" fill="#004860"/>
<path d="M334.641 114.364L322.681 108.187C322.53 108.112 322.362 108.07 322.194 108.07C322.026 108.07 321.859 108.112 321.708 108.187L309.748 114.364C309.245 114.625 309.035 115.237 309.27 115.758C309.505 116.278 310.109 116.521 310.638 116.303L321.808 111.972C321.934 111.922 322.068 111.897 322.203 111.897C322.337 111.897 322.471 111.922 322.597 111.972L333.768 116.303C334.296 116.521 334.901 116.278 335.136 115.758C335.371 115.237 335.161 114.625 334.657 114.364H334.641Z" fill="#FFAD00"/>
<path d="M350.679 92.8121L333.122 92.0148C332.081 91.9645 331.72 90.6133 332.593 90.0594L347.406 80.5673C347.884 80.2652 348.035 79.6357 347.758 79.1406C347.473 78.6454 346.852 78.4608 346.348 78.7209L330.721 86.803C329.798 87.2814 328.808 86.2911 329.286 85.3679L337.377 69.7408C337.637 69.2373 337.46 68.6162 336.965 68.3309H336.949C336.453 68.0371 335.824 68.1882 335.522 68.6666L326.038 83.4879C325.476 84.3608 324.125 83.9999 324.083 82.9676L323.269 65.385C323.243 64.8144 322.773 64.3695 322.203 64.3695H322.194C321.624 64.3695 321.154 64.8144 321.128 65.385L320.323 82.9592C320.272 83.9999 318.921 84.3608 318.367 83.4795L308.884 68.6582C308.573 68.1798 307.944 68.0287 307.457 68.3141H307.44C306.953 68.6078 306.769 69.2289 307.029 69.7324L315.128 85.3595C315.606 86.2827 314.616 87.273 313.693 86.7946L298.074 78.7041C297.57 78.444 296.949 78.6202 296.664 79.1154C296.379 79.6189 296.53 80.2484 297.008 80.5589L311.821 90.051C312.694 90.6133 312.333 91.9645 311.292 92.0064L293.727 92.8037C293.156 92.8289 292.711 93.2989 292.711 93.8696C292.711 94.4487 293.156 94.9103 293.727 94.9439L311.292 95.7496C312.333 95.7999 312.694 97.1511 311.813 97.705L297 107.189C296.521 107.499 296.37 108.129 296.656 108.615V108.632C296.949 109.119 297.57 109.304 298.074 109.043L321.724 96.7986C322.035 96.6392 322.396 96.6392 322.706 96.7986L346.357 109.043C346.86 109.304 347.49 109.119 347.767 108.624C348.044 108.129 347.893 107.499 347.414 107.197L332.601 97.7134C331.728 97.1511 332.089 95.7999 333.13 95.7579L350.687 94.9523C351.258 94.9271 351.703 94.4571 351.703 93.8864C351.703 93.3073 351.258 92.8457 350.687 92.8121H350.679Z" fill="#FFAD00"/>
<path d="M350.763 171.166C352.013 169.73 352.651 168.002 352.651 166.038C352.651 160.465 349.034 157.645 341.892 157.645H331.242V185.307H335.253V174.665H341.959L350.033 185.307H354.951L346.189 173.885C348.06 173.432 349.596 172.517 350.763 171.174V171.166ZM335.253 161.422H341.766C346.332 161.422 348.556 162.932 348.556 166.038C348.556 167.523 347.985 168.673 346.81 169.554C345.627 170.435 344.015 170.889 342.001 170.889H335.253V161.422Z" fill="#FFAD00"/>
<path d="M361.581 173.113H376.528V169.403H361.581V161.422H377.611V157.645H357.561V185.299H377.963V181.522H361.581V173.113Z" fill="#FFAD00"/>
<path d="M403.443 178.224C401.328 180.591 398.592 181.791 395.311 181.791C392.231 181.791 389.713 180.842 387.833 178.971C385.953 177.099 384.988 174.573 384.988 171.476C384.988 168.379 385.878 165.878 387.64 163.99C389.394 162.11 391.828 161.153 394.883 161.153C397.938 161.153 400.623 162.253 402.789 164.426L402.957 164.594L405.567 162.068L405.441 161.9C404.434 160.557 402.99 159.441 401.135 158.585C399.289 157.729 397.157 157.301 394.799 157.301C390.636 157.301 387.229 158.669 384.669 161.355C382.109 164.04 380.817 167.448 380.817 171.476C380.817 175.765 382.118 179.239 384.694 181.799C387.262 184.359 390.762 185.651 395.076 185.651C397.3 185.651 399.406 185.206 401.328 184.325C403.259 183.444 404.778 182.252 405.835 180.775L405.944 180.616L403.62 178.022L403.443 178.224Z" fill="#FFAD00"/>
<path d="M420.581 157.293C416.653 157.293 413.288 158.669 410.585 161.38C407.883 164.091 406.515 167.49 406.515 171.468C406.515 175.446 407.883 178.946 410.585 181.614C413.288 184.292 416.645 185.643 420.581 185.643C424.517 185.643 427.832 184.275 430.535 181.572C433.237 178.87 434.605 175.471 434.605 171.459C434.605 167.448 433.237 163.982 430.535 161.313C427.832 158.635 424.484 157.284 420.581 157.284V157.293ZM420.581 181.791C417.862 181.791 415.512 180.8 413.59 178.853C411.668 176.906 410.686 174.422 410.686 171.468C410.686 168.514 411.66 166.004 413.565 164.065C415.478 162.127 417.837 161.145 420.581 161.145C423.325 161.145 425.608 162.127 427.539 164.065C429.46 166.004 430.442 168.497 430.442 171.468C430.442 174.439 429.494 176.931 427.614 178.87C425.742 180.809 423.376 181.791 420.581 181.791Z" fill="#FFAD00"/>
<path d="M448.688 179.516L438.306 157.779L438.247 157.645H433.909L447.186 185.299H450.048L462.544 157.981L462.695 157.645H458.474L448.688 179.516Z" fill="#FFAD00"/>
<path d="M468.813 173.113H483.761V169.403H468.813V161.422H484.843V157.645H464.793V185.299H485.196V181.522H468.813V173.113Z" fill="#FFAD00"/>
<path d="M509.056 171.166C510.307 169.73 510.944 168.002 510.944 166.038C510.944 160.465 507.327 157.645 500.185 157.645H489.543V185.307H493.555V174.665H500.261L508.267 185.206L508.334 185.299H513.252L504.49 173.876C506.362 173.423 507.898 172.508 509.064 171.166H509.056ZM493.538 161.422H500.051C504.616 161.422 506.84 162.932 506.84 166.038C506.84 167.523 506.27 168.673 505.095 169.554C503.911 170.435 502.292 170.889 500.286 170.889H493.538V161.422Z" fill="#FFAD00"/>
<path d="M532.077 157.645L523.701 170.595L515.518 157.754L515.451 157.645H510.567L521.595 174.842V185.299H525.615V174.842L536.76 157.645H532.077Z" fill="#FFAD00"/>
<path d="M123.533 174.623H131.237V179.583C129.365 181.044 127.016 181.791 124.254 181.791C121.09 181.791 118.48 180.851 116.5 179.004C114.527 177.158 113.52 174.623 113.52 171.476C113.52 168.329 114.494 165.887 116.399 163.998C118.312 162.11 120.855 161.153 123.969 161.153C127.343 161.153 129.978 162.144 131.816 164.107L131.984 164.292L134.586 161.674L134.443 161.506C132.143 158.719 128.535 157.301 123.726 157.301C119.638 157.301 116.164 158.686 113.403 161.405C110.642 164.133 109.24 167.523 109.24 171.476C109.24 175.723 110.658 179.181 113.445 181.766C116.231 184.342 119.84 185.651 124.162 185.651C126.227 185.651 128.274 185.274 130.255 184.527C132.236 183.78 133.872 182.747 135.114 181.463L135.182 181.396V170.922H123.533V174.623Z" fill="#004860"/>
<path d="M159.445 173.02C159.445 175.748 158.79 177.913 157.506 179.466C156.23 181.002 154.342 181.791 151.908 181.791C149.474 181.791 147.552 181.002 145.991 179.432C144.439 177.871 143.65 175.647 143.65 172.827V157.637H139.537V173.331C139.537 177.217 140.729 180.263 143.087 182.403C145.437 184.535 148.4 185.609 151.908 185.609C155.097 185.609 157.858 184.594 160.124 182.58C162.399 180.557 163.557 177.527 163.557 173.566V157.637H159.445V173.02Z" fill="#004860"/>
<path d="M180.426 157.561H177.245L164.782 185.299H169.021L172.092 178.425H185.47L188.584 185.299H192.898L180.493 157.704L180.426 157.561ZM173.662 174.842L178.764 163.327L183.901 174.842H173.662Z" fill="#004860"/>
<path d="M215.927 171.166C217.211 169.73 217.866 168.002 217.866 166.038C217.866 160.465 214.148 157.645 206.813 157.645H195.877V185.307H199.989V174.665H206.897L215.197 185.307H220.241L211.236 173.885C213.157 173.432 214.735 172.517 215.935 171.174L215.927 171.166ZM199.981 161.422H206.687C211.387 161.422 213.669 162.932 213.669 166.038C213.669 167.523 213.082 168.673 211.873 169.554C210.656 170.435 208.995 170.889 206.93 170.889H199.989V161.43L199.981 161.422Z" fill="#004860"/>
<path d="M244.529 161.674C243.337 160.406 241.684 159.408 239.628 158.703C237.58 157.998 235.138 157.637 232.385 157.637H223.522V185.299H231.982C237.236 185.299 241.264 183.964 243.958 181.329C246.652 178.694 248.02 175.244 248.02 171.082C248.02 169.227 247.735 167.49 247.164 165.937C246.602 164.376 245.704 162.941 244.521 161.682L244.529 161.674ZM232.225 181.522H227.635V161.422H232.301C236.313 161.422 239.267 162.295 241.071 164.015C242.876 165.736 243.79 168.111 243.79 171.082C243.79 174.263 242.834 176.822 240.945 178.694C239.057 180.565 236.12 181.514 232.217 181.514L232.225 181.522Z" fill="#004860"/>
<path d="M256.64 157.637H252.527V185.299H256.64V157.637Z" fill="#004860"/>
<path d="M275.271 157.561H272.09L259.627 185.299H263.866L266.937 178.425H280.315L283.429 185.299H287.743L275.338 157.704L275.271 157.561ZM268.507 174.842L273.609 163.327L278.746 174.842H268.507Z" fill="#004860"/>
<path d="M310.663 157.637V178.022L293.936 157.637H290.714V185.299H294.708V164.997L311.469 185.299H314.658V157.637H310.663Z" fill="#004860"/>
</svg>
