<svg width="645" height="240" viewBox="0 0 645 240" fill="none" xmlns="http://www.w3.org/2000/svg">
<rect width="645" height="240" fill="white"/>
<path d="M98.3162 155C79.3982 155 64 139.522 64 120.496C64 101.469 79.3982 86 98.3162 86C117.234 86 132.606 101.478 132.606 120.496C132.606 139.513 117.225 154.991 98.3162 154.991V155ZM98.3162 89.3029C81.2061 89.3029 67.284 103.296 67.284 120.496C67.284 137.695 81.2061 151.697 98.3162 151.697C115.426 151.697 129.331 137.704 129.331 120.496C129.331 103.287 115.417 89.3029 98.3162 89.3029Z" fill="#044860"/>
<path d="M109.024 138.222L98.7267 132.881C98.5956 132.811 98.4559 132.776 98.3074 132.776C98.1677 132.776 98.0192 132.811 97.8882 132.881L87.5907 138.222C87.154 138.451 86.9706 138.978 87.1802 139.426C87.3811 139.874 87.9051 140.084 88.3593 139.9L97.9668 136.149C98.0716 136.105 98.1851 136.079 98.2987 136.079C98.4122 136.079 98.5258 136.105 98.6306 136.149L108.238 139.9C108.692 140.084 109.216 139.874 109.417 139.426C109.618 138.978 109.435 138.451 109.007 138.222H109.024Z" fill="#F9AA19"/>
<path d="M122.824 119.573L107.714 118.879C106.823 118.835 106.509 117.667 107.26 117.184L120.003 108.971C120.413 108.707 120.544 108.163 120.3 107.741C120.055 107.311 119.522 107.152 119.086 107.381L105.644 114.382C104.849 114.795 104.002 113.943 104.413 113.143L111.374 99.6155C111.601 99.1763 111.443 98.6405 111.024 98.3945H111.007C110.579 98.1398 110.037 98.2715 109.775 98.6844L101.618 111.509C101.137 112.265 99.9756 111.949 99.932 111.053L99.2245 95.8383C99.1983 95.3464 98.7965 94.9599 98.3074 94.9599C97.8183 94.9599 97.4165 95.3464 97.3903 95.8383L96.6916 111.053C96.6479 111.949 95.4863 112.265 95.0059 111.509L86.8483 98.6844C86.5863 98.2715 86.0448 98.1398 85.6168 98.3857H85.6081C85.1888 98.6405 85.0316 99.1763 85.2587 99.6155L92.2198 113.134C92.6303 113.934 91.7831 114.786 90.9883 114.373L77.5465 107.372C77.1098 107.144 76.5771 107.302 76.3325 107.723C76.088 108.154 76.219 108.707 76.6295 108.971L89.3725 117.184C90.1236 117.667 89.8092 118.835 88.9183 118.879L73.7996 119.573C73.3105 119.6 72.9262 120.004 72.9262 120.496C72.9262 120.996 73.3105 121.4 73.7996 121.418L88.9183 122.121C89.8092 122.165 90.1236 123.333 89.3725 123.816L76.6295 132.02C76.219 132.284 76.088 132.829 76.3325 133.259C76.5771 133.698 77.1098 133.856 77.5465 133.628L97.8969 123.034C98.1589 122.894 98.4734 122.894 98.7354 123.034L119.086 133.628C119.522 133.856 120.055 133.698 120.3 133.268C120.544 132.837 120.405 132.293 119.994 132.029L107.251 123.825C106.5 123.342 106.814 122.173 107.705 122.129L122.815 121.427C123.304 121.4 123.689 120.996 123.689 120.504C123.689 120.004 123.304 119.6 122.815 119.582" fill="#F9AA19"/>
<path d="M386.436 106.599C387.737 105.097 388.401 103.287 388.401 101.232C388.401 95.3991 384.636 92.4476 377.204 92.4476H366.129V121.4H370.304V110.262H377.282L385.684 121.4H390.803L381.684 109.436C383.632 108.962 385.23 108.004 386.444 106.599H386.436ZM370.295 96.4005H377.073C381.824 96.4005 384.139 97.9817 384.139 101.232C384.139 102.787 383.545 103.99 382.322 104.912C381.09 105.835 379.405 106.309 377.317 106.309H370.295V96.4005Z" fill="#F9AA19"/>
<path d="M397.685 108.637H413.24V104.763H397.685V96.4005H414.376V92.4476H393.51V121.4H414.734V117.439H397.685V108.637Z" fill="#F9AA19"/>
<path d="M441.251 113.987C439.05 116.464 436.202 117.72 432.787 117.72C429.582 117.72 426.962 116.727 425.005 114.768C423.04 112.809 422.044 110.165 422.044 106.924C422.044 103.683 422.97 101.065 424.804 99.0885C426.63 97.1208 429.171 96.1194 432.342 96.1194C435.512 96.1194 438.316 97.2701 440.569 99.5365L440.744 99.7122L443.46 97.0681L443.329 96.8924C442.281 95.487 440.779 94.3187 438.849 93.4227C436.927 92.5267 434.709 92.0787 432.255 92.0787C427.922 92.0787 424.376 93.5105 421.712 96.3215C419.049 99.1324 417.704 102.699 417.704 106.915C417.704 111.404 419.057 115.041 421.739 117.72C424.411 120.399 428.053 121.752 432.543 121.752C434.857 121.752 437.05 121.286 439.05 120.364C441.058 119.441 442.639 118.194 443.74 116.648L443.853 116.481L441.434 113.767L441.251 113.978V113.987Z" fill="#F9AA19"/>
<path d="M459.094 121.761C463.156 121.761 466.641 120.329 469.453 117.5C472.265 114.672 473.689 111.114 473.689 106.915C473.689 102.716 472.265 99.0885 469.453 96.2951C466.641 93.4929 463.156 92.0787 459.094 92.0787C455.033 92.0787 451.504 93.5193 448.692 96.3566C445.88 99.1939 444.456 102.751 444.456 106.915C444.456 111.079 445.88 114.742 448.692 117.535C451.504 120.337 454.998 121.752 459.094 121.752V121.761ZM459.094 96.1194C461.898 96.1194 464.326 97.1472 466.335 99.1763C468.335 101.205 469.357 103.814 469.357 106.924C469.357 110.034 468.37 112.643 466.413 114.672C464.466 116.701 462.003 117.72 459.094 117.72C456.186 117.72 453.819 116.683 451.819 114.645C449.819 112.607 448.797 110.007 448.797 106.915C448.797 103.823 449.81 101.197 451.793 99.1675C453.784 97.1384 456.238 96.1106 459.086 96.1106L459.094 96.1194Z" fill="#F9AA19"/>
<path d="M489.76 121.4L502.922 92.4476H498.529L488.336 115.348L477.471 92.4476H472.955L486.773 121.4H489.76Z" fill="#F9AA19"/>
<path d="M526.338 117.439H509.28V108.637H524.836V104.763H509.28V96.4005H525.971V92.4476H505.105V121.4H526.338V117.439Z" fill="#F9AA19"/>
<path d="M535.02 110.262H541.998L550.4 121.4H555.518L546.4 109.436C548.348 108.962 549.946 108.004 551.16 106.599C552.462 105.097 553.125 103.287 553.125 101.232C553.125 95.3991 549.361 92.4476 541.928 92.4476H530.853V121.4H535.028V110.262H535.02ZM535.02 96.4005H541.797C546.549 96.4005 548.863 97.9817 548.863 101.232C548.863 102.787 548.269 103.99 547.046 104.912C545.815 105.835 544.129 106.309 542.042 106.309H535.02V96.4005Z" fill="#F9AA19"/>
<path d="M564.218 121.4H568.392V110.446L580 92.4476H575.118L566.41 106.01L557.894 92.5618L557.815 92.4476H552.732L564.218 110.446V121.4Z" fill="#F9AA19"/>
<path d="M276.718 137.897H155.935V140.532H276.718V137.897Z" fill="#F9AA19"/>
<path d="M569.109 137.897H448.351V140.532H569.109V137.897Z" fill="#F9AA19"/>
<path d="M159.21 110.218H167.01V115.418C165.114 116.947 162.739 117.729 159.944 117.729C156.738 117.729 154.101 116.745 152.092 114.812C150.092 112.88 149.079 110.227 149.079 106.924C149.079 103.621 150.057 101.065 151.996 99.0973C153.935 97.1208 156.511 96.1282 159.656 96.1282C163.071 96.1282 165.734 97.1647 167.595 99.2115L167.778 99.4135L170.416 96.664L170.276 96.4884C167.944 93.5632 164.293 92.0875 159.411 92.0875C155.262 92.0875 151.742 93.5369 148.948 96.3917C146.153 99.2466 144.738 102.795 144.738 106.933C144.738 111.369 146.17 114.997 149 117.702C151.821 120.408 155.481 121.778 159.856 121.778C161.953 121.778 164.031 121.383 166.031 120.601C168.04 119.819 169.691 118.739 170.949 117.386L171.019 117.316V106.362H159.201V110.236L159.21 110.218Z" fill="#044860"/>
<path d="M194.967 108.549C194.967 111.404 194.304 113.67 193.002 115.304C191.71 116.912 189.806 117.729 187.334 117.729C184.862 117.729 182.923 116.903 181.351 115.269C179.779 113.635 178.975 111.307 178.975 108.356V92.4476H174.8V108.874C174.8 112.941 176.014 116.13 178.399 118.361C180.783 120.592 183.788 121.717 187.334 121.717C190.565 121.717 193.36 120.645 195.666 118.546C197.972 116.429 199.142 113.257 199.142 109.111V92.4476H194.967V108.549Z" fill="#044860"/>
<path d="M212.383 92.3686L199.762 121.4H204.068L207.178 114.206H220.707L223.86 121.4H228.244L215.623 92.3686H212.383ZM208.767 110.446L213.92 98.4121L219.117 110.446H208.767Z" fill="#044860"/>
<path d="M250.961 106.599C252.263 105.097 252.927 103.287 252.927 101.232C252.927 95.3991 249.162 92.4476 241.73 92.4476H230.646V121.4H234.821V110.262H241.799L250.202 121.4H255.32L246.201 109.436C248.149 108.962 249.747 108.004 250.961 106.599ZM234.821 96.4005H241.599C246.35 96.4005 248.664 97.9817 248.664 101.232C248.664 102.787 248.07 103.99 246.848 104.912C245.616 105.835 243.939 106.309 241.843 106.309H234.821V96.4005Z" fill="#044860"/>
<path d="M279.321 96.6728C278.116 95.3464 276.439 94.3011 274.351 93.5544C272.273 92.8166 269.801 92.4388 267.015 92.4388H258.036V121.392H266.613C271.941 121.392 276.02 119.995 278.753 117.237C281.487 114.478 282.867 110.868 282.867 106.511C282.867 104.57 282.579 102.76 282.002 101.126C281.426 99.4926 280.526 97.9905 279.321 96.6728ZM275.688 114.487C273.784 116.446 270.805 117.439 266.857 117.439H262.22V96.4005H266.936C270.997 96.4005 273.984 97.3141 275.81 99.1148C277.635 100.916 278.561 103.402 278.561 106.511C278.561 109.84 277.592 112.52 275.679 114.487H275.688Z" fill="#044860"/>
<path d="M290.981 92.4476H286.806V121.4H290.981V92.4476Z" fill="#044860"/>
<path d="M309.305 92.5179L309.244 92.3686H306.004L293.383 121.4H297.689L300.798 114.206H314.327L317.48 121.4H321.865L309.305 92.5179ZM302.379 110.446L307.532 98.4121L312.729 110.446H302.379Z" fill="#044860"/>
<path d="M328.31 100.16L345.281 121.4H348.512V92.4476H344.46V113.758L327.533 92.4476H324.258V121.4H328.31V100.16Z" fill="#044860"/>
<path d="M292.754 131.01H289.793V148.227H292.754V131.01Z" fill="#044860"/>
<path d="M306.126 139.004L300.012 131.01H297.401V148.227H300.353V136.272L305.689 143.133H306.449L311.654 136.298V148.227H314.615V131.01H312.021L306.126 139.004Z" fill="#044860"/>
<path d="M327.987 139.004L321.873 131.01H319.262V148.227H322.223V136.272L327.551 143.133H328.31L333.516 136.298V148.227H336.477V131.01H333.883L327.987 139.004Z" fill="#044860"/>
<path d="M344.084 140.849H353.202V138.143H344.084V133.812H353.84V131.01H341.123V148.227H354.085V145.425H344.084V140.849Z" fill="#044860"/>
<path d="M370.566 139.496C371.247 138.591 371.596 137.555 371.596 136.369C371.596 135.631 371.492 134.963 371.282 134.348C371.072 133.742 370.723 133.18 370.243 132.662C369.762 132.143 369.064 131.739 368.155 131.441C367.247 131.142 366.146 131.002 364.854 131.002H358.128V148.219H361.089V141.894H364.705L369.378 148.219H372.976L367.841 141.332C368.985 141.007 369.893 140.392 370.583 139.487L370.566 139.496ZM364.915 139.101H361.072V133.812H364.766C366.138 133.812 367.098 134.032 367.666 134.48C368.225 134.919 368.513 135.552 368.513 136.377C368.513 137.203 368.199 137.897 367.561 138.38C366.924 138.863 366.042 139.109 364.924 139.109L364.915 139.101Z" fill="#044860"/>
<path d="M386.296 139.285C385.51 138.969 384.663 138.67 383.754 138.398C382.837 138.126 381.99 137.906 381.213 137.73C380.427 137.555 379.78 137.3 379.256 136.94C378.732 136.58 378.47 136.14 378.47 135.596C378.47 134.919 378.811 134.419 379.501 134.085C380.191 133.751 381.029 133.584 382.042 133.584C383.999 133.584 385.693 134.181 387.126 135.376L388.741 133.259C387.143 131.616 384.933 130.799 382.112 130.799C380.173 130.799 378.566 131.274 377.308 132.214C376.042 133.154 375.413 134.304 375.413 135.666C375.413 136.518 375.605 137.256 375.998 137.871C376.391 138.486 376.898 138.969 377.518 139.311C378.138 139.654 378.819 139.944 379.571 140.181C380.322 140.418 381.073 140.62 381.824 140.796C382.575 140.972 383.256 141.156 383.877 141.358C384.497 141.56 385.003 141.85 385.396 142.21C385.789 142.57 385.981 143.01 385.981 143.537C385.981 144.195 385.693 144.705 385.125 145.074C384.558 145.443 383.754 145.627 382.732 145.627C380.252 145.627 378.243 144.81 376.688 143.168L374.924 145.258C375.675 146.163 376.741 146.91 378.13 147.507C379.518 148.104 380.959 148.403 382.462 148.403C384.304 148.403 385.859 147.929 387.134 146.98C388.409 146.031 389.038 144.81 389.038 143.317C389.038 142.333 388.776 141.49 388.252 140.796C387.728 140.102 387.082 139.592 386.296 139.267V139.285Z" fill="#044860"/>
<path d="M395.659 131.01H392.698V148.227H395.659V131.01Z" fill="#044860"/>
<path d="M408.157 130.817C405.694 130.817 403.624 131.669 401.93 133.364C400.244 135.06 399.397 137.15 399.397 139.628C399.397 142.105 400.244 144.248 401.939 145.926C403.633 147.595 405.703 148.438 408.148 148.438C410.594 148.438 412.664 147.595 414.358 145.917C416.053 144.239 416.9 142.14 416.9 139.636C416.9 137.133 416.053 135.016 414.367 133.338C412.681 131.669 410.603 130.826 408.14 130.826L408.157 130.817ZM412.201 143.914C411.118 145.021 409.764 145.575 408.157 145.575C406.55 145.575 405.258 145.021 404.148 143.906C403.039 142.79 402.489 141.367 402.489 139.628C402.489 137.888 403.039 136.439 404.148 135.332C405.258 134.225 406.594 133.672 408.157 133.672C409.721 133.672 411.039 134.225 412.157 135.341C413.275 136.457 413.834 137.88 413.834 139.619C413.834 141.358 413.293 142.808 412.21 143.914H412.201Z" fill="#044860"/>
<path d="M432.394 131.01V142.79L422.953 131.01H420.647V148.227H423.538V136.492L432.979 148.227H435.277V131.01H432.394Z" fill="#044860"/>
</svg>
