<svg width="645" height="300" viewBox="0 0 645 300" fill="none" xmlns="http://www.w3.org/2000/svg">
<rect width="645" height="300" fill="white"/>
<path d="M206.077 225.259C204.38 225.259 203.01 224.736 201.952 223.691C200.893 222.645 200.364 221.262 200.364 219.55C200.364 217.838 200.876 216.43 201.893 215.392C202.91 214.355 204.271 213.832 205.96 213.832C207.783 213.832 209.262 214.473 210.404 215.747L212.286 213.95C211.707 213.099 210.841 212.407 209.698 211.884C208.556 211.361 207.262 211.092 205.817 211.092C203.305 211.092 201.28 211.901 199.725 213.512C198.171 215.123 197.398 217.138 197.398 219.542C197.398 222.105 198.162 224.155 199.692 225.689C201.221 227.224 203.279 227.992 205.867 227.992C207.279 227.992 208.573 227.722 209.757 227.174C210.942 226.634 211.875 225.875 212.547 224.922L210.875 223.084C209.665 224.534 208.068 225.259 206.077 225.259Z" fill="#044860"/>
<path d="M221.134 211.277L213.908 227.806H216.849L218.428 224.146H225.931L227.528 227.806H230.519L223.293 211.277H221.125H221.134ZM219.462 221.692L222.167 215.409L224.873 221.692H219.462Z" fill="#044860"/>
<path d="M243.172 219.221C242.416 218.918 241.601 218.631 240.727 218.369C239.845 218.108 239.03 217.897 238.282 217.728C237.526 217.56 236.904 217.307 236.4 216.969C235.896 216.632 235.644 216.202 235.644 215.679C235.644 215.03 235.972 214.549 236.635 214.229C237.299 213.908 238.106 213.748 239.08 213.748C240.962 213.748 242.592 214.322 243.97 215.468L245.525 213.436C243.987 211.859 241.861 211.075 239.148 211.075C237.282 211.075 235.736 211.53 234.526 212.432C233.308 213.335 232.703 214.44 232.703 215.747C232.703 216.565 232.888 217.273 233.266 217.863C233.644 218.454 234.132 218.918 234.728 219.246C235.325 219.575 235.98 219.854 236.703 220.081C237.425 220.309 238.148 220.503 238.87 220.672C239.593 220.84 240.248 221.017 240.845 221.211C241.441 221.405 241.929 221.684 242.307 222.029C242.685 222.375 242.87 222.805 242.87 223.303C242.87 223.935 242.592 224.424 242.046 224.779C241.5 225.133 240.727 225.31 239.744 225.31C237.358 225.31 235.426 224.526 233.93 222.949L232.233 224.956C232.955 225.824 233.98 226.541 235.316 227.115C236.652 227.688 238.039 227.975 239.484 227.975C241.257 227.975 242.752 227.519 243.979 226.609C245.205 225.698 245.81 224.526 245.81 223.092C245.81 222.147 245.558 221.338 245.054 220.672C244.55 220.005 243.928 219.516 243.172 219.204V219.221Z" fill="#044860"/>
<path d="M252.188 220.722H260.959V218.125H252.188V213.967H261.573V211.277H249.339V227.806H261.808V225.116H252.188V220.722Z" fill="#044860"/>
<path d="M280.813 218.951L274.932 211.277H272.42V227.806H275.26V216.329L280.393 222.915H281.124L286.132 216.354V227.806H288.98V211.277H286.485L280.813 218.951Z" fill="#044860"/>
<path d="M299.004 211.277L291.778 227.806H294.719L296.298 224.146H303.801L305.398 227.806H308.389L301.163 211.277H298.995H299.004ZM297.332 221.692L300.037 215.409L302.743 221.692H297.332Z" fill="#044860"/>
<path d="M322.479 222.586L313.396 211.277H311.187V227.806H313.959V216.539L323.042 227.806H325.252V211.277H322.479V222.586Z" fill="#044860"/>
<path d="M335.275 211.277L328.05 227.806H330.99L332.57 224.146H340.073L341.669 227.806H344.66L337.435 211.277H335.267H335.275ZM333.603 221.692L336.309 215.409L339.014 221.692H333.603Z" fill="#044860"/>
<path d="M354.188 221.574H358.566V224.104C357.574 224.871 356.339 225.259 354.852 225.259C353.113 225.259 351.701 224.753 350.618 223.733C349.534 222.712 348.996 221.321 348.996 219.542C348.996 217.762 349.508 216.404 350.533 215.376C351.559 214.347 352.928 213.832 354.642 213.832C356.524 213.832 357.986 214.414 359.02 215.578L360.927 213.756C360.313 212.922 359.44 212.272 358.305 211.8C357.171 211.328 355.902 211.092 354.508 211.092C352.063 211.092 350.038 211.901 348.441 213.52C346.845 215.14 346.038 217.147 346.038 219.542C346.038 222.08 346.862 224.121 348.5 225.672C350.139 227.224 352.248 228 354.819 228C356.087 228 357.297 227.772 358.457 227.317C359.616 226.862 360.566 226.212 361.313 225.377V218.977H354.205V221.574H354.188Z" fill="#044860"/>
<path d="M367.741 220.722H376.521V218.125H367.741V213.967H377.126V211.277H364.893V227.806H377.361V225.116H367.741V220.722Z" fill="#044860"/>
<path d="M389.645 218.951L383.764 211.277H381.243V227.806H384.091V216.329L389.225 222.915H389.947L394.963 216.354V227.806H397.812V211.277H395.316L389.645 218.951Z" fill="#044860"/>
<path d="M405.122 220.722H413.902V218.125H405.122V213.967H414.507V211.277H402.282V227.806H414.75V225.116H405.122V220.722Z" fill="#044860"/>
<path d="M429.916 222.586L420.842 211.277H418.624V227.806H421.405V216.539L430.487 227.806H432.697V211.277H429.916V222.586Z" fill="#044860"/>
<path d="M435.545 211.277V213.967H441.074V227.806H443.914V213.967H449.451V211.277H435.545Z" fill="#044860"/>
<path d="M182.988 218.184H119.956V220.714H182.988V218.184Z" fill="#F9AA19"/>
<path d="M525.934 218.184H463.86V220.714H525.934V218.184Z" fill="#F9AA19"/>
<path d="M322.202 145.448C300.365 145.448 282.603 127.629 282.603 105.72C282.603 83.8107 300.365 66 322.202 66C344.039 66 361.775 83.8192 361.775 105.728C361.775 127.638 344.022 145.457 322.202 145.457V145.448ZM322.202 69.1708C302.104 69.1708 285.762 85.5732 285.762 105.728C285.762 125.883 302.113 142.286 322.202 142.286C342.291 142.286 358.616 125.883 358.616 105.728C358.616 85.5732 342.274 69.1708 322.202 69.1708Z" fill="#044860"/>
<path d="M334.654 126.305L322.681 120.098C322.529 120.022 322.361 119.98 322.193 119.98C322.025 119.98 321.857 120.022 321.706 120.098L309.733 126.305C309.229 126.567 309.019 127.182 309.254 127.705C309.49 128.228 310.094 128.472 310.624 128.253L321.807 123.902C321.933 123.851 322.067 123.826 322.202 123.826C322.336 123.826 322.471 123.851 322.597 123.902L333.78 128.253C334.309 128.472 334.914 128.228 335.149 127.705C335.385 127.182 335.175 126.567 334.67 126.305H334.654Z" fill="#F9AA19"/>
<path d="M350.71 104.649L333.133 103.848C332.091 103.797 331.73 102.439 332.604 101.883L347.433 92.345C347.912 92.0414 348.063 91.409 347.786 90.9114C347.5 90.4138 346.879 90.2283 346.374 90.4897L330.73 98.6108C329.806 99.0915 328.814 98.0964 329.293 97.1688L337.393 81.4663C337.653 80.9603 337.477 80.3363 336.981 80.0496H336.964C336.468 79.7544 335.838 79.9062 335.536 80.3869L326.042 95.2798C325.479 96.1568 324.126 95.7942 324.084 94.7569L323.269 77.0895C323.244 76.5161 322.773 76.0691 322.202 76.0691H322.193C321.622 76.0691 321.152 76.5161 321.126 77.0895L320.32 94.7485C320.269 95.7942 318.917 96.1568 318.362 95.2713L308.868 80.3784C308.557 79.8978 307.927 79.746 307.439 80.0327H307.423C306.935 80.3278 306.75 80.9519 307.011 81.4579L315.119 97.1603C315.598 98.088 314.606 99.0831 313.682 98.6024L298.046 90.4729C297.542 90.2115 296.92 90.3885 296.634 90.8861C296.349 91.3921 296.5 92.0246 296.979 92.3366L311.808 101.874C312.682 102.439 312.321 103.797 311.279 103.839L293.694 104.64C293.122 104.666 292.677 105.138 292.677 105.712C292.677 106.293 293.122 106.757 293.694 106.791L311.279 107.601C312.321 107.651 312.682 109.009 311.8 109.565L296.97 119.095C296.492 119.407 296.34 120.039 296.626 120.528V120.545C296.92 121.034 297.542 121.22 298.046 120.959L321.723 108.655C322.034 108.494 322.395 108.494 322.706 108.655L346.383 120.959C346.887 121.22 347.517 121.034 347.794 120.537C348.072 120.039 347.92 119.407 347.442 119.103L332.612 109.574C331.738 109.009 332.099 107.651 333.141 107.609L350.718 106.799C351.29 106.774 351.735 106.302 351.735 105.728C351.735 105.146 351.29 104.683 350.718 104.649H350.71Z" fill="#F9AA19"/>
<path d="M350.794 183.38C352.046 181.938 352.676 180.201 352.676 178.228C352.676 172.628 349.055 169.795 341.905 169.795H331.242V197.59H335.259V186.897H341.972L350.055 197.59H354.978L346.206 186.113C348.08 185.657 349.618 184.738 350.786 183.389L350.794 183.38ZM335.267 173.59H341.787C346.358 173.59 348.584 175.108 348.584 178.228C348.584 179.72 348.013 180.876 346.837 181.761C345.652 182.647 344.039 183.102 342.022 183.102H335.267V173.59Z" fill="#F9AA19"/>
<path d="M361.616 185.337H376.588V181.609H361.616V173.59H377.672V169.795H357.6V197.582H378.025V193.787H361.616V185.337Z" fill="#F9AA19"/>
<path d="M403.525 190.473C401.408 192.851 398.669 194.057 395.384 194.057C392.3 194.057 389.779 193.104 387.897 191.223C386.007 189.343 385.049 186.804 385.049 183.692C385.049 180.581 385.94 178.068 387.704 176.17C389.46 174.281 391.897 173.32 394.955 173.32C398.013 173.32 400.702 174.424 402.87 176.609L403.038 176.777L405.651 174.239L405.525 174.07C404.517 172.721 403.071 171.599 401.215 170.739C399.366 169.879 397.232 169.449 394.871 169.449C390.704 169.449 387.292 170.824 384.73 173.522C382.167 176.221 380.873 179.645 380.873 183.692C380.873 188.002 382.176 191.493 384.755 194.065C387.326 196.637 390.83 197.936 395.148 197.936C397.375 197.936 399.484 197.489 401.408 196.604C403.34 195.718 404.861 194.521 405.92 193.036L406.029 192.876L403.702 190.27L403.525 190.473Z" fill="#F9AA19"/>
<path d="M420.691 169.441C416.758 169.441 413.389 170.824 410.684 173.547C407.978 176.271 406.609 179.687 406.609 183.684C406.609 187.681 407.978 191.198 410.684 193.88C413.389 196.57 416.75 197.928 420.691 197.928C424.631 197.928 427.95 196.553 430.655 193.837C433.361 191.122 434.73 187.707 434.73 183.676C434.73 179.645 433.361 176.162 430.655 173.48C427.95 170.79 424.597 169.432 420.691 169.432V169.441ZM420.691 194.057C417.968 194.057 415.616 193.062 413.692 191.105C411.768 189.149 410.785 186.652 410.785 183.684C410.785 180.716 411.759 178.194 413.666 176.246C415.582 174.298 417.943 173.311 420.691 173.311C423.438 173.311 425.723 174.298 427.656 176.246C429.58 178.194 430.563 180.699 430.563 183.684C430.563 186.669 429.613 189.174 427.731 191.122C425.858 193.07 423.488 194.057 420.691 194.057Z" fill="#F9AA19"/>
<path d="M448.829 191.771L438.377 169.795H434.033L447.258 197.447L447.325 197.582H450.19L462.852 169.795H458.626L448.829 191.771Z" fill="#F9AA19"/>
<path d="M468.977 185.337H483.941V181.609H468.977V173.59H485.025V169.795H464.952V197.582H485.378V193.787H468.977V185.337Z" fill="#F9AA19"/>
<path d="M509.265 183.38C510.517 181.938 511.155 180.201 511.155 178.228C511.155 172.628 507.534 169.795 500.384 169.795H489.73V197.59H493.746V186.897H500.46L508.542 197.59H513.466L504.694 186.113C506.568 185.657 508.105 184.738 509.273 183.389L509.265 183.38ZM493.729 173.59H500.249C504.82 173.59 507.047 175.108 507.047 178.228C507.047 179.72 506.475 180.876 505.299 181.761C504.114 182.647 502.493 183.102 500.485 183.102H493.729V173.59Z" fill="#F9AA19"/>
<path d="M532.312 169.795L523.926 182.815L515.659 169.795H510.777L521.818 187.074V197.582H525.842V187.074L537 169.795H532.312Z" fill="#F9AA19"/>
<path d="M123.309 186.855H131.022V191.839C129.148 193.306 126.796 194.057 124.031 194.057C120.864 194.057 118.251 193.112 116.268 191.257C114.293 189.402 113.285 186.855 113.285 183.692C113.285 180.53 114.26 178.076 116.167 176.179C118.083 174.281 120.628 173.32 123.746 173.32C127.123 173.32 129.761 174.315 131.601 176.288L131.77 176.474L134.374 173.843L134.231 173.674C131.929 170.874 128.316 169.449 123.502 169.449C119.41 169.449 115.932 170.84 113.167 173.573C110.403 176.313 109 179.72 109 183.692C109 187.96 110.42 191.434 113.209 194.031C115.999 196.62 119.612 197.936 123.939 197.936C126.006 197.936 128.056 197.556 130.039 196.806C132.022 196.055 133.66 195.018 134.903 193.728L134.971 193.66V183.136H123.309V186.855Z" fill="#044860"/>
<path d="M159.261 185.253C159.261 187.993 158.606 190.169 157.32 191.729C156.043 193.272 154.153 194.065 151.716 194.065C149.279 194.065 147.355 193.272 145.793 191.695C144.238 190.127 143.448 187.892 143.448 185.059V169.795H139.331V185.565C139.331 189.469 140.524 192.53 142.885 194.681C145.238 196.823 148.212 197.902 151.716 197.902C154.9 197.902 157.673 196.882 159.942 194.858C162.219 192.826 163.378 189.781 163.378 185.801V169.795H159.261V185.253Z" fill="#044860"/>
<path d="M180.266 169.71H177.082L164.605 197.582H168.848L171.923 190.675H185.316L188.433 197.582H192.752L180.333 169.854L180.266 169.71ZM183.736 187.074H173.494L178.594 175.504L183.736 187.074Z" fill="#044860"/>
<path d="M215.807 183.38C217.092 181.938 217.748 180.201 217.748 178.228C217.748 172.628 214.026 169.795 206.682 169.795H195.734V197.59H199.851V186.897H206.766L215.076 197.59H220.125L211.11 186.113C213.034 185.657 214.614 184.738 215.815 183.389L215.807 183.38ZM199.843 173.59H206.556C211.261 173.59 213.547 175.108 213.547 178.228C213.547 179.72 212.958 180.876 211.749 181.761C210.53 182.647 208.867 183.102 206.8 183.102H199.851V173.598L199.843 173.59Z" fill="#044860"/>
<path d="M244.441 173.851C243.248 172.578 241.593 171.574 239.526 170.866C237.476 170.157 235.031 169.795 232.275 169.795H223.402V197.59H231.871C237.131 197.59 241.164 196.249 243.861 193.601C246.558 190.953 247.928 187.487 247.928 183.305C247.928 181.441 247.642 179.695 247.071 178.135C246.508 176.566 245.617 175.124 244.424 173.859L244.441 173.851ZM232.124 193.787H227.528V173.59H232.199C236.215 173.59 239.173 174.467 240.979 176.195C242.786 177.924 243.702 180.311 243.702 183.296C243.702 186.492 242.744 189.064 240.853 190.945C238.963 192.826 236.022 193.778 232.115 193.778L232.124 193.787Z" fill="#044860"/>
<path d="M256.565 169.795H252.448V197.59H256.565V169.795Z" fill="#044860"/>
<path d="M275.218 169.71H272.033L259.556 197.582H263.799L266.874 190.675H280.267L283.384 197.582H287.703L275.285 169.854L275.218 169.71ZM278.688 187.074H268.446L273.546 175.504L278.688 187.074Z" fill="#044860"/>
<path d="M310.649 169.795V190.27L293.904 169.795H290.677V197.582H294.677V177.182L311.456 197.582H314.648V169.795H310.649Z" fill="#044860"/>
</svg>
