<svg width="645" height="300" viewBox="0 0 645 300" fill="none" xmlns="http://www.w3.org/2000/svg">
<rect width="645" height="300" fill="white"/>
<path d="M244.281 226.992L235.199 215.782V226.992H232.426V210.546H234.636L243.718 221.798V210.546H246.491V226.992H244.281Z" fill="#044860"/>
<path d="M250.961 210.546H263.194V213.223H253.809V217.359H262.581V219.943H253.809V224.315H263.43V226.992H250.961V210.546Z" fill="#044860"/>
<path d="M283.519 226.992H281.141L277.116 215.547L273.209 226.992H270.807L265.681 210.546H268.647L272.151 221.915L275.982 210.546H278.31L282.216 221.873L285.56 210.546H288.384L283.51 226.992H283.519Z" fill="#044860"/>
<path d="M297.962 210.546H304.616C305.952 210.546 307.087 210.697 308.019 211.007C308.952 211.309 309.658 211.737 310.136 212.291C310.615 212.845 310.951 213.407 311.162 213.994C311.363 214.582 311.464 215.236 311.464 215.958C311.464 216.679 311.346 217.326 311.103 217.946C310.859 218.567 310.481 219.138 309.977 219.658C309.473 220.178 308.75 220.598 307.834 220.9C306.918 221.202 305.835 221.361 304.6 221.361H300.81V227H297.962V210.546ZM300.81 213.197V218.693H304.549C307.187 218.693 308.498 217.77 308.498 215.924C308.498 214.078 307.238 213.197 304.709 213.197H300.802H300.81Z" fill="#044860"/>
<path d="M319.135 210.546H321.303L328.529 226.992H325.537L323.941 223.35H316.438L314.858 226.992H311.918L319.143 210.546H319.135ZM317.471 220.908H322.882L320.177 214.657L317.471 220.908Z" fill="#044860"/>
<path d="M327.445 210.546H341.35V213.223H335.822V226.992H332.973V213.223H327.445V210.546Z" fill="#044860"/>
<path d="M355.675 220.011H347.038V226.992H344.19V210.546H347.038V217.334H355.675V210.546H358.524V226.992H355.675V220.011Z" fill="#044860"/>
<path d="M379.201 226.992H376.823L372.799 215.547L368.892 226.992H366.489L361.364 210.546H364.33L367.833 221.915L371.665 210.546H373.992L377.899 221.873L381.243 210.546H384.066L379.193 226.992H379.201Z" fill="#044860"/>
<path d="M391.199 210.546H393.367L400.593 226.992H397.602L396.005 223.35H388.502L386.923 226.992H383.982L391.208 210.546H391.199ZM389.527 220.908H394.938L392.233 214.657L389.527 220.908Z" fill="#044860"/>
<path d="M408.818 219.876V226.992H405.97V219.876L399.358 210.546H402.887L407.424 217.099L412.062 210.546H415.473L408.818 219.876Z" fill="#044860"/>
<path d="M218.016 217.418H119.956V219.935H218.016V217.418Z" fill="#F9AA19"/>
<path d="M525.934 217.418H429.891V219.935H525.934V217.418Z" fill="#F9AA19"/>
<path d="M322.202 145.057C300.365 145.057 282.603 127.327 282.603 105.528C282.603 83.7295 300.365 66 322.202 66C344.039 66 361.775 83.7295 361.775 105.528C361.775 127.327 344.022 145.057 322.202 145.057ZM322.202 69.1549C302.104 69.1549 285.762 85.4747 285.762 105.528C285.762 125.582 302.113 141.902 322.202 141.902C342.291 141.902 358.616 125.582 358.616 105.528C358.616 85.4747 342.274 69.1549 322.202 69.1549Z" fill="#044860"/>
<path d="M334.654 126.002L322.681 119.826C322.529 119.751 322.361 119.709 322.193 119.709C322.025 119.709 321.857 119.751 321.706 119.826L309.733 126.002C309.229 126.262 309.019 126.874 309.254 127.394C309.49 127.915 310.094 128.158 310.624 127.94L321.807 123.61C321.933 123.56 322.067 123.535 322.202 123.535C322.336 123.535 322.471 123.56 322.597 123.61L333.78 127.94C334.309 128.158 334.914 127.915 335.149 127.394C335.385 126.874 335.175 126.262 334.67 126.002H334.654Z" fill="#F9AA19"/>
<path d="M350.71 104.454L333.133 103.657C332.091 103.607 331.73 102.256 332.604 101.702L347.433 92.2124C347.912 91.9104 348.063 91.2811 347.786 90.786C347.5 90.291 346.879 90.1064 346.374 90.3665L330.73 98.4467C329.806 98.925 328.814 97.9349 329.293 97.0119L337.393 81.3885C337.653 80.885 337.477 80.2641 336.981 79.9788H336.964C336.468 79.6852 335.838 79.8362 335.536 80.3145L326.042 95.1324C325.479 96.005 324.126 95.6442 324.084 94.6122L323.269 77.0337C323.244 76.4632 322.773 76.0184 322.202 76.0184H322.193C321.622 76.0184 321.152 76.4632 321.126 77.0337L320.32 94.6038C320.269 95.6442 318.917 96.005 318.362 95.124L308.868 80.3061C308.557 79.8278 307.927 79.6768 307.439 79.9621H307.423C306.935 80.2557 306.75 80.8766 307.011 81.3801L315.119 97.0035C315.598 97.9265 314.606 98.9166 313.682 98.4383L298.046 90.3497C297.542 90.0896 296.92 90.2658 296.634 90.7608C296.349 91.2643 296.5 91.8936 296.979 92.204L311.808 101.694C312.682 102.256 312.321 103.607 311.279 103.649L293.694 104.446C293.122 104.471 292.677 104.941 292.677 105.512C292.677 106.091 293.122 106.552 293.694 106.586L311.279 107.391C312.321 107.441 312.682 108.792 311.8 109.346L296.97 118.828C296.492 119.138 296.34 119.767 296.626 120.254V120.271C296.92 120.757 297.542 120.942 298.046 120.682L321.723 108.44C322.034 108.281 322.395 108.281 322.706 108.44L346.383 120.682C346.887 120.942 347.517 120.757 347.794 120.262C348.072 119.767 347.92 119.138 347.442 118.836L332.612 109.355C331.738 108.792 332.099 107.441 333.141 107.4L350.718 106.594C351.29 106.569 351.735 106.099 351.735 105.528C351.735 104.949 351.29 104.488 350.718 104.454H350.71Z" fill="#F9AA19"/>
<path d="M350.794 182.79C352.046 181.355 352.676 179.626 352.676 177.663C352.676 172.092 349.055 169.272 341.905 169.272H331.242V196.928H335.259V186.289H341.972L350.055 196.928H354.978L346.206 185.5C348.08 185.047 349.618 184.132 350.786 182.79H350.794ZM335.267 173.048H341.787C346.358 173.048 348.584 174.558 348.584 177.663C348.584 179.148 348.013 180.298 346.837 181.179C345.652 182.06 344.039 182.513 342.022 182.513H335.267V173.048Z" fill="#F9AA19"/>
<path d="M361.624 184.736H376.588V181.028H361.624V173.048H377.672V169.272H357.6V196.919H378.025V193.144H361.624V184.736Z" fill="#F9AA19"/>
<path d="M403.534 189.846C401.416 192.212 398.677 193.412 395.392 193.412C392.308 193.412 389.788 192.464 387.906 190.593C386.015 188.722 385.057 186.196 385.057 183.1C385.057 180.004 385.948 177.503 387.713 175.616C389.469 173.736 391.905 172.78 394.963 172.78C398.022 172.78 400.71 173.879 402.878 176.052L403.046 176.22L405.659 173.694L405.533 173.526C404.525 172.184 403.08 171.068 401.223 170.212C399.375 169.356 397.24 168.928 394.879 168.928C390.712 168.928 387.301 170.296 384.738 172.981C382.176 175.666 380.882 179.073 380.882 183.1C380.882 187.388 382.184 190.861 384.763 193.421C387.334 195.98 390.838 197.272 395.157 197.272C397.383 197.272 399.492 196.827 401.416 195.946C403.349 195.065 404.869 193.874 405.928 192.397L406.037 192.237L403.71 189.645L403.534 189.846Z" fill="#F9AA19"/>
<path d="M420.691 168.92C416.758 168.92 413.389 170.296 410.684 173.006C407.978 175.716 406.609 179.115 406.609 183.092C406.609 187.069 407.978 190.568 410.684 193.236C413.389 195.913 416.75 197.264 420.691 197.264C424.631 197.264 427.95 195.896 430.655 193.194C433.361 190.492 434.73 187.094 434.73 183.083C434.73 179.073 433.361 175.607 430.655 172.939C427.95 170.262 424.597 168.911 420.691 168.911V168.92ZM420.691 193.412C417.968 193.412 415.616 192.422 413.692 190.475C411.768 188.529 410.785 186.045 410.785 183.092C410.785 180.138 411.759 177.629 413.666 175.691C415.582 173.753 417.943 172.771 420.691 172.771C423.438 172.771 425.723 173.753 427.656 175.691C429.58 177.629 430.563 180.121 430.563 183.092C430.563 186.062 429.613 188.554 427.731 190.492C425.858 192.43 423.488 193.412 420.691 193.412Z" fill="#F9AA19"/>
<path d="M448.829 191.138L438.377 169.272H434.033L447.258 196.785L447.325 196.919H450.19L462.852 169.272H458.626L448.829 191.138Z" fill="#F9AA19"/>
<path d="M468.977 184.736H483.941V181.028H468.977V173.048H485.025V169.272H464.952V196.919H485.378V193.144H468.977V184.736Z" fill="#F9AA19"/>
<path d="M509.265 182.79C510.517 181.355 511.155 179.626 511.155 177.663C511.155 172.092 507.534 169.272 500.384 169.272H489.73V196.928H493.746V186.289H500.46L508.542 196.928H513.466L504.694 185.5C506.568 185.047 508.105 184.132 509.273 182.79H509.265ZM493.729 173.048H500.249C504.82 173.048 507.047 174.558 507.047 177.663C507.047 179.148 506.475 180.298 505.299 181.179C504.114 182.06 502.501 182.513 500.485 182.513H493.729V173.048Z" fill="#F9AA19"/>
<path d="M532.312 169.272L523.926 182.227L515.667 169.272H510.777L521.818 186.465V196.919H525.842V186.465L537 169.272H532.312Z" fill="#F9AA19"/>
<path d="M131.022 186.247V191.205C129.148 192.665 126.796 193.412 124.031 193.412C120.864 193.412 118.251 192.472 116.268 190.626C114.293 188.781 113.285 186.247 113.285 183.1C113.285 179.954 114.26 177.512 116.167 175.624C118.083 173.736 120.628 172.78 123.746 172.78C127.123 172.78 129.761 173.77 131.601 175.733L131.77 175.918L134.374 173.3L134.231 173.132C131.929 170.346 128.316 168.928 123.502 168.928C119.41 168.928 115.932 170.313 113.167 173.031C110.403 175.758 109 179.148 109 183.1C109 187.346 110.42 190.803 113.209 193.387C115.999 195.963 119.612 197.272 123.939 197.272C126.006 197.272 128.064 196.894 130.039 196.148C132.022 195.401 133.66 194.369 134.903 193.085L134.971 193.018V182.546H123.3V186.247H131.022Z" fill="#044860"/>
<path d="M159.261 184.652C159.261 187.379 158.606 189.544 157.32 191.096C156.043 192.632 154.153 193.421 151.716 193.421C149.279 193.421 147.355 192.632 145.793 191.063C144.238 189.502 143.448 187.279 143.448 184.459V169.272H139.331V184.963C139.331 188.848 140.524 191.893 142.885 194.033C145.238 196.164 148.212 197.238 151.716 197.238C154.909 197.238 157.673 196.223 159.942 194.209C162.219 192.196 163.378 189.158 163.378 185.198V169.272H159.261V184.652Z" fill="#044860"/>
<path d="M180.266 169.188H177.082L164.605 196.919H168.848L171.923 190.048H185.316L188.433 196.919H192.752L180.333 169.331L180.266 169.188ZM183.736 186.465H173.494L178.594 174.953L183.736 186.465Z" fill="#044860"/>
<path d="M215.807 182.79C217.092 181.355 217.748 179.626 217.748 177.663C217.748 172.092 214.026 169.272 206.682 169.272H195.734V196.928H199.851V186.289H206.766L215.076 196.928H220.125L211.11 185.508C213.034 185.055 214.614 184.141 215.815 182.798L215.807 182.79ZM199.843 173.048H206.556C211.261 173.048 213.547 174.558 213.547 177.663C213.547 179.148 212.958 180.298 211.749 181.179C210.53 182.06 208.867 182.513 206.8 182.513H199.851V173.056L199.843 173.048Z" fill="#044860"/>
<path d="M244.441 173.308C243.248 172.041 241.593 171.043 239.526 170.338C237.476 169.633 235.031 169.272 232.275 169.272H223.402V196.928H231.871C237.131 196.928 241.164 195.594 243.861 192.959C246.558 190.324 247.928 186.876 247.928 182.714C247.928 180.86 247.642 179.123 247.071 177.571C246.508 176.01 245.617 174.575 244.424 173.317L244.441 173.308ZM232.124 193.144H227.528V173.048H232.199C236.215 173.048 239.173 173.921 240.979 175.641C242.786 177.361 243.702 179.735 243.702 182.706C243.702 185.886 242.744 188.445 240.853 190.316C238.963 192.187 236.022 193.135 232.115 193.135L232.124 193.144Z" fill="#044860"/>
<path d="M256.565 169.272H252.448V196.928H256.565V169.272Z" fill="#044860"/>
<path d="M275.218 169.188H272.033L259.556 196.919H263.799L266.874 190.048H280.267L283.384 196.919H287.703L275.285 169.331L275.218 169.188ZM278.688 186.465H268.446L273.546 174.953L278.688 186.465Z" fill="#044860"/>
<path d="M310.649 169.272V189.645L293.904 169.272H290.677V196.919H294.677V176.622L311.456 196.919H314.648V169.272H310.649Z" fill="#044860"/>
</svg>
