<svg width="645" height="240" viewBox="0 0 645 240" fill="none" xmlns="http://www.w3.org/2000/svg">
<rect width="645" height="240" fill="#083045"/>
<path d="M99.3162 154C80.3982 154 65 138.522 65 119.496C65 100.469 80.3982 85 99.3162 85C118.234 85 133.615 100.478 133.615 119.496C133.615 138.513 118.234 153.991 99.3162 153.991V154ZM99.3162 88.3029C82.2061 88.3029 68.284 102.296 68.284 119.496C68.284 136.695 82.2061 150.697 99.3162 150.697C116.426 150.697 130.331 136.704 130.331 119.496C130.331 102.287 116.417 88.3029 99.3162 88.3029Z" fill="white"/>
<path d="M110.024 137.222L99.7267 131.881C99.5956 131.811 99.4559 131.776 99.3074 131.776C99.1677 131.776 99.0192 131.811 98.8882 131.881L88.5907 137.222C88.154 137.451 87.9706 137.978 88.1802 138.426C88.3811 138.874 88.9051 139.084 89.3593 138.9L98.9668 135.149C99.0716 135.105 99.1851 135.079 99.2987 135.079C99.4122 135.079 99.5258 135.105 99.6306 135.149L109.238 138.9C109.692 139.084 110.216 138.874 110.417 138.426C110.618 137.978 110.435 137.451 110.007 137.222H110.024Z" fill="#F9AA19"/>
<path d="M123.824 118.573L108.714 117.879C107.823 117.835 107.509 116.667 108.26 116.184L121.003 107.971C121.413 107.707 121.544 107.163 121.3 106.741C121.055 106.311 120.522 106.152 120.086 106.381L106.644 113.382C105.849 113.795 105.002 112.943 105.413 112.143L112.374 98.6155C112.601 98.1763 112.443 97.6405 112.024 97.3945H112.007C111.579 97.1398 111.037 97.2715 110.775 97.6844L102.618 110.509C102.137 111.265 100.976 110.949 100.932 110.053L100.224 94.8383C100.198 94.3464 99.7965 93.9599 99.3074 93.9599C98.8183 93.9599 98.4165 94.3464 98.3903 94.8383L97.6916 110.053C97.6479 110.949 96.4863 111.265 96.0059 110.509L87.8483 97.6844C87.5863 97.2715 87.0448 97.1398 86.6168 97.3857H86.6081C86.1888 97.6405 86.0316 98.1763 86.2587 98.6155L93.2198 112.134C93.6303 112.934 92.7831 113.786 91.9883 113.373L78.5465 106.372C78.1098 106.144 77.5771 106.302 77.3325 106.723C77.088 107.154 77.219 107.707 77.6295 107.971L90.3725 116.184C91.1236 116.667 90.8092 117.835 89.9183 117.879L74.7996 118.573C74.3105 118.6 73.9262 119.004 73.9262 119.496C73.9262 119.996 74.3105 120.4 74.7996 120.418L89.9183 121.121C90.8092 121.165 91.1236 122.333 90.3725 122.816L77.6295 131.02C77.219 131.284 77.088 131.829 77.3325 132.259C77.5771 132.698 78.1098 132.856 78.5465 132.628L98.8969 122.034C99.1589 121.894 99.4734 121.894 99.7354 122.034L120.086 132.628C120.522 132.856 121.055 132.698 121.3 132.268C121.544 131.837 121.405 131.293 120.994 131.029L108.251 122.825C107.5 122.342 107.814 121.173 108.705 121.129L123.815 120.427C124.304 120.4 124.689 119.996 124.689 119.504C124.689 119.004 124.304 118.6 123.815 118.582L123.824 118.573Z" fill="#F9AA19"/>
<path d="M160.21 109.227H168.01V114.427C166.114 115.956 163.739 116.737 160.944 116.737C157.738 116.737 155.101 115.754 153.092 113.821C151.092 111.888 150.079 109.236 150.079 105.933C150.079 102.63 151.057 100.074 152.996 98.106C154.935 96.1296 157.511 95.137 160.656 95.137C164.071 95.137 166.743 96.1735 168.595 98.229L168.778 98.4311L171.416 95.6816L171.276 95.5059C168.944 92.5808 165.293 91.105 160.411 91.105C156.262 91.105 152.742 92.5544 149.948 95.4093C147.153 98.2642 145.738 101.813 145.738 105.95C145.738 110.386 147.17 114.014 150 116.72C152.821 119.425 156.481 120.796 160.856 120.796C162.953 120.796 165.031 120.4 167.031 119.619C169.04 118.837 170.691 117.756 171.949 116.404L172.019 116.333V105.379H160.201V109.253L160.21 109.227Z" fill="white"/>
<path d="M195.967 107.549C195.967 110.404 195.304 112.67 194.002 114.295C192.71 115.903 190.806 116.72 188.334 116.72C185.862 116.72 183.923 115.894 182.351 114.26C180.779 112.626 179.975 110.299 179.975 107.347V91.4476H175.8V107.874C175.8 111.941 177.014 115.13 179.399 117.361C181.783 119.592 184.788 120.717 188.334 120.717C191.565 120.717 194.36 119.645 196.666 117.546C198.972 115.429 200.142 112.257 200.142 108.111V91.4476H195.967V107.549Z" fill="white"/>
<path d="M213.383 91.3686L200.762 120.4H205.068L208.178 113.206H221.707L224.86 120.4H229.244L216.623 91.3686H213.383ZM220.117 109.455H209.767L214.92 97.4209L220.117 109.455Z" fill="white"/>
<path d="M251.961 105.599C253.263 104.097 253.918 102.287 253.918 100.232C253.918 94.3991 250.154 91.4476 242.721 91.4476H231.637V120.4H235.812V109.262H242.791L251.193 120.4H256.311L247.193 108.436C249.14 107.962 250.739 107.004 251.953 105.599H251.961ZM235.821 95.4093H242.599C247.35 95.4093 249.664 96.9905 249.664 100.241C249.664 101.795 249.07 102.999 247.848 103.921C246.616 104.844 244.939 105.318 242.843 105.318H235.821V95.4093Z" fill="white"/>
<path d="M280.321 95.6728C279.116 94.3464 277.439 93.3011 275.351 92.5544C273.273 91.8166 270.801 91.4388 268.015 91.4388H259.036V120.392H267.613C272.941 120.392 277.02 118.995 279.753 116.237C282.478 113.478 283.867 109.868 283.867 105.511C283.867 103.57 283.579 101.751 283.002 100.126C282.426 98.4926 281.526 96.9905 280.321 95.6728ZM267.857 116.439H263.22V95.4093H267.936C271.997 95.4093 274.984 96.3229 276.81 98.1236C278.635 99.9244 279.561 102.41 279.561 105.52C279.561 108.849 278.592 111.528 276.679 113.496C274.766 115.455 271.797 116.447 267.849 116.447L267.857 116.439Z" fill="white"/>
<path d="M291.981 91.4476H287.806V120.4H291.981V91.4476Z" fill="white"/>
<path d="M310.244 91.3686H307.004L294.383 120.4H298.689L301.798 113.206H315.327L318.48 120.4H322.865L310.305 91.5179L310.244 91.3686ZM313.738 109.455H303.388L308.541 97.4209L313.738 109.455Z" fill="white"/>
<path d="M345.46 91.4476V112.767L328.542 91.4476H325.258V120.4H329.319V99.1602L346.281 120.4H349.521V91.4476H345.46Z" fill="white"/>
<path d="M387.436 105.599C388.737 104.097 389.401 102.287 389.401 100.232C389.401 94.3991 385.636 91.4476 378.204 91.4476H367.129V120.4H371.304V109.262H378.282L386.684 120.4H391.803L382.684 108.436C384.632 107.962 386.23 107.004 387.444 105.599H387.436ZM371.295 95.4093H378.073C382.824 95.4093 385.139 96.9905 385.139 100.241C385.139 101.795 384.545 102.999 383.322 103.921C382.09 104.844 380.413 105.318 378.317 105.318H371.295V95.4093Z" fill="#F9AA19"/>
<path d="M398.685 107.637H414.249V103.763H398.685V95.4093H415.376V91.4476H394.51V120.4H415.743V116.439H398.685V107.637Z" fill="#F9AA19"/>
<path d="M442.251 112.987C440.05 115.464 437.202 116.72 433.787 116.72C430.582 116.72 427.962 115.727 426.005 113.768C424.04 111.809 423.044 109.165 423.044 105.924C423.044 102.683 423.97 100.065 425.804 98.0885C427.63 96.1208 430.171 95.1194 433.342 95.1194C436.512 95.1194 439.316 96.2701 441.569 98.5453L441.744 98.7209L444.46 96.0769L444.329 95.9012C443.281 94.4957 441.779 93.3274 439.849 92.4314C437.927 91.5355 435.709 91.0875 433.255 91.0875C428.922 91.0875 425.376 92.5193 422.712 95.3302C420.049 98.1412 418.704 101.708 418.704 105.924C418.704 110.413 420.057 114.049 422.739 116.729C425.411 119.408 429.053 120.761 433.543 120.761C435.857 120.761 438.05 120.295 440.05 119.373C442.058 118.45 443.639 117.203 444.74 115.657L444.853 115.49L442.434 112.776L442.251 112.987Z" fill="#F9AA19"/>
<path d="M460.094 91.0787C456.007 91.0787 452.504 92.5193 449.692 95.3566C446.88 98.1939 445.456 101.751 445.456 105.915C445.456 110.079 446.88 113.742 449.692 116.535C452.504 119.337 455.998 120.752 460.094 120.752C464.191 120.752 467.641 119.32 470.453 116.491C473.265 113.663 474.689 110.105 474.689 105.906C474.689 101.708 473.265 98.0797 470.453 95.2863C467.641 92.4842 464.156 91.0699 460.094 91.0699V91.0787ZM460.094 116.729C457.264 116.729 454.819 115.692 452.819 113.654C450.819 111.616 449.797 109.016 449.797 105.924C449.797 102.832 450.81 100.205 452.793 98.1763C454.784 96.1472 457.238 95.1194 460.086 95.1194C462.933 95.1194 465.317 96.1472 467.326 98.1763C469.326 100.205 470.348 102.814 470.348 105.924C470.348 109.034 469.361 111.643 467.405 113.672C465.457 115.701 462.994 116.729 460.086 116.729H460.094Z" fill="#F9AA19"/>
<path d="M489.345 114.348L478.471 91.4476H473.964L487.711 120.26L487.781 120.4H490.76L503.922 91.4476H499.529L489.345 114.348Z" fill="#F9AA19"/>
<path d="M510.289 107.637H525.844V103.763H510.289V95.4093H526.971V91.4476H506.105V120.4H527.338V116.439H510.289V107.637Z" fill="#F9AA19"/>
<path d="M552.16 105.599C553.462 104.097 554.125 102.287 554.125 100.232C554.125 94.3991 550.361 91.4476 542.928 91.4476H531.853V120.4H536.028V109.262H543.007L551.409 120.4H556.527L547.409 108.436C549.357 107.962 550.955 107.004 552.169 105.599H552.16ZM536.02 95.4093H542.797C547.549 95.4093 549.863 96.9905 549.863 100.241C549.863 101.795 549.269 102.999 548.046 103.921C546.815 104.844 545.138 105.318 543.042 105.318H536.02V95.4093Z" fill="#F9AA19"/>
<path d="M576.126 91.4476L567.41 105.01L558.815 91.4476H553.741L565.218 109.455V120.4H569.401V109.455L581 91.4476H576.126Z" fill="#F9AA19"/>
<path d="M249.009 144.206C248.311 145.207 247.341 145.989 246.11 146.551C244.878 147.113 243.533 147.403 242.066 147.403C239.376 147.403 237.236 146.604 235.646 145.005C234.057 143.406 233.262 141.272 233.262 138.601C233.262 136.089 234.065 133.998 235.681 132.321C237.297 130.643 239.402 129.799 242.013 129.799C243.516 129.799 244.861 130.072 246.048 130.625C247.236 131.17 248.136 131.89 248.739 132.777L246.782 134.648C245.594 133.322 244.048 132.654 242.162 132.654C240.398 132.654 238.991 133.199 237.935 134.279C236.878 135.36 236.345 136.809 236.345 138.61C236.345 140.411 236.895 141.834 237.996 142.923C239.096 144.012 240.529 144.557 242.284 144.557C244.354 144.557 246.014 143.802 247.271 142.291L249.009 144.206Z" fill="white"/>
<path d="M257.936 129.984H260.189L267.7 147.201H264.591L262.931 143.389H255.132L253.49 147.201H250.433L257.944 129.984H257.936ZM256.197 140.832H261.822L259.01 134.288L256.197 140.832Z" fill="white"/>
<path d="M279.945 141.201C279.552 140.841 279.046 140.56 278.426 140.349C277.806 140.139 277.124 139.954 276.373 139.787C275.622 139.611 274.871 139.409 274.12 139.172C273.369 138.935 272.687 138.645 272.067 138.303C271.447 137.96 270.941 137.477 270.548 136.862C270.155 136.247 269.962 135.509 269.962 134.657C269.962 133.296 270.591 132.145 271.858 131.205C273.124 130.265 274.722 129.791 276.661 129.791C279.483 129.791 281.692 130.608 283.291 132.25L281.675 134.367C280.242 133.173 278.548 132.575 276.592 132.575C275.578 132.575 274.731 132.742 274.05 133.076C273.369 133.41 273.019 133.919 273.019 134.587C273.019 135.132 273.281 135.571 273.805 135.931C274.329 136.291 274.976 136.546 275.762 136.721C276.548 136.897 277.395 137.117 278.303 137.389C279.212 137.661 280.068 137.951 280.845 138.276C281.631 138.592 282.277 139.102 282.801 139.805C283.326 140.499 283.588 141.342 283.588 142.326C283.588 143.819 282.95 145.04 281.683 145.989C280.408 146.937 278.854 147.412 277.011 147.412C275.509 147.412 274.067 147.113 272.679 146.516C271.29 145.919 270.224 145.163 269.473 144.267L271.238 142.176C272.783 143.819 274.801 144.636 277.282 144.636C278.312 144.636 279.107 144.452 279.675 144.083C280.242 143.714 280.531 143.204 280.531 142.545C280.531 142.018 280.338 141.579 279.945 141.219V141.201Z" fill="white"/>
<path d="M287.256 129.984H299.973V132.786H290.217V137.117H299.335V139.822H290.217V144.399H300.217V147.201H287.256V129.984Z" fill="white"/>
<path d="M311.24 129.984H313.86L319.974 137.978L325.869 129.984H328.463V147.201H325.502V135.272L320.297 142.106H319.537L314.209 135.246V147.201H311.248V129.984H311.24Z" fill="white"/>
<path d="M338.874 129.984H341.128L348.639 147.201H345.53L343.87 143.389H336.071L334.429 147.201H331.372L338.883 129.984H338.874ZM337.145 140.832H342.77L339.957 134.288L337.145 140.832Z" fill="white"/>
<path d="M363.871 147.201L354.43 135.465V147.201H351.547V129.984H353.844L363.286 141.764V129.984H366.168V147.201H363.871Z" fill="white"/>
<path d="M376.588 129.984H378.841L386.353 147.201H383.243L381.584 143.389H373.784L372.142 147.201H369.085L376.597 129.984H376.588ZM374.85 140.832H380.475L377.662 134.288L374.85 140.832Z" fill="white"/>
<path d="M403.637 138.004V144.671C402.851 145.541 401.864 146.208 400.668 146.692C399.471 147.166 398.213 147.403 396.886 147.403C394.213 147.403 392.021 146.595 390.318 144.979C388.615 143.362 387.759 141.237 387.759 138.592C387.759 136.098 388.588 134.007 390.257 132.321C391.916 130.634 394.021 129.791 396.563 129.791C398.013 129.791 399.331 130.037 400.511 130.529C401.69 131.02 402.598 131.697 403.236 132.567L401.253 134.464C400.179 133.252 398.659 132.646 396.702 132.646C394.929 132.646 393.506 133.181 392.431 134.253C391.357 135.325 390.833 136.774 390.833 138.592C390.833 140.411 391.392 141.904 392.519 142.958C393.646 144.012 395.113 144.548 396.921 144.548C398.467 144.548 399.759 144.144 400.781 143.345V140.709H396.231V138.004H403.637Z" fill="white"/>
<path d="M407.375 129.984H420.092V132.786H410.336V137.117H419.455V139.822H410.336V144.399H420.337V147.201H407.375V129.984Z" fill="white"/>
<path d="M424.372 129.984H426.992L433.106 137.978L439.002 129.984H441.596V147.201H438.635V135.272L433.429 142.106H432.669L427.342 135.246V147.201H424.381V129.984H424.372Z" fill="white"/>
<path d="M446.233 129.984H458.95V132.786H449.194V137.117H458.313V139.822H449.194V144.399H459.195V147.201H446.233V129.984Z" fill="white"/>
<path d="M475.562 147.201L466.121 135.465V147.201H463.239V129.984H465.536L474.977 141.764V129.984H477.859V147.201H475.562Z" fill="white"/>
<path d="M480.82 129.984H495.275V132.786H489.528V147.201H486.567V132.786H480.82V129.984Z" fill="white"/>
<path d="M218.274 137.284H157.083V139.919H218.274V137.284Z" fill="#F9AA19"/>
<path d="M569.751 137.284H510.254V139.919H569.751V137.284Z" fill="#F9AA19"/>
</svg>
