<svg width="645" height="300" viewBox="0 0 645 300" fill="none" xmlns="http://www.w3.org/2000/svg">
<rect width="645" height="300" fill="#083045"/>
<path d="M239.643 216.929H119.956V219.446H239.643V216.929Z" fill="#F9AA19"/>
<path d="M525.926 216.929H404.752V219.446H525.926V216.929Z" fill="#F9AA19"/>
<path d="M322.202 145.077C300.365 145.077 282.603 127.343 282.603 105.539C282.603 83.7341 300.365 66 322.202 66C344.039 66 361.775 83.7341 361.775 105.539C361.775 127.343 344.022 145.077 322.202 145.077ZM322.202 69.1557C302.104 69.1557 285.762 85.4798 285.762 105.539C285.762 125.598 302.113 141.922 322.202 141.922C342.291 141.922 358.616 125.598 358.616 105.539C358.616 85.4798 342.274 69.1557 322.202 69.1557Z" fill="white"/>
<path d="M334.654 126.017L322.681 119.84C322.529 119.765 322.361 119.723 322.193 119.723C322.025 119.723 321.857 119.765 321.706 119.84L309.733 126.017C309.229 126.277 309.019 126.89 309.254 127.41C309.49 127.931 310.094 128.174 310.624 127.956L321.807 123.625C321.933 123.575 322.067 123.55 322.202 123.55C322.336 123.55 322.471 123.575 322.597 123.625L333.78 127.956C334.309 128.174 334.914 127.931 335.149 127.41C335.385 126.89 335.175 126.277 334.67 126.017H334.654Z" fill="#F9AA19"/>
<path d="M350.71 104.464L333.133 103.667C332.091 103.617 331.73 102.265 332.604 101.712L347.433 92.2193C347.912 91.9171 348.063 91.2877 347.786 90.7925C347.5 90.2973 346.879 90.1127 346.374 90.3728L330.73 98.4551C329.806 98.9335 328.814 97.9432 329.293 97.02L337.393 81.3925C337.653 80.8889 337.477 80.2678 336.981 79.9825H336.964C336.468 79.6887 335.838 79.8398 335.536 80.3182L326.042 95.14C325.479 96.0128 324.126 95.6519 324.084 94.6196L323.269 77.0366C323.244 76.4659 322.773 76.0211 322.202 76.0211H322.193C321.622 76.0211 321.152 76.4659 321.126 77.0366L320.32 94.6112C320.269 95.6519 318.917 96.0128 318.362 95.1316L308.868 80.3098C308.557 79.8314 307.927 79.6803 307.439 79.9657H307.423C306.935 80.2594 306.75 80.8805 307.011 81.3841L315.119 97.0116C315.598 97.9348 314.606 98.9251 313.682 98.4467L298.046 90.356C297.542 90.0959 296.92 90.2721 296.634 90.7673C296.349 91.2709 296.5 91.9003 296.979 92.2109L311.808 101.703C312.682 102.265 312.321 103.617 311.279 103.659L293.694 104.456C293.122 104.481 292.677 104.951 292.677 105.522C292.677 106.101 293.122 106.563 293.694 106.596L311.279 107.402C312.321 107.452 312.682 108.804 311.8 109.357L296.97 118.841C296.492 119.152 296.34 119.781 296.626 120.268V120.285C296.92 120.772 297.542 120.956 298.046 120.696L321.723 108.451C322.034 108.292 322.395 108.292 322.706 108.451L346.383 120.696C346.887 120.956 347.517 120.772 347.794 120.277C348.072 119.781 347.92 119.152 347.442 118.85L332.612 109.366C331.738 108.804 332.099 107.452 333.141 107.41L350.718 106.605C351.29 106.579 351.735 106.109 351.735 105.539C351.735 104.96 351.29 104.498 350.718 104.464H350.71Z" fill="#F9AA19"/>
<path d="M350.794 182.82C352.046 181.385 352.676 179.656 352.676 177.692C352.676 172.119 349.055 169.299 341.905 169.299H331.242V196.962H335.259V186.32H341.972L350.055 196.962H354.978L346.206 185.531C348.08 185.078 349.618 184.163 350.786 182.82H350.794ZM335.267 173.076H341.787C346.358 173.076 348.584 174.587 348.584 177.692C348.584 179.178 348.013 180.327 346.837 181.209C345.652 182.09 344.039 182.543 342.022 182.543H335.267V173.076Z" fill="#F9AA19"/>
<path d="M361.624 184.767H376.588V181.058H361.624V173.076H377.672V169.299H357.6V196.962H378.025V193.177H361.624V184.767Z" fill="#F9AA19"/>
<path d="M403.525 189.878C401.408 192.245 398.669 193.445 395.384 193.445C392.3 193.445 389.779 192.497 387.897 190.625C386.007 188.754 385.049 186.228 385.049 183.131C385.049 180.034 385.94 177.533 387.704 175.644C389.46 173.764 391.905 172.807 394.955 172.807C398.005 172.807 400.702 173.907 402.87 176.072L403.038 176.24L405.651 173.714L405.525 173.546C404.525 172.203 403.071 171.087 401.215 170.231C399.366 169.375 397.232 168.947 394.871 168.947C390.704 168.947 387.292 170.315 384.73 173C382.167 175.686 380.873 179.094 380.873 183.122C380.873 187.411 382.176 190.886 384.755 193.445C387.326 196.005 390.83 197.298 395.148 197.298C397.375 197.298 399.484 196.853 401.408 195.972C403.34 195.09 404.861 193.899 405.92 192.421L406.029 192.262L403.702 189.669L403.525 189.87V189.878Z" fill="#F9AA19"/>
<path d="M420.691 168.947C416.758 168.947 413.389 170.323 410.684 173.034C407.978 175.745 406.609 179.144 406.609 183.122C406.609 187.1 407.978 190.6 410.684 193.269C413.389 195.946 416.75 197.298 420.691 197.298C424.631 197.298 427.95 195.93 430.655 193.227C433.361 190.525 434.73 187.126 434.73 183.114C434.73 179.102 433.361 175.636 430.655 172.967C427.95 170.298 424.597 168.938 420.691 168.938V168.947ZM420.691 193.445C417.968 193.445 415.616 192.455 413.692 190.508C411.768 188.561 410.785 186.076 410.785 183.122C410.785 180.168 411.759 177.658 413.666 175.72C415.582 173.781 417.943 172.799 420.682 172.799C423.421 172.799 425.715 173.781 427.647 175.72C429.571 177.658 430.555 180.151 430.555 183.122C430.555 186.093 429.605 188.586 427.723 190.525C425.849 192.463 423.48 193.437 420.682 193.437L420.691 193.445Z" fill="#F9AA19"/>
<path d="M448.829 191.171L438.377 169.299H434.033L447.325 196.962H450.19L462.852 169.299H458.626L448.829 191.171Z" fill="#F9AA19"/>
<path d="M468.977 184.767H483.941V181.058H468.977V173.076H485.025V169.299H464.952V196.962H485.378V193.177H468.977V184.767Z" fill="#F9AA19"/>
<path d="M509.265 182.82C510.517 181.385 511.155 179.656 511.155 177.692C511.155 172.119 507.534 169.299 500.384 169.299H489.73V196.962H493.746V186.32H500.46L508.542 196.962H513.466L504.694 185.531C506.568 185.078 508.105 184.163 509.273 182.82H509.265ZM493.729 173.076H500.249C504.82 173.076 507.047 174.587 507.047 177.692C507.047 179.178 506.475 180.327 505.299 181.209C504.114 182.09 502.493 182.543 500.485 182.543H493.729V173.076Z" fill="#F9AA19"/>
<path d="M532.312 169.299L523.926 182.258L515.734 169.408L515.667 169.299H510.777L521.818 186.496V196.962H525.842V186.496L537 169.299H532.312Z" fill="#F9AA19"/>
<path d="M255.439 210.349H252.591V226.799H255.439V210.349Z" fill="white"/>
<path d="M268.311 217.986L262.43 210.349H259.909V226.799H262.757V215.384L267.883 221.939H268.614L273.63 215.401V226.799H276.469V210.349H273.982L268.311 217.986Z" fill="white"/>
<path d="M289.341 217.986L283.46 210.349H280.939V226.799H283.788V215.384L288.913 221.939H289.644L294.66 215.401V226.799H297.5V210.349H295.013L289.341 217.986Z" fill="white"/>
<path d="M304.818 219.749H313.598V217.164H304.818V213.034H314.203V210.349H301.97V226.799H314.438V224.121H304.818V219.749Z" fill="white"/>
<path d="M330.301 218.456C330.957 217.592 331.293 216.601 331.293 215.468C331.293 214.763 331.192 214.125 330.99 213.538C330.789 212.959 330.453 212.422 329.991 211.926C329.528 211.431 328.856 211.045 327.982 210.76C327.109 210.474 326.05 210.34 324.806 210.34H318.337V226.79H321.185V220.747H324.664L329.159 226.79H332.62L327.68 220.21C328.781 219.9 329.654 219.312 330.318 218.448L330.301 218.456ZM324.865 218.087H321.168V213.034H324.722C326.042 213.034 326.966 213.244 327.512 213.672C328.05 214.092 328.327 214.696 328.327 215.485C328.327 216.274 328.024 216.937 327.411 217.399C326.798 217.86 325.949 218.095 324.874 218.095L324.865 218.087Z" fill="white"/>
<path d="M345.425 218.263C344.669 217.961 343.854 217.676 342.98 217.415C342.098 217.155 341.283 216.945 340.535 216.778C339.779 216.61 339.157 216.366 338.653 216.022C338.149 215.678 337.897 215.258 337.897 214.738C337.897 214.092 338.225 213.613 338.888 213.294C339.552 212.976 340.359 212.816 341.333 212.816C343.215 212.816 344.845 213.387 346.223 214.528L347.778 212.506C346.24 210.936 344.114 210.156 341.4 210.156C339.535 210.156 337.989 210.609 336.779 211.507C335.561 212.405 334.956 213.504 334.956 214.805C334.956 215.619 335.141 216.324 335.519 216.912C335.897 217.499 336.384 217.961 336.981 218.288C337.578 218.616 338.233 218.893 338.955 219.119C339.678 219.346 340.401 219.539 341.123 219.707C341.846 219.874 342.501 220.051 343.098 220.244C343.694 220.437 344.182 220.714 344.56 221.058C344.938 221.402 345.123 221.822 345.123 222.325C345.123 222.955 344.845 223.441 344.299 223.794C343.753 224.146 342.98 224.323 341.997 224.323C339.611 224.323 337.678 223.542 336.183 221.973L334.486 223.97C335.208 224.835 336.233 225.548 337.569 226.119C338.905 226.689 340.291 226.975 341.737 226.975C343.509 226.975 345.005 226.522 346.232 225.615C347.458 224.709 348.063 223.542 348.063 222.115C348.063 221.175 347.811 220.37 347.307 219.707C346.803 219.044 346.181 218.557 345.425 218.246V218.263Z" fill="white"/>
<path d="M354.44 210.349H351.592V226.799H354.44V210.349Z" fill="white"/>
<path d="M366.455 210.164C364.086 210.164 362.095 210.978 360.465 212.598C358.843 214.218 358.028 216.215 358.028 218.582C358.028 220.949 358.843 222.997 360.473 224.6C362.103 226.194 364.094 227 366.447 227C368.8 227 370.791 226.194 372.421 224.591C374.051 222.988 374.866 220.982 374.866 218.59C374.866 216.198 374.051 214.176 372.429 212.573C370.808 210.978 368.808 210.172 366.439 210.172L366.455 210.164ZM370.354 222.678C369.312 223.735 368.01 224.264 366.464 224.264C364.918 224.264 363.674 223.735 362.607 222.669C361.54 221.603 361.011 220.244 361.011 218.582C361.011 216.92 361.54 215.535 362.607 214.478C363.674 213.42 364.96 212.892 366.464 212.892C367.968 212.892 369.236 213.42 370.312 214.486C371.387 215.552 371.925 216.912 371.925 218.574C371.925 220.235 371.404 221.62 370.362 222.678H370.354Z" fill="white"/>
<path d="M389.771 210.349V221.612L380.688 210.349H378.479V226.799H381.251V215.594L390.334 226.799H392.544V210.349H389.771Z" fill="white"/>
<path d="M131.022 186.278V191.238C129.148 192.698 126.796 193.445 124.031 193.445C120.864 193.445 118.251 192.505 116.268 190.659C114.293 188.813 113.285 186.278 113.285 183.131C113.285 179.983 114.26 177.541 116.167 175.653C118.083 173.764 120.628 172.807 123.746 172.807C127.123 172.807 129.761 173.798 131.601 175.762L131.77 175.946L134.374 173.328L134.231 173.16C131.929 170.373 128.316 168.955 123.502 168.955C119.41 168.955 115.932 170.34 113.167 173.059C110.403 175.787 109 179.178 109 183.131C109 187.377 110.42 190.835 113.209 193.42C115.999 195.997 119.612 197.306 123.939 197.306C126.006 197.306 128.064 196.928 130.039 196.181C132.022 195.434 133.66 194.402 134.903 193.118L134.971 193.051V182.577H123.3V186.278H131.022Z" fill="white"/>
<path d="M159.261 184.683C159.261 187.411 158.606 189.576 157.32 191.129C156.043 192.665 154.153 193.454 151.716 193.454C149.279 193.454 147.355 192.665 145.793 191.095C144.238 189.534 143.448 187.31 143.448 184.49V169.299H139.331V184.994C139.331 188.88 140.524 191.926 142.885 194.066C145.238 196.198 148.212 197.273 151.716 197.273C154.9 197.273 157.673 196.249 159.942 194.243C162.219 192.22 163.378 189.19 163.378 185.229V169.299H159.261V184.683Z" fill="white"/>
<path d="M180.266 169.215H177.082L164.605 196.954H168.848L171.923 190.08H185.316L188.433 196.954H192.752L180.333 169.358L180.266 169.215ZM183.736 186.496H173.494L178.594 174.981L183.736 186.496Z" fill="white"/>
<path d="M215.807 182.82C217.092 181.385 217.748 179.656 217.748 177.692C217.748 172.119 214.026 169.299 206.682 169.299H195.734V196.962H199.851V186.32H206.766L215.076 196.962H220.125L211.11 185.539C213.034 185.086 214.614 184.171 215.815 182.828L215.807 182.82ZM199.843 173.076H206.556C211.261 173.076 213.547 174.587 213.547 177.692C213.547 179.178 212.958 180.327 211.749 181.209C210.53 182.09 208.867 182.543 206.8 182.543H199.851V173.084L199.843 173.076Z" fill="white"/>
<path d="M244.441 173.336C243.248 172.069 241.593 171.07 239.526 170.365C237.476 169.66 235.031 169.299 232.275 169.299H223.402V196.962H231.871C237.131 196.962 241.164 195.628 243.861 192.992C246.558 190.357 247.928 186.907 247.928 182.745C247.928 180.89 247.642 179.152 247.071 177.6C246.508 176.039 245.617 174.603 244.424 173.345L244.441 173.336ZM232.124 193.177H227.528V173.076H232.199C236.215 173.076 239.173 173.949 240.979 175.669C242.786 177.39 243.702 179.765 243.702 182.736C243.702 185.917 242.744 188.477 240.853 190.348C238.963 192.22 236.022 193.168 232.115 193.168L232.124 193.177Z" fill="white"/>
<path d="M256.565 169.299H252.448V196.962H256.565V169.299Z" fill="white"/>
<path d="M287.695 196.962L275.276 169.366L275.209 169.224H272.025L259.548 196.962H263.791L266.866 190.088H280.259L283.376 196.962H287.695ZM278.688 186.496H268.446L273.546 174.981L278.688 186.496Z" fill="white"/>
<path d="M310.649 189.677L293.904 169.299H290.677V196.962H294.677V176.651L311.456 196.962H314.648V169.299H310.649V189.677Z" fill="white"/>
</svg>
