<svg width="645" height="300" viewBox="0 0 645 300" fill="none" xmlns="http://www.w3.org/2000/svg">
<rect width="645" height="300" fill="white"/>
<path d="M256.305 220.269H119.939V222.783H256.305V220.269Z" fill="#F9AA19"/>
<path d="M525.598 220.269H388.418V222.783H525.598V220.269Z" fill="#F9AA19"/>
<path d="M322.193 147.974C300.356 147.974 282.595 130.263 282.595 108.487C282.595 86.711 300.365 69 322.193 69C344.022 69 361.767 86.711 361.767 108.487C361.767 130.263 344.013 147.974 322.193 147.974ZM322.193 72.1516C302.096 72.1516 285.754 88.4544 285.754 108.487C285.754 128.52 302.104 144.823 322.193 144.823C342.283 144.823 358.608 128.52 358.608 108.487C358.608 88.4544 342.274 72.1516 322.193 72.1516Z" fill="#044860"/>
<path d="M334.654 128.939L322.681 122.77C322.529 122.695 322.361 122.653 322.193 122.653C322.025 122.653 321.857 122.695 321.706 122.77L309.733 128.939C309.229 129.199 309.019 129.811 309.254 130.331C309.49 130.85 310.094 131.093 310.624 130.875L321.807 126.55C321.933 126.5 322.067 126.475 322.202 126.475C322.336 126.475 322.471 126.5 322.597 126.55L333.78 130.875C334.309 131.093 334.914 130.85 335.149 130.331C335.385 129.811 335.175 129.199 334.67 128.939H334.654Z" fill="#F9AA19"/>
<path d="M350.71 107.414L333.133 106.618C332.091 106.568 331.73 105.218 332.604 104.665L347.433 95.1851C347.912 94.8834 348.063 94.2547 347.786 93.7602C347.5 93.2657 346.879 93.0813 346.374 93.3411L330.73 101.413C329.806 101.891 328.814 100.902 329.293 99.9796L337.393 84.3724C337.653 83.8695 337.477 83.2493 336.981 82.9643H336.964C336.468 82.6709 335.838 82.8218 335.536 83.2996L326.042 98.102C325.479 98.9738 324.126 98.6133 324.084 97.5824L323.269 80.0222C323.244 79.4523 322.773 79.008 322.202 79.008H322.193C321.622 79.008 321.152 79.4523 321.126 80.0222L320.32 97.574C320.269 98.6133 318.917 98.9738 318.362 98.0937L308.868 83.2912C308.557 82.8134 307.927 82.6625 307.439 82.9475H307.423C306.935 83.2409 306.75 83.8612 307.011 84.3641L315.119 99.9712C315.598 100.893 314.606 101.882 313.682 101.405L298.046 93.3243C297.542 93.0645 296.92 93.2405 296.634 93.7351C296.349 94.238 296.5 94.8666 296.979 95.1767L311.808 104.657C312.682 105.218 312.321 106.568 311.279 106.61L293.694 107.406C293.122 107.431 292.677 107.901 292.677 108.47C292.677 109.049 293.122 109.51 293.694 109.543L311.279 110.348C312.321 110.398 312.682 111.748 311.8 112.301L296.97 121.773C296.492 122.083 296.34 122.711 296.626 123.198V123.214C296.92 123.7 297.542 123.885 298.046 123.625L321.723 111.396C322.034 111.237 322.395 111.237 322.706 111.396L346.383 123.625C346.887 123.885 347.517 123.7 347.794 123.206C348.072 122.711 347.92 122.083 347.442 121.781L332.612 112.309C331.738 111.748 332.099 110.398 333.141 110.356L350.718 109.552C351.29 109.527 351.735 109.057 351.735 108.487C351.735 107.909 351.29 107.448 350.718 107.414H350.71Z" fill="#F9AA19"/>
<path d="M350.794 185.668C352.046 184.235 352.676 182.508 352.676 180.547C352.676 174.981 349.055 172.165 341.905 172.165H331.242V199.792H335.259V189.163H341.972L350.055 199.792H354.978L346.206 188.384C348.08 187.931 349.618 187.017 350.786 185.676L350.794 185.668ZM335.267 175.937H341.787C346.358 175.937 348.584 177.445 348.584 180.547C348.584 182.03 348.013 183.179 346.837 184.059C345.652 184.939 344.039 185.391 342.022 185.391H335.267V175.937Z" fill="#F9AA19"/>
<path d="M361.616 187.613H376.588V183.908H361.616V175.937H377.672V172.165H357.6V199.783H378.025V196.011H361.616V187.613Z" fill="#F9AA19"/>
<path d="M403.525 192.717C401.408 195.081 398.669 196.28 395.384 196.28C392.3 196.28 389.779 195.332 387.897 193.463C386.007 191.594 385.049 189.071 385.049 185.978C385.049 182.885 385.94 180.387 387.704 178.501C389.46 176.624 391.897 175.668 394.955 175.668C398.013 175.668 400.702 176.766 402.87 178.937L403.038 179.105L405.651 176.582L405.525 176.414C404.525 175.073 403.071 173.958 401.215 173.103C399.366 172.249 397.232 171.821 394.871 171.821C390.704 171.821 387.292 173.187 384.73 175.87C382.167 178.552 380.873 181.955 380.873 185.978C380.873 190.261 382.176 193.731 384.755 196.288C387.326 198.844 390.83 200.135 395.148 200.135C397.375 200.135 399.484 199.691 401.408 198.811C403.34 197.931 404.861 196.741 405.92 195.265L406.029 195.106L403.702 192.516L403.525 192.717Z" fill="#F9AA19"/>
<path d="M420.691 171.813C416.758 171.813 413.389 173.187 410.684 175.895C407.978 178.602 406.609 181.997 406.609 185.97C406.609 189.943 407.978 193.438 410.684 196.103C413.389 198.777 416.75 200.127 420.691 200.127C424.631 200.127 427.95 198.761 430.655 196.062C433.361 193.363 434.73 189.968 434.73 185.961C434.73 181.955 433.361 178.493 430.655 175.828C427.95 173.162 424.597 171.804 420.691 171.804V171.813ZM420.691 196.28C417.968 196.28 415.616 195.29 413.692 193.346C411.768 191.401 410.785 188.92 410.785 185.97C410.785 183.019 411.759 180.513 413.666 178.577C415.582 176.641 417.943 175.66 420.691 175.66C423.438 175.66 425.723 176.641 427.656 178.577C429.58 180.513 430.563 183.003 430.563 185.97C430.563 188.937 429.613 191.426 427.731 193.363C425.858 195.299 423.488 196.28 420.691 196.28Z" fill="#F9AA19"/>
<path d="M448.829 194.008L438.377 172.165H434.033L447.258 199.649L447.325 199.783H450.19L462.852 172.165H458.626L448.829 194.008Z" fill="#F9AA19"/>
<path d="M468.977 187.613H483.941V183.908H468.977V175.937H485.025V172.165H464.952V199.783H485.378V196.011H468.977V187.613Z" fill="#F9AA19"/>
<path d="M509.265 185.668C510.517 184.235 511.155 182.508 511.155 180.547C511.155 174.981 507.534 172.165 500.384 172.165H489.73V199.792H493.746V189.163H500.46L508.542 199.792H513.466L504.694 188.384C506.568 187.931 508.105 187.017 509.273 185.676L509.265 185.668ZM493.729 175.937H500.249C504.82 175.937 507.047 177.445 507.047 180.547C507.047 182.03 506.475 183.179 505.299 184.059C504.114 184.939 502.493 185.391 500.485 185.391H493.729V175.937Z" fill="#F9AA19"/>
<path d="M532.312 172.165L523.926 185.106L515.659 172.165H510.777L521.818 189.339V199.783H525.842V189.339L537 172.165H532.312Z" fill="#F9AA19"/>
<path d="M278.066 225.725L272.277 213.404H269.193L277.032 229.832H279.057L286.485 213.404H283.477L278.066 225.725Z" fill="#044860"/>
<path d="M292.022 213.404H289.173V229.832H292.022V213.404Z" fill="#044860"/>
<path d="M308.464 221.501C309.12 220.637 309.456 219.648 309.456 218.517C309.456 217.813 309.355 217.167 309.153 216.589C308.952 216.011 308.616 215.474 308.154 214.98C307.691 214.485 307.019 214.099 306.145 213.815C305.272 213.53 304.213 213.395 302.97 213.395H296.5V229.824H299.348V223.789H302.827L307.322 229.824H310.783L305.843 223.253C306.944 222.942 307.817 222.356 308.481 221.492L308.464 221.501ZM303.028 221.124H299.331V216.078H302.885C304.205 216.078 305.129 216.287 305.675 216.715C306.213 217.134 306.49 217.737 306.49 218.525C306.49 219.313 306.187 219.975 305.574 220.436C304.961 220.897 304.112 221.132 303.037 221.132L303.028 221.124Z" fill="#044860"/>
<path d="M311.002 216.078H316.53V229.832H319.379V216.078H324.907V213.404H311.002V216.078Z" fill="#044860"/>
<path d="M338.829 222.439C338.829 223.923 338.493 225.113 337.821 226.01C337.149 226.899 336.149 227.351 334.83 227.351C333.511 227.351 332.469 226.89 331.654 225.977C330.839 225.063 330.427 223.856 330.427 222.347V213.404H327.579V222.699C327.579 225.013 328.276 226.815 329.663 228.089C331.049 229.363 332.772 230 334.83 230C335.721 230 336.561 229.866 337.351 229.589C338.132 229.313 338.863 228.902 339.527 228.357C340.191 227.812 340.72 227.066 341.106 226.119C341.493 225.172 341.686 224.082 341.686 222.842V213.404H338.838V222.439H338.829Z" fill="#044860"/>
<path d="M351.559 213.404L344.333 229.832H347.273L348.853 226.195H356.356L357.952 229.832H360.944L353.718 213.404H351.55H351.559ZM349.887 223.755L352.592 217.511L355.297 223.755H349.887Z" fill="#044860"/>
<path d="M366.59 227.159V213.404H363.75V229.832H375.933V227.159H366.59Z" fill="#044860"/>
<path d="M123.309 189.121H131.022V194.075C129.148 195.534 126.796 196.28 124.031 196.28C120.864 196.28 118.251 195.341 116.268 193.497C114.293 191.653 113.285 189.121 113.285 185.978C113.285 182.835 114.26 180.396 116.167 178.51C118.083 176.624 120.628 175.668 123.746 175.668C127.123 175.668 129.761 176.657 131.601 178.619L131.77 178.803L134.374 176.188L134.231 176.02C131.929 173.238 128.316 171.821 123.502 171.821C119.41 171.821 115.932 173.204 113.167 175.92C110.403 178.644 109 182.03 109 185.978C109 190.219 110.42 193.673 113.209 196.254C115.999 198.828 119.612 200.135 123.939 200.135C126.006 200.135 128.056 199.758 130.039 199.012C132.022 198.266 133.66 197.235 134.903 195.953L134.971 195.886V185.425H123.309V189.121Z" fill="#044860"/>
<path d="M159.261 187.529C159.261 190.253 158.606 192.415 157.32 193.966C156.043 195.5 154.153 196.288 151.716 196.288C149.279 196.288 147.355 195.5 145.793 193.933C144.238 192.374 143.448 190.152 143.448 187.336V172.165H139.331V187.839C139.331 191.72 140.524 194.762 142.885 196.9C145.238 199.029 148.212 200.102 151.716 200.102C154.9 200.102 157.673 199.087 159.942 197.076C162.219 195.056 163.378 192.03 163.378 188.074V172.165H159.261V187.529Z" fill="#044860"/>
<path d="M180.266 172.081H177.082L164.605 199.783H168.848L171.923 192.918H185.316L188.433 199.783H192.752L180.333 172.223L180.266 172.081ZM183.736 189.339H173.494L178.594 177.839L183.736 189.339Z" fill="#044860"/>
<path d="M215.807 185.668C217.092 184.235 217.748 182.508 217.748 180.547C217.748 174.981 214.026 172.165 206.682 172.165H195.734V199.792H199.851V189.163H206.766L215.076 199.792H220.125L211.11 188.384C213.034 187.931 214.614 187.017 215.815 185.676L215.807 185.668ZM199.843 175.937H206.556C211.261 175.937 213.547 177.445 213.547 180.547C213.547 182.03 212.958 183.179 211.749 184.059C210.53 184.939 208.867 185.391 206.8 185.391H199.851V175.945L199.843 175.937Z" fill="#044860"/>
<path d="M244.441 176.196C243.248 174.931 241.593 173.933 239.526 173.229C237.476 172.525 235.031 172.165 232.275 172.165H223.402V199.792H231.871C237.131 199.792 241.164 198.459 243.861 195.827C246.558 193.195 247.928 189.75 247.928 185.593C247.928 183.74 247.642 182.005 247.071 180.454C246.508 178.895 245.617 177.462 244.424 176.205L244.441 176.196ZM232.124 196.011H227.528V175.937H232.199C236.215 175.937 239.173 176.808 240.979 178.527C242.786 180.245 243.702 182.617 243.702 185.584C243.702 188.761 242.744 191.317 240.853 193.187C238.963 195.056 236.022 196.003 232.115 196.003L232.124 196.011Z" fill="#044860"/>
<path d="M256.565 172.165H252.448V199.792H256.565V172.165Z" fill="#044860"/>
<path d="M275.218 172.081H272.033L259.556 199.783H263.799L266.874 192.918H280.267L283.384 199.783H287.703L275.285 172.223L275.218 172.081ZM278.688 189.339H268.446L273.546 177.839L278.688 189.339Z" fill="#044860"/>
<path d="M314.648 199.783V172.165H310.649V192.516L293.904 172.165H290.677V199.783H294.677V179.507L311.456 199.783H314.648Z" fill="#044860"/>
</svg>
