<svg width="645" height="240" viewBox="0 0 645 240" fill="none" xmlns="http://www.w3.org/2000/svg">
<rect width="645" height="240" fill="#083045"/>
<path d="M99.3162 155C80.3982 155 65 139.522 65 120.496C65 101.469 80.3982 86 99.3162 86C118.234 86 133.615 101.478 133.615 120.496C133.615 139.513 118.234 154.991 99.3162 154.991V155ZM99.3162 89.3029C82.2062 89.3029 68.284 103.296 68.284 120.496C68.284 137.695 82.2062 151.697 99.3162 151.697C116.426 151.697 130.331 137.704 130.331 120.496C130.331 103.287 116.418 89.3029 99.3162 89.3029Z" fill="white"/>
<path d="M110.024 138.222L99.7267 132.881C99.5957 132.811 99.4559 132.776 99.3075 132.776C99.1677 132.776 99.0191 132.811 98.8881 132.881L88.5907 138.222C88.154 138.451 87.9706 138.978 88.1803 139.426C88.3811 139.874 88.9052 140.084 89.3593 139.9L98.9668 136.149C99.0716 136.105 99.1852 136.079 99.2987 136.079C99.4123 136.079 99.5258 136.105 99.6306 136.149L109.238 139.9C109.692 140.084 110.216 139.874 110.417 139.426C110.618 138.978 110.435 138.451 110.007 138.222H110.024Z" fill="#F9AA19"/>
<path d="M123.824 119.573L108.714 118.879C107.823 118.835 107.509 117.667 108.26 117.184L121.003 108.971C121.413 108.707 121.544 108.163 121.3 107.741C121.055 107.311 120.522 107.152 120.086 107.381L106.644 114.382C105.849 114.795 105.002 113.943 105.413 113.143L112.374 99.6155C112.601 99.1763 112.443 98.6405 112.024 98.3945H112.007C111.579 98.1398 111.037 98.2716 110.775 98.6844L102.618 111.509C102.137 112.265 100.976 111.949 100.932 111.053L100.224 95.8383C100.198 95.3464 99.7966 94.9599 99.3075 94.9599C98.8183 94.9599 98.4165 95.3464 98.3903 95.8383L97.6916 111.053C97.6479 111.949 96.4863 112.265 96.0059 111.509L87.8484 98.6844C87.5863 98.2716 87.0448 98.1398 86.6168 98.3857H86.6081C86.1888 98.6405 86.0316 99.1763 86.2587 99.6155L93.2197 113.134C93.6302 113.934 92.7831 114.786 91.9883 114.373L78.5466 107.372C78.1098 107.144 77.5771 107.302 77.3325 107.723C77.0879 108.154 77.2189 108.707 77.6294 108.971L90.3725 117.184C91.1236 117.667 90.8092 118.835 89.9183 118.879L74.7996 119.573C74.3105 119.6 73.9262 120.004 73.9262 120.496C73.9262 120.996 74.3105 121.4 74.7996 121.418L89.9183 122.121C90.8092 122.165 91.1236 123.333 90.3725 123.816L77.6294 132.02C77.2189 132.284 77.0879 132.829 77.3325 133.259C77.5771 133.698 78.1098 133.856 78.5466 133.628L98.8969 123.034C99.1589 122.894 99.4734 122.894 99.7354 123.034L120.086 133.628C120.522 133.856 121.055 133.698 121.3 133.268C121.544 132.837 121.405 132.293 120.994 132.029L108.251 123.825C107.5 123.342 107.814 122.173 108.705 122.129L123.815 121.427C124.304 121.4 124.689 120.996 124.689 120.504C124.689 120.004 124.304 119.6 123.815 119.582L123.824 119.573Z" fill="#F9AA19"/>
<path d="M387.436 106.599C388.737 105.097 389.401 103.287 389.401 101.232C389.401 95.3991 385.636 92.4476 378.204 92.4476H367.129V121.4H371.304V110.262H378.282L386.684 121.4H391.803L382.684 109.436C384.632 108.962 386.23 108.004 387.444 106.599H387.436ZM371.295 96.4005H378.073C382.824 96.4005 385.139 97.9817 385.139 101.232C385.139 102.787 384.545 103.99 383.322 104.912C382.09 105.835 380.413 106.309 378.317 106.309H371.295V96.4005Z" fill="#F9AA19"/>
<path d="M398.685 108.637H414.249V104.763H398.685V96.4005H415.376V92.4476H394.51V121.4H415.743V117.439H398.685V108.637Z" fill="#F9AA19"/>
<path d="M442.251 113.987C440.05 116.464 437.202 117.72 433.787 117.72C430.582 117.72 427.962 116.727 426.005 114.768C424.04 112.809 423.044 110.165 423.044 106.924C423.044 103.683 423.97 101.065 425.804 99.0885C427.63 97.1208 430.171 96.1194 433.342 96.1194C436.512 96.1194 439.316 97.2701 441.569 99.5453L441.744 99.7209L444.46 97.0769L444.329 96.9012C443.281 95.4957 441.779 94.3274 439.849 93.4315C437.927 92.5355 435.709 92.0875 433.255 92.0875C428.922 92.0875 425.376 93.5193 422.712 96.3302C420.049 99.1412 418.704 102.708 418.704 106.924C418.704 111.413 420.057 115.049 422.739 117.729C425.411 120.408 429.053 121.761 433.543 121.761C435.857 121.761 438.05 121.295 440.05 120.373C442.059 119.45 443.639 118.203 444.74 116.657L444.853 116.49L442.434 113.776L442.251 113.987Z" fill="#F9AA19"/>
<path d="M460.094 92.0787C456.007 92.0787 452.504 93.5193 449.692 96.3566C446.88 99.1939 445.456 102.751 445.456 106.915C445.456 111.079 446.88 114.742 449.692 117.535C452.504 120.337 455.998 121.752 460.094 121.752C464.191 121.752 467.641 120.32 470.453 117.491C473.265 114.663 474.689 111.105 474.689 106.906C474.689 102.708 473.265 99.0797 470.453 96.2863C467.641 93.4842 464.156 92.0699 460.094 92.0699V92.0787ZM460.094 117.729C457.265 117.729 454.819 116.692 452.819 114.654C450.819 112.616 449.797 110.016 449.797 106.924C449.797 103.832 450.81 101.205 452.793 99.1763C454.784 97.1472 457.238 96.1194 460.086 96.1194C462.933 96.1194 465.317 97.1472 467.326 99.1763C469.326 101.205 470.348 103.814 470.348 106.924C470.348 110.034 469.361 112.643 467.405 114.672C465.457 116.701 462.994 117.729 460.086 117.729H460.094Z" fill="#F9AA19"/>
<path d="M489.345 115.348L478.471 92.4476H473.964L487.711 121.26L487.781 121.4H490.76L503.922 92.4476H499.529L489.345 115.348Z" fill="#F9AA19"/>
<path d="M510.289 108.637H525.844V104.763H510.289V96.4005H526.971V92.4476H506.105V121.4H527.338V117.439H510.289V108.637Z" fill="#F9AA19"/>
<path d="M552.16 106.599C553.462 105.097 554.125 103.287 554.125 101.232C554.125 95.3991 550.361 92.4476 542.928 92.4476H531.853V121.4H536.028V110.262H543.007L551.409 121.4H556.527L547.409 109.436C549.357 108.962 550.955 108.004 552.169 106.599H552.16ZM536.02 96.4005H542.797C547.549 96.4005 549.863 97.9817 549.863 101.232C549.863 102.787 549.269 103.99 548.046 104.912C546.815 105.835 545.138 106.309 543.042 106.309H536.02V96.4005Z" fill="#F9AA19"/>
<path d="M576.126 92.4476L567.41 106.01L558.816 92.4476H553.741L565.218 110.446V121.4H569.401V110.455L581 92.4476H576.126Z" fill="#F9AA19"/>
<path d="M160.21 110.227H168.01V115.427C166.114 116.956 163.739 117.737 160.944 117.737C157.738 117.737 155.101 116.754 153.092 114.821C151.092 112.888 150.079 110.236 150.079 106.933C150.079 103.63 151.057 101.074 152.996 99.106C154.935 97.1296 157.511 96.137 160.656 96.137C164.071 96.137 166.743 97.1735 168.595 99.229L168.778 99.4311L171.416 96.6816L171.276 96.5059C168.944 93.5808 165.293 92.105 160.411 92.105C156.262 92.105 152.742 93.5544 149.948 96.4093C147.153 99.2642 145.738 102.813 145.738 106.95C145.738 111.386 147.17 115.014 150 117.72C152.821 120.425 156.481 121.796 160.856 121.796C162.953 121.796 165.031 121.4 167.031 120.619C169.04 119.837 170.691 118.756 171.949 117.404L172.019 117.333V106.379H160.201V110.253L160.21 110.227Z" fill="white"/>
<path d="M195.967 108.549C195.967 111.404 195.304 113.67 194.002 115.295C192.71 116.903 190.806 117.72 188.334 117.72C185.862 117.72 183.923 116.894 182.351 115.26C180.779 113.626 179.975 111.299 179.975 108.347V92.4476H175.8V108.874C175.8 112.941 177.014 116.13 179.399 118.361C181.783 120.592 184.788 121.717 188.334 121.717C191.565 121.717 194.36 120.645 196.666 118.546C198.972 116.429 200.142 113.257 200.142 109.111V92.4476H195.967V108.549Z" fill="white"/>
<path d="M213.383 92.3686L200.762 121.4H205.068L208.178 114.206H221.715L224.868 121.4H229.253L216.693 92.5179L216.632 92.3686H213.383ZM220.117 110.446H209.767L214.92 98.4121L220.117 110.446Z" fill="white"/>
<path d="M251.961 106.599C253.263 105.097 253.918 103.287 253.918 101.232C253.918 95.3991 250.154 92.4476 242.721 92.4476H231.637V121.4H235.812V110.262H242.791L251.193 121.4H256.311L247.193 109.436C249.14 108.962 250.739 108.004 251.953 106.599H251.961ZM235.821 96.4005H242.599C247.35 96.4005 249.664 97.9817 249.664 101.232C249.664 102.787 249.07 103.99 247.848 104.912C246.616 105.835 244.939 106.309 242.843 106.309H235.821V96.4005Z" fill="white"/>
<path d="M283.858 106.52C283.858 104.579 283.57 102.76 282.994 101.135C282.417 99.5013 281.518 97.9992 280.312 96.6816C279.107 95.3552 277.43 94.3099 275.343 93.5632C273.264 92.8253 270.792 92.4476 268.006 92.4476H259.027V121.4H267.604C272.932 121.4 277.011 120.004 279.745 117.245C282.47 114.487 283.858 110.877 283.858 106.52ZM267.858 117.439H263.22V96.4005H267.936C271.997 96.4005 274.985 97.3141 276.81 99.1148C278.635 100.916 279.561 103.402 279.561 106.511C279.561 109.84 278.592 112.52 276.679 114.487C274.766 116.446 271.797 117.439 267.849 117.439H267.858Z" fill="white"/>
<path d="M291.981 92.4476H287.806V121.4H291.981V92.4476Z" fill="white"/>
<path d="M301.798 114.206H315.336L318.489 121.4H322.873L310.314 92.5179L310.253 92.3686H307.012L294.392 121.4H298.697L301.807 114.206H301.798ZM303.388 110.446L308.541 98.4121L313.738 110.446H303.388Z" fill="white"/>
<path d="M345.46 113.767L328.542 92.4476H325.258V121.4H329.319V100.16L346.281 121.4H349.521V92.4476H345.46V113.767Z" fill="white"/>
<path d="M283.212 130.984L275.701 148.201H278.758L280.4 144.389H288.199L289.859 148.201H292.968L285.457 130.984H283.203H283.212ZM281.474 141.832L284.286 135.288L287.099 141.832H281.474Z" fill="white"/>
<path d="M308.742 133.505C308.008 132.706 307.004 132.091 305.72 131.652C304.445 131.212 302.942 130.984 301.23 130.984H295.876V148.201H300.916C304.226 148.201 306.715 147.384 308.375 145.75C310.034 144.116 310.873 141.991 310.873 139.364C310.873 138.187 310.698 137.107 310.358 136.14C310.017 135.174 309.475 134.287 308.742 133.496V133.505ZM306.165 143.791C305.082 144.863 303.405 145.399 301.143 145.399H298.846V133.786H301.195C305.597 133.786 307.798 135.648 307.798 139.373C307.798 141.244 307.257 142.711 306.174 143.791H306.165Z" fill="white"/>
<path d="M322.463 130.791C320 130.791 317.93 131.643 316.236 133.338C314.55 135.033 313.703 137.124 313.703 139.601C313.703 142.078 314.55 144.222 316.244 145.9C317.939 147.569 320.009 148.412 322.454 148.412C324.9 148.412 326.97 147.569 328.664 145.891C330.359 144.213 331.206 142.114 331.206 139.61C331.206 137.107 330.359 134.99 328.673 133.312C326.987 131.643 324.908 130.799 322.445 130.799L322.463 130.791ZM326.507 143.888C325.424 144.995 324.07 145.548 322.463 145.548C320.856 145.548 319.563 144.995 318.454 143.879C317.345 142.764 316.795 141.341 316.795 139.601C316.795 137.862 317.345 136.413 318.454 135.306C319.563 134.199 320.9 133.646 322.463 133.646C324.026 133.646 325.345 134.199 326.463 135.315C327.581 136.43 328.14 137.853 328.14 139.593C328.14 141.332 327.599 142.781 326.516 143.888H326.507Z" fill="white"/>
<path d="M337.913 130.984H334.953V148.201H347.626V145.399H337.913V130.984Z" fill="white"/>
<path d="M353.766 140.822H362.884V138.117H353.766V133.786H363.522V130.984H350.805V148.201H363.766V145.399H353.766V140.822Z" fill="white"/>
<path d="M378.047 139.259C377.26 138.942 376.413 138.644 375.505 138.371C374.588 138.099 373.741 137.88 372.963 137.704C372.177 137.528 371.531 137.273 371.007 136.913C370.483 136.553 370.221 136.114 370.221 135.569C370.221 134.893 370.561 134.392 371.251 134.058C371.941 133.725 372.78 133.558 373.793 133.558C375.749 133.558 377.444 134.155 378.876 135.35L380.492 133.233C378.894 131.59 376.684 130.773 373.863 130.773C371.924 130.773 370.317 131.247 369.059 132.187C367.793 133.127 367.164 134.278 367.164 135.64C367.164 136.492 367.356 137.23 367.749 137.844C368.142 138.459 368.649 138.942 369.269 139.285C369.889 139.628 370.57 139.918 371.321 140.155C372.072 140.392 372.823 140.594 373.575 140.77C374.326 140.945 375.007 141.13 375.627 141.332C376.247 141.534 376.754 141.815 377.147 142.184C377.54 142.544 377.732 142.983 377.732 143.51C377.732 144.169 377.444 144.679 376.876 145.047C376.308 145.416 375.505 145.601 374.483 145.601C372.003 145.601 369.994 144.784 368.439 143.141L366.675 145.232C367.426 146.137 368.491 146.883 369.88 147.481C371.269 148.078 372.71 148.377 374.212 148.377C376.055 148.377 377.61 147.902 378.885 146.954C380.16 146.005 380.789 144.784 380.789 143.291C380.789 142.307 380.527 141.464 380.003 140.77C379.479 140.076 378.833 139.566 378.047 139.241V139.259Z" fill="white"/>
<path d="M392.571 145.548C390.807 145.548 389.383 145.004 388.283 143.914C387.182 142.825 386.632 141.384 386.632 139.601C386.632 137.818 387.165 136.351 388.222 135.271C389.278 134.19 390.693 133.646 392.449 133.646C394.344 133.646 395.881 134.313 397.069 135.64L399.026 133.769C398.423 132.881 397.523 132.17 396.336 131.616C395.148 131.063 393.803 130.791 392.301 130.791C389.689 130.791 387.584 131.634 385.968 133.312C384.353 134.99 383.549 137.089 383.549 139.593C383.549 142.263 384.344 144.397 385.933 145.996C387.523 147.595 389.663 148.394 392.353 148.394C393.82 148.394 395.165 148.113 396.397 147.542C397.628 146.98 398.598 146.189 399.297 145.197L397.558 143.282C396.301 144.793 394.641 145.548 392.571 145.548Z" fill="white"/>
<path d="M405.559 140.822H414.677V138.117H405.559V133.786H415.315V130.984H402.598V148.201H415.559V145.399H405.559V140.822Z" fill="white"/>
<path d="M431.333 142.764L421.892 130.984H419.594V148.201H422.477V136.474L431.918 148.201H434.215V130.984H431.333V142.764Z" fill="white"/>
<path d="M437.176 130.984V133.786H442.923V148.201H445.884V133.786H451.631V130.984H437.176Z" fill="white"/>
<path d="M262.434 138.169H157.083V140.805H262.434V138.169Z" fill="#F9AA19"/>
<path d="M569.742 138.169H464.767V140.805H569.742V138.169Z" fill="#F9AA19"/>
</svg>
