<svg width="645" height="300" viewBox="0 0 645 300" fill="none" xmlns="http://www.w3.org/2000/svg">
<rect width="645" height="300" fill="white"/>
<path d="M238.643 216.929H118.956V219.446H238.643V216.929Z" fill="#F9AA19"/>
<path d="M524.926 216.929H403.752V219.446H524.926V216.929Z" fill="#F9AA19"/>
<path d="M321.202 145.077C299.365 145.077 281.603 127.343 281.603 105.539C281.603 83.7341 299.365 66 321.202 66C343.039 66 360.775 83.7341 360.775 105.539C360.775 127.343 343.022 145.077 321.202 145.077ZM321.202 69.1557C301.104 69.1557 284.762 85.4798 284.762 105.539C284.762 125.598 301.113 141.922 321.202 141.922C341.291 141.922 357.616 125.598 357.616 105.539C357.616 85.4798 341.274 69.1557 321.202 69.1557Z" fill="#044860"/>
<path d="M333.654 126.017L321.681 119.84C321.529 119.765 321.361 119.723 321.193 119.723C321.025 119.723 320.857 119.765 320.706 119.84L308.733 126.017C308.229 126.277 308.019 126.89 308.254 127.41C308.49 127.931 309.094 128.174 309.624 127.956L320.807 123.625C320.933 123.575 321.067 123.55 321.202 123.55C321.336 123.55 321.471 123.575 321.597 123.625L332.78 127.956C333.309 128.174 333.914 127.931 334.149 127.41C334.385 126.89 334.175 126.277 333.67 126.017H333.654Z" fill="#F9AA19"/>
<path d="M349.71 104.464L332.133 103.667C331.091 103.617 330.73 102.265 331.604 101.712L346.433 92.2193C346.912 91.9171 347.063 91.2877 346.786 90.7925C346.5 90.2973 345.879 90.1127 345.374 90.3728L329.73 98.4551C328.806 98.9335 327.814 97.9432 328.293 97.02L336.393 81.3925C336.653 80.8889 336.477 80.2678 335.981 79.9825H335.964C335.468 79.6887 334.838 79.8398 334.536 80.3182L325.042 95.14C324.479 96.0128 323.126 95.6519 323.084 94.6196L322.269 77.0366C322.244 76.4659 321.773 76.0211 321.202 76.0211H321.193C320.622 76.0211 320.152 76.4659 320.126 77.0366L319.32 94.6112C319.269 95.6519 317.917 96.0128 317.362 95.1316L307.868 80.3098C307.557 79.8314 306.927 79.6803 306.439 79.9657H306.423C305.935 80.2594 305.75 80.8805 306.011 81.3841L314.119 97.0116C314.598 97.9348 313.606 98.9251 312.682 98.4467L297.046 90.356C296.542 90.0959 295.92 90.2721 295.634 90.7673C295.349 91.2709 295.5 91.9003 295.979 92.2109L310.808 101.703C311.682 102.265 311.321 103.617 310.279 103.659L292.694 104.456C292.122 104.481 291.677 104.951 291.677 105.522C291.677 106.101 292.122 106.563 292.694 106.596L310.279 107.402C311.321 107.452 311.682 108.804 310.8 109.357L295.97 118.841C295.492 119.152 295.34 119.781 295.626 120.268V120.285C295.92 120.772 296.542 120.956 297.046 120.696L320.723 108.451C321.034 108.292 321.395 108.292 321.706 108.451L345.383 120.696C345.887 120.956 346.517 120.772 346.794 120.277C347.072 119.781 346.92 119.152 346.442 118.85L331.612 109.366C330.738 108.804 331.099 107.452 332.141 107.41L349.718 106.605C350.29 106.579 350.735 106.109 350.735 105.539C350.735 104.96 350.29 104.498 349.718 104.464H349.71Z" fill="#F9AA19"/>
<path d="M349.794 182.82C351.046 181.385 351.676 179.656 351.676 177.692C351.676 172.119 348.055 169.299 340.905 169.299H330.242V196.962H334.259V186.32H340.972L349.055 196.962H353.978L345.206 185.531C347.08 185.078 348.618 184.163 349.786 182.82H349.794ZM334.267 173.076H340.787C345.358 173.076 347.584 174.587 347.584 177.692C347.584 179.178 347.013 180.327 345.837 181.209C344.652 182.09 343.039 182.543 341.022 182.543H334.267V173.076Z" fill="#F9AA19"/>
<path d="M360.624 184.767H375.588V181.058H360.624V173.076H376.672V169.299H356.6V196.962H377.025V193.177H360.624V184.767Z" fill="#F9AA19"/>
<path d="M402.525 189.878C400.408 192.245 397.669 193.445 394.384 193.445C391.3 193.445 388.779 192.497 386.897 190.625C385.007 188.754 384.049 186.228 384.049 183.131C384.049 180.034 384.94 177.533 386.704 175.644C388.46 173.764 390.905 172.807 393.955 172.807C397.005 172.807 399.702 173.907 401.87 176.072L402.038 176.24L404.651 173.714L404.525 173.546C403.525 172.203 402.071 171.087 400.215 170.231C398.366 169.375 396.232 168.947 393.871 168.947C389.704 168.947 386.292 170.315 383.73 173C381.167 175.686 379.873 179.094 379.873 183.122C379.873 187.411 381.176 190.886 383.755 193.445C386.326 196.005 389.83 197.298 394.148 197.298C396.375 197.298 398.484 196.853 400.408 195.972C402.34 195.09 403.861 193.899 404.92 192.421L405.029 192.262L402.702 189.669L402.525 189.87V189.878Z" fill="#F9AA19"/>
<path d="M419.691 168.947C415.758 168.947 412.389 170.323 409.684 173.034C406.978 175.745 405.609 179.144 405.609 183.122C405.609 187.1 406.978 190.6 409.684 193.269C412.389 195.946 415.75 197.298 419.691 197.298C423.631 197.298 426.95 195.93 429.655 193.227C432.361 190.525 433.73 187.126 433.73 183.114C433.73 179.102 432.361 175.636 429.655 172.967C426.95 170.298 423.597 168.938 419.691 168.938V168.947ZM419.691 193.445C416.968 193.445 414.616 192.455 412.692 190.508C410.768 188.561 409.785 186.076 409.785 183.122C409.785 180.168 410.759 177.658 412.666 175.72C414.582 173.781 416.943 172.799 419.682 172.799C422.421 172.799 424.715 173.781 426.647 175.72C428.571 177.658 429.555 180.151 429.555 183.122C429.555 186.093 428.605 188.586 426.723 190.525C424.849 192.463 422.48 193.437 419.682 193.437L419.691 193.445Z" fill="#F9AA19"/>
<path d="M447.829 191.171L437.377 169.299H433.033L446.325 196.962H449.19L461.852 169.299H457.626L447.829 191.171Z" fill="#F9AA19"/>
<path d="M467.977 184.767H482.941V181.058H467.977V173.076H484.025V169.299H463.952V196.962H484.378V193.177H467.977V184.767Z" fill="#F9AA19"/>
<path d="M508.265 182.82C509.517 181.385 510.155 179.656 510.155 177.692C510.155 172.119 506.534 169.299 499.384 169.299H488.73V196.962H492.746V186.32H499.46L507.542 196.962H512.466L503.694 185.531C505.568 185.078 507.105 184.163 508.273 182.82H508.265ZM492.729 173.076H499.249C503.82 173.076 506.047 174.587 506.047 177.692C506.047 179.178 505.475 180.327 504.299 181.209C503.114 182.09 501.493 182.543 499.485 182.543H492.729V173.076Z" fill="#F9AA19"/>
<path d="M531.312 169.299L522.926 182.258L514.734 169.408L514.667 169.299H509.777L520.818 186.496V196.962H524.842V186.496L536 169.299H531.312Z" fill="#F9AA19"/>
<path d="M254.439 210.349H251.591V226.799H254.439V210.349Z" fill="#044860"/>
<path d="M267.311 217.986L261.43 210.349H258.909V226.799H261.757V215.384L266.883 221.939H267.614L272.63 215.401V226.799H275.469V210.349H272.982L267.311 217.986Z" fill="#044860"/>
<path d="M288.341 217.986L282.46 210.349H279.939V226.799H282.788V215.384L287.913 221.939H288.644L293.66 215.401V226.799H296.5V210.349H294.013L288.341 217.986Z" fill="#044860"/>
<path d="M303.818 219.749H312.598V217.164H303.818V213.034H313.203V210.349H300.97V226.799H313.438V224.121H303.818V219.749Z" fill="#044860"/>
<path d="M329.301 218.456C329.957 217.592 330.293 216.601 330.293 215.468C330.293 214.763 330.192 214.125 329.99 213.538C329.789 212.959 329.453 212.422 328.991 211.926C328.528 211.431 327.856 211.045 326.982 210.76C326.109 210.474 325.05 210.34 323.806 210.34H317.337V226.79H320.185V220.747H323.664L328.159 226.79H331.62L326.68 220.21C327.781 219.9 328.654 219.312 329.318 218.448L329.301 218.456ZM323.865 218.087H320.168V213.034H323.722C325.042 213.034 325.966 213.244 326.512 213.672C327.05 214.092 327.327 214.696 327.327 215.485C327.327 216.274 327.024 216.937 326.411 217.399C325.798 217.86 324.949 218.095 323.874 218.095L323.865 218.087Z" fill="#044860"/>
<path d="M344.425 218.263C343.669 217.961 342.854 217.676 341.98 217.415C341.098 217.155 340.283 216.945 339.535 216.778C338.779 216.61 338.157 216.366 337.653 216.022C337.149 215.678 336.897 215.258 336.897 214.738C336.897 214.092 337.225 213.613 337.888 213.294C338.552 212.976 339.359 212.816 340.333 212.816C342.215 212.816 343.845 213.387 345.223 214.528L346.778 212.506C345.24 210.936 343.114 210.156 340.4 210.156C338.535 210.156 336.989 210.609 335.779 211.507C334.561 212.405 333.956 213.504 333.956 214.805C333.956 215.619 334.141 216.324 334.519 216.912C334.897 217.499 335.384 217.961 335.981 218.288C336.578 218.616 337.233 218.893 337.955 219.119C338.678 219.346 339.401 219.539 340.123 219.707C340.846 219.874 341.501 220.051 342.098 220.244C342.694 220.437 343.182 220.714 343.56 221.058C343.938 221.402 344.123 221.822 344.123 222.325C344.123 222.955 343.845 223.441 343.299 223.794C342.753 224.146 341.98 224.323 340.997 224.323C338.611 224.323 336.678 223.542 335.183 221.973L333.486 223.97C334.208 224.835 335.233 225.548 336.569 226.119C337.905 226.689 339.291 226.975 340.737 226.975C342.509 226.975 344.005 226.522 345.232 225.615C346.458 224.709 347.063 223.542 347.063 222.115C347.063 221.175 346.811 220.37 346.307 219.707C345.803 219.044 345.181 218.557 344.425 218.246V218.263Z" fill="#044860"/>
<path d="M353.44 210.349H350.592V226.799H353.44V210.349Z" fill="#044860"/>
<path d="M365.455 210.164C363.086 210.164 361.095 210.978 359.465 212.598C357.843 214.218 357.028 216.215 357.028 218.582C357.028 220.949 357.843 222.997 359.473 224.6C361.103 226.194 363.094 227 365.447 227C367.8 227 369.791 226.194 371.421 224.591C373.051 222.988 373.866 220.982 373.866 218.59C373.866 216.198 373.051 214.176 371.429 212.573C369.808 210.978 367.808 210.172 365.439 210.172L365.455 210.164ZM369.354 222.678C368.312 223.735 367.01 224.264 365.464 224.264C363.918 224.264 362.674 223.735 361.607 222.669C360.54 221.603 360.011 220.244 360.011 218.582C360.011 216.92 360.54 215.535 361.607 214.478C362.674 213.42 363.96 212.892 365.464 212.892C366.968 212.892 368.236 213.42 369.312 214.486C370.387 215.552 370.925 216.912 370.925 218.574C370.925 220.235 370.404 221.62 369.362 222.678H369.354Z" fill="#044860"/>
<path d="M388.771 210.349V221.612L379.688 210.349H377.479V226.799H380.251V215.594L389.334 226.799H391.544V210.349H388.771Z" fill="#044860"/>
<path d="M130.022 186.278V191.238C128.148 192.698 125.796 193.445 123.031 193.445C119.864 193.445 117.251 192.505 115.268 190.659C113.293 188.813 112.285 186.278 112.285 183.131C112.285 179.983 113.26 177.541 115.167 175.653C117.083 173.764 119.628 172.807 122.746 172.807C126.123 172.807 128.761 173.798 130.601 175.762L130.77 175.946L133.374 173.328L133.231 173.16C130.929 170.373 127.316 168.955 122.502 168.955C118.41 168.955 114.932 170.34 112.167 173.059C109.403 175.787 108 179.178 108 183.131C108 187.377 109.42 190.835 112.209 193.42C114.999 195.997 118.612 197.306 122.939 197.306C125.006 197.306 127.064 196.928 129.039 196.181C131.022 195.434 132.66 194.402 133.903 193.118L133.971 193.051V182.577H122.3V186.278H130.022Z" fill="#044860"/>
<path d="M158.261 184.683C158.261 187.411 157.606 189.576 156.32 191.129C155.043 192.665 153.153 193.454 150.716 193.454C148.279 193.454 146.355 192.665 144.793 191.095C143.238 189.534 142.448 187.31 142.448 184.49V169.299H138.331V184.994C138.331 188.88 139.524 191.926 141.885 194.066C144.238 196.198 147.212 197.273 150.716 197.273C153.9 197.273 156.673 196.249 158.942 194.243C161.219 192.22 162.378 189.19 162.378 185.229V169.299H158.261V184.683Z" fill="#044860"/>
<path d="M179.266 169.215H176.082L163.605 196.954H167.848L170.923 190.08H184.316L187.433 196.954H191.752L179.333 169.358L179.266 169.215ZM182.736 186.496H172.494L177.594 174.981L182.736 186.496Z" fill="#044860"/>
<path d="M214.807 182.82C216.092 181.385 216.748 179.656 216.748 177.692C216.748 172.119 213.026 169.299 205.682 169.299H194.734V196.962H198.851V186.32H205.766L214.076 196.962H219.125L210.11 185.539C212.034 185.086 213.614 184.171 214.815 182.828L214.807 182.82ZM198.843 173.076H205.556C210.261 173.076 212.547 174.587 212.547 177.692C212.547 179.178 211.958 180.327 210.749 181.209C209.53 182.09 207.867 182.543 205.8 182.543H198.851V173.084L198.843 173.076Z" fill="#044860"/>
<path d="M243.441 173.336C242.248 172.069 240.593 171.07 238.526 170.365C236.476 169.66 234.031 169.299 231.275 169.299H222.402V196.962H230.871C236.131 196.962 240.164 195.628 242.861 192.992C245.558 190.357 246.928 186.907 246.928 182.745C246.928 180.89 246.642 179.152 246.071 177.6C245.508 176.039 244.617 174.603 243.424 173.345L243.441 173.336ZM231.124 193.177H226.528V173.076H231.199C235.215 173.076 238.173 173.949 239.979 175.669C241.786 177.39 242.702 179.765 242.702 182.736C242.702 185.917 241.744 188.477 239.853 190.348C237.963 192.22 235.022 193.168 231.115 193.168L231.124 193.177Z" fill="#044860"/>
<path d="M255.565 169.299H251.448V196.962H255.565V169.299Z" fill="#044860"/>
<path d="M286.695 196.962L274.276 169.366L274.209 169.224H271.025L258.548 196.962H262.791L265.866 190.088H279.259L282.376 196.962H286.695ZM277.688 186.496H267.446L272.546 174.981L277.688 186.496Z" fill="#044860"/>
<path d="M309.649 189.677L292.904 169.299H289.677V196.962H293.677V176.651L310.456 196.962H313.648V169.299H309.649V189.677Z" fill="#044860"/>
</svg>
