<svg width="90" height="92" viewBox="0 0 90 92" fill="none" xmlns="http://www.w3.org/2000/svg">
<path d="M56.527 65.3699L45.3807 59.5643C45.2391 59.4904 45.083 59.451 44.9268 59.451C44.7706 59.451 44.6145 59.4904 44.4729 59.5643L33.3266 65.3699C32.8582 65.6161 32.6581 66.1873 32.8777 66.6748C33.0973 67.1672 33.6634 67.3937 34.1563 67.1918L44.5608 63.1146C44.6779 63.0654 44.7999 63.0407 44.9268 63.0407C45.0488 63.0407 45.1757 63.0654 45.2928 63.1146L55.6973 67.1918C56.1902 67.3937 56.7563 67.1672 56.9759 66.6748C57.1955 66.1873 56.9954 65.6112 56.527 65.365V65.3699Z" fill="#F4A31E"/>
<path d="M71.47 45.1019L55.1068 44.3485C54.1405 44.3041 53.8038 43.0337 54.6188 42.5068L68.4199 33.5792C68.864 33.2936 69.0055 32.7027 68.7469 32.2398C68.4834 31.777 67.9026 31.6046 67.4292 31.8508L52.8717 39.4538C52.0128 39.9019 51.0904 38.9712 51.5345 38.1046L59.0695 23.4107C59.3135 22.938 59.1427 22.352 58.6889 22.0861L58.6742 22.0763C58.2155 21.8054 57.625 21.9482 57.3419 22.4013L48.504 36.3368C47.9818 37.1591 46.7227 36.8193 46.6788 35.8443L45.9175 19.3138C45.8931 18.782 45.4587 18.3585 44.9268 18.3585H44.917C44.3851 18.3585 43.9508 18.777 43.9264 19.3138L43.1699 35.8394C43.126 36.8144 41.8669 37.1542 41.3448 36.3318L32.5117 22.3963C32.2237 21.9433 31.6381 21.8005 31.1794 22.0713L31.1647 22.0812C30.706 22.3471 30.5401 22.9331 30.7841 23.4058L38.3288 38.0996C38.7729 38.9663 37.8506 39.897 36.9917 39.4489L22.439 31.8459C21.9705 31.5997 21.3946 31.772 21.1262 32.23V32.2398C20.8529 32.7027 20.9945 33.2985 21.4434 33.5891L35.2446 42.5117C36.0595 43.0386 35.7228 44.3091 34.7565 44.3534L18.3885 45.1068C17.8614 45.1314 17.4417 45.5697 17.4417 46.1064C17.4417 46.6481 17.8565 47.0863 18.3885 47.1109L34.7565 47.8742C35.7228 47.9185 36.0595 49.1889 35.2446 49.7158L21.4434 58.6287C20.9945 58.9192 20.8529 59.5101 21.1214 59.973L21.1311 59.9877C21.3946 60.4506 21.9754 60.618 22.4439 60.3718L44.4778 48.859C44.7658 48.7113 45.1025 48.7113 45.3904 48.859L67.4292 60.3669C67.9026 60.6131 68.4834 60.4408 68.7469 59.973C69.0104 59.5052 68.864 58.9143 68.4199 58.6287L54.6188 49.7109C53.8038 49.184 54.1405 47.9136 55.1068 47.8693L71.47 47.106C71.9971 47.0814 72.4168 46.6431 72.4168 46.1064C72.4168 45.5647 72.002 45.1265 71.47 45.1019Z" fill="#F4A31E"/>
<path d="M7.44713 61.6226C8.12547 61.8836 8.83798 61.9082 9.56024 61.6915C10.0092 61.5586 10.4045 61.3665 10.7364 61.1252C11.0731 60.879 11.3561 60.5589 11.5855 60.165C11.8198 59.7661 11.9418 59.2491 11.9564 58.6336C11.971 58.023 11.8637 57.3188 11.6343 56.5359L10.4192 52.3749L0 55.4722L0.59538 57.5158L4.32383 56.4078L4.89481 58.3677L1.98135 62.2726L2.70849 64.7642L5.91964 60.4161C6.31493 60.9775 6.82735 61.3813 7.44225 61.6176L7.44713 61.6226ZM9.09663 54.9897L9.70177 57.0628C9.93114 57.8457 9.97018 58.4366 9.81889 58.8207C9.67249 59.1949 9.38456 59.4411 8.94046 59.5741C8.47685 59.712 8.07667 59.648 7.71554 59.3771C7.34465 59.1014 7.06648 58.6385 6.87615 57.9984L6.24661 55.8366L9.09175 54.9897H9.09663Z" fill="#044860"/>
<path d="M18.1445 72.249L19.7403 71.0278L14.8308 64.4737L6.16365 71.0918L11.1658 77.7641L12.7665 76.5429L9.03807 71.5695L11.0536 70.0282L14.455 74.5683L16.0069 73.3816L12.6055 68.8464L14.5039 67.3987L18.1445 72.249Z" fill="#044860"/>
<path d="M28.9247 78.2713C28.4758 77.5721 27.8413 76.9615 27.0459 76.4494C25.655 75.563 24.2251 75.2922 22.8001 75.6418C21.3751 75.9914 20.2234 76.8482 19.384 78.1925C18.4909 79.6205 18.1933 81.0535 18.5056 82.452C18.8179 83.8504 19.7012 85.0273 21.136 85.9383C21.9168 86.4357 22.7416 86.7459 23.5858 86.8641C23.825 86.8985 24.0543 86.9133 24.2837 86.9133C24.8742 86.9133 25.4305 86.805 25.943 86.5883L26.0454 86.544L25.7185 84.6876L25.5623 84.7368C24.4594 85.0963 23.3711 84.9387 22.3316 84.2739C21.4483 83.7126 20.8969 82.969 20.687 82.0728C20.4821 81.1766 20.6626 80.2656 21.2238 79.3694C21.7948 78.4634 22.522 77.8971 23.3906 77.6903C24.2593 77.4834 25.1426 77.6656 26.0259 78.2319C26.9727 78.8376 27.5437 79.6747 27.7242 80.7236L27.7486 80.8664L29.647 80.4872V80.3641C29.6177 79.6747 29.3737 78.9706 28.9199 78.2664L28.9247 78.2713Z" fill="#044860"/>
<path d="M38.5582 80.8713C37.0307 80.5857 35.6252 80.8713 34.3856 81.738C33.1412 82.5997 32.3701 83.816 32.0871 85.3572C31.7992 86.9281 32.0871 88.3561 32.9509 89.597C33.8098 90.8379 35.0152 91.611 36.5329 91.8917C36.9136 91.9606 37.2845 92 37.6456 92C38.7387 92 39.7636 91.6799 40.6957 91.0398C41.9401 90.1879 42.721 88.9667 43.0089 87.4057C43.2968 85.8349 43.0089 84.4069 42.1549 83.1709C41.3008 81.93 40.0906 81.1569 38.5631 80.8713H38.5582ZM38.1873 82.8951C39.0852 83.0626 39.8124 83.5402 40.3394 84.3133C40.8665 85.0864 41.0422 85.9925 40.8519 87.0069C40.6615 88.036 40.1882 88.819 39.4415 89.3459C38.6948 89.8727 37.8408 90.05 36.9038 89.8727C35.9961 89.7004 35.2689 89.2277 34.7468 88.4546C34.2246 87.6864 34.0538 86.7803 34.2392 85.761C34.4296 84.7368 34.9127 83.9489 35.674 83.427C36.4353 82.905 37.2845 82.7228 38.1922 82.8951H38.1873Z" fill="#044860"/>
<path d="M53.3012 88.558L48.2502 81.605L46.0004 82.0531L53.1157 91.7292L53.1694 91.803L54.6237 91.5125L57.3371 79.7978L55.1312 80.2361L53.3012 88.558Z" fill="#044860"/>
<path d="M66.6143 84.7417L65.2624 82.5849L70.0304 79.5418L68.9909 77.8872L64.223 80.9255L62.9492 78.8967L68.049 75.6467L66.9754 73.9331L60.0943 78.3255L65.9017 87.5928L72.9145 83.1167L71.8409 81.408L66.6143 84.7417Z" fill="#044860"/>
<path d="M79.1612 68.0585C78.966 67.3543 78.5658 66.7634 77.9655 66.3006C77.5946 66.015 77.2042 65.8081 76.8187 65.6801C76.4234 65.5521 75.9988 65.5127 75.545 65.557C75.0911 65.6063 74.6031 65.8081 74.1004 66.1627C73.6026 66.5123 73.1049 67.0195 72.6169 67.6695L70.0157 71.1263L78.6731 77.7543L79.9517 76.0554L76.8577 73.6869L78.0826 72.057L82.9238 72.1062L84.4805 70.038L79.1075 70.0085C79.3222 69.3585 79.3417 68.6987 79.166 68.0585H79.1612ZM72.895 70.6536L74.1883 68.9301C74.6763 68.2801 75.1253 67.896 75.5206 67.7926C75.9061 67.6892 76.2721 67.7778 76.643 68.0585C77.0285 68.354 77.214 68.7183 77.214 69.1714C77.214 69.6343 77.009 70.1414 76.6088 70.6683L75.257 72.4607L72.895 70.6486V70.6536Z" fill="#044860"/>
<path d="M84.2853 57.8359L79.6882 51.7298L78.9318 54.1772L81.9965 58.2101L77.2237 59.7169L76.4478 62.2381L83.6607 59.8745L88.126 61.273L88.7507 59.2393L84.2853 57.8359Z" fill="#044860"/>
<path d="M11.0243 30.4868L10.995 30.4376L6.89079 29.1622L5.46578 33.8402L7.32513 34.4163L8.15476 31.7031L9.4968 32.1217C9.74569 32.8307 9.74081 33.6285 9.47728 34.4902C9.16007 35.5292 8.59885 36.2875 7.80826 36.7455C7.02256 37.1985 6.09045 37.2674 5.04609 36.9424C4.01638 36.6224 3.28435 36.061 2.86954 35.2633C2.45472 34.4705 2.40104 33.5497 2.70849 32.5353C3.0501 31.4126 3.665 30.6444 4.52879 30.2406L4.66056 30.1815L3.78701 28.4088L3.66988 28.4482C3.02082 28.6747 2.43032 29.113 1.91302 29.7433C1.40061 30.3686 1.00531 31.1319 0.736905 32.0133C0.263529 33.5595 0.385533 35.0171 1.08828 36.3466C1.79102 37.6762 2.90858 38.5822 4.40191 39.0451C5.03145 39.2421 5.64635 39.3405 6.23197 39.3405C7.12016 39.3405 7.95467 39.1189 8.72573 38.6758C10.0092 37.9371 10.912 36.7455 11.4098 35.1205C11.6538 34.3178 11.7466 33.5004 11.6831 32.683C11.6197 31.8656 11.3952 31.122 11.0194 30.4819L11.0243 30.4868Z" fill="#044860"/>
<path d="M16.9683 17.0388L12.1711 13.0453L10.8242 14.69L15.4213 18.521C16.1338 19.1119 16.573 19.752 16.7341 20.4267C16.8903 21.0914 16.7194 21.7217 16.2021 22.352C15.6897 22.9774 15.0797 23.2925 14.3233 23.3221C13.5717 23.3516 12.83 23.0611 12.1174 22.4653L7.56426 18.6736L6.21733 20.3183L10.9413 24.2577C11.9466 25.0948 12.9812 25.5134 14.0305 25.5134C14.211 25.5134 14.3965 25.4986 14.5771 25.474C15.8069 25.3016 16.8707 24.6861 17.7296 23.6323C18.1054 23.1744 18.3885 22.6819 18.5788 22.16C18.7691 21.6429 18.8667 21.0865 18.8667 20.5104C18.8667 19.9293 18.7057 19.3286 18.3836 18.7278C18.0615 18.132 17.5832 17.5657 16.9586 17.0437L16.9683 17.0388Z" fill="#044860"/>
<path d="M22.1023 5.75252L23.0978 17.6839L25.0304 16.6252L24.801 14.0597L28.8759 11.829L30.8963 13.4146L32.8533 12.3411L23.4834 4.99912L22.0974 5.75744L22.1023 5.75252ZM27.2899 10.5684L24.6107 12.0358L24.2691 8.17523L27.2899 10.5684Z" fill="#044860"/>
<path d="M43.7116 5.09268C44.0825 4.46238 44.2289 3.75822 44.1411 3.00481C44.0874 2.53701 43.9703 2.10861 43.7897 1.73929C43.6092 1.36505 43.3407 1.02528 42.9943 0.72983C42.6429 0.429453 42.1646 0.217712 41.5595 0.0995315C40.9641 -0.0186494 40.2565 -0.0334221 39.4561 0.0650621L35.186 0.567331L36.4402 11.4597L38.5387 11.2135L38.0897 7.31842L40.1003 7.08206L43.4188 10.6423L45.976 10.3419L42.2769 6.40744C42.8918 6.11199 43.37 5.66881 43.7116 5.0976V5.09268ZM41.3838 2.26126C41.7254 2.473 41.9157 2.798 41.9694 3.26087C42.0231 3.74344 41.8962 4.13246 41.5692 4.44761C41.2374 4.76768 40.7347 4.96957 40.0808 5.04836L37.8652 5.30934L37.5236 2.33512L39.6513 2.08399C40.4566 1.99043 41.0422 2.04952 41.3887 2.26618L41.3838 2.26126Z" fill="#044860"/>
<path d="M60.0211 3.90594C59.7039 3.29042 59.1818 2.73398 58.4741 2.25141C57.7714 1.76884 56.893 1.38475 55.8584 1.09915L52.5252 0.188167L49.6801 10.7703L52.8229 11.632C53.6867 11.8684 54.487 11.9866 55.2239 11.9866C56.1902 11.9866 57.0442 11.7798 57.7763 11.371C59.0598 10.6521 59.9284 9.4703 60.3579 7.86993C60.5531 7.151 60.6263 6.45668 60.5726 5.80669C60.5238 5.15669 60.3384 4.51654 60.0211 3.90594ZM53.4768 9.71158L52.2422 9.37181L54.0381 2.69459L55.302 3.03928C56.5758 3.3889 57.4688 3.92072 57.952 4.6298C58.4302 5.32904 58.5278 6.22032 58.2448 7.28887C57.9568 8.36235 57.4103 9.13545 56.6294 9.57863C55.8486 10.0218 54.7847 10.0661 53.4768 9.70666V9.71158Z" fill="#044860"/>
<path d="M68.5187 6.38196L62.7033 15.6462L64.4884 16.7871L70.3038 7.52287L68.5187 6.38196Z" fill="#044860"/>
<path d="M79.1758 15.3006L67.8343 18.8214L69.2691 20.5005L71.7043 19.7323L74.7348 23.2778L73.6319 25.6069L75.0862 27.3107L80.2055 16.507L79.1758 15.3006ZM77.2872 17.9498L75.6133 21.4361L73.6222 19.107L77.2872 17.9498Z" fill="#044860"/>
<path d="M89.3461 34.1061L82.7188 36.3269L87.5404 28.7732L87.5746 28.719L87.0621 27.158L76.7504 30.605L77.3994 32.5845L84.0023 30.3785L79.1709 37.9765L79.6833 39.5375L90 36.0856L89.3461 34.1061Z" fill="#044860"/>
</svg>
