<svg width="645" height="300" viewBox="0 0 645 300" fill="none" xmlns="http://www.w3.org/2000/svg">
<rect width="645" height="300" fill="white"/>
<path d="M224.158 220.237H119.939V222.751H224.158V220.237Z" fill="#F9AA19"/>
<path d="M525.598 220.237H420.85V222.751H525.598V220.237Z" fill="#F9AA19"/>
<path d="M322.193 147.958C300.356 147.958 282.595 130.251 282.595 108.479C282.595 86.7073 300.365 69 322.193 69C344.022 69 361.767 86.7073 361.767 108.479C361.767 130.251 344.013 147.958 322.193 147.958ZM322.193 72.1509C302.096 72.1509 285.754 88.4504 285.754 108.479C285.754 128.508 302.104 144.807 322.193 144.807C342.283 144.807 358.608 128.508 358.608 108.479C358.608 88.4504 342.274 72.1509 322.193 72.1509Z" fill="#044860"/>
<path d="M334.654 128.927L322.681 122.759C322.529 122.683 322.361 122.642 322.193 122.642C322.025 122.642 321.857 122.683 321.706 122.759L309.733 128.927C309.229 129.186 309.019 129.798 309.254 130.318C309.49 130.837 310.094 131.08 310.624 130.862L321.807 126.538C321.933 126.488 322.067 126.463 322.202 126.463C322.336 126.463 322.471 126.488 322.597 126.538L333.78 130.862C334.309 131.08 334.914 130.837 335.149 130.318C335.385 129.798 335.175 129.186 334.67 128.927H334.654Z" fill="#F9AA19"/>
<path d="M350.71 107.406L333.133 106.61C332.091 106.56 331.73 105.211 332.604 104.658L347.433 95.1797C347.912 94.878 348.063 94.2495 347.786 93.7551C347.5 93.2606 346.879 93.0763 346.374 93.336L330.73 101.406C329.806 101.884 328.814 100.895 329.293 99.9731L337.393 84.3692C337.653 83.8664 337.477 83.2463 336.981 82.9614H336.964C336.468 82.6681 335.838 82.8189 335.536 83.2966L326.042 98.096C325.479 98.9675 324.126 98.6072 324.084 97.5764L323.269 80.0199C323.244 79.4501 322.773 79.0059 322.202 79.0059H322.193C321.622 79.0059 321.152 79.4501 321.126 80.0199L320.32 97.568C320.269 98.6072 318.917 98.9675 318.362 98.0876L308.868 83.2882C308.557 82.8105 307.927 82.6597 307.439 82.9446H307.423C306.935 83.2379 306.75 83.8581 307.011 84.3609L315.119 99.9648C315.598 100.887 314.606 101.875 313.682 101.398L298.046 93.3193C297.542 93.0595 296.92 93.2355 296.634 93.7299C296.349 94.2327 296.5 94.8612 296.979 95.1713L311.808 104.649C312.682 105.211 312.321 106.56 311.279 106.602L293.694 107.398C293.122 107.423 292.677 107.892 292.677 108.462C292.677 109.04 293.122 109.501 293.694 109.535L311.279 110.339C312.321 110.39 312.682 111.739 311.8 112.292L296.97 121.762C296.492 122.072 296.34 122.7 296.626 123.186V123.203C296.92 123.689 297.542 123.873 298.046 123.614L321.723 111.387C322.034 111.228 322.395 111.228 322.706 111.387L346.383 123.614C346.887 123.873 347.517 123.689 347.794 123.195C348.072 122.7 347.92 122.072 347.442 121.77L332.612 112.3C331.738 111.739 332.099 110.39 333.141 110.348L350.718 109.543C351.29 109.518 351.735 109.049 351.735 108.479C351.735 107.901 351.29 107.44 350.718 107.406H350.71Z" fill="#F9AA19"/>
<path d="M350.794 185.644C352.046 184.211 352.676 182.484 352.676 180.523C352.676 174.959 349.055 172.143 341.905 172.143H331.242V199.764H335.259V189.138H341.972L350.055 199.764H354.978L346.206 188.359C348.08 187.906 349.618 186.993 350.786 185.652L350.794 185.644ZM335.267 175.914H341.787C346.358 175.914 348.584 177.423 348.584 180.523C348.584 182.007 348.013 183.155 346.837 184.035C345.652 184.915 344.039 185.367 342.022 185.367H335.267V175.914Z" fill="#F9AA19"/>
<path d="M361.616 187.588H376.588V183.884H361.616V175.914H377.672V172.143H357.6V199.756H378.025V195.985H361.616V187.588Z" fill="#F9AA19"/>
<path d="M403.525 192.691C401.408 195.055 398.669 196.253 395.384 196.253C392.3 196.253 389.779 195.306 387.897 193.437C386.007 191.569 385.049 189.046 385.049 185.954C385.049 182.861 385.94 180.364 387.704 178.479C389.46 176.602 391.897 175.646 394.955 175.646C398.013 175.646 400.702 176.744 402.87 178.914L403.038 179.082L405.651 176.56L405.525 176.392C404.525 175.051 403.071 173.937 401.215 173.082C399.366 172.227 397.232 171.8 394.871 171.8C390.704 171.8 387.292 173.166 384.73 175.847C382.167 178.529 380.873 181.931 380.873 185.954C380.873 190.236 382.176 193.705 384.755 196.261C387.326 198.817 390.83 200.108 395.148 200.108C397.375 200.108 399.484 199.664 401.408 198.784C403.34 197.904 404.861 196.714 405.92 195.239L406.029 195.08L403.702 192.49L403.525 192.691Z" fill="#F9AA19"/>
<path d="M420.691 171.791C416.758 171.791 413.389 173.166 410.684 175.872C407.978 178.579 406.609 181.973 406.609 185.945C406.609 189.918 407.978 193.412 410.684 196.077C413.389 198.75 416.75 200.1 420.691 200.1C424.631 200.1 427.95 198.734 430.655 196.035C433.361 193.337 434.73 189.943 434.73 185.937C434.73 181.931 433.361 178.47 430.655 175.805C427.95 173.14 424.597 171.783 420.691 171.783V171.791ZM420.691 196.253C417.968 196.253 415.616 195.264 413.692 193.32C411.768 191.376 410.785 188.895 410.785 185.945C410.785 182.996 411.759 180.49 413.666 178.554C415.582 176.618 417.943 175.638 420.691 175.638C423.438 175.638 425.723 176.618 427.656 178.554C429.58 180.49 430.563 182.979 430.563 185.945C430.563 188.912 429.613 191.401 427.731 193.337C425.858 195.273 423.488 196.253 420.691 196.253Z" fill="#F9AA19"/>
<path d="M448.829 193.982L438.377 172.143H434.033L447.258 199.622L447.325 199.756H450.19L462.852 172.143H458.626L448.829 193.982Z" fill="#F9AA19"/>
<path d="M468.977 187.588H483.941V183.884H468.977V175.914H485.025V172.143H464.952V199.756H485.378V195.985H468.977V187.588Z" fill="#F9AA19"/>
<path d="M509.265 185.644C510.517 184.211 511.155 182.484 511.155 180.523C511.155 174.959 507.534 172.143 500.384 172.143H489.73V199.764H493.746V189.138H500.46L508.542 199.764H513.466L504.694 188.359C506.568 187.906 508.105 186.993 509.273 185.652L509.265 185.644ZM493.729 175.914H500.249C504.82 175.914 507.047 177.423 507.047 180.523C507.047 182.007 506.475 183.155 505.299 184.035C504.114 184.915 502.493 185.367 500.485 185.367H493.729V175.914Z" fill="#F9AA19"/>
<path d="M532.312 172.143L523.926 185.082L515.659 172.143H510.777L521.818 189.314V199.756H525.842V189.314L537 172.143H532.312Z" fill="#F9AA19"/>
<path d="M245.222 213.374L237.997 229.799H240.937L242.517 226.162H250.02L251.616 229.799H254.607L247.382 213.374H245.214H245.222ZM243.55 223.723L246.256 217.48L248.961 223.723H243.55Z" fill="#044860"/>
<path d="M269.781 215.779C269.076 215.016 268.109 214.43 266.874 214.011C265.648 213.592 264.203 213.374 262.556 213.374H257.405V229.799H262.253C265.438 229.799 267.832 229.02 269.429 227.461C271.025 225.902 271.832 223.874 271.832 221.368C271.832 220.245 271.664 219.215 271.336 218.293C271.008 217.371 270.487 216.525 269.781 215.77V215.779ZM267.303 225.592C266.261 226.614 264.648 227.126 262.472 227.126H260.262V216.047H262.522C266.757 216.047 268.874 217.824 268.874 221.377C268.874 223.162 268.353 224.561 267.311 225.592H267.303Z" fill="#044860"/>
<path d="M282.981 213.189C280.612 213.189 278.62 214.002 276.99 215.62C275.369 217.237 274.554 219.231 274.554 221.595C274.554 223.958 275.369 226.003 276.999 227.603C278.629 229.196 280.62 230 282.973 230C285.325 230 287.317 229.196 288.947 227.595C290.577 225.994 291.392 223.991 291.392 221.603C291.392 219.215 290.577 217.195 288.955 215.594C287.333 214.002 285.334 213.198 282.964 213.198L282.981 213.189ZM286.88 225.684C285.838 226.74 284.535 227.268 282.989 227.268C281.443 227.268 280.2 226.74 279.133 225.676C278.066 224.612 277.537 223.254 277.537 221.595C277.537 219.935 278.066 218.553 279.133 217.497C280.2 216.441 281.486 215.913 282.989 215.913C284.493 215.913 285.762 216.441 286.838 217.505C287.913 218.569 288.451 219.927 288.451 221.586C288.451 223.246 287.93 224.628 286.888 225.684H286.88Z" fill="#044860"/>
<path d="M297.853 213.374H295.004V229.799H307.187V227.126H297.853V213.374Z" fill="#044860"/>
<path d="M313.094 222.76H321.874V220.178H313.094V216.047H322.479V213.374H310.246V229.799H322.714V227.126H313.094V222.76Z" fill="#044860"/>
<path d="M336.46 221.276C335.704 220.975 334.889 220.69 334.015 220.43C333.133 220.17 332.318 219.961 331.57 219.793C330.814 219.625 330.192 219.382 329.688 219.039C329.184 218.695 328.932 218.276 328.932 217.757C328.932 217.111 329.26 216.634 329.923 216.315C330.587 215.997 331.394 215.838 332.368 215.838C334.25 215.838 335.88 216.407 337.258 217.547L338.813 215.527C337.275 213.96 335.149 213.181 332.436 213.181C330.57 213.181 329.024 213.634 327.814 214.53C326.596 215.427 325.991 216.525 325.991 217.824C325.991 218.636 326.176 219.34 326.554 219.927C326.932 220.514 327.419 220.975 328.016 221.301C328.613 221.628 329.268 221.905 329.991 222.131C330.713 222.357 331.436 222.55 332.158 222.718C332.881 222.885 333.536 223.061 334.133 223.254C334.729 223.447 335.217 223.715 335.595 224.067C335.973 224.41 336.158 224.829 336.158 225.332C336.158 225.961 335.88 226.447 335.334 226.799C334.788 227.151 334.015 227.327 333.032 227.327C330.646 227.327 328.713 226.547 327.218 224.98L325.521 226.975C326.243 227.838 327.268 228.55 328.604 229.12C329.94 229.69 331.326 229.975 332.772 229.975C334.544 229.975 336.04 229.522 337.267 228.617C338.493 227.712 339.098 226.547 339.098 225.123C339.098 224.184 338.846 223.38 338.342 222.718C337.838 222.056 337.216 221.57 336.46 221.259V221.276Z" fill="#044860"/>
<path d="M350.433 227.268C348.735 227.268 347.366 226.748 346.307 225.709C345.249 224.67 344.719 223.296 344.719 221.595C344.719 219.894 345.232 218.494 346.248 217.463C347.265 216.432 348.626 215.913 350.315 215.913C352.138 215.913 353.617 216.55 354.76 217.815L356.642 216.03C356.062 215.184 355.197 214.505 354.054 213.977C352.911 213.449 351.617 213.189 350.172 213.189C347.66 213.189 345.635 213.994 344.081 215.594C342.526 217.195 341.753 219.198 341.753 221.586C341.753 224.134 342.518 226.17 344.047 227.695C345.576 229.221 347.635 229.983 350.223 229.983C351.634 229.983 352.928 229.715 354.113 229.17C355.297 228.634 356.23 227.88 356.902 226.933L355.23 225.106C354.02 226.547 352.424 227.268 350.433 227.268Z" fill="#044860"/>
<path d="M362.926 222.76H371.698V220.178H362.926V216.047H372.312V213.374H360.078V229.799H372.547V227.126H362.926V222.76Z" fill="#044860"/>
<path d="M387.721 224.612L378.638 213.374H376.429V229.799H379.201V218.611L388.284 229.799H390.494V213.374H387.721V224.612Z" fill="#044860"/>
<path d="M393.342 213.374V216.047H398.87V229.799H401.719V216.047H407.247V213.374H393.342Z" fill="#044860"/>
<path d="M123.309 189.096H131.022V194.049C129.148 195.507 126.796 196.253 124.031 196.253C120.864 196.253 118.251 195.314 116.268 193.471C114.293 191.627 113.285 189.096 113.285 185.954C113.285 182.811 114.26 180.373 116.167 178.487C118.083 176.601 120.628 175.646 123.746 175.646C127.123 175.646 129.761 176.635 131.601 178.596L131.77 178.78L134.374 176.166L134.231 175.998C131.929 173.216 128.316 171.8 123.502 171.8C119.41 171.8 115.932 173.182 113.167 175.898C110.403 178.621 109 182.007 109 185.954C109 190.194 110.42 193.647 113.209 196.228C115.999 198.801 119.612 200.108 123.939 200.108C126.006 200.108 128.056 199.731 130.039 198.985C132.022 198.239 133.66 197.208 134.903 195.926L134.971 195.859V185.401H123.309V189.096Z" fill="#044860"/>
<path d="M159.261 187.504C159.261 190.228 158.606 192.39 157.32 193.94C156.043 195.474 154.153 196.261 151.716 196.261C149.279 196.261 147.355 195.474 145.793 193.907C144.238 192.348 143.448 190.127 143.448 187.311V172.143H139.331V187.814C139.331 191.694 140.524 194.736 142.885 196.873C145.238 199.002 148.212 200.074 151.716 200.074C154.9 200.074 157.673 199.06 159.942 197.049C162.219 195.03 163.378 192.004 163.378 188.049V172.143H159.261V187.504Z" fill="#044860"/>
<path d="M180.266 172.059H177.082L164.605 199.756H168.848L171.923 192.893H185.316L188.433 199.756H192.752L180.333 172.202L180.266 172.059ZM183.736 189.314H173.494L178.594 177.817L183.736 189.314Z" fill="#044860"/>
<path d="M215.807 185.644C217.092 184.211 217.748 182.484 217.748 180.523C217.748 174.959 214.026 172.143 206.682 172.143H195.734V199.764H199.851V189.138H206.766L215.076 199.764H220.125L211.11 188.359C213.034 187.906 214.614 186.993 215.815 185.652L215.807 185.644ZM199.843 175.914H206.556C211.261 175.914 213.547 177.423 213.547 180.523C213.547 182.007 212.958 183.155 211.749 184.035C210.53 184.915 208.867 185.367 206.8 185.367H199.851V175.923L199.843 175.914Z" fill="#044860"/>
<path d="M247.945 185.56C247.945 183.708 247.659 181.973 247.088 180.423C246.525 178.864 245.634 177.431 244.441 176.174C243.248 174.909 241.593 173.911 239.526 173.208C237.476 172.504 235.031 172.143 232.275 172.143H223.402V199.764H231.871C237.131 199.764 241.164 198.432 243.861 195.8C246.558 193.169 247.928 189.725 247.928 185.568L247.945 185.56ZM232.124 195.985H227.528V175.914H232.199C236.215 175.914 239.173 176.786 240.979 178.504C242.786 180.222 243.702 182.593 243.702 185.56C243.702 188.736 242.744 191.292 240.853 193.161C238.963 195.03 236.022 195.976 232.115 195.976L232.124 195.985Z" fill="#044860"/>
<path d="M256.565 172.143H252.448V199.764H256.565V172.143Z" fill="#044860"/>
<path d="M266.866 192.901H280.259L283.376 199.764H287.695L275.276 172.21L275.209 172.068H272.025L259.548 199.764H263.791L266.866 192.901ZM268.437 189.314L273.537 177.817L278.679 189.314H268.437Z" fill="#044860"/>
<path d="M314.648 199.756V172.143H310.649V192.49L293.904 172.143H290.677V199.756H294.677V179.484L311.456 199.756H314.648Z" fill="#044860"/>
</svg>
