<svg width="645" height="240" viewBox="0 0 645 240" fill="none" xmlns="http://www.w3.org/2000/svg">
<rect width="645" height="240" fill="#083045"/>
<path d="M99.3162 154C80.3982 154 65 138.522 65 119.496C65 100.469 80.3982 85 99.3162 85C118.234 85 133.606 100.478 133.606 119.496C133.606 138.513 118.225 153.991 99.3162 153.991V154ZM99.3162 88.3029C82.2061 88.3029 68.284 102.296 68.284 119.496C68.284 136.695 82.2061 150.697 99.3162 150.697C116.426 150.697 130.331 136.704 130.331 119.496C130.331 102.287 116.417 88.3029 99.3162 88.3029Z" fill="white"/>
<path d="M110.024 137.222L99.7267 131.881C99.5956 131.811 99.4559 131.776 99.3074 131.776C99.1677 131.776 99.0192 131.811 98.8882 131.881L88.5907 137.222C88.154 137.451 87.9706 137.978 88.1802 138.426C88.3811 138.874 88.9051 139.084 89.3593 138.9L98.9668 135.149C99.0716 135.105 99.1851 135.079 99.2987 135.079C99.4122 135.079 99.5258 135.105 99.6306 135.149L109.238 138.9C109.692 139.084 110.216 138.874 110.417 138.426C110.618 137.978 110.435 137.451 110.007 137.222H110.024Z" fill="#F9AA19"/>
<path d="M123.824 118.573L108.714 117.879C107.823 117.835 107.509 116.667 108.26 116.184L121.003 107.971C121.413 107.707 121.544 107.163 121.3 106.741C121.055 106.311 120.522 106.152 120.086 106.381L106.644 113.382C105.849 113.795 105.002 112.943 105.413 112.143L112.374 98.6155C112.601 98.1763 112.443 97.6405 112.024 97.3945H112.007C111.579 97.1398 111.037 97.2715 110.775 97.6844L102.618 110.509C102.137 111.265 100.976 110.949 100.932 110.053L100.224 94.8383C100.198 94.3464 99.7965 93.9599 99.3074 93.9599C98.8183 93.9599 98.4165 94.3464 98.3903 94.8383L97.6916 110.053C97.6479 110.949 96.4863 111.265 96.0059 110.509L87.8483 97.6844C87.5863 97.2715 87.0448 97.1398 86.6168 97.3857H86.6081C86.1888 97.6405 86.0316 98.1763 86.2587 98.6155L93.2198 112.134C93.6303 112.934 92.7831 113.786 91.9883 113.373L78.5465 106.372C78.1098 106.144 77.5771 106.302 77.3325 106.723C77.088 107.154 77.219 107.707 77.6295 107.971L90.3725 116.184C91.1236 116.667 90.8092 117.835 89.9183 117.879L74.7996 118.573C74.3105 118.6 73.9262 119.004 73.9262 119.496C73.9262 119.996 74.3105 120.4 74.7996 120.418L89.9183 121.121C90.8092 121.165 91.1236 122.333 90.3725 122.816L77.6295 131.02C77.219 131.284 77.088 131.829 77.3325 132.259C77.5771 132.698 78.1098 132.856 78.5465 132.628L98.8969 122.034C99.1589 121.894 99.4734 121.894 99.7354 122.034L120.086 132.628C120.522 132.856 121.055 132.698 121.3 132.268C121.544 131.837 121.405 131.293 120.994 131.029L108.251 122.825C107.5 122.342 107.814 121.173 108.705 121.129L123.815 120.427C124.304 120.4 124.689 119.996 124.689 119.504C124.689 119.004 124.304 118.6 123.815 118.582L123.824 118.573Z" fill="#F9AA19"/>
<path d="M160.21 109.227H168.01V114.427C166.114 115.956 163.739 116.737 160.944 116.737C157.738 116.737 155.101 115.754 153.092 113.821C151.092 111.888 150.079 109.236 150.079 105.933C150.079 102.63 151.057 100.074 152.996 98.106C154.935 96.1296 157.511 95.137 160.656 95.137C164.071 95.137 166.734 96.1735 168.595 98.229L168.778 98.4311L171.416 95.6816L171.276 95.5059C168.944 92.5808 165.293 91.105 160.411 91.105C156.262 91.105 152.742 92.5544 149.948 95.4093C147.153 98.2642 145.738 101.813 145.738 105.95C145.738 110.386 147.17 114.014 150 116.72C152.821 119.425 156.481 120.796 160.856 120.796C162.953 120.796 165.031 120.4 167.031 119.619C169.04 118.837 170.691 117.756 171.949 116.404L172.019 116.333V105.379H160.201V109.253L160.21 109.227Z" fill="white"/>
<path d="M195.967 107.549C195.967 110.404 195.304 112.67 194.002 114.304C192.71 115.912 190.806 116.729 188.334 116.729C185.862 116.729 183.923 115.903 182.351 114.269C180.779 112.635 179.975 110.307 179.975 107.356V91.4476H175.8V107.874C175.8 111.941 177.014 115.13 179.399 117.361C181.783 119.592 184.788 120.717 188.334 120.717C191.565 120.717 194.36 119.645 196.666 117.546C198.972 115.429 200.142 112.257 200.142 108.111V91.4476H195.967V107.549Z" fill="white"/>
<path d="M213.383 91.3686L200.762 120.4H205.068L208.178 113.206H221.715L224.868 120.4H229.253L216.693 91.5179L216.632 91.3686H213.383ZM220.117 109.455H209.767L214.92 97.4209L220.117 109.455Z" fill="white"/>
<path d="M251.961 105.599C253.263 104.097 253.918 102.287 253.918 100.232C253.918 94.3991 250.154 91.4476 242.721 91.4476H231.637V120.4H235.812V109.262H242.791L251.193 120.4H256.311L247.193 108.445C249.14 107.971 250.739 107.013 251.953 105.608L251.961 105.599ZM235.821 95.4093H242.599C247.35 95.4093 249.664 96.9905 249.664 100.241C249.664 101.795 249.07 102.999 247.848 103.921C246.616 104.844 244.939 105.318 242.843 105.318H235.821V95.4093Z" fill="white"/>
<path d="M280.321 95.6728C279.116 94.3464 277.439 93.3011 275.351 92.5544C273.273 91.8166 270.801 91.4388 268.015 91.4388H259.036V120.392H267.613C272.941 120.392 277.02 118.995 279.753 116.237C282.478 113.478 283.867 109.868 283.867 105.511C283.867 103.57 283.579 101.751 283.002 100.126C282.426 98.4926 281.526 96.9905 280.321 95.6728ZM267.857 116.439H263.22V95.4093H267.936C271.997 95.4093 274.984 96.3229 276.81 98.1236C278.635 99.9244 279.561 102.41 279.561 105.52C279.561 108.849 278.592 111.528 276.679 113.496C274.766 115.455 271.797 116.447 267.849 116.447L267.857 116.439Z" fill="white"/>
<path d="M291.981 91.4476H287.806V120.4H291.981V91.4476Z" fill="white"/>
<path d="M307.004 91.3686L294.383 120.4H298.689L301.798 113.206H315.336L318.489 120.4H322.873L310.314 91.5179L310.253 91.3686H307.004ZM313.738 109.455H303.388L308.541 97.4209L313.738 109.455Z" fill="white"/>
<path d="M345.46 91.4476V112.767L328.542 91.4476H325.258V120.4H329.319V99.1602L346.281 120.4H349.521V91.4476H345.46Z" fill="white"/>
<path d="M387.436 105.599C388.737 104.097 389.401 102.287 389.401 100.232C389.401 94.3991 385.636 91.4476 378.204 91.4476H367.129V120.4H371.304V109.262H378.282L386.684 120.4H391.803L382.684 108.445C384.632 107.971 386.23 107.013 387.444 105.608L387.436 105.599ZM371.295 95.4093H378.073C382.824 95.4093 385.139 96.9905 385.139 100.241C385.139 101.795 384.545 102.999 383.322 103.921C382.09 104.844 380.405 105.318 378.317 105.318H371.295V95.4093Z" fill="#F9AA19"/>
<path d="M398.685 107.637H414.249V103.763H398.685V95.4093H415.376V91.4476H394.51V120.4H415.743V116.439H398.685V107.637Z" fill="#F9AA19"/>
<path d="M442.251 112.987C440.05 115.464 437.202 116.72 433.787 116.72C430.582 116.72 427.962 115.727 426.005 113.768C424.04 111.809 423.044 109.165 423.044 105.924C423.044 102.683 423.97 100.065 425.804 98.0885C427.63 96.1208 430.171 95.1194 433.342 95.1194C436.512 95.1194 439.316 96.2701 441.569 98.5453L441.744 98.7209L444.46 96.0769L444.329 95.9012C443.281 94.4957 441.779 93.3274 439.849 92.4314C437.927 91.5355 435.709 91.0875 433.255 91.0875C428.922 91.0875 425.376 92.5193 422.712 95.3302C420.049 98.1412 418.704 101.708 418.704 105.924C418.704 110.413 420.057 114.049 422.739 116.729C425.411 119.408 429.053 120.761 433.543 120.761C435.857 120.761 438.05 120.295 440.05 119.373C442.058 118.45 443.639 117.203 444.74 115.657L444.853 115.49L442.434 112.776L442.251 112.987Z" fill="#F9AA19"/>
<path d="M460.094 91.0787C456.007 91.0787 452.504 92.5193 449.692 95.3566C446.88 98.1939 445.456 101.751 445.456 105.915C445.456 110.079 446.88 113.742 449.692 116.535C452.504 119.337 455.998 120.752 460.094 120.752C464.191 120.752 467.641 119.32 470.453 116.491C473.265 113.663 474.689 110.105 474.689 105.906C474.689 101.708 473.265 98.0797 470.453 95.2863C467.641 92.4842 464.156 91.0699 460.094 91.0699V91.0787ZM460.094 116.729C457.264 116.729 454.819 115.692 452.819 113.654C450.819 111.616 449.797 109.016 449.797 105.924C449.797 102.832 450.81 100.205 452.793 98.1763C454.784 96.1472 457.238 95.1194 460.086 95.1194C462.933 95.1194 465.317 96.1472 467.326 98.1763C469.326 100.205 470.348 102.814 470.348 105.924C470.348 109.034 469.361 111.643 467.405 113.672C465.457 115.701 462.994 116.729 460.086 116.729H460.094Z" fill="#F9AA19"/>
<path d="M489.345 114.348L478.48 91.4476H473.964L487.711 120.26L487.781 120.4H490.76L503.922 91.4476H499.529L489.345 114.348Z" fill="#F9AA19"/>
<path d="M510.289 107.637H525.844V103.763H510.289V95.4093H526.971V91.4476H506.105V120.4H527.338V116.439H510.289V107.637Z" fill="#F9AA19"/>
<path d="M552.169 105.599C553.47 104.097 554.134 102.287 554.134 100.232C554.134 94.3991 550.37 91.4476 542.937 91.4476H531.862V120.4H536.037V109.262H543.016L551.418 120.4H556.536L547.418 108.445C549.365 107.971 550.964 107.013 552.178 105.608L552.169 105.599ZM536.02 95.4093H542.797C547.549 95.4093 549.863 96.9905 549.863 100.241C549.863 101.795 549.269 102.999 548.046 103.921C546.815 104.844 545.129 105.318 543.042 105.318H536.02V95.4093Z" fill="#F9AA19"/>
<path d="M576.126 91.4476L567.41 105.01L558.815 91.4476H553.741L565.218 109.455V120.4H569.401V109.455L581 91.4476H576.126Z" fill="#F9AA19"/>
<path d="M281.998 147.201L272.556 135.465V147.201H269.674V129.984H271.971L281.413 141.764V129.984H284.295V147.201H281.998Z" fill="white"/>
<path d="M288.942 129.984H301.658V132.786H291.902V137.117H301.021V139.822H291.902V144.399H301.903V147.201H288.942V129.984Z" fill="white"/>
<path d="M322.786 147.201H320.314L316.131 135.219L312.069 147.201H309.571L304.244 129.984H307.327L310.969 141.887L314.952 129.984H317.371L321.432 141.843L324.908 129.984H327.843L322.777 147.201H322.786Z" fill="white"/>
<path d="M337.8 129.984H344.717C346.106 129.984 347.285 130.142 348.255 130.467C349.224 130.783 349.958 131.231 350.456 131.811C350.953 132.391 351.303 132.979 351.521 133.594C351.731 134.209 351.836 134.894 351.836 135.65C351.836 136.405 351.713 137.082 351.46 137.732C351.207 138.382 350.814 138.979 350.29 139.524C349.766 140.068 349.014 140.507 348.062 140.824C347.11 141.14 345.984 141.307 344.7 141.307H340.761V147.21H337.8V129.984ZM340.761 132.769V138.522H344.647C347.39 138.522 348.752 137.556 348.752 135.623C348.752 133.691 347.442 132.769 344.813 132.769H340.752H340.761Z" fill="white"/>
<path d="M359.81 129.984H362.063L369.574 147.201H366.465L364.806 143.389H357.006L355.364 147.201H352.307L359.818 129.984H359.81ZM358.072 140.832H363.696L360.884 134.288L358.072 140.832Z" fill="white"/>
<path d="M368.448 129.984H382.903V132.786H377.156V147.201H374.195V132.786H368.448V129.984Z" fill="white"/>
<path d="M397.794 139.901H388.816V147.21H385.855V129.993H388.816V137.099H397.794V129.993H400.755V147.21H397.794V139.901Z" fill="white"/>
<path d="M422.25 147.201H419.778L415.594 135.219L411.533 147.201H409.035L403.707 129.984H406.79L410.432 141.887L414.415 129.984H416.834L420.896 141.843L424.372 129.984H427.307L422.241 147.201H422.25Z" fill="white"/>
<path d="M434.722 129.984H436.975L444.487 147.201H441.377L439.718 143.389H431.918L430.276 147.201H427.219L434.731 129.984H434.722ZM432.984 140.832H438.609L435.796 134.288L432.984 140.832Z" fill="white"/>
<path d="M453.037 139.752V147.201H450.076V139.752L443.203 129.984H446.871L451.587 136.844L456.409 129.984H459.955L453.037 139.752Z" fill="white"/>
<path d="M254.686 137.284H157.083V139.919H254.686V137.284Z" fill="#F9AA19"/>
<path d="M569.742 137.284H474.933V139.919H569.742V137.284Z" fill="#F9AA19"/>
</svg>
