<svg width="645" height="240" viewBox="0 0 645 240" fill="none" xmlns="http://www.w3.org/2000/svg">
<rect width="645" height="240" fill="#083045"/>
<path d="M98.3162 155C79.3982 155 64 139.522 64 120.496C64 101.469 79.3982 86 98.3162 86C117.234 86 132.615 101.478 132.615 120.496C132.615 139.513 117.234 154.991 98.3162 154.991V155ZM98.3162 89.3029C81.2061 89.3029 67.284 103.296 67.284 120.496C67.284 137.695 81.2061 151.697 98.3162 151.697C115.426 151.697 129.331 137.704 129.331 120.496C129.331 103.287 115.417 89.3029 98.3162 89.3029Z" fill="white"/>
<path d="M109.024 138.222L98.7267 132.881C98.5956 132.811 98.4559 132.776 98.3074 132.776C98.1677 132.776 98.0192 132.811 97.8882 132.881L87.5907 138.222C87.154 138.451 86.9706 138.978 87.1802 139.426C87.3811 139.874 87.9051 140.084 88.3593 139.9L97.9668 136.149C98.0716 136.105 98.1851 136.079 98.2987 136.079C98.4122 136.079 98.5258 136.105 98.6306 136.149L108.238 139.9C108.692 140.084 109.216 139.874 109.417 139.426C109.618 138.978 109.435 138.451 109.007 138.222H109.024Z" fill="#F9AA19"/>
<path d="M122.824 119.573L107.714 118.879C106.823 118.835 106.509 117.667 107.26 117.184L120.003 108.971C120.413 108.707 120.544 108.163 120.3 107.741C120.055 107.311 119.522 107.152 119.086 107.381L105.644 114.382C104.849 114.795 104.002 113.943 104.413 113.143L111.374 99.6155C111.601 99.1763 111.443 98.6405 111.024 98.3945H111.007C110.579 98.1398 110.037 98.2715 109.775 98.6844L101.618 111.509C101.137 112.265 99.9756 111.949 99.932 111.053L99.2245 95.8383C99.1983 95.3464 98.7965 94.9599 98.3074 94.9599C97.8183 94.9599 97.4165 95.3464 97.3903 95.8383L96.6916 111.053C96.6479 111.949 95.4863 112.265 95.0059 111.509L86.8483 98.6844C86.5863 98.2715 86.0448 98.1398 85.6168 98.3857H85.6081C85.1888 98.6405 85.0316 99.1763 85.2587 99.6155L92.2198 113.134C92.6303 113.934 91.7831 114.786 90.9883 114.373L77.5465 107.372C77.1098 107.144 76.5771 107.302 76.3325 107.723C76.088 108.154 76.219 108.707 76.6295 108.971L89.3725 117.184C90.1236 117.667 89.8092 118.835 88.9183 118.879L73.7996 119.573C73.3105 119.6 72.9262 120.004 72.9262 120.496C72.9262 120.996 73.3105 121.4 73.7996 121.418L88.9183 122.121C89.8092 122.165 90.1236 123.333 89.3725 123.816L76.6295 132.02C76.219 132.284 76.088 132.829 76.3325 133.259C76.5771 133.698 77.1098 133.856 77.5465 133.628L97.8969 123.034C98.1589 122.894 98.4734 122.894 98.7354 123.034L119.086 133.628C119.522 133.856 120.055 133.698 120.3 133.268C120.544 132.837 120.405 132.293 119.994 132.029L107.251 123.825C106.5 123.342 106.814 122.173 107.705 122.129L122.815 121.427C123.304 121.4 123.689 120.996 123.689 120.504C123.689 120.004 123.304 119.6 122.815 119.582L122.824 119.573Z" fill="#F9AA19"/>
<path d="M386.436 106.599C387.737 105.097 388.401 103.287 388.401 101.232C388.401 95.3991 384.636 92.4476 377.204 92.4476H366.129V121.4H370.304V110.262H377.282L385.684 121.4H390.803L381.684 109.436C383.632 108.962 385.23 108.004 386.444 106.599H386.436ZM370.295 96.4005H377.073C381.824 96.4005 384.139 97.9817 384.139 101.232C384.139 102.787 383.545 103.99 382.322 104.912C381.09 105.835 379.413 106.309 377.317 106.309H370.295V96.4005Z" fill="#F9AA19"/>
<path d="M397.685 108.637H413.249V104.754H397.685V96.4005H414.376V92.4476H393.51V121.392H414.743V117.439H397.685V108.637Z" fill="#F9AA19"/>
<path d="M441.251 113.987C439.05 116.464 436.202 117.72 432.787 117.72C429.582 117.72 426.962 116.727 425.005 114.768C423.04 112.809 422.044 110.165 422.044 106.924C422.044 103.683 422.97 101.065 424.804 99.0885C426.63 97.1208 429.171 96.1194 432.342 96.1194C435.512 96.1194 438.316 97.2701 440.569 99.5453L440.744 99.7209L443.46 97.0769L443.329 96.9012C442.281 95.4957 440.779 94.3274 438.849 93.4314C436.927 92.5355 434.709 92.0875 432.255 92.0875C427.922 92.0875 424.376 93.5193 421.712 96.3302C419.049 99.1412 417.704 102.708 417.704 106.924C417.704 111.413 419.057 115.049 421.739 117.729C424.411 120.408 428.053 121.761 432.543 121.761C434.857 121.761 437.05 121.295 439.05 120.373C441.058 119.45 442.639 118.203 443.74 116.657L443.853 116.49L441.434 113.776L441.251 113.987Z" fill="#F9AA19"/>
<path d="M459.094 92.0787C455.007 92.0787 451.504 93.5193 448.692 96.3566C445.88 99.1939 444.456 102.751 444.456 106.915C444.456 111.079 445.88 114.742 448.692 117.535C451.504 120.337 454.998 121.752 459.094 121.752C463.191 121.752 466.641 120.32 469.453 117.491C472.265 114.663 473.689 111.105 473.689 106.906C473.689 102.708 472.265 99.0797 469.453 96.2863C466.641 93.4842 463.156 92.0699 459.094 92.0699V92.0787ZM459.094 117.72C456.264 117.72 453.819 116.683 451.819 114.645C449.819 112.607 448.797 110.007 448.797 106.915C448.797 103.823 449.81 101.197 451.793 99.1675C453.784 97.1384 456.238 96.1106 459.086 96.1106C461.933 96.1106 464.317 97.1384 466.326 99.1675C468.326 101.197 469.348 103.806 469.348 106.915C469.348 110.025 468.361 112.634 466.405 114.663C464.457 116.692 461.994 117.72 459.086 117.72H459.094Z" fill="#F9AA19"/>
<path d="M488.345 115.339L477.471 92.4476H472.964L486.711 121.251L486.781 121.392H489.76L502.922 92.4476H498.529L488.345 115.339Z" fill="#F9AA19"/>
<path d="M509.289 108.637H524.844V104.754H509.289V96.4005H525.971V92.4476H505.105V121.392H526.338V117.439H509.289V108.637Z" fill="#F9AA19"/>
<path d="M551.16 106.599C552.462 105.097 553.125 103.287 553.125 101.232C553.125 95.3991 549.361 92.4476 541.928 92.4476H530.853V121.4H535.028V110.262H542.007L550.409 121.4H555.527L546.409 109.436C548.357 108.962 549.955 108.004 551.169 106.599H551.16ZM535.02 96.4005H541.797C546.549 96.4005 548.863 97.9817 548.863 101.232C548.863 102.787 548.269 103.99 547.046 104.912C545.815 105.835 544.138 106.309 542.042 106.309H535.02V96.4005Z" fill="#F9AA19"/>
<path d="M575.126 92.4476L566.41 106.01L557.815 92.4476H552.741L564.218 110.446V121.392H568.401V110.446L580 92.4476H575.126Z" fill="#F9AA19"/>
<path d="M159.21 110.218H167.01V115.418C165.114 116.947 162.739 117.729 159.944 117.729C156.738 117.729 154.101 116.745 152.092 114.812C150.092 112.88 149.079 110.227 149.079 106.924C149.079 103.621 150.057 101.065 151.996 99.0973C153.935 97.1208 156.511 96.1282 159.656 96.1282C163.071 96.1282 165.743 97.1647 167.595 99.2202L167.778 99.4223L170.416 96.6728L170.276 96.4971C167.944 93.572 164.293 92.0962 159.411 92.0962C155.262 92.0962 151.742 93.5456 148.948 96.4005C146.153 99.2554 144.738 102.804 144.738 106.942C144.738 111.378 146.17 115.005 149 117.711C151.821 120.417 155.481 121.787 159.856 121.787C161.953 121.787 164.031 121.392 166.031 120.61C168.04 119.828 169.691 118.748 170.949 117.395L171.019 117.325V106.371H159.201V110.244L159.21 110.218Z" fill="white"/>
<path d="M194.967 108.549C194.967 111.404 194.304 113.67 193.002 115.295C191.71 116.903 189.806 117.72 187.334 117.72C184.862 117.72 182.923 116.894 181.351 115.26C179.779 113.626 178.975 111.299 178.975 108.347V92.4476H174.8V108.874C174.8 112.941 176.014 116.13 178.399 118.361C180.783 120.592 183.788 121.717 187.334 121.717C190.565 121.717 193.36 120.645 195.666 118.546C197.972 116.429 199.142 113.257 199.142 109.111V92.4476H194.967V108.549Z" fill="white"/>
<path d="M212.383 92.3598L199.762 121.392H204.068L207.178 114.197H220.715L223.868 121.392H228.253L215.693 92.5091L215.632 92.3598H212.383ZM219.117 110.446H208.767L213.92 98.4121L219.117 110.446Z" fill="white"/>
<path d="M250.961 106.599C252.263 105.097 252.918 103.287 252.918 101.232C252.918 95.3991 249.154 92.4476 241.721 92.4476H230.637V121.4H234.812V110.262H241.791L250.193 121.4H255.311L246.193 109.436C248.14 108.962 249.739 108.004 250.953 106.599H250.961ZM234.821 96.4005H241.599C246.35 96.4005 248.664 97.9817 248.664 101.232C248.664 102.787 248.07 103.99 246.848 104.912C245.616 105.835 243.939 106.309 241.843 106.309H234.821V96.4005Z" fill="white"/>
<path d="M279.321 96.6728C278.116 95.3464 276.439 94.3011 274.351 93.5544C272.273 92.8166 269.801 92.4388 267.015 92.4388H258.036V121.392H266.613C271.941 121.392 276.02 119.995 278.753 117.237C281.478 114.478 282.867 110.868 282.867 106.511C282.867 104.57 282.579 102.751 282.002 101.126C281.426 99.4926 280.526 97.9905 279.321 96.6728ZM266.857 117.439H262.22V96.4005H266.936C270.997 96.4005 273.984 97.3141 275.81 99.1148C277.635 100.916 278.561 103.402 278.561 106.511C278.561 109.84 277.592 112.52 275.679 114.487C273.766 116.446 270.797 117.439 266.849 117.439H266.857Z" fill="white"/>
<path d="M290.981 92.4476H286.806V121.4H290.981V92.4476Z" fill="white"/>
<path d="M300.798 114.197H314.336L317.489 121.392H321.873L309.314 92.5091L309.253 92.3598H306.012L293.392 121.392H297.697L300.807 114.197H300.798ZM302.388 110.446L307.541 98.4121L312.738 110.446H302.388Z" fill="white"/>
<path d="M344.46 113.758L327.542 92.4476H324.258V121.392H328.319V100.16L345.281 121.392H348.521V92.4476H344.46V113.758Z" fill="white"/>
<path d="M298.623 130.782L291.112 147.999H294.169L295.811 144.187H303.61L305.27 147.999H308.379L300.868 130.782H298.615H298.623ZM296.885 141.622L299.698 135.077L302.51 141.622H296.885Z" fill="white"/>
<path d="M324.153 133.303C323.419 132.504 322.415 131.889 321.131 131.45C319.856 131.01 318.354 130.782 316.642 130.782H311.288V147.999H316.327C319.637 147.999 322.127 147.182 323.786 145.548C325.446 143.914 326.284 141.789 326.284 139.162C326.284 137.985 326.109 136.905 325.769 135.938C325.428 134.972 324.887 134.085 324.153 133.294V133.303ZM321.576 143.581C320.493 144.652 318.816 145.188 316.554 145.188H314.257V133.575H316.607C321.009 133.575 323.21 135.438 323.21 139.162C323.21 141.033 322.668 142.5 321.585 143.581H321.576Z" fill="white"/>
<path d="M342.888 133.303C342.154 132.504 341.149 131.889 339.866 131.45C338.59 131.01 337.088 130.782 335.376 130.782H330.022V147.999H335.062C338.372 147.999 340.861 147.182 342.521 145.548C344.18 143.914 345.019 141.789 345.019 139.162C345.019 137.985 344.844 136.905 344.503 135.938C344.163 134.972 343.621 134.085 342.888 133.294V133.303ZM340.302 143.581C339.219 144.652 337.542 145.188 335.28 145.188H332.983V133.575H335.333C339.735 133.575 341.936 135.438 341.936 139.162C341.936 141.033 341.394 142.5 340.311 143.581H340.302Z" fill="white"/>
<path d="M351.718 130.782H348.757V147.999H351.718V130.782Z" fill="white"/>
<path d="M364.478 145.337C362.714 145.337 361.29 144.793 360.19 143.704C359.089 142.614 358.539 141.174 358.539 139.39C358.539 137.607 359.072 136.14 360.129 135.06C361.185 133.979 362.6 133.435 364.356 133.435C366.251 133.435 367.788 134.102 368.976 135.429L370.933 133.558C370.33 132.671 369.43 131.959 368.243 131.406C367.055 130.852 365.71 130.58 364.207 130.58C361.596 130.58 359.491 131.423 357.875 133.101C356.259 134.779 355.456 136.878 355.456 139.382C355.456 142.052 356.251 144.187 357.84 145.785C359.43 147.384 361.57 148.183 364.26 148.183C365.727 148.183 367.072 147.902 368.304 147.331C369.535 146.769 370.505 145.979 371.203 144.986L369.465 143.071C368.208 144.582 366.548 145.337 364.478 145.337Z" fill="white"/>
<path d="M373.134 133.584H378.881V147.999H381.841V133.584H387.588V130.782H373.134V133.584Z" fill="white"/>
<path d="M393.51 130.782H390.549V147.999H393.51V130.782Z" fill="white"/>
<path d="M406 130.58C403.537 130.58 401.467 131.432 399.773 133.127C398.087 134.823 397.24 136.913 397.24 139.39C397.24 141.868 398.087 144.011 399.781 145.689C401.476 147.358 403.546 148.201 405.991 148.201C408.437 148.201 410.507 147.358 412.201 145.68C413.896 144.002 414.743 141.903 414.743 139.399C414.743 136.896 413.896 134.779 412.21 133.101C410.524 131.432 408.445 130.589 405.982 130.589L406 130.58ZM410.053 143.677C408.969 144.784 407.616 145.337 406.009 145.337C404.402 145.337 403.109 144.784 402 143.668C400.89 142.553 400.34 141.13 400.34 139.39C400.34 137.651 400.89 136.202 402 135.095C403.109 133.988 404.445 133.435 406.009 133.435C407.572 133.435 408.891 133.988 410.009 135.104C411.127 136.219 411.686 137.642 411.686 139.382C411.686 141.121 411.144 142.57 410.061 143.677H410.053Z" fill="white"/>
<path d="M430.237 130.782V142.562L420.795 130.782H418.498V147.999H421.381V136.263L430.822 147.999H433.119V130.782H430.237Z" fill="white"/>
<path d="M568.454 138.082H446.203V140.717H568.454V138.082Z" fill="#F9AA19"/>
<path d="M278.037 138.082H155.786V140.717H278.037V138.082Z" fill="#F9AA19"/>
</svg>
