<svg width="645" height="300" viewBox="0 0 645 300" fill="none" xmlns="http://www.w3.org/2000/svg">
<rect width="645" height="300" fill="white"/>
<path d="M240.013 218.176H118.939V220.706H240.013V218.176Z" fill="#F9AA19"/>
<path d="M524.598 218.176H401.786V220.706H524.598V218.176Z" fill="#F9AA19"/>
<path d="M321.193 145.448C299.356 145.448 281.595 127.631 281.595 105.724C281.595 83.8173 299.365 66 321.193 66C343.022 66 360.767 83.8173 360.767 105.724C360.767 127.631 343.013 145.448 321.193 145.448ZM321.193 69.1705C301.096 69.1705 284.754 85.5712 284.754 105.724C284.754 125.877 301.104 142.278 321.193 142.278C341.283 142.278 357.608 125.877 357.608 105.724C357.608 85.5712 341.274 69.1705 321.193 69.1705Z" fill="#044860"/>
<path d="M333.654 126.299L321.681 120.093C321.529 120.017 321.361 119.975 321.193 119.975C321.025 119.975 320.857 120.017 320.706 120.093L308.733 126.299C308.229 126.56 308.019 127.176 308.254 127.699C308.49 128.221 309.094 128.466 309.624 128.247L320.807 123.896C320.933 123.845 321.067 123.82 321.202 123.82C321.336 123.82 321.471 123.845 321.597 123.896L332.78 128.247C333.309 128.466 333.914 128.221 334.149 127.699C334.385 127.176 334.175 126.56 333.67 126.299H333.654Z" fill="#F9AA19"/>
<path d="M349.71 104.645L332.133 103.844C331.091 103.793 330.73 102.436 331.604 101.879L346.433 92.3423C346.912 92.0387 347.063 91.4063 346.786 90.9088C346.5 90.4113 345.879 90.2258 345.374 90.4872L329.73 98.6074C328.806 99.0881 327.814 98.0931 328.293 97.1655L336.393 81.4647C336.653 80.9588 336.477 80.3348 335.981 80.0481H335.964C335.468 79.753 334.838 79.9047 334.536 80.3854L325.042 95.2767C324.479 96.1537 323.126 95.7911 323.084 94.7539L322.269 77.0884C322.244 76.515 321.773 76.0681 321.202 76.0681H321.193C320.622 76.0681 320.152 76.515 320.126 77.0884L319.32 94.7455C319.269 95.7911 317.917 96.1537 317.362 95.2683L307.868 80.377C307.557 79.8963 306.927 79.7445 306.439 80.0312H306.423C305.935 80.3264 305.75 80.9503 306.011 81.4563L314.119 97.1571C314.598 98.0846 313.606 99.0796 312.682 98.599L297.046 90.4703C296.542 90.2089 295.92 90.386 295.634 90.8835C295.349 91.3894 295.5 92.0219 295.979 92.3339L310.808 101.871C311.682 102.436 311.321 103.793 310.279 103.835L292.694 104.636C292.122 104.662 291.677 105.134 291.677 105.707C291.677 106.289 292.122 106.753 292.694 106.787L310.279 107.596C311.321 107.647 311.682 109.004 310.8 109.561L295.97 119.089C295.492 119.401 295.34 120.034 295.626 120.523V120.54C295.92 121.029 296.542 121.214 297.046 120.953L320.723 108.65C321.034 108.49 321.395 108.49 321.706 108.65L345.383 120.953C345.887 121.214 346.517 121.029 346.794 120.531C347.072 120.034 346.92 119.401 346.442 119.098L331.612 109.569C330.738 109.004 331.099 107.647 332.141 107.605L349.718 106.795C350.29 106.77 350.735 106.298 350.735 105.724C350.735 105.142 350.29 104.679 349.718 104.645H349.71Z" fill="#F9AA19"/>
<path d="M349.794 183.368C351.046 181.926 351.676 180.189 351.676 178.216C351.676 172.617 348.055 169.784 340.905 169.784H330.242V197.577H334.259V186.884H340.972L349.055 197.577H353.978L345.206 186.1C347.08 185.645 348.618 184.726 349.786 183.377L349.794 183.368ZM334.267 173.578H340.787C345.358 173.578 347.584 175.096 347.584 178.216C347.584 179.709 347.013 180.864 345.837 181.749C344.652 182.635 343.039 183.09 341.022 183.09H334.267V173.578Z" fill="#F9AA19"/>
<path d="M360.616 185.324H375.588V181.597H360.616V173.578H376.672V169.784H356.6V197.568H377.025V193.774H360.616V185.324Z" fill="#F9AA19"/>
<path d="M402.525 190.46C400.408 192.838 397.669 194.043 394.384 194.043C391.3 194.043 388.779 193.091 386.897 191.21C385.007 189.33 384.049 186.792 384.049 183.68C384.049 180.569 384.94 178.056 386.704 176.159C388.46 174.27 390.897 173.309 393.955 173.309C397.013 173.309 399.702 174.413 401.87 176.597L402.038 176.766L404.651 174.228L404.525 174.059C403.525 172.71 402.071 171.588 400.215 170.728C398.366 169.868 396.232 169.438 393.871 169.438C389.704 169.438 386.292 170.813 383.73 173.511C381.167 176.209 379.873 179.633 379.873 183.68C379.873 187.989 381.176 191.48 383.755 194.052C386.326 196.624 389.83 197.922 394.148 197.922C396.375 197.922 398.484 197.475 400.408 196.59C402.34 195.705 403.861 194.507 404.92 193.023L405.029 192.863L402.702 190.257L402.525 190.46Z" fill="#F9AA19"/>
<path d="M419.691 169.43C415.758 169.43 412.389 170.813 409.684 173.536C406.978 176.26 405.609 179.675 405.609 183.672C405.609 187.669 406.978 191.185 409.684 193.866C412.389 196.556 415.75 197.914 419.691 197.914C423.631 197.914 426.95 196.539 429.655 193.824C432.361 191.109 433.73 187.694 433.73 183.663C433.73 179.633 432.361 176.15 429.655 173.469C426.95 170.787 423.597 169.421 419.691 169.421V169.43ZM419.691 194.043C416.968 194.043 414.616 193.048 412.692 191.092C410.768 189.136 409.785 186.64 409.785 183.672C409.785 180.704 410.759 178.182 412.666 176.235C414.582 174.287 416.943 173.3 419.691 173.3C422.438 173.3 424.723 174.287 426.656 176.235C428.58 178.182 429.563 180.687 429.563 183.672C429.563 186.657 428.613 189.161 426.731 191.109C424.858 193.057 422.488 194.043 419.691 194.043Z" fill="#F9AA19"/>
<path d="M447.829 191.758L437.377 169.784H433.033L446.258 197.433L446.325 197.568H449.19L461.852 169.784H457.626L447.829 191.758Z" fill="#F9AA19"/>
<path d="M467.977 185.324H482.941V181.597H467.977V173.578H484.025V169.784H463.952V197.568H484.378V193.774H467.977V185.324Z" fill="#F9AA19"/>
<path d="M508.265 183.368C509.517 181.926 510.155 180.189 510.155 178.216C510.155 172.617 506.534 169.784 499.384 169.784H488.73V197.577H492.746V186.884H499.46L507.542 197.577H512.466L503.694 186.1C505.568 185.645 507.105 184.726 508.273 183.377L508.265 183.368ZM492.729 173.578H499.249C503.82 173.578 506.047 175.096 506.047 178.216C506.047 179.709 505.475 180.864 504.299 181.749C503.114 182.635 501.493 183.09 499.485 183.09H492.729V173.578Z" fill="#F9AA19"/>
<path d="M531.312 169.784L522.926 182.803L514.659 169.784H509.777L520.818 187.062V197.568H524.842V187.062L536 169.784H531.312Z" fill="#F9AA19"/>
<path d="M259.43 211.27L252.204 227.798H255.145L256.725 224.138H264.228L265.824 227.798H268.815L261.589 211.27H259.422H259.43ZM257.758 221.684L260.463 215.402L263.169 221.684H257.758Z" fill="#044860"/>
<path d="M283.989 213.691C283.283 212.923 282.317 212.333 281.082 211.911C279.855 211.49 278.41 211.27 276.763 211.27H271.613V227.798H276.461C279.645 227.798 282.04 227.013 283.636 225.445C285.233 223.877 286.039 221.836 286.039 219.315C286.039 218.185 285.871 217.148 285.544 216.22C285.216 215.293 284.695 214.449 283.989 213.682V213.691ZM281.502 223.556C280.46 224.585 278.847 225.099 276.671 225.099H274.461V213.952H276.721C280.956 213.952 283.073 215.74 283.073 219.315C283.073 221.111 282.552 222.519 281.511 223.556H281.502Z" fill="#044860"/>
<path d="M302.012 213.691C301.306 212.923 300.34 212.333 299.104 211.911C297.878 211.49 296.433 211.27 294.786 211.27H289.635V227.798H294.483C297.668 227.798 300.062 227.013 301.659 225.445C303.255 223.877 304.062 221.836 304.062 219.315C304.062 218.185 303.894 217.148 303.566 216.22C303.238 215.293 302.717 214.449 302.012 213.682V213.691ZM299.525 223.556C298.483 224.585 296.869 225.099 294.693 225.099H292.484V213.952H294.744C298.978 213.952 301.096 215.74 301.096 219.315C301.096 221.111 300.575 222.519 299.533 223.556H299.525Z" fill="#044860"/>
<path d="M310.498 211.27H307.649V227.798H310.498V211.27Z" fill="#044860"/>
<path d="M322.781 225.251C321.084 225.251 319.715 224.728 318.656 223.683C317.597 222.637 317.068 221.254 317.068 219.542C317.068 217.831 317.581 216.423 318.597 215.385C319.614 214.348 320.975 213.825 322.664 213.825C324.487 213.825 325.966 214.466 327.108 215.74L328.991 213.943C328.411 213.092 327.545 212.4 326.403 211.878C325.26 211.355 323.966 211.085 322.521 211.085C320.009 211.085 317.984 211.894 316.429 213.505C314.875 215.116 314.102 217.131 314.102 219.534C314.102 222.097 314.867 224.146 316.396 225.681C317.925 227.216 319.983 227.983 322.571 227.983C323.983 227.983 325.277 227.713 326.461 227.165C327.646 226.626 328.579 225.867 329.251 224.914L327.579 223.076C326.369 224.526 324.773 225.251 322.781 225.251Z" fill="#044860"/>
<path d="M331.108 213.96H336.636V227.798H339.485V213.96H345.013V211.27H331.108V213.96Z" fill="#044860"/>
<path d="M350.71 211.27H347.861V227.798H350.71V211.27Z" fill="#044860"/>
<path d="M362.725 211.085C360.355 211.085 358.364 211.903 356.734 213.53C355.112 215.158 354.297 217.165 354.297 219.542C354.297 221.92 355.112 223.978 356.742 225.588C358.372 227.199 360.364 228 362.716 228C365.069 228 367.06 227.191 368.69 225.58C370.32 223.969 371.135 221.954 371.135 219.551C371.135 217.148 370.32 215.116 368.699 213.505C367.077 211.903 365.077 211.093 362.708 211.093L362.725 211.085ZM366.623 223.657C365.581 224.72 364.279 225.251 362.733 225.251C361.187 225.251 359.944 224.72 358.877 223.649C357.809 222.578 357.28 221.212 357.28 219.542C357.28 217.873 357.809 216.482 358.877 215.419C359.944 214.357 361.229 213.825 362.733 213.825C364.237 213.825 365.506 214.357 366.581 215.428C367.657 216.498 368.194 217.864 368.194 219.534C368.194 221.204 367.673 222.595 366.632 223.657H366.623Z" fill="#044860"/>
<path d="M386.04 211.27V222.578L376.958 211.27H374.748V227.798H377.521V216.532L386.603 227.798H388.813V211.27H386.04Z" fill="#044860"/>
<path d="M122.309 186.842H130.022V191.826C128.148 193.293 125.796 194.043 123.031 194.043C119.864 194.043 117.251 193.099 115.268 191.244C113.293 189.389 112.285 186.842 112.285 183.68C112.285 180.518 113.26 178.064 115.167 176.167C117.083 174.27 119.628 173.309 122.746 173.309C126.123 173.309 128.761 174.304 130.601 176.277L130.77 176.462L133.374 173.831L133.231 173.663C130.929 170.863 127.316 169.438 122.502 169.438C118.41 169.438 114.932 170.829 112.167 173.562C109.403 176.302 108 179.709 108 183.68C108 187.947 109.42 191.421 112.209 194.018C114.999 196.607 118.612 197.922 122.939 197.922C125.006 197.922 127.056 197.543 129.039 196.792C131.022 196.042 132.66 195.005 133.903 193.715L133.971 193.647V183.124H122.309V186.842Z" fill="#044860"/>
<path d="M158.261 185.232C158.261 187.972 157.606 190.148 156.32 191.708C155.043 193.251 153.153 194.043 150.716 194.043C148.279 194.043 146.355 193.251 144.793 191.674C143.238 190.106 142.448 187.871 142.448 185.038V169.775H138.331V185.544C138.331 189.448 139.524 192.509 141.885 194.659C144.238 196.801 147.212 197.88 150.716 197.88C153.9 197.88 156.673 196.86 158.942 194.836C161.219 192.804 162.378 189.76 162.378 185.78V169.775H158.261V185.232Z" fill="#044860"/>
<path d="M179.266 169.7H176.082L163.605 197.568H167.848L170.923 190.662H184.316L187.433 197.568H191.752L179.333 169.843L179.266 169.7ZM182.736 187.062H172.494L177.594 175.493L182.736 187.062Z" fill="#044860"/>
<path d="M214.807 183.368C216.092 181.926 216.748 180.189 216.748 178.216C216.748 172.617 213.026 169.784 205.682 169.784H194.734V197.577H198.851V186.884H205.766L214.076 197.577H219.125L210.11 186.1C212.034 185.645 213.614 184.726 214.815 183.377L214.807 183.368ZM198.843 173.578H205.556C210.261 173.578 212.547 175.096 212.547 178.216C212.547 179.709 211.958 180.864 210.749 181.749C209.53 182.635 207.867 183.09 205.8 183.09H198.851V173.587L198.843 173.578Z" fill="#044860"/>
<path d="M243.441 173.831C242.248 172.558 240.593 171.555 238.526 170.846C236.476 170.138 234.031 169.775 231.275 169.775H222.402V197.568H230.871C236.131 197.568 240.164 196.227 242.861 193.58C245.558 190.932 246.928 187.466 246.928 183.284C246.928 181.42 246.642 179.675 246.071 178.115C245.508 176.547 244.617 175.105 243.424 173.84L243.441 173.831ZM231.124 193.774H226.528V173.578H231.199C235.215 173.578 238.173 174.455 239.979 176.184C241.786 177.913 242.702 180.299 242.702 183.284C242.702 186.48 241.744 189.052 239.853 190.932C237.963 192.812 235.022 193.765 231.115 193.765L231.124 193.774Z" fill="#044860"/>
<path d="M255.565 169.775H251.448V197.568H255.565V169.775Z" fill="#044860"/>
<path d="M274.218 169.7H271.033L258.556 197.568H262.799L265.874 190.662H279.267L282.384 197.568H286.703L274.285 169.843L274.218 169.7ZM277.688 187.062H267.446L272.546 175.493L277.688 187.062Z" fill="#044860"/>
<path d="M309.649 190.257L292.904 169.775H289.677V197.568H293.677V177.171L310.456 197.568H313.648V169.775H309.649V190.257Z" fill="#044860"/>
</svg>
