<svg width="645" height="240" viewBox="0 0 645 240" fill="none" xmlns="http://www.w3.org/2000/svg">
<rect width="645" height="240" fill="#083045"/>
<path d="M99.3162 155C80.3982 155 65 139.522 65 120.496C65 101.469 80.3982 86 99.3162 86C118.234 86 133.606 101.478 133.606 120.496C133.606 139.513 118.225 154.991 99.3162 154.991V155ZM99.3162 89.3029C82.2061 89.3029 68.284 103.296 68.284 120.496C68.284 137.695 82.2061 151.697 99.3162 151.697C116.426 151.697 130.331 137.704 130.331 120.496C130.331 103.287 116.417 89.3029 99.3162 89.3029Z" fill="white"/>
<path d="M110.024 138.222L99.7267 132.881C99.5956 132.811 99.4559 132.776 99.3074 132.776C99.1677 132.776 99.0192 132.811 98.8882 132.881L88.5907 138.222C88.154 138.451 87.9706 138.978 88.1802 139.426C88.3811 139.874 88.9051 140.084 89.3593 139.9L98.9668 136.149C99.0716 136.105 99.1851 136.079 99.2987 136.079C99.4122 136.079 99.5258 136.105 99.6306 136.149L109.238 139.9C109.692 140.084 110.216 139.874 110.417 139.426C110.618 138.978 110.435 138.451 110.007 138.222H110.024Z" fill="#F9AA19"/>
<path d="M123.824 119.573L108.714 118.879C107.823 118.835 107.509 117.667 108.26 117.184L121.003 108.971C121.413 108.707 121.544 108.163 121.3 107.741C121.055 107.311 120.522 107.152 120.086 107.381L106.644 114.382C105.849 114.795 105.002 113.943 105.413 113.143L112.374 99.6155C112.601 99.1763 112.443 98.6405 112.024 98.3945H112.007C111.579 98.1398 111.037 98.2715 110.775 98.6844L102.618 111.509C102.137 112.265 100.976 111.949 100.932 111.053L100.224 95.8383C100.198 95.3464 99.7965 94.9599 99.3074 94.9599C98.8183 94.9599 98.4165 95.3464 98.3903 95.8383L97.6916 111.053C97.6479 111.949 96.4863 112.265 96.0059 111.509L87.8483 98.6844C87.5863 98.2715 87.0448 98.1398 86.6168 98.3857H86.6081C86.1888 98.6405 86.0316 99.1763 86.2587 99.6155L93.2198 113.134C93.6303 113.934 92.7831 114.786 91.9883 114.373L78.5465 107.372C78.1098 107.144 77.5771 107.302 77.3325 107.723C77.088 108.154 77.219 108.707 77.6295 108.971L90.3725 117.184C91.1236 117.667 90.8092 118.835 89.9183 118.879L74.7996 119.573C74.3105 119.6 73.9262 120.004 73.9262 120.496C73.9262 120.996 74.3105 121.4 74.7996 121.418L89.9183 122.121C90.8092 122.165 91.1236 123.333 90.3725 123.816L77.6295 132.02C77.219 132.284 77.088 132.829 77.3325 133.259C77.5771 133.698 78.1098 133.856 78.5465 133.628L98.8969 123.034C99.1589 122.894 99.4734 122.894 99.7354 123.034L120.086 133.628C120.522 133.856 121.055 133.698 121.3 133.268C121.544 132.837 121.405 132.293 120.994 132.029L108.251 123.825C107.5 123.342 107.814 122.173 108.705 122.129L123.815 121.427C124.304 121.4 124.689 120.996 124.689 120.504C124.689 120.004 124.304 119.6 123.815 119.582" fill="#F9AA19"/>
<path d="M387.436 106.599C388.737 105.097 389.401 103.287 389.401 101.232C389.401 95.3991 385.636 92.4476 378.204 92.4476H367.129V121.4H371.304V110.262H378.282L386.684 121.4H391.803L382.684 109.436C384.632 108.962 386.23 108.004 387.444 106.599H387.436ZM371.295 96.4005H378.073C382.824 96.4005 385.139 97.9817 385.139 101.232C385.139 102.787 384.545 103.99 383.322 104.912C382.09 105.835 380.405 106.309 378.317 106.309H371.295V96.4005Z" fill="#F9AA19"/>
<path d="M398.685 108.637H414.24V104.763H398.685V96.4005H415.376V92.4476H394.51V121.4H415.734V117.439H398.685V108.637Z" fill="#F9AA19"/>
<path d="M442.251 113.987C440.05 116.464 437.202 117.72 433.787 117.72C430.582 117.72 427.962 116.727 426.005 114.768C424.04 112.809 423.044 110.165 423.044 106.924C423.044 103.683 423.97 101.065 425.804 99.0885C427.63 97.1208 430.171 96.1194 433.342 96.1194C436.512 96.1194 439.316 97.2701 441.569 99.5365L441.744 99.7122L444.46 97.0681L444.329 96.8924C443.281 95.487 441.779 94.3187 439.849 93.4227C437.927 92.5267 435.709 92.0787 433.255 92.0787C428.922 92.0787 425.376 93.5105 422.712 96.3215C420.049 99.1324 418.704 102.699 418.704 106.915C418.704 111.404 420.057 115.041 422.739 117.72C425.411 120.399 429.053 121.752 433.543 121.752C435.857 121.752 438.05 121.286 440.05 120.364C442.058 119.441 443.639 118.194 444.74 116.648L444.853 116.481L442.434 113.767L442.251 113.978V113.987Z" fill="#F9AA19"/>
<path d="M460.094 121.761C464.156 121.761 467.641 120.329 470.453 117.5C473.265 114.672 474.689 111.114 474.689 106.915C474.689 102.716 473.265 99.0885 470.453 96.2951C467.641 93.4929 464.156 92.0787 460.094 92.0787C456.033 92.0787 452.504 93.5193 449.692 96.3566C446.88 99.1939 445.456 102.751 445.456 106.915C445.456 111.079 446.88 114.742 449.692 117.535C452.504 120.337 455.998 121.752 460.094 121.752V121.761ZM460.094 96.1194C462.898 96.1194 465.326 97.1472 467.335 99.1763C469.335 101.205 470.357 103.814 470.357 106.924C470.357 110.034 469.37 112.643 467.413 114.672C465.466 116.701 463.003 117.72 460.094 117.72C457.186 117.72 454.819 116.683 452.819 114.645C450.819 112.607 449.797 110.007 449.797 106.915C449.797 103.823 450.81 101.197 452.793 99.1675C454.784 97.1384 457.238 96.1106 460.086 96.1106L460.094 96.1194Z" fill="#F9AA19"/>
<path d="M490.76 121.4L503.922 92.4476H499.529L489.336 115.348L478.471 92.4476H473.955L487.773 121.4H490.76Z" fill="#F9AA19"/>
<path d="M527.338 117.439H510.28V108.637H525.836V104.763H510.28V96.4005H526.971V92.4476H506.105V121.4H527.338V117.439Z" fill="#F9AA19"/>
<path d="M536.02 110.262H542.998L551.4 121.4H556.518L547.4 109.436C549.348 108.962 550.946 108.004 552.16 106.599C553.462 105.097 554.125 103.287 554.125 101.232C554.125 95.3991 550.361 92.4476 542.928 92.4476H531.853V121.4H536.028V110.262H536.02ZM536.02 96.4005H542.797C547.549 96.4005 549.863 97.9817 549.863 101.232C549.863 102.787 549.269 103.99 548.046 104.912C546.815 105.835 545.129 106.309 543.042 106.309H536.02V96.4005Z" fill="#F9AA19"/>
<path d="M565.218 121.4H569.392V110.446L581 92.4476H576.118L567.41 106.01L558.894 92.5618L558.815 92.4476H553.732L565.218 110.446V121.4Z" fill="#F9AA19"/>
<path d="M277.718 137.897H156.935V140.532H277.718V137.897Z" fill="#F9AA19"/>
<path d="M570.109 137.897H449.351V140.532H570.109V137.897Z" fill="#F9AA19"/>
<path d="M160.21 110.218H168.01V115.418C166.114 116.947 163.739 117.729 160.944 117.729C157.738 117.729 155.101 116.745 153.092 114.812C151.092 112.88 150.079 110.227 150.079 106.924C150.079 103.621 151.057 101.065 152.996 99.0973C154.935 97.1208 157.511 96.1282 160.656 96.1282C164.071 96.1282 166.734 97.1647 168.595 99.2115L168.778 99.4135L171.416 96.664L171.276 96.4884C168.944 93.5632 165.293 92.0875 160.411 92.0875C156.262 92.0875 152.742 93.5369 149.948 96.3917C147.153 99.2466 145.738 102.795 145.738 106.933C145.738 111.369 147.17 114.997 150 117.702C152.821 120.408 156.481 121.778 160.856 121.778C162.953 121.778 165.031 121.383 167.031 120.601C169.04 119.819 170.691 118.739 171.949 117.386L172.019 117.316V106.362H160.201V110.236L160.21 110.218Z" fill="white"/>
<path d="M195.967 108.549C195.967 111.404 195.304 113.67 194.002 115.304C192.71 116.912 190.806 117.729 188.334 117.729C185.862 117.729 183.923 116.903 182.351 115.269C180.779 113.635 179.975 111.307 179.975 108.356V92.4476H175.8V108.874C175.8 112.941 177.014 116.13 179.399 118.361C181.783 120.592 184.788 121.717 188.334 121.717C191.565 121.717 194.36 120.645 196.666 118.546C198.972 116.429 200.142 113.257 200.142 109.111V92.4476H195.967V108.549Z" fill="white"/>
<path d="M213.383 92.3686L200.762 121.4H205.068L208.178 114.206H221.707L224.86 121.4H229.244L216.623 92.3686H213.383ZM209.767 110.446L214.92 98.4121L220.117 110.446H209.767Z" fill="white"/>
<path d="M251.961 106.599C253.263 105.097 253.927 103.287 253.927 101.232C253.927 95.3991 250.162 92.4476 242.73 92.4476H231.646V121.4H235.821V110.262H242.799L251.202 121.4H256.32L247.201 109.436C249.149 108.962 250.747 108.004 251.961 106.599ZM235.821 96.4005H242.599C247.35 96.4005 249.664 97.9817 249.664 101.232C249.664 102.787 249.07 103.99 247.848 104.912C246.616 105.835 244.939 106.309 242.843 106.309H235.821V96.4005Z" fill="white"/>
<path d="M280.321 96.6728C279.116 95.3464 277.439 94.3011 275.351 93.5544C273.273 92.8166 270.801 92.4388 268.015 92.4388H259.036V121.392H267.613C272.941 121.392 277.02 119.995 279.753 117.237C282.487 114.478 283.867 110.868 283.867 106.511C283.867 104.57 283.579 102.76 283.002 101.126C282.426 99.4926 281.526 97.9905 280.321 96.6728ZM276.688 114.487C274.784 116.446 271.805 117.439 267.857 117.439H263.22V96.4005H267.936C271.997 96.4005 274.984 97.3141 276.81 99.1148C278.635 100.916 279.561 103.402 279.561 106.511C279.561 109.84 278.592 112.52 276.679 114.487H276.688Z" fill="white"/>
<path d="M291.981 92.4476H287.806V121.4H291.981V92.4476Z" fill="white"/>
<path d="M310.305 92.5179L310.244 92.3686H307.004L294.383 121.4H298.689L301.798 114.206H315.327L318.48 121.4H322.865L310.305 92.5179ZM303.379 110.446L308.532 98.4121L313.729 110.446H303.379Z" fill="white"/>
<path d="M329.31 100.16L346.281 121.4H349.512V92.4476H345.46V113.758L328.533 92.4476H325.258V121.4H329.31V100.16Z" fill="white"/>
<path d="M293.754 131.01H290.793V148.227H293.754V131.01Z" fill="white"/>
<path d="M307.126 139.004L301.012 131.01H298.401V148.227H301.353V136.272L306.689 143.133H307.449L312.654 136.298V148.227H315.615V131.01H313.021L307.126 139.004Z" fill="white"/>
<path d="M328.987 139.004L322.873 131.01H320.262V148.227H323.223V136.272L328.551 143.133H329.31L334.516 136.298V148.227H337.477V131.01H334.883L328.987 139.004Z" fill="white"/>
<path d="M345.084 140.849H354.202V138.143H345.084V133.812H354.84V131.01H342.123V148.227H355.085V145.425H345.084V140.849Z" fill="white"/>
<path d="M371.566 139.496C372.247 138.591 372.596 137.555 372.596 136.369C372.596 135.631 372.492 134.963 372.282 134.348C372.072 133.742 371.723 133.18 371.243 132.662C370.762 132.143 370.064 131.739 369.155 131.441C368.247 131.142 367.146 131.002 365.854 131.002H359.128V148.219H362.089V141.894H365.705L370.378 148.219H373.976L368.841 141.332C369.985 141.007 370.893 140.392 371.583 139.487L371.566 139.496ZM365.915 139.101H362.072V133.812H365.766C367.138 133.812 368.098 134.032 368.666 134.48C369.225 134.919 369.513 135.552 369.513 136.377C369.513 137.203 369.199 137.897 368.561 138.38C367.924 138.863 367.042 139.109 365.924 139.109L365.915 139.101Z" fill="white"/>
<path d="M387.296 139.285C386.51 138.969 385.663 138.67 384.754 138.398C383.837 138.126 382.99 137.906 382.213 137.73C381.427 137.555 380.78 137.3 380.256 136.94C379.732 136.58 379.47 136.14 379.47 135.596C379.47 134.919 379.811 134.419 380.501 134.085C381.191 133.751 382.029 133.584 383.042 133.584C384.999 133.584 386.693 134.181 388.126 135.376L389.741 133.259C388.143 131.616 385.933 130.799 383.112 130.799C381.173 130.799 379.566 131.274 378.308 132.214C377.042 133.154 376.413 134.304 376.413 135.666C376.413 136.518 376.605 137.256 376.998 137.871C377.391 138.486 377.898 138.969 378.518 139.311C379.138 139.654 379.819 139.944 380.571 140.181C381.322 140.418 382.073 140.62 382.824 140.796C383.575 140.972 384.256 141.156 384.877 141.358C385.497 141.56 386.003 141.85 386.396 142.21C386.789 142.57 386.981 143.01 386.981 143.537C386.981 144.195 386.693 144.705 386.125 145.074C385.558 145.443 384.754 145.627 383.732 145.627C381.252 145.627 379.243 144.81 377.688 143.168L375.924 145.258C376.675 146.163 377.741 146.91 379.13 147.507C380.518 148.104 381.959 148.403 383.462 148.403C385.304 148.403 386.859 147.929 388.134 146.98C389.409 146.031 390.038 144.81 390.038 143.317C390.038 142.333 389.776 141.49 389.252 140.796C388.728 140.102 388.082 139.592 387.296 139.267V139.285Z" fill="white"/>
<path d="M396.659 131.01H393.698V148.227H396.659V131.01Z" fill="white"/>
<path d="M409.157 130.817C406.694 130.817 404.624 131.669 402.93 133.364C401.244 135.06 400.397 137.15 400.397 139.628C400.397 142.105 401.244 144.248 402.939 145.926C404.633 147.595 406.703 148.438 409.148 148.438C411.594 148.438 413.664 147.595 415.358 145.917C417.053 144.239 417.9 142.14 417.9 139.636C417.9 137.133 417.053 135.016 415.367 133.338C413.681 131.669 411.603 130.826 409.14 130.826L409.157 130.817ZM413.201 143.914C412.118 145.021 410.764 145.575 409.157 145.575C407.55 145.575 406.258 145.021 405.148 143.906C404.039 142.79 403.489 141.367 403.489 139.628C403.489 137.888 404.039 136.439 405.148 135.332C406.258 134.225 407.594 133.672 409.157 133.672C410.721 133.672 412.039 134.225 413.157 135.341C414.275 136.457 414.834 137.88 414.834 139.619C414.834 141.358 414.293 142.808 413.21 143.914H413.201Z" fill="white"/>
<path d="M433.394 131.01V142.79L423.953 131.01H421.647V148.227H424.538V136.492L433.979 148.227H436.277V131.01H433.394Z" fill="white"/>
</svg>
