<svg width="645" height="300" viewBox="0 0 645 300" fill="none" xmlns="http://www.w3.org/2000/svg">
<rect width="645" height="300" fill="#083045"/>
<path d="M205.102 217.611H118.939V220.128H205.102V217.611Z" fill="#F9AA19"/>
<path d="M524.598 217.611H438.015V220.128H524.598V217.611Z" fill="#F9AA19"/>
<path d="M321.193 145.048C299.356 145.048 281.595 127.319 281.595 105.52C281.595 83.7211 299.365 66 321.193 66C343.022 66 360.767 83.7295 360.767 105.528C360.767 127.327 343.013 145.057 321.193 145.057V145.048ZM321.193 69.1549C301.096 69.1549 284.754 85.4747 284.754 105.528C284.754 125.582 301.104 141.902 321.193 141.902C341.283 141.902 357.608 125.582 357.608 105.528C357.608 85.4747 341.274 69.1549 321.193 69.1549Z" fill="white"/>
<path d="M333.654 126.002L321.681 119.826C321.529 119.751 321.361 119.709 321.193 119.709C321.025 119.709 320.857 119.751 320.706 119.826L308.733 126.002C308.229 126.262 308.019 126.874 308.254 127.394C308.49 127.915 309.094 128.158 309.624 127.94L320.807 123.61C320.933 123.56 321.067 123.535 321.202 123.535C321.336 123.535 321.471 123.56 321.597 123.61L332.78 127.94C333.309 128.158 333.914 127.915 334.149 127.394C334.385 126.874 334.175 126.262 333.67 126.002H333.654Z" fill="#F9AA19"/>
<path d="M349.71 104.454L332.133 103.657C331.091 103.607 330.73 102.256 331.604 101.702L346.433 92.2124C346.912 91.9104 347.063 91.281 346.786 90.786C346.5 90.2909 345.879 90.1064 345.374 90.3665L329.73 98.4467C328.806 98.9249 327.814 97.9349 328.293 97.0119L336.393 81.3885C336.653 80.8851 336.477 80.2641 335.981 79.9788H335.964C335.468 79.6851 334.838 79.8362 334.536 80.3145L325.042 95.1324C324.479 96.005 323.126 95.6442 323.084 94.6121L322.269 77.0337C322.244 76.4632 321.773 76.0185 321.202 76.0185H321.193C320.622 76.0185 320.152 76.4632 320.126 77.0337L319.32 94.6038C319.269 95.6442 317.917 96.005 317.362 95.124L307.868 80.3061C307.557 79.8278 306.927 79.6768 306.439 79.9621H306.423C305.935 80.2557 305.75 80.8767 306.011 81.3801L314.119 97.0035C314.598 97.9265 313.606 98.9165 312.682 98.4383L297.046 90.3497C296.542 90.0896 295.92 90.2658 295.634 90.7608C295.349 91.2643 295.5 91.8936 295.979 92.204L310.808 101.694C311.682 102.256 311.321 103.607 310.279 103.649L292.694 104.446C292.122 104.471 291.677 104.941 291.677 105.512C291.677 106.091 292.122 106.552 292.694 106.586L310.279 107.391C311.321 107.441 311.682 108.792 310.8 109.346L295.97 118.828C295.492 119.138 295.34 119.767 295.626 120.254V120.271C295.92 120.757 296.542 120.942 297.046 120.682L320.723 108.44C321.034 108.281 321.395 108.281 321.706 108.44L345.383 120.682C345.887 120.942 346.517 120.757 346.794 120.262C347.072 119.767 346.92 119.138 346.442 118.836L331.612 109.355C330.738 108.792 331.099 107.441 332.141 107.4L349.718 106.594C350.29 106.569 350.735 106.099 350.735 105.528C350.735 104.949 350.29 104.488 349.718 104.454H349.71Z" fill="#F9AA19"/>
<path d="M349.794 182.79C351.046 181.355 351.676 179.626 351.676 177.663C351.676 172.091 348.055 169.272 340.905 169.272H330.242V196.928H334.259V186.289H340.972L349.055 196.928H353.978L345.206 185.508C347.08 185.055 348.618 184.14 349.786 182.798L349.794 182.79ZM334.267 173.048H340.787C345.358 173.048 347.584 174.558 347.584 177.663C347.584 179.148 347.013 180.298 345.837 181.179C344.652 182.06 343.039 182.513 341.022 182.513H334.267V173.048Z" fill="#F9AA19"/>
<path d="M360.616 184.736H375.588V181.028H360.616V173.048H376.672V169.272H356.6V196.92H377.025V193.144H360.616V184.736Z" fill="#F9AA19"/>
<path d="M402.525 189.846C400.408 192.212 397.669 193.412 394.384 193.412C391.3 193.412 388.779 192.464 386.897 190.593C385.007 188.722 384.049 186.196 384.049 183.1C384.049 180.004 384.94 177.504 386.704 175.616C388.46 173.736 390.897 172.78 393.955 172.78C397.013 172.78 399.702 173.879 401.87 176.052L402.038 176.22L404.651 173.694L404.525 173.526C403.525 172.184 402.071 171.068 400.215 170.212C398.366 169.356 396.232 168.928 393.871 168.928C389.704 168.928 386.292 170.296 383.73 172.981C381.167 175.666 379.873 179.073 379.873 183.1C379.873 187.388 381.176 190.861 383.755 193.421C386.326 195.98 389.83 197.272 394.148 197.272C396.375 197.272 398.484 196.827 400.408 195.946C402.34 195.065 403.861 193.874 404.92 192.397L405.029 192.237L402.702 189.645L402.525 189.846Z" fill="#F9AA19"/>
<path d="M419.691 168.92C415.758 168.92 412.389 170.296 409.684 173.006C406.978 175.716 405.609 179.115 405.609 183.092C405.609 187.069 406.978 190.568 409.684 193.236C412.389 195.913 415.75 197.263 419.691 197.263C423.631 197.263 426.95 195.896 429.655 193.194C432.361 190.492 433.73 187.094 433.73 183.083C433.73 179.073 432.361 175.607 429.655 172.939C426.95 170.271 423.597 168.911 419.691 168.911V168.92ZM419.691 193.412C416.968 193.412 414.616 192.422 412.692 190.475C410.768 188.529 409.785 186.045 409.785 183.092C409.785 180.138 410.759 177.629 412.666 175.691C414.582 173.753 416.943 172.771 419.691 172.771C422.438 172.771 424.723 173.753 426.656 175.691C428.58 177.629 429.563 180.121 429.563 183.092C429.563 186.062 428.613 188.554 426.731 190.492C424.858 192.43 422.488 193.412 419.691 193.412Z" fill="#F9AA19"/>
<path d="M447.829 191.138L437.377 169.272H433.033L446.258 196.785L446.325 196.92H449.19L461.852 169.272H457.626L447.829 191.138Z" fill="#F9AA19"/>
<path d="M467.977 184.736H482.941V181.028H467.977V173.048H484.025V169.272H463.952V196.92H484.378V193.144H467.977V184.736Z" fill="#F9AA19"/>
<path d="M508.265 182.79C509.517 181.355 510.155 179.626 510.155 177.663C510.155 172.091 506.534 169.272 499.384 169.272H488.73V196.928H492.746V186.289H499.46L507.542 196.928H512.466L503.694 185.508C505.568 185.055 507.105 184.14 508.273 182.798L508.265 182.79ZM492.729 173.048H499.249C503.82 173.048 506.047 174.558 506.047 177.663C506.047 179.148 505.475 180.298 504.299 181.179C503.114 182.06 501.493 182.513 499.485 182.513H492.729V173.048Z" fill="#F9AA19"/>
<path d="M531.312 169.272L522.926 182.227L514.659 169.272H509.777L520.818 186.465V196.92H524.842V186.465L536 169.272H531.312Z" fill="#F9AA19"/>
<path d="M228.771 218.19L222.89 210.554H220.369V227H223.217V215.58L228.351 222.142H229.073L234.089 215.606V227H236.938V210.554H234.442L228.771 218.19Z" fill="white"/>
<path d="M244.247 219.952H253.028V217.368H244.247V213.231H253.641V210.554H241.408V227H253.876V224.323H244.247V219.952Z" fill="white"/>
<path d="M269.05 221.806L259.968 210.554H257.758V227H260.531V215.798L269.613 227H271.823V210.554H269.05V221.806Z" fill="white"/>
<path d="M288.577 210.554H274.671V213.231H280.2V227H283.048V213.231H288.577V210.554Z" fill="white"/>
<path d="M294.71 210.554L287.484 227H290.425L292.005 223.358H299.508L301.104 227H304.095L296.869 210.554H294.702H294.71ZM293.047 220.917L295.752 214.666L298.457 220.917H293.047Z" fill="white"/>
<path d="M309.75 210.554H306.902V227H319.084V224.323H309.75V210.554Z" fill="white"/>
<path d="M339.527 217.342H330.898V210.554H328.049V227H330.898V220.027H339.527V227H342.375V210.554H339.527V217.342Z" fill="white"/>
<path d="M349.693 219.952H358.465V217.368H349.693V213.231H359.078V210.554H346.845V227H359.313V224.323H349.693V219.952Z" fill="white"/>
<path d="M368.749 210.554L361.523 227H364.464L366.043 223.358H373.547L375.143 227H378.134L370.908 210.554H368.741H368.749ZM367.077 220.917L369.782 214.666L372.488 220.917H367.077Z" fill="white"/>
<path d="M383.78 210.554H380.932V227H393.123V224.323H383.78V210.554Z" fill="white"/>
<path d="M391.871 213.231H397.4V227H400.248V213.231H405.777V210.554H391.871V213.231Z" fill="white"/>
<path d="M420.102 210.554V217.342H411.473V210.554H408.625V227H411.473V220.027H420.102V227H422.951V210.554H420.102Z" fill="white"/>
<path d="M122.309 186.247H130.022V191.205C128.148 192.665 125.796 193.412 123.031 193.412C119.864 193.412 117.251 192.472 115.268 190.627C113.293 188.781 112.285 186.247 112.285 183.1C112.285 179.954 113.26 177.512 115.167 175.624C117.083 173.736 119.628 172.78 122.746 172.78C126.123 172.78 128.761 173.77 130.601 175.733L130.77 175.918L133.374 173.3L133.231 173.132C130.929 170.346 127.316 168.928 122.502 168.928C118.41 168.928 114.932 170.313 112.167 173.031C109.403 175.758 108 179.148 108 183.1C108 187.346 109.42 190.803 112.209 193.387C114.999 195.963 118.612 197.272 122.939 197.272C125.006 197.272 127.056 196.894 129.039 196.148C131.022 195.401 132.66 194.369 133.903 193.085L133.971 193.018V182.546H122.309V186.247Z" fill="white"/>
<path d="M158.261 184.652C158.261 187.379 157.606 189.544 156.32 191.096C155.043 192.632 153.153 193.421 150.716 193.421C148.279 193.421 146.355 192.632 144.793 191.063C143.238 189.502 142.448 187.279 142.448 184.459V169.272H138.331V184.963C138.331 188.848 139.524 191.893 141.885 194.033C144.238 196.164 147.212 197.238 150.716 197.238C153.9 197.238 156.673 196.223 158.942 194.209C161.219 192.187 162.378 189.158 162.378 185.198V169.272H158.261V184.652Z" fill="white"/>
<path d="M179.266 169.188H176.082L163.605 196.92H167.848L170.923 190.048H184.316L187.433 196.92H191.752L179.333 169.331L179.266 169.188ZM182.736 186.465H172.494L177.594 174.953L182.736 186.465Z" fill="white"/>
<path d="M214.807 182.79C216.092 181.355 216.748 179.626 216.748 177.663C216.748 172.091 213.026 169.272 205.682 169.272H194.734V196.928H198.851V186.289H205.766L214.076 196.928H219.125L210.11 185.508C212.034 185.055 213.614 184.14 214.815 182.798L214.807 182.79ZM198.843 173.048H205.556C210.261 173.048 212.547 174.558 212.547 177.663C212.547 179.148 211.958 180.298 210.749 181.179C209.53 182.06 207.867 182.513 205.8 182.513H198.851V173.056L198.843 173.048Z" fill="white"/>
<path d="M242.87 192.951C245.567 190.316 246.936 186.867 246.936 182.706C246.936 180.851 246.65 179.114 246.079 177.562C245.516 176.002 244.626 174.567 243.432 173.308C242.239 172.041 240.584 171.043 238.517 170.338C236.467 169.633 234.022 169.272 231.266 169.272H222.394V196.928H230.863C236.123 196.928 240.156 195.594 242.853 192.959L242.87 192.951ZM231.124 193.144H226.528V173.048H231.199C235.215 173.048 238.173 173.921 239.979 175.641C241.786 177.361 242.702 179.735 242.702 182.706C242.702 185.886 241.744 188.445 239.853 190.316C237.963 192.187 235.022 193.135 231.115 193.135L231.124 193.144Z" fill="white"/>
<path d="M255.565 169.272H251.448V196.928H255.565V169.272Z" fill="white"/>
<path d="M265.866 190.048H279.259L282.376 196.92H286.695L274.276 169.331L274.209 169.188H271.025L258.548 196.92H262.791L265.866 190.048ZM267.437 186.465L272.537 174.953L277.679 186.465H267.437Z" fill="white"/>
<path d="M293.677 176.622L310.456 196.92H313.648V169.272H309.649V189.645L292.904 169.272H289.677V196.92H293.677V176.622Z" fill="white"/>
</svg>
