<svg width="645" height="300" viewBox="0 0 645 300" fill="none" xmlns="http://www.w3.org/2000/svg">
<rect width="645" height="300" fill="white"/>
<path d="M194.045 227.798H192.021L184.19 211.27H187.273L193.062 223.666L198.473 211.27H201.481L194.045 227.798Z" fill="#044860"/>
<path d="M204.162 211.27H207.01V227.798H204.162V211.27Z" fill="#044860"/>
<path d="M211.471 227.798V211.27H217.941C219.176 211.27 220.235 211.413 221.117 211.691C221.991 211.978 222.663 212.366 223.125 212.863C223.587 213.361 223.923 213.901 224.125 214.482C224.326 215.064 224.427 215.714 224.427 216.422C224.427 217.552 224.1 218.555 223.436 219.424C222.78 220.293 221.898 220.883 220.798 221.195L225.738 227.806H222.276L217.781 221.735H214.303V227.806H211.454L211.471 227.798ZM214.32 213.96V219.036H218.016C219.1 219.036 219.949 218.8 220.554 218.336C221.167 217.872 221.47 217.231 221.47 216.414C221.47 215.596 221.201 215.022 220.655 214.592C220.117 214.17 219.184 213.951 217.865 213.951H214.311L214.32 213.96Z" fill="#044860"/>
<path d="M225.99 211.27H239.895V213.96H234.367V227.798H231.519V213.96H225.99V211.27Z" fill="#044860"/>
<path d="M256.666 220.765C256.666 222.004 256.473 223.109 256.086 224.062C255.7 225.015 255.179 225.765 254.507 226.313C253.843 226.862 253.112 227.275 252.33 227.553C251.549 227.831 250.709 227.966 249.81 227.966C247.751 227.966 246.037 227.325 244.643 226.044C243.256 224.762 242.559 222.957 242.559 220.621V211.27H245.407V220.267C245.407 221.777 245.819 222.991 246.634 223.919C247.449 224.846 248.507 225.302 249.81 225.302C251.112 225.302 252.12 224.855 252.801 223.952C253.473 223.058 253.809 221.861 253.809 220.36V211.27H256.657V220.765H256.666Z" fill="#044860"/>
<path d="M266.547 211.27H268.714L275.94 227.798H272.949L271.353 224.138H263.85L262.27 227.798H259.329L266.555 211.27H266.547ZM264.875 221.684H270.286L267.58 215.402L264.875 221.684Z" fill="#044860"/>
<path d="M278.73 211.27H281.578V225.108H290.921V227.798H278.738V211.27H278.73Z" fill="#044860"/>
<path d="M314.161 224.914C313.489 225.875 312.556 226.625 311.372 227.165C310.187 227.705 308.893 227.983 307.481 227.983C304.894 227.983 302.835 227.216 301.306 225.681C299.777 224.146 299.012 222.097 299.012 219.534C299.012 217.122 299.785 215.115 301.34 213.504C302.894 211.894 304.919 211.084 307.431 211.084C308.876 211.084 310.17 211.345 311.313 211.877C312.455 212.4 313.321 213.091 313.901 213.943L312.019 215.739C310.876 214.466 309.389 213.825 307.574 213.825C305.877 213.825 304.524 214.348 303.507 215.385C302.491 216.422 301.978 217.805 301.978 219.542C301.978 221.279 302.507 222.637 303.566 223.682C304.625 224.728 306.003 225.251 307.691 225.251C309.683 225.251 311.279 224.526 312.489 223.075L314.161 224.914Z" fill="#044860"/>
<path d="M318.295 213.521C319.916 211.894 321.916 211.076 324.286 211.076C326.655 211.076 328.646 211.877 330.276 213.487C331.898 215.09 332.713 217.105 332.713 219.534C332.713 221.962 331.898 223.952 330.268 225.563C328.638 227.174 326.646 227.983 324.294 227.983C321.941 227.983 319.95 227.182 318.32 225.571C316.69 223.961 315.875 221.954 315.875 219.525C315.875 217.097 316.69 215.149 318.312 213.513L318.295 213.521ZM320.421 223.64C321.488 224.711 322.773 225.243 324.277 225.243C325.781 225.243 327.125 224.711 328.167 223.649C329.209 222.586 329.73 221.212 329.73 219.525C329.73 217.839 329.192 216.489 328.117 215.418C327.041 214.348 325.764 213.816 324.269 213.816C322.773 213.816 321.479 214.348 320.412 215.41C319.345 216.473 318.816 217.847 318.816 219.534C318.816 221.22 319.345 222.569 320.412 223.64H320.421Z" fill="#044860"/>
<path d="M350.231 220.765C350.231 222.004 350.038 223.109 349.651 224.062C349.265 225.015 348.744 225.765 348.072 226.313C347.408 226.862 346.677 227.275 345.896 227.553C345.114 227.831 344.274 227.966 343.375 227.966C341.316 227.966 339.602 227.325 338.208 226.044C336.821 224.762 336.124 222.957 336.124 220.621V211.27H338.972V220.267C338.972 221.777 339.384 222.991 340.199 223.919C341.014 224.846 342.073 225.302 343.375 225.302C344.677 225.302 345.686 224.855 346.366 223.952C347.038 223.058 347.374 221.861 347.374 220.36V211.27H350.223V220.765H350.231Z" fill="#044860"/>
<path d="M366.413 227.798L357.331 216.532V227.798H354.558V211.27H356.768L365.85 222.578V211.27H368.623V227.798H366.413Z" fill="#044860"/>
<path d="M382.083 222.038C381.705 221.692 381.218 221.423 380.621 221.22C380.025 221.018 379.369 220.841 378.647 220.68C377.924 220.512 377.202 220.318 376.479 220.09C375.756 219.862 375.101 219.584 374.505 219.255C373.908 218.926 373.421 218.463 373.043 217.872C372.664 217.282 372.48 216.574 372.48 215.756C372.48 214.449 373.085 213.344 374.303 212.442C375.521 211.539 377.059 211.084 378.924 211.084C381.638 211.084 383.764 211.868 385.301 213.445L383.747 215.477C382.369 214.331 380.739 213.757 378.857 213.757C377.882 213.757 377.067 213.917 376.412 214.238C375.756 214.558 375.42 215.047 375.42 215.688C375.42 216.211 375.672 216.633 376.176 216.979C376.681 217.324 377.302 217.569 378.059 217.737C378.815 217.906 379.63 218.117 380.504 218.378C381.377 218.64 382.201 218.918 382.949 219.23C383.705 219.534 384.326 220.023 384.831 220.697C385.335 221.363 385.587 222.173 385.587 223.117C385.587 224.551 384.973 225.723 383.755 226.634C382.528 227.545 381.033 228 379.26 228C377.815 228 376.429 227.713 375.093 227.14C373.757 226.566 372.732 225.841 372.009 224.981L373.706 222.974C375.193 224.551 377.134 225.335 379.52 225.335C380.512 225.335 381.277 225.158 381.823 224.804C382.369 224.45 382.646 223.961 382.646 223.328C382.646 222.822 382.461 222.401 382.083 222.055V222.038Z" fill="#044860"/>
<path d="M389.116 211.27H401.349V213.96H391.964V218.117H400.736V220.714H391.964V225.108H401.584V227.798H389.116V211.27Z" fill="#044860"/>
<path d="M405.466 211.27H408.314V225.108H417.657V227.798H405.474V211.27H405.466Z" fill="#044860"/>
<path d="M420.707 211.27H423.556V227.798H420.707V211.27Z" fill="#044860"/>
<path d="M439.881 227.798L430.798 216.532V227.798H428.026V211.27H430.235L439.318 222.578V211.27H442.091V227.798H439.881Z" fill="#044860"/>
<path d="M460.962 218.969V225.369C460.205 226.204 459.256 226.845 458.105 227.309C456.954 227.772 455.744 227.992 454.467 227.992C451.896 227.992 449.787 227.216 448.148 225.664C446.51 224.113 445.687 222.072 445.687 219.534C445.687 217.139 446.485 215.132 448.09 213.513C449.686 211.894 451.711 211.084 454.156 211.084C455.551 211.084 456.819 211.32 457.954 211.792C459.088 212.265 459.962 212.914 460.575 213.749L458.668 215.57C457.634 214.407 456.172 213.825 454.29 213.825C452.585 213.825 451.215 214.339 450.182 215.368C449.148 216.397 448.644 217.788 448.644 219.534C448.644 221.279 449.182 222.713 450.266 223.725C451.35 224.737 452.761 225.251 454.5 225.251C455.988 225.251 457.231 224.863 458.214 224.096V221.566H453.837V218.969H460.962Z" fill="#044860"/>
<path d="M169.78 218.176H119.956V220.706H169.78V218.176Z" fill="#F9AA19"/>
<path d="M525.926 218.176H475.371V220.706H525.926V218.176Z" fill="#F9AA19"/>
<path d="M322.202 145.444C300.365 145.444 282.603 127.626 282.603 105.718C282.603 83.8098 300.365 66 322.202 66C344.039 66 361.775 83.8182 361.775 105.726C361.775 127.634 344.022 145.453 322.202 145.453V145.444ZM322.202 69.1707C302.104 69.1707 285.762 85.5722 285.762 105.726C285.762 125.88 302.113 142.282 322.202 142.282C342.291 142.282 358.616 125.88 358.616 105.726C358.616 85.5722 342.274 69.1707 322.202 69.1707Z" fill="#044860"/>
<path d="M334.654 126.302L322.681 120.096C322.529 120.02 322.361 119.978 322.193 119.978C322.025 119.978 321.857 120.02 321.706 120.096L309.733 126.302C309.229 126.563 309.019 127.179 309.254 127.702C309.49 128.225 310.094 128.469 310.624 128.25L321.807 123.899C321.933 123.848 322.067 123.823 322.202 123.823C322.336 123.823 322.471 123.848 322.597 123.899L333.78 128.25C334.309 128.469 334.914 128.225 335.149 127.702C335.385 127.179 335.175 126.563 334.67 126.302H334.654Z" fill="#F9AA19"/>
<path d="M350.71 104.647L333.133 103.846C332.091 103.795 331.73 102.438 332.604 101.881L347.433 92.3437C347.912 92.0401 348.063 91.4076 347.786 90.9101C347.5 90.4126 346.879 90.2271 346.374 90.4885L330.73 98.6091C329.806 99.0898 328.814 98.0947 329.293 97.1671L337.393 81.4655C337.653 80.9596 337.477 80.3355 336.981 80.0488H336.964C336.468 79.7537 335.838 79.9055 335.536 80.3861L326.042 95.2782C325.479 96.1552 324.126 95.7926 324.084 94.7554L323.269 77.089C323.244 76.5155 322.773 76.0686 322.202 76.0686H322.193C321.622 76.0686 321.152 76.5155 321.126 77.089L320.32 94.747C320.269 95.7926 318.917 96.1552 318.362 95.2698L308.868 80.3777C308.557 79.897 307.927 79.7453 307.439 80.032H307.423C306.935 80.3271 306.75 80.9511 307.011 81.4571L315.119 97.1587C315.598 98.0863 314.606 99.0814 313.682 98.6007L298.046 90.4716C297.542 90.2102 296.92 90.3873 296.634 90.8848C296.349 91.3908 296.5 92.0232 296.979 92.3352L311.808 101.873C312.682 102.438 312.321 103.795 311.279 103.837L293.694 104.638C293.122 104.664 292.677 105.136 292.677 105.709C292.677 106.291 293.122 106.755 293.694 106.789L311.279 107.598C312.321 107.649 312.682 109.007 311.8 109.563L296.97 119.092C296.492 119.404 296.34 120.037 296.626 120.526V120.543C296.92 121.032 297.542 121.217 298.046 120.956L321.723 108.652C322.034 108.492 322.395 108.492 322.706 108.652L346.383 120.956C346.887 121.217 347.517 121.032 347.794 120.534C348.072 120.037 347.92 119.404 347.442 119.101L332.612 109.572C331.738 109.007 332.099 107.649 333.141 107.607L350.718 106.797C351.29 106.772 351.735 106.3 351.735 105.726C351.735 105.144 351.29 104.681 350.718 104.647H350.71Z" fill="#F9AA19"/>
<path d="M350.794 183.374C352.046 181.932 352.676 180.195 352.676 178.222C352.676 172.623 349.055 169.789 341.905 169.789H331.242V197.583H335.259V186.891H341.972L350.055 197.583H354.978L346.206 186.106C348.08 185.651 349.618 184.732 350.786 183.383L350.794 183.374ZM335.267 173.584H341.787C346.358 173.584 348.584 175.102 348.584 178.222C348.584 179.715 348.013 180.87 346.837 181.755C345.652 182.641 344.039 183.096 342.022 183.096H335.267V173.584Z" fill="#F9AA19"/>
<path d="M361.624 185.331H376.588V181.603H361.624V173.584H377.672V169.789H357.6V197.575H378.025V193.78H361.624V185.331Z" fill="#F9AA19"/>
<path d="M403.534 190.466C401.416 192.844 398.677 194.05 395.392 194.05C392.308 194.05 389.788 193.097 387.906 191.217C386.015 189.336 385.057 186.798 385.057 183.686C385.057 180.575 385.948 178.062 387.713 176.164C389.469 174.275 391.905 173.314 394.963 173.314C398.022 173.314 400.71 174.419 402.878 176.603L403.046 176.772L405.659 174.233L405.533 174.065C404.525 172.715 403.08 171.594 401.223 170.734C399.375 169.874 397.24 169.444 394.879 169.444C390.712 169.444 387.301 170.818 384.738 173.517C382.176 176.215 380.882 179.639 380.882 183.686C380.882 187.995 382.184 191.487 384.763 194.059C387.334 196.63 390.838 197.929 395.157 197.929C397.383 197.929 399.492 197.482 401.416 196.597C403.349 195.711 404.869 194.514 405.928 193.03L406.037 192.87L403.71 190.264L403.534 190.466Z" fill="#F9AA19"/>
<path d="M420.691 169.435C416.758 169.435 413.389 170.818 410.684 173.542C407.978 176.266 406.609 179.681 406.609 183.678C406.609 187.675 407.978 191.191 410.684 193.873C413.389 196.563 416.75 197.921 420.691 197.921C424.631 197.921 427.95 196.546 430.655 193.831C433.361 191.116 434.73 187.7 434.73 183.669C434.73 179.639 433.361 176.156 430.655 173.474C427.95 170.784 424.597 169.427 420.691 169.427V169.435ZM420.691 194.05C417.968 194.05 415.616 193.055 413.692 191.099C411.768 189.142 410.785 186.646 410.785 183.678C410.785 180.71 411.759 178.188 413.666 176.24C415.582 174.292 417.943 173.306 420.691 173.306C423.438 173.306 425.723 174.292 427.656 176.24C429.58 178.188 430.563 180.693 430.563 183.678C430.563 186.663 429.613 189.168 427.731 191.116C425.858 193.063 423.488 194.05 420.691 194.05Z" fill="#F9AA19"/>
<path d="M448.829 191.765L438.377 169.789H434.033L447.258 197.44L447.325 197.575H450.19L462.852 169.789H458.626L448.829 191.765Z" fill="#F9AA19"/>
<path d="M468.977 185.331H483.941V181.603H468.977V173.584H485.025V169.789H464.952V197.575H485.378V193.78H468.977V185.331Z" fill="#F9AA19"/>
<path d="M509.265 183.374C510.517 181.932 511.155 180.195 511.155 178.222C511.155 172.623 507.534 169.789 500.384 169.789H489.73V197.583H493.746V186.891H500.46L508.542 197.583H513.466L504.694 186.106C506.568 185.651 508.105 184.732 509.273 183.383L509.265 183.374ZM493.729 173.584H500.249C504.82 173.584 507.047 175.102 507.047 178.222C507.047 179.715 506.475 180.87 505.299 181.755C504.114 182.641 502.493 183.096 500.485 183.096H493.729V173.584Z" fill="#F9AA19"/>
<path d="M532.312 169.789L523.926 182.809L515.667 169.789H510.777L521.818 187.068V197.575H525.842V187.068L537 169.789H532.312Z" fill="#F9AA19"/>
<path d="M131.022 186.849V191.832C129.148 193.3 126.796 194.05 124.031 194.05C120.864 194.05 118.251 193.106 116.268 191.25C114.293 189.395 113.285 186.849 113.285 183.686C113.285 180.524 114.26 178.07 116.167 176.173C118.083 174.275 120.628 173.314 123.746 173.314C127.123 173.314 129.761 174.309 131.601 176.282L131.77 176.468L134.374 173.837L134.231 173.668C131.929 170.869 128.316 169.444 123.502 169.444C119.41 169.444 115.932 170.835 113.167 173.567C110.403 176.308 109 179.715 109 183.686C109 187.953 110.42 191.428 113.209 194.025C115.999 196.614 119.612 197.929 123.939 197.929C126.006 197.929 128.064 197.55 130.039 196.799C132.022 196.049 133.66 195.011 134.903 193.721L134.971 193.654V183.13H123.3V186.849H131.022Z" fill="#044860"/>
<path d="M159.261 185.246C159.261 187.987 158.606 190.163 157.32 191.723C156.043 193.266 154.153 194.059 151.716 194.059C149.279 194.059 147.355 193.266 145.793 191.689C144.238 190.12 143.448 187.886 143.448 185.052V169.789H139.331V185.558C139.331 189.463 140.524 192.524 142.885 194.674C145.238 196.816 148.212 197.895 151.716 197.895C154.909 197.895 157.673 196.875 159.942 194.851C162.219 192.827 163.378 189.775 163.378 185.794V169.789H159.261V185.246Z" fill="#044860"/>
<path d="M180.266 169.705H177.082L164.605 197.575H168.848L171.923 190.669H185.316L188.433 197.575H192.752L180.333 169.848L180.266 169.705ZM183.736 187.068H173.494L178.594 175.498L183.736 187.068Z" fill="#044860"/>
<path d="M215.807 183.374C217.092 181.932 217.748 180.195 217.748 178.222C217.748 172.623 214.026 169.789 206.682 169.789H195.734V197.583H199.851V186.891H206.766L215.076 197.583H220.125L211.11 186.106C213.034 185.651 214.614 184.732 215.815 183.383L215.807 183.374ZM199.843 173.584H206.556C211.261 173.584 213.547 175.102 213.547 178.222C213.547 179.715 212.958 180.87 211.749 181.755C210.53 182.641 208.867 183.096 206.8 183.096H199.851V173.592L199.843 173.584Z" fill="#044860"/>
<path d="M244.441 173.845C243.248 172.572 241.593 171.569 239.526 170.86C237.476 170.152 235.031 169.789 232.275 169.789H223.402V197.583H231.871C237.131 197.583 241.164 196.243 243.861 193.595C246.558 190.947 247.928 187.481 247.928 183.298C247.928 181.435 247.642 179.689 247.071 178.129C246.508 176.561 245.617 175.119 244.424 173.854L244.441 173.845ZM232.124 193.78H227.528V173.584H232.199C236.215 173.584 239.173 174.461 240.979 176.19C242.786 177.918 243.702 180.305 243.702 183.29C243.702 186.486 242.744 189.058 240.853 190.938C238.963 192.819 236.022 193.772 232.115 193.772L232.124 193.78Z" fill="#044860"/>
<path d="M256.565 169.789H252.448V197.583H256.565V169.789Z" fill="#044860"/>
<path d="M275.218 169.705H272.033L259.556 197.575H263.799L266.874 190.669H280.267L283.384 197.575H287.703L275.285 169.848L275.218 169.705ZM278.688 187.068H268.446L273.546 175.498L278.688 187.068Z" fill="#044860"/>
<path d="M310.649 169.789V190.264L293.904 169.789H290.677V197.575H294.677V177.176L311.456 197.575H314.648V169.789H310.649Z" fill="#044860"/>
</svg>
