<svg width="645" height="240" viewBox="0 0 645 240" fill="none" xmlns="http://www.w3.org/2000/svg">
<rect width="645" height="240" fill="white"/>
<path d="M98.3161 154C79.3981 154 64 138.522 64 119.496C64 100.469 79.3981 85 98.3161 85C117.234 85 132.615 100.478 132.615 119.496C132.615 138.513 117.234 153.991 98.3161 153.991V154ZM98.3161 88.3029C81.2061 88.3029 67.284 102.296 67.284 119.496C67.284 136.695 81.2061 150.697 98.3161 150.697C115.426 150.697 129.331 136.704 129.331 119.496C129.331 102.287 115.417 88.3029 98.3161 88.3029Z" fill="#044860"/>
<path d="M109.024 137.222L98.7267 131.881C98.5957 131.811 98.4559 131.776 98.3074 131.776C98.1677 131.776 98.0192 131.811 97.8882 131.881L87.5907 137.222C87.154 137.45 86.9706 137.978 87.1802 138.426C87.3811 138.874 87.9052 139.084 88.3593 138.9L97.9668 135.149C98.0716 135.105 98.1851 135.079 98.2987 135.079C98.4122 135.079 98.5257 135.105 98.6306 135.149L108.238 138.9C108.692 139.084 109.216 138.874 109.417 138.426C109.618 137.978 109.435 137.45 109.007 137.222H109.024Z" fill="#F9AA19"/>
<path d="M122.824 118.573L107.714 117.879C106.823 117.835 106.509 116.667 107.26 116.184L120.003 107.971C120.413 107.707 120.544 107.163 120.3 106.741C120.055 106.31 119.522 106.152 119.086 106.381L105.644 113.382C104.849 113.795 104.002 112.943 104.413 112.143L111.374 98.6155C111.601 98.1763 111.443 97.6405 111.024 97.3945H111.007C110.579 97.1398 110.037 97.2715 109.775 97.6844L101.618 110.509C101.137 111.265 99.9756 110.949 99.932 110.053L99.2245 94.8383C99.1983 94.3464 98.7965 93.9599 98.3074 93.9599C97.8183 93.9599 97.4165 94.3464 97.3903 94.8383L96.6916 110.053C96.6479 110.949 95.4863 111.265 95.0059 110.509L86.8483 97.6844C86.5863 97.2715 86.0448 97.1398 85.6168 97.3857H85.6081C85.1888 97.6405 85.0316 98.1763 85.2587 98.6155L92.2198 112.134C92.6303 112.934 91.783 113.786 90.9882 113.373L77.5466 106.372C77.1098 106.144 76.5771 106.302 76.3325 106.723C76.0879 107.154 76.2189 107.707 76.6294 107.971L89.3725 116.184C90.1236 116.667 89.8091 117.835 88.9183 117.879L73.7996 118.573C73.3105 118.6 72.9262 119.004 72.9262 119.496C72.9262 119.996 73.3105 120.4 73.7996 120.418L88.9183 121.121C89.8091 121.165 90.1236 122.333 89.3725 122.816L76.6294 131.02C76.2189 131.284 76.0879 131.829 76.3325 132.259C76.5771 132.698 77.1098 132.856 77.5466 132.628L97.8969 122.034C98.1589 121.894 98.4734 121.894 98.7354 122.034L119.086 132.628C119.522 132.856 120.055 132.698 120.3 132.268C120.544 131.837 120.405 131.293 119.994 131.029L107.251 122.825C106.5 122.342 106.814 121.173 107.705 121.129L122.815 120.427C123.304 120.4 123.689 119.996 123.689 119.504C123.689 119.004 123.304 118.6 122.815 118.582L122.824 118.573Z" fill="#F9AA19"/>
<path d="M386.436 105.599C387.737 104.097 388.401 102.287 388.401 100.232C388.401 94.3991 384.636 91.4476 377.204 91.4476H366.129V120.4H370.304V109.262H377.282L385.684 120.4H390.803L381.684 108.436C383.632 107.962 385.23 107.004 386.444 105.599H386.436ZM370.295 95.4005H377.073C381.824 95.4005 384.139 96.9817 384.139 100.232C384.139 101.787 383.545 102.99 382.322 103.912C381.09 104.835 379.413 105.309 377.317 105.309H370.295V95.4005Z" fill="#F9AA19"/>
<path d="M397.685 107.637H413.249V103.763H397.685V95.4005H414.376V91.4476H393.51V120.4H414.743V116.439H397.685V107.637Z" fill="#F9AA19"/>
<path d="M441.251 112.986C439.05 115.464 436.202 116.72 432.787 116.72C429.582 116.72 426.962 115.727 425.005 113.768C423.04 111.809 422.044 109.165 422.044 105.924C422.044 102.683 422.97 100.065 424.804 98.0885C426.63 96.1208 429.171 95.1194 432.342 95.1194C435.512 95.1194 438.316 96.2701 440.569 98.5452L440.744 98.7209L443.46 96.0769L443.329 95.9012C442.281 94.4957 440.779 93.3274 438.849 92.4315C436.927 91.5355 434.709 91.0874 432.255 91.0874C427.922 91.0874 424.376 92.5193 421.712 95.3302C419.049 98.1412 417.704 101.708 417.704 105.924C417.704 110.413 419.057 114.049 421.739 116.729C424.411 119.408 428.053 120.761 432.543 120.761C434.857 120.761 437.05 120.295 439.05 119.373C441.059 118.45 442.639 117.203 443.74 115.657L443.853 115.49L441.434 112.776L441.251 112.986Z" fill="#F9AA19"/>
<path d="M459.094 91.0787C455.007 91.0787 451.504 92.5193 448.692 95.3566C445.88 98.1939 444.456 101.751 444.456 105.915C444.456 110.079 445.88 113.742 448.692 116.535C451.504 119.337 454.998 120.752 459.094 120.752C463.191 120.752 466.641 119.32 469.453 116.491C472.265 113.663 473.689 110.105 473.689 105.906C473.689 101.708 472.265 98.0797 469.453 95.2863C466.641 92.4842 463.156 91.0699 459.094 91.0699V91.0787ZM459.094 116.72C456.265 116.72 453.819 115.683 451.819 113.645C449.819 111.607 448.797 109.007 448.797 105.915C448.797 102.823 449.81 100.197 451.793 98.1675C453.784 96.1384 456.238 95.1106 459.086 95.1106C461.933 95.1106 464.317 96.1384 466.326 98.1675C468.326 100.197 469.348 102.806 469.348 105.915C469.348 109.025 468.361 111.634 466.405 113.663C464.457 115.692 461.994 116.72 459.086 116.72H459.094Z" fill="#F9AA19"/>
<path d="M488.345 114.348L477.471 91.4476H472.964L486.711 120.251L486.781 120.4H489.76L502.922 91.4476H498.529L488.345 114.348Z" fill="#F9AA19"/>
<path d="M509.289 107.637H524.844V103.763H509.289V95.4005H525.971V91.4476H505.105V120.4H526.338V116.439H509.289V107.637Z" fill="#F9AA19"/>
<path d="M551.16 105.599C552.462 104.097 553.125 102.287 553.125 100.232C553.125 94.3991 549.361 91.4476 541.928 91.4476H530.853V120.4H535.028V109.262H542.007L550.409 120.4H555.527L546.409 108.436C548.357 107.962 549.955 107.004 551.169 105.599H551.16ZM535.02 95.4005H541.797C546.549 95.4005 548.863 96.9817 548.863 100.232C548.863 101.787 548.269 102.99 547.046 103.912C545.815 104.835 544.138 105.309 542.042 105.309H535.02V95.4005Z" fill="#F9AA19"/>
<path d="M575.126 91.4476L566.41 105.01L557.816 91.4476H552.741L564.218 109.446V120.4H568.401V109.446L580 91.4476H575.126Z" fill="#F9AA19"/>
<path d="M159.21 109.218H167.01V114.418C165.114 115.947 162.739 116.729 159.944 116.729C156.738 116.729 154.101 115.745 152.092 113.812C150.092 111.88 149.079 109.227 149.079 105.924C149.079 102.621 150.057 100.065 151.996 98.0972C153.935 96.1208 156.511 95.1282 159.655 95.1282C163.071 95.1282 165.743 96.1647 167.595 98.2202L167.778 98.4223L170.416 95.6728L170.276 95.4971C167.944 92.572 164.293 91.0962 159.411 91.0962C155.262 91.0962 151.742 92.5457 148.948 95.4005C146.153 98.2554 144.738 101.804 144.738 105.942C144.738 110.378 146.17 114.005 149 116.711C151.821 119.417 155.481 120.787 159.856 120.787C161.953 120.787 164.031 120.392 166.031 119.61C168.04 118.828 169.691 117.748 170.949 116.395L171.019 116.324V105.371H159.201V109.244L159.21 109.218Z" fill="#044860"/>
<path d="M194.967 107.549C194.967 110.404 194.304 112.67 193.002 114.295C191.71 115.903 189.806 116.72 187.334 116.72C184.862 116.72 182.923 115.894 181.351 114.26C179.779 112.626 178.975 110.299 178.975 107.347V91.4476H174.8V107.874C174.8 111.941 176.014 115.13 178.399 117.361C180.783 119.592 183.788 120.717 187.334 120.717C190.565 120.717 193.36 119.645 195.666 117.545C197.972 115.428 199.142 112.257 199.142 108.111V91.4476H194.967V107.549Z" fill="#044860"/>
<path d="M212.383 91.3686L199.762 120.4H204.068L207.178 113.206H220.715L223.868 120.4H228.253L215.693 91.5179L215.632 91.3686H212.383ZM219.117 109.446H208.767L213.92 97.4121L219.117 109.446Z" fill="#044860"/>
<path d="M250.961 105.599C252.263 104.097 252.918 102.287 252.918 100.232C252.918 94.3991 249.154 91.4476 241.721 91.4476H230.637V120.4H234.812V109.262H241.791L250.193 120.4H255.311L246.193 108.436C248.14 107.962 249.739 107.004 250.953 105.599H250.961ZM234.821 95.4005H241.599C246.35 95.4005 248.664 96.9817 248.664 100.232C248.664 101.787 248.07 102.99 246.848 103.912C245.616 104.835 243.939 105.309 241.843 105.309H234.821V95.4005Z" fill="#044860"/>
<path d="M282.002 100.126C281.426 98.4925 280.526 96.9905 279.321 95.6728C278.116 94.3464 276.439 93.3011 274.351 92.5544C272.273 91.8165 269.801 91.4388 267.015 91.4388H258.036V120.392H266.613C271.941 120.392 276.02 118.995 278.753 116.237C281.478 113.478 282.867 109.868 282.867 105.511C282.867 103.57 282.579 101.751 282.002 100.126ZM266.858 116.439H262.22V95.4005H266.936C270.997 95.4005 273.985 96.3141 275.81 98.1148C277.635 99.9156 278.561 102.401 278.561 105.511C278.561 108.84 277.592 111.52 275.679 113.487C273.766 115.446 270.797 116.439 266.849 116.439H266.858Z" fill="#044860"/>
<path d="M290.981 91.4476H286.806V120.4H290.981V91.4476Z" fill="#044860"/>
<path d="M300.798 113.206H314.336L317.489 120.4H321.873L309.314 91.5179L309.253 91.3686H306.012L293.392 120.4H297.697L300.807 113.206H300.798ZM302.388 109.446L307.541 97.4121L312.738 109.446H302.388Z" fill="#044860"/>
<path d="M348.521 91.4476H344.46V112.758L327.542 91.4476H324.258V120.4H328.319V99.1601L345.281 120.4H348.521V91.4476Z" fill="#044860"/>
<path d="M265.94 137.978L259.827 129.984H257.206V147.201H260.167V135.246L265.495 142.115H266.255L271.46 135.272V147.201H274.421V129.984H271.827L265.94 137.978Z" fill="#044860"/>
<path d="M282.029 139.822H291.147V137.117H282.029V132.786H291.784V129.984H279.068V147.201H292.029V144.399H282.029V139.822Z" fill="#044860"/>
<path d="M307.803 141.764L298.361 129.984H296.064V147.201H298.955V135.474L308.388 147.201H310.694V129.984H307.803V141.764Z" fill="#044860"/>
<path d="M328.101 129.984H313.646V132.786H319.393V147.201H322.354V132.786H328.101V129.984Z" fill="#044860"/>
<path d="M334.485 129.984L326.974 147.201H330.031L331.673 143.389H339.473L341.132 147.201H344.241L336.73 129.984H334.477H334.485ZM332.747 140.832L335.56 134.288L338.372 140.832H332.747Z" fill="#044860"/>
<path d="M350.111 129.984H347.15V147.201H359.823V144.399H350.111V129.984Z" fill="#044860"/>
<path d="M381.073 137.09H372.094V129.984H369.142V147.201H372.094V139.901H381.073V147.201H384.034V129.984H381.073V137.09Z" fill="#044860"/>
<path d="M391.632 139.822H400.759V137.117H391.632V132.786H401.397V129.984H388.68V147.201H401.642V144.399H391.632V139.822Z" fill="#044860"/>
<path d="M411.45 129.984L403.939 147.201H406.996L408.638 143.389H416.437L418.097 147.201H421.206L413.695 129.984H411.441H411.45ZM409.712 140.832L412.524 134.288L415.337 140.832H409.712Z" fill="#044860"/>
<path d="M427.075 129.984H424.114V147.201H436.779V144.399H427.075V129.984Z" fill="#044860"/>
<path d="M435.486 132.786H441.233V147.201H444.194V132.786H449.941V129.984H435.486V132.786Z" fill="#044860"/>
<path d="M464.833 129.984V137.09H455.854V129.984H452.893V147.201H455.854V139.901H464.833V147.201H467.793V129.984H464.833Z" fill="#044860"/>
<path d="M243.179 137.143H156.083V139.778H243.179V137.143Z" fill="#F9AA19"/>
<path d="M568.742 137.143H481.969V139.778H568.742V137.143Z" fill="#F9AA19"/>
</svg>
