<svg width="645" height="240" viewBox="0 0 645 240" fill="none" xmlns="http://www.w3.org/2000/svg">
<rect width="645" height="240" fill="#083045"/>
<path d="M99.3162 154C80.3982 154 65 138.522 65 119.496C65 100.469 80.3982 85 99.3162 85C118.234 85 133.615 100.478 133.615 119.496C133.615 138.513 118.234 153.991 99.3162 153.991V154ZM99.3162 88.3029C82.2061 88.3029 68.284 102.296 68.284 119.496C68.284 136.695 82.2061 150.697 99.3162 150.697C116.426 150.697 130.331 136.704 130.331 119.496C130.331 102.287 116.417 88.3029 99.3162 88.3029Z" fill="white"/>
<path d="M110.024 137.222L99.7267 131.881C99.5956 131.811 99.4559 131.776 99.3074 131.776C99.1677 131.776 99.0192 131.811 98.8882 131.881L88.5907 137.222C88.154 137.451 87.9706 137.978 88.1802 138.426C88.3811 138.874 88.9051 139.084 89.3593 138.9L98.9668 135.149C99.0716 135.105 99.1851 135.079 99.2987 135.079C99.4122 135.079 99.5258 135.105 99.6306 135.149L109.238 138.9C109.692 139.084 110.216 138.874 110.417 138.426C110.618 137.978 110.435 137.451 110.007 137.222H110.024Z" fill="#F9AA19"/>
<path d="M123.824 118.573L108.714 117.879C107.823 117.835 107.509 116.667 108.26 116.184L121.003 107.971C121.413 107.707 121.544 107.163 121.3 106.741C121.055 106.311 120.522 106.152 120.086 106.381L106.644 113.382C105.849 113.795 105.002 112.943 105.413 112.143L112.374 98.6155C112.601 98.1763 112.443 97.6405 112.024 97.3945H112.007C111.579 97.1398 111.037 97.2715 110.775 97.6844L102.618 110.509C102.137 111.265 100.976 110.949 100.932 110.053L100.224 94.8383C100.198 94.3464 99.7965 93.9599 99.3074 93.9599C98.8183 93.9599 98.4165 94.3464 98.3903 94.8383L97.6916 110.053C97.6479 110.949 96.4863 111.265 96.0059 110.509L87.8483 97.6844C87.5863 97.2715 87.0448 97.1398 86.6168 97.3857H86.6081C86.1888 97.6405 86.0316 98.1763 86.2587 98.6155L93.2198 112.134C93.6303 112.934 92.7831 113.786 91.9883 113.373L78.5465 106.372C78.1098 106.144 77.5771 106.302 77.3325 106.723C77.088 107.154 77.219 107.707 77.6295 107.971L90.3725 116.184C91.1236 116.667 90.8092 117.835 89.9183 117.879L74.7996 118.573C74.3105 118.6 73.9262 119.004 73.9262 119.496C73.9262 119.996 74.3105 120.4 74.7996 120.418L89.9183 121.121C90.8092 121.165 91.1236 122.333 90.3725 122.816L77.6295 131.02C77.219 131.284 77.088 131.829 77.3325 132.259C77.5771 132.698 78.1098 132.856 78.5465 132.628L98.8969 122.034C99.1589 121.894 99.4734 121.894 99.7354 122.034L120.086 132.628C120.522 132.856 121.055 132.698 121.3 132.268C121.544 131.837 121.405 131.293 120.994 131.029L108.251 122.825C107.5 122.342 107.814 121.173 108.705 121.129L123.815 120.427C124.304 120.4 124.689 119.996 124.689 119.504C124.689 119.004 124.304 118.6 123.815 118.582L123.824 118.573Z" fill="#F9AA19"/>
<path d="M160.21 109.227H168.01V114.427C166.114 115.956 163.739 116.737 160.944 116.737C157.738 116.737 155.101 115.754 153.092 113.821C151.092 111.888 150.079 109.236 150.079 105.933C150.079 102.63 151.057 100.074 152.996 98.106C154.935 96.1296 157.511 95.137 160.656 95.137C164.071 95.137 166.743 96.1735 168.595 98.229L168.778 98.4311L171.416 95.6816L171.276 95.5059C168.944 92.5808 165.293 91.105 160.411 91.105C156.262 91.105 152.742 92.5544 149.948 95.4093C147.153 98.2642 145.738 101.813 145.738 105.95C145.738 110.386 147.17 114.014 150 116.72C152.821 119.425 156.481 120.796 160.856 120.796C162.953 120.796 165.031 120.4 167.031 119.619C169.04 118.837 170.691 117.756 171.949 116.404L172.019 116.333V105.379H160.201V109.253L160.21 109.227Z" fill="white"/>
<path d="M195.967 107.549C195.967 110.404 195.304 112.67 194.002 114.295C192.71 115.903 190.806 116.72 188.334 116.72C185.862 116.72 183.923 115.894 182.351 114.26C180.779 112.626 179.975 110.299 179.975 107.347V91.4476H175.8V107.874C175.8 111.941 177.014 115.13 179.399 117.361C181.783 119.592 184.788 120.717 188.334 120.717C191.565 120.717 194.36 119.645 196.666 117.546C198.972 115.429 200.142 112.257 200.142 108.111V91.4476H195.967V107.549Z" fill="white"/>
<path d="M213.383 91.3686L200.762 120.4H205.068L208.178 113.206H221.707L224.86 120.4H229.244L216.623 91.3686H213.383ZM220.117 109.446H209.767L214.92 97.4121L220.117 109.446Z" fill="white"/>
<path d="M251.961 105.599C253.263 104.097 253.918 102.287 253.918 100.232C253.918 94.3991 250.154 91.4476 242.721 91.4476H231.637V120.4H235.812V109.262H242.791L251.193 120.4H256.311L247.193 108.436C249.14 107.962 250.739 107.004 251.953 105.599H251.961ZM235.821 95.4005H242.599C247.35 95.4005 249.664 96.9817 249.664 100.232C249.664 101.787 249.07 102.99 247.848 103.912C246.616 104.835 244.939 105.309 242.843 105.309H235.821V95.4005Z" fill="white"/>
<path d="M280.321 95.6728C279.116 94.3464 277.439 93.3011 275.351 92.5544C273.273 91.8166 270.801 91.4388 268.015 91.4388H259.036V120.392H267.613C272.941 120.392 277.02 118.995 279.753 116.237C282.478 113.478 283.867 109.868 283.867 105.511C283.867 103.57 283.579 101.751 283.002 100.126C282.426 98.4926 281.526 96.9905 280.321 95.6728ZM267.857 116.439H263.22V95.4005H267.936C271.997 95.4005 274.984 96.3141 276.81 98.1148C278.635 99.9156 279.561 102.402 279.561 105.511C279.561 108.84 278.592 111.52 276.679 113.487C274.766 115.446 271.797 116.439 267.849 116.439H267.857Z" fill="white"/>
<path d="M291.981 91.4476H287.806V120.4H291.981V91.4476Z" fill="white"/>
<path d="M307.004 91.3686L294.383 120.4H298.689L301.798 113.206H315.336L318.489 120.4H322.873L310.314 91.5179L310.253 91.3686H307.004ZM313.738 109.446H303.388L308.541 97.4121L313.738 109.446Z" fill="white"/>
<path d="M345.46 91.4476V112.767L328.542 91.4476H325.258V120.4H329.319V99.1602L346.281 120.4H349.521V91.4476H345.46Z" fill="white"/>
<path d="M387.436 105.599C388.737 104.097 389.401 102.287 389.401 100.232C389.401 94.3991 385.636 91.4476 378.204 91.4476H367.129V120.4H371.304V109.262H378.282L386.684 120.4H391.803L382.684 108.436C384.632 107.962 386.23 107.004 387.444 105.599H387.436ZM371.295 95.4005H378.073C382.824 95.4005 385.139 96.9817 385.139 100.232C385.139 101.787 384.545 102.99 383.322 103.912C382.09 104.835 380.413 105.309 378.317 105.309H371.295V95.4005Z" fill="#F9AA19"/>
<path d="M398.685 107.637H414.249V103.763H398.685V95.4005H415.376V91.4476H394.51V120.4H415.743V116.439H398.685V107.637Z" fill="#F9AA19"/>
<path d="M442.251 112.987C440.05 115.464 437.202 116.72 433.787 116.72C430.582 116.72 427.962 115.727 426.005 113.768C424.04 111.809 423.044 109.165 423.044 105.924C423.044 102.683 423.97 100.065 425.804 98.0885C427.63 96.1208 430.171 95.1194 433.342 95.1194C436.512 95.1194 439.316 96.2701 441.569 98.5453L441.744 98.7209L444.46 96.0769L444.329 95.9012C443.281 94.4957 441.779 93.3274 439.849 92.4314C437.927 91.5355 435.709 91.0875 433.255 91.0875C428.922 91.0875 425.376 92.5193 422.712 95.3302C420.049 98.1412 418.704 101.708 418.704 105.924C418.704 110.413 420.057 114.049 422.739 116.729C425.411 119.408 429.053 120.761 433.543 120.761C435.857 120.761 438.05 120.295 440.05 119.373C442.058 118.45 443.639 117.203 444.74 115.657L444.853 115.49L442.434 112.776L442.251 112.987Z" fill="#F9AA19"/>
<path d="M460.094 91.0787C456.007 91.0787 452.504 92.5193 449.692 95.3566C446.88 98.1939 445.456 101.751 445.456 105.915C445.456 110.079 446.88 113.742 449.692 116.535C452.504 119.337 455.998 120.752 460.094 120.752C464.191 120.752 467.641 119.32 470.453 116.491C473.265 113.663 474.689 110.105 474.689 105.906C474.689 101.708 473.265 98.0797 470.453 95.2863C467.641 92.4842 464.156 91.0699 460.094 91.0699V91.0787ZM460.094 116.729C457.264 116.729 454.819 115.692 452.819 113.654C450.819 111.616 449.797 109.016 449.797 105.924C449.797 102.832 450.81 100.205 452.793 98.1763C454.784 96.1472 457.238 95.1194 460.086 95.1194C462.933 95.1194 465.317 96.1472 467.326 98.1763C469.326 100.205 470.348 102.814 470.348 105.924C470.348 109.034 469.361 111.643 467.405 113.672C465.457 115.701 462.994 116.729 460.086 116.729H460.094Z" fill="#F9AA19"/>
<path d="M489.345 114.348L478.471 91.4476H473.964L487.711 120.26L487.781 120.4H490.76L503.922 91.4476H499.529L489.345 114.348Z" fill="#F9AA19"/>
<path d="M510.289 107.637H525.844V103.763H510.289V95.4005H526.971V91.4476H506.105V120.4H527.338V116.439H510.289V107.637Z" fill="#F9AA19"/>
<path d="M552.16 105.599C553.462 104.097 554.125 102.287 554.125 100.232C554.125 94.3991 550.361 91.4476 542.928 91.4476H531.853V120.4H536.028V109.262H543.007L551.409 120.4H556.527L547.409 108.436C549.357 107.962 550.955 107.004 552.169 105.599H552.16ZM536.02 95.4005H542.797C547.549 95.4005 549.863 96.9817 549.863 100.232C549.863 101.787 549.269 102.99 548.046 103.912C546.815 104.835 545.138 105.309 543.042 105.309H536.02V95.4005Z" fill="#F9AA19"/>
<path d="M576.126 91.4476L567.41 105.01L558.815 91.4476H553.741L565.218 109.446V120.4H569.401V109.455L581 91.4476H576.126Z" fill="#F9AA19"/>
<path d="M229.768 147.201H227.663L219.523 129.984H222.729L228.746 142.897L234.371 129.984H237.498L229.768 147.201Z" fill="white"/>
<path d="M240.284 129.984H243.245V147.201H240.284V129.984Z" fill="white"/>
<path d="M247.891 147.201V129.984H254.617C255.901 129.984 257.001 130.133 257.918 130.423C258.826 130.722 259.525 131.126 260.006 131.644C260.486 132.162 260.835 132.725 261.045 133.331C261.255 133.937 261.359 134.613 261.359 135.351C261.359 136.528 261.019 137.574 260.329 138.478C259.647 139.383 258.73 139.998 257.586 140.323L262.722 147.21H259.123L254.451 140.885H250.835V147.21H247.874L247.891 147.201ZM250.852 132.786V138.074H254.695C255.822 138.074 256.704 137.837 257.333 137.345C257.971 136.862 258.285 136.194 258.285 135.342C258.285 134.49 258.005 133.893 257.438 133.445C256.879 133.006 255.909 132.777 254.538 132.777H250.844L250.852 132.786Z" fill="white"/>
<path d="M262.984 129.984H277.439V132.786H271.692V147.201H268.731V132.786H262.984V129.984Z" fill="white"/>
<path d="M294.872 139.875C294.872 141.166 294.671 142.317 294.269 143.31C293.868 144.302 293.326 145.084 292.627 145.655C291.937 146.226 291.177 146.656 290.365 146.946C289.553 147.236 288.679 147.377 287.745 147.377C285.605 147.377 283.823 146.709 282.373 145.374C280.932 144.039 280.207 142.159 280.207 139.726V129.984H283.168V139.357C283.168 140.929 283.596 142.194 284.443 143.16C285.291 144.127 286.391 144.601 287.745 144.601C289.099 144.601 290.147 144.135 290.854 143.195C291.553 142.264 291.902 141.017 291.902 139.453V129.984H294.863V139.875H294.872Z" fill="white"/>
<path d="M305.143 129.984H307.397L314.908 147.201H311.799L310.139 143.389H302.34L300.698 147.201H297.641L305.152 129.984H305.143ZM303.405 140.832H309.03L306.217 134.288L303.405 140.832Z" fill="white"/>
<path d="M317.808 129.984H320.768V144.399H330.481V147.201H317.816V129.984H317.808Z" fill="white"/>
<path d="M354.639 144.206C353.94 145.207 352.971 145.989 351.739 146.551C350.508 147.113 349.163 147.403 347.696 147.403C345.006 147.403 342.866 146.604 341.276 145.005C339.686 143.406 338.892 141.272 338.892 138.601C338.892 136.089 339.695 133.998 341.311 132.321C342.927 130.643 345.032 129.799 347.643 129.799C349.145 129.799 350.49 130.072 351.678 130.625C352.866 131.17 353.766 131.89 354.368 132.777L352.412 134.648C351.224 133.322 349.678 132.654 347.792 132.654C346.027 132.654 344.621 133.199 343.564 134.279C342.508 135.36 341.975 136.809 341.975 138.61C341.975 140.411 342.525 141.834 343.626 142.923C344.726 144.012 346.158 144.557 347.914 144.557C349.984 144.557 351.643 143.802 352.901 142.291L354.639 144.206Z" fill="white"/>
<path d="M358.928 132.338C360.613 130.643 362.692 129.791 365.155 129.791C367.618 129.791 369.688 130.625 371.382 132.303C373.068 133.972 373.915 136.071 373.915 138.601C373.915 141.131 373.068 143.204 371.374 144.882C369.679 146.56 367.609 147.403 365.164 147.403C362.718 147.403 360.648 146.569 358.954 144.891C357.259 143.222 356.412 141.122 356.412 138.592C356.412 136.063 357.259 134.033 358.945 132.329L358.928 132.338ZM361.146 142.87C362.255 143.986 363.592 144.539 365.155 144.539C366.718 144.539 368.116 143.986 369.199 142.879C370.282 141.772 370.823 140.341 370.823 138.584C370.823 136.827 370.264 135.421 369.146 134.306C368.029 133.19 366.701 132.637 365.146 132.637C363.592 132.637 362.247 133.19 361.137 134.297C360.028 135.404 359.478 136.836 359.478 138.592C359.478 140.349 360.028 141.755 361.137 142.87H361.146Z" fill="white"/>
<path d="M392.126 139.875C392.126 141.166 391.925 142.317 391.523 143.31C391.121 144.302 390.58 145.084 389.881 145.655C389.191 146.226 388.431 146.656 387.619 146.946C386.807 147.236 385.933 147.377 384.999 147.377C382.859 147.377 381.077 146.709 379.627 145.374C378.186 144.039 377.461 142.159 377.461 139.726V129.984H380.422V139.357C380.422 140.929 380.85 142.194 381.697 143.16C382.545 144.127 383.645 144.601 384.999 144.601C386.353 144.601 387.401 144.135 388.108 143.195C388.807 142.264 389.156 141.017 389.156 139.453V129.984H392.117V139.875H392.126Z" fill="white"/>
<path d="M408.956 147.201L399.515 135.465V147.201H396.633V129.984H398.93L408.371 141.764V129.984H411.253V147.201H408.956Z" fill="white"/>
<path d="M425.245 141.201C424.852 140.841 424.346 140.56 423.726 140.349C423.106 140.139 422.424 139.954 421.673 139.787C420.922 139.611 420.171 139.409 419.42 139.172C418.669 138.935 417.987 138.645 417.367 138.303C416.747 137.96 416.241 137.477 415.848 136.862C415.455 136.247 415.262 135.509 415.262 134.657C415.262 133.296 415.891 132.145 417.158 131.205C418.424 130.265 420.022 129.791 421.961 129.791C424.782 129.791 426.992 130.608 428.591 132.25L426.975 134.367C425.542 133.173 423.848 132.575 421.891 132.575C420.878 132.575 420.031 132.742 419.35 133.076C418.669 133.41 418.319 133.919 418.319 134.587C418.319 135.132 418.581 135.571 419.105 135.931C419.629 136.291 420.276 136.546 421.062 136.721C421.848 136.897 422.695 137.117 423.603 137.389C424.512 137.661 425.368 137.951 426.145 138.276C426.931 138.592 427.577 139.102 428.101 139.805C428.625 140.499 428.887 141.342 428.887 142.326C428.887 143.819 428.25 145.04 426.983 145.989C425.708 146.937 424.154 147.412 422.311 147.412C420.808 147.412 419.367 147.113 417.979 146.516C416.59 145.919 415.524 145.163 414.773 144.267L416.538 142.176C418.083 143.819 420.101 144.636 422.581 144.636C423.612 144.636 424.407 144.452 424.975 144.083C425.542 143.714 425.831 143.204 425.831 142.545C425.831 142.018 425.638 141.579 425.245 141.219V141.201Z" fill="white"/>
<path d="M432.556 129.984H445.273V132.786H435.517V137.117H444.635V139.822H435.517V144.399H445.517V147.201H432.556V129.984Z" fill="white"/>
<path d="M449.552 129.984H452.513V144.399H462.225V147.201H449.561V129.984H449.552Z" fill="white"/>
<path d="M465.396 129.984H468.357V147.201H465.396V129.984Z" fill="white"/>
<path d="M485.327 147.201L475.886 135.465V147.201H473.003V129.984H475.3L484.742 141.764V129.984H487.624V147.201H485.327Z" fill="white"/>
<path d="M507.241 138.004V144.671C506.455 145.541 505.468 146.208 504.271 146.692C503.075 147.166 501.817 147.403 500.489 147.403C497.817 147.403 495.624 146.595 493.921 144.979C492.218 143.362 491.362 141.237 491.362 138.592C491.362 136.098 492.192 134.007 493.86 132.321C495.52 130.634 497.625 129.791 500.166 129.791C501.616 129.791 502.935 130.037 504.114 130.529C505.293 131.02 506.201 131.697 506.839 132.567L504.856 134.464C503.782 133.252 502.262 132.646 500.306 132.646C498.533 132.646 497.109 133.181 496.035 134.253C494.961 135.325 494.437 136.774 494.437 138.592C494.437 140.411 494.996 141.904 496.122 142.958C497.249 144.012 498.716 144.548 500.524 144.548C502.07 144.548 503.363 144.144 504.385 143.345V140.709H499.834V138.004H507.241Z" fill="white"/>
<path d="M204.544 137.284H157.083V139.919H204.544V137.284Z" fill="#F9AA19"/>
<path d="M569.742 137.284H522.22V139.919H569.742V137.284Z" fill="#F9AA19"/>
</svg>
