<svg width="359" height="47" viewBox="0 0 359 47" fill="none" xmlns="http://www.w3.org/2000/svg">
<path d="M23.8093 47C10.6836 47 0 36.4572 0 23.497C0 10.5369 10.6836 0 23.8093 0C36.935 0 47.6064 10.5428 47.6064 23.497C47.6064 36.4512 36.935 46.994 23.8093 46.994V47ZM23.8093 2.24978C11.938 2.24978 2.27851 11.7814 2.27851 23.497C2.27851 35.2126 11.938 44.7502 23.8093 44.7502C35.6806 44.7502 45.3279 35.2186 45.3279 23.497C45.3279 11.7754 35.6745 2.24978 23.8093 2.24978Z" fill="white"/>
<path d="M31.2387 35.5716L24.0941 31.9337C24.0032 31.8858 23.9062 31.8619 23.8032 31.8619C23.7062 31.8619 23.6032 31.8858 23.5123 31.9337L16.3677 35.5716C16.0647 35.7272 15.9375 36.0862 16.0829 36.3913C16.2223 36.6965 16.5859 36.8401 16.901 36.7144L23.5669 34.1595C23.6396 34.1296 23.7184 34.1116 23.7971 34.1116C23.8759 34.1116 23.9547 34.1296 24.0274 34.1595L30.6933 36.7144C31.0084 36.8401 31.372 36.6965 31.5114 36.3913C31.6507 36.0862 31.5235 35.7272 31.2266 35.5716H31.2387Z" fill="#F8A51C"/>
<path d="M40.8133 22.8687L30.3297 22.3961C29.7116 22.3661 29.4934 21.5703 30.0146 21.2412L38.8559 15.6467C39.1408 15.4672 39.2317 15.0962 39.062 14.809C38.8923 14.5158 38.5226 14.4081 38.2197 14.5637L28.8935 19.3325C28.3421 19.6137 27.7542 19.0334 28.0391 18.4889L32.8688 9.27435C33.0263 8.97517 32.9173 8.61018 32.6264 8.44265H32.6143C32.3173 8.26913 31.9416 8.35888 31.7598 8.6401L26.0999 17.3759C25.7666 17.8905 24.9606 17.6751 24.9303 17.0648L24.4395 6.70146C24.4213 6.36639 24.1426 6.10312 23.8032 6.10312C23.4638 6.10312 23.1851 6.36639 23.1669 6.70146L22.6821 17.0648C22.6518 17.6751 21.8459 17.8905 21.5126 17.3759L15.8526 8.6401C15.6708 8.35888 15.2951 8.26913 14.9982 8.43666H14.9921C14.7013 8.61018 14.5922 8.97517 14.7497 9.27435L19.5795 18.4829C19.8643 19.0274 19.2765 19.6078 18.725 19.3265L9.39887 14.5577C9.09588 14.4022 8.72622 14.5099 8.55655 14.7971C8.38687 15.0903 8.47777 15.4672 8.76258 15.6467L17.6039 21.2412C18.1251 21.5703 17.9069 22.3661 17.2888 22.3961L6.79918 22.8687C6.45983 22.8867 6.1932 23.1619 6.1932 23.497C6.1932 23.8381 6.45983 24.1133 6.79918 24.1253L17.2888 24.6039C17.9069 24.6339 18.1251 25.4297 17.6039 25.7588L8.76258 31.3473C8.47777 31.5268 8.38687 31.8978 8.55655 32.191C8.72622 32.4901 9.09588 32.5978 9.39887 32.4423L23.5184 25.2262C23.7002 25.1305 23.9183 25.1305 24.1001 25.2262L38.2197 32.4423C38.5226 32.5978 38.8923 32.4901 39.062 32.1969C39.2317 31.9038 39.1347 31.5328 38.8499 31.3533L30.0085 25.7647C29.4874 25.4356 29.7055 24.6398 30.3236 24.6099L40.8072 24.1313C41.1466 24.1133 41.4132 23.8381 41.4132 23.503C41.4132 23.1619 41.1466 22.8867 40.8072 22.8747" fill="#F8A51C"/>
<path d="M66.0587 25.7468H71.4702V29.289C70.1552 30.3301 68.5069 30.8626 66.5678 30.8626C64.3438 30.8626 62.5137 30.1925 61.1199 28.8761C59.7322 27.5598 59.0293 25.7528 59.0293 23.503C59.0293 21.2532 59.708 19.512 61.0533 18.1717C62.3925 16.8255 64.1862 16.1493 66.3678 16.1493C68.7372 16.1493 70.5855 16.8554 71.8762 18.2555L72.0035 18.3931L73.8336 16.5203L73.7366 16.4006C72.1186 14.4081 69.5856 13.4029 66.1981 13.4029C63.3197 13.4029 60.8775 14.3902 58.9384 16.3348C56.9992 18.2794 56.0175 20.6968 56.0175 23.515C56.0175 26.5366 57.0113 29.0078 58.9747 30.8507C60.9321 32.6936 63.4712 33.627 66.5072 33.627C67.9615 33.627 69.4038 33.3577 70.7915 32.8252C72.1853 32.2927 73.3306 31.5567 74.2032 30.6353L74.2517 30.5874V23.126H66.0527V25.7647L66.0587 25.7468Z" fill="white"/>
<path d="M90.8679 24.6099C90.8679 26.5546 90.4073 28.0983 89.5044 29.2112C88.6075 30.3062 87.2865 30.8626 85.5715 30.8626C83.8566 30.8626 82.5113 30.3002 81.4205 29.1873C80.3297 28.0743 79.7722 26.4887 79.7722 24.4783V13.6482H76.8756V24.8373C76.8756 27.6076 77.7119 29.7796 79.3723 31.2994C81.0266 32.8192 83.1112 33.5851 85.5776 33.5851C87.8198 33.5851 89.7589 32.8551 91.3587 31.4251C92.9585 29.9831 93.7706 27.823 93.7706 24.9989V13.6423H90.8739V24.6099H90.8679Z" fill="white"/>
<path d="M102.951 13.5824L94.2978 33.1184L94.1948 33.3577H97.1823L99.3396 28.4573H108.732L110.92 33.3577H113.962L105.206 13.5824H102.951ZM107.623 25.9024H100.442L104.018 17.705L107.623 25.9024Z" fill="white"/>
<path d="M129.718 23.2816C130.621 22.2584 131.075 21.0258 131.075 19.6257C131.075 15.6527 128.463 13.6423 123.306 13.6423H115.616V33.3637H118.513V25.7767H123.355L129.136 33.2919L129.184 33.3577H132.736L126.409 25.2143C127.76 24.8911 128.869 24.239 129.712 23.2816H129.718ZM118.519 16.3348H123.222C126.518 16.3348 128.124 17.4118 128.124 19.6257C128.124 20.6848 127.712 21.5045 126.864 22.1328C126.009 22.761 124.846 23.0842 123.391 23.0842H118.519V16.3348Z" fill="white"/>
<path d="M149.394 16.5203C148.558 15.6168 147.394 14.9048 145.946 14.3962C144.504 13.8936 142.789 13.6363 140.856 13.6363H134.626V33.3577H140.577C144.274 33.3577 147.104 32.4064 149 30.5276C150.891 28.6488 151.854 26.1896 151.854 23.2218C151.854 21.8994 151.655 20.6609 151.255 19.5539C150.855 18.441 150.23 17.4178 149.394 16.5203ZM140.741 30.6652H137.523V16.3348H140.795C143.613 16.3348 145.686 16.9571 146.952 18.1837C148.219 19.4103 148.861 21.1036 148.861 23.2218C148.861 25.4895 148.188 27.3144 146.867 28.6547C145.54 29.9891 143.48 30.6652 140.741 30.6652Z" fill="white"/>
<path d="M157.484 13.6423H154.588V33.3637H157.484V13.6423Z" fill="white"/>
<path d="M167.907 13.5824L159.254 33.1184L159.151 33.3577H162.138L164.295 28.4573H173.688L175.876 33.3577H178.918L170.161 13.5824H167.907ZM172.579 25.9024H165.398L168.974 17.705L172.579 25.9024Z" fill="white"/>
<path d="M194.589 13.6423V28.1581L182.851 13.6423H180.572V33.3577H183.384V18.8957L195.158 33.3577H197.407V13.6423H194.589Z" fill="white"/>
<path d="M223.713 23.2816C224.615 22.2584 225.076 21.0258 225.076 19.6257C225.076 15.6527 222.464 13.6423 217.307 13.6423H209.623V33.3637H212.52V25.7767H217.362L223.143 33.2919L223.191 33.3577H226.742L220.416 25.2143C221.767 24.8911 222.876 24.239 223.719 23.2816H223.713ZM212.514 16.3348H217.216C220.513 16.3348 222.119 17.4118 222.119 19.6257C222.119 20.6848 221.707 21.5045 220.858 22.1328C220.004 22.761 218.834 23.0842 217.386 23.0842H212.514V16.3348Z" fill="#F8A51C"/>
<path d="M231.518 24.6698H242.316V22.0251H231.518V16.3348H243.098V13.6423H228.621V33.3577H243.353V30.6652H231.518V24.6698Z" fill="#F8A51C"/>
<path d="M261.744 28.3137C260.217 30.001 258.242 30.8567 255.872 30.8567C253.648 30.8567 251.83 30.1805 250.473 28.8462C249.116 27.5119 248.419 25.7109 248.419 23.503C248.419 21.2951 249.061 19.512 250.334 18.1658C251.6 16.8255 253.364 16.1433 255.563 16.1433C257.763 16.1433 259.708 16.9272 261.272 18.4769L261.393 18.5966L263.277 16.7955L263.187 16.6759C262.459 15.7185 261.417 14.9227 260.078 14.3124C258.745 13.7021 257.205 13.3969 255.503 13.3969C252.497 13.3969 250.037 14.3722 248.188 16.2869C246.34 18.2017 245.407 20.6309 245.407 23.503C245.407 26.5605 246.346 29.0377 248.207 30.8626C250.061 32.6876 252.588 33.609 255.703 33.609C257.308 33.609 258.83 33.2919 260.217 32.6637C261.611 32.0354 262.708 31.1798 263.471 30.1327L263.55 30.019L261.872 28.1701L261.744 28.3137Z" fill="#F8A51C"/>
<path d="M274.125 13.391C271.289 13.391 268.859 14.3722 266.907 16.3049C264.956 18.2376 263.968 20.6609 263.968 23.497C263.968 26.3332 264.956 28.8283 266.907 30.731C268.859 32.6397 271.283 33.6031 274.125 33.6031C276.967 33.6031 279.36 32.6278 281.312 30.7011C283.263 28.7744 284.251 26.3511 284.251 23.491C284.251 20.6309 283.263 18.1598 281.312 16.257C279.36 14.3483 276.943 13.385 274.125 13.385V13.391ZM274.125 30.8567C272.161 30.8567 270.464 30.1506 269.077 28.7624C267.689 27.3743 266.98 25.6032 266.98 23.497C266.98 21.3908 267.683 19.6018 269.059 18.2196C270.44 16.8374 272.143 16.1374 274.119 16.1374C276.094 16.1374 277.748 16.8374 279.142 18.2196C280.53 19.6018 281.239 21.3789 281.239 23.497C281.239 25.6151 280.554 27.3922 279.197 28.7744C277.845 30.1566 276.137 30.8567 274.119 30.8567H274.125Z" fill="#F8A51C"/>
<path d="M294.419 29.2351L286.923 13.738L286.875 13.6423H283.748L293.334 33.3577H295.401L304.418 13.8816L304.533 13.6423H301.485L294.419 29.2351Z" fill="#F8A51C"/>
<path d="M308.951 24.6698H319.743V22.0251H308.951V16.3348H320.525V13.6423H306.048V33.3577H320.78V30.6652H308.951V24.6698Z" fill="#F8A51C"/>
<path d="M338.002 23.2816C338.905 22.2584 339.365 21.0258 339.365 19.6257C339.365 15.6527 336.754 13.6423 331.597 13.6423H323.913V33.3637H326.809V25.7767H331.651L337.432 33.2919L337.481 33.3577H341.032L334.705 25.2143C336.057 24.8911 337.166 24.239 338.008 23.2816H338.002ZM326.803 16.3348H331.506C334.802 16.3348 336.408 17.4118 336.408 19.6257C336.408 20.6848 335.996 21.5045 335.148 22.1328C334.293 22.761 333.124 23.0842 331.675 23.0842H326.803V16.3348Z" fill="#F8A51C"/>
<path d="M354.63 13.6423L348.582 22.8747L342.674 13.7201L342.619 13.6423H339.099L347.061 25.9024V33.3577H349.958V25.9024L358.012 13.6423H354.63Z" fill="#F8A51C"/>
</svg>
